<svg xmlns="http://www.w3.org/2000/svg" viewBox="0 0 33.15 52.11"><defs><style>.cls-1{fill:#6474b7;}.cls-2{fill:#e9a061;}.cls-3{fill:#b27e4c;}.cls-4{fill:#3c58a4;}.cls-5{fill:#b1dde3;}.cls-6{fill:#6fadb2;}.cls-7{fill:#92443f;}.cls-8{fill:#803124;}</style></defs><g id="Layer_2" data-name="Layer 2"><g id="Card"><path class="cls-1" d="M21.34,37.93a4,4,0,0,1,1.78.77c.73.63,1,1.12,1.67,1.45s3.28.56,3.06,1.22-.37.08-.76,1.61a10.24,10.24,0,0,0-.37,2.49l-2.79-.21S21,43,20,43a27,27,0,0,1-4.41.18,9.35,9.35,0,0,1-2.85-1L8.85,40.43a6.73,6.73,0,0,1,1.8,2.36,16.15,16.15,0,0,1,.51,4.62l-3.6.07s-2.44-.81-3.25-2.22a18,18,0,0,1-1.26-2.63,3.1,3.1,0,0,1-1.59-2.48A32.9,32.9,0,0,1,2.15,35l13-.62,1.34,3.55Z"/><path class="cls-2" d="M28.25,41.53s.89.18,1.22-.19S30.6,38,31.24,37.79s1.29-.54,1.38.41a33.59,33.59,0,0,1-.34,4.4c-.09.76-.12,3.42-1,3.66a8.09,8.09,0,0,1-3-.37l-1.53-.42a9,9,0,0,1,.13-1.68A4.34,4.34,0,0,1,27.64,42Z"/><path class="cls-3" d="M27.83,41.38s0,0,0,0l0,0Z"/><path class="cls-3" d="M32.63,37.62a1.08,1.08,0,0,0-1.47-.24c-.74.41-.9,1.3-1.18,2a6.63,6.63,0,0,0-.34.8,4.14,4.14,0,0,0-.41.67c-.1.33-.48.7-.83.5a.42.42,0,0,0-.55,0c-.42.35,0,.8.45.86A1.35,1.35,0,0,0,29.47,42a4,4,0,0,0,.78-1.16.45.45,0,0,0,.17-.24.1.1,0,0,1,0,0,.43.43,0,0,0,.06-.26c.1-.23.22-.46.31-.71.22-.54.31-1.35,1-1.5.77.51.44,1.49.39,2.31l0,0a12.15,12.15,0,0,0-.32,2.4,5.86,5.86,0,0,1,0,2.13,2,2,0,0,1-2.76.86c-.59-.13-1-.62-1.59-.73-.22,0-.45,0-.67-.07a.42.42,0,0,0-.27.77c.27.16.61,0,.9.16a5.83,5.83,0,0,0,2.45.94,2.6,2.6,0,0,0,2.84-2.1,5.88,5.88,0,0,0,0-1.87A10,10,0,0,1,32.93,41c.22-.26.08-.83.16-1.16A2.49,2.49,0,0,0,32.63,37.62Z"/><path class="cls-4" d="M28.25,41.53a.31.31,0,0,0,0-.1,1.25,1.25,0,0,0-.71-.89,17.32,17.32,0,0,0-2-.49,3.21,3.21,0,0,1-1-.55c-.52-.39-1-.88-1.51-1.22A3.74,3.74,0,0,0,22,37.83a.62.62,0,0,0-.65.1c-.17.22,0,.55.23.68a4.15,4.15,0,0,0,.78.24c.67.23,1.06.91,1.62,1.35a7.66,7.66,0,0,0,2.85,1,.62.62,0,0,1,.47.32c.07.21-.09.42-.23.6A3.83,3.83,0,0,0,26.33,45a5.13,5.13,0,0,1-4-1.08,7.36,7.36,0,0,0-2.12-1.21,8.94,8.94,0,0,0-3,.08,7.39,7.39,0,0,1-3.53-.62,1.29,1.29,0,0,0-.5-.17.45.45,0,0,0-.45.21.45.45,0,0,0,.1.49,1.15,1.15,0,0,0,.45.27,9,9,0,0,0,4.08.63,7.12,7.12,0,0,1,2.76,0,9,9,0,0,1,2.05,1.28,6.34,6.34,0,0,0,3.71,1.07,1.35,1.35,0,0,0,1.21-.55c.23-.46-.08-1,0-1.52C27.19,43,28.28,42.37,28.25,41.53Z"/><path class="cls-3" d="M14.53,18.71l.05,0h0Z"/><path class="cls-4" d="M5.83,46a6.85,6.85,0,0,1-1.71-1.92,3.86,3.86,0,0,1-.56-2.72A.43.43,0,0,0,3,40.75c-.35.23-.27.72-.29,1.09,0,0,0,.06,0,.1l0-.06a7.43,7.43,0,0,1-.51-5.58c.21-.35,0-.81-.44-.72s-.41,1-.55,1.49A6.8,6.8,0,0,0,2.66,43.2a.3.3,0,0,0,.17.08A5.74,5.74,0,0,0,4,45.3a5.41,5.41,0,0,0,1.46,1.44A.42.42,0,0,0,5.83,46Z"/><path class="cls-4" d="M11.16,47.41c-.31-.08-.33-.41-.29-.68a8,8,0,0,0-.7-4c-.46-.58-1.16-1-1.6-1.58-.39-.3-.54-.93.1-1a.42.42,0,0,1,.4.3c.22.24.42.5.66.72,1.5,1,1.83,2.46,1.95,4.15C11.65,45.83,12,47.61,11.16,47.41Z"/><path class="cls-4" d="M27.25,41.21a.23.23,0,0,0-.23-.08h0a.25.25,0,0,0-.42-.24l-.09.1a1.34,1.34,0,0,0,0-.2.26.26,0,0,0-.47-.13l0,0a.11.11,0,0,1,0,0,.25.25,0,0,0-.38-.21,1.35,1.35,0,0,0-.27.2.28.28,0,0,0,0-.09c0-.2-.29-.22-.42-.11l-.11.13s0,0,0,0a.23.23,0,0,0-.28-.23,1.28,1.28,0,0,0,.05-.27.24.24,0,0,0-.37-.21,1.31,1.31,0,0,0-.27.26l0,0a.26.26,0,0,0-.35-.28.88.88,0,0,0,.05-.15.25.25,0,0,0-.46-.19l-.4.57c.06-.13.12-.25.17-.38a.2.2,0,0,0-.11-.26.46.46,0,0,0,0-.2.26.26,0,0,0-.43-.17,2.8,2.8,0,0,0-.28.31l.14-.29c.09-.22-.19-.36-.37-.28l-.06,0c.09-.24-.29-.43-.46-.2a5.48,5.48,0,0,0-.66,1l0,.06h0s0,0,0,.06c-.09.24.19.36.37.25a.25.25,0,0,0,.35,0,.94.94,0,0,0,0,.29.25.25,0,0,0,.37.15l.06-.06a.28.28,0,0,0,.23.13.6.6,0,0,0,.09.43.26.26,0,0,0,.39,0,2.81,2.81,0,0,0,.31-.29.25.25,0,0,0,.41.14l.06-.06a.24.24,0,0,0,.29.16.85.85,0,0,0,.27-.13,1.54,1.54,0,0,1-.05.17.25.25,0,0,0,.37.28s0,0,0,0a.28.28,0,0,1,0,.09.26.26,0,0,0,.37.15,1,1,0,0,0,.34-.29.32.32,0,0,0,0,.09.25.25,0,0,0,.39.05h0a1.38,1.38,0,0,0,0,.2c0,.24.28.3.42.18h0a1,1,0,0,0,0,.17.25.25,0,0,0,.37.22l.09-.09a.09.09,0,0,0,0,.05.2.2,0,0,0,.19.22.21.21,0,0,0,.28.14.24.24,0,0,0,.32.09c.24-.12.4-.32.33-.53s.12-.24.19-.36A.24.24,0,0,0,27.25,41.21Z"/><path class="cls-4" d="M8.28,40.7A1.67,1.67,0,0,0,7,40.83a3.12,3.12,0,0,1,1.1.21c-.28.11-.86.13-1,.37.46.07,1.17-.25,1.6-.06a1.46,1.46,0,0,1-.72.26c.36,0,.72,0,1.07,0-.35.12-.82,0-1.17.28.21.42,1.36-.14,1.59.38-.22.4-1.05,0-1.38.07.1.3,1.4.09,1.71.18a6.59,6.59,0,0,0-1.4.3c.36,0,1.4-.1,1.62.23-.41.38-1.3-.18-1.71.36.49.42,1.52-.26,2,.2-.22.46-1.24,0-1.49.46.45.11,1.33-.15,1.67.16-.23.26-.86.09-1.17.2.29.21.65.17,1,.29-.22.21-.6.14-.82.31a1.42,1.42,0,0,0,.9.24c-.18.08-.41.06-.54.19a1.84,1.84,0,0,0,.61.16c-.14,0-.28,0-.36.13a1.31,1.31,0,0,0,.52.2c-.13,0-.26,0-.29.17a.44.44,0,0,0,.48-.13c-.07-.14-.19-.26-.25-.41.14-.07.3,0,.43-.14-.08-.21-.36-.23-.51-.36.14-.13.39-.22.27-.45s-.44-.13-.4-.39.35-.22.29-.44-.47-.24-.57-.46c.32-.17,0-.36-.13-.51s-.11-.43-.29-.53"/><path class="cls-2" d="M17.58,30.26l.55,2.57a23.47,23.47,0,0,1,0,3.29c-.14.71-.22,1.39-.55,1.32s-1,.47-1,.47-.3.51-.22.79a5.34,5.34,0,0,0,.22.61s-.52.08-.62.42-.06.64,0,.65a2.32,2.32,0,0,0,1.12.45,1.22,1.22,0,0,0,.78-.22s-.27.75.32.77a2,2,0,0,0,2.06-1,52.62,52.62,0,0,0,2.69-6.14,14.54,14.54,0,0,0-.4-5C22,28.09,21,25.89,21,25.89s-.55,1.3-1.46,1.57l-2,.6Z"/><path class="cls-5" d="M17.58,28.06s2-1,2.92-1.59a2.05,2.05,0,0,0,1-1.89,11,11,0,0,0-1.62-4.52c-1-1.43-2-3-2-3l-2.42,1.4-3.33-.91S11,17.57,10.54,17L9.45,15.56s-3,2.39-3.83,3.15a28.27,28.27,0,0,0-4.24,6.7C.77,27.27.13,31.24.8,32.83A28.21,28.21,0,0,0,3,36.67s.58-.46,1.52-1.1a2.78,2.78,0,0,1,1.89-.47,4.26,4.26,0,0,0,1.25,1.11,2.25,2.25,0,0,1,1,1.09,4,4,0,0,1,.24,1.25,1.15,1.15,0,0,1,0,1c-.25.61.1,1.17-.07.89a8.7,8.7,0,0,0,1.75,2,3.7,3.7,0,0,0,3.12-.29,15.19,15.19,0,0,0,2.48-2.84,17,17,0,0,0,1.38-4.35,22.08,22.08,0,0,0,0-5A13.32,13.32,0,0,1,17.58,28.06Z"/><path class="cls-6" d="M3.15,22.61a11.94,11.94,0,0,1,3.58-4.32,20.58,20.58,0,0,0,3-1.92,1.1,1.1,0,0,0,.35-.53.44.44,0,0,0-.28-.52c-.24-.05-.44.16-.61.33a9.09,9.09,0,0,1-1.82,1.23,14.27,14.27,0,0,0-5.14,5.67A22.15,22.15,0,0,0,.09,29.13a10.59,10.59,0,0,0,2.26,7.65,1,1,0,0,0,.51.39c.47.09.75-.47,1-.85a2,2,0,0,1,1.63-.84,1.41,1.41,0,0,0,.82-.11c.37-.24.29-.8.16-1.22A17.66,17.66,0,0,0,5,30.69L8.74,25a.66.66,0,0,0,.15-.48c-.05-.24-.39-.33-.62-.23a1.27,1.27,0,0,0-.51.54L4.38,30.15a1.13,1.13,0,0,0-.2.45,1.24,1.24,0,0,0,.13.56l1.47,3.37A3.74,3.74,0,0,0,3,36.12a9.19,9.19,0,0,1-2-6.62,16.65,16.65,0,0,1,2.13-6.72Z"/><path class="cls-6" d="M21.82,23.81a5.61,5.61,0,0,0-.71-2,15.12,15.12,0,0,0-1.87-3.56,9.3,9.3,0,0,1-.84-1.06.34.34,0,0,0,0-.2,2.81,2.81,0,0,1-.7.58,13.71,13.71,0,0,0,1.21,1.59,22.71,22.71,0,0,1,1.52,3.14,4.2,4.2,0,0,1,.61,2.5c0,.5-.5.84-.75,1.25a4.3,4.3,0,0,1-2,1.28l-.23.11a2.22,2.22,0,0,1,.17-1.08.43.43,0,0,0-.23-.55c-1-.24-.73,1.83-.79,2.44s-.08,1.38-.12,2.12A27.14,27.14,0,0,1,17,35.29c-.39,1.41-.54,3-1.5,4.23-1.53,2.06-2.44,2.87-5.1,2.56.07.11.13.22.19.33a.51.51,0,0,1,.05.38.31.31,0,0,1-.06.13c.41,0,.81,0,1.22,0,2,.05,3.37-1.55,4.43-3,1-1.23,1.14-2.83,1.55-4.3.45-1.81.08-3.67.17-5.51,0-.6.1-1.21.1-1.82.25,0,.53-.23.78-.3a5.22,5.22,0,0,0,2.57-2.12A2.5,2.5,0,0,0,21.82,23.81Z"/><circle class="cls-6" cx="14.52" cy="20.06" r="0.42"/><circle class="cls-6" cx="14.49" cy="22.03" r="0.42"/><circle class="cls-6" cx="14.33" cy="24.58" r="0.42"/><circle class="cls-6" cx="14.2" cy="27.04" r="0.42"/><circle class="cls-6" cx="14.21" cy="29.55" r="0.42"/><circle class="cls-6" cx="13.69" cy="31.98" r="0.42"/><circle class="cls-6" cx="13.49" cy="34.68" r="0.42"/><circle class="cls-6" cx="13.15" cy="37.3" r="0.42"/><circle class="cls-6" cx="12.76" cy="39.54" r="0.42"/><path class="cls-6" d="M21.14,24.88l.12-.14a.24.24,0,0,0-.11-.34,3.47,3.47,0,0,0,.18-.33.22.22,0,0,0-.15-.28.47.47,0,0,1,.05-.1.26.26,0,0,0-.16-.3,2,2,0,0,0,.19-.54.24.24,0,0,0-.3-.29.8.8,0,0,0-.09-.42.25.25,0,0,0-.28-.12,1.1,1.1,0,0,0,0-.27.25.25,0,0,0-.25-.24h0a.23.23,0,0,0-.25-.3.54.54,0,0,0,0-.22.36.36,0,0,0-.21-.16,1.17,1.17,0,0,0,0-.33c0-.13-.11-.27-.25-.25h-.06a2.42,2.42,0,0,0,0-.25.26.26,0,0,0-.2-.24.25.25,0,0,0-.2-.26.42.42,0,0,0-.34-.46c-.05-.32-.13-.51-.41-.59a.71.71,0,0,0,0-.15.26.26,0,0,0-.18-.24.62.62,0,0,0-.23,0,.77.77,0,0,0,0-.45c0-.09-.2-.18-.22-.26-.06-.32-.54-.18-.48.13s.15.19.21.32,0,0,0,0H17.5a3.23,3.23,0,0,0-.72.3.24.24,0,0,0,.06.43.24.24,0,0,0,.28.34l.13,0a.26.26,0,0,0,.17.21l-.2.17a.26.26,0,0,0,.25.42h0a.24.24,0,0,0,.15.21.27.27,0,0,0,.21.23.18.18,0,0,0-.05.07.22.22,0,0,0,0,.21,2.9,2.9,0,0,0-.61.5.25.25,0,0,0,.24.41,2,2,0,0,0,.33-.09.21.21,0,0,0,0,.06l-.05.06a.24.24,0,0,0,.11.34l-.08.07a.25.25,0,0,0,.24.42l.11,0,0,.05a.26.26,0,0,0,.24.32,2,2,0,0,0-.2.21.25.25,0,0,0,.15.37,1.76,1.76,0,0,0,.46,0,.38.38,0,0,0,0,.27.26.26,0,0,0,.28.12l0,0a.25.25,0,0,0,.19.36,2.61,2.61,0,0,0-.19.27.25.25,0,0,0,0,.19,1.53,1.53,0,0,0-.29.33.25.25,0,0,0,.28.37l.12,0a.33.33,0,0,0,.18.08.23.23,0,0,0,.1.2c-.2.18-.41.35-.6.55a.26.26,0,0,0,.1.41c-.27.27-.53.55-.83.8a.22.22,0,0,0,0,.3c0,.19.15.38.36.25l.2-.13a.25.25,0,0,0,.33,0c.3-.26.58-.55.91-.79a.33.33,0,0,0,.06-.1l1.22-1.15A.23.23,0,0,0,21.14,24.88ZM20,22.58h0l0,0Zm-.19-.49-.58.28.57-.37A.28.28,0,0,0,19.76,22.09Z"/><path class="cls-6" d="M17.67,26.68h0a.24.24,0,0,0-.36-.27.93.93,0,0,0-.28.28.21.21,0,0,0,0,.29.73.73,0,0,0-.14.16.28.28,0,0,0,.08.33,2.76,2.76,0,0,0-.27.16.25.25,0,0,0,.06.45l.11,0c-.19.18-.4.32-.41.65a.23.23,0,0,0,.21.23,1.54,1.54,0,0,0-.23.18.24.24,0,0,0,0,.36.84.84,0,0,0-.21.21.25.25,0,0,0,.07.32,3.27,3.27,0,0,0-.35.3.25.25,0,0,0,.09.4,1.16,1.16,0,0,0-.18.2.25.25,0,0,0,.08.34.43.43,0,0,0-.05.12s0,0,0,.07h0a.2.2,0,0,0,0,.17.69.69,0,0,0-.13.2.25.25,0,0,0,0,.15c-.41.21-.77.49-.75.82a.26.26,0,0,0,.31.25l.28-.08h0a.29.29,0,0,0-.14.13h0c-.2,0-.22.29-.11.42s.07,0,.11,0a2.18,2.18,0,0,0-.35.32.25.25,0,0,0,.24.42l.2,0h0a.29.29,0,0,0,.07.12l-.05.06a.24.24,0,0,0,0,.22.81.81,0,0,0-.2.34.29.29,0,0,0,0,.13,1.29,1.29,0,0,0-.17.16.25.25,0,0,0,0,.35.3.3,0,0,0,.1.07,1.37,1.37,0,0,0-.56.47.27.27,0,0,0,0,.26.78.78,0,0,0,.52.25l0,0a.22.22,0,0,0-.11.14l-.15.1c-.19.15,0,.4.18.43h.07s0,0,0,0a.08.08,0,0,0,0,0,3.11,3.11,0,0,0-.56.32.25.25,0,0,0,0,.43.82.82,0,0,0,.32.09,2.11,2.11,0,0,0-.61.65.28.28,0,0,0,0,.25h0a.23.23,0,0,0-.06.12,10.72,10.72,0,0,1-2.21,1.46.22.22,0,0,0,0,.37,1.92,1.92,0,0,1-.25.12c-.49.19-1.11.17-1.52.53a.24.24,0,0,0,.11.41,3.57,3.57,0,0,0,.72,0,.19.19,0,0,0,.21.15,1.11,1.11,0,0,0,.37-.07s0,0,.06,0l.15,0a.21.21,0,0,0,.16-.19,1.19,1.19,0,0,1,.43-.18.21.21,0,0,0,.25.1,3.33,3.33,0,0,0,1-.52s0-.06.05-.09l.11-.08h0l.05,0a.21.21,0,0,0,.07-.15.26.26,0,0,0,.41.08,14.06,14.06,0,0,0,1.56-2.27v0a5.36,5.36,0,0,0,.4-.69.27.27,0,0,0,0-.23.25.25,0,0,0,0-.24h0a.26.26,0,0,0-.07-.24.21.21,0,0,0-.06-.16l.12,0a.24.24,0,0,0,.17-.3.22.22,0,0,0,0-.27s0,0,0,0a1.65,1.65,0,0,0,.36-.22A.26.26,0,0,0,17,36a.08.08,0,0,0,0,0,.24.24,0,0,0,.23-.18,2.29,2.29,0,0,0,.05-1,.31.31,0,0,0-.05-.1,2.58,2.58,0,0,0,0-1,.24.24,0,0,0-.39-.12s0,0,0-.07l.09-.1H17a.23.23,0,0,0,.15-.33.72.72,0,0,0,.29-.59.31.31,0,0,0-.09-.19.33.33,0,0,0,0-.14.26.26,0,0,0-.13-.28,1.92,1.92,0,0,0,.17-.26.25.25,0,0,0-.15-.37H17l-.08,0a1.22,1.22,0,0,0,.41-.54.24.24,0,0,0-.1-.26.24.24,0,0,0-.21-.19c.13-.09.26-.18.38-.28a.23.23,0,0,0-.07-.39l0,0a.29.29,0,0,0,0-.37.89.89,0,0,0,.3-.36.26.26,0,0,0-.25-.32H17.2a2.41,2.41,0,0,0,.39-.4.24.24,0,0,0-.11-.35.77.77,0,0,0,.24-.32.24.24,0,0,0-.1-.25l.1-.07A.26.26,0,0,0,17.67,26.68ZM13.13,41.21h0v0l-.08,0H13A.57.57,0,0,1,13.13,41.21Zm3.59-7.44a.25.25,0,0,0,0,.11v0h0s0,0,0,0l-.1,0,0,0,.1,0s0,0,.07-.05Zm-.46-.9,0,0v0h-.26ZM14.12,41h0v0Z"/><path class="cls-6" d="M7.87,24.63a.28.28,0,0,0-.18,0s0,0,0,0a.67.67,0,0,0-.31.14A.25.25,0,0,0,7.3,25a1.35,1.35,0,0,0-.45.19.32.32,0,0,0-.12.21.26.26,0,0,0-.09.13.38.38,0,0,0-.1,0,.25.25,0,0,0-.17.29.72.72,0,0,0-.25.12s0,0,0,.07L6,26a.25.25,0,0,0-.24.31H5.64a.26.26,0,0,0-.16.34h0a.25.25,0,0,0-.17.31c0,.06,0,.09.08.14a.25.25,0,0,0-.08.18h0a.25.25,0,0,0-.16.36l0,.05a.22.22,0,0,0-.05.14s0,0,0,0a.24.24,0,0,0-.3.24,1,1,0,0,0,.05.24l-.11,0a.26.26,0,0,0-.25.25.67.67,0,0,0,0,.2.25.25,0,0,0-.18.3s0,.06.07.1a.18.18,0,0,0,0,.09.42.42,0,0,0,0,.12.52.52,0,0,0-.28.06A.33.33,0,0,0,4,29.6a.23.23,0,0,0-.25.25.27.27,0,0,0-.19.2.24.24,0,0,0-.22.21.3.3,0,0,0,0,.21.59.59,0,0,0,.32.44,2.43,2.43,0,0,0-.29.26.25.25,0,0,0,.13.41,1.41,1.41,0,0,0-.27.37.26.26,0,0,0,.15.37h0l-.05.06c-.13.2.07.39.27.35a.81.81,0,0,0-.1.09.25.25,0,0,0,0,.37,2.43,2.43,0,0,0-.2.25.25.25,0,0,0,.28.37l.13-.06a.23.23,0,0,0,.11.11.25.25,0,0,0,.24.3h0a.25.25,0,0,0,.17.34.76.76,0,0,0-.06.16.24.24,0,0,0,.24.31A1.64,1.64,0,0,0,5,34.77a.2.2,0,0,0,.2.12c.29,0,.73-.14.77-.47a.22.22,0,0,0-.12-.22l-.05,0a.48.48,0,0,0-.14-.09.58.58,0,0,0,.18-.2.25.25,0,0,0-.22-.37H5.51a.24.24,0,0,0,0-.41.26.26,0,0,0-.17-.33H5.2A.23.23,0,0,0,5,32.59a.23.23,0,0,0,0-.22l.12-.06c.22-.08.26-.43,0-.48a1.37,1.37,0,0,0-.28,0,.24.24,0,0,0,0-.29.34.34,0,0,0,0-.12c0-.34-.29-.46-.57-.46l.32-.22a.26.26,0,0,0-.15-.47,1.24,1.24,0,0,0,.35-.37A.25.25,0,0,0,5,29.51l0,0a.09.09,0,0,0,0,0,.59.59,0,0,0,.44-.36,1.86,1.86,0,0,0,.11-.52.26.26,0,0,0,.28-.2.49.49,0,0,0,.27-.4.85.85,0,0,1,0-.23c0-.05.11-.08.15-.12a.57.57,0,0,0,.1-.3.23.23,0,0,0,.14-.16,1.12,1.12,0,0,0,0-.31.52.52,0,0,0,.28-.17.26.26,0,0,0-.14-.41v0l.23,0a.21.21,0,0,0,.16-.28l.07,0a.3.3,0,0,0,.16-.2.23.23,0,0,0,.12-.25,1.4,1.4,0,0,0,.29-.09.21.21,0,0,0,.11-.2h.1C8.24,25.06,8.12,24.65,7.87,24.63Zm-3.7,5.81Z"/><path class="cls-2" d="M2.86,37.17a5.49,5.49,0,0,0,2.27,3c1.59.78,2.06.28,2.06.28s1.29.57,1.48-.28a2.13,2.13,0,0,0,0-1.26s.77-.35.22-1.3a9.16,9.16,0,0,0-2-2L5.5,34.93a5.29,5.29,0,0,0-1.71.86A3.57,3.57,0,0,0,2.86,37.17Z"/><path class="cls-3" d="M8.94,38.55A.41.41,0,0,0,9.26,38a5.5,5.5,0,0,0-.75-1.74,3.68,3.68,0,0,0-1-.76c-.28-.18-.67-.21-.81-.55a.44.44,0,0,0-.77.29c.06.5.63.74,1,.92a4.31,4.31,0,0,1,.83.56,5.15,5.15,0,0,1,.68,1.6.38.38,0,0,0,.09.13l-.06,0a1.86,1.86,0,0,1-.93-.6c-.19-.75-1.2-.18-.77.41a2.93,2.93,0,0,0,1.47,1h.11a.63.63,0,0,1,0,.52l-.1,0c-.71.1-1.16-.5-1.64-.93a.42.42,0,0,0-.83.1c0,.37.34.59.58.81l.4.37a4.66,4.66,0,0,1-3.32-3,.81.81,0,0,1,0-.16.42.42,0,0,0-.29-.51c-1.13-.06-.26,1.74.11,2.2a5.48,5.48,0,0,0,3.47,2.38c.38.07,1,.12,1-.39a1.87,1.87,0,0,0,.53,0,.66.66,0,0,0,.57-.12,1.44,1.44,0,0,0,.32-1.57A.4.4,0,0,0,8.94,38.55Z"/><path class="cls-2" d="M11.39,47.85s-.12-1.16-1-1.47a4.35,4.35,0,0,0-1.77-.18s-1.17-1.11-2-.91-1.11.89-1,1.27a3.89,3.89,0,0,0,.79.92s-.71.72-.5,1a2.76,2.76,0,0,0,.5.54.46.46,0,0,0-.3.61,2.87,2.87,0,0,0,.47.84s-.21.76.32.77,1.86,0,3.05.13a40.56,40.56,0,0,0,4.13.25c.52-.09,1.25-.52,1-1.15a4.22,4.22,0,0,0-2-2C12.47,48.28,11.39,47.85,11.39,47.85Z"/><path class="cls-3" d="M13.64,48.26a14.77,14.77,0,0,0-1.81-.71.39.39,0,0,0-.14-.08A2,2,0,0,0,10.2,45.9a10.27,10.27,0,0,0-1.11-.18,1.2,1.2,0,0,0-.37.1.34.34,0,0,0-.13-.2c-.64-.5-1.59-1-2.37-.55-1,.6-1.3,2-.33,2.55a.94.94,0,0,0-.3.7,1.48,1.48,0,0,0,.29.74,1.22,1.22,0,0,0,.25,1.32.78.78,0,0,0,.31,1,2.06,2.06,0,0,0,.78.36c.34.09.69,0,1,0a1.8,1.8,0,0,0,1.21,0,18.31,18.31,0,0,1,3.84.29,2.5,2.5,0,0,0,2-.58C16.08,50.23,14.82,48.79,13.64,48.26ZM7.35,49.73a1.94,1.94,0,0,0-.54.13c-.14-.15-.27-.29-.14-.49a.89.89,0,0,1,.68-.06.39.39,0,0,0,.42-.13c0,.2,0,.41-.09.61A.41.41,0,0,0,7.35,49.73Zm-.91-1.46c.16-.28.48-.18.75-.17a.4.4,0,0,0,.38-.25,4.21,4.21,0,0,0,.12.71.24.24,0,0,0-.11-.06,1.79,1.79,0,0,0-1,0A.42.42,0,0,1,6.44,48.27Zm.25-2.5a1.52,1.52,0,0,1,1.16.35l.19.13a1.69,1.69,0,0,0-.48,1.23.4.4,0,0,0-.35-.23H6.87A.38.38,0,0,0,6.55,47c-.18,0-.35-.07-.4-.27C6.06,46.32,6.42,46,6.69,45.77Zm.24,4.95c.17-.13.41-.11.61-.17a.31.31,0,0,0,.13-.06,1.69,1.69,0,0,0,.14.45A1.1,1.1,0,0,1,6.93,50.72Zm7.71.24c-.12.24-.43.24-.66.25a4.36,4.36,0,0,1-1.68-.13c-.94-.16-1.92,0-2.88-.1a2.1,2.1,0,0,0-.51.11l-.09,0c0-.3-.42-.56-.34-.91a8,8,0,0,0,.15-1.29,7,7,0,0,1-.24-1.29.93.93,0,0,1,.76-1,4.26,4.26,0,0,1,1.12.27.94.94,0,0,1,.5,1.31.42.42,0,0,0,.81.24,0,0,0,0,1,0,0c.25.09.51.16.68.23C13.28,49,14.88,49.63,14.64,51Z"/><path class="cls-2" d="M9.38,11.2S9,9.8,8.22,9.8s-1.1,1.94-1,2.71,1.59,1.29,2,1.92.82,2.43,1.55,2.73,3,.73,3.68,1.1a1.65,1.65,0,0,0,1.91-.34c.49-.45,1.64-.72,2-1.56s.34-2.19.77-3.08.75-1.37,1-2.08a3.29,3.29,0,0,0,.24-1.35s-2.55-1.06-3.84-1.73-4.17-2-4.17-2,.6.26-.39,1.35a8.34,8.34,0,0,0-1.68,2A13.78,13.78,0,0,1,9.38,11.2Z"/><path class="cls-7" d="M12.13,5.56a4.79,4.79,0,0,0,2.2,1.68c1.42.49,2.59,1.23,3.69,1.51a7.53,7.53,0,0,1,2.52,1.73A8.37,8.37,0,0,0,21.41,7c-.13-1.47-2.06-5.19-4.64-5.92S12.21.42,10.66,2,7.57,5.73,7.53,7.3s-.5,3.6-.08,3.18.32-.74,1-.58S10,11.35,10,11.35a1.58,1.58,0,0,1,.42-1.82c.9-.94,1.47-1.31,1.68-2A6.21,6.21,0,0,0,12.13,5.56Z"/><path class="cls-8" d="M21.28,5.51c-.21-.6-.51-1.17-.77-1.75A14.9,14.9,0,0,0,18.6,1.7,9.12,9.12,0,0,0,15.76.24c-2-.7-4.13.24-5.69,1.51a9.28,9.28,0,0,0-2.51,4c-.1.77-.31,1.52-.4,2.31-.06.46-.06.92-.08,1.38s-.17,1,.37,1a.42.42,0,0,0,.42-.42c.07-.66.06-1.33.15-2s.27-1.49.4-2.25a7.49,7.49,0,0,1,3.25-4.14,4.39,4.39,0,0,1,4.52-.35,5,5,0,0,1,2.22,1.36c.46.42.87.9,1.29,1.36a10.75,10.75,0,0,1,.92,2.25,5.25,5.25,0,0,1,.18,2.46c0,.26-.22.7-.31,1.09a3.1,3.1,0,0,0-1-.95l-1.22-.66a11,11,0,0,1-1.75-.61,16.36,16.36,0,0,1-2.1-.93A6.41,6.41,0,0,1,12.06,5a.42.42,0,0,0-.82-.13c-.13.43.32.91.84,1.33a.5.5,0,0,0-.09.23,6.06,6.06,0,0,1-1.15,1.88c-.48.61-.83,1.31-1.25,2a.42.42,0,0,0-.71.37c0,.28.18.52.24.79a.45.45,0,0,0,.31.35.46.46,0,0,0,.56-.42,7.83,7.83,0,0,1,.72-1.3c.6-1.17,1.63-2.08,2.06-3.34.15.12.3.22.39.31A35.83,35.83,0,0,0,17.3,8.85a4.33,4.33,0,0,1,1.55.66,2.42,2.42,0,0,1,1,.83.42.42,0,0,0,.73.14.41.41,0,0,0,.26.17c.63,0,.52-.92.73-1.35A6.47,6.47,0,0,0,21.28,5.51Z"/><circle class="cls-8" cx="12.89" cy="11.7" r="0.42"/><circle class="cls-8" cx="18.44" cy="12.09" r="0.42"/><path class="cls-8" d="M11.5,10.5c-.6-.72,1.17-1.24,1.67-1.29a.42.42,0,0,1,.42.42c0,.38-.37.4-.65.48a4.69,4.69,0,0,0-.78.34A.44.44,0,0,1,11.5,10.5Z"/><path class="cls-8" d="M18.77,11a.41.41,0,0,0-.45-.26.42.42,0,0,1-.42-.42c0-.52.67-.48,1-.34a1.53,1.53,0,0,1,.56.57.42.42,0,0,1-.72.44Z"/><path class="cls-8" d="M16.17,14.42c-.11,0-.24,0-.35,0-.59,0-.73-.84-.09-.91a.57.57,0,0,1,.26.08.68.68,0,0,1,.57.18A.43.43,0,0,1,16.17,14.42Z"/><path class="cls-8" d="M15.08,17a3.2,3.2,0,0,1-1-.44.43.43,0,0,1-.28-.4.42.42,0,0,1,.42-.42c.21,0,.35.15.52.25s.46.17.69.22a6,6,0,0,0,.84-.17.42.42,0,0,1,.22.82A2.92,2.92,0,0,1,15.08,17Z"/><path class="cls-3" d="M20.32,9.54c-.56.11-.27.78-.39,1.17a5.76,5.76,0,0,1-.83,1.73A8.51,8.51,0,0,0,18.45,15,2.83,2.83,0,0,1,17,17a8.65,8.65,0,0,1-1.59,1,1.6,1.6,0,0,1-.71-.16,5.14,5.14,0,0,1-1.47-.56c-.68-.25-1.43-.24-2.11-.53-.7-.77-.89-1.95-1.61-2.73-.38-.45-1.08-.45-1.44-.91a2.77,2.77,0,0,1-.32-2.1c.25-.62.53-1.22,1.06-.38a.6.6,0,0,1,0,.42.43.43,0,0,0,.85.09A1.57,1.57,0,0,0,8.21,9.4c-.57,0-.89.55-1.11,1a3.33,3.33,0,0,0,.42,3.44c.36.41,1,.46,1.35.8a6,6,0,0,1,.58.93c.74,1.73,1,2.17,2.92,2.4.78.15,1.41.66,2.21.77l-.05,0,.05,0h0c1.07.51,2-.39,2.79-1a2.91,2.91,0,0,0,.3-.17,3,3,0,0,0,.7-.58,5.58,5.58,0,0,0,1.11-3.1,10.82,10.82,0,0,1,1.05-2.33C20.72,11.1,21.2,9.52,20.32,9.54Z"/><path class="cls-3" d="M23.25,33.09A13.27,13.27,0,0,0,23,30.57a19,19,0,0,0-1-4.4s-.2-.51-.4-.56-.2.25-.25.34a2.48,2.48,0,0,1-.19.26c.15.85.53,1.54.68,2.43a30.25,30.25,0,0,1,.51,4.13c.23,1.35-.56,2.5-1,3.74s-1.48,4.8-3.11,4.56a.31.31,0,0,0-.12,0c.4-.11.68-.33.53-.75a.43.43,0,0,0-.58-.15,2.48,2.48,0,0,1-1.76.08c-.67-.7-1.39.73.14.9a4.22,4.22,0,0,0,.6,0,.89.89,0,0,0,.52.61.42.42,0,0,0,.22,0l0,0c3,1,4-4.62,4.92-6.54A4,4,0,0,0,23.25,33.09Z"/><path class="cls-3" d="M16.93,39.89a2,2,0,0,0,1.12-.13,2.19,2.19,0,0,0,.75-.3.42.42,0,0,0-.52-.67,2.22,2.22,0,0,1-1.36.25.43.43,0,0,0-.3-.13.41.41,0,0,0-.42.37C16.14,39.67,16.59,39.88,16.93,39.89Z"/><path class="cls-3" d="M17.17,38.27a3.69,3.69,0,0,0,1.2-.48.4.4,0,0,0,0-.62,4.19,4.19,0,0,0,.29-1.24c.26-2-.47-3.81.95-5.59h0a.42.42,0,0,0-.07-.59.48.48,0,0,0-.71.25,5.32,5.32,0,0,0-.93,2.2c-.24,1.59.35,3.34-.42,4.83a.67.67,0,0,0-.27.33c-.33.08-.66.17-.71.55A.43.43,0,0,0,17.17,38.27Z"/></g></g></svg>