<svg xmlns="http://www.w3.org/2000/svg" viewBox="0 0 43.7 21.42"><defs><style>.cls-1{fill:#e9a061;}.cls-2{fill:#b27e4c;}</style></defs><g id="Layer_2" data-name="Layer 2"><g id="Card"><path class="cls-1" d="M31.48,21.41l8.08-.16A5.22,5.22,0,0,1,40.05,19c.56-1.26,1.5-1.14,1.57-3.35,0-1.46-.23-4.26-.23-4.26s-.21-.14.33-1S41.85,9,41.85,9s1.58-.11,1.6-2.44a7.2,7.2,0,0,0-1.31-4.12c-.37-.79-.66-.46-1.27-.86s-.53.35-.53.35A4.1,4.1,0,0,0,38.11.63C36.64.3,36.38.5,36.38.5A4.06,4.06,0,0,0,33.91.16a2.29,2.29,0,0,0-1.36,1.38s-1.16-.78-1.8.21a10.54,10.54,0,0,0-1.2,5.38c.13,1.9,0,6.57.72,8.06S32,19.57,32,19.57Z"/><path class="cls-1" d="M.07,4.42s1.28-.76,1.87-.62a2.32,2.32,0,0,0,1.61.12c1.17-.17,6.76-2.55,7.78-2.17s1.46.78,1.32,1.1-.23.51-.23.51,1.54.13,1.47,1.06a5.21,5.21,0,0,1-.23,1.3s1.23.24,1.5,1.09a3.19,3.19,0,0,1-.09,1.84s4.91-1,5.68-.57,2,1.29.29,2.16-7.32,1.7-7.32,1.7,2.46,1.34,2.85,2.2,1,1.64.14,1.79-1.81-.5-3-.76-5-1.65-6.85-1.68-6,.37-6,.37Z"/><path class="cls-2" d="M1.06,13.5a16.1,16.1,0,0,1,2.6-.35,12.75,12.75,0,0,1,2.83,0,16.05,16.05,0,0,1,2.37.48c.83.19,1.67.33,2.5.54,1,.24,2,.51,2.94.82.5.15,1,.32,1.47.49.29.1,1,.39,1-.17,0-1.06-1-1.82-1.87-2.24-.56-.28-1-.71-1.65-.69a19.08,19.08,0,0,1-2,0c-.18,0-.45,0-.52-.21-.23-.61,2.67-.59,3-.63.81-.09,1.61-.2,2.41-.34.39-.07.77-.15,1.16-.24a6.3,6.3,0,0,0,1.05-.21c1-.27,2.27-.44,2.93-1.37.26-.51,0-.7-.45-.89-1.15-.46-2.67,0-3.82.18a47.89,47.89,0,0,1-4.75.76.34.34,0,0,1-.48-.22c-.06-.32.28-.43.53-.42s.7,0,1.05-.09.91-.18,1.36-.28c.19,0,.3-.45.32-.6a1.23,1.23,0,0,0-.12-.8,1.2,1.2,0,0,0-.71-.58c-.23-.08-.64,0-.74-.25A9,9,0,0,1,12.3,7,1.74,1.74,0,0,1,11,7.23a.32.32,0,0,1,.28-.57A2.63,2.63,0,0,0,12.82,6a5.75,5.75,0,0,0,.56-.41,2.25,2.25,0,0,0,.22-.71c.05-.44-.48-.8-.79-1a.67.67,0,0,0-.12-.06c-.37-.08-.87.42-1.21.55s-1,.17-1.43.33a.33.33,0,0,1-.48-.22.31.31,0,0,1,.24-.37,5.31,5.31,0,0,0,1.91-.55,1.21,1.21,0,0,0,.56-.64c-.07-.64-.65-.79-1.23-.76a5.73,5.73,0,0,0-.58.07,7.6,7.6,0,0,0-1.38.21,16.69,16.69,0,0,0-3,.9L4.14,4a3.4,3.4,0,0,1-1.55.37,3.11,3.11,0,0,0-.87-.15,3.28,3.28,0,0,0-1.06.25.8.8,0,0,1-.36.09c-.54,0-.26-.62.13-.68a6.8,6.8,0,0,1,.91-.26c.6-.17,1.15.15,1.76.09C4,3.38,4.85,3,5.75,2.74c.71-.19,1.36-.53,2.06-.72A16.48,16.48,0,0,1,10,1.63l.63-.07A4.35,4.35,0,0,1,12,1.61a1.31,1.31,0,0,1,.84,1.57,1,1,0,0,1,.48.26A1.64,1.64,0,0,1,14,5.77a2,2,0,0,1,.65.19A2,2,0,0,1,15.8,7.62a1.46,1.46,0,0,1-.17.71c1.8-.3,3.66-.87,5.46-.38,1.4.44,1.17,1.8.13,2.52a11,11,0,0,1-3.51,1.14c-1.05.21-2.11.39-3.17.53.12,0,.43.24.53.3l.52.27a4.27,4.27,0,0,1,1.05.84c.48.54,1.06,1.59.66,2.31-.82.94-2,.1-2.92-.2-.73-.24-1.56-.47-2.32-.67l-2.91-.63a21.13,21.13,0,0,0-2.44-.55,17.76,17.76,0,0,0-5.44.29A.32.32,0,0,1,1.06,13.5Z"/><path class="cls-2" d="M29.56,12.68a23.41,23.41,0,0,0,1.06,4.37,6.91,6.91,0,0,1,.67,3.43,1.31,1.31,0,0,0,0,.65c.06.21.33.37.51.25a.52.52,0,0,0,.15-.38,7.48,7.48,0,0,0-.1-2.41c-.2-.84-.6-1.61-.88-2.42a14.76,14.76,0,0,1-.6-2.65A34.2,34.2,0,0,1,29.92,9a29.19,29.19,0,0,1,.36-4.28,7.64,7.64,0,0,1,.6-2.31,2,2,0,0,1,.49-.86,1.15,1.15,0,0,1,1-.09.29.29,0,0,0,.18.07l.19.12a6.94,6.94,0,0,1,1,.94,5,5,0,0,1,.61,1.22A10.72,10.72,0,0,1,35,7.36a1.65,1.65,0,0,1-.11.52,1.38,1.38,0,0,1-.37.39.41.41,0,0,0-.29,0,2.58,2.58,0,0,0-.94-1.86c-.15-.1-.32-.16-.47-.27a2.53,2.53,0,0,0-.27-.18l-.26-.11c-.23-.13-.28-.49-.34-.72s0-.86-.49-.85a.33.33,0,0,0-.29.35,4.52,4.52,0,0,0,.25.89.63.63,0,0,0-.55.11.34.34,0,0,0,.43.5.65.65,0,0,0,.39,0h0a2.29,2.29,0,0,1,.17.28,2.91,2.91,0,0,0-.84,2,20.86,20.86,0,0,0,.05,3.16A7.84,7.84,0,0,0,31,13.21c0,.41-.16,1.94.5,1.81.27-.08.26-.35.18-.56a11.13,11.13,0,0,1,0-2.16c.3-1.28-.16-2.6.06-3.89A3,3,0,0,1,32.25,7a.54.54,0,0,1,.7,0,.33.33,0,0,0,.14.17c.69.95.65,2.17.89,3.27a4.41,4.41,0,0,0,1.69,2.6,10.2,10.2,0,0,1,2.76,2.6,6.14,6.14,0,0,1,.77,1.18.34.34,0,0,0,.4.28c.49-.17.09-.7-.06-1a18.55,18.55,0,0,0-1.23-1.68c-1-1.17-2.61-1.77-3.35-3.17a7.21,7.21,0,0,1-.57-2.28.66.66,0,0,0,.37,0,2.11,2.11,0,0,0,.29-.2c-.08.22.15.53.29.71a1.5,1.5,0,0,0,1.21.6,1.57,1.57,0,0,0,1.25-.91c.05.33.7.54,1,.47a2.49,2.49,0,0,0,1.32-.45,1.94,1.94,0,0,0,.21-.29.05.05,0,0,1,0,0,1.38,1.38,0,0,0,1.08.88l.17-.06c0,.07,0,.15,0,.23-.24,1.3-1.32,1.7-2.52,1.61a.32.32,0,0,0-.1.63,2.29,2.29,0,0,0,.74,0,2.86,2.86,0,0,0,1.41-.43,18,18,0,0,1,.27,4.2A6.27,6.27,0,0,1,41,17.23a3.1,3.1,0,0,1-.95,1,.3.3,0,0,0-.09.22.39.39,0,0,0-.08.14,5.81,5.81,0,0,0-.32.78,7.2,7.2,0,0,0-.08,1.14c0,.25-.08.52,0,.75a.32.32,0,0,0,.44.07.48.48,0,0,0,.15-.43,8.12,8.12,0,0,1,.09-1.48c.11-.2.17-.43.29-.62a.31.31,0,0,0,.09-.18c1.54-1.06,1.5-3.13,1.38-4.81a15.24,15.24,0,0,0-.22-1.92c-.05-.19,0-.48-.16-.63a2.84,2.84,0,0,0,.64-1.77h.12a2.93,2.93,0,0,0,1.16-2,6.37,6.37,0,0,0-.22-3.64,4.39,4.39,0,0,0-2.49-2.67c-.25-.07-.75-.13-.85.19.06-.18-.72-.75-.86-.83A3.18,3.18,0,0,0,37.87.15a2.41,2.41,0,0,0-1.25.18c-.18.08-.27.16-.45,0A2.61,2.61,0,0,0,34.06.11c-.53.16-1.23.25-1.57.73a1.61,1.61,0,0,0-1.65.35,2.87,2.87,0,0,0-.52.9,18.13,18.13,0,0,0-1,6A31.53,31.53,0,0,0,29.56,12.68ZM40.7,8.08a4.66,4.66,0,0,0,.23-.81A8.74,8.74,0,0,0,40.34,2a.27.27,0,0,0,.25-.2C42.52,2.44,43.43,5.09,43,7A2.53,2.53,0,0,1,41.85,9c-.59.23-.79-.16-1-.54A2.49,2.49,0,0,0,40.7,8.08ZM38,8.75a8.79,8.79,0,0,0,.44-2,7.08,7.08,0,0,0-.91-5.12,4,4,0,0,0-.59-.71l0,0,.32-.09a3,3,0,0,1,1.58.28c1.82,1.28,2.13,5.63,1,7.41a.89.89,0,0,1-.65.36,1.1,1.1,0,0,1-.78,0A.33.33,0,0,0,38,8.75ZM33.09,1.14A4.33,4.33,0,0,1,35,.63c1.34.17,2.25,1.53,2.62,2.73a8.65,8.65,0,0,1,.12,3.4A4.86,4.86,0,0,1,37,9.11a.78.78,0,0,1-1.24-.21c-.12-.2-.24-.52-.53-.41l.18-.22c.59-1.11-.08-3.6-.49-4.76A4.17,4.17,0,0,0,33.75,1.7,3.44,3.44,0,0,0,33.09,1.14Z"/></g></g></svg>