<svg xmlns="http://www.w3.org/2000/svg" viewBox="0 0 23.74 26.12"><defs><style>.cls-1{fill:#558455;}.cls-2{fill:#e9a061;}.cls-3{fill:#b27e4c;}.cls-4{fill:#255827;}</style></defs><g id="Layer_2" data-name="Layer 2"><g id="Card"><path class="cls-1" d="M13.9,21.77c-.29.5-1.12,3.09.42,3.69s3.7-.25,3.84-1.58-.89-3.5-2-3.36A4.73,4.73,0,0,0,13.9,21.77Z"/><path class="cls-2" d="M.08,7s4.74,4.21,6.2,6S9,18.37,9.44,19.55,10.6,22,11.51,21.26s.24-.07.53-1.4-1.17-2.38-.91-3.12-.15-1-.15-1,2.27.26,3.53.33,5.22,2.32,5.86,2.5,1.46.37,1.64-.47S21.9,17.45,20.9,16s-4.06-3.07-4.06-3.07A28.07,28.07,0,0,1,21.51,14c.85.47,1.61.85,1.8.42A6,6,0,0,0,23,12.38a2.57,2.57,0,0,0,.52-1.74A1.76,1.76,0,0,0,23,9.55a3.27,3.27,0,0,0-1.11-2.68A86.77,86.77,0,0,0,11.42,3,14.86,14.86,0,0,1,7.16,1C6.47.51,6,.17,6,.17Z"/><path class="cls-3" d="M23.71,11.49A7.2,7.2,0,0,0,23,7.86a6,6,0,0,0-2.52-2.13C16.1,3.45,10.7,3.3,6.84.24,6.58,0,6.11-.14,6,.17s.11.41.28.54C10.48,4,16.52,4,21,6.9a3.54,3.54,0,0,1,1.83,2.28,28.74,28.74,0,0,0-5.62-2.9c-.24.27.13.65.45.82l3.11,1.62A5.75,5.75,0,0,1,22.59,10a1.93,1.93,0,0,1,.4,2,15.44,15.44,0,0,0-6.47-3.65c0,.56.63.89,1.14,1.11A15.16,15.16,0,0,1,22,11.93c.71.63,1.35,1.6,1,2.46-2.54-1.51-5.8-1.45-8.26-3.08-.27-.18-.78-.27-.78.06,0,.14.14.25.26.33,1.24.8,2.48,1.6,3.67,2.47a6.83,6.83,0,0,1,1.53,1.08c.41.36.91.59,1.3,1,.54.54,1.54,1.53.68,2.23-.33.17-.63-.18-.92-.3-1.5-.69-2.79-1.94-4.48-2.17a22,22,0,0,0-3.5-.65c-.25-.05-.76,0-1-.08s-.17-.2-.28-.28.11-.44-.28-.46-.33.45-.32.66a9.16,9.16,0,0,0,.78,3.25,4.42,4.42,0,0,1,.48,1.39A1.11,1.11,0,0,1,11.13,21,1.1,1.1,0,0,1,10,20.5a3.54,3.54,0,0,1-.46-1.18,21.08,21.08,0,0,0-9-12.24C.42,7,.22,6.89.08,7s0,.46.18.62c.64.55,1.35,1,2,1.53A20.49,20.49,0,0,1,8.93,19.42a3.28,3.28,0,0,0,1.26,2.07,1.59,1.59,0,0,0,2-.52,2.75,2.75,0,0,0-.11-2.49A5.54,5.54,0,0,1,11.39,16a13.18,13.18,0,0,1,7.73,2.19,5.42,5.42,0,0,0,1.53.83,1.29,1.29,0,0,0,1.67-1.27,2.8,2.8,0,0,0-.85-1.58,13.43,13.43,0,0,0-3.86-3,10.14,10.14,0,0,1,3.87,1.22,4.05,4.05,0,0,0,1,.46,1,1,0,0,0,1-.29,1.46,1.46,0,0,0,.21-1l0-1.91C23.72,11.65,23.71,11.57,23.71,11.49Z"/><path class="cls-4" d="M15.66,25.43a2.45,2.45,0,0,0,2.18-2.51,2.87,2.87,0,0,0-.34-1.17,1.76,1.76,0,0,0-.87-.6,2.33,2.33,0,0,0-1.2-.12,1.65,1.65,0,0,0-.57.22,2.82,2.82,0,0,0-.57.52,1.94,1.94,0,0,0-.57,1.38C13.77,24.29,14.27,25.69,15.66,25.43Zm-.67.66c-1.69-.22-2.29-2.71-1.66-4.08a2.81,2.81,0,0,1,4.29-1.08,2.82,2.82,0,0,1,.81,2.73A3.12,3.12,0,0,1,15,26.09Z"/></g></g></svg>