<svg xmlns="http://www.w3.org/2000/svg" viewBox="0 0 60.09 55.55"><defs><style>.cls-1{fill:#2d3687;}.cls-2{fill:#f7b383;}.cls-3{fill:#d09971;}.cls-4{fill:#3c58a4;}.cls-5{fill:#6b1e1e;}.cls-6{fill:#6183d1;}</style></defs><g id="Layer_2" data-name="Layer 2"><g id="Card"><path class="cls-1" d="M60.09,55.55a.2.2,0,0,1,0-.07v.07Z"/><path class="cls-1" d="M59.73,55.24h0v0Z"/><path class="cls-1" d="M57.7,46.45l0-.23v0s0-.07,0-.1l.06-.08v0h0a1.84,1.84,0,0,0,0,.25h0v.06h0a.07.07,0,0,0,0,.05h0l0,.09Z"/><path class="cls-2" d="M44.38,2.15c-7.64-3.23-18.52-1.83-24.2.6s-5.85,4.94-5.89,5.93l-.3,0s-.83,8.57-.9,10,.53,8.37.53,8.37,4.14,7.71,17.57,8.51c16,1,20.4-8.14,20.4-8.14L52,12.29C53.62,9.08,51.18,5,44.38,2.15Z"/><path class="cls-3" d="M39.69,34.74c.05,0,.36-15.89.36-15.89s4.27-3.32,4.7-6.3S40.18,1.48,40.4,1.32s4,.51,7.48,3,5.27,4.93,4.71,5.8A5.58,5.58,0,0,0,52,12.38l-.36,15s-2.63,4.47-4.7,5.16S39.69,34.74,39.69,34.74Z"/><path class="cls-4" d="M14.62,25a1.31,1.31,0,0,1,1.63-.4c.59.47.69,1.56,1,2.22A3.74,3.74,0,0,0,19.49,29c1.29.33,2.16-.52,3-1.37a2.81,2.81,0,0,1,2.43-.91c.76.17,1,1.58,1.14,2.22a2.89,2.89,0,0,0,2.07,2.55,3.75,3.75,0,0,0,3-.34c1-.62,2.32-2.78,3.61-1.8a14.63,14.63,0,0,1,1.56,1.77,3.63,3.63,0,0,0,2.24,1.16c2.84.32,3.39-3.09,4.69-4.82l.16-.17a.86.86,0,0,1,.14-.13c-.09.08-.08.07,0,0l.16-.09c-.16.08-.06,0,0,0s.22,0,0,0a1,1,0,0,1,.24,0c-.24-.05.18.06.25.08a1.26,1.26,0,0,1,.36.19c.4.3.59.78,1,1.07a2.87,2.87,0,0,0,3.59-.52,9.62,9.62,0,0,0,1.27-1.87A2.94,2.94,0,0,1,51.66,25s.14-2.31-1-1.73a6,6,0,0,0-2.42,2.58c-.25.41-.54.93-1.06,1.05s-.6-.17-.87-.51a3,3,0,0,0-3.93-.77,7.47,7.47,0,0,0-2,3c-.12.25-.25.5-.39.73s-.16.27-.24.4,0,0-.16.21a2.72,2.72,0,0,1-.24.24c-.18.18.11-.06,0,0l-.16.1c-.14.08.13,0-.13.05l-.15,0c.24-.05,0,0-.07,0-.26,0,0,0-.24,0a1.92,1.92,0,0,1-.37-.15,3.78,3.78,0,0,1-.79-.76,7.53,7.53,0,0,0-1.76-1.8,3.15,3.15,0,0,0-2.74-.26,7.4,7.4,0,0,0-2.33,1.76,1.84,1.84,0,0,1-2.08.44c-.43-.19-.44-.67-.51-1.09a5.9,5.9,0,0,0-.51-1.64,3.09,3.09,0,0,0-2.43-2,5.06,5.06,0,0,0-3,.66,8.73,8.73,0,0,0-1.54,1.37c-.38.37-.54.4-.94,0-.72-.66-.81-1.75-1.22-2.6a2.84,2.84,0,0,0-2.74-1.73,2.21,2.21,0,0,0-2.34,1.61c-.2.5-.38,1.5.1,1.63a1,1,0,0,0,1.23-.7Z"/><path class="cls-4" d="M15.45,26.5c-.11.14-.07.24.09.3.16-.18.05-.49-.19-.36s0,.52.26.39a.29.29,0,0,0-.24-.25"/><path class="cls-4" d="M15.1,26.15a.61.61,0,0,0-.12.15,1.11,1.11,0,0,0-.07.16,1.13,1.13,0,0,0,0,.18h0v.15a.55.55,0,0,0,.18.29.45.45,0,0,0,.14.1l.14.07h0a.57.57,0,0,0,.26,0,.54.54,0,0,0,.22-.13A.61.61,0,0,0,16,27a1,1,0,0,0,.07-.15s0,0,0,0,0-.1,0-.16v-.07a.68.68,0,0,0,0-.14v-.05L16,26.25h0a1.47,1.47,0,0,0-.1-.13l0,0L15.79,26h0a.35.35,0,0,0-.14-.06.63.63,0,0,0-.19,0h-.2a1.24,1.24,0,0,0-.2.1l-.13.1v0l-.09.11s0,0,0,0a.69.69,0,0,0-.07.15,1.11,1.11,0,0,0,0,.19c0,.05,0,.1,0,.14v0a1.56,1.56,0,0,1,.06.15l0,.05a.57.57,0,0,0,.12.15l.13.1,0,0,.15.06h0l.15,0h0l.17,0a.7.7,0,0,0,.2-.08.39.39,0,0,0,.18-.18.43.43,0,0,0,.07-.25,1.13,1.13,0,0,0,0-.18v0L16,26.49a.08.08,0,0,1,0,0l-.09-.12,0,0h0l-.11-.09,0,0-.22-.08a.34.34,0,0,0-.2,0,.28.28,0,0,0-.18.06.37.37,0,0,0-.15.13.34.34,0,0,0-.08.17l0,.13a.43.43,0,0,0,.07.25l.07.1a.46.46,0,0,0,.22.13l.08,0L15.19,27l.07,0-.1-.08,0,0-.08-.1a.21.21,0,0,1,0,.06l-.05-.12s0,.05,0,.07l0-.13h0l.25-.43h0l.12-.05-.06,0,.13,0h-.07l.13,0-.07,0,.12,0-.07,0,.1.08s0,0-.05-.05l.08.1,0-.06.05.12a.09.09,0,0,1,0,0v.22a.06.06,0,0,1,0,0l-.05.12a.05.05,0,0,1,0,0l-.08.1.05-.05-.1.08.07,0-.12.05.06,0-.14,0h0l-.13,0h0l-.12,0,0,0-.1-.08,0,0-.08-.1a.08.08,0,0,1,0,0l-.05-.12a.14.14,0,0,1,0,.07l0-.14v.07l0-.13a.24.24,0,0,1,0,.08l.05-.12a.21.21,0,0,1,0,.06l.08-.1h0l.48-.13h0l.11.05-.06,0,.1.08,0,0,.08.1s0,0,0,0l0,.12v0l0,.14a0,0,0,0,1,0,0l0,.13a.09.09,0,0,1,0-.05l-.05.12,0-.07-.08.1h0a.36.36,0,0,0,.11-.16.47.47,0,0,0,0-.38.31.31,0,0,0-.11-.16l-.1-.08a.45.45,0,0,0-.25-.07l-.13,0a.38.38,0,0,0-.22.13Z"/><path class="cls-4" d="M23.8,30.57c-.42.62.33.59.27.24s-.72-.38-.54.18c.08.27.52.43.51,0,0-.84-1,.16-.28,0"/><path class="cls-4" d="M23.36,30.32a1.47,1.47,0,0,0-.14.28,1.19,1.19,0,0,0,0,.26s0,.08,0,.12,0,.08,0,.11a.69.69,0,0,0,.07.15.94.94,0,0,0,.09.12h0l.12.09h0l.14.06h0l.16,0h0l.17,0,.1,0,.09,0h0l.12-.09v0l.09-.11s0,0,0,0l.06-.14v0c0-.05,0-.1,0-.15v-.05a.8.8,0,0,0,0-.15v0l-.06-.13a.62.62,0,0,0-.14-.18l-.14-.11-.05,0L24,30.13l-.05,0-.19,0s0,0-.05,0l-.18,0a.46.46,0,0,0-.16.07l0,0-.14.11-.09.12v0l-.06.14v0a.28.28,0,0,0,0,.09.34.34,0,0,0,0,.1.65.65,0,0,0,0,.2.78.78,0,0,0,.09.27.16.16,0,0,0,0,.07,1.58,1.58,0,0,0,.12.15l.15.12.06,0,.14.06h.06l.16,0a.61.61,0,0,0,.35-.09h0l.11-.08h0l.09-.12,0,0,.06-.15a.08.08,0,0,1,0,0,1.49,1.49,0,0,0,0-.21,1.27,1.27,0,0,0,0-.28.14.14,0,0,0,0-.06,1.22,1.22,0,0,0-.07-.17h0l-.09-.12a.45.45,0,0,0-.13-.1l0,0L24,30.2h0a.39.39,0,0,0-.15,0h0l-.17,0-.19.08-.08,0-.17.13-.13.16a1,1,0,0,0-.08.18v0A.77.77,0,0,0,23,31h0a.78.78,0,0,0,0,.16h0a.67.67,0,0,0,.06.12h0a.64.64,0,0,0,.2.2h0l.14.05,0,0,.18,0a2.06,2.06,0,0,0,.26,0,.32.32,0,0,0,.17-.09.35.35,0,0,0,.13-.14.64.64,0,0,0,.06-.18.44.44,0,0,0,0-.2.53.53,0,0,0-.23-.3l-.12-.05a.42.42,0,0,0-.27,0h0l.13,0h-.06l.12.05,0,0,.11.08h0l.08.1v0l.05.12s0,0,0,0L24,31v0l0,.14L24,31l0,.12,0-.07-.08.11a.34.34,0,0,1,.08-.09l-.1.08.1-.06-.12.05.08,0-.13,0h.05l-.13,0h0l-.12-.05a.05.05,0,0,1,0,0l-.1-.08,0,0-.08-.1a.09.09,0,0,1,0,.06l-.05-.12a.2.2,0,0,1,0,.11v-.13a1,1,0,0,1,0,.17l0-.13a.64.64,0,0,1,0,.07l.05-.11,0,0,.08-.11s0,0,0,0l.1-.07h0l.12,0,0,0,.13,0h-.06l.14,0-.08,0,.12.05-.09-.05.1.08a.3.3,0,0,1-.08-.08l.08.1a.22.22,0,0,1-.05-.08l.05.12a.83.83,0,0,1,0-.15l0,.14v-.1l0,.13a.25.25,0,0,1,0-.07L24,31a.08.08,0,0,1,0,0l-.07.1,0,0-.1.08a.05.05,0,0,1,.05,0l-.12.05.06,0-.13,0a.14.14,0,0,1,.09,0l-.13,0,.11,0-.12-.05.09.05-.1-.08.05.05L23.6,31l0,.05-.05-.12a.11.11,0,0,1,0,.05v-.21a.07.07,0,0,1,0,.05l.05-.12,0,0,.07-.11,0,0,.1-.08a.09.09,0,0,1-.06,0l.12-.05-.07,0h.16l.12.05,0,0,.1.08,0,0,.07.1v0l.05.12,0,0,0,.14V31a.2.2,0,0,1,0-.11l-.05.12a.7.7,0,0,1,.09-.17.55.55,0,0,0,.06-.18.44.44,0,0,0,0-.2.46.46,0,0,0-.09-.17.35.35,0,0,0-.14-.13.53.53,0,0,0-.39-.05l-.12.05a.52.52,0,0,0-.18.18Z"/><path class="cls-4" d="M33.85,32.48a.66.66,0,0,0,.18.6c.42-.12.25-.58-.14-.56s-.39.39-.07.48c.48.14.56-.62.23-.73s-.38.67.25.58"/><path class="cls-4" d="M33.35,32.48a1.47,1.47,0,0,0,0,.21.79.79,0,0,0,0,.3,1,1,0,0,0,.13.27,1.83,1.83,0,0,0,.13.16.61.61,0,0,0,.24.15h.29a.9.9,0,0,0,.34-.2l0,0a.76.76,0,0,0,.11-.14.85.85,0,0,0,.06-.17.57.57,0,0,0,0-.18,1,1,0,0,0-.09-.35.67.67,0,0,0-.14-.19.81.81,0,0,0-.14-.12l-.06,0a.61.61,0,0,0-.17-.07L34,32H33.9a.64.64,0,0,0-.2,0,.57.57,0,0,0-.25.11.67.67,0,0,0-.24.26.7.7,0,0,0,0,.7.68.68,0,0,0,.26.27l.17.08.08,0a.72.72,0,0,0,.25,0,1.08,1.08,0,0,0,.35-.1l.09-.06.09-.08a.59.59,0,0,0,.13-.18,1,1,0,0,0,.12-.46,1.64,1.64,0,0,0,0-.23l0-.11a.92.92,0,0,0-.18-.3.47.47,0,0,0-.17-.14.49.49,0,0,0-.21-.08.78.78,0,0,0-.34,0h0a.75.75,0,0,0-.38.29.77.77,0,0,0-.11.39.85.85,0,0,0,.11.42,1.27,1.27,0,0,0,.13.19,1.24,1.24,0,0,0,.18.14.83.83,0,0,0,.46.14h.15a.41.41,0,0,0,.19,0,.31.31,0,0,0,.16-.11.45.45,0,0,0,.15-.35.51.51,0,0,0-.15-.35l-.1-.08a.43.43,0,0,0-.25-.07h-.16l.13,0-.12,0,.12,0a.18.18,0,0,1-.09-.06l.1.08a.23.23,0,0,1-.07-.07l.08.11-.06-.09.05.12a.44.44,0,0,1,0-.1v.18s0-.05,0-.07l-.05.12,0,0-.08.1,0,0-.1.08,0,0-.12,0h-.15l.08,0-.12,0,0,0-.1-.08,0,.05-.08-.1a.25.25,0,0,1,0,.07l-.05-.12a.27.27,0,0,1,0,.12v-.12a.27.27,0,0,1,0,.12l.05-.12a.26.26,0,0,1-.05.09l.08-.1-.06.06.1-.08-.06,0,.12,0-.07,0,.13,0H34a.2.2,0,0,1-.11,0l.12,0-.08,0,.1.08s0,0,0,0l.08.1,0,0,0,.12a.13.13,0,0,1,0-.06v.22s0,0,0-.06l0,.12,0-.06L34,33a.1.1,0,0,1,0-.05L34,33,34,33,33.9,33l.1,0h-.15l.1,0L33.83,33a.18.18,0,0,1,.07.05L33.8,33a.17.17,0,0,1,.06.06l-.08-.1,0,.06,0-.11a.14.14,0,0,1,0,.06l0-.13a.06.06,0,0,1,0,.06l0-.13a.14.14,0,0,1,0,.06l0-.12s0,0,0,.05l.08-.1s0,0,0,0l.1-.08-.09.05.12-.05-.05,0,.49.13a.3.3,0,0,1-.08-.08l.08.1a.41.41,0,0,1-.07-.11l0,.12a.83.83,0,0,1,0-.15l0,.13a1.13,1.13,0,0,1,0-.26.33.33,0,0,0,0-.19.39.39,0,0,0-.1-.16.53.53,0,0,0-.36-.15.51.51,0,0,0-.35.15l-.08.1a.55.55,0,0,0-.07.25Z"/><path class="cls-4" d="M44.36,30.53a.33.33,0,0,0,.31.21c.17-.61-1.05-.26-.53.15s.78-.81,0-.45c-.09.25.07.5.37.38"/><path class="cls-4" d="M43.93,30.78a.87.87,0,0,0,.32.34.72.72,0,0,0,.2.09.86.86,0,0,0,.17,0h.05l.14,0a.56.56,0,0,0,.17-.09.38.38,0,0,0,.09-.09.46.46,0,0,0,.09-.17.94.94,0,0,0,0-.44.71.71,0,0,0-.08-.18.77.77,0,0,0-.22-.22.65.65,0,0,0-.17-.08l-.07,0-.21,0a.69.69,0,0,0-.2,0,.78.78,0,0,0-.27.09l-.07,0-.15.12a.84.84,0,0,0-.19.33.86.86,0,0,0,0,.32.48.48,0,0,0,.07.18,1.14,1.14,0,0,0,.3.32.77.77,0,0,0,.39.11.7.7,0,0,0,.37-.11.9.9,0,0,0,.28-.27,1,1,0,0,0,.11-.24.25.25,0,0,0,0-.07,1.62,1.62,0,0,0,0-.2.69.69,0,0,0-.1-.37.76.76,0,0,0-.11-.14,1.25,1.25,0,0,0-.12-.09h0l-.13-.05h0l-.17,0a.78.78,0,0,0-.22,0,.53.53,0,0,0-.12,0l-.17.07a.49.49,0,0,0-.24.31.08.08,0,0,0,0,0,.86.86,0,0,0,.08.65.69.69,0,0,0,.26.25.51.51,0,0,0,.17.07l.09,0h.11l.2,0,.08,0a.39.39,0,0,0,.17-.09.35.35,0,0,0,.13-.14.33.33,0,0,0,.06-.19.35.35,0,0,0,0-.2.5.5,0,0,0-.23-.3l-.12-.05a.57.57,0,0,0-.26,0,.27.27,0,0,1-.12,0h.14l.12,0-.05,0,.1.08,0,0,.08.1,0-.05.06.12a.41.41,0,0,1,0-.08l0,.13v-.1l0,.13a.29.29,0,0,0,0-.09l-.22.3h0l-.12.05a.58.58,0,0,1,.17-.06l-.13,0h.09l-.14,0,.06,0-.12-.05,0,0-.1-.08,0,0-.08-.11s0,0,0,0l0-.12a.43.43,0,0,0,0,0l0-.13a.11.11,0,0,1,0,.08l0-.13a.35.35,0,0,1,0,.11l.05-.12-.06.11.08-.1a.46.46,0,0,1-.07.07l.1-.08-.06,0,.12-.05h.1l.12.05-.06,0,.1.08-.09-.08.08.1,0-.06,0,.12s0,0,0-.05l0,.13v0l0,.14s0,0,0-.05l0,.12s0,0,0-.05l-.08.1a.12.12,0,0,1,.05-.05l-.1.07.1-.05-.11.05a.33.33,0,0,1,.14,0h-.14l.08,0-.12-.05,0,0-.1-.08,0,0-.07-.1s0,0,0,0l-.05-.12a.13.13,0,0,1,0,.06v-.18a.07.07,0,0,1,0,.05l.48-.36h0l.12.05-.07,0,.11.08-.08-.08.08.1-.05-.07a.29.29,0,0,0-.13-.14.28.28,0,0,0-.17-.09.34.34,0,0,0-.2,0,.28.28,0,0,0-.18.06.46.46,0,0,0-.23.3l0,.13a.45.45,0,0,0,.07.25Z"/><path class="cls-4" d="M50.79,27s-.09.11,0,0-.12.21.14.14c0-.17-.07-.17-.17-.14"/><path class="cls-4" d="M50.66,27.47h0l-.12,0h0l-.1-.08h0l-.08-.1h0l0-.12h0l0-.13h0l0-.13h0l0-.12s0,0,0,0l.08-.1,0,0h0l-.08.1,0,.07a.38.38,0,0,0,0,.19.45.45,0,0,0,.07.25l.08.11.1.07.12.05.13,0,.13,0s.2-.08.07,0l.06,0,0,0a.43.43,0,0,0,.14-.13.39.39,0,0,0,.09-.17.34.34,0,0,0,0-.2.32.32,0,0,0-.06-.18l-.07-.1a.56.56,0,0,0-.22-.13l-.14,0a.45.45,0,0,0-.25.07h0l-.1.08h0l-.08.1h0s0,.09,0,.13,0,0,0,0h0a.59.59,0,0,1,0,.13h0c0,.05,0,.1,0,.15h0l.05.12h0l.08.1h0l.1.08h0l.12.05h.21l.15,0h.06l.12,0a.43.43,0,0,0,.14-.13.24.24,0,0,0,.06-.11.31.31,0,0,0,0-.19,1.1,1.1,0,0,0,0-.18.08.08,0,0,0,0,0,.59.59,0,0,0-.06-.14h0l-.08-.1h0l0,0-.06,0h0s-.06,0-.06,0l-.06,0h-.37a.28.28,0,0,0-.17.09.29.29,0,0,0-.13.14.3.3,0,0,0-.06.18.34.34,0,0,0,0,.2l0,.12a.39.39,0,0,0,.18.18l.12.05a.57.57,0,0,0,.26,0h.06l-.14,0h0l-.13,0h0l-.12-.05h0l-.1-.08,0,0-.08-.1a0,0,0,0,1,0,0l0-.12a.24.24,0,0,1,0,.08l0-.14v0l.37-.48h-.06l.13,0s0,0-.06,0l.13,0h0l.12,0h0l.11.07h0l.07.1h0l0,.12v0l0,.13v.11a0,0,0,0,1,0,0l-.06.12a.08.08,0,0,0,0,0l-.07.11h0l-.11.07h0l-.51-.86,0,0,.12-.05h0l.13,0h0l.13,0h0l.22.13h0l.08.1h0l0,.12h0l0,.13h0l0,.13h0l0,.12h0l-.08.11a1.71,1.71,0,0,1,.11-.14h0l.05-.12h0a.68.68,0,0,0,0-.14v-.13l0-.06c0-.08,0-.05-.06-.11l0-.05L51,26.56a.17.17,0,0,0-.12,0,.34.34,0,0,0-.2,0,.32.32,0,0,0-.18.06.29.29,0,0,0-.14.13.26.26,0,0,0-.09.17l0,.13a.45.45,0,0,0,.07.25l.08.1a.45.45,0,0,0,.22.13Z"/><path class="cls-4" d="M13.57,20.15,18.38,16,21,23.36l5.78-4.47,3.09,6.84,5-5.58,4,6.26L43,19.25l4.16,5.05,3-7.65s1.7,3.75,1.51,3.62.3-7.89.3-7.89S48.23,18.82,35.81,19C25.38,19.09,16.46,12.83,15.7,12a18,18,0,0,1-1.87-2.88Z"/><path class="cls-5" d="M52.59,10.1a5.53,5.53,0,0,0-.51-2.19,7.19,7.19,0,0,0-1.74-2.18A5.52,5.52,0,0,0,48.49,4.3C47.26,3.67,46.18,2.77,45,2.13a28.37,28.37,0,0,0-7-1.83A23.72,23.72,0,0,0,32,.14a40,40,0,0,0-5.23.55,24.55,24.55,0,0,0-3.18.65A15.58,15.58,0,0,0,17.16,4a14.09,14.09,0,0,0-2.51,2.49A3.58,3.58,0,0,0,14,8.66c-.14.11-.15.34-.16.5,0,1.13-.17,2.26-.24,3.39-.19,1.5-.36,3-.4,4.53a40.13,40.13,0,0,0-.14,4.65c0,1.18-.1,2.36-.05,3.55,0,.47,0,1,0,1.52,0,0,0,0,0,0-.1.29.13.54.33.73a15.73,15.73,0,0,0,1.25,1.33,11.18,11.18,0,0,0,1.47,1.53,14.11,14.11,0,0,0,2.09,1.44,22.51,22.51,0,0,0,5.45,2.27,40,40,0,0,0,5.22,1.35c1.48.26,2.81.29,4.29.45a3.24,3.24,0,0,0,.62,0l.38.06a10,10,0,0,0,2.32-.18,15.28,15.28,0,0,0,3.91-.63,17.12,17.12,0,0,0,2.5-.85,16.61,16.61,0,0,0,3.29-1.38,12.48,12.48,0,0,0,5.25-4.69c.15-.25.57-.63.2-.87h0c.1-.71.14-1.43.22-2.15.3-3.33.16-6.69.41-10,.08-1.27.24-2.54.33-3.82v0A3.5,3.5,0,0,0,52.59,10.1ZM16.27,5.52c2.2-2.25,4.77-3,7.74-3.69a27.67,27.67,0,0,1,3.45-.66c.78-.1,1.5-.27,2.31-.3S31.59.73,32.51.71a.43.43,0,0,0,.33-.09A29,29,0,0,1,42.67,2a9.34,9.34,0,0,1,3.24,1.43c1,.76,2.19,1.28,3.26,2,.43.37.8.81,1.23,1.19a5.42,5.42,0,0,1,1.54,2.78A9.54,9.54,0,0,1,52,11a4.41,4.41,0,0,1-.62,1.71,14.29,14.29,0,0,1-3.72,3.15c-.71.36-1.48.59-2.2.95a42.65,42.65,0,0,1-6.19,1.61,57.28,57.28,0,0,1-6.15.24,18.47,18.47,0,0,1-4.59-.78c-1.16-.39-2.28-.9-3.42-1.36a39.71,39.71,0,0,1-4.4-1.9,21.57,21.57,0,0,1-2.59-1.4c-.58-.46-1.25-.8-1.8-1.31a12.72,12.72,0,0,1-1.11-1.2c-.21-.38-.31-.82-.5-1.21C14.11,7.83,15.2,6.61,16.27,5.52ZM51.65,15c-.23,2.88-.15,5.78-.32,8.67,0,1.17-.18,2.34-.3,3.51a2.11,2.11,0,0,0,0,.62l-.1.15c-1.74,3-5.16,4.85-8.39,5.89a19.4,19.4,0,0,1-5.12,1.32c-1.25,0-2.52.43-3.77.15a.53.53,0,0,0-.41,0c-.44,0-.9-.1-1.35-.12a30.81,30.81,0,0,1-6.29-1.09h0c-1.65-.45-3.26-1-4.87-1.62A20.31,20.31,0,0,1,17,30.42a8.75,8.75,0,0,1-1.77-1.72c-.57-.55-1.09-1.14-1.62-1.71a.29.29,0,0,0,0-.32c0-.34,0-.68,0-1-.06-1.27.06-2.6,0-3.87-.09-2.21.16-4.41.24-6.61.2-1.68.4-3.38.5-5.08a3.54,3.54,0,0,0,.57,1.17,9.52,9.52,0,0,0,2.22,1.93A16.62,16.62,0,0,0,20.23,15c1.07.5,2.13,1,3.23,1.49,1.62.55,3.18,1.31,4.8,1.88a19.42,19.42,0,0,0,4.59.83c2,0,4,0,6-.17a24.5,24.5,0,0,0,4.62-1c.71-.24,1.44-.42,2.16-.65s1.14-.51,1.73-.72a15.27,15.27,0,0,0,3.09-2.09c.38-.35.72-.74,1.1-1.1a1.76,1.76,0,0,0,.24-.3C51.75,13.74,51.69,14.36,51.65,15Z"/><path class="cls-5" d="M20.78,11.45a18.19,18.19,0,0,0,2.52,1.4c1.18.56,2.38,1.07,3.57,1.59A23.9,23.9,0,0,1,30.29,16a.29.29,0,0,0,.22-.54c-1.68-1-3.58-1.56-5.34-2.39a22,22,0,0,1-4.34-2.31c-.34-.29-.9-1.11-.62-1.54a2.83,2.83,0,0,1,1.12-.44,6,6,0,0,1,1.72-.28,9.43,9.43,0,0,1,3.89.94c1.09.49,2.17,1,3.25,1.55a.35.35,0,0,0,.17,0c.63.31,1.31.55,1.94.86,1.23.57,2.45,1.15,3.7,1.67a14.36,14.36,0,0,0,4.91.79c1.88,0,3.76-1.11,2.31-3.09-.23-.25-1-1.08-1.53-1A31.74,31.74,0,0,0,38.48,8.5c-.82-.4-1.65-.76-2.5-1.1l-.78-.31-.08,0c-.48-.23-1-.45-1.46-.65S33,5.91,33,5.67c-.1-.68.61-.94,1.14-1.1a6.38,6.38,0,0,1,2.12-.36c.28,0,.56.09.84.09a.27.27,0,0,0,.17-.1A75.53,75.53,0,0,0,45,7.67a.92.92,0,0,0,.39.14.3.3,0,0,0,.27-.41.32.32,0,0,0-.24-.18c-.9-.43-1.84-.62-2.74-1.09-2.4-1.08-4.71-2.38-7.16-3.36a.29.29,0,0,0-.23.54l.76.32a6.73,6.73,0,0,0-3,.81,1.42,1.42,0,0,0-.56,1.46l-.89-.34a50.5,50.5,0,0,1-4.66-2c-.25-.28-.67.1-.43.39A14.54,14.54,0,0,0,28.65,5c1.54.74,3.16,1.27,4.73,1.92,1,.57,2.43,1,3.07,1.33a56,56,0,0,1,5.85,2.93h0a2.34,2.34,0,0,1,.74,1c.47,1.27-1.42,1.59-2.31,1.57a14.35,14.35,0,0,1-4.31-.65c-2-.81-4-1.82-6-2.66-.18-.08-.39-.29-.59-.23A24.15,24.15,0,0,0,24.59,8a7.47,7.47,0,0,0-3.89.3c-1.18.29-1.44,1.06-.85,2.09A2.68,2.68,0,0,0,20.78,11.45Z"/><path class="cls-2" d="M5.82,20.91S20.74,42.85,21.13,43.44s1.55,3.39.43,3.76S18.32,43.93,16.09,41,7,28.11,6.43,27.15s-2.87-4-2.87-4a3,3,0,0,1-2.11-1c-.76-1-1.94-3,0-4.63A2.67,2.67,0,0,1,5.54,18c.37.64,1.22,1.93.75,2.43Z"/><path class="cls-6" d="M5.94,21.33a3.67,3.67,0,0,0,.27-2C5.94,18.56,5,16.56,3.54,17s-2.38.12-2.81,1.59S.05,20.07.4,20.7s.82,1.74,1.49,1.91,1.63.27,1.63.27a3.19,3.19,0,0,1,.06-1.59,1.39,1.39,0,0,1,1.34-.65C5.27,20.66,5.94,21.33,5.94,21.33Z"/><path class="cls-3" d="M4.62,20.64c-1.12.11-1,.65-1,.65l18,25.91s1.16-.71.53-1.58S6.19,21.55,6.19,21.55A1.74,1.74,0,0,0,4.62,20.64Z"/><path class="cls-4" d="M5.94,21.33a2.66,2.66,0,0,0,.27-2A3.44,3.44,0,0,0,3.26,17a1.88,1.88,0,0,0-1.8.83,5.41,5.41,0,0,1,2.12,1.35,3,3,0,0,1,.34,2.37,1.05,1.05,0,0,1,.82-.67A1.24,1.24,0,0,1,5.94,21.33Z"/><path class="cls-5" d="M.07,19.26a3.18,3.18,0,0,0,.51,2.39A3.19,3.19,0,0,0,2.28,23a3.22,3.22,0,0,0,1.28.2C4,24,4.82,24.75,5.22,25.5c1.12,1.9,2.26,3.8,3.54,5.59,1,1.21,1.79,2.54,2.69,3.8.44.62.78,1.29,1.24,1.89a6,6,0,0,1,.42.65.27.27,0,0,0,.06.12l.06.08,0,0,0,0c.11.14.2.29.29.43.73,1.2,1.54,2.37,2.34,3.53a32.19,32.19,0,0,0,3.36,4.53c.48.48.9,1.16,1.61,1.31a1.43,1.43,0,0,0,.91-.16.87.87,0,0,0,.62-.51.29.29,0,0,0,0-.24,5.4,5.4,0,0,0-.86-2.86c-1.18-1.81-2.36-3.61-3.62-5.37-1.3-2-2.68-4-4-6-.79-1.25-1.51-2.52-2.34-3.74-.63-1-1.36-1.91-2.08-2.84C9,25.1,8.54,24.32,8,23.63s-1-1.34-1.52-2a3.18,3.18,0,0,0-.26-.35.9.9,0,0,0,.25-.46,3.11,3.11,0,0,0-.43-2.56,2.65,2.65,0,0,0-.79-1,3.47,3.47,0,0,0-3.38-.35A5,5,0,0,0,.65,18C.41,18.4.29,18.85.07,19.26Zm4.47,4.3c-.59-.72-1.07-1.4-.49-2.3h0A1.39,1.39,0,0,1,4.84,21a2.54,2.54,0,0,1,1.25,1.06c.42.48.75,1,1.16,1.49.6.77,1.08,1.62,1.66,2.41s1.08,1.29,1.52,2c1.08,1.51,2,3.1,3,4.67.64,1,1.38,2,2,3,1.21,1.76,2.35,3.56,3.6,5.28.36.52.69,1.06,1,1.59a14.84,14.84,0,0,1,1.4,2.28,4.39,4.39,0,0,1,.43,1.65.37.37,0,0,0-.09.28,1,1,0,0,1-1.12.08,26.94,26.94,0,0,1-4.19-5.31c-.74-1.05-1.43-2.13-2.15-3.2a6.92,6.92,0,0,0-.65-1c-.36-.64-.83-1.2-1.2-1.83a10.71,10.71,0,0,0-.9-1.33,32.91,32.91,0,0,0-2-2.85,67.11,67.11,0,0,1-3.95-6.16C5.33,24.54,4.89,24.08,4.54,23.56ZM.79,19.13a6.21,6.21,0,0,1,.31-.75,4.67,4.67,0,0,1,1-.87,2.92,2.92,0,0,1,2.59.06,2.59,2.59,0,0,1,1,1.24A2.52,2.52,0,0,1,6,20.32a2.1,2.1,0,0,1-.15.52.16.16,0,0,0,0,.07,3,3,0,0,0-.37-.25,1.29,1.29,0,0,0-.7-.22,1.69,1.69,0,0,0-.9.27.64.64,0,0,0-.35.37,1.75,1.75,0,0,0-.21,1.53,2.88,2.88,0,0,1-2.71-2.9A1.2,1.2,0,0,1,.79,19.13Z"/></g></g></svg>