<svg xmlns="http://www.w3.org/2000/svg" viewBox="0 0 75.05 77.09"><defs><style>.cls-1{fill:#f9ce00;}.cls-2{fill:#f7b383;}.cls-3{fill:#d09971;}.cls-4{fill:#6b1e1e;}.cls-5{fill:#b8e4ee;}.cls-6{fill:#e7f6f9;}.cls-7{fill:#803124;}</style></defs><g id="Layer_2" data-name="Layer 2"><g id="Card"><path class="cls-1" d="M65.36,52.43a10.46,10.46,0,0,0-1.92-.11H61.59L61,51.67l-.45.65c-.54,0-1.29.07-1.81,0a27.61,27.61,0,0,0-4.89-.09c-.17,0-.38-.41-.55-.4s-.33.43-.52.44c-.55,0-1.09,0-1.64,0-1.67,0-3.33,0-5,.06-.17,0-.34-.45-.5-.44s-.38.46-.57.46c-2.19,0-4.39.1-6.58.12-.18,0,0-.82-.45-.79s-.38.8-.53.8H35.34c-1.38,0-2.75,0-4.12-.06-.16,0-.32-.31-.48-.31s-.37.29-.55.29c-1.24,0-2.47,0-3.71,0-.28,0-.22,1.06.27,1.06,1.27,0,2.24-.15,3.52-.11.14,0,.33.5.47.51s.29-.61.44-.6c1.1,0,2.21,0,3.31,0a29.38,29.38,0,0,1,3.17,0c.15,0,.4.48.54.49s.21-.43.36-.42a34.38,34.38,0,0,0,3.59.16c1,0,2.05,0,3.06,0,.16,0,.35.51.5.51s.23-.5.37-.5c1.34,0,2.68,0,4,0,.83,0,1.69.1,2.56.11.23,0,.47.56.7.55s.37-.61.56-.63a20.75,20.75,0,0,1,4.26-.28c.79.08,1.58.17,2.37.23.15,0,.29.32.44.33s.31-.28.46-.28a12.44,12.44,0,0,0,4.12-.32C66,53.12,65.85,52.46,65.36,52.43Z"/><path class="cls-2" d="M12.29,6.09a29.61,29.61,0,0,1,9.49-1.71A128,128,0,0,0,40.49,2.71C43.37,2,59.93,1.13,62.41.77A12.29,12.29,0,0,1,66.83.9L67.47,3S67,29.38,67,33.59c0,5.46-.25,17.32-.1,19.88s-.3,11.5-.3,11.5-4.21-1.33-6.81-2.1-16.57-4.56-20.4-5.82-19.68-5.08-22.66-6l-5.19-1.52s-.89-5.88-.55-8.33a76.82,76.82,0,0,0-.28-12c-.05-.24-2.2-.62-2.34-1.76-.3-2.34,2.83.45,2.69-1.52-.18-2.45.11-19,.1-19.54S12.29,6.09,12.29,6.09Z"/><path class="cls-3" d="M62.71,57.05s.47.91.23,1.42A1.24,1.24,0,0,1,62,59s-20.08-5.1-21.93-5.3-22.83-6.08-23.81-6.11a9.74,9.74,0,0,1-2.82-1s-.11-9.44-.31-10.9-.24-3.1-.27-3.74,0-2.79,0-2.79a13.27,13.27,0,0,1-2.72-.3c-.81-.27-1.72-.51-1.79-.72a2.13,2.13,0,0,1,0-.75s2.93.82,3.94,1,21.61,2.25,23.17,2.35,25.72,2.65,26.71,2.54l1-.11.64-1.6s1.93-.35,1.93.53S66,33.39,65.38,34a5.32,5.32,0,0,1-2.13.86L43.78,33.19,14.6,29.83s.14,6.28,0,8.18-.12,8-.12,8,10.15,2.57,11.68,2.84S46.7,53.6,48.74,54.08,62.71,57.05,62.71,57.05Z"/><path class="cls-4" d="M74,76.69C69,75.07,48.46,69,46.19,68.24c-10.5-3.4-20.91-7-31.3-10.76q-6.71-2.38-13.4-4.8c-.55-.2-1.09-.33-1.49.11.09-.11,5.65,2.07,6.09,2.23q3.87,1.44,7.77,2.85,7.77,2.82,15.61,5.48Q45.15,68.69,61,73.44c1.31.39,14.06,3.92,14.06,3.64A5.48,5.48,0,0,0,74,76.69Z"/><path class="cls-3" d="M13,9.28s-.08,6.86,0,8.22-.12,5.08,0,6.07-.15,3.2,0,3.17,1.35,0,1.35,0,.14-10.55,0-12.07-.09-5.39-.09-5.39Z"/><path class="cls-3" d="M67.12.77s.07,1.6,0,3.8-.2,7.45-.21,9,0,6.91,0,8.84,0,5.72.24,7.43a49.71,49.71,0,0,1-.26,8.33c-.22,2.54-.06,6.52-.13,8.58s-.11,7-.14,9.06.27,8.83.29,8.81,1.75-1,1.75-1,.18-5.12,0-6.91.12-16.57.08-17.39-.1-10.64-.19-11.5,0-10.31,0-11.6.05-9.81.05-11S68.55,1,68.55,1Z"/><path class="cls-5" d="M14.24,9.28s17.1-1.15,19-1.33S43.47,6.65,46.1,6.72s9.38-.35,11.15-.54a44.79,44.79,0,0,1,5.09,0s.46,5.53.42,6.93,0,14.4,0,15.31a13.42,13.42,0,0,0,.3,2.45s-12.32-.66-14-.55S24.68,28,23.41,27.83s-9.08-1.09-9.08-1.09Z"/><path class="cls-5" d="M14.6,29.83S37.82,32,39.4,32.22s16,1.46,17.35,1.82a37.94,37.94,0,0,0,6,.2s0,6.18,0,8,.31,6,.35,8.11-.35,6.66-.35,6.66S43,52.79,41,52.49s-19.35-4.73-20.84-5.05S14.47,46,14.47,46s.13-8.12,0-10S14.6,29.83,14.6,29.83Z"/><path class="cls-6" d="M15,27.29a.85.85,0,0,1,.39.07l.41.08h.06l.22,0,.32,0,.77.07,1.08.06a9,9,0,0,1,2.37.1l.45-19.19-6.61.51.32,18.18Z"/><path class="cls-6" d="M18.26,30.25a9.54,9.54,0,0,1-3.44-.95l.3,16.58,5,1.56.4-17.1A13.5,13.5,0,0,1,18.26,30.25Z"/><path class="cls-6" d="M28,28.53a35.34,35.34,0,0,1,4.48.28L34.5,8.07l-7,0,.37,20.52Z"/><path class="cls-6" d="M30.09,31.16a12.78,12.78,0,0,1-1.36-.32s0,0,0,0a.74.74,0,0,1-.39.08h-.38l.35,19.33h2l1.89-18.93A13.32,13.32,0,0,1,30.09,31.16Z"/><path class="cls-6" d="M41.86,29.8h.59a1,1,0,0,1,.65.24,21.18,21.18,0,0,1,3.38.09L46.1,6.72l-7.35.59.37,2.42C39.06,10,40.42,19.72,41.86,29.8Z"/><path class="cls-6" d="M42.23,32.38c1.46,10.21,2.88,20,2.88,20l1.75,1.06-.34-20.71C45.09,32.57,43.66,32.41,42.23,32.38Z"/><polygon class="cls-7" points="63.73 34.84 63.73 34.84 63.72 34.84 63.73 34.84"/><path class="cls-7" d="M62.23,32.63c-.25-.12-.72-.21-.79.16a.8.8,0,0,0-.15.17.58.58,0,0,0,.12.72C62.17,34.27,63.15,33.15,62.23,32.63Z"/><path class="cls-4" d="M68.91,53V50.34l0-16.22,0-32.44C68.86-.38,65,0,63.7.1,54.41.9,45.13,1.83,35.85,2.83q-7,.75-14.07,1.55c-1.74.2-11.08.15-11.07,2.29l.08,19.56c-.84.24-1.89-.25-2.56.31a1.39,1.39,0,0,0,.26,2,4,4,0,0,0,2.23.62q-.11,5.58,0,11.16c0,1.33-.52,8.83.82,9.21C23.1,53,34.77,56.45,46.48,59.38A162.1,162.1,0,0,1,64,64.29a8.11,8.11,0,0,0,2.63.68c3.59.08,2.31-4.28,2.3-6.52ZM9.47,28.31a.34.34,0,0,0,.22-.07A.39.39,0,0,0,9.8,28a.32.32,0,0,0-.3-.34.34.34,0,0,0-.22.07.29.29,0,0,0-.11.22.3.3,0,0,0,.12.27L9,28.11a1.7,1.7,0,0,1-.38-.26,1.33,1.33,0,0,0-.25-.41c-.09-.09,0-.2.1-.27a1.61,1.61,0,0,1,1-.28c2.49.19,39.18,3.76,40.24,3.71,1.33.12,2.66.2,4,.27,3.36.27,6.76.19,10.1.74a5.09,5.09,0,0,0-.64,1.6,4.11,4.11,0,0,0,0,1c-.16,0-.32,0-.49,0-1-.11-2-.26-3.07-.34-2.42-.19-4.83-.49-7.25-.7C49.7,33,27.77,30.64,21.67,30.08c-1-.09-4.64-.58-7.18-.92a.34.34,0,0,0-.26,0l-2-.26A16.83,16.83,0,0,1,9.47,28.31ZM14,19c0,2.54-.25,5.08-.11,7.62l-.53-.06c0-.23,0-.53,0-.73,0-1.19,0-2.39,0-3.59,0-2.05,0-4.1-.08-6.15.09-2.1,0-4.22.14-6.32l.46,0V9.8C13.8,12.86,13.92,15.93,14,19Zm.6-1.3c-.08-2.67-.2-5.33,0-8,1.13-.07,2.27-.14,3.4-.24,0,0,13.13-1,14.86-1.23,1.17-.16,2.35-.14,3.52-.31a36.66,36.66,0,0,1,4.91-.4c1.08,0,2.16-.23,3.24-.34,1.42-.09,2.83-.26,4.25-.38,1.79-.14,3.59-.17,5.38-.29a27.57,27.57,0,0,0,4.06-.16c1,0,2,0,3,0,.4,0,.78-.14,1.18-.17a2.11,2.11,0,0,0,0,.26c-.08,3.44-.1,6.92,0,10.37.05,1.25,0,2.46,0,3.7,0,1.79,0,3.6,0,5.4,0,1.61,0,3.22,0,4.83v0c-1.77-.21-3.56-.31-5.34-.36-2.35-.09-4.71-.24-7-.44a27.94,27.94,0,0,1-3-.15C45.7,29.75,19,27.08,17,27l-1.59-.19-.9-.09c0-.48,0-1,0-1.45,0-.72,0-1.47,0-2.24C14.56,21.23,14.68,19.47,14.61,17.69Zm49.2,16A3,3,0,0,1,64.32,32c.53-.17,1,.36,1,.86.24.78-.61,1.38-1.32,1.35C63.7,34.27,63.83,33.84,63.81,33.64ZM60.87,58.15c-.92-.19-1.85-.4-2.75-.63C54.53,56.64,51,55.74,47.33,55s-7.18-1.62-10.75-2.56l-8.31-2.16-5.62-1.46c-1.44-.37-2.91-.72-4.36-1.08l-2.19-.57A9.72,9.72,0,0,1,14,46.54a.55.55,0,0,1,.38-.15,6.09,6.09,0,0,1,1.26.24l1.48.31c2.13.46,4.24,1,6.35,1.54l6.79,1.81L36.76,52c2.62.68,5.25,1.17,7.91,1.69,1.83.36,3.65.75,5.48,1.16,2.74.62,5.49,1.24,8.23,1.9l2.85.67,1.18.25c.24,0,.22,0,.26.22s0,.52-.13.57-.47-.07-.63-.1ZM13.53,38c0-1.32-.14-2.63-.16-3.95s-.11-2.93-.07-4.39c.22,0,.45.07.67.12,0,.56,0,1.12,0,1.68,0,1.9.08,3.79.18,5.68.13,2.88-.08,5.78,0,8.67a2.73,2.73,0,0,0-.54.23,23.31,23.31,0,0,1,0-2.51C13.5,41.65,13.56,39.81,13.53,38ZM62.71,57.05c-.08,0-2.12-.51-2.82-.66l-4.27-1c-2-.45-3.93-.79-5.89-1.22a29.13,29.13,0,0,0-2.87-.68c-1.18-.25-2.33-.33-3.51-.65s-2.11-.36-3.16-.62c-1.61-.29-21.32-5.34-21.58-5.43-1.16-.23-2.32-.66-3.49-.87a1.44,1.44,0,0,0-.33-.09s0-.08,0-.11c0-.48,0-.94,0-1.43,0-2.17.12-4.36,0-6.54-.09-2.62-.23-5.25-.17-7.88,2.51.29,14.57,1.6,20.16,2.19,1.28.13,12.13,1.29,13.86,1.51,4.52.34,9,.81,13.53,1.28l.2,0v.23c0,3.23-.08,6.47,0,9.7C62.59,48.86,62.87,53,62.71,57.05Zm1.34,6.55c-1-.38-2-.59-2.92-1-1.22-.36-2.41-.8-3.63-1.17a37.56,37.56,0,0,0-3.93-1c-3-.74-6-1.34-8.9-2.1-1.16-.21-2.29-.57-3.42-.89-1.89-.55-3.78-1.12-5.67-1.69l-6.45-2c-1.91-.58-3.81-1.17-5.72-1.73-1.75-.52-3.5-1-5.26-1.48l-3.31-.84-1.63-.4-.84-.24c-.19-.06-.43-.06-.58-.2s-.13-.66-.15-.93l-.06-1.17c0-.77-.05-1.53-.07-2.3,0-1.44-.15-2.9-.15-4.34-.07-3.54,0-7.08,0-10.62a.66.66,0,0,0,0-.2c.43.07.87.11,1.3.17,0,.17,0,.35,0,.53,0,2.39.1,4.78.25,7.17.1,1.56,0,3.16,0,4.72s0,3.08.11,4.61a.86.86,0,0,0,.08.36c.15.22.59.2.82.25.46.1.92.26,1.37.4,1,.27,1.91.56,2.87.82,2.1.56,4.23,1,6.34,1.57l6.39,1.66,6.49,1.67,4.51,1.17.71.18c2.3.5,4.61.93,6.9,1.47,4.18.93,8.33,2,12.52,2.91.06,0,1.23.25,1.23-.09.14-2,.18-4,.14-6,0-2.71-.25-5.42-.36-8.13C63,43,63,41.17,63,39.33c0-.92,0-1.84,0-2.76,0-.47,0-.94,0-1.41,0-.28,0-.31.26-.33.76,0,1.38.13,2-.37A1.63,1.63,0,0,0,66,32.73,2.19,2.19,0,0,0,64.18,31l-1.12-.16c-.13-2.16,0-4.31-.05-6.47,0-2.56.06-5.11,0-7.67-.09-3.36-.12-6.71,0-10.07,0-.2,0-.4,0-.6s-.4-.53-.59-.51a4.84,4.84,0,0,0-1.07.15c-1.11.08-2.24,0-3.36,0a22.33,22.33,0,0,1-3.66.16c-1.18,0-2.35.18-3.53.16-3,.16-6,.47-8.93.81a46.82,46.82,0,0,0-5.55.44c-1.53.18-3.07.22-4.59.43-1.4.06-2.8.2-4.19.32l-6.43.52c-2.2.19-4.41.39-6.61.51-.39,0-1.18-.06-1.5.22a.79.79,0,0,0-.19.62c0,1.6-.09,3.19-.09,4.79s.08,3.09.08,4.63,0,3.26,0,4.89c0,.39,0,.78,0,1.17,0,.21.1,1-.05,1.12a1.73,1.73,0,0,1-1.22-.18,2.17,2.17,0,0,1,0-.72c0-.25,0-.49,0-.73,0-.95,0-1.9,0-2.85-.11-3.72,0-7.44,0-11.16,0-1.37,0-2.74,0-4.1a2,2,0,0,1,0-.54c.1-.17.71-.12.92-.13L13.41,6a33.06,33.06,0,0,0,3.72-.41C18.41,5.38,19.69,5.16,21,5c1.86-.16,3.71-.37,5.57-.59s3.68-.43,5.52-.57,3.64-.2,5.45-.36c1.52-.13,3-.38,4.56-.59,1.85-.26,3.69-.52,5.55-.76s3.62-.38,5.43-.58c3.72-.4,7.46-.65,11.2-.76.29,0,2.56-.17,2.57.07.25,3.67-.2,7.35-.18,11,0,1.84,0,3.69,0,5.53-.07,3-.18,6-.1,9,.06,2.06.23,4.13.26,6.19,0,.79,0,1.59-.06,2.38-.21,3.69-.2,7.39-.27,11.09,0,1.43-.06,2.86-.08,4.29,0,3.34,0,6.68,0,10,0,1.33.1,2.68,0,4a2.8,2.8,0,0,1-.67-.23C65.23,64,64.64,63.81,64.05,63.6Zm3.22.68a.3.3,0,0,0-.16,0v0c0-.93,0-1.86-.06-2.79v0c-.11-1.8,0-3.61,0-5.41,0-3.72,0-7.44,0-11.15,0-1.8,0-3.63.08-5.42s.17-3.63.24-5.45-.06-3.76-.16-5.62-.15-3.75-.14-5.62c0-1.7.12-3.4.18-5.1.1-3-.1-5.93,0-8.9.11-2.59.16-5.17.17-7.77a5.6,5.6,0,0,0,.54.17c.36.09.26.64.29,1,0,.49.05,1,.05,1.45,0,1,0,1.94-.09,2.91-.1,2-.09,3.93,0,5.91.08,3.72,0,7.44,0,11.15,0,.92,0,1.83,0,2.75s0,1.85,0,2.77c0,2.24.2,4.48.2,6.72,0,1.83-.2,3.66-.2,5.49V43c0,3.72,0,7.44.08,11.16,0,.43,0,.86,0,1.29,0,1,.07,2,.08,3s0,1.84-.08,2.76l-.06,1.41c0,.29.11.94-.1,1.18a.13.13,0,0,1-.07,0C67.82,64,67.53,64.11,67.27,64.28Z"/><polygon class="cls-7" points="46.48 27.92 46.48 27.92 46.48 27.92 46.48 27.92"/></g></g></svg>