<svg xmlns="http://www.w3.org/2000/svg" viewBox="0 0 42.78 41.56"><defs><style>.cls-1{fill:#eb5d45;}.cls-2{fill:#e52823;}.cls-3{fill:#e9a061;}.cls-4{fill:#b27e4c;}.cls-5{fill:#92443f;}.cls-6{fill:#803124;}.cls-7{fill:#b1dde3;}.cls-8{fill:#faed62;}.cls-9{fill:#cbc478;}.cls-10{fill:#6fadb2;}.cls-11{fill:#6474b7;}</style></defs><g id="Layer_2" data-name="Layer 2"><g id="Card"><path class="cls-1" d="M39.55,6.61C32.08,2.8,23.6,5.53,15.71,6.4c-2.25.25-4.94.69-7.11-.11A29,29,0,0,1,4.46,4.23c-.84-.46-4-1.09-2.09.34.55.42,1,.71.94,1.39A12.44,12.44,0,0,1,2.4,8.07c-2,5-2.26,10.91-2,16.21a42.48,42.48,0,0,0,.74,5c.27,1.65-.39,3-.86,4.51,1.62.19,2-2.14,3-3,1.18-1,2.53-.7,4-.57a24.49,24.49,0,0,0,2.84.08c3.77-.14,7.5.11,11.28-.16a96,96,0,0,0,10-.9,9.84,9.84,0,0,0,2.82-.93c1-.49,1.76-.8,2.76-.22s1.72,1.49,2.74,1.7a5,5,0,0,0-.92-2.19c-.28-.41-.82-.79-.85-1.33-.05-.75.92-1.44,1.29-2.09A12.91,12.91,0,0,0,41.17,19a30.66,30.66,0,0,0,0-5.42c-.12-1.58-1-3.46-.54-5,.27-1,2.29-1.62,1.77-2.89A6.68,6.68,0,0,0,39.63,7a1.38,1.38,0,0,1-.32-.5"/><path class="cls-2" d="M39.7,6.35c-4.53-2.27-9.59-2.26-14.51-1.63-2.49.32-5,.77-7.43,1.12-1.23.17-2.46.32-3.7.45a16.06,16.06,0,0,1-4,.06A11.22,11.22,0,0,1,6.54,5,16.09,16.09,0,0,0,4,3.71C3.54,3.57,1.23,2.9,1.47,4,1.65,4.82,3,4.93,3,5.79a4.19,4.19,0,0,1-.69,1.7A11.8,11.8,0,0,0,1.7,9.11,32.86,32.86,0,0,0,.23,16.4a45.16,45.16,0,0,0,0,8.7c.14,1.44.48,2.85.68,4.28A9.78,9.78,0,0,1,0,33.73a.31.31,0,0,0,.29.39c2.05.15,2.15-2.54,3.6-3.35,1.18-.66,2.72-.22,4-.13,1.57.1,3.14,0,4.7,0,3.26,0,6.5,0,9.76-.19a79.65,79.65,0,0,0,9-.8A10.52,10.52,0,0,0,33.59,29a7.89,7.89,0,0,1,2.26-.87c.86-.06,1.54.61,2.18,1.1a4.72,4.72,0,0,0,1.68.9.31.31,0,0,0,.39-.29,4.89,4.89,0,0,0-.79-2.08,6,6,0,0,0-.58-.75,1,1,0,0,1-.12-1.41c.23-.32.52-.6.76-.92a7.88,7.88,0,0,0,.72-1.26,13.66,13.66,0,0,0,1-2.54,19.15,19.15,0,0,0,.42-6.23,15.79,15.79,0,0,0-.37-2.82,6.51,6.51,0,0,1-.27-3.09c.33-1.21,2.33-1.61,1.79-3.14a.32.32,0,0,0-.37-.21,7.14,7.14,0,0,0-2.84,1.3l.37,0a1,1,0,0,1-.27-.44c-.16-.36-.68-.05-.53.31a1.9,1.9,0,0,0,.37.55.29.29,0,0,0,.36.05A6.93,6.93,0,0,1,42.48,6l-.37-.21c.24.7-.4,1.15-.87,1.56a2.65,2.65,0,0,0-.93,1.26c-.45,1.79.48,3.71.6,5.48a20.58,20.58,0,0,1-.31,6.46,13.49,13.49,0,0,1-1.13,2.79,6.29,6.29,0,0,1-.71,1.17,10.11,10.11,0,0,0-.77,1,1.44,1.44,0,0,0,.15,1.81,4.93,4.93,0,0,1,1.35,2.59l.38-.29c-1.24-.3-2-1.49-3.16-1.9s-2.49.5-3.67.92a19.68,19.68,0,0,1-4.57.83c-1.57.16-3.15.24-4.72.33-3.24.19-6.44.3-9.69.28-1.62,0-3.24.06-4.87,0-1.39,0-2.82-.35-4.21-.23a3.2,3.2,0,0,0-2.55,1.6c-.49.82-1,2.15-2.12,2.06l.29.38a15.67,15.67,0,0,0,.91-3.3A14,14,0,0,0,1.05,27a38.63,38.63,0,0,1-.4-7.45,39.05,39.05,0,0,1,.9-7.61,26.08,26.08,0,0,1,1-3.44c.32-.86,1.17-1.86,1.05-2.82a1.46,1.46,0,0,0-.48-.84,4.44,4.44,0,0,0-.55-.42,4.14,4.14,0,0,0-.5-.44c-.17-.1,0,.1-.09.09s.08,0,.12,0a2,2,0,0,0,.35,0,5.8,5.8,0,0,1,1,.19,11.07,11.07,0,0,1,2.27,1.1A16.37,16.37,0,0,0,9,6.74c2.24.63,4.65.2,6.91-.06S20.63,6,23,5.64c5.49-.84,11.28-1.34,16.4,1.23.35.18.66-.34.31-.52Z"/><path class="cls-2" d="M15.68,26.49c.38-.11.82-.23.87-.64a2.67,2.67,0,0,0-.33-1.16,4.16,4.16,0,0,0-.38-.83.22.22,0,0,0,0-.13,4.57,4.57,0,0,0-.05-.52.22.22,0,0,0-.28-.17.24.24,0,0,0-.31.12.28.28,0,0,0-.25.19l-.09-.13a.25.25,0,0,0-.45.06c0,.07-.07.12-.1.18l0-.21.18-.17a.25.25,0,0,0-.09-.41l1.14-7.3a.23.23,0,0,0,.05-.29v0h0a.18.18,0,0,0,.12-.05l.07,0a1.1,1.1,0,0,0,.27,0,.25.25,0,0,0,.17-.42.24.24,0,0,0-.17-.14v0a.18.18,0,0,0,0-.12.25.25,0,0,0-.1-.42l-.12,0v0a.25.25,0,0,0-.31-.17h0c0-.06,0-.11,0-.17a.25.25,0,0,0-.25-.25h0a1.22,1.22,0,0,0,0-.38l.08-.12a.25.25,0,0,0-.11-.4,2.16,2.16,0,0,0,.28-.52.23.23,0,0,0-.19-.3s0-.07,0-.1a.23.23,0,0,0-.14-.29.26.26,0,0,0-.06-.24.38.38,0,0,0,0-.1l.13-.13a.23.23,0,0,0,0-.26,2.42,2.42,0,0,0,.33-.31.25.25,0,0,0-.23-.42.26.26,0,0,0-.18-.2.37.37,0,0,0,.05-.11.26.26,0,0,0,0-.28,1.64,1.64,0,0,0,.3-.36,1.21,1.21,0,0,0,.14-.39c.06-.06.11-.13.17-.2s.09-.39-.11-.42l-.11-.21a.26.26,0,0,0-.37-.28.45.45,0,0,0-.3.52c0,.09.11.16.14.25a2.09,2.09,0,0,1,0,.21,8.31,8.31,0,0,0-.7,1s0,0,0,.08a1.48,1.48,0,0,0-.44.88.27.27,0,0,0,.19.24h0c0,.06-.07.13-.12.2s0,.35.23.36l-.07.06a.26.26,0,0,0,0,.28,1,1,0,0,0-.13.17.23.23,0,0,0,.07.32,2.4,2.4,0,0,0-.3.41.25.25,0,0,0,.15.37h0l-.26.23a.23.23,0,0,0,0,.32.23.23,0,0,0,.15.15,1.84,1.84,0,0,0-.29.42,3.09,3.09,0,0,0-.71.34.25.25,0,0,0,0,.39h0a.21.21,0,0,0-.08.32c-.31.1-.6.22-.84.32a.25.25,0,0,0,.13.48,6.43,6.43,0,0,0,.79-.24l-.08.05-.2.14a3.56,3.56,0,0,0-.53.16A.25.25,0,0,0,12,16l-.32.07a.25.25,0,0,0-.09.43,2.13,2.13,0,0,1-.35.14,9.24,9.24,0,0,0-.91.21.25.25,0,0,0,.13.48l.36-.07c-.14.15-.1.45.16.43s.54-.07.81-.09h0l-.24.13s0,0,0,0a1.8,1.8,0,0,0-.34.17.25.25,0,0,0,.12.46.24.24,0,0,0,0,.12.17.17,0,0,0-.06.12.18.18,0,0,0,0,.16l-.15.05a.21.21,0,0,0-.1.29.6.6,0,0,1-.11.06.31.31,0,0,0-.1.32c-.24.1-.47.22-.67.31s-.07.55.19.46l.54-.19a.25.25,0,0,0,.22.07,4.16,4.16,0,0,0,1-.35.25.25,0,0,0,0-.43,1,1,0,0,0,.11-.1l.06-.11.05,0s0,0,0,0l.17,0a1.23,1.23,0,0,0-.18.53.23.23,0,0,0,.1.2,1,1,0,0,0-.18.17.26.26,0,0,0,.11.42,1.66,1.66,0,0,0,.59,0,.31.31,0,0,0-.05.1c-.05.19.12.32.3.3h0a.26.26,0,0,0,.15.37l.15,0-.05.06a.26.26,0,0,0,.15.37h0a1.8,1.8,0,0,0-.43.44.26.26,0,0,0,.27.37.51.51,0,0,0,.07.36.65.65,0,0,0,.36.21c-.1.1-.21.2-.31.31s0,0,0,0l-.22.15-.34.11a.11.11,0,0,0-.06,0,3.19,3.19,0,0,0-1.45.5.22.22,0,0,0-.07.33c0,.18.1.4.3.32l.06,0h0l0,0,.29-.13a.25.25,0,0,0,.24.09l.61-.13v.07l-.21.11a5.57,5.57,0,0,0-1.06.3c-.25.09-.24.5.07.49l.58,0a.23.23,0,0,0-.05.15l-.36.08c-.27.06-.21.52.07.49h0l-.21.08a2.17,2.17,0,0,0-.81.43.6.6,0,0,0-.06.11l-.21.08c-.31.13-.82.31-.84.71a.25.25,0,0,0,.32.24h.06a.27.27,0,0,0,.07.08l-.13.09c-.36.12-1,.28-1.11.7,0,.14.07.33.24.31h.07l-.39.3a.26.26,0,0,0,.05.4l.09,0c-.44.17-1,.27-1.14.74a.25.25,0,0,0,.24.32l.88-.11a.25.25,0,0,0,0,.07.25.25,0,0,0,.24.19,1.5,1.5,0,0,0,.8-.21.25.25,0,0,0-.06-.46,2.08,2.08,0,0,0-.6-.13l.08-.06.08,0s0,0,0-.06a3.36,3.36,0,0,0,.41-.34c.2-.09.39-.2.57-.3a.24.24,0,0,0-.12-.45.34.34,0,0,0-.08-.09h0l0,0a.28.28,0,0,0,0-.41l0,0c.32-.09.61-.16.71-.2a2.5,2.5,0,0,0,1.37-.83.23.23,0,0,0,0-.16c.23-.11.44-.22.65-.34a.2.2,0,0,0,.1-.16l.13,0h.06l.15,0-.36.18c-.28.11-.07.51.19.45l.31,0c.18.16.51.06.78-.08l0,0a.29.29,0,0,0,.19.25H15c-.09.21.16.39.35.3l.33-.16a.26.26,0,0,0-.06-.46l-.09,0a1.64,1.64,0,0,0-.16-.28s0,0,0,0l.15,0c.16,0,.19-.19.15-.32S15.67,26.51,15.68,26.49Zm-2-.49v0h-.05Z"/><path class="cls-3" d="M17.62,4.39A10.85,10.85,0,0,0,15.7,7.94c-.48,1.8-.66,4.11,0,4.85a15.38,15.38,0,0,1,1.4,1.8s-.42.75.44,1.75a4.57,4.57,0,0,0,4.34.81,2.73,2.73,0,0,0,1.19-1.07,2,2,0,0,1,0-1.57,5.85,5.85,0,0,1,.5-1.09l-.05-.54s.84,0,.94-.53a1.06,1.06,0,0,1,.38-.75,2,2,0,0,1-1-1.41c-.2-1-.4-3-.4-3s-1.37-.78-1.76-.4S19.4,6.36,19,6.17A9.22,9.22,0,0,1,17.62,4.39Z"/><path class="cls-4" d="M22.63,16.35a.34.34,0,0,0,.67-.05,3.91,3.91,0,0,1,.19-1.92,1.75,1.75,0,0,1,.12-.32c.08-.16.17-.31.26-.46l0,0,0-.09a.49.49,0,0,0-.27-.26c-.55-.15-.72.78-.89,1.15A4.19,4.19,0,0,0,22.63,16.35Z"/><path class="cls-5" d="M23.33,13s.12.88.81,1S25.91,13,27,11.81s.89-.25,1.62-2.44.54-6.71-1.34-7.29S22.75-.36,20.67.65,17.23,2.3,16.8,3.38a29.84,29.84,0,0,0-.91,3.19l.23.31s-.19,0,.49-1.06,1-1.43,1-1.43A3.35,3.35,0,0,0,19.2,6.24c1.07.39,1.5.16,2.54.54S23.19,7,23.19,7l.78.32s.26-.14-.07.91-.48,2.14,0,2.65.78.38.78.38.45.31.21.67A6.26,6.26,0,0,1,23.33,13Z"/><path class="cls-4" d="M21.19,15.27c.07,0,.26-.19.19-.29h0c-.06-.06-.6,0-.7,0a6.2,6.2,0,0,1-3.87-1.15,2.87,2.87,0,0,1-1-2A8.94,8.94,0,0,1,16,8.18a10.41,10.41,0,0,1,1.49-3.33.44.44,0,0,0,.09-.46.37.37,0,0,0-.48-.08.91.91,0,0,0-.35.4,11.15,11.15,0,0,0-1.63,7.11,4.94,4.94,0,0,0,.69,2.06,4.09,4.09,0,0,0,2.47,1.45A4.61,4.61,0,0,0,21.19,15.27Z"/><path class="cls-6" d="M17.76,13.38c-.22-.09-1-.56-.84-.88a.15.15,0,0,1,.09,0,2,2,0,0,0,1.5.56c.19,0,.41,0,.52.14a1.27,1.27,0,0,1-1.18.17Z"/><path class="cls-6" d="M29.32,7.17a6.11,6.11,0,0,0-.18-2.69,5.66,5.66,0,0,0-1.35-2.29A10.93,10.93,0,0,0,23,0a5.89,5.89,0,0,0-2.93.46,8.76,8.76,0,0,0-1.93,1c-1.36,1-2.89,3.78-2.7,5.47a.35.35,0,0,0,.26.21c.16-.48.34-1,.53-1.44v0a7.74,7.74,0,0,1,2.22-3.59A10.29,10.29,0,0,1,21,.84c1.39-.54,3.09.07,4.35.66a7.74,7.74,0,0,1,1.91,1.16,5.14,5.14,0,0,1,1.39,4.39,6.29,6.29,0,0,1-1.17,3.61,15.39,15.39,0,0,1-2.9,2.69c-.4.28-.53.08-.87-.1a2.47,2.47,0,0,0,1.7-1.66.34.34,0,0,0-.27-.4H25a2.11,2.11,0,0,1-.8-1.7,4.9,4.9,0,0,0-.09-1.43.33.33,0,0,0,.47,0c.46-.53-.75-1.17-1.16-1.34a5.06,5.06,0,0,0-1.6-.2A6.88,6.88,0,0,1,20,6.14a3.71,3.71,0,0,1-1.73-1.29c-.15-.21-.28-.64-.54-.74a.34.34,0,0,0-.44.43,4.33,4.33,0,0,0,2.42,2.2,6.55,6.55,0,0,0,1.62.42,12.08,12.08,0,0,1,1.71.16,1.48,1.48,0,0,1,.27.1,5.23,5.23,0,0,1,.2,1.07c.05.41.05.82.08,1.23a3.25,3.25,0,0,0,.29,1.16c.18.35.56.57.72.9a1.77,1.77,0,0,1-1.61.88c-.32-.13-.81-.05-.69.4a.34.34,0,0,0,.36.22,4.48,4.48,0,0,0,.6.05.59.59,0,0,0,.38.75c.92.37,1.41-.23,2-.57.08,0,1.35-1.23,1.65-1.49A7.23,7.23,0,0,0,29.32,7.17Z"/><path class="cls-7" d="M23.25,16.4a3.39,3.39,0,0,1-3.16,1.14c-2-.35-2.74-.94-2.79-1.49A1.94,1.94,0,0,0,16.73,15s-1.42.14-1.91.86-2.05,2.79-2.05,2.79,2,.52,2.06,1.73.63,1.48.1,1.68-1,1.05-1,1.05.59.49.93.47a4.9,4.9,0,0,1,.55,0,5.25,5.25,0,0,1,.24,1.74,6.07,6.07,0,0,0,0,1.1A5.55,5.55,0,0,0,18.72,28a45.57,45.57,0,0,0,6.42-1.3,2.71,2.71,0,0,0,.41-1.46,4,4,0,0,0-.27-2.31c-.43-1.14-.35-1.37-.35-1.37a13.32,13.32,0,0,0,1-2,6.34,6.34,0,0,1,.36-1,19.85,19.85,0,0,1-1.73-1.07C23.81,16.87,23.25,16.4,23.25,16.4Z"/><path class="cls-8" d="M25.36,26.3s.65,3.13-.89,5.1S21,34.28,20.1,33.14s-.16-2.54-1.5-3.41l-3-1.92.31-1a6.4,6.4,0,0,0,4.92,1.1A11.69,11.69,0,0,0,25.36,26.3Z"/><path class="cls-3" d="M25.9,19l2.8.74s.76,0,.67-1.27-.33-4.12.1-4.5a1.22,1.22,0,0,1,.74-.37s.94-2.57,2.16-1.9,1.65,2,.93,4.32-1.18,2.1-1.27,3.54-.26,4.38-2.53,4.35-4.65-2.1-4.65-2.1Z"/><path class="cls-3" d="M13,18.82A3.71,3.71,0,0,1,14.48,20a3.35,3.35,0,0,1,.57,1.66,7.7,7.7,0,0,1-3.26,2.12c-1.6.57-2.83.14-3.45-1.44s-1.09-4.6-1.58-5.53S5,13.67,5,12.82s.09-2.33,1.13-2.35,1.31-.26,1.6.54a11.41,11.41,0,0,0,.78,1.63s.86-.33,1,.22a2.36,2.36,0,0,1,0,1.73,4.9,4.9,0,0,0,.5,2.66c.27.66,1.24,3.25,1.24,3.25Z"/><path class="cls-3" d="M16.07,28s-3.58-1.42-4.29-.64a7.49,7.49,0,0,0-1.51,3.58,16.51,16.51,0,0,0,.16,4s-1.6-1.19-2.32-.33c-.23.27.34,1.21.24,1.78s-.65,1.27,0,2,4.87,3.56,6.82,2.91.33-3,.33-3-.08-2.24-.09-2.77a2.83,2.83,0,0,0-.27-1,24,24,0,0,0,4.09-.51,2.65,2.65,0,0,0,.91-.8,2,2,0,0,1-.48-1.27,5.16,5.16,0,0,0-2-2.85C16.77,28.41,16.07,28,16.07,28Z"/><path class="cls-3" d="M25.51,27.07a14.79,14.79,0,0,1,0,1.9,7.44,7.44,0,0,1-.73,2.18s3.27,2.11,4.55,2.27,3.59.77,3.91,1.18,1,2.09,1.73,2c2-.15,4.34-4.21,4.35-4.84s.41-1.53-.7-1.61S37,31.46,36.11,31.6s-.75.49-1.71-.12a22.84,22.84,0,0,1-2.62-2.33c-.5-.43-2.31-1.89-3.71-2A14.83,14.83,0,0,0,25.51,27.07Z"/><path class="cls-4" d="M33.41,16.54l-.2.48a10.08,10.08,0,0,0-.75,2.51A9.54,9.54,0,0,1,32,22c-.5,1.27-1.18,2.36-2.69,2.3a6.82,6.82,0,0,1-4.43-2.07.34.34,0,0,1,.45-.5c.28.26.57.52.87.76a5,5,0,0,0,4.1,1,4.6,4.6,0,0,0,1.22-2.18c.26-.94.19-1.93.47-2.86a7.43,7.43,0,0,1,.84-2.2,7.38,7.38,0,0,0,.52-2.67c-.06-.65-.89-2.14-1.76-1.67a.94.94,0,0,0-.33.38l-.67,1.21a2.8,2.8,0,0,1,.79,1.18.75.75,0,0,1,.05.49.34.34,0,0,1-.38.25c-.17-.05-.24-.24-.29-.4s-.5-1.35-.91-.94a.59.59,0,0,0-.14.31c-.28,1.26.18,2.57,0,3.85A5.44,5.44,0,0,1,29.14,20a.83.83,0,0,1-.35.43c-.38.19-.41-.22-.63-.38a1.1,1.1,0,0,0-.46-.19c-.35-.09-1.9-.35-1.8-.9a.37.37,0,0,1,.39-.26,1.22,1.22,0,0,1,.48.15,6.28,6.28,0,0,0,1.59.51.35.35,0,0,0,.48-.29c.51-1.47-.09-2.92.1-4.4a1.91,1.91,0,0,1,.38-1c.2-.22.46-.37.67-.58a6,6,0,0,0,.73-1.23,1.28,1.28,0,0,1,1.54-.63A2.78,2.78,0,0,1,34,14.05,7.74,7.74,0,0,1,33.41,16.54Z"/><path class="cls-4" d="M24.94,31l.18.1A20.66,20.66,0,0,0,32,33.82a4,4,0,0,1,1.26.4c.46.28.6.75.86,1.19s.67.88,1.14.89a1.13,1.13,0,0,0,.47-.15A10.16,10.16,0,0,0,39,31.9c0-.44.44-1.14-.13-1.4a1,1,0,0,0-.73,0,3,3,0,0,0-1,.75,3.64,3.64,0,0,1-.57.54c-1,.62-2,0-2.78-.57a13.48,13.48,0,0,1-2.27-1.93A7.51,7.51,0,0,0,29,27.74a6.07,6.07,0,0,0-2.16-.25,6,6,0,0,0-.95,0c-.2,0-.21-.11-.42-.12s-.09-.15,0-.3.12-.23.35-.26a8.52,8.52,0,0,1,2.52.09,6.35,6.35,0,0,1,2.43,1,24.77,24.77,0,0,1,2,1.8,7,7,0,0,0,2.9,1.79c.33.09.52-.19.7-.4a2.68,2.68,0,0,1,2-1.28,1.51,1.51,0,0,1,.91.22c.59.39.4,1.12.3,1.69a.14.14,0,0,0,0,.11s-1.56,3.63-2.58,4.27l-.47.31a3.14,3.14,0,0,1-1.51.57,2.55,2.55,0,0,1-1.8-1.56,1.57,1.57,0,0,0-.25-.52,1.22,1.22,0,0,0-.62-.25,23.65,23.65,0,0,1-7.68-3,1.1,1.1,0,0,1-.31-.26.35.35,0,0,1,0-.38C24.57,30.88,24.76,30.91,24.94,31Z"/><polygon class="cls-4" points="24.63 31.49 24.63 31.5 24.64 31.5 24.63 31.49"/><polygon class="cls-4" points="36.83 31.53 36.83 31.52 36.84 31.52 36.83 31.53"/><path class="cls-4" d="M9.92,31.24a13.74,13.74,0,0,0,.32,3.36c0,.08-1.35-.93-2-.38a.87.87,0,0,0-.42.77,2.11,2.11,0,0,0,.17.48,1.53,1.53,0,0,1,0,1.17,4.51,4.51,0,0,0-.17.52c-.17.91.62,1.7,1.22,2.26s2.65,1.17,3.51,1.55a5,5,0,0,0,2.31.58,1.57,1.57,0,0,0,1.68-2,3,3,0,0,0-.37-.85,2.56,2.56,0,0,1-.42-.71,2.69,2.69,0,0,1,.06-.75c0-.23,0-.47,0-.7a7.12,7.12,0,0,0-.1-1.53c0,.06,3.37-.76,3.49-.81.37-.17,1.48-.69,1.25-1.27a.69.69,0,0,0-.19-.23c-.24-.24-.41.11-.52.29a1.79,1.79,0,0,1-.47.52,16.35,16.35,0,0,1-3.45.9.5.5,0,0,1-.21,0c-.12,0-.16-.19-.19-.31a9.25,9.25,0,0,0-.95-2.27,3.92,3.92,0,0,0-.8-1c-.21-.18-.07-.45-.27-.26-.88.15.58,1.32.88,2.05A13.05,13.05,0,0,1,15,34.79a11.39,11.39,0,0,1,.12,2.26,1,1,0,0,1,0,.24c0,.15-.09.29-.11.44a8.3,8.3,0,0,1-1-.85,5.33,5.33,0,0,1-1-.82c-.27-.37-1.15-.66-1.45-1a3.44,3.44,0,0,1-.7-.87,4.93,4.93,0,0,1-.21-2.74c0-1,.2-3.51,1.77-3.82a2.85,2.85,0,0,1,1.76.3A7.32,7.32,0,0,1,16,29.31a.35.35,0,0,0,.51,0,.34.34,0,0,0,0-.47c-.49-.37-.52-.81-1.07-1.08A11.41,11.41,0,0,0,12.92,27C10.76,26.78,10.05,29.27,9.92,31.24Zm5.63,3.17h0Zm-5.75.41c.19.12.34.28.52.41.59.47,1.47.59,2,1.16.25.29,1.92,1.34,1.92,1.46a6.72,6.72,0,0,1,1,.81c.52.54,1.08,1.78.06,2.12a3.78,3.78,0,0,1-2.13-.14c-.42-.12-.79-.36-1.2-.48a5,5,0,0,1-1.7-.54,8.22,8.22,0,0,1-1.51-1.1,1.39,1.39,0,0,1-.16-1.62,1.29,1.29,0,0,0,.11-.75,4.91,4.91,0,0,0-.22-.68c-.14-.4-.19-.95.38-.93A2.33,2.33,0,0,1,9.8,34.82Z"/><path class="cls-4" d="M12.79,40.51h0Z"/><polygon class="cls-4" points="8.12 34.27 8.11 34.27 8.11 34.28 8.12 34.27"/><path class="cls-4" d="M9.7,38.64h0s0,0,.07-.06l.05-.06.08-.07.09-.08,0,0,.14-.11.28-.24h0l.1-.09.09-.12a1,1,0,0,0,.08-.18v-.07a.36.36,0,0,0,0-.1c0-.06,0-.12,0-.18a.51.51,0,0,0,0-.13v0a.33.33,0,0,1,.41.13c.28.76-.58,1.41-1.22,1.61H9.89a.38.38,0,0,1-.27-.14h0l.07,0Z"/><path class="cls-4" d="M5.44,10.5a2.14,2.14,0,0,1,2.17-.09,4.27,4.27,0,0,1,1.27,1.92,1.1,1.1,0,0,1,1.27,1c0,.73-.35,1.41-.32,2.14.25,1,.82,2,1.15,3,.1.48.11,1,.25,1.46a10.47,10.47,0,0,1,1-.89.91.91,0,0,1,.51-.27c.27,0,.57.34.24.46a1.44,1.44,0,0,0-.53.45c-.35.39-1.15,1.47-1.71.91a.5.5,0,0,1-.13-.39c0-.25-.11-.5-.15-.75A7.72,7.72,0,0,0,9.66,17a3.69,3.69,0,0,1-.48-2,12.21,12.21,0,0,1,.31-1.33c.06-.23.1-.51-.08-.65A.39.39,0,0,0,9,13a.78.78,0,0,0-.32.25,1.8,1.8,0,0,0-.32.49c-.18.41-.85.38-.68-.12A2.53,2.53,0,0,1,8,13.1c.07-.1.31-.29.32-.41a.3.3,0,0,0,0-.15C8.1,12.26,8,12,7.82,11.7a1.82,1.82,0,0,0-.41-.61,1.21,1.21,0,0,0-.66-.24,1.16,1.16,0,0,0-1.08.36,1.28,1.28,0,0,0-.22.57A4.71,4.71,0,0,0,6,14.27a7.17,7.17,0,0,0,.42,1.26A9.32,9.32,0,0,1,7,16.59,18,18,0,0,1,8.32,21c.33.85.55,1.88,1.39,2.39a1.82,1.82,0,0,0,1.64.28,6.16,6.16,0,0,0,3.35-1.92.46.46,0,0,1,.16-.15.29.29,0,0,1,.4.2.5.5,0,0,1-.14.47,1.79,1.79,0,0,1-.42.3c-.65.37-1.24.84-1.88,1.22a3.48,3.48,0,0,1-2.63.57c-2.67-.7-2.69-4.51-3.38-6.61-.35-1.08-1.2-1.87-1.38-3a11.57,11.57,0,0,1-.67-2.09A2.41,2.41,0,0,1,5.44,10.5Z"/><polygon class="cls-4" points="12.92 23.09 12.92 23.09 12.92 23.09 12.92 23.09"/><path class="cls-9" d="M15.42,27.36c.07-.29.14-1,.44-1.17a1.22,1.22,0,0,0,.31.29.53.53,0,0,1,.15.11c.1.14-.22.83-.27,1a12.21,12.21,0,0,1,1.45.93,9.22,9.22,0,0,1,1.42,1.23,4.16,4.16,0,0,1,.83,1.48c.15.44.15,1.12.47,1.47a1.1,1.1,0,0,0,.41.26,2.4,2.4,0,0,0,1.93,0,4.91,4.91,0,0,0,2.17-2.69,6.74,6.74,0,0,0,.41-3.63.34.34,0,0,1,.44-.4c.3.1.23.45.22.7s0,.62,0,.93a12.89,12.89,0,0,1-.54,2.95,4.15,4.15,0,0,1-2,2.32,5,5,0,0,1-1.11.6,2.65,2.65,0,0,1-1.88-.29,1,1,0,0,1-.34-.25,1.11,1.11,0,0,1-.16-.44A5.6,5.6,0,0,0,19,30.91a8.29,8.29,0,0,0-1.44-1.52l-.24-.22c-.46-.41-1.8-.74-1.91-1.41A1.09,1.09,0,0,1,15.42,27.36Z"/><path class="cls-9" d="M24.73,32Z"/><polygon class="cls-9" points="16.11 26.43 16.11 26.43 16.1 26.43 16.11 26.43"/><polygon class="cls-9" points="16.1 26.43 16.1 26.43 16.1 26.43 16.1 26.43"/><path class="cls-10" d="M26,26a.39.39,0,0,1,.08-.1,4.72,4.72,0,0,0-.05-.68c0-.18-.06-.37-.1-.55L26,25l-.06,0a5.76,5.76,0,0,0,0-.59c-.05-.29-.09-.58-.12-.86h0a4.85,4.85,0,0,1,0-.66.39.39,0,0,0-.14.08c-.1-.33-.2-.65-.31-1a3,3,0,0,0,.17-.5A9.53,9.53,0,0,1,26,20.2c.17-.5.55-.91.73-1.41.14-.84-1-1.14-1.65-1.39a2.59,2.59,0,0,1-1-1c-.15-.25-.47-.58-1.25-.31-.18.06-.17.33-.26.5a1.25,1.25,0,0,1-.7.49,3.69,3.69,0,0,1-4.6-2,.66.66,0,0,0-.21-.31.32.32,0,0,0-.36,0c-.12.09-1.31.46-1.7.72a4.69,4.69,0,0,0-1.16,1.27l-.45.64-.47.66a1.55,1.55,0,0,0-.28.52.52.52,0,0,0,.16.53,1.69,1.69,0,0,0,.37.15,1.39,1.39,0,0,1,.38.25,4.31,4.31,0,0,1,1,1,1.66,1.66,0,0,1,.25,1.36l-.08.12-.06.08h0l0,0-.08.07,0,0h0a3.58,3.58,0,0,0-.39.29l-.32.31a.3.3,0,0,0,0,.41h0s0,.05.05.06a1.59,1.59,0,0,0,1,.49.71.71,0,0,1,.43.1.39.39,0,0,1,.11.21,2.57,2.57,0,0,1,.08.62,11.38,11.38,0,0,1-.06,1.31.84.84,0,0,0,0,.52,1,1,0,0,0,.22.24,8.57,8.57,0,0,0,.87.51,6.78,6.78,0,0,0,1,.49,6.44,6.44,0,0,0,3.52.42,17.73,17.73,0,0,0,2.95-.84c.4-.15.82-.26,1.22-.42A2.12,2.12,0,0,0,26,26ZM14.83,23a.31.31,0,0,0-.05.1,1.32,1.32,0,0,1-.39-.15s.25-.13.45-.33a.39.39,0,0,0-.05.24C14.8,22.94,14.82,23,14.83,23Zm1.59,3.6a1.8,1.8,0,0,1-.35-.32,1,1,0,0,1-.2-.63c0,.11.07.23.11.35a.32.32,0,0,0,.37.19l.08.13A.34.34,0,0,0,16.42,26.63Zm.29-3.05a.34.34,0,0,0,.09-.19h.1a.57.57,0,0,0,.6,0,2.65,2.65,0,0,1,.3.11,7.08,7.08,0,0,1-.92,0A.27.27,0,0,0,16.71,23.58ZM23,26.94a8.7,8.7,0,0,1-3.79.63.29.29,0,0,0,0-.55l-.64-.18a.31.31,0,0,0-.19-.3l-.21-.07,0,0c-.09-.05-.19-.08-.28-.12a.24.24,0,0,0,0-.32l-.35-.26a.27.27,0,0,0,0-.4h0a.29.29,0,0,0,0-.43.27.27,0,0,0,0-.38l-.18-.13a.26.26,0,0,0,.13-.31A7.7,7.7,0,0,0,18.65,24a.29.29,0,0,0,.14-.48,2.85,2.85,0,0,0-1-.61s0,0,0-.06a1,1,0,0,0-.52-.69.27.27,0,0,0-.08-.23.3.3,0,0,0-.05-.44l0,0a.28.28,0,0,0,0-.46l-.06,0a.33.33,0,0,0-.09-.41l0,0a1.47,1.47,0,0,0-.52-1.39,1.18,1.18,0,0,0-.72-.26.41.41,0,0,0,0-.16.26.26,0,0,0,0-.09.16.16,0,0,0,0-.07,1.13,1.13,0,0,0,.24-.08A.27.27,0,0,0,16,18a1.39,1.39,0,0,0-.15-.19,2.59,2.59,0,0,0,.45-.14.29.29,0,0,0,.11-.39l-.06-.11a.31.31,0,0,0,.06-.35.24.24,0,0,0,.14-.12l.26.1c.2.08.39-.13.37-.32a.32.32,0,0,0,.1-.1A4.33,4.33,0,0,0,22,17.7c.61-.21,1.23-.66,1.26-1.3A3.14,3.14,0,0,0,24.7,18a4,4,0,0,1,1.32.67s-.56,1-.6,1.11c-.16.36-.24.78-.42,1.12a3.21,3.21,0,0,1-.18-1.16.57.57,0,0,0-.08-.34.36.36,0,0,0-.48-.05c-.15.13-.11.3-.11.47,0,1.94,1.36,3.65,1.08,5.62-.11.8-.49,1-1.21,1.22C23.68,26.74,23.33,26.82,23,26.94Z"/><path class="cls-9" d="M16.74,27.52c.16.09.31.19.46.29l.1,0a.27.27,0,0,1,.17.14l.08.05.58.29.31.11.21.07a.27.27,0,0,1,.28-.27,8.49,8.49,0,0,1,.88.05l2,.11c.37,0,.36.6,0,.58h-.14a.27.27,0,0,1-.2.21,2.57,2.57,0,0,1-.4.07.35.35,0,0,1,0,.11h0c.27.05.25.41.06.53l.07,0c.28.06.24.39.05.51a1.53,1.53,0,0,1,.27.11.29.29,0,0,1,.08.41c.11.18,0,.46-.23.44l-.29,0a.33.33,0,0,1,.17.37l.82.13a.29.29,0,0,1,0,.57h-.14a.29.29,0,0,1-.2.34h-.06l.14.06a.62.62,0,0,1-.36.83,2.65,2.65,0,0,1-.42-.18l-.1,0a.26.26,0,0,1-.17-.15l-.09-.06a1.31,1.31,0,0,1-.51-.72.43.43,0,0,1,.09-.33.28.28,0,0,1,.05-.42.33.33,0,0,1,0-.14l-.19-.08a.32.32,0,0,1-.17-.42,7.46,7.46,0,0,1-.53-.61c-.1-.11-.19-.23-.28-.35a4.14,4.14,0,0,1-.83-.73.24.24,0,0,1-.07-.13,10.84,10.84,0,0,0-1-.79l-.54-.27a.24.24,0,0,1-.13-.15L16.38,28A.29.29,0,0,1,16.74,27.52Z"/><path class="cls-11" d="M37.37,8.28a7.31,7.31,0,0,0-1.75.79"/><path class="cls-6" d="M17.55,9.66a1.48,1.48,0,0,0,.31-.53.71.71,0,0,0,0-.57.82.82,0,0,0-.42-.31,2.75,2.75,0,0,1-.95-.74c-.16-.2-.44.08-.28.28a2.85,2.85,0,0,0,1,.79c.19.09.38.14.31.39a1.15,1.15,0,0,1-.37.55c-.29.27-.58.54-.53,1a.85.85,0,0,0,.81.74c.25,0,.25-.39,0-.4a.47.47,0,0,1-.4-.3.5.5,0,0,1,.14-.5C17.27,9.91,17.43,9.8,17.55,9.66Z"/><path class="cls-6" d="M21.16,10.14l-.89-.23a.88.88,0,0,1-.59-.33c-.12-.23-.47,0-.34.2a1.1,1.1,0,0,0,.73.49l1,.26A.2.2,0,0,0,21.16,10.14Z"/><path class="cls-6" d="M20.46,10.73a.29.29,0,0,0-.18,0h-.09l-.14,0-.14-.07a.25.25,0,0,0-.19,0,.26.26,0,0,0-.15.12.26.26,0,0,0,.09.34,1.4,1.4,0,0,0,.33.15,1,1,0,0,0,.41,0,.26.26,0,0,0,.15-.12.21.21,0,0,0,0-.19A.26.26,0,0,0,20.46,10.73Z"/><path class="cls-6" d="M16.63,8.77h0L16.5,8.7l0,0a.26.26,0,0,0-.17-.07.29.29,0,0,0-.18.07.24.24,0,0,0-.07.18.26.26,0,0,0,.07.18l.13.11.11.06a.64.64,0,0,0,.18.06.45.45,0,0,0,.23,0l.09,0,.06-.07a.35.35,0,0,0,0-.2.24.24,0,0,0-.12-.14A.26.26,0,0,0,16.63,8.77Z"/></g></g></svg>