<svg xmlns="http://www.w3.org/2000/svg" viewBox="0 0 58.74 51.81"><defs><style>.cls-1{fill:#92443f;}.cls-2{fill:#e9a061;}.cls-3{fill:#6474b7;}.cls-4{fill:#3c58a4;}.cls-5{fill:#b27e4c;}.cls-6{fill:#803124;}</style></defs><g id="Layer_2" data-name="Layer 2"><g id="Card"><path class="cls-1" d="M43.62,48.56a2,2,0,0,1,2.08.71c.91,1.08,3.95,2.7,5.73,2.29s6-1.63,6.85-5-.47-5-.67-5.19-1.85-1.68-1.85-1.68a1.92,1.92,0,0,0-.69,1.55c0,1.07-.15,3.33.24,4.23a14.08,14.08,0,0,1,.52,1.33s-.54.07-1.12.19-1-.18-1.69-.06-1.09.53-1.78.53-1.43.15-1.62.11,2.4.65,1.38,2-2.57.14-2.66-.16a4.15,4.15,0,0,1,.12-1.22,8.54,8.54,0,0,0-2.68-.94C44.78,47.25,43.62,48.56,43.62,48.56Z"/><path class="cls-2" d="M37.67,43.35A5.11,5.11,0,0,1,37.81,41c.39-1.22,2.2-3,2.8-3.56s1.89-1.15,2.3-2.19a8.89,8.89,0,0,1,1-2.41c.48-.53.7-.86,1.19-.82a1.14,1.14,0,0,1,.78.43,14,14,0,0,1,1.3-1.95c.47-.47.84-.75,1.29-.51a.46.46,0,0,1,.25.63s1-.59,1.32-.3a1.13,1.13,0,0,1,.38.76s1.21-.39,1.48.12a.86.86,0,0,1,0,.89s1,.26.83.79-1,.83-1,.83.35.18-.16.78-.55.39-1.55,1a9.73,9.73,0,0,0-2.29,1.62A7.69,7.69,0,0,0,47,38.38s2.11-.58,3.07-.1,1.2.47,1.26.45a7.6,7.6,0,0,1,3,.12,3,3,0,0,1,1.11.95,6,6,0,0,0-.35,2.68c.17,1.46-.08,2.49.47,3.29l.93,1.33s-.84,0-2.32,0-2.79.62-3.47.57-1.05-.11-1.05-.11,1,.41,1.21,1.15,0,1.37-.8,1.41a2.36,2.36,0,0,1-1.57-.45c-.32-.21,0-1.44,0-1.44a7,7,0,0,0-2.12-.56c-.58.09-2.57.45-2.57.45s.72-2.1.22-2.9a15,15,0,0,0-1.09-1.54,11.16,11.16,0,0,1-2.23.26A10.93,10.93,0,0,1,37.67,43.35Z"/><path class="cls-3" d="M27.24,46.69a43.12,43.12,0,0,1,7.25.7c2.15.6,6.47,1.31,7.64,1.12a3.61,3.61,0,0,0,1.7-.65A5.13,5.13,0,0,0,44,45.22a15.56,15.56,0,0,0-1-2,4.38,4.38,0,0,1-2.57.59,9.42,9.42,0,0,1-3-.59s-.46-.65.2-1.82a49.48,49.48,0,0,1,3.08-4.15,15.75,15.75,0,0,0-3.22-1c-2.49-.61-5.14-2-8.75-1.5s-4.3.08-4.7,1.56-.58,4.62.47,6S27.24,46.69,27.24,46.69Z"/><path class="cls-3" d="M15.72,46a7.53,7.53,0,0,0,2.55,2.48,6.35,6.35,0,0,0,4.49.37,27.48,27.48,0,0,0,4-2.57,11,11,0,0,1-2.42-4.45c-.41-2.24-.87-3.89-.58-4.68s.54-1.67.54-1.67a4.79,4.79,0,0,0-3.08.66,32.75,32.75,0,0,0-4,2.65,5.38,5.38,0,0,1,2.53,1.85c.67,1.19,2.63,2,.45,4.33C18.83,46.49,15.72,46,15.72,46Z"/><path d="M13,43.22l0-.07,0-.08h0a.65.65,0,0,0,0-.13.61.61,0,0,0,0-.12h0v0a.3.3,0,0,0,0-.1s0,0,0-.05a.37.37,0,0,1,.31.05c.24.21.11.43,0,.64Z"/><path class="cls-4" d="M17.3,39.09a.35.35,0,0,0,.27-.14,7.27,7.27,0,0,1,.57-.54,14.83,14.83,0,0,1,1.55-1.1h0a7.91,7.91,0,0,1,4-1.38.34.34,0,0,0,.2-.64,4.17,4.17,0,0,0-1.75.19,9.29,9.29,0,0,0-3,1.42,9.45,9.45,0,0,0-1.94,1.51.46.46,0,0,0-.18.33A.34.34,0,0,0,17.3,39.09Z"/><path class="cls-4" d="M26.33,46.34a.38.38,0,0,0-.22.13,10.41,10.41,0,0,1-.9.86,5.3,5.3,0,0,1-2.4,1.08,8.5,8.5,0,0,1-2.36.18,4.46,4.46,0,0,1-2.08-.45c-.37-.24-.66-.61-1-.87a6.84,6.84,0,0,1-1.12-1c-.21-.24-.16-.49-.43-.68s-.51-.12-.5.14a2.86,2.86,0,0,0,.32.84,7.14,7.14,0,0,0,1.47,1.33A5.06,5.06,0,0,0,18.66,49a8.44,8.44,0,0,0,2.35.27,8.26,8.26,0,0,0,4.07-1,8.27,8.27,0,0,0,1.57-1.38A.35.35,0,0,0,26.33,46.34Z"/><path d="M47.45,35.09h0Z"/><path d="M48.29,39.72l0,0,0,0Z"/><path d="M53.21,47.67h0Z"/><path d="M48.46,48.23a.27.27,0,0,1,.07-.2h0v0h0l0,.08h0s0,0,0,0v0a.28.28,0,0,1,0,.09h0v.07h0a.08.08,0,0,0,0,0,.14.14,0,0,0,0,.07h0A.3.3,0,0,1,48.46,48.23Z"/><path d="M47.41,48h0Z"/><path d="M48.05,48.5h0l.06-.09a.31.31,0,0,0,.05-.1h0v0h0l0-.05h0l0-.07a.41.41,0,0,0,0-.09h0a.06.06,0,0,0,0,0h.25l0,0h0v0l0,.07h0s0,0,0,0v0h0a.35.35,0,0,1-.3.17l-.28.11Z"/><path class="cls-5" d="M51.36,38.3a28.61,28.61,0,0,0-3-.56,5.51,5.51,0,0,0-.71.07A16.48,16.48,0,0,1,49.8,35.9c.69-.48,1.7-.64,2.12-1.43a2.42,2.42,0,0,0,.13-.48,1.38,1.38,0,0,0,.7-1.1A1.16,1.16,0,0,0,52.3,32c.26-.93-.86-1.38-1.61-1.35a1.08,1.08,0,0,0-1.75-.45c-.47-1.24-1.92-.37-2.33.47a11.58,11.58,0,0,0-.76,1.22,1.71,1.71,0,0,0-1.72.29c-.78.48-.88,1.41-1.26,2.19-.47,1.29-1.7,2-2.68,2.89a16.47,16.47,0,0,0-2,2.49,4.27,4.27,0,0,0-.91,3.31.62.62,0,0,0,.31.44c.25.09.4.16.4-.15s.09-.46-.06-.49c-.23-1.45.73-2.66,1.54-3.75a17.3,17.3,0,0,1,1.33-1.51,10.55,10.55,0,0,0,2.25-2.12A4.64,4.64,0,0,0,43.65,34a3.38,3.38,0,0,1,.63-1.22,1.26,1.26,0,0,1,.6-.45c.91-.26.5,1.19,1.38,1.13.23,0,.57-.14.73.1s0,.43,0,.62.22.23.38.34a.72.72,0,0,1,.28.7,1.28,1.28,0,0,1-.48.71c-1.19,1-3.09,1.49-3.51,3.16a12,12,0,0,0-.5,2.37A4.43,4.43,0,0,1,42.74,43c-.15.24-.38.53-.05.75a.42.42,0,0,0,.15,0c.62,0,1-1.92,1-2.38a8,8,0,0,1,.25-1.26l.14-.05c.57-.31,1.12-.63,1.72-.9a4.5,4.5,0,0,1,2.29-.76c1,0,2,.44,3,.55.81.08,1.64,0,2.46.12a5.41,5.41,0,0,1,1.66.71l.15.09.33-.59C54.44,38.31,53.16,38.31,51.36,38.3Zm.45-5.74a.45.45,0,0,1,.54.15.51.51,0,0,1-.1.55.15.15,0,0,1-.13.07c-.07,0-.11-.08-.14-.14l-.19-.42C51.75,32.67,51.76,32.6,51.81,32.56Zm-3.42-.18a1.27,1.27,0,0,1,.06-.28,3,3,0,0,1,.6-1.08c.17-.2.62-.56.88-.3s.13.44.31.6a.36.36,0,0,0,.19.08s0,0,0,0h0a.83.83,0,0,1,.89-.13.66.66,0,0,1,.34.71c0,.08-.1.18-.18.15s-.18-.27-.33-.35a1.42,1.42,0,0,0-.61-.13,1.25,1.25,0,0,0-1,.49c-.15.23,0,.57-.14.76a.45.45,0,0,1-.17.13.77.77,0,0,1-.45.1.49.49,0,0,1-.42-.37A.74.74,0,0,1,48.39,32.38Zm-1.11.52a1.43,1.43,0,0,1-.68.09.49.49,0,0,1-.24-.05c-.16-.1-.13-.34-.07-.52a3.86,3.86,0,0,1,.62-1.19c.24-.32.67-1.23,1.2-1a.47.47,0,0,1,.25.33,1.19,1.19,0,0,1,0,.42,3.52,3.52,0,0,1-.66,1.55A1.28,1.28,0,0,1,47.28,32.9Zm-1.79,5.76a4.89,4.89,0,0,1-1.12.56c.07-.71,1.06-1.3,1.59-1.64a6.39,6.39,0,0,0,1.8-1.43A1.3,1.3,0,0,0,48.13,35c-.13-.34-.22-.75-.58-.93a.94.94,0,0,0-.09-.64,2.16,2.16,0,0,0,.43-.29s.27.37.32.41.77.39,1,.19a.34.34,0,0,0,0,.51,5.2,5.2,0,0,0,.44-.35.85.85,0,0,0,.29-.44,4.15,4.15,0,0,0,0-.49.72.72,0,0,1,.29-.57c1-.71,1.67,1.6.84,2.06A11.7,11.7,0,0,0,48.57,36a16.82,16.82,0,0,0-1.51,1.42c-.15.19-.48.44-.5.7A6.31,6.31,0,0,0,45.49,38.66Z"/><polygon class="cls-5" points="46.18 33.53 46.18 33.53 46.18 33.53 46.18 33.53"/><polygon class="cls-5" points="49.6 33.96 49.6 33.96 49.6 33.96 49.6 33.96"/><polygon class="cls-5" points="49.42 34.09 49.42 34.09 49.41 34.1 49.42 34.09"/><path class="cls-6" d="M47.27,40.89a2.3,2.3,0,0,0,.19.47,2,2,0,0,0,.72.85c.13.08.41.23.58.17s.1-.2-.07-.27a1.48,1.48,0,0,1-.67-.57,3.36,3.36,0,0,1-.41-.8.5.5,0,0,1,0-.41.25.25,0,0,0-.25.09A.45.45,0,0,0,47.27,40.89Z"/><path class="cls-6" d="M49.52,41.1a.23.23,0,0,0,0,.11.21.21,0,0,0,.23.14,2.31,2.31,0,0,1,0-.74c.1-.25.41-.46.46-.71a.32.32,0,0,0-.23-.09.66.66,0,0,0-.49.48,2.11,2.11,0,0,0-.06.61A1.27,1.27,0,0,0,49.52,41.1Z"/><path class="cls-6" d="M52.38,40.14a.2.2,0,0,0,0-.11.34.34,0,0,0-.65.11.34.34,0,1,0,.67,0Z"/><path class="cls-6" d="M53.16,39.7a1.76,1.76,0,0,1,0,1.22.43.43,0,0,0,0,.19c.05.24.37,0,.46-.06a1.07,1.07,0,0,0,.14-.35,2.21,2.21,0,0,0,.06-.57c0-.34-.31-.91-.72-.61Z"/><path d="M52.56,44.61h0Z"/><path class="cls-6" d="M53.79,42.89c0-.09-.1-.13-.26-.1a.34.34,0,0,0-.27.35,2.07,2.07,0,0,1-.8,1c-.1.09-.34.47-.1.57s.51-.35.61-.45a3.33,3.33,0,0,0,.8-1.2A.28.28,0,0,0,53.79,42.89Z"/><path class="cls-6" d="M51.5,42.67a.37.37,0,0,0,0,.71.41.41,0,0,0,.4-.17A.34.34,0,0,0,51.5,42.67Z"/><path class="cls-6" d="M58.42,42.76a5.47,5.47,0,0,0-2.08-3.13c-.79-.92-1.39,0-1.3.38a13.65,13.65,0,0,0-.26,4.64,4.73,4.73,0,0,0,1,2.14c0-.07-.51,0-.6-.06l-.65,0c-.41,0-.82-.09-1.23-.09a5,5,0,0,0-1.3.32,5.91,5.91,0,0,1-2.17.26c-.24,0-.69-.09-.86.15s.07.49.27.58a2.91,2.91,0,0,1,1.25.85.75.75,0,0,1,.2.7.61.61,0,0,1-.33.3,1.36,1.36,0,0,1-.45.06c-.47,0-1.45-.2-1.5-.81,0-.17.35-1,0-1a.35.35,0,0,0-.16.08.86.86,0,0,0-.27.49,1.43,1.43,0,0,0,.12.89,1.88,1.88,0,0,0,1.48.77,2.16,2.16,0,0,0,1-.07,1.1,1.1,0,0,0,.71-.65c.23-.63-.28-1.27-.72-1.66a2.49,2.49,0,0,0,.84-.07l1-.23a8.84,8.84,0,0,1,2.11-.21c.38,0,.76.07,1.14.11s.86.19,1.06,0a.42.42,0,0,0-.07-.62,4.12,4.12,0,0,1-.83-1.15,6.61,6.61,0,0,1-.45-3.41,5,5,0,0,1,.34-2.18,4.18,4.18,0,0,1,1.81,2.22,6.05,6.05,0,0,1,.49,2.47,10.44,10.44,0,0,1-.81,2.71,7.64,7.64,0,0,1-3.4,3.06,5.19,5.19,0,0,1-2.89.56c-.43,0-.86,0-1.28,0a2.88,2.88,0,0,1-1.11-.31,10.69,10.69,0,0,1-2.09-1.29,5.52,5.52,0,0,0-2.2-1.36.77.77,0,0,0-.5,0,.33.33,0,0,0-.15.44c.08.14.26.16.42.19a4.9,4.9,0,0,1,2,1.18,8.44,8.44,0,0,0,2.68,1.57,6.93,6.93,0,0,0,2.31.3,8.07,8.07,0,0,0,6-2.86,5.58,5.58,0,0,0,1.26-2.39A4.89,4.89,0,0,0,58.42,42.76Z"/><path d="M48.62,48.16h0Z"/><path class="cls-4" d="M44.31,46.51a6.45,6.45,0,0,0-.55-2.71,3.08,3.08,0,0,0-.39-.62c-.24-.28-.41-.24-.73-.1a6,6,0,0,1-3.35.33,3.16,3.16,0,0,1-1.41-.48c-.13-.12-.29-.54-.55-.35a1.94,1.94,0,0,0-.58,1.09l0-.1a.29.29,0,0,0-.4-.11.27.27,0,0,0-.13.21.31.31,0,0,0-.09.19c0,.23,0,.45,0,.67h0a3.3,3.3,0,0,0-.38-.59.2.2,0,0,0-.09,0,4.83,4.83,0,0,0-.22-.64c-.09-.22-.51-.32-.56,0s-.05.41-.07.61a.27.27,0,0,0-.12-.09.45.45,0,0,0-.44.1.27.27,0,0,0-.24.11.28.28,0,0,0-.47-.1s0,0,0-.05a.27.27,0,0,0-.42-.07.33.33,0,0,0-.29-.24.28.28,0,0,0-.46-.11.35.35,0,0,0-.33-.16s0-.1-.05-.15a.3.3,0,0,0-.51,0,.36.36,0,0,0,0,.09c-.11-.18-.38-.26-.5,0v0h0a2.45,2.45,0,0,0,0-.38.29.29,0,0,0-.54-.15,3.44,3.44,0,0,0-.25.51,5,5,0,0,0-.36-.69.29.29,0,0,0-.54.14v.18L29,42.44a.28.28,0,0,0-.49,0h0a.29.29,0,0,0-.54.15,5.63,5.63,0,0,0,0,1.23c-.07-.11-.12-.22-.2-.33a.28.28,0,0,0-.31-.12c-.09-.14-.17-.28-.27-.41a.29.29,0,0,0-.53.22,1.55,1.55,0,0,0,0,.23h-.06a12.11,12.11,0,0,0-.51-1.1.3.3,0,0,0-.49,0c-.21-.15-.58,0-.47.29l.05.12a.24.24,0,0,0,0,.15l.09.29c-.22-.53-.45-1-.7-1.57-.36-1.18-1.16-5.56.36-6,2-.66,4.15-.4,6.23-.39a37.18,37.18,0,0,1,8.28,2.12c.38.15,1.3.33,1.06-.37a.32.32,0,0,0-.25-.17,5.61,5.61,0,0,1-1.48-.4c-.74-.25-1.5-.46-2.25-.72a24.64,24.64,0,0,0-9.42-1.16,8.11,8.11,0,0,0-2.85.64,3.45,3.45,0,0,0-.87,2.74A8.15,8.15,0,0,0,23.62,40a7.6,7.6,0,0,0,.85,2.79,9,9,0,0,0,.88,1.85c.2.26.39.53.58.81S26.73,47,27,47l1,0a26.35,26.35,0,0,1,3.87.32,50.42,50.42,0,0,1,5,.89,28.85,28.85,0,0,0,4.71.65,3.88,3.88,0,0,0,2.1-.46,1.8,1.8,0,0,0,.63-1.64A2.17,2.17,0,0,0,44.31,46.51Zm-1.22-2.29c-.17-.18-.55-.13-.51.17,0,0,0,0,0,.08h0v0c0,.14,0,.28.07.42,0-.05,0-.1-.05-.15a.29.29,0,0,0-.49,0,.31.31,0,0,0-.36.28l-.09.71c-.16-.15-.43,0-.48.21,0,0,0,0,0,0a5.24,5.24,0,0,0-.12.67v0a.29.29,0,0,0-.46.08l-.06,0H40.4c0-.06,0-.13-.07-.2-.13-.26-.55-.12-.55.15,0,0,0,.08,0,.13l0,0a.35.35,0,0,0-.38,0h0a2.3,2.3,0,0,1-.06-.28c0-.25-.35-.26-.5-.11a.28.28,0,0,0-.42.21.34.34,0,0,0-.15.06l0-.09c-.13-.34-.69-.2-.57.16a.73.73,0,0,1,0,.2h0l-.07-.23a1.09,1.09,0,0,0-.08-.31.26.26,0,0,0-.07-.1.33.33,0,0,0,.09-.48,3.36,3.36,0,0,1,0-2.34,2.81,2.81,0,0,0,1,.31c.39.08.76.24,1.16.29A6.41,6.41,0,0,0,42.23,44a5,5,0,0,0,.67-.28,1.72,1.72,0,0,1,.22.33.32.32,0,0,0,0,.14Z"/><path class="cls-4" d="M26.08,46.09c0-.08-.07-.16-.12-.24a.12.12,0,0,0,0-.1,8.67,8.67,0,0,0-1.17-2.55.31.31,0,0,0-.37-.11c-.18-.33-.37-.66-.54-1a.3.3,0,0,0-.09-.1c-.15-.29-.29-.59-.44-.88s-.66,0-.5.29.41.88.61,1.31a.27.27,0,0,0-.14.41l.09.15a.3.3,0,0,0,0,.29l.19.35a.23.23,0,0,0,0,.32l.21.31-.1,0a.25.25,0,0,0-.25.19,6.42,6.42,0,0,0-.14.86,4.11,4.11,0,0,0-.27-.35.26.26,0,0,0-.3-.06,4.52,4.52,0,0,0-.56-.67c-.17-.16-.52-.06-.5.2l.09,1.15-.53-.64c-.19-.24-.55,0-.48.28a6,6,0,0,0,.47,1.24.27.27,0,0,0-.15.32s0,0,0,.07h0a1.38,1.38,0,0,1,.12.34l-.1-.14a.35.35,0,0,0-.2-.13,1.71,1.71,0,0,0-.29-.61c-.13-.16-.45-.17-.53,0a2.71,2.71,0,0,0-.21-.37c-.17-.26-.65-.11-.53.22l0,.07h0a2.14,2.14,0,0,0,.1.22.31.31,0,0,0-.33.39.29.29,0,0,0-.45.23l-.22-.16a.27.27,0,0,0-.3,0,1.44,1.44,0,0,0-.22-.19.25.25,0,0,0-.25,0,1.46,1.46,0,0,0-.28-.21.29.29,0,0,0-.37.07l-.1-.1c-.23-.25-.61.06-.46.35a3.42,3.42,0,0,0,1.11,1.22.31.31,0,0,0,.4-.11,1.4,1.4,0,0,0,.1-.16l.59.58a.29.29,0,0,0,.41,0c0-.05.06-.1.1-.16a1.8,1.8,0,0,0,.2.19.27.27,0,0,0,.35-.05A1.4,1.4,0,0,0,20,49a.3.3,0,0,0,.46-.05.36.36,0,0,0,0-.09,1.64,1.64,0,0,0,.41.24.3.3,0,0,0,.36-.2,1.88,1.88,0,0,0,.06-.31.28.28,0,0,0,.44-.15s0-.11,0-.17a3.62,3.62,0,0,0,.42.36.3.3,0,0,0,.43-.18v0a.25.25,0,0,0,.23-.27v0h0a.29.29,0,0,0,.4-.11h0l.11.12a.3.3,0,0,0,.49-.12,2.07,2.07,0,0,0,0-.22l.17.17a.3.3,0,0,0,.5-.21s0-.09,0-.13a.29.29,0,0,0,.25-.27,1.83,1.83,0,0,0,0-.33.31.31,0,0,0,.18-.09l.11,0a.27.27,0,0,0,.29-.11c.2.09.51-.11.41-.34v0A.28.28,0,0,0,26.08,46.09Z"/><path class="cls-4" d="M37.49,37.88s0-.13.06-.07a.37.37,0,0,1-.12.13c-.14-.22-.24,0-.08-.18-.09.06-.11,0-.22,0"/><path class="cls-4" d="M38,37.75h0l0,.13v0L38,38a0,0,0,0,0,0,0l0,.12v0l-.08.1h0l-.1.07h0l-.12.05h0l-.14,0h0l-.14,0h0l-.12-.05h0l-.1-.07h0l-.08-.1h0v-.5a.1.1,0,0,1,0,0l.08-.1a.12.12,0,0,1,0,.05l.1-.08,0,0,.68.18-.1-.14,0,0a.71.71,0,0,0-.26-.16.62.62,0,0,0-.19,0h.13l.22.13h0l.13.49h0l-.13.22h0l-.1.08.19-.15a.39.39,0,0,0,.1-.16.31.31,0,0,0,0-.19v-.14a.56.56,0,0,0-.09-.17l-.09-.09a.56.56,0,0,0-.17-.09h-.14a.54.54,0,0,0-.25.06l0,0,.12-.05h0l.14,0h0l.14,0h0l.12.05-.15-.06h0l-.13,0h0l-.14,0h0a.38.38,0,0,0-.17.08.64.64,0,0,0-.13.15.35.35,0,0,0,0,.18.34.34,0,0,0,0,.2l0,.12a.62.62,0,0,0,.18.18l.12.05a.61.61,0,0,0,.27,0h0l-.14,0h0l-.14,0h0L37,38.19l.15.06a.45.45,0,0,0,.16,0h0l.14,0h0l.16-.07L37,37.4l-.06.05.1-.07h0l-.1.08-.08.1a.61.61,0,0,0-.05.12.42.42,0,0,0,0,.27.5.5,0,0,0,.13.22.27.27,0,0,0,.1.08l.12.05.13,0h0l-.14,0h0l-.12,0,0,0-.1-.08s0,0,.05.06L37,38.16l0,0a.44.44,0,0,0,.13.14.46.46,0,0,0,.17.09l.13,0a.59.59,0,0,0,.26-.07l0,0,.12-.09a1.58,1.58,0,0,0,.12-.15l0,0v0h0l.05-.12a.44.44,0,0,0,0-.2.32.32,0,0,0-.06-.18h0a.1.1,0,0,0,0,0l0-.06-.1-.08a.53.53,0,0,0-.52,0l-.11.08-.08.11h0a.47.47,0,0,0-.07.22s0,.06,0,.08h0L37,38h0a.46.46,0,0,0,.09.17.35.35,0,0,0,.14.13.33.33,0,0,0,.19.06.35.35,0,0,0,.2,0l.12,0a.42.42,0,0,0,.17-.18L38,38a.57.57,0,0,0,0-.26Z"/><path class="cls-4" d="M34.68,37.09l-.32-.23a.45.45,0,0,0,.14.1"/><path class="cls-4" d="M34.94,36.65l-.32-.22a.33.33,0,0,0-.19-.06.34.34,0,0,0-.2,0l-.12,0a.35.35,0,0,0-.14.13.2.2,0,0,0-.06.11.32.32,0,0,0,0,.19l0,.13a.45.45,0,0,0,.13.22l.16.14.08,0a.41.41,0,0,0,.18.05.34.34,0,0,0,.2,0,.46.46,0,0,0,.17-.09.43.43,0,0,0,.13-.14l0-.12a.42.42,0,0,0,0-.27l0-.12a.52.52,0,0,0-.18-.18l-.07-.05.1.08-.06-.05-.61.78.32.23a.6.6,0,0,0,.19.06.46.46,0,0,0,.2,0,.56.56,0,0,0,.17-.09.58.58,0,0,0,.13-.14l.05-.12a.61.61,0,0,0,0-.27l-.05-.12a.77.77,0,0,0-.18-.18Z"/><path class="cls-4" d="M30.84,36.29c-.14,0-.28-.07-.41-.12l.09,0s.05,0,.05.06a.18.18,0,0,1-.16,0"/><path class="cls-4" d="M31,35.81c-.13-.05-.28-.07-.41-.12l.12.91h0l-.12,0,.06,0H30.4l-.11,0h0l-.1-.08h0l-.08-.1v0l-.05-.12h0l.13-.49h0l.1-.07,0,0,.12,0h-.05l.13,0h0l.14,0h0a.34.34,0,0,0-.2,0,.3.3,0,0,0-.18.06.29.29,0,0,0-.14.13.28.28,0,0,0-.09.17l0,.13a.43.43,0,0,0,.07.25l.07.1a.45.45,0,0,0,.23.13.68.68,0,0,0,.65-.17.5.5,0,0,0,.13-.49.58.58,0,0,0-.15-.25h0l-.1-.08h0l-.07,0-.07,0h0l-.13,0-.14,0h-.06l-.15.07-.1.07-.07.11-.06.12a.31.31,0,0,0,0,.19.28.28,0,0,0,0,.13.24.24,0,0,0,.06.11l.09.09a.32.32,0,0,0,.17.09c.14.05.28.07.41.12a.35.35,0,0,0,.2,0,.33.33,0,0,0,.19-.06.35.35,0,0,0,.14-.13.39.39,0,0,0,.09-.17l0-.13a.55.55,0,0,0-.07-.25l-.08-.1a.5.5,0,0,0-.22-.13Z"/><path class="cls-2" d="M15.68,46.08a23.12,23.12,0,0,0-3.15-.38c-1.2,0-4.46,1.31-6,1.17s-2.6,0-3.12-.58a25.8,25.8,0,0,0-2-2.62C.65,43-.32,42.3.54,41.93a1.36,1.36,0,0,1,1.61.2A18.64,18.64,0,0,0,4.34,43a2.67,2.67,0,0,0-1.09-1.31c-.85-.53-2.43-1.24-1.7-1.71s.76-1.13,2.22-.9,2.91,2,3.94,2,3.78-2,5.26-2.36,5.36,0,6.76,1.29,1.6,3.56.54,4.46A6.72,6.72,0,0,1,15.68,46.08Z"/><path class="cls-5" d="M21.36,42.46a2.77,2.77,0,0,0-.64-1.89,7.48,7.48,0,0,0-3.56-2.12A7.51,7.51,0,0,0,15,38.09a11.15,11.15,0,0,0-2.14.37,7.23,7.23,0,0,0-2.17.78,19.13,19.13,0,0,1-2,1.13,2.11,2.11,0,0,1-2.4-.3,9.28,9.28,0,0,0-1.72-1.13,3.77,3.77,0,0,0-1.76-.2,2.18,2.18,0,0,0-.92.17c-.51.27-1,1-.7,1.58A2.16,2.16,0,0,0,2,41.2a7.77,7.77,0,0,1,1.54,1.38,11.35,11.35,0,0,0-2.14-1,1.63,1.63,0,0,0-.75-.11.83.83,0,0,0-.65.79c0,.58.49,1,.85,1.33s.85.92,1.24,1.4S3,46.44,3.78,46.78a4.87,4.87,0,0,0,1.65.35,9.32,9.32,0,0,0,4.22-.51,6.86,6.86,0,0,1,3.56-.6,12.05,12.05,0,0,0,2.66.46.31.31,0,0,0,.26-.12,5.27,5.27,0,0,0,1.8-.19,4,4,0,0,0,2-.82,3.5,3.5,0,0,0,1.47-1.81A3.91,3.91,0,0,0,21.36,42.46Zm-17.79.89c.3.11.64.14.93.27a6.67,6.67,0,0,1,.7.48,2.89,2.89,0,0,0,2.25.52,6.92,6.92,0,0,0,1-.44,4.39,4.39,0,0,1,4.74,1.1,7.34,7.34,0,0,0-3,.46,13.26,13.26,0,0,1-3,.78,10.37,10.37,0,0,1-2.08-.11,3.12,3.12,0,0,1-1.16-.31,2.64,2.64,0,0,1-.78-.88,14.87,14.87,0,0,0-1.85-2.11c-.12-.12-.89-.79-.53-1a.38.38,0,0,1,.31,0,8,8,0,0,1,1.18.45c.26.14.5.31.76.46A2.73,2.73,0,0,0,3.57,43.35Zm16.61.9a5.21,5.21,0,0,1-4.75,1.32,6.8,6.8,0,0,1-2.08-1,8.88,8.88,0,0,0-2.11-1.21A5,5,0,0,0,8,43.58,2.38,2.38,0,0,1,7,44a3.47,3.47,0,0,1-1.53-.54c-1.23-.86-2-2.25-3.31-3A.32.32,0,0,0,2,40.3h0l-.09-.12a.16.16,0,0,0,0-.07,1.47,1.47,0,0,1,.48-.62,10.52,10.52,0,0,1,1.12-.07,1.76,1.76,0,0,1,.83.1c.44.26.89.52,1.32.8a2.93,2.93,0,0,0,2.73.93,18.51,18.51,0,0,0,3.11-1.57,9.9,9.9,0,0,1,2.81-.79,5.72,5.72,0,0,1,2.4.12,6.15,6.15,0,0,1,3.85,2.4,2.23,2.23,0,0,1,.24,1.14A2.06,2.06,0,0,1,20.18,44.25Z"/><path class="cls-1" d="M43.64,3.61S46.25.76,48.82.39s6.39,1.2,6.83,4.39S55.77,9,55,10a10.14,10.14,0,0,1-2.4,2,3.86,3.86,0,0,0,.58-3.43,7.21,7.21,0,0,0-1.26-2.7,2.15,2.15,0,0,1-.29-.9s.15-.06-1,.08a13.76,13.76,0,0,1-2,.1,3,3,0,0,0-1.39.35s.57-2.44-.45-2.3-1.4,1.89-1.4,1.89a3.65,3.65,0,0,1-.76.5,1.19,1.19,0,0,1-.94,0Z"/><path class="cls-2" d="M36.86,10a11.52,11.52,0,0,0,.67,3.36l.75,1.32S38,17.19,39.49,18.5s2.9,2.05,4.42,1.85,1.55-.51,2-.34a2.29,2.29,0,0,0,1.63.17,1.85,1.85,0,0,0,.79-.74s1.9.32,2.07-.86a2.55,2.55,0,0,0-2.07-2.77c-1.33-.18-1.18.33-2.83,0s-2-1.71-2.77-2A5.93,5.93,0,0,1,41.37,13a16.2,16.2,0,0,1-.49-2.56,3.91,3.91,0,0,0,0-.93L39,9.17Z"/><path class="cls-2" d="M42.63,7.92s.12,1.34.14,2.06.25,3.37,2,3.78a5.11,5.11,0,0,0,3.91-.42A5.86,5.86,0,0,1,51,12.7a4.51,4.51,0,0,0,1.59-.7,3.61,3.61,0,0,0,.8-2.54,7.66,7.66,0,0,0-1.23-3.05,3.21,3.21,0,0,1-.54-1.63,6.05,6.05,0,0,1-1.89.31,9.78,9.78,0,0,0-2.08.11,2.59,2.59,0,0,0-.65.22s1.07-2.2.09-2.24a1.52,1.52,0,0,0-1.61,1.11c-.08.47-.14.8-.14.8a3.6,3.6,0,0,1-1.05.43l-.35,0Z"/><path class="cls-3" d="M15.64,12.59a11.42,11.42,0,0,0,2.57,1.78,14.33,14.33,0,0,0,2.83.88,4.37,4.37,0,0,0,1.51-.36,17.52,17.52,0,0,1,0-3.45,20.34,20.34,0,0,1,.78-3.8,10.74,10.74,0,0,0,1-2.87,1.43,1.43,0,0,0-.53-1.13,8.2,8.2,0,0,0-4-.35,9.36,9.36,0,0,0-3.51,1.15,1.52,1.52,0,0,0-.65.73S19,5.23,20,6.71c1.68,2.5.45,3.86-1.82,4.79C16.25,12.28,15.64,12.59,15.64,12.59Z"/><path class="cls-3" d="M37.07,9.64a5.21,5.21,0,0,1,1.73-.47,2.58,2.58,0,0,1,2.13.7A3.88,3.88,0,0,0,41,11.22a19.28,19.28,0,0,1,.39,2.12l1.85-1.45a4.65,4.65,0,0,1-.51-2.2,6.51,6.51,0,0,0-.24-2.11s1.55-2.46,1.36-3.25S42.9,2.49,41,2.19,33.21,3.61,31,3.78s-3.8.74-4.84.57a4.21,4.21,0,0,1-1.78-.74s.3.63-.36,2.47-1.4,2.85-1.48,5,.06,4.35.85,4.9,4.38,1.29,7.15.71A60.13,60.13,0,0,0,38,14.22a4.5,4.5,0,0,1-.9-2.44C36.86,10,37.07,9.64,37.07,9.64Z"/><path class="cls-4" d="M24.18,4.32l.22-.71a1.85,1.85,0,0,0-.92-.37,9.47,9.47,0,0,0-6.66.58c-.39.22-1.84,1.45-1.45,2,.18.23.67-.36.71-.66,1.6-1.66,6-2.1,7.92-1v0Z"/><path class="cls-4" d="M22.09,15a14.69,14.69,0,0,1-2.18-.41A15.56,15.56,0,0,0,18.33,14a7.72,7.72,0,0,1-1.53-.93l-.53-.44a.34.34,0,0,0-.54.32c.07.28.39.39.57.59.41.26.85.61,1.26.87.7.31,1.44.5,2.13.82s1.38.28,2.07.42a1.12,1.12,0,0,0,1-.3l-.18-.49C22.59,15,22.24,15,22.09,15Z"/><path class="cls-5" d="M50.73,17.83a3.81,3.81,0,0,0-.85-1.44.34.34,0,0,0-.07-.11,4.13,4.13,0,0,0-2.48-.91c-.34,0-.64.1-1,.14-1.58,0-2.51-1.43-3.78-2.14-.29-.19-.59-.33-.9-.5a10.89,10.89,0,0,0-.36-1.49,10.54,10.54,0,0,0-.12-1.26c.29-.24,0-.7-.33-.66a.43.43,0,0,0-.36.44,4.48,4.48,0,0,0,.1.82A14.83,14.83,0,0,0,41,13.1a.74.74,0,0,1,0,.26.33.33,0,0,0,.18.44.35.35,0,0,0,.45-.19l.07,0a11,11,0,0,1,1,.61c.7.48,1.29,1.12,2,1.54a3.57,3.57,0,0,0,2.57.26,3,3,0,0,1,1.72.51l0,.07a1.86,1.86,0,0,1,.19.11c.44.41,1,1.05.74,1.69-.22.44-.39.74-.82.72a.35.35,0,0,0,.06-.17c0-.3-.29-.36-.52-.4a4.09,4.09,0,0,0-1.84.05,2.6,2.6,0,0,1-.56.06c-.21-.11-.4-.24-.61-.33a8.22,8.22,0,0,0-2.22-.71,7.53,7.53,0,0,1-2.33-1,6.73,6.73,0,0,1-1.52-.91,10.17,10.17,0,0,1-2.16-3.28c-.06-.4-.15-.79-.21-1.18a5.64,5.64,0,0,0,0-1.16c.18-.29-.13-.69-.45-.52s-.25.44-.21.68a7.89,7.89,0,0,1,0,1.09c.07.43.14.87.24,1.3a9,9,0,0,0,1.08,2,.35.35,0,0,0-.18.33,12.83,12.83,0,0,0,.65,1.86,18.52,18.52,0,0,0,.92,1.77,5.14,5.14,0,0,0,4,2,5.7,5.7,0,0,0,1.23-.12,2.83,2.83,0,0,1,1.29-.21c.8.1,1.71.37,2.41-.2a3.55,3.55,0,0,0,.49-.41l.28.05a1.24,1.24,0,0,0,1.35-.57A2,2,0,0,0,50.73,17.83Zm-3.3,2a3.76,3.76,0,0,1-1.25-.07,3.73,3.73,0,0,0-1-.05,8,8,0,0,1-1.74.33c-3.16-.19-3.88-1.86-4.83-4.36.15.19.31.37.47.55a7.26,7.26,0,0,0,1.82,1.12,9,9,0,0,0,1.78.83c.52.16,1.06.2,1.57.36a9.68,9.68,0,0,1,1.64.74c.49.26,1.07,0,1.59,0h.06a.65.65,0,0,0,.23.13,1.07,1.07,0,0,0,.21.13A2.1,2.1,0,0,1,47.43,19.8Z"/><path class="cls-5" d="M46.09,14.42c-2.34-.41-3.3-1.61-3.56-3.92a3.83,3.83,0,0,1,0-1.75A.34.34,0,0,1,43,8.36c.28.05.33.36.26.59a4.78,4.78,0,0,0,.15,2.37,2.61,2.61,0,0,0,1,1.75,3.18,3.18,0,0,0,2.7.56c.7-.22,1.27-.76,2-.93,1.22-.29,2.46-.16,3.29-1.29a.35.35,0,0,1,.48,0c.59.52-1.31,1.65-1.76,1.66a12.72,12.72,0,0,0-2.24.47A4.81,4.81,0,0,1,46.09,14.42Z"/><path class="cls-6" d="M50.41,11.62a.34.34,0,0,0,0,.68.34.34,0,0,0,.35-.33A.34.34,0,0,0,50.41,11.62Z"/><path class="cls-6" d="M56.07,5.85A6.14,6.14,0,0,0,49.24,0a7.69,7.69,0,0,0-5.48,3.12c-.51,0-.39.79.08.75a.65.65,0,0,0,.3-.17,14,14,0,0,1,1.27-1.29c2.86-3,8.65-2.08,9.77,2.12a4.2,4.2,0,0,1,.19,1.16,5.51,5.51,0,0,1,.17,1.2,5.47,5.47,0,0,1-2.34,4.32l0,0a4.05,4.05,0,0,0,0-3.61,5.4,5.4,0,0,0-.62-1.13A2,2,0,0,1,52,5.11.78.78,0,0,0,52,5l0,0c.32-.29,1.67-.82,1.15-1.34-.23-.2-.46,0-.63.17a4.32,4.32,0,0,1-1.4.79l-1.69.17a6,6,0,0,0-1.88.19,2.76,2.76,0,0,1,.16-.37.82.82,0,0,0,.12-.2A1.1,1.1,0,0,0,47.24,3c-1.13-.37-2.11,1-2.14,2a.34.34,0,0,0,.67-.06c.12-.56.52-1.34,1.18-1.31a.46.46,0,0,1,.31.38h0a10.9,10.9,0,0,1-.52,1.22.43.43,0,0,0,.13.62c.2.1.4,0,.58-.11a4.71,4.71,0,0,1,1.12-.28,16.11,16.11,0,0,0,2-.12,4.9,4.9,0,0,0,.77-.08,2.52,2.52,0,0,0,0,.43c.17.72.76,1.21,1.05,1.86a3,3,0,0,1,.33.93,2.84,2.84,0,0,1,0,2.35c-.15.38-.93.83-.53,1.24a.31.31,0,0,0,.45,0c.3.32.87-.15,1.17-.32A5.94,5.94,0,0,0,56.08,8,4.39,4.39,0,0,0,56.07,5.85Z"/><path class="cls-6" d="M49.79,8.82a.35.35,0,0,0,0,.69A.35.35,0,1,0,49.79,8.82Z"/><polygon class="cls-6" points="50.49 7.83 50.48 7.83 50.48 7.83 50.49 7.83"/><path class="cls-6" d="M51.06,8.82a.5.5,0,0,1,0,.12h.09a.34.34,0,0,0,.35-.37,1.56,1.56,0,0,0-.44-.84c-.21-.32-1-.74-1.23-.34l.23.09.12.07.12.1.07.08.09.09h0a1.07,1.07,0,0,1,.16.14,1.43,1.43,0,0,1,.14.2l.07.13a2.29,2.29,0,0,1,.1.23A1.43,1.43,0,0,1,51.06,8.82Z"/><path class="cls-6" d="M51.37,10.88s0,0,0,0h0s0,0,.06,0a.12.12,0,0,1,0,.08c0,.12,0,.24,0,.36a.83.83,0,0,1,0,.15,1.09,1.09,0,0,1,0,.17.78.78,0,0,1,0,.14.8.8,0,0,1-.08.16,1,1,0,0,1-.15.21l-.08.07-.08,0h0a.33.33,0,0,0,.1.34.31.31,0,0,0,.21.08c.5,0,.93-1.3.79-1.67A.34.34,0,0,0,51.37,10.88Z"/><path class="cls-6" d="M46.63,11.87c0,.32-.07.65-.05,1a.23.23,0,0,0,.06.12l0,0,.15-.25h0a1.89,1.89,0,0,0,.09-.21.69.69,0,0,0,.05-.13.68.68,0,0,0,0-.14c0-.07,0-.13,0-.2s0-.09,0-.13a1.23,1.23,0,0,0,0-.19h0a.56.56,0,0,0,0-.12,2.44,2.44,0,0,0-.1-.24h0l0-.08-.1-.13-.06-.06-.05,0h0l-.1-.07h0l0,0-.1,0h-.1l-.08,0a.05.05,0,0,1,0,0h0a.32.32,0,0,0,0,.16C46.28,11.32,46.56,11.54,46.63,11.87Z"/><path class="cls-6" d="M48.7,11.9a1.8,1.8,0,0,1-.19-.2,1.92,1.92,0,0,1-.18-.22,2.54,2.54,0,0,1-.16-.28,1.83,1.83,0,0,1-.08-.25A2.27,2.27,0,0,1,48,10.7a1.06,1.06,0,0,1,0-.25,1.48,1.48,0,0,1,0-.21.33.33,0,0,0-.36.31,2,2,0,0,0,.67,1.59.32.32,0,0,0,.19.07.34.34,0,0,0,.3-.21l0,0A.39.39,0,0,1,48.7,11.9Z"/><path d="M48.3,10.57l0,.14v0Z"/><path class="cls-4" d="M44.06,3.91C43.71,2,41.42,1.85,39.85,1.83A45.51,45.51,0,0,0,33.19,3c-1.21.27-2.45.49-3.68.69a9.49,9.49,0,0,1-5.1-.08h0a.35.35,0,0,0-.36.45s-.08.78-.15,1.12a7.43,7.43,0,0,1-.62,1.92,17,17,0,0,0-.85,3.12,14.91,14.91,0,0,0-.11,3.2,9.48,9.48,0,0,0,.15,1.51,3,3,0,0,0,.61,1.26c.71.65,1.78.55,2.67.73a11.33,11.33,0,0,0,2.17.22,20.4,20.4,0,0,0,4.47-.48,22.16,22.16,0,0,0,4.44-1.3A7.19,7.19,0,0,0,38,14.7a.35.35,0,0,0,.07-.48.34.34,0,0,0-.47-.07c-.08,0-.18.1-.26.16a.31.31,0,0,0,0-.1,1,1,0,0,0,0-.18.29.29,0,0,0,0-.13,2.58,2.58,0,0,0-.53-1.12h0c0-.24,0-.47,0-.7a7.63,7.63,0,0,1,.14-1.17A5.13,5.13,0,0,0,37,10c.27,0,.51-.19.74-.31a2.73,2.73,0,0,1,.8-.18,4.87,4.87,0,0,1,1.51.17,2.44,2.44,0,0,0,1.25.16.29.29,0,0,0-.08.21v.25a2.16,2.16,0,0,0,0,.36.34.34,0,0,0,.08.17v0s0,.05,0,.08h0l0,.16a6.8,6.8,0,0,0,.15,1.19.25.25,0,0,0,.23.2.31.31,0,0,0,.21,0,.26.26,0,0,0,.21,0c-.21.16-.54.25-.44.58.32.61,1-.17,1.29-.44s.65-.61.21-.86l.09.08a.34.34,0,0,0-.56.09s0,0,0,0a.73.73,0,0,0,0-.58,2.23,2.23,0,0,0-.09-.63,12,12,0,0,1,.18-2.31.31.31,0,0,0-.22-.35c0-.08.08-.16.13-.24a13.35,13.35,0,0,0,1.31-2.37A2.18,2.18,0,0,0,44,4.92,2.64,2.64,0,0,0,44.06,3.91Zm-.69.8A2.23,2.23,0,0,1,43,5.93a12.65,12.65,0,0,1-1.08,1.84c-.22.42-.38.85-.58,1.27-.36.42-1-.08-1.47-.09a3.75,3.75,0,0,0-2.54.19,12.47,12.47,0,0,1,.5-1.91c.2-.73.92-1.58.37-2.31a.34.34,0,0,0-.54.4.36.36,0,0,1,0,.36c-.17.49-.4,1-.56,1.46a9.07,9.07,0,0,0-.4,1.53c0,.2-.11.45-.14.69a.3.3,0,0,0-.21.5c.09.1,0,.38-.07.5s0,.22-.07.33c0-.18,0-.37,0-.55a.31.31,0,0,0-.05-.17V9.9c0-.32-.51-.41-.58-.08s-.09.39-.13.59a.22.22,0,0,0-.21.2c0,.25-.09.5-.13.74,0-.16-.06-.33-.08-.49a.3.3,0,0,0-.28-.22c-.42,0-.53.38-.58.73a.27.27,0,0,0-.47.12,1.88,1.88,0,0,0-.06.31.28.28,0,0,0-.15.17c-.06.23-.11.46-.16.69a3,3,0,0,0-.17-.41c-.14-.28-.51-.12-.54.15l0,.22a.27.27,0,0,0-.06.21c0,.1,0,.2,0,.31s0,.3,0,.45a2.85,2.85,0,0,0-.11-.39.33.33,0,0,0-.36-.19.29.29,0,0,0-.56.1h0a1.15,1.15,0,0,0-.06-.17.26.26,0,0,0-.41-.07.3.3,0,0,0-.5.21c0,.17,0,.33.05.5a5,5,0,0,1,0,1c0-.08-.07-.16-.11-.25a4.84,4.84,0,0,0-.17-1.73.29.29,0,0,0-.57.07.3.3,0,0,0-.27.2c-.06-.13-.1-.26-.16-.4a.23.23,0,0,0-.18-.13L28.94,12c-.16-.28-.51-.12-.55.15s-.05.6-.05.9c0-.14-.07-.29-.11-.43a.3.3,0,0,0-.57.15l.07.31a.3.3,0,0,0-.53.17,4.73,4.73,0,0,0,0,.53,4.16,4.16,0,0,0-.44-.8.31.31,0,0,0-.4-.1,12.79,12.79,0,0,0-.54-1.46c-.11-.24-.47-.15-.53.07a.29.29,0,0,0-.54,0,.3.3,0,0,0-.48,0,.25.25,0,0,0-.38.17c0,.1,0,.2,0,.29-.16-.1-.39-.08-.43.15,0,0,0,.06,0,.08h0c0,.2-.05.4-.08.59a8.16,8.16,0,0,1,.34-2.12c.09-.31-.4-.54-.54-.23a.64.64,0,0,1,0,.07h0v0L23,11a12.92,12.92,0,0,1,.38-2c.31-1.5,1.16-2.83,1.3-4.37a1.7,1.7,0,0,0,0-.22c2.24.68,5.23-.15,7.44-.5a72.34,72.34,0,0,1,7.42-1.4c1.07,0,3,0,3.66,1A1.64,1.64,0,0,1,43.37,4.71Z"/><path class="cls-4" d="M22.21,13.23l-.06-1a11.71,11.71,0,0,0,.27-2.58.29.29,0,0,0-.07-.19c0-.13,0-.26,0-.38.05-.36-.46-.53-.56-.16s-.15.59-.23.88c0,0,0,0-.05,0a.29.29,0,0,0-.51.09l-.19.55a.25.25,0,0,0-.36.11c-.1.18-.19.37-.28.55-.14-.15-.45-.16-.5.1,0,.11,0,.22-.07.33a.27.27,0,0,0-.09.12,1.92,1.92,0,0,0-.09.32l-.06,0a.29.29,0,0,0-.54.14,2.16,2.16,0,0,1,0,.36.27.27,0,0,0-.41.15h0a.29.29,0,0,0-.54-.14,1.27,1.27,0,0,1-.1.12.24.24,0,0,0-.13-.15.27.27,0,0,0-.42-.24,1.74,1.74,0,0,0-.36.3h-.06c-.25,0-.34.27-.36.49a.28.28,0,0,0,.41.25.26.26,0,0,0,.27.11l.05,0a.59.59,0,0,0,.46.14h0a.21.21,0,0,0,.06.1h0a.25.25,0,0,0,.1.29.3.3,0,0,0,.56,0l0,0a.3.3,0,0,0,.44,0v.16a.27.27,0,0,0,.32.28.3.3,0,0,0,.45,0,.23.23,0,0,0,.18-.06,1.83,1.83,0,0,0,.06.25.28.28,0,0,0,.49.1.3.3,0,0,0,.45-.14l0,.22a.28.28,0,0,0,.42.16.44.44,0,0,0,.41.22.35.35,0,0,0,.23-.12.3.3,0,0,0,.44-.25,3.53,3.53,0,0,0-.17-1.51Z"/><path class="cls-3" d="M36.49,14.26a4.09,4.09,0,0,1,.49-.18"/><path class="cls-3" d="M36.74,14.69h0l-.12.05a4.28,4.28,0,0,1,.46-.17.56.56,0,0,0,.17-.09.44.44,0,0,0,.13-.14.6.6,0,0,0,.06-.19.46.46,0,0,0,0-.2l-.05-.12a.58.58,0,0,0-.18-.17l-.12-.06a.62.62,0,0,0-.27,0q-.3.11-.6.24a.37.37,0,0,0-.15.13.34.34,0,0,0-.08.17.27.27,0,0,0,0,.2.3.3,0,0,0,.06.18l.07.1a.46.46,0,0,0,.22.13l.14,0a.45.45,0,0,0,.25-.07Z"/><path class="cls-3" d="M34.78,14.81a1.68,1.68,0,0,0-.67.37"/><path class="cls-3" d="M34.64,14.33a2.36,2.36,0,0,0-.89.49.52.52,0,0,0-.14.36.31.31,0,0,0,0,.19.39.39,0,0,0,.1.16.5.5,0,0,0,.71,0l.1-.09-.1.08a1.57,1.57,0,0,1,.33-.19l-.11.05.23-.09a.28.28,0,0,0,.17-.09.35.35,0,0,0,.13-.14.32.32,0,0,0,.06-.18.44.44,0,0,0,0-.2.5.5,0,0,0-.23-.3.48.48,0,0,0-.39-.05Z"/><path class="cls-3" d="M31.3,15.79c.27,0,.64-.13.85,0"/><path class="cls-3" d="M31.3,16.29l.45-.07-.13,0a1.45,1.45,0,0,1,.36,0l-.13,0,.12,0-.12,0,0,0a.56.56,0,0,0,.38.05.47.47,0,0,0,.3-.23.53.53,0,0,0,.05-.39.48.48,0,0,0-.23-.29,1.75,1.75,0,0,0-1.15-.07h.05a.34.34,0,0,0-.2,0,.39.39,0,0,0-.16.1.52.52,0,0,0-.14.36.46.46,0,0,0,.14.35.49.49,0,0,0,.36.15Z"/><path class="cls-2" d="M16.15,5.57a4,4,0,0,1,2.63.55,7.3,7.3,0,0,1,2.11,2.63,2.47,2.47,0,0,1,0,.57,11.63,11.63,0,0,1-2.16,2.2,28.69,28.69,0,0,0-2.56,1.91l1.22.82s-1.34,2-2.11,1.94-1.67-1.59-1.67-1.59-1.84.19-2.27-.43a14.49,14.49,0,0,1-1.07-2.28s-.59,1-.82,1a.62.62,0,0,1-.35-.14s-.43.56-.65.49A1.64,1.64,0,0,1,8.07,13a.33.33,0,0,1-.39.15,1.26,1.26,0,0,1-.46-.35s-.63.29-.84,0,.12-1,.12-1a1.17,1.17,0,0,1-.19-.82,1.3,1.3,0,0,1,.26-.52s-.56,0-.57-.4a3,3,0,0,1,.36-1s-.52-.19-.5-.6a1.23,1.23,0,0,1,.38-.74A.53.53,0,0,1,6.07,7c.3-.43,2.26-2.66,2.64-2.62s1.73.38,2,.87.71,1.64,1.14,1.86a5.44,5.44,0,0,1,1.06,1,7.54,7.54,0,0,1,1.5-1.72C15,6.05,16.15,5.57,16.15,5.57Z"/><polygon points="8.19 5.07 8.2 5.06 8.2 5.06 8.19 5.07"/><path d="M12,9.74Z"/><path class="cls-5" d="M20.92,9.78c.61-.23.13-1.36-.06-1.74a4.52,4.52,0,0,0-4.17-2.88,3.64,3.64,0,0,0-.57,0,5,5,0,0,0-2.59,1.58,7.93,7.93,0,0,0-.67.86l-.06-.09c-.38-.57-1.1-.86-1.38-1.48a3.18,3.18,0,0,0-.88-1.36A3.21,3.21,0,0,0,9,4.07a.86.86,0,0,0-.17,0,1.42,1.42,0,0,0-.42.1A3,3,0,0,0,7.24,5.38c-.37.52-.85,1-1.19,1.51a.79.79,0,0,0-.14.72v0c.11.23-.21.54-.22.8s.49.52.37.89a1.58,1.58,0,0,1-.13.26.92.92,0,0,0-.14.62c0,.27.23.38.45.49a.87.87,0,0,0-.17.73c.14.51-.35,1,.07,1.48a.79.79,0,0,0,.78.23.55.55,0,0,1,.38,0c.17.05.18.16.39.22a.9.9,0,0,0,.36-.08c.24-.11.36.19.63,0A3.87,3.87,0,0,0,9,13.07c.15-.11.15-.05.33,0s.3-.16.38-.23.22-.38.36-.24a.26.26,0,0,1,.05.12,2.85,2.85,0,0,0,1.1,1.72,2.62,2.62,0,0,0,1,.39c.1,0,1,0,1,0a.08.08,0,0,0,0,0,4.24,4.24,0,0,0,1.25,1.28c1.31.86,2.57-.76,3.48-1.54l-.59-.36c-.41.24-.46.45-.83.76a2.68,2.68,0,0,1-1.23.72,1.2,1.2,0,0,1-.76-.39c-.07-.05-.61-.63-.62-.63.18-.06.38-.11.56-.18l1.86-1c.75-.51,1.5-1.06,2.25-1.56a7.73,7.73,0,0,0,1.17-1A6.39,6.39,0,0,0,20.64,10a.52.52,0,0,1,.1-.11h0A.44.44,0,0,1,20.92,9.78ZM6.6,12.31c0-.09.07-.17.11-.26s.17-.13.29-.17a3.68,3.68,0,0,0,.57-.26,1.74,1.74,0,0,0,.5-.35c.19-.21.34-.45.52-.66A9.84,9.84,0,0,0,9.46,10a1.53,1.53,0,0,0,.07.29l.06.26c.05.19.09.39.14.59l.09.34a1.29,1.29,0,0,1,.08.26.54.54,0,0,1,0,.22,6.32,6.32,0,0,1-.22.61.29.29,0,0,1-.08.13.2.2,0,0,1-.13.06.36.36,0,0,1-.28-.07c-.08-.06-.08-.1-.15,0a1.83,1.83,0,0,1-.13.16.84.84,0,0,1-.34.25.56.56,0,0,1-.18,0c-.15,0-.21-.2-.28-.32s-.15.2-.17.22a.25.25,0,0,1-.23,0,.22.22,0,0,1-.15-.16c0-.09,0-.19,0-.28s-.14-.06-.2,0l-.16.12a.61.61,0,0,1-.34.1.26.26,0,0,1-.21-.16A.55.55,0,0,1,6.6,12.31Zm2-2.28ZM7,10.35ZM6,7Zm13.82.56A3.9,3.9,0,0,1,20.46,9c-.26.17-.38.7-.58.91a8.33,8.33,0,0,1-1.72,1.58c-.66.45-1.33.89-2,1.37s-1.38.72-2.07,1.07a2.58,2.58,0,0,1-2.89-.47,4,4,0,0,1-.58-1.54c-.35-1.11-.49-2.28-.89-3.37a.37.37,0,0,0-.36-.26.32.32,0,0,0-.3.17.49.49,0,0,0,.07.45.36.36,0,0,1,0,.09.5.5,0,0,1,0,.13.51.51,0,0,1-.09.4,1.48,1.48,0,0,1-.33.28l-.49.36a2.44,2.44,0,0,0-.43.35c-.18.19-.32.43-.49.64a1.58,1.58,0,0,1-.31.27.51.51,0,0,1-.34.08.3.3,0,0,1-.24-.22A.48.48,0,0,1,6.64,11l.25-.38c0-.07.19-.21.11-.3a.19.19,0,0,0-.1,0,.57.57,0,0,0-.18,0,2.09,2.09,0,0,1-.25,0,.38.38,0,0,1-.26-.14.33.33,0,0,1,0-.37,2.09,2.09,0,0,1,.42-.52A.41.41,0,0,0,6.74,9c0-.14-.15-.19-.26-.2a.75.75,0,0,1-.26,0A.34.34,0,0,1,6,8.38.57.57,0,0,1,6.23,8a1.24,1.24,0,0,1,.23-.17.27.27,0,0,0,.13-.07.11.11,0,0,0,0-.11.14.14,0,0,0-.08,0h-.1a.31.31,0,0,1-.27-.17.39.39,0,0,1,.06-.39,2.45,2.45,0,0,1,.36-.36l.36-.4c.21-.21.44-.4.65-.61a3.58,3.58,0,0,1,1.06-.92,1,1,0,0,1,.71,0,3.76,3.76,0,0,1,.5.31,1.76,1.76,0,0,1,.79.89,2.43,2.43,0,0,0,.85,1.26,2.65,2.65,0,0,1,.77.76c.07.1.23.23.18.37l-.33.93a1.14,1.14,0,0,0-.09.3c0,.15,0,.34.17.31s.3-.3.39-.5a5.51,5.51,0,0,1,.4-.76c.15-.22.31-.42.46-.63a5.26,5.26,0,0,1,.43-.59,4.59,4.59,0,0,1,1.08-1,3.26,3.26,0,0,1,1.28-.55A4.24,4.24,0,0,1,17.57,6,3.6,3.6,0,0,1,19.82,7.54Z"/><path d="M12.05,9.48h0Z"/><polygon points="5.86 7.45 5.86 7.45 5.86 7.45 5.86 7.45"/><path d="M5.71,8.61h0Z"/><path d="M5.7,8.54Z"/><path d="M5.74,8.22Z"/><polygon points="5.86 7.45 5.86 7.45 5.86 7.45 5.86 7.45"/><polygon points="5.99 7 5.99 7 5.99 7 5.99 7"/><path d="M5.71,8.59h0Z"/><polygon points="6.74 8.92 6.73 8.92 6.73 8.92 6.74 8.92"/><polygon points="6.74 8.93 6.74 8.93 6.74 8.94 6.74 8.93"/><polygon points="6.34 6.49 6.34 6.49 6.33 6.5 6.34 6.49 6.34 6.49 6.34 6.49 6.34 6.49"/><path d="M5.79,10.11h0Z"/><polygon points="6.34 6.49 6.34 6.49 6.34 6.49 6.34 6.49"/><path d="M6.45,8.54Z"/><polygon points="6.06 12.79 6.06 12.79 6.06 12.79 6.06 12.79"/><polygon points="6.05 12.78 6.06 12.78 6.06 12.79 6.05 12.78 6.05 12.78"/></g></g></svg>