<svg xmlns="http://www.w3.org/2000/svg" viewBox="0 0 21.19 28.48"><defs><style>.cls-1{fill:#eb5d45;}.cls-2{fill:#e9a061;}.cls-3{fill:#b27e4c;}.cls-4{fill:#e52823;}</style></defs><g id="Layer_2" data-name="Layer 2"><g id="Card"><path class="cls-1" d="M15.83,13.62a4.77,4.77,0,0,0,3-1.3c1-1,2.44-3.52,2.16-5.45a8.08,8.08,0,0,0-8-6.58c-5.54.06-9,2.1-10.16,3.17S.26,6.77.27,8.07s1.48,3.6,2,4.56A6.91,6.91,0,0,0,3.6,14.22l.46-2.41.35-1A3.9,3.9,0,0,1,3.05,9.45a2.79,2.79,0,0,1,.62-3.79A15,15,0,0,1,9.67,3c2-.26,5.41-.07,6.3.8s2.48,2.26,2.44,4a3.56,3.56,0,0,1-2.58,3.28Z"/><path class="cls-2" d="M15.64,28.41l-1.16-5.59a5.67,5.67,0,0,0,1.35-2.22,43.37,43.37,0,0,0,0-7c-.26-2-.13-4.26-.48-5.17S15,7,14.48,7a2.07,2.07,0,0,1-1-.29s-1-3-2.06-2.86S10.26,4.33,10.26,5A10.9,10.9,0,0,1,10,6.77S9.63,5.4,8.73,5.51s-1.64,3-1.64,3S6.73,7,5.78,7.23s-1.39,1.53-1.72,3a65.32,65.32,0,0,0-.7,10.17c.23,1,1.43,2.34,1.43,3S4,28.18,4,28.18Z"/><path class="cls-3" d="M15.69,21.47a7,7,0,0,0,.55-3.07A43.06,43.06,0,0,0,16,12c-.11-1.64-.07-5-2-5.53a.75.75,0,0,0-.47,0c-.06-.23-.12-.47-.2-.7-.17-1.11-.94-2.48-2.24-2.32C10.1,3.75,9.82,5.11,9.78,6,9.3,4.57,8,5.1,7.45,6.14a7.77,7.77,0,0,0-.53,1.49A1.22,1.22,0,0,0,6.27,7C5,6.47,4.37,8.2,4.16,9.12a27.51,27.51,0,0,0-.88,6,21,21,0,0,0-.21,3.37A13.28,13.28,0,0,0,3.22,21a13.44,13.44,0,0,0,1.11,2.33.7.7,0,0,1,.08.23,1,1,0,0,1,0,.25c-.18,1-.31,2-.46,3a6.65,6.65,0,0,0-.19,1.1.34.34,0,0,0,.68,0c.06-.84.27-1.71.4-2.55A4.77,4.77,0,0,0,5,23a3.6,3.6,0,0,0-.37-.7A4.42,4.42,0,0,1,3.76,20a39.42,39.42,0,0,1,.32-6.61c.15-1.1.33-2.19.55-3.27a6.73,6.73,0,0,1,.56-1.87c.14-.27.46-.86.84-.69.55.25.44,1.56.48,2a27.67,27.67,0,0,1,0,3.41c0,.39-.24,1.31.38,1.29s.33-2,.32-2.38A17.82,17.82,0,0,1,7.54,8,3.71,3.71,0,0,1,8.23,6.2c.51-.5.69-.59.95.16a8.22,8.22,0,0,1,.4,3c0,1,0,2,0,3,0,.23,0,.5.21.59a.34.34,0,0,0,.46-.27c0-.27,0-.55,0-.83.19-2.16.06-4.3.28-6.46.12-.43.26-1,.68-1.23a1.2,1.2,0,0,1,1.09.7A11.26,11.26,0,0,1,13,7a13.76,13.76,0,0,1,.18,2.5,30.66,30.66,0,0,1,0,3.18c0,.35-.25,1.19.2,1.31s.47-.23.44-.51c0-.63.07-1.25.08-1.88,0-1.51-.06-3-.2-4.49a.94.94,0,0,1,.85.48c1,1.36.74,3.39.89,5a41.69,41.69,0,0,1,.07,7.24,5,5,0,0,1-1.29,2.68c-.26.67.16,1.35.28,2,.27,1.24.5,2.48.65,3.75a.34.34,0,0,0,.66-.16,37.3,37.3,0,0,0-.69-3.94c-.09-.46-.39-.91-.26-1.4A8.48,8.48,0,0,0,15.69,21.47Z"/><path class="cls-3" d="M5.55,14.68a.34.34,0,0,0-.34.34.34.34,0,0,0,.68,0A.34.34,0,0,0,5.55,14.68Z"/><path class="cls-3" d="M8.39,14.51a.34.34,0,0,0,0,.68.34.34,0,0,0,0-.68Z"/><path class="cls-3" d="M11.41,14.47a.35.35,0,1,0,0,.69.35.35,0,0,0,0-.69Z"/><path class="cls-3" d="M14.31,15.2a.35.35,0,0,0-.34-.34.35.35,0,0,0,0,.69A.35.35,0,0,0,14.31,15.2Z"/><path class="cls-4" d="M3.59,13.9a5.12,5.12,0,0,1-1.17-1.56c-.39-.75-.81-1.48-1.21-2.23A4.78,4.78,0,0,1,.48,7.73a4.45,4.45,0,0,1,.83-2.35C2.91,3,6,1.59,8.71.91A11.39,11.39,0,0,1,17,1.73,6.6,6.6,0,0,1,20.7,7.6a6.47,6.47,0,0,1-1.84,4.23,6.75,6.75,0,0,1-1.35,1c-.26.16-1.12.79-1.43.64s-.55.29-.26.43c.72.35,1.9-.59,2.45-1a6.77,6.77,0,0,0,2.48-3.2,6.56,6.56,0,0,0-2-7.41A10.92,10.92,0,0,0,10.17.12,14.58,14.58,0,0,0,1.45,4.41,4.77,4.77,0,0,0,.29,9.36a28.84,28.84,0,0,0,1.45,2.75,7,7,0,0,0,1.49,2.14c.24.21.6-.14.36-.35Z"/><path class="cls-4" d="M4.2,10.56A5.42,5.42,0,0,1,2.87,8.3,2.6,2.6,0,0,1,4,5.69,11.56,11.56,0,0,1,8.76,3.43c3.23-.75,7.62-.75,9.08,2.86A3.68,3.68,0,0,1,18,9a3.39,3.39,0,0,1-2.28,1.94c-.31.07-.18.56.13.48a3.65,3.65,0,0,0,2.79-4,5.43,5.43,0,0,0-3.21-4.23A10.62,10.62,0,0,0,9.34,2.8,12.48,12.48,0,0,0,3.71,5.27a3.14,3.14,0,0,0-1.38,2.8,5.55,5.55,0,0,0,1.51,2.84c.21.25.56-.11.36-.35Z"/></g></g></svg>