<svg xmlns="http://www.w3.org/2000/svg" viewBox="0 0 38.02 17.68"><defs><style>.cls-1{fill:#f4bdd8;}.cls-2{fill:#e9a061;}.cls-3{fill:#ed88b6;}.cls-4{fill:#b27e4c;}</style></defs><g id="Layer_2" data-name="Layer 2"><g id="Card"><polygon class="cls-1" points="28.02 4.87 38.02 4.94 37.21 11.64 22.91 12.18 0.23 11.81 1.73 6.31 28.02 4.87"/><path class="cls-2" d="M31.9,4.9s0-1.8-1-2.22-3-1.58-4.21-1.52S23,.69,22.08.69,16.16.12,15.31.28,11.8,1.52,11.45,3s-2,4.53-1.23,6.78,2.23,3.88,3.55,3.5,1.21.33,1.21.33,2,2.66,4.05,2.54,3.88-.95,4.62-1,4.1-.24,4.1-.24a29.8,29.8,0,0,0,3.6,1.59,10.65,10.65,0,0,1,2.21,1l.2-5.52-11-.31s-1.08-.3-.67-2.46a3.2,3.2,0,0,1,1.44-2.3s.27,2.05,1.33,2,1.49-.88,2-1.9A10.65,10.65,0,0,1,28.21,5l1.43-.33Z"/><path class="cls-3" d="M10,11.85c-1-.13-2,0-3,0-1.54,0-3.1,0-4.65,0a20.63,20.63,0,0,0-2.08,0,.29.29,0,0,0,.11.57,6,6,0,0,1,1.12,0c1.22.08,2.45,0,3.67,0,1.48.06,3,0,4.45,0a1.78,1.78,0,0,1,.3,0A.29.29,0,0,0,10,11.85Z"/><path class="cls-3" d="M9.7,5.81l-2,.06c-1.36-.07-2.78,0-4.14-.07A11.38,11.38,0,0,1,1.9,5.74a.39.39,0,0,0-.28,0,.31.31,0,0,0,.11.6.3.3,0,0,0,.39.05c.61.06,1.21,0,1.82.06,1.17.07,2.34,0,3.51,0,.57,0,1.19,0,1.78,0a5.62,5.62,0,0,0,.7,0,.3.3,0,0,0,.34-.23C10.32,5.8,10,5.77,9.7,5.81Z"/><path class="cls-3" d="M36.9,11.37c-.52,0-1,0-1.55,0-1.7.11-3.35.12-5.07.07a53.42,53.42,0,0,1-5.8,0c-.58,0-1.18,0-1.75.1a.29.29,0,0,0,.18.55,34.55,34.55,0,0,1,3.67,0c1.25,0,2.49-.1,3.74-.13,1.6,0,3.21,0,4.81-.05.6,0,1.2,0,1.8-.06a.3.3,0,0,0,.28-.31A.29.29,0,0,0,36.9,11.37Z"/><path class="cls-3" d="M37.54,4.67c-1.52,0-3,.1-4.55,0-1.13,0-2.22.07-3.35,0-.09,0-.33.06-.44.06a.6.6,0,0,0-.39.1c-.35.22-.14.4.21.17,1.55,0,3.1.2,4.65.25,1.12.06,2.24,0,3.36,0,.3,0,1,.16,1-.33C38,4.65,37.75,4.64,37.54,4.67Z"/><path class="cls-4" d="M33.44,17.24a.48.48,0,0,0-.19-.16A41.78,41.78,0,0,0,28,14.65a.88.88,0,0,0,.36-.3.3.3,0,0,0-.07-.42c-.18-.11-.39.07-.55.22-.93.84-2.34.71-3.59.79s-2.3.38-3.45.56a7,7,0,0,1-3.46-.14,3.22,3.22,0,0,1-2.19-2.5,2.62,2.62,0,0,0,4.18,0,3.92,3.92,0,0,0,4.76-.1.47.47,0,0,0,.2-.32c0-.19-.25-.29-.43-.24a1.39,1.39,0,0,0-.46.33,2.78,2.78,0,0,1-3.52-.11A4.31,4.31,0,0,1,18.47,9a9.91,9.91,0,0,1,1-3.67.75.75,0,0,0,.09-.43c0-.15-.18-.29-.32-.23a.38.38,0,0,0-.16.17,8.24,8.24,0,0,0-.24,7.69,2.24,2.24,0,0,1-3,.26A4.32,4.32,0,0,1,14.31,10a8.13,8.13,0,0,1,.5-4.57c.08-.2.15-.49-.05-.59s-.39.15-.48.35a8.76,8.76,0,0,0,.38,7.4,2.16,2.16,0,0,1-2.72-.06,4.08,4.08,0,0,1-1.35-2.57,10.55,10.55,0,0,1,1.15-6.48,5,5,0,0,1,1.83-2.24A5,5,0,0,1,15.81.65c2.35-.13,4.69.34,7,.39a10.49,10.49,0,0,1,3.38.38l.3,0c.52.1,1,.25,1.52.38a7.83,7.83,0,0,1,1.15.4,3,3,0,0,1,2.37,2.18L30,4.47c-.31,0-.61,0-.91.09A6.12,6.12,0,0,0,28,4.87c-1.08.56-1.38,2-2.08,3a1.29,1.29,0,0,1-1,.66,1,1,0,0,1-.81-.71,2.28,2.28,0,0,1,0-1.13,6.15,6.15,0,0,1,1.59-3.21l.08-.07h-.06a3.78,3.78,0,0,0-.59.34,7,7,0,0,0-.93.95c-.38.68-.71,1.39-1.11,2.06a12,12,0,0,0-1.34,2.56,2.48,2.48,0,0,0,.65,2.64c.15.12.41.19.51,0s-.06-.33-.18-.46a2.39,2.39,0,0,1-.41-2.15,5.71,5.71,0,0,1,1.11-2A2,2,0,0,0,24.63,9a1.65,1.65,0,0,0,1.65-.65,8.71,8.71,0,0,0,.91-1.64A2.71,2.71,0,0,1,29,5.09c.13,0,.27,0,.41-.06s.54,0,.82-.06L32,4.91a.26.26,0,0,0,.19-.41s0,0,0-.06a3,3,0,0,0-1.2-2,6.32,6.32,0,0,0-2.17-1A47.26,47.26,0,0,0,20.05.24,26,26,0,0,0,16.42,0,6.73,6.73,0,0,0,13,1a6.54,6.54,0,0,0-2.54,3.77,18,18,0,0,0-.54,4.38,4.83,4.83,0,0,0,1.35,3.42,3.39,3.39,0,0,0,3.24.95,4.82,4.82,0,0,0,3.93,2.65,15.52,15.52,0,0,0,4.93-.44,12.09,12.09,0,0,1,4.93-.24c1.76.39,3.27,1.5,4.95,2.16a.39.39,0,0,0,.26,0C33.64,17.59,33.57,17.39,33.44,17.24Z"/></g></g></svg>