<svg xmlns="http://www.w3.org/2000/svg" viewBox="0 0 38.8 55.7"><defs><style>.cls-1{fill:#faed62;}.cls-2{fill:#e52823;}.cls-3{fill:#ffa9e9;}.cls-4{fill:#9f2224;}.cls-5{fill:#f77fde;}.cls-6{fill:#6b1e1e;}</style></defs><g id="Layer_2" data-name="Layer 2"><g id="Card"><path class="cls-1" d="M9.33,35.08a1.17,1.17,0,0,0-1.17.81A1.94,1.94,0,0,0,8.41,38c.63.52,2.17.61,2.59-.23A1.78,1.78,0,0,0,9.33,35.08Z"/><path class="cls-1" d="M33.26,38.84A2.78,2.78,0,0,0,32.59,41,2.16,2.16,0,0,0,34.87,43,2,2,0,0,0,37,41c-.06-.88-.47-2.71-2.16-2.6S33.26,38.84,33.26,38.84Z"/><path class="cls-2" d="M14.66,35a.4.4,0,0,1,.18-.57l.08,0a.45.45,0,0,1,.46-.09,1.26,1.26,0,0,1,.91.47l.1.14a8.47,8.47,0,0,1,2,2.07,9.35,9.35,0,0,1,.82,1,1,1,0,0,1,.72-.16l.06,0a8.22,8.22,0,0,1,4.31-2.91.47.47,0,0,1,.36.85l-.62.4a.42.42,0,0,1,.25.64c0,.07-.06.13-.08.19a1.7,1.7,0,0,1,0,.22h0a.53.53,0,0,1,.11.14c.32.61.52,1.53-.27,1.89a1.73,1.73,0,0,1-.85.08c-.24.24-.46.48-.69.73v0a3.41,3.41,0,0,1,1.13,2,1.27,1.27,0,0,1-1.28,1.53,2.26,2.26,0,0,1-1.76-1.25,4.49,4.49,0,0,1-.59-1.59h0a2.75,2.75,0,0,1-.05.57l-.07.57v0l0,.13a.47.47,0,0,1-.8.33.65.65,0,0,1-.08-.81c0-.19.06-.39.08-.58a1.7,1.7,0,0,0,0-.22v-.05a.21.21,0,0,1,0-.06h0a.46.46,0,0,1-.3-.07.61.61,0,0,1-.05.12,1.12,1.12,0,0,1-.42.77.55.55,0,0,1-.09.14.49.49,0,0,1-.07.54c-.7.75-2.39,1.36-3,.16a1.25,1.25,0,0,1,0-1,2.73,2.73,0,0,1,1-1.38h0a3,3,0,0,1-.34-.55h0A1.7,1.7,0,0,1,14.72,38a2.47,2.47,0,0,1,0-.9s0,0,0,0A1.69,1.69,0,0,1,14.91,36a2.73,2.73,0,0,0,.15-.3A.78.78,0,0,1,14.66,35Z"/><path class="cls-2" d="M.44,41.94c-.11-.25-.06-.64.28-.69a2.24,2.24,0,0,1,1.84.81l1.57,1.37c.18.13.37.24.57.36a.33.33,0,0,1,.1-.14.49.49,0,0,1,0-.11A.43.43,0,0,1,5,43.19l1-1.08A.4.4,0,0,1,6.3,42a3.74,3.74,0,0,1,1.32-1.33.47.47,0,0,1,.69.28.89.89,0,0,1-.09.62c-.07.13-.17.23-.24.35a.86.86,0,0,0,0,.69,2.81,2.81,0,0,1,.08,1,1.57,1.57,0,0,1-.29.69.8.8,0,0,1-.22.29v0h0l-.09.08a.35.35,0,0,1-.14.06,1.51,1.51,0,0,1-.23.63l0,0,.06.07.06.06A2.94,2.94,0,0,1,8,46.67,1.25,1.25,0,0,1,7.6,48.1a.75.75,0,0,1-.75.08.49.49,0,0,1-.47,0,2.26,2.26,0,0,1-.93-1,.53.53,0,0,1-.47.11.55.55,0,0,1-.18,0,.46.46,0,0,1-.41-.46h0a.66.66,0,0,1-.3.12l0,0a1.76,1.76,0,0,1-.48,1.47,1.13,1.13,0,0,1-1.41.25,1.31,1.31,0,0,1-.56-1.2,2.24,2.24,0,0,1,.63-1.25A2.63,2.63,0,0,1,.87,44.76a5.43,5.43,0,0,1-.08-1.34A4.39,4.39,0,0,0,.44,41.94Z"/><path class="cls-2" d="M26.51,44.83l.07.1h0a4.22,4.22,0,0,1,.27.36,8.59,8.59,0,0,1,2.25,1.91.47.47,0,0,1,.11.28,4.27,4.27,0,0,1,.3.44,14.26,14.26,0,0,1,1.1-1.57,12.54,12.54,0,0,1,.84-1c.33-.34.74-.83,1.23-.42a.48.48,0,0,1,.07.57,1.07,1.07,0,0,0-.07.75,10.37,10.37,0,0,1,.15,1.1s0,.06,0,.09h0a1.23,1.23,0,0,1-.09,1.06v0a.71.71,0,0,1-.81.57,4.11,4.11,0,0,1-.21.42h0a.46.46,0,0,1-.11.42,2.34,2.34,0,0,1,.25.39l0,0a3,3,0,0,1,1,1.34.85.85,0,0,1-.21,1,1.91,1.91,0,0,1-1,.38c-.71.06-1.09-.51-1.25-1.11a8.54,8.54,0,0,0-.27-.9.45.45,0,0,1-.69.38.41.41,0,0,1-.26-.22.34.34,0,0,1-.08-.09,1.85,1.85,0,0,1-.27.72.57.57,0,0,1,0,.14.75.75,0,0,1-.4.78,1.12,1.12,0,0,1-1.39-.28A1.66,1.66,0,0,1,27,50.9a7.16,7.16,0,0,0,.56-1.08s0-.1,0-.15a.53.53,0,0,1-.11-.47l0,0a.64.64,0,0,1-.47-.07.76.76,0,0,1-.26-.3h0c-.7-.07-.74-.92-.4-1.37.08-.12.19-.22.19-.38a1,1,0,0,0-.18-.47,4,4,0,0,1-.49-1,.41.41,0,0,1,0-.19v0C25.57,45,26.15,44.39,26.51,44.83Z"/><path class="cls-3" d="M21,49.47a1.69,1.69,0,0,1,.5-.84c.26-.27.22-.5.16-.85a1.57,1.57,0,0,1,0-1.07c.28-.47.78-.36,1.21-.1a4.33,4.33,0,0,1,.52-1l.09-.1a.88.88,0,0,0,.05-.15.48.48,0,0,1,.79-.21.92.92,0,0,1,.25.7.35.35,0,0,1-.06.35s-.09.09,0,.14.28,0,.4-.06c.33-.15.71-.25,1,.1a1,1,0,0,1-.1,1,.87.87,0,0,1-.19.23,1,1,0,0,1,.1.31.44.44,0,0,1,.17.16,1.24,1.24,0,0,1,.19.58,1.25,1.25,0,0,1,.24.36.81.81,0,0,1,0,.85.62.62,0,0,1-.64.21.77.77,0,0,1-.37,0h-.06a.46.46,0,0,1,0,.1c0,.13.08.26.11.39a1.26,1.26,0,0,1,0,.64.87.87,0,0,1-1,.68.91.91,0,0,1-.5-.34l-.11-.17a.53.53,0,0,1,0,.12,1.34,1.34,0,0,1-.29.52.89.89,0,0,1-1.12.15A1.25,1.25,0,0,1,21.94,51a4.35,4.35,0,0,1,.06-.52.84.84,0,0,1-.76-.15A.88.88,0,0,1,21,49.47Z"/><path class="cls-3" d="M10.31,52l0,0h0s0-.07.07-.1a.42.42,0,0,1,.32-.13,1.67,1.67,0,0,1-.31-.66,1.28,1.28,0,0,1,.52-1.31,1,1,0,0,1,1.35.27,1.53,1.53,0,0,1,.17-.55.76.76,0,0,1,.8-.38.68.68,0,0,1,.79.64.6.6,0,0,1-.21.48v0l0,0a.73.73,0,0,1,.08.09.85.85,0,0,1,.51-.35A.92.92,0,0,1,15,50a1.51,1.51,0,0,1,.37,0,.73.73,0,0,1,.53.37.78.78,0,0,1-.08.75,1.34,1.34,0,0,1-.57.56l-.12.14,0,0-.05.06.16.09a1.41,1.41,0,0,1,.5.33.78.78,0,0,1-.1,1.2,1.09,1.09,0,0,1-.58.17c-.13,0-.36-.07-.46,0s-.07.11-.05.19a2.13,2.13,0,0,1,.17.61.79.79,0,0,1-.91.83,1.09,1.09,0,0,1-.57-.47l-.06-.07a1.14,1.14,0,0,1-1.12.4,1,1,0,0,1-.62-1.58l0-.07a.5.5,0,0,1-.66.19A1.23,1.23,0,0,1,10.31,52Z"/><path class="cls-1" d="M21.51,37.91a.87.87,0,0,1,.37-.47l.16-.07.08,0a.71.71,0,0,1,.25,0h.13a.63.63,0,0,1,.19,0,.87.87,0,0,1,.49.39.89.89,0,0,1,.1.62.61.61,0,0,1-.05.12.67.67,0,0,1-.06.12.83.83,0,0,1-.27.26.94.94,0,0,1-.32.11h-.13a1.2,1.2,0,0,1-.2,0h0a1.12,1.12,0,0,1-.26-.08.44.44,0,0,1-.15-.12l0,0,0,0-.05,0,0,0-.09-.12a1.08,1.08,0,0,1-.08-.19,1.23,1.23,0,0,1,0-.19A.76.76,0,0,1,21.51,37.91Z"/><path class="cls-1" d="M21.06,41.67a.87.87,0,0,1,.22-.35.67.67,0,0,1,.35-.19.75.75,0,0,1,.42,0,.82.82,0,0,1,.57.56.78.78,0,0,1,0,.43.74.74,0,0,1-.19.36.72.72,0,0,1-.35.22.81.81,0,0,1-.41,0l-.06,0-.14-.07a.6.6,0,0,1-.13-.09s0,0,0,0l0,0-.05,0a.74.74,0,0,1-.19-.36A.72.72,0,0,1,21.06,41.67Z"/><path class="cls-1" d="M6.09,43.43a.61.61,0,0,1,0-.12v0h0l.08-.1,0,0h0l.1-.08h0l.12,0h0l.15,0h.2l.12,0,0,0,.06,0,.06,0,0,0a.76.76,0,0,1,.08.11h0a.59.59,0,0,1,0,.08.32.32,0,0,1,0,.09h0c0,.05,0,.09,0,.14v0a.68.68,0,0,1,0,.14h0a.43.43,0,0,1,0,.12v0l0,.07-.05.06h0l-.1.08H7a.75.75,0,0,1-.13.06h0l-.13,0h0l-.13,0h0l-.14,0s0,0,0,0l-.11-.08h0L6.15,44l0,0s0-.08,0-.12h0v0s0-.09,0-.13a.06.06,0,0,1,0,0A.58.58,0,0,1,6.09,43.43Z"/><path class="cls-1" d="M6.41,46.82s0-.09,0-.13v0h0a.61.61,0,0,1,.05-.12v0l.09-.11h0a.34.34,0,0,1,.09-.08h0l0,0h0l.13,0a.36.36,0,0,1,.14,0h.17l.14,0,.11.09h0l.07.1h0a.54.54,0,0,1,0,.11s0,0,0,0v0h0v0l0,.12h0l0,.12-.05.11a.63.63,0,0,1-.08.11h0l0,0,0,.05h0a.34.34,0,0,1-.12.09l-.06,0-.06,0h0l-.13,0H7l-.15,0h0l-.13-.05h0l-.05,0,0,0h0l-.08-.1h0v0L6.43,47h0v0a.77.77,0,0,0,0-.15S6.4,46.82,6.41,46.82Z"/><path class="cls-1" d="M30.82,47.63a.3.3,0,0,1,.07-.15.58.58,0,0,1,.22-.22.72.72,0,0,1,.32-.08h.14a.39.39,0,0,1,.23.07.41.41,0,0,1,.13.1.73.73,0,0,1,.1.13.69.69,0,0,1,.08.32v0a.51.51,0,0,1,0,.17.61.61,0,0,1-.16.28.53.53,0,0,1-.12.1.34.34,0,0,1-.15.07.51.51,0,0,1-.17,0h-.17a.76.76,0,0,1-.16-.06L31,48.3l0,0a.5.5,0,0,1-.1-.14,1,1,0,0,1-.07-.15,1,1,0,0,1,0-.17A.47.47,0,0,1,30.82,47.63Z"/><path class="cls-1" d="M31.16,51.42v0a.61.61,0,0,1,0-.12h0a.44.44,0,0,1,.08-.11l.05,0,0,0h0l.11-.05h.22a.58.58,0,0,1,.19.06l.11.08h0s.06.08.08.11a.61.61,0,0,1,0,.12h0a0,0,0,0,1,0,0,.35.35,0,0,1,0,.14.39.39,0,0,1,0,.18.05.05,0,0,0,0,0l0,.06h0A.26.26,0,0,1,32,52a.42.42,0,0,1-.16.09h0l-.14,0h0a.47.47,0,0,1-.26-.08L31.32,52h0l-.08-.1v0a.5.5,0,0,1,0-.13h0a.78.78,0,0,1,0-.14C31.14,51.51,31.16,51.45,31.16,51.42Z"/><path class="cls-4" d="M1.26,41.4a2.67,2.67,0,0,1,.32,1.67,3.28,3.28,0,0,0,0,.83,1.17,1.17,0,0,0,.45.64,2,2,0,0,1,.84,1.59c0,.36-.11.71-.15,1.06a1.14,1.14,0,0,0,0,.6.39.39,0,0,1,.36.22l.09.16c.19.33-.13.84-.53.69a1.53,1.53,0,0,1-.91-1.68A9.88,9.88,0,0,0,2,46.07a1,1,0,0,0-.5-.8,2.19,2.19,0,0,1-.83-1.62c0-.58.16-1.27-.19-1.78S.91,40.91,1.26,41.4Z"/><path class="cls-4" d="M15.13,34.22A2,2,0,0,1,16,36.28c-.07.45-.3.88-.34,1.33s.36.71.71,1a1.33,1.33,0,0,1,.48,1.09,1.74,1.74,0,0,1-.57.93,1.1,1.1,0,0,0,.16,1.64.47.47,0,0,1-.36.86A1.88,1.88,0,0,1,14.76,41a.39.39,0,0,1,.45-.33,1.26,1.26,0,0,1,.13-.26c.14-.24.69-.61.56-.88s-.68-.54-.9-.87a1.71,1.71,0,0,1-.23-1.21c.1-.8.76-1.79-.11-2.39C14.16,34.69,14.63,33.88,15.13,34.22Z"/><path class="cls-4" d="M25.87,45.78c-.47-.36,0-1.17.47-.81a2.17,2.17,0,0,1,.44,2.71c.31.33.62.67.91,1A1.22,1.22,0,0,1,28,49.93a4.38,4.38,0,0,0-.46,1.42,1,1,0,0,0,.56,1c.56.21.32,1.12-.25.9a2,2,0,0,1-1.2-2.34,3.72,3.72,0,0,1,.25-.8c.09-.2.3-.45.18-.67a3.12,3.12,0,0,0-.51-.58l-.67-.73a.49.49,0,0,1-.12-.46C26,47.17,26.44,46.21,25.87,45.78Z"/><path class="cls-1" d="M15.79,37.47a.05.05,0,0,0,0,0,1,1,0,0,1,.17-.3.51.51,0,0,1,.21-.15s0,0,0,0a.51.51,0,0,1,.45-.06h0a.49.49,0,0,1,.21,0,1,1,0,0,1,.52.4.85.85,0,0,1,.13.54,1,1,0,0,1-.1.37.81.81,0,0,1-.17.23.86.86,0,0,1-.5.27.31.31,0,0,1-.19,0,.34.34,0,0,1-.17,0,.57.57,0,0,1-.14-.13.76.76,0,0,1-.43-.36.89.89,0,0,1-.1-.53A1.06,1.06,0,0,1,15.79,37.47Z"/><path class="cls-1" d="M15.42,41.11a.25.25,0,0,1,0-.07.81.81,0,0,1,.12-.14.57.57,0,0,1,.16-.11.51.51,0,0,1,.17-.07h.16a.53.53,0,0,1,.28,0,.51.51,0,0,1,.17.07l.07,0a1,1,0,0,1,.26.27l0,0,.07.18a1,1,0,0,1,0,.38.72.72,0,0,1-.1.24.84.84,0,0,1-.26.27l-.06,0a.51.51,0,0,1-.17.07.63.63,0,0,1-.19,0H16.1a.89.89,0,0,1-.35-.11l-.15-.11a.12.12,0,0,1,0-.05,1,1,0,0,1-.19-.32.73.73,0,0,1,0-.25A.93.93,0,0,1,15.42,41.11Z"/><path class="cls-1" d="M1.72,44.1a.58.58,0,0,1,0-.19.58.58,0,0,1,.05-.14.05.05,0,0,0,0,0,.52.52,0,0,1,.1-.11l0,0,.12-.09,0,0,.14-.06.16,0h0l.16,0h0l.14.06,0,0,.12.1,0,0a.64.64,0,0,1,.1.13l0,0,.06.15s0,0,0,0a.78.78,0,0,1,0,.16.34.34,0,0,1,0,.1.36.36,0,0,1,0,.1v0l-.06.13h0a.44.44,0,0,1-.08.11s0,0-.07.06l-.06,0-.13.05h0l-.14,0H2.43a.58.58,0,0,1-.19,0,.35.35,0,0,1-.17-.06H2l-.12-.09,0,0-.08-.1v0l-.06-.14v0a.88.88,0,0,1,0-.16Z"/><path class="cls-1" d="M2.21,47.41a.59.59,0,0,1,0-.14v0a.61.61,0,0,1,0-.12v0h0l.08-.1,0,0h0l.1-.08h0l.12,0h0l.13,0h0l.13,0H3s0,0,.08,0l.08,0h0l.1.08,0,0h0l.08.1,0,0a.61.61,0,0,0,.05.12h0s0,.09,0,.13v0s0,0,0,.06a.17.17,0,0,1,0,.07h0s0,.09-.05.12v0l-.08.1h0l0,0h0L3.14,48h0L3,48H2.65l-.07,0-.06,0h0a.39.39,0,0,1-.1-.08h0a.39.39,0,0,1-.08-.1v0a.43.43,0,0,1,0-.12h0s0-.09,0-.14v0Z"/><path class="cls-1" d="M26.76,47.23l0-.1s0-.07.05-.1a1.13,1.13,0,0,1,.1-.13l0,0,.11-.08a.51.51,0,0,1,.24-.07l.13,0,.11,0,0,0a.57.57,0,0,1,.13.1l.06.05h0l.06,0,0,0,.08.1,0,0a.67.67,0,0,1,.06.15.78.78,0,0,1,0,.14v0a.5.5,0,0,1,0,.16.66.66,0,0,1-.14.24l0,0-.13.1-.15,0-.08,0h-.22a.27.27,0,0,1-.12,0l-.06,0a.76.76,0,0,1-.16-.11.73.73,0,0,1-.17-.28v0s0-.1,0-.15v0A1,1,0,0,1,26.76,47.23Z"/><path class="cls-1" d="M27.26,51.43a1,1,0,0,1,0-.15l.06-.14a.53.53,0,0,1,.09-.11l0,0a.44.44,0,0,1,.11-.09l.14-.06h0l.15,0h0l.15,0h0l.13,0,0,0,.1.07h0l.08.1h0a.35.35,0,0,1,.06.14s0,.06,0,.09,0,.06,0,.09a.8.8,0,0,1,0,.15.58.58,0,0,1-.05.14l0,0a.7.7,0,0,1-.21.21h0l-.12,0h0l-.06,0-.12,0-.13,0-.12,0h0a.47.47,0,0,1-.12-.09v0a.54.54,0,0,1-.09-.12.75.75,0,0,1-.06-.13,0,0,0,0,1,0,0,.25.25,0,0,1,0-.08s0,0,0-.08Z"/><path class="cls-5" d="M21.2,48.65c.12-.3.43-.6.38-.93a1.29,1.29,0,0,1,.13-1.13,1.36,1.36,0,0,1,.86-.38c.36-.08.36-.33.37-.67,0-.6,1-.6.94,0s-.23,1.37-1,1.56a1.93,1.93,0,0,0-.43.08h0v.1a1.7,1.7,0,0,1,0,1.07,3.84,3.84,0,0,0-.41.84c-.07.32.07.4.31.58a1.36,1.36,0,0,1,.56.89c0,.16,0,.69.21.75.56.2.32,1.11-.25.91a1.22,1.22,0,0,1-.75-.8c-.09-.29,0-.74-.26-1s-.31-.19-.44-.33a1.28,1.28,0,0,1-.29-.49A1.73,1.73,0,0,1,21.2,48.65Z"/><path class="cls-5" d="M10.27,51.67c.1-.1.22-.19.33-.29s.1-.15.11-.08c0-.16-.18-.33-.23-.49a.78.78,0,0,1,0-.6,1,1,0,0,1,1.12-.43c.14,0,.32.11.46,0s.18-.16.16-.25a.5.5,0,0,1,.33-.58.48.48,0,0,1,.58.33,1.23,1.23,0,0,1-1.49,1.42l-.22,0,.06.12a.94.94,0,0,1-.11,1c-.12.16-.5.38-.54.55a.51.51,0,0,0,.12.3c.09.06.33,0,.44.06a.92.92,0,0,1,.73.88c0,.34-.05.62.3.8.54.27.07,1.08-.47.81a1.36,1.36,0,0,1-.73-1,2.19,2.19,0,0,1,0-.36.65.65,0,0,0,0-.24h0c-.05,0-.19,0-.25,0a1.11,1.11,0,0,1-1-.89A1.07,1.07,0,0,1,10.27,51.67Z"/><path class="cls-6" d="M11,54a1.19,1.19,0,0,0,.23,1.28,1,1,0,0,0,1.13.4c.29-.13.42-.45.56-.71a1.28,1.28,0,0,0,1.32.78,1.19,1.19,0,0,0,.86-1.63,1,1,0,0,0,1.13-.49,1.24,1.24,0,0,0-.68-1.79h0a1.29,1.29,0,0,0-.12-2.29.55.55,0,0,0-.58,0,1.85,1.85,0,0,0-.44.23,1,1,0,0,0-1-1.13c.1-1.83.11-3.67.21-5.5.15-3.83.06-7.67,0-11.5a.28.28,0,0,0-.55,0c.17,4.85.17,9.7-.07,14.54,0,.81-.05,1.63-.09,2.45a1,1,0,0,0-.8,1.06,1.13,1.13,0,0,0-1.89.29,1.52,1.52,0,0,0,0,1.05c0,.18.22.28.27.45C9.07,51.33,9.59,54.57,11,54Zm-.68-2a.54.54,0,0,0,.58-.81c-.05-.14-.18-.24-.24-.37a1.23,1.23,0,0,1,0-.54.61.61,0,0,1,.78-.41c.15.09.28.22.43.32.34.25.74-.08.76-.45a.57.57,0,0,1,.23-.54c0,.21,0,.41,0,.62s0,.19,0,.29a.28.28,0,0,0,.5-.07c0-.28,0-.57.06-.86a.61.61,0,0,1,.13,0c.44.09.36.63.28,1a.27.27,0,0,0,.13.42.28.28,0,0,0,.5-.1,1.55,1.55,0,0,1,.74-.51.76.76,0,0,1,.29,1.18c-.21.2-.58.38-.51.73s.44.37.69.54.29,1-.14,1.09c-.21,0-.43,0-.64,0a.41.41,0,0,0-.3.71.46.46,0,0,1,.07.48c-.14.16-.28.42-.51.43a.73.73,0,0,1-.69-.42.88.88,0,0,0-.28-.4c-.58-.26-.71.48-1,.78-.41.06-.59-.35-.71-.66s.11-.32.12-.5-.14-.61-.44-.59-.4.19-.6.07A1.38,1.38,0,0,1,10.3,52Z"/><path class="cls-6" d="M0,41.61a.78.78,0,0,0,0,.14c.07.39.31.73.41,1.11s0,1.06,0,1.58A1.87,1.87,0,0,0,1.84,46a2.74,2.74,0,0,0-.22,2.6,1.4,1.4,0,0,0,1.48.57,1.68,1.68,0,0,0,1-.95c.39-.71.34-.09,1-.25a.61.61,0,0,0,.43-.59,1.86,1.86,0,0,0,2.19,1.06,1.17,1.17,0,0,0,.53-.3,1.27,1.27,0,0,0,.25-.42,1.86,1.86,0,0,0-.23-1.74c-.16-.22-.7-.56-.64-.83s.48-.45.59-.62a2.07,2.07,0,0,0,.3-1.28c0-.44-.37-1-.13-1.42a2.41,2.41,0,0,1,.21-.24.84.84,0,0,0,.22-.78.93.93,0,0,0-1.09-.54A2.48,2.48,0,0,0,6.59,41a17.12,17.12,0,0,0-1.44,1.63c.16-2,.07-4.09.06-6.13,0-.94,0-1.89,0-2.84a11.43,11.43,0,0,0-.07-2.34.13.13,0,0,0,0-.09h.37a8,8,0,0,1,1.28.15c1.12.15,2.29-.14,3.4,0l.16,0a.46.46,0,0,1,.27-.08H11a.43.43,0,0,1,.24.08,7.65,7.65,0,0,1,2-.06h3.56a14.07,14.07,0,0,0,2.55.08.21.21,0,0,0,0,.12c0,1.66,0,3.34.1,5,0,.33-.05.62-.07.92-1.19-.75-1.65-2.25-2.86-3a2.45,2.45,0,0,0-1.61-.56.77.77,0,0,0-.48,1.31,1.25,1.25,0,0,1,.32.71,1.31,1.31,0,0,1-.19.52,2.51,2.51,0,0,0,.08,2.46c.22.34.57.42.81.69s.24,0,.1.29-.44.32-.58.45c-1.29,1.2.23,3.52,1.83,3.12.68-.18,1.87-1,1.95-1.83-.05.45-.2,1,.19,1.37.57.31.87-.56.93-1,0-.08,0-.16,0-.24a2.63,2.63,0,0,0,2.66,2.22,1.84,1.84,0,0,0,.83-.26.62.62,0,0,0,.18-.14c0,.34,0,.68,0,1v.24A1.1,1.1,0,0,0,22.72,46c-1-.53-1.84.69-1.72,1.59,0,.29.3.46.34.73a1.23,1.23,0,0,0-.61.64.87.87,0,0,0-.18.56c0,.62.45,1.59,1.22,1.35a1.3,1.3,0,0,0,1.15,1.91c.46,0,.62-.48.68-.85a1.16,1.16,0,0,0,1.33.21,1.6,1.6,0,0,0,.77-1.59,1.37,1.37,0,0,0,1.16-1.14.33.33,0,0,1,.18.36,1.05,1.05,0,0,1-.19.4,2.82,2.82,0,0,0-.48,1.53A1.84,1.84,0,0,0,27,53.1a1.52,1.52,0,0,0,1.37.2,1.71,1.71,0,0,0,.93-.9c.07.24.26.54.56.47s.3-.55.35-.84c-.07.44.52,1.1.87,1.29a1.65,1.65,0,0,0,1.64-.2,1.27,1.27,0,0,0,.45-.47,1.24,1.24,0,0,0,.09-.76,2.82,2.82,0,0,0-.61-1.25s-.77-.88-.66-.92c1.45-.6,1.38-1.64,1-3a2.25,2.25,0,0,1-.1-1.33,1.34,1.34,0,0,0,.14-.7.58.58,0,0,0-.6-.38,1.36,1.36,0,0,0-.71.3,6,6,0,0,0-1.67,1.9c.12-2.15.27-4.27.31-6.45s0-4.36,0-6.54a20.36,20.36,0,0,0-.07-2.88,26.44,26.44,0,0,1,3.47-.58c.69-.16,1.14-.22,1.1.64l-.16,4c0,.58,0,1.15,0,1.73a11.74,11.74,0,0,0-.07,1.66l0,0a.75.75,0,0,1,.08.24l.17,0a1.08,1.08,0,0,1,.31-.07q.09-4.34.16-8.67c.25,0,.95.06.89-.39,0-.25-.37-.28-.58-.25a16,16,0,0,1-2.84-.17l-3-.23a1.73,1.73,0,0,0-.11-.32,8.64,8.64,0,0,1-.49-1.46c-.25-.78-.6-1.53-.87-2.31-1.33-4-2.67-7.92-4.14-11.83-.27-1-3.92-11.28-4.42-12.59,0-.09-.05-.14-.06-.14V0s0,0,0,0,0,.1,0,.16c-.48,1.64-4.31,14.68-5.09,16.94-.56,1.36-1,2.75-1.49,4.15-.27.85-.65,1.65-.88,2.5-.51,1.83-.94,3.7-1.42,5.53-1.46.22-3,.31-4.4.6a16.82,16.82,0,0,0-2.44.42.27.27,0,0,0,.09.53l0,0a2.33,2.33,0,0,0,.63.26.31.31,0,0,0-.08.31c.11,1.92.11,3.82.06,5.74,0,1.33,0,2.65,0,4,0,.7-.06,1.4-.06,2.11C3.52,42.53,2.66,41.43,1.41,41,.81,40.68,0,40.85,0,41.61ZM19.74,25.89c0,.85,0,1.69,0,2.54-1.75.05-3.49.21-5.23.41,0-.08,0-.16,0-.24C15.26,23.37,17,18.36,18,13.18c.2-1,1.63-11.72,1.67-13a.09.09,0,0,0,0-.05C19.68,1.57,19.57,20.72,19.74,25.89Zm1.47-15.26C22,15.74,22.8,20.86,23.31,26c.09.82.19,1.64.31,2.46l-2.5,0c-.4,0-.72.1-.87-.23a4,4,0,0,1,0-1.19c0-1.58-.05-3.16-.07-4.74,0-2.11,0-4.23,0-6.34,0-1.6,0-3.26-.06-4.85l-.44-11h0a.62.62,0,0,0,0,.19C20.19,3.71,20.71,7.17,21.21,10.63ZM19.83,35.38c0-1.3,0-2.6,0-3.9a.21.21,0,0,0,0-.12h.66c1.09-.07,2.19-.1,3.28-.14h0c0,.26,0,.51,0,.77,0,.87-.07,1.73-.06,2.59a2.14,2.14,0,0,0-.32.08,6.84,6.84,0,0,0-1.34.7,15.16,15.16,0,0,0-2.1,1.74A8.32,8.32,0,0,0,19.83,35.38Zm.44-4.57c0-.31,0-.62-.05-.93s0-.5,0-.75a.18.18,0,0,1,0-.13.18.18,0,0,1,.1,0c.39,0,3.31-.17,3.35.15a13,13,0,0,1,.15,1.52A23.72,23.72,0,0,1,20.27,30.81Zm8.92-2.21a16.18,16.18,0,0,0-2.82-.07,15.82,15.82,0,0,1-2.21-.05c-.14-1.17-.29-2.35-.45-3.51-.21-1.4-.38-2.81-.6-4.21-.22-1.72-.33-3.48-.66-5.18s-.53-3.21-.84-4.82c-.06-.29-1.3-8.1-1.77-10.23.63,2.17,3,10.05,3.09,10.39,1,2.29,1.73,4.76,2.56,7.13s1.6,4.8,2.46,7.12c.23.59.48,1.18.69,1.77a10.38,10.38,0,0,0,.54,1.63S29.19,28.59,29.19,28.6Zm-4.12,6.1a1.4,1.4,0,0,0-.9-.27c0-1.07,0-2.13.1-3.2,0,0,0,0,0,0,1,0,2.08-.08,3.12-.14.86,0,1.69-.29,2.55-.34-.13.12-.09.39-.11.57-.06,4.11.11,8.22-.14,12.33-.05,1.24-.18,2.47-.22,3.7-.85-.87-1.48-2-2.65-2.48-.44-.21-1.73-.67-1.67.21a4.43,4.43,0,0,0,.35.73,1,1,0,0,0-.35,0,.81.81,0,0,0-.2.11.83.83,0,0,0-.1-.51.84.84,0,0,0-.79-.51l-.05,0c0-1.74.06-3.48,0-5.22a1,1,0,0,0,.74-.7,2.33,2.33,0,0,0-.21-2.22c-.1-.26.13-.49.29-.67a.72.72,0,0,0,.39-.52A.89.89,0,0,0,25.07,34.7Zm-.09-4a.9.9,0,0,1-.49-.06c-.32-.16-.18-.76-.21-1.05-.05-.59.26-.52.81-.57a13.83,13.83,0,0,1,1.44,0c2.42.1,4.83.3,7.24.51l-.51.11A64,64,0,0,1,25,30.68Zm1,17.24a1.28,1.28,0,0,0,.25-1.6.8.8,0,0,0-.15-.17,2,2,0,0,0-.37-1.06,3.38,3.38,0,0,1,1.87.94c.4.43.75.91,1.15,1.34.26.23.51.74.92.62h0a.26.26,0,0,0,.38-.22,7.64,7.64,0,0,1,.51-1.08,4,4,0,0,1,.75-.93c.34-.34.65-.79,1.15-.86a1.74,1.74,0,0,0-.2,1,6,6,0,0,0,.15,1c.05.26.21.5.28.76a2,2,0,0,1,0,.78c0,.47-.57.6-.93.79a.59.59,0,0,0-.25.79,5.22,5.22,0,0,0,.88,1.16,1.73,1.73,0,0,1,.34,1.14c-.11.41-.59.47-.93.61-.86.1-1-.94-1.24-1.55-.12-.24-.14-.69-.45-.74-.46,0-.33.68-.4,1-.07-.21-.07-.5-.3-.59a.32.32,0,0,0-.4.22c-.15.38-.21.79-.34,1.17a1,1,0,0,1-.6.43,1.5,1.5,0,0,1-.94-.34A2,2,0,0,1,27,51.06a2,2,0,0,1,.33-.7,1.36,1.36,0,0,0,.29-.49,1,1,0,0,0-.43-.92,1.56,1.56,0,0,0-.41-.15A1.81,1.81,0,0,0,26,47.92Zm-2.32-1.78A.28.28,0,0,0,24,45.9v-.53c.15,0,.29.05.34.2s0,.61,0,.91a.26.26,0,0,0,.27.24.29.29,0,0,0,.24,0c.2-.09.2-.34.39-.45a.72.72,0,0,1,.51,1.1c-.06.12-.22.15-.28.28a.47.47,0,0,0,0,.35c.27.76,1,.41.77,1.57,0,.18-.25.27-.37.34a.32.32,0,0,1-.27,0c-.37-.14-.72.09-.54.49a.85.85,0,0,1-.37,1.17c-.17.16-.45,0-.62,0-.24-.29-.55-.58-.86-.19-.22.21-.1.58-.28.81a.68.68,0,0,1-.73-.78c0-.33.24-.66.05-1a.46.46,0,0,0-.6-.16.26.26,0,0,1-.15,0,.44.44,0,0,1-.19-.19,1.87,1.87,0,0,1-.22-.68c0-.13.11-.23.16-.34a.85.85,0,0,1,.17-.25c.24-.12.49-.3.46-.61a1.23,1.23,0,0,0-.32-.69.81.81,0,0,1,0-.38,1.16,1.16,0,0,1,.52-.78.49.49,0,0,1,.42,0c.16.16.4.35.62.18s0-.76.21-1.09a.34.34,0,0,1,.14-.17v.32C23.44,45.89,23.48,46.11,23.69,46.14Zm-.71-6a.45.45,0,0,1,.31-.49h.17a.54.54,0,0,0,0,.1c0,.31,0,.63,0,1A6.62,6.62,0,0,1,23,40.18Zm-3.42-2.1.06,0a.29.29,0,0,0,.16,0,8.79,8.79,0,0,1,1.63-1.54A7.28,7.28,0,0,1,23,35.41a2.87,2.87,0,0,1,.66-.27,1.13,1.13,0,0,0,.48-.15.89.89,0,0,1,.56.11c0,.2,0,.4-.19.48a1.15,1.15,0,0,0-.34,1.55,1.66,1.66,0,0,1,.12,1.51.56.56,0,0,1-.6.46,1.33,1.33,0,0,1-.4,0,1,1,0,0,0-.84.81c-.11.94.94.82.88,2,0,.31,0,.59-.06.87a.29.29,0,0,0,0,.09,1.08,1.08,0,0,0-.18.24,1.85,1.85,0,0,1-2.34-.61c-.35-.64-.46-1.34-.75-2a.29.29,0,0,0-.52-.17c-.14.1-.13.35-.13.53a5.25,5.25,0,0,1-.18,1.32,4.66,4.66,0,0,0,0-1.58.35.35,0,0,0-.63,0,1.68,1.68,0,0,1-.2.34,4.07,4.07,0,0,1-.45.82,2,2,0,0,1-.54.64,1.54,1.54,0,0,1-1.63.28A4.55,4.55,0,0,1,15,41.61a1.1,1.1,0,0,1,.18-.86c.37-.36,1.13-.62,1-1.27,0-.31-.36-.42-.62-.48a1.59,1.59,0,0,1-.76-1.31,2.26,2.26,0,0,1,.22-1,1.18,1.18,0,0,0,.2-.49.83.83,0,0,0,0-.72,2.86,2.86,0,0,0-.43-.71.26.26,0,0,1,0-.27c.33-.18.72,0,1,.16,1.23.59,1.76,1.9,2.69,2.82a3.86,3.86,0,0,0,.87.6A.32.32,0,0,0,19.56,38.08Zm-5.44-7.32c0-.42,0-1.11.42-1.35a5.65,5.65,0,0,1,1.71-.2c.28,0,3.4-.28,3.41-.24a12.84,12.84,0,0,1,0,1.86c-1.1,0-2.2-.08-3.31-.09C15.63,30.73,14.88,30.74,14.12,30.76Zm-2.78-1.54c.23,0,.82-3.18.89-3.52a46.62,46.62,0,0,1,2.24-6.6c.82-2.24,1.63-4.49,2.25-6.8.16-.6,2-7.79,2.7-10.89-.42,2.33-.81,4.67-1.2,7-.42,2.5-.76,5-1.34,7.47-.8,3.35-1.85,6.7-2.47,10.07-.18,1-.35,2-.53,2.95ZM11,30.8c0-.07,0-.17,0-.29,0-.32.11-.73.38-.76.78-.09,1.58-.22,2.36-.26-.16,0,0,1.28-.36,1.28Zm-5.84-.17c.47-.17,5.44-.59,5.45-.77a1.86,1.86,0,0,1-.11.52c-.09.3,0,.3-.26.42a2.53,2.53,0,0,1-.87,0c-.57,0-1.15,0-1.72,0s-.94-.05-1.4-.09c-.22,0-.56-.1-.83-.1A.53.53,0,0,0,5.16,30.63ZM.72,41.36a3.4,3.4,0,0,1,1.78.92,14.39,14.39,0,0,1,1.28,1.06,5.41,5.41,0,0,0,.69.49.28.28,0,0,0,.43.05h0a.25.25,0,0,0,.2-.16.54.54,0,0,0,.28-.43,2.59,2.59,0,0,1,.33-.55c.09-.2.3-.29.4-.48a10.41,10.41,0,0,1,.86-.9c.19-.2.43-.35.62-.55a.5.5,0,0,1,.68.12c0,.36-.51.44-.51.84a4.09,4.09,0,0,0,0,.7,2.56,2.56,0,0,0,.18.64,1.46,1.46,0,0,1-.75,1.54.45.45,0,0,0-.25.64c.2.41.62.65.9,1a1.43,1.43,0,0,1,0,1.4,1.11,1.11,0,0,1-.81.21.94.94,0,0,1-.78-.38c-.38-.39-.49-1-.82-1.36-.33-.16-.48.21-.45.48a1.75,1.75,0,0,1-.11.72c-.14-.37.11-1-.31-1.19a.31.31,0,0,0-.34.15c-.37.81-.48,2.27-1.61,2.32-.59-.08-.81-.88-.71-1.39.11-.3.22-.56.32-.87a.68.68,0,0,0,.08-.7,2.44,2.44,0,0,0-.85-.51A1.47,1.47,0,0,1,1,44.45c0-.32,0-.64,0-1a2.48,2.48,0,0,0-.2-1.14C.74,42.12.3,41.39.72,41.36Z"/><path class="cls-6" d="M29.66,48h0Z"/><path class="cls-6" d="M31.83,41.38a1.62,1.62,0,0,0,0,1.24,1.21,1.21,0,0,0,1.69.54,1,1,0,0,0,.94,1,1.23,1.23,0,0,0,1.07-.31.76.76,0,0,0,.16-.34,1,1,0,0,0,.36.3,1.1,1.1,0,0,0,1-.06,1.17,1.17,0,0,0,.52-1,1,1,0,0,0-.17-.53,1.17,1.17,0,0,0,1.11-.52,1.12,1.12,0,0,0-.45-1.41c.46-.25.83-.66.58-1.21a1.22,1.22,0,0,0-.92-.71.91.91,0,0,0-.6.1,1,1,0,0,0-.38-1.2,1.09,1.09,0,0,0-1,0,1.14,1.14,0,0,0-.3.28,1.07,1.07,0,0,0-.26-.44,1.21,1.21,0,0,0-1.05-.33,1,1,0,0,0-.76.81,1.16,1.16,0,0,0-1.4-.26,1.18,1.18,0,0,0-.48,1.14,1.16,1.16,0,0,0,.33.58,1.11,1.11,0,0,0-.89,1A1.25,1.25,0,0,0,31.83,41.38Zm1.35.49a2,2,0,0,1,2.18-3.22,2.06,2.06,0,0,1,.13,3.89,2.22,2.22,0,0,1-.37.09A2.1,2.1,0,0,1,33.18,41.87Zm.22-3.47s0,0,0,0a1.87,1.87,0,0,0-.73.66h0a2.36,2.36,0,0,1-.57-.52.62.62,0,0,1,.15-.81C32.67,37.46,33.27,38,33.4,38.4ZM35,38.15a2.33,2.33,0,0,0-1.17.07c-.07-.32,0-.82.34-.95a.7.7,0,0,1,.68.22A.83.83,0,0,1,35,38.15Zm1.52.65v0a4.37,4.37,0,0,0-1-.56c.23-.36.51-.86,1-.55S36.72,38.5,36.56,38.8Zm.81,1.29s0,0-.08.06a2.26,2.26,0,0,0-.34-.87l0,0h0a.3.3,0,0,1,.14-.11h0a.82.82,0,0,1,.36-.23.69.69,0,0,1,.76.38C38.48,39.76,37.71,40,37.37,40.09Zm-.23,1.64a2.85,2.85,0,0,0,.21-1c0-.07,0-.15,0-.22a.18.18,0,0,0,.1,0c.43,0,1.1.69.59,1.05A1.33,1.33,0,0,1,37.14,41.73ZM36,43a2.07,2.07,0,0,0,.89-.7.86.86,0,0,1,.29.48.63.63,0,0,1-.36.64C36.36,43.55,36.14,43.26,36,43ZM34,43a2.84,2.84,0,0,0,1.26.13,1.64,1.64,0,0,1,0,.32c-.1.25-.43.27-.67.25C34.16,43.63,34,43.32,34,43Zm-1.67-1.39s.06,0,.09,0a2.34,2.34,0,0,0,.27.49,2.28,2.28,0,0,0,.67.61.7.7,0,0,1-1-.18C32.29,42.35,32.05,41.53,32.37,41.58Zm-.92-1.34c0-.61.48-.82,1-.68A2.65,2.65,0,0,0,32.3,41C31.9,40.9,31.47,40.72,31.45,40.24Z"/><path class="cls-6" d="M7.46,37.32a1.24,1.24,0,0,0,0,.89.87.87,0,0,0,1.21.39.72.72,0,0,0,.67.71.86.86,0,0,0,.77-.22.53.53,0,0,0,.11-.24.78.78,0,0,0,.26.21.75.75,0,0,0,.74,0,.83.83,0,0,0,.38-.69.9.9,0,0,0-.13-.39.84.84,0,0,0,.8-.36.81.81,0,0,0-.32-1c.33-.18.59-.47.41-.87a.89.89,0,0,0-.66-.51.64.64,0,0,0-.42.07A.71.71,0,0,0,11,34.4a.8.8,0,0,0-.75,0,.83.83,0,0,0-.22.2.66.66,0,0,0-.18-.31A.85.85,0,0,0,9.13,34a.72.72,0,0,0-.54.57.83.83,0,0,0-1-.18.82.82,0,0,0-.35.81.74.74,0,0,0,.24.42.79.79,0,0,0-.64.73A.89.89,0,0,0,7.46,37.32Zm1,.36A1.47,1.47,0,0,1,10,35.37a1.48,1.48,0,0,1,.09,2.78.77.77,0,0,1-.26.07A1.5,1.5,0,0,1,8.43,37.68Zm.15-2.49a0,0,0,0,0,0,0,1.42,1.42,0,0,0-.52.48h0a1.6,1.6,0,0,1-.4-.38.42.42,0,0,1,.1-.57C8.07,34.52,8.49,34.92,8.58,35.19ZM9.76,35a1.6,1.6,0,0,0-.84,0c-.05-.24,0-.59.25-.68a.49.49,0,0,1,.48.15A.6.6,0,0,1,9.76,35Zm1.09.46s0,0,0,0a3.58,3.58,0,0,0-.71-.4c.16-.26.36-.62.71-.4S11,35.27,10.85,35.48Zm.58.92s0,0-.06.05a1.57,1.57,0,0,0-.25-.63l0,0h0a.21.21,0,0,1,.1-.08h0a.73.73,0,0,1,.26-.17.49.49,0,0,1,.54.27C12.22,36.17,11.67,36.35,11.43,36.4Zm-.17,1.18a2,2,0,0,0,.15-.7c0-.05,0-.1,0-.15s0,0,.07,0c.31,0,.79.49.43.74A1,1,0,0,1,11.26,37.58Zm-.84.87a1.66,1.66,0,0,0,.64-.5.62.62,0,0,1,.2.34.46.46,0,0,1-.26.46C10.7,38.88,10.55,38.67,10.42,38.45ZM9,38.47a2.29,2.29,0,0,0,.9.09.78.78,0,0,1,0,.22c-.07.19-.31.2-.48.18S9,38.71,9,38.47Zm-1.19-1h.06a1.7,1.7,0,0,0,.19.35,1.63,1.63,0,0,0,.48.43.49.49,0,0,1-.74-.13C7.79,38,7.62,37.43,7.85,37.47Zm-.66-1c0-.44.34-.59.71-.49a1.92,1.92,0,0,0-.1,1.06C7.51,37,7.2,36.85,7.19,36.51Z"/></g></g></svg>