<svg xmlns="http://www.w3.org/2000/svg" viewBox="0 0 18.08 11.3"><defs><style>.cls-1{fill:#fcd4ac;}.cls-2{fill:#d09971;}.cls-3{fill:#92443f;}.cls-4{fill:#6b1e1e;}</style></defs><g id="Layer_2" data-name="Layer 2"><g id="Card"><path class="cls-1" d="M15.75,1.91a6.66,6.66,0,0,0-5.18-.24A6.51,6.51,0,0,0,7,4.83l-.51.58-.19,0c-.08-.55-.15-1.1-.22-1.65a1.17,1.17,0,0,0,0-.2l.56-.71a3.94,3.94,0,0,0,.62-.54,3.75,3.75,0,0,1,.47-.17A.71.71,0,0,0,7.32.82L6.64,1A.64.64,0,0,0,6.07.87a3.39,3.39,0,0,0-.75.28h0A7.09,7.09,0,0,0,.48,5.61a1.42,1.42,0,0,0,0,.2A3.42,3.42,0,0,0,.62,8.07a3.13,3.13,0,0,0,.83,1.08.78.78,0,0,0,.48.78,6,6,0,0,0,1.63.47,5.52,5.52,0,0,0,.8.12,5.39,5.39,0,0,0,2.5-.25,6.69,6.69,0,0,0,3.1-3c.21-.3.35-1,.55-1.28a.46.46,0,0,1,.12-.24h0l0,0,0,0A.49.49,0,0,1,11,5.56c.12,0,.08.14.16.22l.17-.08a.86.86,0,0,0,0,.27.49.49,0,0,1,0,.12.52.52,0,0,0-.06.13,1.71,1.71,0,0,0,0,.75.65.65,0,0,0-.14.52.47.47,0,0,0,.08.26.78.78,0,0,0,.25.26,1,1,0,0,0,.44.11,1,1,0,0,0,.29,0A.56.56,0,0,0,12.22,8a.38.38,0,0,0,.15,0,5.1,5.1,0,0,0,2.39-.87,8.69,8.69,0,0,0,1.92-1.22C18,4.63,17.21,2.68,15.75,1.91Z"/><path class="cls-2" d="M17.37,4.08A4.1,4.1,0,0,0,16.32,2.5a3,3,0,0,0-1.73-.92,7.49,7.49,0,0,0-3.7.23,2,2,0,0,0-.42,0A4.48,4.48,0,0,0,8.11,3.07.39.39,0,0,0,8,3.46,7.11,7.11,0,0,0,7,4.75a.14.14,0,0,0,0,.06,2,2,0,0,0-.19.12.47.47,0,0,0,.36.85,6.25,6.25,0,0,0,1.63-.63l1.91-.47a1.51,1.51,0,0,0,.14.35c.13.59.08,1.21.22,1.8a1.59,1.59,0,0,0-.21.46.47.47,0,0,0,.45.59,7.38,7.38,0,0,0,4-.78,6.67,6.67,0,0,0,1.45-1.31A1.8,1.8,0,0,0,17.37,4.08Z"/><path class="cls-2" d="M17.32,1.76A5.36,5.36,0,0,0,13.78.31,9.59,9.59,0,0,0,9.57,1a5.16,5.16,0,0,0-1.23.79A7.74,7.74,0,0,0,6.15,4a.47.47,0,0,0,.74.57A28.39,28.39,0,0,1,9,2.44a6.1,6.1,0,0,1,1.16-.61.46.46,0,0,0,.2-.16,9.32,9.32,0,0,1,1.57-.33,7.23,7.23,0,0,1,3.14.14,3.86,3.86,0,0,1,1.2.6,3.1,3.1,0,0,1,.5.46,1.3,1.3,0,0,1,.18.23.38.38,0,0,0,0,.37c.66,1,.85.35,1-.09S17.61,2.06,17.32,1.76Z"/><path class="cls-2" d="M10.49,6.31c-.1.11-.19.26-.3.36a.42.42,0,0,0-.06.55,5.74,5.74,0,0,1-1.4,1.87A4.69,4.69,0,0,1,6,10.44c-.6,0-.7.68-.09.7l.26,0a3.57,3.57,0,0,0,.47,0A4.37,4.37,0,0,0,9.34,9.8a13.52,13.52,0,0,0,1.78-3.23C11.28,6.17,10.81,5.94,10.49,6.31Z"/><path class="cls-2" d="M5.54,2.6A11,11,0,0,0,3.18,4.33,11.67,11.67,0,0,0,1.53,7.47,20.27,20.27,0,0,1,3.64,4.33Z"/><path class="cls-2" d="M5.06,5A9.54,9.54,0,0,0,3.76,6a2.29,2.29,0,0,0-.22.24c-.39.51-.79,1-.79,1Z"/><path class="cls-2" d="M8.43,6.36A5,5,0,0,1,6.71,8.21a12.48,12.48,0,0,1-2.34.89A12,12,0,0,0,7,8.37,5.49,5.49,0,0,0,8.43,6.36Z"/><path class="cls-3" d="M10.69,3.89a8.2,8.2,0,0,1,2.18-.63,5.5,5.5,0,0,1,1.88.15,9.88,9.88,0,0,0-2,.15C11.85,3.76,10.69,3.89,10.69,3.89Z"/><path class="cls-3" d="M12.35,4.51a13.7,13.7,0,0,1,1.51-.36c.53-.06,2.05,0,2.05,0Z"/><path class="cls-3" d="M11.72,6.13C11.88,6.1,15.48,5,15.48,5a16.12,16.12,0,0,1-1.68.62C13.06,5.89,11.72,6.13,11.72,6.13Z"/><path class="cls-3" d="M18.06,3c-.37-1.48-2-2.19-3.33-2.51A8.3,8.3,0,0,0,9.85.79l0,0A6.05,6.05,0,0,0,6.21,4.14a.47.47,0,1,0,.9.25,5.22,5.22,0,0,1,3-2.7l0,0a7.46,7.46,0,0,1,4.05-.36c1.09.21,2.63.69,2.94,1.91A.47.47,0,0,0,18.06,3Z"/><path class="cls-4" d="M18,3.29A4.66,4.66,0,0,0,18,2.65,3.61,3.61,0,0,0,15.51.37,8.23,8.23,0,0,0,12.68,0a8,8,0,0,0-4,1A.64.64,0,0,0,8.29.8,6.92,6.92,0,0,0,5.85.58a8,8,0,0,0-3,1.18A5.86,5.86,0,0,0,.1,6a4.91,4.91,0,0,0,0,1.75A.34.34,0,0,0,.12,8a4.89,4.89,0,0,0,1,1.62,5,5,0,0,0,2.34,1.46A7.57,7.57,0,0,0,7.7,11a4.13,4.13,0,0,0,1.41-.84A7.68,7.68,0,0,0,10.27,8.8c.11-.15.32-.59.49-.66s.45.06.61.09A6.27,6.27,0,0,0,13.92,8a5.57,5.57,0,0,0,3.87-3.17,1.46,1.46,0,0,0,.07-.19A4.55,4.55,0,0,0,18,3.29ZM11.41.65a7.48,7.48,0,0,1,4.77.67,2.55,2.55,0,0,1,1.45,2.26c0-.24-.69-1-.87-1.17a4.8,4.8,0,0,0-1.24-.9A6.11,6.11,0,0,0,12.17,1a7.71,7.71,0,0,0-3.4,1.1,5,5,0,0,0-1.61,1.5,4.54,4.54,0,0,0-.58,1.06c0-.11-.09-.28-.09-.39a1.06,1.06,0,0,1,.12-.42,3.85,3.85,0,0,1,.63-1A6.55,6.55,0,0,1,10.76.78C11,.73,11.19.68,11.41.65ZM.65,6A6.07,6.07,0,0,1,3.48,2a5.77,5.77,0,0,1,4.7-.63C8,1.25,6.92,2.43,6.77,2.61,6.43,3,5.84,3.72,6,4.28c.11.37.2,1.29.54,1.53s1.24-.1,1.67-.21.91-.27,1.37-.38c.29-.06,1.07-.37.93.14C9.63,8.58,6.44,11.64,3,10.06A3.56,3.56,0,0,1,.65,6ZM9.78,8.9a6.16,6.16,0,0,1-1.33,1.27,4.33,4.33,0,0,1-1.33.65c-.34.09-1.21.32-1.49.06.33-.28.83-.23,1.21-.35A5.13,5.13,0,0,0,8.15,10,5.26,5.26,0,0,0,9.46,8.64c.56-.76.83-1.64,1.32-2.43.42.31-.17,1.48-.35,1.77A10.12,10.12,0,0,1,9.78,8.9Zm3.79-1.38a6.17,6.17,0,0,1-1,.14c-.54,0-1.07-.09-1.6-.06a6.88,6.88,0,0,0,.2-2.75s0,0,0,0a.15.15,0,0,0,0-.06l0-.08,0,0,0,0,0,0h0l-.07,0h0l-.05,0h-.42l-.07,0c-.17,0-.36.09-.49.1A26.38,26.38,0,0,0,7,5.35s.43-1.13.5-1.25A4.88,4.88,0,0,1,8.59,2.9a6.87,6.87,0,0,1,2.55-1.16,6.81,6.81,0,0,1,3-.1,4.53,4.53,0,0,1,2.58,1.5,2,2,0,0,1,.52,1.48,2.06,2.06,0,0,1-.56,1,5.86,5.86,0,0,1-2.52,1.69Q13.87,7.45,13.57,7.52Z"/><polygon class="cls-4" points="18.05 3.41 18.05 3.42 18.05 3.42 18.05 3.41"/><path class="cls-4" d="M7,5.89H7Z"/><polygon class="cls-4" points="11.12 4.64 11.12 4.64 11.13 4.64 11.12 4.64"/><polygon class="cls-4" points="10.76 7.47 10.76 7.47 10.76 7.47 10.76 7.47"/><polygon class="cls-4" points="9.58 9.11 9.59 9.1 9.59 9.1 9.58 9.11"/><polygon class="cls-4" points="17.91 4.51 17.91 4.51 17.91 4.51 17.91 4.51"/><polygon class="cls-4" points="17.95 4.33 17.95 4.33 17.95 4.33 17.95 4.33"/><polygon class="cls-4" points="10.69 4.51 10.7 4.51 10.7 4.51 10.69 4.51"/></g></g></svg>