<svg xmlns="http://www.w3.org/2000/svg" viewBox="0 0 45.65 22.16"><defs><style>.cls-1{fill:#59c1d7;}.cls-2{fill:#3b818f;}.cls-3{fill:#6b1e1e;}.cls-4{fill:#faed62;}.cls-5{fill:#cbc479;}.cls-6{fill:#506fb5;}.cls-7{fill:#2d3687;}.cls-8{fill:#e52823;}.cls-9{fill:#04684c;}.cls-10{fill:#9f2224;}.cls-11{fill:#ff8500;}.cls-12{fill:#bc6106;}.cls-13{fill:none;stroke:#bc6106;stroke-linecap:round;stroke-linejoin:round;stroke-width:0;}</style></defs><g id="Layer_2" data-name="Layer 2"><g id="Card"><path class="cls-1" d="M38.28,6.73a1.35,1.35,0,0,0-.72-1.36.89.89,0,0,0-.88,0s0,0-.07,0a1,1,0,0,0,0-.14.39.39,0,0,0-.06-.15L36.6,5a1.91,1.91,0,0,0,.24-.34,1.14,1.14,0,0,0,.07-1,1.09,1.09,0,0,0-1.55-.52.57.57,0,0,0-.13.08A.64.64,0,0,0,35,3l-.1,0a.49.49,0,0,0,0-.11A1.24,1.24,0,0,0,35,1.47a.88.88,0,0,0-1.2-.32l-.16.11a1,1,0,0,0-.36.44,1.21,1.21,0,0,0-.58-.16h-.09l0-.17,0,0a.94.94,0,0,0,0-.41.92.92,0,0,0-.87-.66.75.75,0,0,0-.26,0h-.08a1,1,0,0,0-.51.24l-.12.14L30.62.52A1.58,1.58,0,0,0,30.47.4,1,1,0,0,0,30,.12a.89.89,0,0,0-.46.06,1,1,0,0,0-.42.36,1.59,1.59,0,0,0-.15.29,1.23,1.23,0,0,0-.12.26.8.8,0,0,0-.54.24l-.08.12-.14,0a1.28,1.28,0,0,0-.69.74.91.91,0,0,0-1.46.09l-.33.57a.88.88,0,0,0,.08,1,1,1,0,0,0-.81.24,1.32,1.32,0,0,0-.43,1.11,2.18,2.18,0,0,0,.06.3.84.84,0,0,0-.33.1,1.05,1.05,0,0,0-.53,1.23.7.7,0,0,0,.22.39.85.85,0,0,0,0,.23,2.08,2.08,0,0,0,.29.62.84.84,0,0,0-.28.18l-.05.06-.1,0a1,1,0,0,0-.43.58,1.15,1.15,0,0,0,0,.26.9.9,0,0,0,.12.46h0s0,0,0,.05v0a1.57,1.57,0,0,0,.09.23l.09.12.08.1a.93.93,0,0,0,.32.21.67.67,0,0,0,.18.07l.21,0,.45.06a1.06,1.06,0,0,0,.11.52,1.08,1.08,0,0,0,.11.18,1.45,1.45,0,0,0-.11.54,1.49,1.49,0,0,0,.14.78,1.09,1.09,0,0,0,1,.52,1.55,1.55,0,0,0,.57-.15,1.11,1.11,0,0,0,.14.51.89.89,0,0,0,.22.87,1.11,1.11,0,0,0,1.06.27,1,1,0,0,0,.39-.21,1,1,0,0,0,.33.65.88.88,0,0,0,1.35-.14v0a.88.88,0,0,0,1.6.21.56.56,0,0,0,.05-.08l0,0,.06-.07.05-.05h.22a1.37,1.37,0,0,0,.17.17,1.12,1.12,0,0,0,1.1.13,1.16,1.16,0,0,0,.62-.63l.06,0,.24,0a.86.86,0,0,0,.44-.12l.08,0a.69.69,0,0,0,.25-.23.59.59,0,0,0,.15-.27,1,1,0,0,0,.25-.18l0,0a.87.87,0,0,0,.28.05h.05a.54.54,0,0,0,.33-.08.59.59,0,0,0,.29-.18.75.75,0,0,0,.18-.28.77.77,0,0,0,.08-.34l0-.23a.32.32,0,0,0,0-.09.94.94,0,0,0-.13-.7v-.05a.82.82,0,0,0,.28-.07.88.88,0,0,0,.51-.57.76.76,0,0,0,0-.47,1.58,1.58,0,0,0,.81-.78,1.53,1.53,0,0,0-.23-1.47,1,1,0,0,0-.44-.36l-.06-.08a.39.39,0,0,0-.1-.08.43.43,0,0,0,0-.11A1.4,1.4,0,0,0,38.28,6.73Z"/><path class="cls-2" d="M24.41,9.45h0Z"/><polygon class="cls-2" points="25.92 12.36 25.93 12.37 25.91 12.36 25.92 12.36 25.92 12.36"/><path class="cls-2" d="M28.82,14.28Z"/><path class="cls-2" d="M28.13,14.06l0,0,0,0Z"/><polygon class="cls-2" points="25.48 7.97 25.48 7.97 25.48 7.97 25.48 7.97"/><polygon class="cls-2" points="29.09 6.82 29.1 6.82 29.1 6.82 29.09 6.82"/><path class="cls-2" d="M28.33,7.09a1,1,0,0,0,.38.07A1.44,1.44,0,0,0,30.08,6a1.08,1.08,0,0,0-.62-1.25c-.6-.27-1.26.21-1.62.67-.12.22-.27.54-.11.77A1.51,1.51,0,0,0,28.33,7.09Zm0-1.12a.61.61,0,0,1,.1-.27.31.31,0,0,1,.09-.11.66.66,0,0,1,.19-.18l.19-.1h0s.05,0,.08,0h0l.09,0h.11l.08,0,.06,0a.2.2,0,0,1,.07.06l.05.06h0l0,0,0,0,.05,0,0,.06a.93.93,0,0,1,.05.1.44.44,0,0,1,0,.23,1,1,0,0,1,0,.24,1.87,1.87,0,0,1-.07.22h0a.43.43,0,0,1,0,.07h0l-.15.2-.09.07-.08,0-.08,0h0l-.1,0-.13,0h-.2l-.07,0-.09,0-.1-.11-.06-.1a.35.35,0,0,1-.06-.14l0-.18V6.12A.77.77,0,0,1,28.28,6Z"/><polygon class="cls-2" points="29.1 6.82 29.11 6.82 29.11 6.82 29.1 6.82"/><polygon class="cls-2" points="30.9 0.76 30.9 0.76 30.9 0.77 30.9 0.76"/><polygon class="cls-2" points="34 1.93 34.01 1.94 34.01 1.94 34 1.93"/><polygon class="cls-2" points="31.11 5.34 31.11 5.34 31.11 5.34 31.11 5.34"/><path class="cls-2" d="M31.09,5.76h0a2.33,2.33,0,0,0,.05.28h0a1.09,1.09,0,0,0,.3.37,1.46,1.46,0,0,0,.76.34h.13a1.38,1.38,0,0,0,.52-.1,1.48,1.48,0,0,0-.27.29c-.43.77-.11,2.14.9,2.21h0c1.69,0,1.65-2.7,0-2.82a1,1,0,0,0-.41.12,1.43,1.43,0,0,0-.69-2.37,1.68,1.68,0,0,0-.45,0l0,0-.19.11h0l-.05,0h0a.27.27,0,0,0-.08.07l-.06.06-.09.1-.06.06-.1.14-.06.12h0s0,.08-.05.13,0,.07,0,.11h0l0,.13a.2.2,0,0,0,0,.11h0l0,.14h0v.11A.66.66,0,0,0,31.09,5.76Zm2.18,1.43.08-.07.09,0s0,0,0,0l.06,0a.75.75,0,0,1,.26,0l.14,0,.12.08.13.15h0a1,1,0,0,1,.13.18l0,.1a.47.47,0,0,1,0,.1.77.77,0,0,1,0,.26,1.51,1.51,0,0,1,0,.3,1,1,0,0,1-.11.29,1.12,1.12,0,0,1-.25.28.46.46,0,0,1-.29.11h0a1.47,1.47,0,0,1-.29,0,.78.78,0,0,1-.2-.11h0l-.06,0-.09-.06-.08-.09a.75.75,0,0,1-.13-.25,1.09,1.09,0,0,1,0-.18,1.2,1.2,0,0,1,0-.19A1.58,1.58,0,0,1,33,7.49a.58.58,0,0,1,.18-.23h0ZM31.35,5.51s0,0,0-.08v0s0-.08,0-.11l0-.09a.41.41,0,0,1,.05-.09l0-.07a.1.1,0,0,1,0,0l.05,0,0,0h0a.6.6,0,0,1,.08-.08l.09-.06.1-.07h0L32,4.7h0l.13-.07.11,0a.38.38,0,0,1,.15,0l.13,0,.13.06.08,0a.18.18,0,0,1,.07,0h0l.06,0,.07.09,0,.05L33,5h0a.35.35,0,0,0,.05.08l0,.06a.43.43,0,0,1,0,.07s0,0,0,.07a.24.24,0,0,1,0,.08s0,.07,0,.1h0a.36.36,0,0,1,0,.11v.19s0,0,0,.08a.31.31,0,0,1,0,.13l0,.08a.41.41,0,0,1,0,.09L33,6.21l0,0-.07.06,0,0-.08,0-.1.05-.15,0-.15,0h-.18l-.14,0-.14,0-.08,0-.06,0h0l-.06,0-.07,0-.06,0a.16.16,0,0,1,0-.07h0a.9.9,0,0,0,0-.09V6h0L31.46,6h0l0,0,0,0h0v0h0l0-.06s0,0,0-.06a.17.17,0,0,1,0-.07V5.51Z"/><polygon class="cls-2" points="31.59 6.17 31.59 6.17 31.59 6.18 31.59 6.17"/><polygon class="cls-2" points="31.32 4.76 31.32 4.75 31.32 4.75 31.32 4.76"/><polygon class="cls-2" points="32.78 4.76 32.78 4.76 32.78 4.76 32.78 4.76"/><polygon class="cls-2" points="31.56 4.46 31.57 4.45 31.57 4.45 31.56 4.46"/><path class="cls-2" d="M29.74,7.25l-.1.15h0a.41.41,0,0,0-.05.09l-.05.09,0,.09a.94.94,0,0,0,0,.09l0,.14h0a.31.31,0,0,0,0,.1l0,.18v0h0v0h0a1.09,1.09,0,0,0,0,.18h0v.18l0,.13a.49.49,0,0,1,0,.12v0a1,1,0,0,0,.83.71,1.87,1.87,0,0,0,1.33-.41A1.44,1.44,0,0,0,31.26,7a1.42,1.42,0,0,0-1.51.21A0,0,0,0,1,29.74,7.25Zm0,1.38a2.16,2.16,0,0,1,0-.35A.77.77,0,0,1,29.93,8h0L30,7.88l.09-.09.06,0a1.07,1.07,0,0,1,.19-.18l.11,0,.13,0h.18a.68.68,0,0,1,.2,0h0l.08,0,.09.07.08.06.08.06h0l.09.07a.47.47,0,0,1,.06.09l.05.1,0,.09s0,.08,0,.11,0,.09,0,.13a1.7,1.7,0,0,1,0,.22.44.44,0,0,1-.05.22l-.11.18a.86.86,0,0,1-.13.14l-.14.11-.19.1-.08,0h-.12l-.1,0-.11,0h0l-.13,0h0l-.12,0-.11,0h0l-.11-.05a.32.32,0,0,1-.1-.1.47.47,0,0,1-.06-.09.2.2,0,0,1,0-.08h0a.35.35,0,0,1-.06-.14.69.69,0,0,1,0-.2Z"/><polygon class="cls-2" points="30.64 11.88 30.64 11.88 30.64 11.88 30.64 11.88"/><polygon class="cls-2" points="34.3 5.04 34.3 5.03 34.3 5.03 34.3 5.04"/><polygon class="cls-2" points="34.48 4.64 34.49 4.63 34.49 4.63 34.48 4.64"/><polygon class="cls-2" points="35.71 11.42 35.71 11.41 35.71 11.41 35.71 11.42"/><polygon class="cls-2" points="35.73 11.44 35.73 11.43 35.73 11.43 35.73 11.44"/><path class="cls-2" d="M36.65,11.37h0Z"/><polygon class="cls-2" points="29.61 13.69 29.61 13.68 29.61 13.68 29.61 13.69"/><polygon class="cls-2" points="35.73 3.87 35.73 3.88 35.74 3.88 35.73 3.87"/><polygon class="cls-2" points="35.76 3.91 35.76 3.91 35.77 3.92 35.76 3.91"/><path class="cls-2" d="M37.56,9.07v0h0Z"/><path class="cls-2" d="M37.54,9.43h0Z"/><polygon class="cls-2" points="36.82 3.89 36.82 3.88 36.81 3.88 36.82 3.89"/><path class="cls-2" d="M37.72,8.08a.1.1,0,0,0,0,0s0,0,0-.08a.9.9,0,0,0,.28-.13h0a.07.07,0,0,1,.07,0h0a1.65,1.65,0,0,0,.16-2.14,1,1,0,0,0-.79-.55c-.13,0-.33,0-.51.08L36.78,5l0,0a1.38,1.38,0,0,0,.25-.48A1.26,1.26,0,0,0,35.31,3l-.1-.07a1,1,0,0,0,.15-.4,1.18,1.18,0,0,0-.43-1.15l0,0s0,0,0,0l-.23-.14H34.5l-.06,0h-.07l0,0h0l-.07,0,0,0h0l0,0h0l0,0,0-.06s0,0,0-.06,0,0,0,0v0h0s0,0,0,0l0-.07,0-.1h0l0-.08h0l0,0h0s0,0-.05,0h-.19l0,0,0,0,0,0,0,0,0,0v0h0a.43.43,0,0,1,0,0v0h0a1.31,1.31,0,0,1,0,.34l0,0s0,0,0,.07a.56.56,0,0,1,0,.12.19.19,0,0,1-.05.09.09.09,0,0,1,0,.05v0a.1.1,0,0,0-.05,0h0l0,0,0,0h-.06a0,0,0,0,1,0,0s0,0,0,0l-.11-.05a.33.33,0,0,0-.14-.1.87.87,0,0,0-.19-.71A1.69,1.69,0,0,0,30.6.39a.79.79,0,0,0-.35-.3A1.35,1.35,0,0,0,28.49,1a1.37,1.37,0,0,0-1.38,1,.75.75,0,0,0-.78-.26,1.43,1.43,0,0,0-1.06,1.68,1,1,0,0,0-.37.14s0,0,0,0a.09.09,0,0,1-.06.06l-.11.1-.11.08,0,0h0l0,0a1.51,1.51,0,0,0-.21,1.47,1.66,1.66,0,0,0-.67.25,1.49,1.49,0,0,0-.12.14h0l0,0h0l-.06.07h0v0h0a.21.21,0,0,1,0,.11h0a1.2,1.2,0,0,0,.54,1.43H24a1.1,1.1,0,0,0,.26.66c-.53-.23-1.19.52-1.12,1.14a1.63,1.63,0,0,0,.74,1.22,1,1,0,0,0,.83.21c0,.09.1.16.15.25s0,0,0,.08a1.72,1.72,0,0,0,.77,2.25.91.91,0,0,0,.39.08,4.22,4.22,0,0,0,.7-.1h0a1.93,1.93,0,0,0,0,.34c0,.49.2,1.14.75,1.24a1.55,1.55,0,0,0,.31,0,1.38,1.38,0,0,0,.56-.12,1.54,1.54,0,0,0,.73.76.71.71,0,0,0,.32.07.79.79,0,0,0,.42-.12,1.59,1.59,0,0,0,.43-.22l.13.2a.64.64,0,0,0,.52.25.86.86,0,0,0,.41-.1.93.93,0,0,0,.7-.51s0-.09,0-.14a2.49,2.49,0,0,0,.46.46.64.64,0,0,0,.35.1,2.2,2.2,0,0,0,.71-.19A.9.9,0,0,0,34,15a1.63,1.63,0,0,0,.17-.35.54.54,0,0,0,.24.09h.09a1.13,1.13,0,0,0,1-.81l.12,0a1.39,1.39,0,0,0,.87-.45,1.64,1.64,0,0,0,.47-1.16.8.8,0,0,0-.08-.4,1.06,1.06,0,0,0,.69-1,1.4,1.4,0,0,0,.48-.26,1.35,1.35,0,0,0,.56-1.19A1.75,1.75,0,0,0,37.72,8.08Zm-1.8,1.13,0,0,0-.05h0l-.06,0L35.72,9a.49.49,0,0,1,0-.16h0v0h0s0,0,0-.08a.83.83,0,0,1,0-.15.65.65,0,0,1,0-.24l0-.11,0-.09a1.74,1.74,0,0,1,.11-.18,1,1,0,0,1,.33-.3.46.46,0,0,1,.21,0,.51.51,0,0,1,.17.07h0l.07,0h0l.12.06a.52.52,0,0,1,.1.11l0,.09a.58.58,0,0,1,.05.14v0h0c0,.05,0,.09,0,.14a.27.27,0,0,1,0,.13s0,.1,0,.15l0,.13a.88.88,0,0,1,0,.15.49.49,0,0,0,0,.11c0,.08-.09.16-.14.24a.32.32,0,0,1-.11.12.62.62,0,0,1-.19.07h0l-.14,0-.09,0-.08,0Zm.14-3.1a.86.86,0,0,1-.13.14.36.36,0,0,1-.15.08l-.1,0a.16.16,0,0,1-.1,0h0l-.18,0h0l-.1,0-.09,0L35,6.2l-.08-.08,0-.07h0l0-.06,0-.05-.06-.1a.5.5,0,0,1,0-.13,1.13,1.13,0,0,1,0-.18,1.09,1.09,0,0,1,0-.18,1.52,1.52,0,0,1,0-.21A.44.44,0,0,1,34.72,5l.08-.12.06-.07h0A.69.69,0,0,1,35,4.65l.09-.05a.11.11,0,0,1,.08,0l0,0a.5.5,0,0,1,.13,0h.11l.07,0h.09l.12,0,.15.12h0l.09.07.08.09a.59.59,0,0,0,0,.08.75.75,0,0,1,.06.13l0,.11a.14.14,0,0,0,0,.06l0,.07h0v0l0,.08a.13.13,0,0,1,0,.06v.06a1,1,0,0,1,0,.24l0,.09-.06.1A.71.71,0,0,1,36.06,6.11Zm-1.13-1.9a.06.06,0,0,1,0-.06.06.06,0,0,1,.06.06.06.06,0,0,1,0,.06A.06.06,0,0,1,34.93,4.21Zm1.78,5.28h0a.14.14,0,0,1,0-.06l0,0a.1.1,0,0,0,0-.05.18.18,0,0,0,0-.07h0l.07-.11L37,9.07h0l0,0h0L37,9l0,0a.37.37,0,0,1,.05-.11s0-.08,0-.09a.05.05,0,0,1,.09,0s0,.06,0,.09,0,.07,0,.11h0V9h0a1,1,0,0,1,0,.17h0a.11.11,0,0,1,0,0,.09.09,0,0,0,0,.05V9.3c0,.08,0,.17,0,.25s0,.11,0,.16a.07.07,0,0,1-.06,0h0s0,0,0,0h0l0,0h0l0,0h0l-.06,0s-.05,0-.06,0l0,0a1.1,1.1,0,0,0-.18,0Zm.51-4h.2a.52.52,0,0,1,.33.14l.12.12a1.18,1.18,0,0,1,.13.18.41.41,0,0,1,.07.11,1.46,1.46,0,0,1,.07.19l0,.17c0,.06,0,.12,0,.19a1.54,1.54,0,0,1,0,.3.47.47,0,0,1,0,.17.37.37,0,0,1-.05.11h0L38,7.27l-.1.1a.34.34,0,0,1-.16.1h0a.21.21,0,0,1-.11,0h0a.34.34,0,0,1-.08-.09.65.65,0,0,1,0-.13,1.16,1.16,0,0,1,0-.18,2.56,2.56,0,0,0-.05-.27,2.51,2.51,0,0,0,0-.27c0-.08,0-.17,0-.26L37.22,6h0a.78.78,0,0,0-.05-.14.3.3,0,0,0,0-.1l0-.1,0-.06h0a.13.13,0,0,1,.05-.13A.13.13,0,0,1,37.22,5.44ZM35.77,3.23h.11a.21.21,0,0,1,.11,0,.86.86,0,0,1,.38.1h0a1.18,1.18,0,0,1,.19.11.67.67,0,0,1,.15.14.48.48,0,0,1,.08.16.19.19,0,0,0,0,.07.19.19,0,0,0,0,.08h0s0,.08,0,.13a.4.4,0,0,1,0,.11l0,.11,0,.08,0,.07h0c0,.06,0,.11-.08.16l0,.06h0s0,0-.05.06h-.11a.18.18,0,0,1-.07,0h0l0,0,0,0h0l0-.06h0v0l0,0,0,0h0a.23.23,0,0,1-.07-.07s0,0,0,0l-.06-.1h0l-.07,0s0,0-.05,0L35.83,4a.27.27,0,0,1-.07-.08l0,0h0l-.11-.09-.07-.07,0,0s0,0-.06-.06l-.05-.06s0,0,0,0a.12.12,0,0,1,0-.1s0-.06,0-.08l.08,0,.09,0A.67.67,0,0,1,35.77,3.23Zm-1.7.58H34l-.15,0-.11,0-.12,0-.17-.13-.1-.09-.18-.19a.76.76,0,0,1-.08-.21,2,2,0,0,1,0-.24,1.16,1.16,0,0,1,0-.18V2.62a.41.41,0,0,1,0-.19.05.05,0,0,1,0-.07l0,0a1,1,0,0,1,0-.1l.06-.07s0,0,.07-.06h0a.44.44,0,0,1,.15,0,.59.59,0,0,1,.19,0h0l.12,0,.13.06a.75.75,0,0,1,.27.23l.06.08,0,.07a.57.57,0,0,1,.08.13l0,.13a.68.68,0,0,1,0,.19s0,0,0,.07v.06a.83.83,0,0,1,0,.15v.16A.49.49,0,0,1,34.07,3.81Zm.24-2.45h.23a.21.21,0,0,1,.1,0,1.67,1.67,0,0,1,.16.12h0l.05.05,0,.07a.35.35,0,0,1,.05.08l0,.08a.5.5,0,0,0,0,.12A.19.19,0,0,1,35,2h0l0,.19v.09a.3.3,0,0,1,0,.1.56.56,0,0,1,0,.12l0,.09a.34.34,0,0,1-.12.12h0l0,0h-.07l-.08,0s0,0,0,0h0v0h0l0,0,0,0,0,0h0l0,0,0,0h0l0-.06,0,0h0l0,0,0,0h0l0,0,0,0h0a.12.12,0,0,1-.05-.05l0,0h0v0l0,0,0,0h0L34,1.94h0l-.08-.05h0l-.09,0h0l-.07,0-.06,0a.1.1,0,0,1-.05-.1.14.14,0,0,1,.05-.1h0a.46.46,0,0,1,.07-.07h0l0,0,.05,0h0L34,1.39l.18,0ZM30.89.78h0L31,.64,31.21.5h0l.14-.08a.65.65,0,0,1,.2,0h.16l.17,0,.07,0,.09.06a.54.54,0,0,1,.12.09l.1.1a.41.41,0,0,1,.07.11h0a.3.3,0,0,1,.06.11.56.56,0,0,1,0,.12.82.82,0,0,1,0,.27s0,.05,0,.07a.36.36,0,0,1,0,.09l-.12.12a.94.94,0,0,1-.32.11c-.12,0-.24,0-.36,0h-.18l-.13,0h0a1.6,1.6,0,0,1-.21,0,.65.65,0,0,1-.17-.08.52.52,0,0,1-.11-.1l-.07-.09a.38.38,0,0,1,0-.1v0a.16.16,0,0,1,0-.1l0-.05,0,0h0l0-.06h0l.06-.09Zm-2,.14a.43.43,0,0,0,0-.07.59.59,0,0,1,0-.08l0-.05A.66.66,0,0,1,29.2.58a.82.82,0,0,1,.2-.12L29.54.4a1,1,0,0,1,.29,0,.58.58,0,0,1,.21.1.1.1,0,0,1,.05,0,.25.25,0,0,1,0,.07.24.24,0,0,1,0,.08.06.06,0,0,1,0,0,.14.14,0,0,1,0,.09.12.12,0,0,1,0,.09h0a.13.13,0,0,1-.09,0h-.08L29.71,1l-.22.08-.23.05h-.07s0,0,0,0H29A.13.13,0,0,1,28.91,1,.36.36,0,0,1,28.93.92ZM27.54,2.38a.39.39,0,0,1,0-.14,1,1,0,0,1,.07-.15.71.71,0,0,1,.1-.14A1.07,1.07,0,0,1,28,1.76l.12-.07.07,0h0a.09.09,0,0,1,.07,0,.48.48,0,0,1,.12,0,.27.27,0,0,1,.12,0h0l.15.05h0l.1.06.07.06A.42.42,0,0,1,29,2a.49.49,0,0,1,0,.12.2.2,0,0,1,0,.11.74.74,0,0,1-.1.22h0a1.42,1.42,0,0,1-.25.24,1.57,1.57,0,0,1-.37.22l-.16,0h-.17l-.07,0-.09,0-.06-.06s0,0-.05-.07a.41.41,0,0,1-.07-.15.69.69,0,0,1,0-.13A.68.68,0,0,1,27.54,2.38ZM25.63,3a1.15,1.15,0,0,1,.11-.31.8.8,0,0,1,.18-.27,1.71,1.71,0,0,1,.2-.18h0l.15-.08a.51.51,0,0,1,.17,0h.14a.18.18,0,0,1,.1,0s0,0,.07.05h0a.11.11,0,0,1,0,.15h0v0s0,0,0,.08-.05.09-.07.14a4,4,0,0,1-.23.34h0l-.14.16a2,2,0,0,1-.27.23.39.39,0,0,1-.21.08h0c-.05,0-.09,0-.11-.06s0,0,0-.05l0,0s0-.12,0-.19Zm1,1.15a2.06,2.06,0,0,1,.26,0,.75.75,0,0,1,.15,0l.12,0h0l.14,0,.12.09a.51.51,0,0,1,.09.13.48.48,0,0,1,.05.17.57.57,0,0,1,0,.26l0,.13-.05.11a1,1,0,0,1-.13.23.46.46,0,0,1-.12.12.86.86,0,0,1-.2.13l-.14.08-.13,0h-.16a.59.59,0,0,1-.22-.14h0a.58.58,0,0,1-.11-.15,1.18,1.18,0,0,1-.07-.2s0-.06,0-.09V5a1,1,0,0,1,0-.24h0a.44.44,0,0,1,.06-.16s0,0,0,0a.42.42,0,0,1,0-.15.41.41,0,0,1,.05-.09l.09-.07a.48.48,0,0,1,.18-.06ZM23.88,7a.12.12,0,0,1-.05-.07.75.75,0,0,1-.07-.12.88.88,0,0,1-.06-.27.64.64,0,0,1,.07-.27.35.35,0,0,1,.05-.08.4.4,0,0,1,.12-.1A.37.37,0,0,1,24.06,6h0l.06,0,.06,0,.12,0,.11,0h.36l.13,0,0-.06a.33.33,0,0,0,.21-.47v0l-.08,0h-.21l-.05,0-.06,0-.07,0-.08-.12s0-.09,0-.13,0-.09,0-.13a.76.76,0,0,1,0-.15.85.85,0,0,1,.06-.17l.06-.12.1-.15a.81.81,0,0,1,.3-.22l.18-.05a.41.41,0,0,1,.19,0l.13,0,.07,0,.06.07,0,0,.08,0,0,.07v0a.57.57,0,0,1,0,.13.47.47,0,0,1,0,.17.36.36,0,0,0,0,.09v0A1.26,1.26,0,0,0,26.4,6l.21,0a1.43,1.43,0,0,0,.86-.44,1.14,1.14,0,0,0-.3-2,1,1,0,0,0-.71,0,4.79,4.79,0,0,0,.48-.53,1.79,1.79,0,0,0,.25-.31c.1.28.28.52.58.44a.78.78,0,0,0,.22,0,1.78,1.78,0,0,0,1.11-.51.37.37,0,0,0,0,.29,1.34,1.34,0,0,0,.52,1.1,1.49,1.49,0,0,0,.72.19,1.35,1.35,0,0,0,.87-.3,1.41,1.41,0,0,0,.31-1.2A1.41,1.41,0,0,0,31,2.18.93.93,0,0,0,30.13,2a1.09,1.09,0,0,0-.71.28,1,1,0,0,0,0-.35V1.9h0v0h0l0-.05s0,0,0,0l0-.07h0a.25.25,0,0,0,0-.07h0l0-.06s0-.05,0-.07a.14.14,0,0,1,.08-.1.25.25,0,0,1,.12,0h0l.28,0h0l.15,0h.19a.75.75,0,0,1,.13.06l0,0s0,0,0,0,0,0,0,0v0a0,0,0,0,0,0,0h0v0h.05l0,0h0l.37.22h0l0,0A1.1,1.1,0,0,0,31.3,2h.18c.2,0,.4-.05.6-.06a.88.88,0,0,0,.42-.09l.1-.07.1.08.12.06h0s0,0,0,0a.08.08,0,0,1,0,.07V2.1l0,.06,0,.06h0v0l-.09.23,0,.13A1.49,1.49,0,0,0,33.71,4h.13a1,1,0,0,0,.81-.45l0-.06a.49.49,0,0,0,0-.12h0a.09.09,0,0,0,0,0v0a.05.05,0,0,1,0,0h0a.1.1,0,0,1,.09,0h0l0,0,0,0,.07.08h0a.12.12,0,0,0,0,0h0l0,0h0v0h0l.12.14h0l.07.07.06,0,0,0,0,0a0,0,0,0,1,0,.07h0l0,0h-.07l0,0h0L35.1,4,35,4.1h0l0,0-.07,0h0a.75.75,0,0,0-.15.16h0l0,0a.13.13,0,0,1-.07,0l0,0-.08.1-.06.09a.57.57,0,0,0-.08.13h0s0,.09,0,.14L34.3,5l0,.12s0,.07,0,.11h0s0,0,0,.06h0s0,0,0,0h0a.41.41,0,0,1,0,.11s0,0,0,.07h0v0l0,.15a1.75,1.75,0,0,0,.69.85,1,1,0,0,0,.48.12,1.34,1.34,0,0,0,1-.48h0a.56.56,0,0,0,0-.08h0v0l0-.06h0l0-.07a.1.1,0,0,1,0-.05.08.08,0,0,1,.08,0h0l0,0a.09.09,0,0,0,0,0V6c0,.08.05.16.07.24h0v.06h0l0,.1h0c0,.06,0,.11,0,.16a1,1,0,0,1,0,.14h0c0,.13.07.26.1.4l0,.21a.45.45,0,0,1,0,.11.06.06,0,0,1-.06,0h0a0,0,0,0,1,0,0h0l-.07,0v0a1,1,0,0,0-.56-.3,1.25,1.25,0,0,0-1.18,1.18,1.3,1.3,0,0,0,.76,1.33.9.9,0,0,0,.27.07,1.18,1.18,0,0,0-.42.35c-.11.17-.29.39-.2.61a1.32,1.32,0,0,0,.11.76v0l0,0h0l.06.05,0,0,0,.05h0l0,0,0,0h0a.19.19,0,0,1,0,.07.3.3,0,0,1-.07.15l-.13.18-.08.09-.09.11a.86.86,0,0,1-.07.1l-.08.09-.07.07-.06.08-.09.1,0,0-.06,0a.11.11,0,0,1-.07,0s0-.07-.06-.1,0-.08,0-.11h0a.91.91,0,0,0-.66-.64.36.36,0,0,0-.15,0c1.43-.12,1.72-2.6.09-2.64a1.36,1.36,0,0,0-1.16.89,1.27,1.27,0,0,0,0,.92,1,1,0,0,0,1,.84h0a1.83,1.83,0,0,0-1.19.84h0a.35.35,0,0,1,0,.14c0,.05,0,.1,0,.15h0v0a0,0,0,0,1,0,0h0s0,.07,0,.11v0a0,0,0,0,0,0,0,.14.14,0,0,0,0,.07l0,.06v0s0,0,0,0v0a.08.08,0,0,1,0,.05h0s0,0,.05,0l0,.06h0a.86.86,0,0,0,.07.1l0,0,0,0,.06.05a.15.15,0,0,1,0,.13.1.1,0,0,1-.08.07s0,0,0,0l-.09,0-.1,0h-.09l-.12,0h-.06a2.83,2.83,0,0,1-.4.08h0l-.13,0h-.35a.1.1,0,0,1-.08-.05.07.07,0,0,1,0,0s0,0,0-.05a0,0,0,0,1,0,0s0,0,0,0h0v0h0a.07.07,0,0,1,0-.05l0-.08h0c0-.07.07-.12.1-.19h0l0-.06a1.28,1.28,0,0,0-.6-1.23,1.31,1.31,0,0,0,.05-2.61c-.64-.15-1.17.45-1.37,1a1.48,1.48,0,0,0,.65,1.48,1,1,0,0,0-1,.61,2.24,2.24,0,0,0-.13.48h0a1.55,1.55,0,0,1,0,.21h0v0h0s0,0,0,.05h0l.05.09h0l0,.05a.08.08,0,0,1,0,.08s0,0-.05,0h0a.08.08,0,0,1-.07,0h-.07l-.1,0h-.1l-.11,0h0l-.09,0-.09,0h0l-.06,0h0a.15.15,0,0,1-.13-.09v0a0,0,0,0,1,0,0v0l0,0s0,0,0-.05a.35.35,0,0,0,.05-.08l0,0,.05-.05a.94.94,0,0,0,.21-.45,1.24,1.24,0,0,0-.75-1.19,1.09,1.09,0,0,0,.33-.19,1.37,1.37,0,0,0,0-2.35,1.35,1.35,0,0,0-1.93.92,1.37,1.37,0,0,0-.52-.95l.07,0,.17,0c.85,0,1.37-1.06,1.23-1.83a1,1,0,0,0-1.12-.69,1.89,1.89,0,0,0-.69.41,1.16,1.16,0,0,0-.05-.28,1,1,0,0,0-1.2-.52,1.2,1.2,0,0,0-.3.15v0h0l-.08.1-.06.06,0,0,0,0,0,0h0l0,.09a.3.3,0,0,0,0,.08h0s0,0,0,0v0l0,0h0l0,0h0a.12.12,0,0,1-.08,0Zm7.23-3.5,0,.1a.8.8,0,0,1-.08.16l-.07.09-.06,0a1,1,0,0,1-.16.12l-.08,0-.08,0h0l-.17,0h-.19l-.07,0-.09,0L29.9,4a.55.55,0,0,1-.19-.18h0a.49.49,0,0,1-.08-.23.57.57,0,0,1,0-.13,2,2,0,0,1,0-.24l.06-.2.06-.16,0,0h0c.16-.13.38-.11.58-.17l.07,0h.08a.12.12,0,0,1,.08,0l0,0,.08,0a.18.18,0,0,1,.07.05h0a.18.18,0,0,1,.07.05l.06,0,.07.08a.33.33,0,0,1,.05.12,1.09,1.09,0,0,1,0,.18A1.1,1.1,0,0,1,31.11,3.48Zm2.71,10.08a.23.23,0,0,1-.12,0h-.05a.27.27,0,0,1-.13,0,.29.29,0,0,1-.14-.08.3.3,0,0,1-.09-.13l-.06-.1a.78.78,0,0,1,0-.14.65.65,0,0,1,0-.24.72.72,0,0,1,.09-.2.85.85,0,0,1,.19-.19.59.59,0,0,1,.18-.13l.08,0,.09-.05a.45.45,0,0,1,.11,0,.3.3,0,0,1,.13,0h.06a.16.16,0,0,1,.1,0s.07,0,.1.08l.09.08,0,.08h0a.25.25,0,0,1,0,.07.22.22,0,0,1,0,.08v.1a.36.36,0,0,1,0,.11l0,.12a.39.39,0,0,1-.11.17.08.08,0,0,1,0,0,.91.91,0,0,1-.18.21A.88.88,0,0,1,33.82,13.56Zm-.31-2.21a.26.26,0,0,1-.07-.15,1.09,1.09,0,0,1,0-.18l0-.19a1,1,0,0,1,.11-.28.8.8,0,0,1,.08-.16l.08-.1.09-.12,0,0A.17.17,0,0,1,34,10h0l.1,0,.08,0h0l.15,0,.11,0h0l.1,0,.13.1.08.09a.26.26,0,0,1,.07.11.55.55,0,0,1,0,.17h0a1.5,1.5,0,0,1,0,.2.86.86,0,0,1,0,.23.29.29,0,0,1,0,.09h0l-.06.13a.62.62,0,0,1-.11.17.63.63,0,0,1-.12.11.67.67,0,0,1-.14.09l-.13.05h-.41a.41.41,0,0,1-.16,0l-.11-.07h0A.81.81,0,0,1,33.51,11.35Zm-2.82,2.82a.26.26,0,0,1-.12-.05s-.06,0-.1,0h0l0,0-.08,0-.1-.07h0a.76.76,0,0,1-.09-.09.53.53,0,0,1-.06-.1.69.69,0,0,1,0-.1h0v0a.49.49,0,0,1,0-.12,1,1,0,0,1,.08-.38,1.19,1.19,0,0,1,.09-.15l.06-.06.08-.06a.91.91,0,0,1,.16-.11l.12,0h.16a.22.22,0,0,1,.14,0l.13,0a.57.57,0,0,1,.13.08.39.39,0,0,1,.1.08h0l.05,0a.56.56,0,0,0,.05.08s0,.07,0,.11a.61.61,0,0,1,0,.13.41.41,0,0,0,0,.11.31.31,0,0,0,0,.1l0,.11a.14.14,0,0,1,0,.06l0,.09a.42.42,0,0,1-.09.14L31.2,14l-.12.08a.52.52,0,0,1-.13.06.32.32,0,0,1-.14,0h-.12Zm-.06-2.3h0l-.05-.06h0l-.08-.09a.61.61,0,0,1-.07-.14.58.58,0,0,1,0-.14s0-.06,0-.09a.17.17,0,0,1,0-.1.62.62,0,0,1,0-.19,1.34,1.34,0,0,1,.07-.18,1.63,1.63,0,0,1,.09-.19,1,1,0,0,1,.12-.16h0s0-.09.05-.13a.36.36,0,0,1,.14-.16l.15-.07.17-.06a.62.62,0,0,1,.19,0l.15,0,.13.05a.71.71,0,0,1,.14.1l.09.12.1.13a.69.69,0,0,1,.05.13l0,.09s0,.07,0,.11h0l0,.11a.32.32,0,0,1,0,.14v.13a.76.76,0,0,1,0,.15.52.52,0,0,1-.13.29.4.4,0,0,1-.1.12.6.6,0,0,1-.08.08l-.11.08-.1.07-.15.06-.15,0h-.18l-.07,0-.05,0a.85.85,0,0,1-.17-.06l-.08,0-.06,0-.05,0h0Zm-4.37.24,0,0h0l-.28-.24h0l-.05-.05s-.05,0-.05-.08,0-.05,0-.06,0,0,0,0H26l0,0h0l.05,0h0a1.44,1.44,0,0,0,.66-.75h0a0,0,0,0,1,0-.06v0h0a.07.07,0,0,1,.07,0h0v0a.31.31,0,0,1,0,.08A.1.1,0,0,1,27,11a1,1,0,0,0,.07.15l0,.06v0l.05.06,0,0,0,0a.26.26,0,0,1,0,.09h0l0,0h0a1.37,1.37,0,0,0,.17.17l.1.08a1.26,1.26,0,0,0-.75.48s0,0,0,0l0,.06v0h0v0s0,0-.06.07h-.11l-.05,0h0l-.06-.06h0l0,0v0a1.29,1.29,0,0,0-.17-.16ZM25.55,9.5l.06,0,.09,0h.36l.13,0a.82.82,0,0,1,.2.12.56.56,0,0,1,.17.21h0a.78.78,0,0,1,.05.14l0,.14s0,.09,0,.13a.62.62,0,0,0,0,.13,1.11,1.11,0,0,1,0,.17s0,.07,0,.11,0,.12-.05.18l0,.1a.75.75,0,0,1-.07.12l-.08.1-.13.1-.15.05H26l-.19,0a.59.59,0,0,1-.19-.11h0L25.45,11l-.12-.15v0l0,0h0a1,1,0,0,1-.19-.41s0-.07,0-.11,0-.09,0-.14a.06.06,0,0,0,0,0h0V10a.36.36,0,0,1,0-.11.91.91,0,0,1,.11-.16.93.93,0,0,1,.13-.15l.08-.06.08-.05Zm3.15.29.08.09.08.08a.36.36,0,0,1,.07.1.71.71,0,0,1,.09.28.67.67,0,0,1,0,.28l-.06.21h0a.77.77,0,0,1-.07.16l-.1.15a.55.55,0,0,1-.26.22l-.11,0-.12,0-.08,0H28l-.06,0-.07,0h0a1.36,1.36,0,0,1-.21-.1.43.43,0,0,1-.1-.09.61.61,0,0,1-.07-.1,1.14,1.14,0,0,1-.13-.3.78.78,0,0,1,0-.16,1.23,1.23,0,0,1,0-.19.9.9,0,0,1,.18-.35l.06-.07h0a.83.83,0,0,1,.13-.18.9.9,0,0,1,.19-.15L28,9.63l.1,0h.23l.1,0,.06,0a.1.1,0,0,1,0,0h0l0,0h0Zm.08,3.26a.41.41,0,0,1-.07.11s0,.05-.06.07l-.09.06-.14,0-.14,0h-.15a.64.64,0,0,1-.26-.1h0l-.15-.09h0l-.14-.11a.83.83,0,0,1-.11-.15l0-.08h0l0,0h0s0,0,0,0a.94.94,0,0,1,0-.16.28.28,0,0,1,0-.18.25.25,0,0,1,.12-.11l0,0,.06,0,.14-.07.14,0h.27a.77.77,0,0,1,.25.1.8.8,0,0,1,.17.15l.09.1.06.09a.51.51,0,0,1,.09.16.34.34,0,0,1,0,.2A.47.47,0,0,1,28.78,13.05ZM25.48,8h0l-.06,0-.05.05h0l0,0h0l-.08.08-.07,0-.07,0-.09,0H25a.22.22,0,0,1-.11,0l-.12-.05-.12-.08L24.5,8a.57.57,0,0,1-.08-.13.34.34,0,0,1-.05-.14.59.59,0,0,1,0-.13.53.53,0,0,1-.06-.24.36.36,0,0,1,0-.11l0-.07h0l0,0h0A.78.78,0,0,1,24.43,7a.83.83,0,0,1,.07-.13l.12-.13.07,0,.06-.06.17-.07h.19l.14,0,.12.07h0a.66.66,0,0,1,.18.19A1.17,1.17,0,0,1,25.6,7s0,.1,0,.15,0,.11,0,.17a1.13,1.13,0,0,1,0,.3h0a.51.51,0,0,1,0,.17.27.27,0,0,1-.06.12.38.38,0,0,1-.11.11h0ZM26,7.77a1.75,1.75,0,0,1,.18-.29l.14-.15.07-.06.08,0h0a.77.77,0,0,1,.16-.07.55.55,0,0,1,.22,0H27a.41.41,0,0,1,.28.09.48.48,0,0,1,.09.11l.07.12a.83.83,0,0,1,0,.15.49.49,0,0,1,0,.12.22.22,0,0,1,0,.08v0s0,.08,0,.12a.93.93,0,0,1,0,.13V8l-.06.16a1,1,0,0,1-.07.15l-.08.14-.12.12h0l0,0h0L27,8.7l-.11.08a.33.33,0,0,1-.12.05h-.13l-.11,0-.09-.05-.09-.07-.07-.08-.06-.09h0l-.09-.11A.66.66,0,0,1,26,8.22.8.8,0,0,1,26,8,.6.6,0,0,1,26,7.77ZM24.44,9.86v.21a.14.14,0,0,1,0,.09v0h0v0s0,0,0,0a.12.12,0,0,1,0,.1.12.12,0,0,1-.09.05h0a.24.24,0,0,1-.14,0L24,10.26l-.05,0-.16-.09a.75.75,0,0,1-.17-.14l-.08-.09-.06-.09a.74.74,0,0,1-.12-.38,1.08,1.08,0,0,1,0-.18.76.76,0,0,1,0-.21.44.44,0,0,1,.05-.15.54.54,0,0,1,.07-.13h0l.08-.1.09-.1.11-.08a.52.52,0,0,1,.13-.06.14.14,0,0,1,.11,0l.06,0a.13.13,0,0,1,.07.06.4.4,0,0,1,.07.13.61.61,0,0,0,.05.12,2,2,0,0,1,.06.26h0a.61.61,0,0,1,0,.14.41.41,0,0,1,0,.11h0s0,0,0,.06,0,0,0,.08v0a.3.3,0,0,1,0,.1.19.19,0,0,1,0,.08s0,.06,0,.08a.19.19,0,0,1,0,.12Zm.12-1.4-.07-.09a1.5,1.5,0,0,0,.42.15l.19,0a.7.7,0,0,0,.48-.2,1.49,1.49,0,0,0,.62.75.72.72,0,0,0-.39,0,1.53,1.53,0,0,0-.87.49A3.31,3.31,0,0,0,24.56,8.46Zm1.86,4.46h-.53l-.22,0h0l-.17-.07-.13-.07-.15-.11-.12-.12a1.19,1.19,0,0,1-.09-.15.77.77,0,0,1-.05-.19A1,1,0,0,1,25,12a1.23,1.23,0,0,1,0-.19v0a.22.22,0,0,0,0-.08l0-.07,0-.09h0a.14.14,0,0,1,0-.06.13.13,0,0,1,.12,0h0a.16.16,0,0,1,.08.06l0,0h0l0,0,.05.06.07.09h0a.39.39,0,0,0,.08.1.16.16,0,0,1,0,.07.08.08,0,0,1,0,0l0,.06v0l.07.11h0s.1.11.16.16,0,0,0,0h0l0,0h0l0,0h0l.07,0,.05.05.05,0,.07.05h0l0,0h0l.09.05.06.06h0a.09.09,0,0,1,0,.06s0,0,0,0S26.45,12.91,26.42,12.92Zm1.72,1.3h0l-.14.11-.08.06-.07,0a.47.47,0,0,1-.15.06.45.45,0,0,1-.16,0h0l-.14,0a.31.31,0,0,1-.14-.09.41.41,0,0,1-.08-.13.64.64,0,0,1-.08-.14l0-.14s0-.08,0-.12a.3.3,0,0,1,0-.13.24.24,0,0,0,0-.08h0v0a.49.49,0,0,1,0-.12s0,0,0,0h0s0,0,0,0a.18.18,0,0,1,.07,0h.07a.17.17,0,0,1,.06.06h0l0,0,0,0h0l.19.12h0a2.33,2.33,0,0,0,.7.28h0a.06.06,0,0,1,.05.06.19.19,0,0,1,0,.08l-.11.11Zm1.85.43h0a.36.36,0,0,1,0,.09s0,0,0,.06l-.05.06a1.85,1.85,0,0,1-.14.14.61.61,0,0,1-.16.12.53.53,0,0,1-.24.08h-.1l-.1,0h0L29,15.12l-.08-.07a.76.76,0,0,1-.08-.11s0-.09,0-.13a.43.43,0,0,1,0-.11.59.59,0,0,1,0-.14.45.45,0,0,1,0-.11.17.17,0,0,1,0-.1h0a.21.21,0,0,0,0-.06h0l0-.07a.12.12,0,0,1,.06-.06v-.06a6.26,6.26,0,0,0,1.1.26l0,0,0,0s.05,0,.05,0a0,0,0,0,1,0,0,.13.13,0,0,1,0,.06l-.06.11Zm1.7.14h0a.08.08,0,0,1,0,0h0s0,.05,0,.08a.6.6,0,0,1-.09.13l-.12.11-.07.07a.62.62,0,0,1-.26.12h-.19s-.07,0-.09,0a.21.21,0,0,1-.1-.06l-.09-.07-.05-.1h0A.31.31,0,0,1,30.5,15s0,0,0-.07a.19.19,0,0,1,0-.07h0l.08-.1h0l0-.05h0a.13.13,0,0,1,0-.06h0l0-.05h0l.08,0h.56a.32.32,0,0,1,.09,0h0l.07,0,.07,0h0a.39.39,0,0,1,.11.06h0l0,0h0a.08.08,0,0,1,0,.05s0,0,0,0l0,0h0a.05.05,0,0,1,0,.07Zm2-.27a.63.63,0,0,1-.09.24h0a1.31,1.31,0,0,1-.17.24.41.41,0,0,1-.12.11l-.08,0-.1,0-.13,0h-.18a.33.33,0,0,1-.16-.07l-.09-.06L32.51,15a.18.18,0,0,1-.07,0l-.06-.07s0,0-.05-.05a.25.25,0,0,1,0-.07.11.11,0,0,1,0-.08s0,0,.05-.07h0a.1.1,0,0,1,.09,0h0l.06,0,.12,0,0,0h0l.17-.05.12,0h0l.16,0h0l.19-.08.09,0h.05l.06-.05v0l0,0h.1s0,0,0,.06h0a.09.09,0,0,1,0,.07A.29.29,0,0,1,33.72,14.52Zm1.27-.6a1,1,0,0,1-.06.18,1,1,0,0,1-.08.15h0a.37.37,0,0,1-.15.13.45.45,0,0,1-.16,0h0a.47.47,0,0,1-.17,0,.24.24,0,0,1-.11-.06.47.47,0,0,1-.06-.09h0s0-.06,0-.09a.12.12,0,0,1,0-.1l.06,0,.06-.05h0l.11-.09.18-.12h0l.15-.12.09-.06.06,0h0a.14.14,0,0,1,.14.07.17.17,0,0,1,0,.1v.09A.61.61,0,0,1,35,13.92Zm1.52-1.1-.06.16-.09.14a.71.71,0,0,1-.1.14,1.29,1.29,0,0,1-.21.19.68.68,0,0,1-.21.1l-.13,0h0l-.13,0-.11-.08h0a.39.39,0,0,1-.08-.1.5.5,0,0,1,0-.12.08.08,0,0,1,0-.05s0,0,0,0v0h0l0,0c.16-.13.29-.28.39-.36a3.86,3.86,0,0,0,.42-.66v0h0v0a.11.11,0,0,1,.13-.07.11.11,0,0,1,.08.07.69.69,0,0,1,0,.13l0,.07s0,.06,0,.09a.5.5,0,0,0,0,.12.33.33,0,0,1,0,.14Zm.64-1.58s0,0,0,.07a.41.41,0,0,1-.05.09.12.12,0,0,0,0,0v0l-.09.08-.12.06-.15,0h-.17l-.09,0-.07,0-.08,0,0,0-.08-.07a.41.41,0,0,1-.09-.1.6.6,0,0,1-.09-.15L35.91,11a1.27,1.27,0,0,1,0-.34,1.11,1.11,0,0,1,0-.17.35.35,0,0,1,0-.13.83.83,0,0,1,.08-.12l.07-.06h0a.24.24,0,0,1,.09-.08l.09-.05.11,0,.09,0h.12l.11.05.06,0,.05,0a.47.47,0,0,1,.1.1.69.69,0,0,1,.1.17h0a1,1,0,0,1,.06.16v0h0v0c0,.07,0,.15,0,.22a1.13,1.13,0,0,1,0,.25A1.21,1.21,0,0,1,37.15,11.24Zm1.06-1.72a1.06,1.06,0,0,1,0,.31l0,.07a.76.76,0,0,1-.12.19,1.49,1.49,0,0,1-.12.14h0a.86.86,0,0,1-.14.13l-.1.06h-.17a.08.08,0,0,1,0,0,.21.21,0,0,1-.05-.13.49.49,0,0,1,0-.12.76.76,0,0,0,0-.15h0a.49.49,0,0,1,0-.12.17.17,0,0,1,0-.07l0-.05h0l0-.09a1.09,1.09,0,0,1,.05-.17v0l0-.07s0,0,0-.07a.86.86,0,0,0,0-.16V9.09a.76.76,0,0,0,0-.15V8.76c0-.07,0-.14,0-.21V8.47a.16.16,0,0,1,.09-.07h.07l0,0a.41.41,0,0,1,.07.11.14.14,0,0,1,0,.06l.05,0,.06.07a.71.71,0,0,1,.1.14,1.15,1.15,0,0,1,.14.32.33.33,0,0,1,0,.15A1.33,1.33,0,0,1,38.21,9.52Z"/><path class="cls-2" d="M37.62,10.19h0l0,0Z"/><polygon class="cls-2" points="33.12 14.43 33.11 14.43 33.11 14.43 33.12 14.43"/><path class="cls-2" d="M33.33,14.35h0Z"/><path class="cls-2" d="M31,15.17h0Z"/><path class="cls-2" d="M31.2,15.11l0,0h0Z"/><path class="cls-2" d="M30.79,15.08h0v0Z"/><polygon class="cls-2" points="30.79 15.08 30.79 15.08 30.79 15.08 30.79 15.08"/><path class="cls-2" d="M35.5,13.19h0v-.05h0Z"/><path class="cls-2" d="M30,.91h0Z"/><path class="cls-2" d="M29.92.93h0Z"/><path class="cls-2" d="M33.63.42l0,0h0Z"/><polygon class="cls-2" points="33.62 0.43 33.62 0.43 33.62 0.43 33.62 0.43"/><path class="cls-3" d="M39,15.92a.15.15,0,0,1,0-.07.07.07,0,0,0,0,.05h0v0Z"/><path class="cls-3" d="M32.21,17.16h-.05Z"/><path class="cls-4" d="M44.72,16.27c.16-.44.31-.88.47-1.31a.61.61,0,0,0-.2-.69A.82.82,0,0,0,45,14a6.17,6.17,0,0,0-.19-.61v0a.47.47,0,0,0-.06-.15c-.1-.25-.21-.5-.34-.75a.86.86,0,0,0-.14-.18,3.51,3.51,0,0,0-1.05-1.73,5.65,5.65,0,0,0-1.5-.62,1.64,1.64,0,0,0-.5-.14h0l-.19,0a.91.91,0,0,0-1,.52.71.71,0,0,0-.38.3c-.37.54-1,.42-1.37,0a1,1,0,0,0-1.09-.24,2.34,2.34,0,0,0-.91.86,4.49,4.49,0,0,0-1.07,3.5.58.58,0,0,0-.06.29c0,.12,0,.23,0,.34a.67.67,0,0,0-.1.58,2.24,2.24,0,0,0,.11.34.64.64,0,0,0,.08.86l.52.48a5.85,5.85,0,0,0,3.59,2.15.8.8,0,0,0,.59-.11.8.8,0,0,0,.61.13,1.54,1.54,0,0,0,.56-.23,1.93,1.93,0,0,0,.7-.23,2.41,2.41,0,0,0,.68-.29.7.7,0,0,0,.53-.17,4.93,4.93,0,0,0,1-1.09,1.78,1.78,0,0,0,.44-.75A4.07,4.07,0,0,0,44.72,16.27Z"/><polygon class="cls-5" points="34.8 16 34.8 16 34.8 16 34.8 16"/><path class="cls-5" d="M45.25,14.06V14a.38.38,0,0,0,0-.1s0-.07,0-.1a.45.45,0,0,1,0-.11.69.69,0,0,1,0-.13h0s0,0,0-.07h0a6.11,6.11,0,0,0-1.9-3.16.28.28,0,0,0-.39,0,.26.26,0,0,0,0,.38h0l.09.09.17.12a5.11,5.11,0,0,1,1.12,1.67,5.85,5.85,0,0,1,.55,2,1.7,1.7,0,0,1,0,.21h0a.76.76,0,0,1,0,.15h0a.61.61,0,0,1,0,.14l0,.14v0l0,0h0s0,0,0,.07v0a7.88,7.88,0,0,0-.51-1.24c-.68-1.13-1.24-2.34-2-3.4a5.86,5.86,0,0,0-.69-.87.27.27,0,0,0-.36-.14A.24.24,0,0,0,41,10l0,0h0l0,0,0,.06h0l.06.1h0l0,0h0l.05.06a.43.43,0,0,1,0,.07h0s0,0,0,0l0,0a.08.08,0,0,1,0,0l.05.06a.61.61,0,0,0,.07.1h0l0,0h0a1.19,1.19,0,0,1,.09.15h0a.75.75,0,0,0,.07.12,26.49,26.49,0,0,1,1.42,2.34A15.23,15.23,0,0,1,44,15a4,4,0,0,1,.33,1.07s0-.05,0-.07a.3.3,0,0,0,0,.23.61.61,0,0,1-.07.14l0,.09v0h0a.91.91,0,0,1-.07.14s0,.09,0,.13a1.14,1.14,0,0,1-.1.19l-.07.11s0,0,0-.05a11.43,11.43,0,0,0-1.21-2.89A13.13,13.13,0,0,0,40.24,10a.27.27,0,0,0-.32.44,12.31,12.31,0,0,1,2.27,3.76c.33.66.65,1.29,1,2,.16.5.29,1,.42,1.51a.05.05,0,0,1,0,0h0l-.13.17h0l-.13.17-.08.1c-.08-.23-.18-.45-.27-.67a48.47,48.47,0,0,0-3.19-5.83,6.9,6.9,0,0,0-.54-.79.27.27,0,0,0-.38.39,19.36,19.36,0,0,1,1.3,2.14,30.27,30.27,0,0,1,2.12,3.87c.15.34.3.69.44,1a1.17,1.17,0,0,0,.1.26v0l-.18.12h0a11.13,11.13,0,0,1-1.44-1.31,20.74,20.74,0,0,1-4-6.33.25.25,0,0,0,0-.15,3.19,3.19,0,0,1,.6-.38.28.28,0,0,0,.09-.48c-.18-.13-.37,0-.53.1a2.94,2.94,0,0,0-.85.63,4.38,4.38,0,0,0-1.21,1.76s0,0,0,.05a.42.42,0,0,1,0,.12.22.22,0,0,1,0,.08,6.8,6.8,0,0,0-.22.89,2.33,2.33,0,0,0-.07.25.28.28,0,0,1,0,.09.13.13,0,0,1,0,.06.59.59,0,0,1,0,.14h0a.13.13,0,0,0,0,.06l0,.07a4.75,4.75,0,0,0,0,1.13v.11s0,0,0,.06h0a1.21,1.21,0,0,1,0,.18.31.31,0,0,1,0,.08s0,.06,0,.08h0a.43.43,0,0,0,0,.11.5.5,0,0,1,0,.12h0s0,0,0,.06v0s0,.05,0,.07h0l0,.09h0c0,.05,0,.09,0,.14h0a.43.43,0,0,0,0,.05h0s0,.11,0,.16h0l0,.09,0,0a.64.64,0,0,0,0,.07h0l0,.07h0a.3.3,0,0,0,0,.1l.1.18A5.34,5.34,0,0,0,36.83,19a5.28,5.28,0,0,0,2.86,1.11.58.58,0,0,0,.19,0,4.72,4.72,0,0,0,.64-.1A6.7,6.7,0,0,0,42,19.65a2.93,2.93,0,0,0,.58-.31h0l.09-.07a.24.24,0,0,1,.09-.06h0l.1-.07L43,19h0l0,0,0,0h0l.05-.05.12-.11h0l0,0,.12-.1A6,6,0,0,0,44,18,5.53,5.53,0,0,0,45,16.15a5.66,5.66,0,0,0,.15-.59L45,15.13v0l0,0a0,0,0,0,1,.06,0l.12.23h0l0,.09v-.19h0a.38.38,0,0,0,0-.1l0-.23v-.13s0-.1,0-.15h0v-.54Zm-9.83,2.58h0a.19.19,0,0,1,0-.07l0-.07a.8.8,0,0,1,0-.15h0v0h0l0-.1h0s0-.07,0-.1h0a1.48,1.48,0,0,0,0-.21v0c0-.24,0-.48,0-.72a3.62,3.62,0,0,1,0-.57s0,.09.05.13A9.78,9.78,0,0,0,35.85,16a8.91,8.91,0,0,0,1.48,2.16,10.19,10.19,0,0,0,1.2,1.17,6.74,6.74,0,0,1-1.64-.95A4.47,4.47,0,0,1,35.42,16.64Zm4.79,2.91-.2,0-.14,0-.06,0a4.33,4.33,0,0,1-1-.67,10.26,10.26,0,0,1-3.1-4.58h0a1.39,1.39,0,0,1-.06-.13L35.58,14h0c0-.08-.09-.16-.12-.24l-.06-.21h0a.17.17,0,0,1,0-.07h0c0-.17.09-.33.13-.49a3.84,3.84,0,0,1,.34-.78,3.4,3.4,0,0,0,.12.71,10.33,10.33,0,0,0,.62,1.77,10,10,0,0,0,1.94,2.87,7.52,7.52,0,0,0,2.31,1.85C40.67,19.47,40.44,19.51,40.21,19.55Zm1.45-.37a.19.19,0,0,0-.1,0l-1-.54a7,7,0,0,1-1.5-1.32,9.71,9.71,0,0,1-2-3,9.49,9.49,0,0,1-.43-1.16l0,0-.06-.16a.56.56,0,0,1,0-.12,1.62,1.62,0,0,1,0-.19c0-.07,0-.14,0-.21a.64.64,0,0,1,0-.07h0s0,0,0,0h0l0-.09h0a.43.43,0,0,1,0-.11v0h0a.36.36,0,0,0,0-.1.53.53,0,0,1,0-.12.11.11,0,0,1,0-.05v0a0,0,0,0,1,0-.05h0a3.89,3.89,0,0,1,.38-.43,2,2,0,0,1,.17.4,12.87,12.87,0,0,0,.89,1.83A19.09,19.09,0,0,0,42.11,19,4.54,4.54,0,0,1,41.66,19.18Zm1.93-1.58h0v0h0Z"/><path class="cls-6" d="M29.4,14.29a1.06,1.06,0,0,0-.57-1.08.7.7,0,0,0-.71,0l-.05,0,0-.11A.5.5,0,0,0,28,13a1,1,0,0,0,.08-.11,1.57,1.57,0,0,0,.19-.26.94.94,0,0,0,0-.8.88.88,0,0,0-.55-.5.92.92,0,0,0-.69.08l-.1.07a.73.73,0,0,0-.18-.17l-.08,0,0-.09a1,1,0,0,0,.07-1.11.71.71,0,0,0-1-.25l-.13.09a.76.76,0,0,0-.29.35.94.94,0,0,0-.46-.13H24.9a.35.35,0,0,0,0-.14v0a.74.74,0,0,0,0-.33.72.72,0,0,0-.69-.52l-.21,0h-.07a.78.78,0,0,0-.4.19l-.1.11-.1-.12a.52.52,0,0,0-.11-.1A.75.75,0,0,0,22.75,9a.64.64,0,0,0-.36.05.69.69,0,0,0-.34.29.78.78,0,0,0-.12.22,1,1,0,0,0-.09.21.61.61,0,0,0-.44.2l-.06.09-.11,0a1,1,0,0,0-.55.59.73.73,0,0,0-1.17.07c-.08.16-.17.31-.26.46a.69.69,0,0,0,.06.77.87.87,0,0,0-.65.19,1.07,1.07,0,0,0-.34.89s0,.15.05.24a.75.75,0,0,0-.27.08.84.84,0,0,0-.42,1,.55.55,0,0,0,.18.31.58.58,0,0,0,0,.19,1.72,1.72,0,0,0,.24.49.61.61,0,0,0-.23.15s0,0,0,0l-.08,0a.76.76,0,0,0-.34.46.71.71,0,0,0,0,.21.82.82,0,0,0,.1.37h0v.07a1.42,1.42,0,0,0,.08.18l.06.09.07.09a.71.71,0,0,0,.26.16.84.84,0,0,0,.14.06l.16,0,.37.05a.78.78,0,0,0,.09.42,1,1,0,0,0,.08.14,1.09,1.09,0,0,0-.08.43,1.18,1.18,0,0,0,.1.62.9.9,0,0,0,.79.42,1.17,1.17,0,0,0,.46-.13.89.89,0,0,0,.11.41.71.71,0,0,0,.18.7.9.9,0,0,0,.84.22,1,1,0,0,0,.32-.17.81.81,0,0,0,.26.52.71.71,0,0,0,1.08-.12v0a.71.71,0,0,0,1.29.17l0-.07,0,0s0,0,.05-.05a.08.08,0,0,1,0,0h.17a.86.86,0,0,0,.14.13.87.87,0,0,0,.88.11,1,1,0,0,0,.49-.51l.05,0,.19,0a.71.71,0,0,0,.35-.1l.07,0a.61.61,0,0,0,.2-.19.53.53,0,0,0,.11-.21.55.55,0,0,0,.2-.15l0,0a.85.85,0,0,0,.23,0h0a.6.6,0,0,0,.27-.06.57.57,0,0,0,.23-.15.52.52,0,0,0,.14-.22.45.45,0,0,0,.06-.27l0-.19,0-.07a.77.77,0,0,0-.1-.56v0a.79.79,0,0,0,.22-.05.72.72,0,0,0,.41-.46.7.7,0,0,0,0-.38,1.13,1.13,0,0,0,.46-1.79.81.81,0,0,0-.35-.29l-.05-.06a.27.27,0,0,0-.08-.07.24.24,0,0,1,0-.08A1.11,1.11,0,0,0,29.4,14.29Z"/><path class="cls-7" d="M18.33,16.47h0Z"/><polygon class="cls-7" points="19.53 18.79 19.54 18.8 19.53 18.79 19.53 18.79 19.53 18.79"/><path class="cls-7" d="M21.85,20.32Z"/><path class="cls-7" d="M21.3,20.14l0,0,0,0Z"/><polygon class="cls-7" points="19.18 15.29 19.19 15.29 19.19 15.29 19.18 15.29"/><polygon class="cls-7" points="22.07 14.37 22.07 14.37 22.07 14.37 22.07 14.37"/><path class="cls-7" d="M21.46,14.58a.79.79,0,0,0,.3.05,1.15,1.15,0,0,0,1.1-.92.86.86,0,0,0-.5-1c-.48-.22-1,.17-1.29.53-.09.18-.21.43-.09.61A1.19,1.19,0,0,0,21.46,14.58Zm0-.89a.35.35,0,0,1,0-.11.54.54,0,0,1,.05-.11l.07-.09a.67.67,0,0,1,.15-.14l.15-.08h0l.06,0h0l.07,0h.09l.07,0,0,0s0,0,.06,0l0,.05h0l0,0,0,0,0,0,0,.05.05.08a.52.52,0,0,1,0,.18c0,.07,0,.13,0,.19l-.06.18h0l0,.06h0a.88.88,0,0,1-.12.15l-.07.06-.07,0-.06,0h0l-.07,0-.11,0h-.22l-.07,0a.6.6,0,0,1-.08-.08.35.35,0,0,0-.05-.08.36.36,0,0,1,0-.11l0-.15v-.12A.5.5,0,0,1,21.42,13.69Z"/><polygon class="cls-7" points="22.08 14.37 22.08 14.37 22.08 14.37 22.08 14.37"/><polygon class="cls-7" points="23.51 9.53 23.51 9.53 23.51 9.53 23.51 9.53"/><polygon class="cls-7" points="25.99 10.46 25.99 10.47 26 10.47 25.99 10.46"/><polygon class="cls-7" points="23.68 13.18 23.68 13.19 23.68 13.19 23.68 13.18"/><path class="cls-7" d="M23.66,13.52h0a1.85,1.85,0,0,0,0,.23h0A1,1,0,0,0,24,14a1.17,1.17,0,0,0,.6.27h.11a1.09,1.09,0,0,0,.42-.07,1,1,0,0,0-.22.23c-.34.61-.09,1.71.72,1.77h0c1.35,0,1.32-2.16,0-2.25a.74.74,0,0,0-.33.09,1.14,1.14,0,0,0-.56-1.89,1.35,1.35,0,0,0-.35,0l0,0-.16.09h0l0,0h0l-.06.06-.05,0a.27.27,0,0,1-.07.08l0,0-.08.11s0,.07-.05.1h0l0,.1,0,.09h0l0,.09a.29.29,0,0,0,0,.09h0a.52.52,0,0,0,0,.11h0v.2Zm1.75,1.14.06-.05a.18.18,0,0,1,.07,0h0l.05,0a.71.71,0,0,1,.21,0l.11,0a.47.47,0,0,1,.09.06l.11.12h0a.49.49,0,0,1,.1.15.25.25,0,0,1,0,.07l0,.08a.76.76,0,0,1,0,.21,1,1,0,0,1,0,.24.5.5,0,0,1-.09.23.87.87,0,0,1-.2.23.36.36,0,0,1-.23.08h0a.93.93,0,0,1-.23,0,.51.51,0,0,1-.16-.09h0l-.05,0-.07,0-.06-.07a.42.42,0,0,1-.1-.2.68.68,0,0,1,0-.14.76.76,0,0,1,0-.15,1,1,0,0,1,.07-.34.42.42,0,0,1,.14-.18h0Zm-1.54-1.34s0,0,0-.06h0s0-.06,0-.09a.19.19,0,0,1,0-.07A.16.16,0,0,1,24,13l0,0,0-.05,0,0,0,0h0l.06-.06.07-.06.08,0h0l.09-.05h0l.1-.05.09,0,.11,0,.11,0,.11,0,.06,0,.05.05h0l0,0,.06.07,0,0a.16.16,0,0,1,0,.07h0l0,.06,0,0,0,.06s0,0,0,.06a.14.14,0,0,0,0,.06.25.25,0,0,0,0,.08h0s0,.05,0,.08v.16s0,0,0,.06a.17.17,0,0,1,0,.1.14.14,0,0,1,0,.07.25.25,0,0,1,0,.07l-.05.06,0,0-.05,0,0,0L25,14l-.08.05-.12,0-.12,0h-.15l-.11,0-.11,0-.06,0-.05,0h0l0,0-.06,0-.05,0,0-.05h0a.16.16,0,0,1,0-.07v0h0a.21.21,0,0,0,0-.06h0l0,0,0,0h0v0h0a.08.08,0,0,1,0-.05.06.06,0,0,1,0,0,.13.13,0,0,1,0-.06v-.11Z"/><polygon class="cls-7" points="24.06 13.85 24.06 13.85 24.06 13.85 24.06 13.85"/><polygon class="cls-7" points="23.85 12.72 23.85 12.71 23.85 12.71 23.85 12.72"/><polygon class="cls-7" points="25.01 12.72 25.01 12.72 25.01 12.72 25.01 12.72"/><polygon class="cls-7" points="24.04 12.48 24.04 12.47 24.05 12.47 24.04 12.48"/><path class="cls-7" d="M22.59,14.71l-.09.12h0l0,.07,0,.07,0,.07a.19.19,0,0,1,0,.07l0,.12h0a.17.17,0,0,1,0,.07.77.77,0,0,1,0,.15h0v0h0v.14h0a.75.75,0,0,0,0,.15.36.36,0,0,0,0,.1s0,.06,0,.1,0,0,0,0a.78.78,0,0,0,.67.56,1.44,1.44,0,0,0,1.06-.33,1.14,1.14,0,0,0-.27-1.73,1.16,1.16,0,0,0-1.21.17A0,0,0,0,1,22.59,14.71Zm0,1.1a1.41,1.41,0,0,1,0-.28.47.47,0,0,1,.11-.25h0l0-.07.07-.07.06,0a.93.93,0,0,1,.14-.14l.1,0,.1,0h.14l.16,0h0l.06,0s.05,0,.08.06l.06,0,.06.06h0a.24.24,0,0,1,.08.06.25.25,0,0,1,0,.07.3.3,0,0,1,0,.08l0,.07s0,.06,0,.09a.44.44,0,0,1,0,.1v.18a.48.48,0,0,1-.05.17l-.08.15-.11.11-.11.08-.15.09-.07,0h-.09l-.08,0H23l-.09,0h0l-.09,0a.3.3,0,0,1-.08-.08l-.05-.07,0-.07h0a1.17,1.17,0,0,1-.05-.11.88.88,0,0,1,0-.16Z"/><polygon class="cls-7" points="23.3 18.41 23.3 18.41 23.3 18.41 23.3 18.41"/><polygon class="cls-7" points="26.23 12.94 26.23 12.94 26.23 12.93 26.23 12.94"/><polygon class="cls-7" points="26.37 12.63 26.38 12.62 26.38 12.62 26.37 12.63"/><polygon class="cls-7" points="27.35 18.04 27.35 18.03 27.35 18.03 27.35 18.04"/><polygon class="cls-7" points="27.37 18.05 27.37 18.05 27.36 18.05 27.37 18.05"/><path class="cls-7" d="M28.1,18h0Z"/><polygon class="cls-7" points="22.48 19.85 22.48 19.85 22.48 19.84 22.48 19.85"/><polygon class="cls-7" points="27.36 12.01 27.37 12.02 27.37 12.02 27.36 12.01"/><polygon class="cls-7" points="27.39 12.04 27.39 12.04 27.4 12.05 27.39 12.04"/><path class="cls-7" d="M28.83,16.17Z"/><path class="cls-7" d="M28.81,16.45h0Z"/><polygon class="cls-7" points="28.24 12.02 28.24 12.02 28.23 12.02 28.24 12.02"/><path class="cls-7" d="M29,15.37l0,0a.13.13,0,0,1,0-.06,1.12,1.12,0,0,0,.22-.1h0a.07.07,0,0,1,.06,0h0a1.29,1.29,0,0,0,.12-1.7.75.75,0,0,0-.62-.44l-.41.06-.08-.18,0,0a1.07,1.07,0,0,0,.2-.38A1,1,0,0,0,27,11.3L27,11.24a.6.6,0,0,0,.12-.32.94.94,0,0,0-.34-.92h0l0,0-.18-.11h-.32l0,0h0l0,0,0,0,0-.05v0h0v0a.19.19,0,0,1,0-.07l0-.08h0a.14.14,0,0,0,0-.06h0l0,0h0l0,0h-.15a.05.05,0,0,0,0,0h0l0,0,0,0,0,0v0h0v.07h0a.8.8,0,0,1,0,.27l0,0s0,0,0,.06l0,.1a.25.25,0,0,1,0,.07s0,0,0,0h0l0,0h0l0,0h-.07v0l-.09,0a.28.28,0,0,0-.11-.08A.7.7,0,0,0,25,9.3a1.34,1.34,0,0,0-1.72-.07A.66.66,0,0,0,23,9a1.07,1.07,0,0,0-1.4.73,1.12,1.12,0,0,0-1.11.82.59.59,0,0,0-.62-.21A1.14,1.14,0,0,0,19,11.67a.79.79,0,0,0-.3.12s0,0,0,0a.1.1,0,0,1,0,0l-.09.08-.09.06,0,0h0l0,0a1.21,1.21,0,0,0-.17,1.17,1.36,1.36,0,0,0-.54.2l-.09.11h0l0,0h0l0,.06h0s0,.06,0,.08h0a1,1,0,0,0,.43,1.14h0a.92.92,0,0,0,.21.53c-.43-.19-1,.41-.9.91a1.37,1.37,0,0,0,.59,1,.82.82,0,0,0,.66.17c0,.06.09.12.13.19a.14.14,0,0,0,0,.06,1.38,1.38,0,0,0,.62,1.8.67.67,0,0,0,.31.07,3.63,3.63,0,0,0,.56-.09h0a2.43,2.43,0,0,0,0,.27c0,.39.17.91.61,1a1,1,0,0,0,.24,0,1.18,1.18,0,0,0,.45-.1,1.21,1.21,0,0,0,.58.6.58.58,0,0,0,.26.06.66.66,0,0,0,.33-.09,1.28,1.28,0,0,0,.35-.18l.1.16a.52.52,0,0,0,.42.2.72.72,0,0,0,.32-.08.76.76,0,0,0,.56-.41l0-.11a1.55,1.55,0,0,0,.37.36.49.49,0,0,0,.28.09,1.68,1.68,0,0,0,.57-.16.63.63,0,0,0,.36-.26,1.36,1.36,0,0,0,.14-.27.62.62,0,0,0,.19.07h.08a.89.89,0,0,0,.79-.64h.1a1.06,1.06,0,0,0,.69-.36,1.34,1.34,0,0,0,.38-.92.58.58,0,0,0-.07-.32.86.86,0,0,0,.56-.82,1.2,1.2,0,0,0,.37-.2,1.1,1.1,0,0,0,.45-.95A1.4,1.4,0,0,0,29,15.37Zm-1.44.91,0,0,0,0h0a.1.1,0,0,0-.05,0l-.05-.08a.5.5,0,0,1,0-.13h0v0h0s0,0,0-.06a.56.56,0,0,1,0-.12.67.67,0,0,1,0-.2.24.24,0,0,1,0-.08.21.21,0,0,1,0-.07,1.09,1.09,0,0,1,.08-.15,1,1,0,0,1,.26-.24.33.33,0,0,1,.17,0A.35.35,0,0,1,28,15h0l.06,0h0l.09,0a.23.23,0,0,1,.08.09l0,.07,0,.11v0h0l0,.11a.41.41,0,0,1,0,.11.49.49,0,0,1,0,.12.43.43,0,0,1,0,.11s0,.08,0,.12l0,.08a1.18,1.18,0,0,1-.11.19.45.45,0,0,1-.09.1.3.3,0,0,1-.15.05h0l-.11,0h-.07l-.07,0Zm.11-2.48-.1.11-.12.07-.08,0h-.11l-.14,0h0L27,14l-.07,0-.13-.08-.06-.07,0-.05h0l0,0,0,0-.05-.07a.49.49,0,0,1,0-.11.77.77,0,0,1,0-.15.61.61,0,0,1,0-.14.88.88,0,0,1,0-.16s0-.09,0-.13a.35.35,0,0,1,.06-.09l.05-.06h0a.47.47,0,0,1,.1-.1l.06-.05.06,0,0,0a.23.23,0,0,1,.11,0h.09l.06,0h.06a.17.17,0,0,1,.1,0,.54.54,0,0,1,.12.09h0l.07.06a.19.19,0,0,1,.06.07.25.25,0,0,1,0,.07.93.93,0,0,1,.05.1l0,.09s0,0,0,0l0,.05h0s0,.05,0,.07,0,0,0,0v.05a1.11,1.11,0,0,1,0,.19l0,.08a.35.35,0,0,1-.05.08A.44.44,0,0,1,27.63,13.8Zm-.9-1.52a0,0,0,0,1,0,0,0,0,0,1,1,0,.09A0,0,0,0,1,26.73,12.28Zm1.42,4.21h0s0,0,0,0l0,0,0,0,0-.06h0l.05-.09.06-.09h0v0h0l0-.06v0a.36.36,0,0,0,0-.09s0-.06,0-.07a.06.06,0,0,1,.08,0,.11.11,0,0,1,0,.08s0,.06,0,.09h0c0,.05,0,.09,0,.14h0s0,0,0,0v.09c0,.06,0,.13,0,.19a.53.53,0,0,1,0,.13,0,0,0,0,1,0,0h-.07s0,0,0,0h0l0,0h0l0,0-.05,0a0,0,0,0,0,0,0,.39.39,0,0,0-.15,0Zm.41-3.23h.16a.4.4,0,0,1,.26.1l.1.1.1.14.06.09a.88.88,0,0,1,.05.15.68.68,0,0,1,0,.14.76.76,0,0,1,0,.15,1,1,0,0,1,0,.24.74.74,0,0,1,0,.14.36.36,0,0,1,0,.09h0a.41.41,0,0,1-.07.11l-.08.08s-.07.08-.13.08h0a.16.16,0,0,1-.09,0h0l-.06-.07a.2.2,0,0,1,0-.11l0-.14c0-.07,0-.14,0-.21l0-.21c0-.08,0-.14,0-.21s0-.13-.05-.19h0a.76.76,0,0,0,0-.11l0-.08,0-.08a.08.08,0,0,1,0-.05h0a.12.12,0,0,1,0-.1A.12.12,0,0,1,28.56,13.26ZM27.4,11.5h.17a.84.84,0,0,1,.31.08h0a.54.54,0,0,1,.15.09.43.43,0,0,1,.12.11.31.31,0,0,1,.06.13s0,0,0,.06a.13.13,0,0,0,0,.06h0s0,.07,0,.11a.28.28,0,0,1,0,.09v.09s0,0,0,.06l0,.05h0l-.06.12,0,0h0a.1.1,0,0,1,0,.05H28s0,0-.06,0h0l0,0v0h0l0,0h0s0,0,0,0l0,0h0a.12.12,0,0,1-.05-.05.08.08,0,0,1,0,0l-.05-.07h0a.1.1,0,0,1-.05,0l0,0-.07-.06L27.39,12l0,0h0l-.08-.07-.05-.06,0,0-.05,0,0-.05,0,0a.11.11,0,0,1,0-.08.08.08,0,0,1,0-.06l.06,0,.08,0ZM26,12h-.19l-.09,0-.1,0-.13-.1-.08-.08a1.06,1.06,0,0,1-.15-.15.49.49,0,0,1-.06-.17,1.13,1.13,0,0,1,0-.18.66.66,0,0,1,0-.15V11l0-.15a0,0,0,0,1,0,0l0,0,0-.08s0,0,.05-.06l0-.05h0l.12,0h.16l.1,0,.11.05a.6.6,0,0,1,.21.18l0,.06,0,.06.06.1,0,.11a.8.8,0,0,1,0,.15v.1a.27.27,0,0,1,0,.12.29.29,0,0,1,0,.13A.36.36,0,0,1,26,12Zm.19-2h.19l.08,0,.12.1h0l0,0,.05.06,0,.06s0,0,0,.06,0,.06,0,.1a.14.14,0,0,1,0,.06h0a.77.77,0,0,1,0,.15v.08a.25.25,0,0,1,0,.08l0,.09,0,.07a.43.43,0,0,1-.09.1h-.09s0,0-.06,0v0h0l0,0h0l0,0h0l0,0,0,0h0l0-.05,0,0h0l0,0,0,0h0l0,0s0,0,0,0h0l0,0,0,0h0l0,0,0,0h0l-.06,0h0l-.07,0h0l-.07,0h0l-.06,0,0,0a.1.1,0,0,1-.05-.08.2.2,0,0,1,0-.08h0l.06-.06h0l0,0,0,0h0L26,10l.15,0ZM23.5,9.54h0a.52.52,0,0,1,.11-.1l.14-.11h0a.41.41,0,0,1,.11-.07l.16,0a.57.57,0,0,1,.13,0l.13,0,.06,0,.07,0a.39.39,0,0,1,.1.08l.07.08a.24.24,0,0,1,.06.08h0a.35.35,0,0,1,.05.08l0,.1a.54.54,0,0,1,0,.22.43.43,0,0,0,0,.05l0,.07a.47.47,0,0,1-.1.1.68.68,0,0,1-.25.09l-.29,0h-.14l-.11,0h0l-.16,0a.52.52,0,0,1-.13-.06.36.36,0,0,1-.09-.08.21.21,0,0,1-.06-.08l0-.08v0a.11.11,0,0,1,0-.08s0,0,0,0v0h0s0,0,0-.05h0l.05-.07Zm-1.56.12,0-.06,0-.06,0,0,.11-.11a1,1,0,0,1,.17-.1l.11,0a.55.55,0,0,1,.22,0,.36.36,0,0,1,.18.07l0,0,0,.06a.13.13,0,0,1,0,.06v0s0,0,0,.07a.1.1,0,0,1,0,.07h0l-.07,0h-.06l-.18.05a1.15,1.15,0,0,1-.17.06l-.19,0H22a.1.1,0,0,1-.06-.09A.09.09,0,0,1,21.94,9.66Zm-1.11,1.16a.52.52,0,0,1,0-.11.67.67,0,0,1,.06-.12.44.44,0,0,1,.08-.11.69.69,0,0,1,.22-.16l.09-.05.06,0h.15l.1,0h0l.12,0h0l.08,0,.06.05a.25.25,0,0,1,.08.14.31.31,0,0,1,0,.1.29.29,0,0,1,0,.09.56.56,0,0,1-.09.17h0a1.19,1.19,0,0,1-.2.19,1.49,1.49,0,0,1-.3.18.5.5,0,0,1-.13,0H21.1l-.05,0a.15.15,0,0,1-.07,0l-.05,0,0-.05a.37.37,0,0,1-.07-.23A.45.45,0,0,1,20.83,10.82Zm-1.53.48a1.17,1.17,0,0,1,.09-.24.74.74,0,0,1,.14-.22l.17-.14h0a.27.27,0,0,1,.12-.06.31.31,0,0,1,.13,0h.11a.19.19,0,0,1,.08,0l.06,0h0a.09.09,0,0,1,0,.12h0a.11.11,0,0,1,0,.06.43.43,0,0,1-.05.12,1.65,1.65,0,0,1-.19.27h0l-.12.12a1,1,0,0,1-.21.19.36.36,0,0,1-.17.07h0a.14.14,0,0,1-.09-.05v0l0,0s0-.1,0-.15S19.29,11.34,19.3,11.3Zm.78.93.21,0h.11l.1,0h0l.11,0a.23.23,0,0,1,.1.07.36.36,0,0,1,.07.1.65.65,0,0,1,0,.13.37.37,0,0,1,0,.21.49.49,0,0,1,0,.11l0,.08a1.18,1.18,0,0,1-.11.19l-.09.1a1,1,0,0,1-.17.1.39.39,0,0,1-.11.06l-.1,0h-.12a.54.54,0,0,1-.18-.11h0a.36.36,0,0,1-.08-.12.52.52,0,0,1-.06-.16s0,0,0-.07v-.1a1.37,1.37,0,0,1,0-.19h0s0-.09.05-.13l0,0a.53.53,0,0,1,0-.12.25.25,0,0,1,0-.07.18.18,0,0,1,.07-.05.27.27,0,0,1,.14,0ZM17.9,14.49l0-.05-.05-.1a.8.8,0,0,1,0-.21.55.55,0,0,1,.06-.22l0-.06s.06-.06.09-.09l.1,0h0l.05,0h0l.09,0,.09,0h.29l.1,0s0,0,0-.05a.26.26,0,0,0,.17-.38h0l-.06,0h-.21l-.05,0,0,0-.07-.09,0-.11a.19.19,0,0,1,0-.1.48.48,0,0,1,0-.12.58.58,0,0,1,.05-.14l.05-.1a1,1,0,0,1,.08-.11.61.61,0,0,1,.24-.18l.14,0,.15,0,.1,0,.06,0,.05.05,0,0,.06,0,0,.07h0v.11a.74.74,0,0,1,0,.14l0,.07h0a1,1,0,0,0,.63.92.45.45,0,0,0,.16,0,1.23,1.23,0,0,0,.7-.35.92.92,0,0,0-.24-1.57.78.78,0,0,0-.58,0,3.89,3.89,0,0,0,.39-.43,1.22,1.22,0,0,0,.2-.25c.08.22.22.42.46.36l.18,0a1.39,1.39,0,0,0,.88-.41.36.36,0,0,0,0,.23,1.07,1.07,0,0,0,.42.88,1.14,1.14,0,0,0,.58.15,1.07,1.07,0,0,0,.69-.24,1.13,1.13,0,0,0,.25-1,1.15,1.15,0,0,0-.41-.54.78.78,0,0,0-.71-.12.85.85,0,0,0-.56.23.7.7,0,0,0,0-.29h0a0,0,0,0,1,0,0h0l0,0v0s0,0,0-.05h0l0-.06h0l0-.05v-.05a.14.14,0,0,1,.07-.08s.06,0,.09,0h0l.23,0h.26L23,10l0,0,0,0,0,0v0h0v0h0l.05,0h0l.29.18h0a.87.87,0,0,0,.31.1H24c.17,0,.33,0,.49,0a.64.64,0,0,0,.33-.08l.08-.05.08.06.1,0h0v0a0,0,0,0,1,0,0v.05s0,0,0,.06l0,0h0v0c0,.06,0,.12-.07.19s0,.06,0,.09a1.18,1.18,0,0,0,.87,1.14h.11a.82.82,0,0,0,.65-.36l0,0a.28.28,0,0,0,0-.09h0v-.06a.05.05,0,0,1,0,0h0a.09.09,0,0,1,.07,0h0l0,0,0,0,.06.06h0l.05,0h0l0,0h0l.09.11h0l.06,0,0,.05,0,0,0,0a0,0,0,0,1,0,0h0l0,0H27l0,0h0l-.09.06-.07,0h0l0,0-.05,0h0a.74.74,0,0,0-.13.12h0l0,0a.07.07,0,0,1-.06,0v0l-.06.07a.35.35,0,0,0-.05.08.33.33,0,0,0-.06.1h0a1.17,1.17,0,0,1-.05.11s0,.07,0,.11l0,.1s0,.05,0,.08h0a.09.09,0,0,0,0,.05h0v0h0a.28.28,0,0,1,0,.09.13.13,0,0,0,0,.06h0v0a.56.56,0,0,0,0,.12,1.37,1.37,0,0,0,.55.68.75.75,0,0,0,.39.09,1.06,1.06,0,0,0,.81-.38h0l0-.07h0l0,0h0l0-.06,0,0h.07a0,0,0,0,1,0,0,0,0,0,0,1,0,0v0l.06.19h0l0,0h0s0,.05,0,.08h0a.93.93,0,0,0,0,.13s0,.07,0,.11h0c0,.11.05.22.07.33l0,.16a.33.33,0,0,1,0,.1s0,0,0,0h0a0,0,0,0,1,0,0h0l-.06,0v0a.8.8,0,0,0-.44-.24,1,1,0,0,0-1,.94,1,1,0,0,0,.61,1.06.54.54,0,0,0,.22.05,1,1,0,0,0-.33.28c-.09.15-.24.32-.17.49a1.06,1.06,0,0,0,.09.61h0l0,0h0l0,0,0,0,0,0h0l0,0s0,0,0,0h0a.13.13,0,0,1,0,.06.22.22,0,0,1-.05.11l-.11.15-.06.08a.5.5,0,0,1-.07.08l-.06.08-.06.07-.05.06-.05.06-.07.08,0,0h-.05l-.05,0a.14.14,0,0,1-.05-.08l0-.09h0a.73.73,0,0,0-.52-.51l-.13,0c1.15-.09,1.38-2.07.07-2.1a1.07,1.07,0,0,0-.92.71,1,1,0,0,0,0,.73.82.82,0,0,0,.79.67h0a1.45,1.45,0,0,0-.94.66h0a.35.35,0,0,1,0,.11s0,.09,0,.13h0v0h0a.31.31,0,0,0,0,.08h0v0s0,0,0,.06,0,0,0,.05l0,0a0,0,0,0,0,0,0v0s0,0,0,0h0s0,0,0,0l0,.05h0l.06.08,0,0v0l.05,0a.12.12,0,0,1,0,.1.09.09,0,0,1-.06.06l0,0-.07,0h-.08l-.08,0h-.14l-.32.06h0l-.1,0H24.2s0,0-.06,0,0,0,0,0,0,0,0,0a0,0,0,0,1,0,0v0h0v0h0s0,0,0,0,0,0,0-.06h0a1,1,0,0,1,.08-.14h0s0,0,0-.05a1,1,0,0,0-.48-1,1,1,0,0,0,0-2.08c-.51-.12-.93.36-1.09.8a1.18,1.18,0,0,0,.51,1.18.8.8,0,0,0-.77.49,1.32,1.32,0,0,0-.1.38h0l0,.16h0a0,0,0,0,0,0,0h0l0,.07h0s0,0,0,0a.06.06,0,0,1,0,.07h-.05s0,0-.05,0h-.06l-.08,0h-.08l-.09,0h0l-.07,0-.07,0h-.05s-.09,0-.1-.08h0a0,0,0,0,1,0,0v0a0,0,0,0,1,0,0s0,0,0,0l0-.06,0,0,0,0a.74.74,0,0,0,.16-.36,1,1,0,0,0-.6-.95,1.07,1.07,0,0,0,.27-.16A1.06,1.06,0,1,0,20.27,17a1.12,1.12,0,0,0-.41-.76l.05,0,.14,0c.67,0,1.09-.85,1-1.46a.79.79,0,0,0-.89-.56,1.59,1.59,0,0,0-.56.33.78.78,0,0,0,0-.22.84.84,0,0,0-1-.42,1.1,1.1,0,0,0-.23.13h0a.27.27,0,0,1-.07.08s0,0-.05,0l0,0,0,0h0l0,.07,0,.06h0v0h0s0,0,0,0h0s0,0,0,0h0l-.06,0Zm5.78-2.79s0,.05,0,.08a.83.83,0,0,1-.07.13l-.06.07,0,0-.13.1-.07,0-.06,0h0l-.14,0h-.15l-.06,0-.07,0-.1,0a.43.43,0,0,1-.15-.15h0a.35.35,0,0,1-.06-.18v-.1a1.06,1.06,0,0,1,0-.19.75.75,0,0,1,.05-.16.29.29,0,0,1,.05-.13s0,0,0,0h0c.13-.11.31-.09.46-.13l.06,0h.06l.06,0,0,0,.07,0,0,.05h0l.06,0,0,0,.05.05a.24.24,0,0,1,.05.1.76.76,0,0,1,0,.15A.68.68,0,0,1,23.68,11.7Zm2.17,8.05h-.14l-.11,0a.39.39,0,0,1-.11-.06.41.41,0,0,1-.07-.11l-.05-.08a.49.49,0,0,1,0-.11.41.41,0,0,1,0-.19.87.87,0,0,1,.07-.17c0-.05.1-.1.15-.15a.71.71,0,0,1,.14-.1l.07,0,.07,0,.09,0h.23l.08.07a.23.23,0,0,1,.07.07.21.21,0,0,1,0,.06h0l0,.05a.17.17,0,0,1,0,.07v.08s0,.06,0,.09l0,.09a.64.64,0,0,1-.08.14l0,0a.73.73,0,0,1-.14.16A.74.74,0,0,1,25.85,19.75ZM25.59,18a.5.5,0,0,1-.05-.13.61.61,0,0,1,0-.14.8.8,0,0,1,0-.15.63.63,0,0,1,.08-.23.75.75,0,0,1,.07-.12l.06-.09.07-.09,0,0a.12.12,0,0,1,.1-.08h0l.08,0,.06,0h0l.12,0,.09,0h0a.2.2,0,0,1,.08,0l.11.08.06.07.06.09a.61.61,0,0,1,0,.13h0a.78.78,0,0,1,0,.16,1.09,1.09,0,0,1,0,.18s0,.05,0,.07h0s0,.07-.05.1a.42.42,0,0,1-.09.14.76.76,0,0,1-.09.09.41.41,0,0,1-.11.07l-.1,0h-.34a.27.27,0,0,1-.12,0l-.09-.05h0Zm-2.25,2.24-.1,0-.07-.05h0l-.07,0L23,20.05h0L22.92,20a.56.56,0,0,0-.05-.08l0-.08h0v0s0-.06,0-.09a.94.94,0,0,1,.07-.3.54.54,0,0,1,.07-.13l.05,0,.06-.05a.6.6,0,0,1,.13-.09l.1,0,.12,0,.12,0,.1,0,.1.07a.27.27,0,0,1,.08.07h0l0,0s0,0,0,.06l0,.08s0,.07,0,.11v.16s0,.06,0,.09a.17.17,0,0,0,0,.05l0,.07a.39.39,0,0,1-.06.11l-.08.07-.1.07-.1,0-.11,0h-.1Zm-.05-1.83h0l0,0h0s-.05-.05-.06-.08a.39.39,0,0,1-.06-.11.34.34,0,0,1,0-.12.13.13,0,0,0,0-.06v-.08a.77.77,0,0,1,0-.15.88.88,0,0,0,.05-.15,1.09,1.09,0,0,1,.08-.15,1,1,0,0,1,.09-.13h0a.3.3,0,0,1,0-.1.32.32,0,0,1,.1-.13l.13,0,.13-.05a.39.39,0,0,1,.15,0L24,17l.1.05a.28.28,0,0,1,.11.08l.07.09a1,1,0,0,1,.08.11.3.3,0,0,1,0,.1l0,.07s0,.06,0,.09h0l0,.08a.5.5,0,0,1,0,.12.31.31,0,0,1,0,.1s0,.08,0,.12a.56.56,0,0,1,0,.12.39.39,0,0,1-.06.11.43.43,0,0,1-.09.1l-.06.06-.09.06-.08.06-.12,0-.12,0h-.2l0,0-.13-.05-.07,0-.05,0,0,0h0Zm-3.49.19h0a2.11,2.11,0,0,1-.23-.19h0a.08.08,0,0,0,0,0,.13.13,0,0,1,0-.07.43.43,0,0,1,0-.05l0,0h0a0,0,0,0,1,0,0h.14a1.14,1.14,0,0,0,.52-.6h0a0,0,0,0,1,0,0h0a.06.06,0,0,1,.06,0h0v0a.14.14,0,0,0,0,.06.05.05,0,0,1,0,0l.06.12s0,0,0,.05h0l0,0,0,0s0,0,0,0a.13.13,0,0,1,0,.07h0l0,0h0a.86.86,0,0,0,.13.14l.08.06a1,1,0,0,0-.6.39v0l0,.05v0h0a.1.1,0,0,1-.06.05H20l0,0h0s0,0-.05-.05h0l0,0h0a.75.75,0,0,0-.14-.12Zm-.56-2.08.05,0,.07,0h0l0,0h.23l.1,0a.54.54,0,0,1,.16.1.43.43,0,0,1,.14.16h0a.72.72,0,0,1,.06.21s0,.08,0,.11v.1a.34.34,0,0,1,0,.14.29.29,0,0,1,0,.09l-.05.14a.19.19,0,0,1,0,.08.19.19,0,0,1-.05.09l-.07.08a.39.39,0,0,1-.1.08l-.12.05h-.1l-.15,0a.53.53,0,0,1-.15-.08h0l-.11-.1-.09-.12v0l0,0h0a.82.82,0,0,1-.15-.33.28.28,0,0,1,0-.09.41.41,0,0,1,0-.11v0h0v0l0-.09a.38.38,0,0,1,.09-.13l.1-.12.07-.05.06,0Zm2.51.23.07.07.06.06.06.08a.48.48,0,0,1,.07.23.81.81,0,0,1,0,.22l-.06.17h0l-.06.13a.83.83,0,0,1-.08.12.61.61,0,0,1-.21.18l-.09,0-.09,0h-.29l-.05,0h0a.53.53,0,0,1-.17-.08.27.27,0,0,1-.08-.07l-.06-.08a1.33,1.33,0,0,1-.1-.24.49.49,0,0,1,0-.12.42.42,0,0,1,0-.16.61.61,0,0,1,.15-.27l0-.06h0a.83.83,0,0,1,.11-.15l.14-.12.11-.06.08,0h.18a.19.19,0,0,1,.08,0l.05,0,0,0h0l0,0h0Zm.07,2.6-.05.09-.06.05-.06.05a.53.53,0,0,1-.12,0l-.11,0H21.3a.54.54,0,0,1-.21-.08h0L21,19.43h0l-.11-.09a.83.83,0,0,1-.08-.12l0-.07h0v0h0s0,0,0-.05a.56.56,0,0,1,0-.12.22.22,0,0,1,.12-.24l0,0a.1.1,0,0,1,.05,0l.11,0,.11,0h.22a.64.64,0,0,1,.19.08.53.53,0,0,1,.14.12l.07.08.05.07a.57.57,0,0,1,.08.13.44.44,0,0,1,0,.16A.61.61,0,0,1,21.82,19.34Zm-2.64-4.05h0s0,0,0,0l0,0h0s0,.05-.07.06,0,0-.05,0l-.06,0-.07,0h-.16l-.09,0a.33.33,0,0,1-.1-.06.81.81,0,0,1-.09-.1l-.07-.1,0-.11a.43.43,0,0,1,0-.11.41.41,0,0,1,0-.19.28.28,0,0,1,0-.09s0,0,0-.06h0l0-.05h0a.42.42,0,0,0,0-.1l.07-.11a.28.28,0,0,1,.09-.1l.05,0,.05-.05.13,0,.07,0,.09,0,.11,0,.1.05h0a.67.67,0,0,1,.14.15l0,.09,0,.12,0,.13a.53.53,0,0,1,0,.13V15h0l0,.13a.42.42,0,0,1,0,.1l-.09.09Zm.44-.16a1,1,0,0,1,.15-.24l.1-.11a.18.18,0,0,1,.07,0l.06,0h0a.84.84,0,0,1,.14-.06.47.47,0,0,1,.17,0h.06a.31.31,0,0,1,.22.07l.07.09.06.1,0,.11s0,.07,0,.1,0,0,0,.06h0a.38.38,0,0,1,0,.1.54.54,0,0,1,0,.1v0a.5.5,0,0,1,0,.13l-.06.12-.06.11-.09.1h0l0,0h0l-.07.07-.08.06-.1,0h-.11L20,16l-.07,0a.18.18,0,0,1-.07-.05l-.06-.07a.18.18,0,0,1-.05-.07h0l-.07-.09a.52.52,0,0,1-.07-.15.5.5,0,0,1,0-.21A.33.33,0,0,1,19.62,15.13ZM18.36,16.8s0,0,0,.06v0s0,0,0,.06V17h0v.05a.11.11,0,0,1,0,.08.2.2,0,0,1-.08,0h0a.13.13,0,0,1-.1,0,.33.33,0,0,1-.1-.06l0,0a.57.57,0,0,1-.13-.08.45.45,0,0,1-.13-.1l-.07-.08,0-.07a.65.65,0,0,1-.09-.3c0-.05,0-.1,0-.15l0-.16a.93.93,0,0,1,0-.13.53.53,0,0,1,.06-.1h0l.07-.09.07-.08.09-.06.1,0,.09,0,.05,0a.1.1,0,0,1,.05,0,.39.39,0,0,1,.06.11l0,.09a1.6,1.6,0,0,1,.05.21h0s0,.08,0,.12a.28.28,0,0,1,0,.09h0a.06.06,0,0,0,0,0s0,0,0,.06v0s0,.05,0,.08a.13.13,0,0,0,0,.06.17.17,0,0,0,0,.07v0a.06.06,0,0,1,0,0S18.36,16.78,18.36,16.8Zm.09-1.12a.35.35,0,0,1-.05-.08.87.87,0,0,0,.33.12l.15,0a.53.53,0,0,0,.38-.16,1.24,1.24,0,0,0,.5.6.52.52,0,0,0-.31,0,1.29,1.29,0,0,0-.7.39A2.54,2.54,0,0,0,18.45,15.68Zm1.49,3.55h-.43a.58.58,0,0,1-.18,0h0l-.13-.05-.1-.06L19,19l-.1-.1a.75.75,0,0,1-.07-.12.83.83,0,0,1,0-.15.66.66,0,0,1,0-.14c0-.05,0-.1,0-.15h0s0,0,0-.06a.14.14,0,0,1,0-.06.64.64,0,0,0,0-.07h0l0-.05a.09.09,0,0,1,.1,0h0a.1.1,0,0,1,.07,0l0,0h0l0,0,0,.05.06.08h0l.06.08a.1.1,0,0,1,0,.05l0,0s0,0,0,0h0l.06.08h0a.74.74,0,0,0,.12.13.08.08,0,0,0,0,0h0l.06,0,0,0,0,0,.05.05h0a.05.05,0,0,1,0,0h0a.2.2,0,0,1,.08,0l0,0v0a.08.08,0,0,1,0,0,.1.1,0,0,1,.05,0S20,19.23,19.94,19.23Zm1.37,1h0a.31.31,0,0,1-.11.09l-.07.05-.06,0-.12,0-.12,0h0a.22.22,0,0,1-.11,0,.24.24,0,0,1-.11-.06.61.61,0,0,1-.07-.1l-.06-.12a.36.36,0,0,1,0-.11,1,1,0,0,0,0-.1.17.17,0,0,1,0-.1s0,0,0-.06v0a.31.31,0,0,1,0-.1v0h0a0,0,0,0,1,0,0,.1.1,0,0,1,.05,0h.06l.05,0h0v0l0,0h0l.16.1h0a2,2,0,0,0,.57.22h0a.07.07,0,0,1,0,.05s0,0,0,.06l-.09.09Zm1.48.34h0a.25.25,0,0,1,0,.07l0,0s0,0,0,0l-.11.12-.13.1a.6.6,0,0,1-.19.06h-.08l-.08,0h0L22,21a.23.23,0,0,1-.07-.07l-.06-.08a.36.36,0,0,1,0-.11s0,0,0-.08a.41.41,0,0,1,0-.11.14.14,0,0,1,0-.09l0-.08h0l0-.05h0l0-.06a.08.08,0,0,1,0,0,.09.09,0,0,0,0,0,4.41,4.41,0,0,0,.87.21v0h0s0,0,0,0a0,0,0,0,1,0,0,.06.06,0,0,1,0,0l0,.09Zm1.35.12h0l0,0h0a.16.16,0,0,1,0,.07A.33.33,0,0,1,24,21l-.1.09-.06.06a.4.4,0,0,1-.2.09H23.5l-.07,0-.08-.05-.07-.06,0-.08h0a.54.54,0,0,1,0-.11.09.09,0,0,0,0-.05.14.14,0,0,1,0-.06h0l.07-.08h0l0,0h0a.09.09,0,0,1,0-.05h0a.05.05,0,0,1,0,0h0l.06,0h.45l.07,0h.06l.06,0h0l.09,0h.05a.08.08,0,0,1,0,.05s0,0,0,0h0s0,0,0,0a0,0,0,0,1,0,.06Zm1.62-.21a.48.48,0,0,1-.07.18h0a1.37,1.37,0,0,1-.13.2.39.39,0,0,1-.1.08l-.07,0-.07,0-.1,0h0l-.13,0a.21.21,0,0,1-.13-.05L24.86,21l-.07,0s0,0-.05-.05a.1.1,0,0,1,0-.05l-.05,0,0-.06s0,0,0-.06,0,0,0-.06h.13l.09,0h0l.13,0,.1,0h0l.13,0h0l.16-.06.07,0h0l.05,0v0l0,0h.07s0,0,0,.05h0a0,0,0,0,1,0,.05A.22.22,0,0,1,25.76,20.52Zm1-.48a.78.78,0,0,1-.05.14.75.75,0,0,1-.07.12h0a.29.29,0,0,1-.12.1.25.25,0,0,1-.12,0h0l-.14,0a.16.16,0,0,1-.08-.06.18.18,0,0,1-.05-.07h0a.1.1,0,0,1,0-.07.06.06,0,0,1,0-.07l0-.05.05,0h0L26.3,20l.14-.09h0l.13-.1.06,0,.05,0h0a.09.09,0,0,1,.11.05s0,.05,0,.08h0v.06S26.78,20,26.78,20ZM28,19.16s0,.09,0,.13l-.07.11a.76.76,0,0,1-.08.11l-.16.15-.17.08-.1,0h0l-.1,0-.09-.06h0s0,0-.06-.07a.36.36,0,0,1,0-.1.05.05,0,0,1,0,0v0l0,0h0c.13-.11.24-.23.31-.29a3,3,0,0,0,.34-.53v0h0v0a.09.09,0,0,1,.17,0,.42.42,0,0,1,0,.1s0,0,0,.06a.64.64,0,0,0,0,.07s0,.07,0,.1A.37.37,0,0,1,28,19Zm.51-1.27a.14.14,0,0,1,0,.06.16.16,0,0,1,0,.07s0,0,0,0h0s0,.05-.07.06l-.09.05a.53.53,0,0,1-.12,0H28l-.07,0-.06,0-.06,0,0,0-.06,0-.07-.09a.41.41,0,0,1-.07-.11s0-.08,0-.13a1.09,1.09,0,0,1,0-.26c0-.05,0-.09,0-.14l0-.1a.36.36,0,0,1,.07-.1l.05,0h0l.07-.06.08,0,.08,0H28a.17.17,0,0,1,.1,0l.1,0,0,0,0,0,.08.08a.57.57,0,0,1,.08.13h0a.74.74,0,0,1,0,.14v0h0v0a1.16,1.16,0,0,1,0,.18,1.23,1.23,0,0,1,0,.19A.76.76,0,0,1,28.5,17.89Zm.85-1.37a1,1,0,0,1,0,.25l0,.06a.6.6,0,0,1-.09.15l-.1.11h0a.57.57,0,0,1-.11.11l-.08.05h-.12l0,0,0,0a.21.21,0,0,1,0-.11V16.9h0a.28.28,0,0,1,0-.09.13.13,0,0,1,0-.06v0h0l0-.08a.65.65,0,0,1,0-.13h0s0,0,0-.05a.11.11,0,0,0,0-.05.66.66,0,0,0,0-.14v-.1a.45.45,0,0,0,0-.11v-.15c0-.05,0-.11,0-.17a.07.07,0,0,1,0-.05.11.11,0,0,1,.06-.07h.06l0,0a.73.73,0,0,1,.05.09.08.08,0,0,0,0,0l0,0,.05,0a.83.83,0,0,1,.08.12,1.15,1.15,0,0,1,.12.25.5.5,0,0,1,0,.12Z"/><path class="cls-7" d="M28.88,17.06h0Z"/><polygon class="cls-7" points="25.28 20.45 25.28 20.45 25.28 20.45 25.28 20.45"/><polygon class="cls-7" points="25.45 20.38 25.45 20.38 25.44 20.38 25.45 20.38"/><path class="cls-7" d="M23.59,21h0Z"/><path class="cls-7" d="M23.75,21l0,0h0Z"/><path class="cls-7" d="M23.43,21h0v0h0Z"/><polygon class="cls-7" points="23.43 20.96 23.43 20.96 23.43 20.96 23.43 20.96"/><path class="cls-7" d="M27.19,19.45h0s0,0,0,0v0Z"/><polygon class="cls-7" points="22.8 9.64 22.79 9.65 22.79 9.65 22.8 9.64 22.8 9.64"/><path class="cls-7" d="M22.73,9.66h0Z"/><path class="cls-7" d="M25.69,9.26h0Z"/><polygon class="cls-7" points="25.68 9.26 25.68 9.26 25.68 9.26 25.68 9.26"/><path class="cls-8" d="M12.78,15.08a3.65,3.65,0,0,0,0-.93A6.17,6.17,0,0,0,10,10.38,4.25,4.25,0,0,0,7.6,9.33a7.6,7.6,0,0,0-2.81.3,5.4,5.4,0,0,0-2.33,1.6.63.63,0,0,0-.19,0h0a.7.7,0,0,0-.53.2.66.66,0,0,0-.18.23l-.09.11h0l-.09.12h0a.76.76,0,0,0-.11.14.62.62,0,0,0,.08.79l-.1.21a7.54,7.54,0,0,0-.71,4.73.75.75,0,0,0,0,.21c.29,1.35,1.8,2.25,2.91,2.89a8.78,8.78,0,0,0,1.86.88,4.51,4.51,0,0,0,2.19-.05A6.41,6.41,0,0,0,12.22,18a.6.6,0,0,0,.27-.38L13,15.75A.66.66,0,0,0,12.78,15.08Z"/><polygon class="cls-9" points="4.53 9.3 4.53 9.3 4.53 9.3 4.53 9.3"/><path class="cls-10" d="M13.29,15a5.24,5.24,0,0,0-.36-2.08c-.08-.14-.09-.32-.21-.4a1.57,1.57,0,0,0-.2-.3c-.16-.21-.3-.43-.47-.63a7.85,7.85,0,0,0-2.88-2A7.63,7.63,0,0,0,6.38,9a7.33,7.33,0,0,0-1.2.16l-.57.13h0l-.06,0h0l0,0-.06,0h0l0,0H4.14l0,0h0l0,0h0l0,0H4l0,0H4l0,0H3.87l-.06,0H3.75l0,0,0,0h0l0,0,0,0h0A7.26,7.26,0,0,0,.29,17.88h0a.69.69,0,0,0,0,.13l0,.12a1.34,1.34,0,0,0,.07.18h0s0,0,0,.05h0l0,0,0,.06h0l.07.1a.05.05,0,0,0,0,0h0l0,0a.41.41,0,0,0,0,.09l0,0h0a.43.43,0,0,0,0,.07h0l.05.08h0a7.78,7.78,0,0,0,6,3.24h0A3.72,3.72,0,0,0,7.75,22,.67.67,0,0,0,8,22a5.45,5.45,0,0,0,1.15-.47,6.46,6.46,0,0,0,3.1-2.4,8.52,8.52,0,0,0,.43-.86A9.61,9.61,0,0,0,13.29,15Zm-7-4.44a7.24,7.24,0,0,1,.22-.92.2.2,0,0,0,0-.13,4.62,4.62,0,0,1,.64.06,3.93,3.93,0,0,0-.15,2.25,5.36,5.36,0,0,0,2.24,3.81,3.78,3.78,0,0,0,1.25.63,9.59,9.59,0,0,0,1.7.14h.12a1.24,1.24,0,0,0,.27,0l0,.19c0,.16,0,.34-.08.51a1.87,1.87,0,0,0-.33,0,5.63,5.63,0,0,0-.69.14,2.16,2.16,0,0,1-.76-.07,4.49,4.49,0,0,1-2.28-1A5.58,5.58,0,0,1,6.32,10.58Zm5.82,2.07.06.07h0v0h0l0,0a1.09,1.09,0,0,1,.08.15h0l0,.05,0,0h0a1.16,1.16,0,0,1,.19.44,4.88,4.88,0,0,1,.17,1.06h-.08a2.82,2.82,0,0,1-1.26.06A2.37,2.37,0,0,1,10.12,14a3.23,3.23,0,0,1-1.3-3.09,2.07,2.07,0,0,1,.27-.63l.08-.09a11.47,11.47,0,0,1,1.71,1A5.81,5.81,0,0,1,12.14,12.65ZM8.65,10a3.34,3.34,0,0,0,.23,3.53A4.43,4.43,0,0,0,10.7,15a3.37,3.37,0,0,0,1.22.21,3.17,3.17,0,0,0,.81-.12h0a6.64,6.64,0,0,1-.05.77.57.57,0,0,0-.28.06,12.75,12.75,0,0,1-1.74-.14,5.24,5.24,0,0,1-.87-.39,12.1,12.1,0,0,1-1-.8A3.7,3.7,0,0,1,8,13.24,5.6,5.6,0,0,1,7.62,10V9.9s0,0,0-.05h0a0,0,0,0,1,0,0h0v0h0l0,0,0,0h0l.41.09Zm-3-.35h0L6,9.54s0,0,0,0a5.37,5.37,0,0,0-.28,1.59,5.78,5.78,0,0,0,.69,3.44,6,6,0,0,0,4.77,3.16,3.88,3.88,0,0,0,1.07-.14h.13a1.33,1.33,0,0,1-.09.21.41.41,0,0,0,0,.09,4.68,4.68,0,0,1-.38.78l-.09,0a2.09,2.09,0,0,0-.5,0,1.31,1.31,0,0,1-.28,0,6.5,6.5,0,0,1-1.22-.27,4.87,4.87,0,0,0-.72-.28A6.86,6.86,0,0,1,7.24,17a6.75,6.75,0,0,1-2.45-4.27,6.72,6.72,0,0,1,.27-2.44,2.41,2.41,0,0,0,.14-.59l.47-.09ZM4.05,15.73A9.32,9.32,0,0,0,7,19a13.12,13.12,0,0,0,1.95,1c.46.13,1,.17,1.4.34l-.53.32-.06,0A10.24,10.24,0,0,1,8,19.9a8,8,0,0,1-3.84-3.17,8.36,8.36,0,0,1-1.53-3.6,7.29,7.29,0,0,1,0-1.68c0-.13.07-.29.07-.43l.47-.41a6.1,6.1,0,0,0-.17,1A8.69,8.69,0,0,0,4.05,15.73ZM8.57,21.2H8.52a5.5,5.5,0,0,1-1-.35,11.28,11.28,0,0,1-3.89-3,9.07,9.07,0,0,1-1.74-4.23,0,0,0,0,0,0,0v-.15s0-.07,0-.1a.22.22,0,0,0,0-.08h0s0-.07,0-.11a.2.2,0,0,0,0-.07V13h0v-.06h0a1.49,1.49,0,0,1,0-.21h0v0h0a.19.19,0,0,1,0-.08v0a.09.09,0,0,1,0-.05h0v0h0v0a.09.09,0,0,1,0,0v-.08h0v0a.08.08,0,0,0,0,0,.08.08,0,0,1,0,0,.06.06,0,0,1,0,0s0,0,0,0h0c.1-.14.2-.28.31-.41a1.36,1.36,0,0,0,0,.21C1.89,14.49,3.29,16.8,5,18.61a8.61,8.61,0,0,0,3.09,1.92c.34.14.68.3,1,.42ZM1,18.21H1a7.72,7.72,0,0,1-.29-.85,6.32,6.32,0,0,1,0-2.56c0,.12,0,.25.06.37A9.86,9.86,0,0,0,3.17,20a11.81,11.81,0,0,0,1.49,1.24,7.28,7.28,0,0,1-2.4-1.49A6.2,6.2,0,0,1,1,18.21Zm5.31,3.37c-.09,0-.2-.08-.29-.12A16.17,16.17,0,0,1,3.8,19.81,8.2,8.2,0,0,1,1.51,16,6.83,6.83,0,0,1,1.12,14a.13.13,0,0,1,0-.06h0v0s0-.07,0-.1,0-.08,0-.12a.38.38,0,0,0,0-.1v0h0v0H1c.09-.22.18-.42.29-.63a6.91,6.91,0,0,0,.51,2.81A8.88,8.88,0,0,0,4.18,19.2a10.37,10.37,0,0,0,3.49,2.29A3.65,3.65,0,0,1,6.31,21.58Zm4.54-1.68h0a2.34,2.34,0,0,0-.45-.19,9.87,9.87,0,0,0-1.2-.26,8.58,8.58,0,0,1-3.1-2,8.14,8.14,0,0,1-2.52-5.57,4.83,4.83,0,0,1,.14-1.07,2.59,2.59,0,0,0,.12-.66L4.1,10l0,0,.05,0,0,0,0,0h0l.06,0,0,0h0l.06,0h.14l0,0h0s0,0,0,0h0v0h0s0,0,0,0,0,0,0,0a2.66,2.66,0,0,1-.1.44,6.12,6.12,0,0,0,1.36,5.83,7.73,7.73,0,0,0,2.25,2A10.28,10.28,0,0,0,9.66,19c.39.06.75.25,1.14.27h.72A3.92,3.92,0,0,1,10.85,19.9Z"/><polygon class="cls-9" points="4.59 9.91 4.59 9.91 4.59 9.91 4.59 9.91"/><polygon class="cls-9" points="1.78 12.48 1.78 12.49 1.78 12.49 1.78 12.48"/><path class="cls-9" d="M1.88,12.57v0h0Z"/><polygon class="cls-11" points="40.64 9.71 40.64 9.71 40.64 9.71 40.64 9.71"/><path class="cls-11" d="M41.46,8.35l-.08.05-.1.06h0l-.11.08-.08.06L41,8.65a1.29,1.29,0,0,0-.16.17l-.06.11,0,.06,0,.06h0v0l0,.05a.43.43,0,0,0,0,0v.06s0,0,0,.05a.15.15,0,0,0,0,.07.17.17,0,0,0,0,.07c0,.05,0,.09,0,.13v.08a.06.06,0,0,0,0,0h0a.19.19,0,0,1,0,.08.36.36,0,0,0,0,.09.61.61,0,0,0,.05.12l.06.09.06.09.06.09h0l.06.09.13.1.21.11h0a.42.42,0,0,0,.15,0h.19l.12,0,.1,0,0,0h0l0,0,0,0,0,0,0,0h0l0,0h.05l0,0,.13,0,.17-.07.09,0,.09-.06L43,10l.12-.12a1.49,1.49,0,0,0,.12-.14l.09-.12a1,1,0,0,0,.08-.14h0a.83.83,0,0,0,.07-.13.49.49,0,0,0,0-.11h0a.83.83,0,0,0,0-.15.28.28,0,0,0,0-.09V8.9a.29.29,0,0,0,0-.09s0,0,0-.05a.14.14,0,0,1,0-.06l-.06-.08h0l-.06-.08a.56.56,0,0,0,0-.08l0,0,0,0,0,0a.12.12,0,0,0-.05,0l0,0h0l-.05,0h0l-.06,0,0,0-.11-.05-.15,0h-.39l-.1,0-.11,0-.1,0-.08,0-.11,0-.1,0-.09,0-.06,0Zm1.56.3h0l0,0h0Z"/><path class="cls-11" d="M42.79,4.49H43l.07,0,0,0h0l.08,0,0,0a.47.47,0,0,0,0-.1A.44.44,0,0,0,43.31,4s0,0,0-.08a.19.19,0,0,0,0-.07V3.66a.43.43,0,0,0,0-.05.14.14,0,0,0,0-.07.24.24,0,0,0-.06-.11l0,0,0,0,0,0h0l0,0h0l0,0h0l0,0H42.6l-.08,0-.11,0h0l-.09.06-.09.1a.37.37,0,0,0,0,.11.3.3,0,0,0,0,.1.53.53,0,0,0,0,.25l0,.09a.25.25,0,0,0,0,.07s0,0,0,.07l0,.06.05,0,.06,0,.05,0,.06,0,.07,0h.09Zm.05-.24v0h0Z"/><polygon class="cls-11" points="42.59 4.45 42.6 4.46 42.59 4.46 42.59 4.45"/><path class="cls-11" d="M37.78,9.11h0a.17.17,0,0,0,.1,0L38.05,9l.15-.12.12-.12.07-.08a.34.34,0,0,0,.06-.12.49.49,0,0,0,0-.11s0-.06,0-.1h0s0-.07,0-.11,0,0,0-.06l0-.06,0-.09L38.39,8l-.07-.08,0,0,0,0,0,0-.05,0a.2.2,0,0,0-.08,0h0l-.06,0-.12,0h-.19l-.06,0h0l-.07,0-.06,0-.05,0-.06,0-.09,0-.15.14a.57.57,0,0,0-.07.22h0l0,.09a.45.45,0,0,0,0,.11.31.31,0,0,0,0,.19.23.23,0,0,0,0,.11l0,.07h0a.75.75,0,0,0,.07.12.58.58,0,0,0,.12.1.2.2,0,0,0,.15.06h0l0,0h0l0,0,0,0,.12,0Z"/><path class="cls-11" d="M39.73,11.68a4.49,4.49,0,0,0,.71.1,7.43,7.43,0,0,0,2.21-.62,3.52,3.52,0,0,0,1.86-1.91,5,5,0,0,0,.58-1.8A5.34,5.34,0,0,0,43.5,2.77a3.39,3.39,0,0,0-.39-.27,5,5,0,0,1-.6-.43c-.29-.22-.76-.07-1.07-.25-.19,0-.17-.23-.16-.24L41,1.49c-.73-.22-1.67-.3-.94.06,0,0-.26,0-.25,0s-.37.07-.37.08-.44,0-.5,0-.16.3-.4.29a.73.73,0,0,0-.82.58c0,.15-.3.27-.42.36s-.11.21-.24.26,0,0,0,.11-.17.27-.35.26-.17.29-.38.39-.13.52-.29.74c0,0,0,0,0,.08S36,5,36,5.1a1,1,0,0,1,.46.12l.05,0a.9.9,0,0,1-.07,1.47,1.16,1.16,0,0,1-.76.32,6.45,6.45,0,0,0,.76,2.55,5.29,5.29,0,0,0,2.71,2A2.71,2.71,0,0,0,39.73,11.68Zm2.56-8.45a.89.89,0,0,1,.85-.07l.07,0a.84.84,0,0,1,.15,1.29c-.29.34-.75.6-1.16.3A.87.87,0,0,1,42.29,3.23ZM37.93,5a.32.32,0,0,0,0-.17c.13,0,.16-.06.17,0s0,.06,0,.08a.45.45,0,0,0,.1.14.3.3,0,0,0,.08.08l.07,0h0v.07l0-.07a1,1,0,0,0,.16.12l.1,0,.09,0,.12,0h.27l.15,0a1.15,1.15,0,0,0,.17-.06l.23-.11a1,1,0,0,0,.18-.1l.11-.11h0l.14-.16.06-.09.06-.09a.64.64,0,0,0,.08-.19l.06-.2s0-.07,0-.11h0V4a.09.09,0,0,0,0-.05v0a1.09,1.09,0,0,0,0-.18l0-.11h0l0-.06v0a.1.1,0,0,0,0,0h0a.06.06,0,0,0-.07,0s0,0-.07.05h0l-.07,0h0l0,0h0c-.17-.22.11-.56.36-.39h0l.06.06h0c.67.65.16,1.75-.46,2.22S38.15,5.84,37.93,5Zm1.33,2.47a1.34,1.34,0,0,1,.84-1.51A1,1,0,0,1,41,6a.69.69,0,0,1,.17.17,1,1,0,0,1,.17,1.38h0l0,0,0,0,0,.06h0l0,.05,0,0-.13.1h0a2.38,2.38,0,0,1-.3.18h0l-.19.08h0l-.09,0h0l-.08,0H40l-.06,0,0,0h0A1.13,1.13,0,0,1,39.26,7.42Zm-2.17,2L37,9.38a1.07,1.07,0,0,1-.28-1,1.08,1.08,0,0,1,1.56-.81.83.83,0,0,1,.22.2.87.87,0,0,1,.3.52v.09h0v.07a.43.43,0,0,1,0,.05v0h0a.29.29,0,0,1,0,.09s0,.05,0,.08v0l0,0-.08.1L38.55,9a.21.21,0,0,1,0,.06V9h0a.18.18,0,0,0,0,.07l-.06.07h0a.6.6,0,0,0-.08.08h0l-.08.09-.08.07h0l-.05,0h0l-.05,0-.16.07-.07,0h0a1.1,1.1,0,0,1-.36,0A.76.76,0,0,1,37.09,9.45Zm4.22,1.65-.05,0a1.52,1.52,0,0,1-1-1.13c-.25-1.38,1.8-2.61,3-1.86l.18.14a.92.92,0,0,1,.23.29.7.7,0,0,1,.2.6,2.38,2.38,0,0,1-1.29,1.74,5.28,5.28,0,0,1-.75.29h-.08l-.13,0h-.07l-.09,0h-.09Z"/><path class="cls-11" d="M36,5.49h-.07s0,0-.08,0h0l0,0h0v0h0a.08.08,0,0,0,0,0v0h0v0a3.43,3.43,0,0,0-.11.64l0,0h0s0,0,0,.07h0v.07a.11.11,0,0,0,0,.08.08.08,0,0,0,0,0,0,0,0,0,0,0,0h0v0l0,0,0,0,0,0h0l.08,0h0l.11,0H36l.06,0a.39.39,0,0,0,.11-.06l.06,0,0,0,0,0,0,0v0l0,0,0,0v0h0a.18.18,0,0,0,0-.07.16.16,0,0,0,0-.09h0s0,0,0-.07V6a.59.59,0,0,0,0-.13.55.55,0,0,0-.12-.24.27.27,0,0,0-.08-.07h0l-.1-.06-.1,0H36Z"/><path class="cls-11" d="M39.72,7.28h0l0,.06h0l0,.07,0,0a.38.38,0,0,0,.09.09l0,0a.54.54,0,0,0,.15.09,0,0,0,0,0,0,0h0l0,0h.07a.55.55,0,0,0,.18,0l.17,0a1,1,0,0,0,.17-.1l.15-.13h0A.69.69,0,0,0,41,7.25l.09-.13h0a.16.16,0,0,0,0-.07l0-.06,0-.07s0,0,0-.06a.29.29,0,0,0,0-.09s0,0,0-.06l0-.07s0,0,0-.05h0s0,0,0-.06a.13.13,0,0,0,0-.06l0-.06,0-.06h0s0,0,0-.08l0-.06-.07-.09s0,0,0-.05h0l0,0h0l0,0-.06,0h0l0,0h-.17l-.11,0h-.1l-.1,0h0l-.07.05-.07,0a.83.83,0,0,0-.15.11h0l-.11.11a.84.84,0,0,0-.11.21.65.65,0,0,0,0,.2.21.21,0,0,0,0,.11.68.68,0,0,0,0,.14.67.67,0,0,0,.06.12A.76.76,0,0,0,39.72,7.28Zm1.05-1h0l0,0h0Z"/><path class="cls-12" d="M40.25,10a1.52,1.52,0,0,0,1,1.13l.05,0h.09l.09,0h.07l.13,0h.08a5.28,5.28,0,0,0,.75-.29,2.38,2.38,0,0,0,1.29-1.74.7.7,0,0,0-.2-.6.92.92,0,0,0-.23-.29l-.18-.14C42.05,7.34,40,8.57,40.25,10Zm1.42-1.69.1,0,.11,0,.08,0,.1,0,.11,0,.1,0h.39l.15,0,.11.05,0,0,.06,0h0l.05,0h0l0,0a.12.12,0,0,1,.05,0l0,0,0,0,0,0a.56.56,0,0,1,0,.08l.06.08h0l.06.08a.14.14,0,0,0,0,.06s0,0,0,.05a.29.29,0,0,1,0,.09V9a.28.28,0,0,1,0,.09.83.83,0,0,1,0,.15h0a.49.49,0,0,1,0,.11.83.83,0,0,1-.07.13h0a1,1,0,0,1-.08.14l-.09.12a1.49,1.49,0,0,1-.12.14L43,10l-.19.13-.09.06-.09,0-.17.07-.13,0,0,0h-.05l0,0h0l0,0,0,0,0,0,0,0h0l0,0-.1,0-.12,0h-.19a.42.42,0,0,1-.15,0h0l-.21-.11-.13-.1-.06-.09h0l-.06-.09-.06-.09L40.74,10a.61.61,0,0,1-.05-.12.36.36,0,0,1,0-.09.19.19,0,0,0,0-.08h0a.06.06,0,0,1,0,0V9.57s0-.08,0-.13a.17.17,0,0,1,0-.07.15.15,0,0,1,0-.07s0,0,0-.05V9.19a.43.43,0,0,1,0,0l0-.05v0h0l0-.06,0-.06.06-.11A1.29,1.29,0,0,1,41,8.65l.07-.06.08-.06.11-.08h0l.1-.06.08-.05.06,0,.06,0Z"/><polygon class="cls-12" points="41.48 11.13 41.49 11.13 41.49 11.13 41.49 11.13 41.49 11.13 41.48 11.13"/><polygon class="cls-12" points="40.92 10.28 40.92 10.28 40.92 10.28 40.92 10.28"/><polygon class="cls-12" points="40.64 9.71 40.64 9.71 40.64 9.71 40.64 9.71"/><polygon class="cls-12" points="42.16 10.45 42.16 10.45 42.17 10.45 42.16 10.45"/><path class="cls-12" d="M43,8.65h0l0,0h0Z"/><polygon class="cls-12" points="38.78 8.37 38.78 8.37 38.78 8.38 38.78 8.37"/><polygon class="cls-12" points="38.33 9.25 38.32 9.25 38.32 9.25 38.33 9.25"/><polygon class="cls-12" points="37.77 9.11 37.77 9.11 37.78 9.11 37.77 9.11"/><path class="cls-13" d="M38.08,9.47h0"/><path class="cls-12" d="M37.82,9.58h0l.07,0,.16-.07.05,0h0l.05,0h0l.08-.07.08-.09a.6.6,0,0,1,.08-.08h0l.06-.07a.18.18,0,0,1,0-.07h0V9a.21.21,0,0,0,0-.06l.07-.09.08-.1,0,0v0s0,0,0-.08a.29.29,0,0,0,0-.09h0v0a.43.43,0,0,0,0-.05V8.28a.87.87,0,0,0-.3-.52.83.83,0,0,0-.22-.2,1.08,1.08,0,0,0-1.56.81,1.07,1.07,0,0,0,.28,1l.11.07a.76.76,0,0,0,.37.16A1.1,1.1,0,0,0,37.82,9.58Zm-.31-.5,0,0h0l0,0h0A.2.2,0,0,1,37.27,9a.58.58,0,0,1-.12-.1.75.75,0,0,1-.07-.12h0l0-.07a.23.23,0,0,1,0-.11.31.31,0,0,1,0-.19.45.45,0,0,1,0-.11l0-.09h0a.57.57,0,0,1,.07-.22l.15-.14.09,0,.06,0,.05,0,.06,0,.07,0h0l.06,0h.19l.12,0,.06,0h0a.2.2,0,0,1,.08,0l.05,0,0,0,0,0,0,0,.07.08.06.08,0,.09,0,.06s0,0,0,.06,0,.08,0,.11h0s0,.07,0,.1a.49.49,0,0,1,0,.11.34.34,0,0,1-.06.12l-.07.08-.12.12L38.05,9l-.13.06a.17.17,0,0,1-.1,0h0l-.12,0-.12,0Z"/><polygon class="cls-12" points="40.97 7.81 40.97 7.81 40.96 7.82 40.97 7.81"/><path class="cls-12" d="M39.26,7.42a1.13,1.13,0,0,0,.56.67h0l0,0,.06,0h.28l.08,0h0l.09,0h0L40.66,8h0a2.38,2.38,0,0,0,.3-.18l.13-.1,0,0,0-.05h0l0-.06,0,0,0,0h0a1,1,0,0,0-.17-1.38A.69.69,0,0,0,41,6a1,1,0,0,0-.85,0A1.34,1.34,0,0,0,39.26,7.42Zm.3-.51a.21.21,0,0,1,0-.11.65.65,0,0,1,0-.2.84.84,0,0,1,.11-.21l.11-.11h0A.83.83,0,0,1,40,6.14l.07,0,.07-.05h0l.1,0h.1l.11,0h.17l0,0h0l.06,0,0,0h0l0,0h0s0,0,0,.05L41,6.2l0,.06s0,0,0,.08h0l0,.06,0,.06a.13.13,0,0,1,0,.06s0,0,0,.06h0s0,0,0,.05l0,.07s0,0,0,.06a.29.29,0,0,1,0,.09s0,0,0,.06l0,.07,0,.06a.16.16,0,0,1,0,.07h0L41,7.25a.69.69,0,0,1-.11.13h0l-.15.13a1,1,0,0,1-.17.1l-.17,0a.55.55,0,0,1-.18,0h-.07l0,0h0a0,0,0,0,1,0,0A.54.54,0,0,1,40,7.54l0,0a.38.38,0,0,1-.09-.09l0,0,0-.07h0l0-.06h0a.76.76,0,0,1-.08-.11.67.67,0,0,1-.06-.12A.68.68,0,0,1,39.56,6.91Z"/><path class="cls-12" d="M40.24,8.15Z"/><path class="cls-12" d="M40.78,6.26h0l0,0h0Z"/><path class="cls-12" d="M43.36,4.5a.84.84,0,0,0-.15-1.29l-.07,0a.89.89,0,0,0-.85.07A.87.87,0,0,0,42.2,4.8C42.61,5.1,43.07,4.84,43.36,4.5Zm-.77,0h0l-.07,0-.06,0-.05,0-.06,0-.05,0,0-.06s0,0,0-.07a.25.25,0,0,1,0-.07l0-.09a.53.53,0,0,1,0-.25.3.3,0,0,1,0-.1.37.37,0,0,1,0-.11l.09-.1.09-.06h0l.11,0,.08,0H43l0,0h0l0,0h0l0,0h0l0,0,0,0,0,0a.24.24,0,0,1,.06.11.14.14,0,0,1,0,.07.43.43,0,0,1,0,.05v.23a.19.19,0,0,1,0,.07s0,0,0,.08a.44.44,0,0,1-.05.15.47.47,0,0,1,0,.1l0,0-.08,0h0l0,0-.07,0h-.18l-.11,0h-.09Z"/><path class="cls-12" d="M42.82,4.27h0v0l0,0Z"/><path class="cls-12" d="M39.93,5.51c.62-.47,1.13-1.57.46-2.22h0l-.06-.06h0c-.25-.17-.53.17-.36.39h0l0,0h0l.07,0h0s0-.05.07-.05a.06.06,0,0,1,.07,0h0a.1.1,0,0,1,0,0v0l0,.06h0l0,.11a1.09,1.09,0,0,1,0,.18V4a.09.09,0,0,1,0,.05v0h0s0,.08,0,.11l-.06.2a.64.64,0,0,1-.08.19l-.06.09-.06.09-.14.16h0L39.82,5a1,1,0,0,1-.18.1l-.23.11a1.15,1.15,0,0,1-.17.06l-.15,0h-.27l-.12,0-.09,0-.1,0a1,1,0,0,1-.16-.12l-.07,0A.3.3,0,0,1,38.2,5a.45.45,0,0,1-.1-.14s0,0,0-.08l0-.11a.13.13,0,0,1,0-.06v0s0,0,0-.06h.07l.11,0h.09a.28.28,0,0,0-.09-.17.2.2,0,0,0-.11-.06.25.25,0,0,0-.32.2,1,1,0,0,0,0,.58C38.11,5.86,39.26,5.92,39.93,5.51Z"/><polygon class="cls-12" points="38.34 5.07 38.35 5.07 38.35 5.08 38.34 5.07"/><polygon class="cls-12" points="35.84 5.54 35.84 5.54 35.83 5.54 35.84 5.54"/><path class="cls-12" d="M40.56,12.28a5,5,0,0,0,2.2-.54,5.37,5.37,0,0,0,2.72-3.43A5.86,5.86,0,0,0,44.84,4a6.43,6.43,0,0,0-2.21-2.19A4.56,4.56,0,0,0,40,1.12,5.18,5.18,0,0,0,36.76,2.8a5.82,5.82,0,0,0-1.63,4.68,5.56,5.56,0,0,0,2.71,4.13A5.38,5.38,0,0,0,40.56,12.28ZM35.68,6.76l0,0v0h0a0,0,0,0,1,0,0,.08.08,0,0,1,0,0,.11.11,0,0,1,0-.08V6.49h0s0,0,0-.07h0l0,0a3.43,3.43,0,0,1,.11-.64v0h0v0a.08.08,0,0,1,0,0h0v0h0l0,0h0s0,0,.08,0h.16l.1,0,.1.06h0a.27.27,0,0,1,.08.07.55.55,0,0,1,.12.24.59.59,0,0,1,0,.13v.08s0,0,0,.07h0a.16.16,0,0,1,0,.09.18.18,0,0,1,0,.07h0v0l0,0,0,0v0l0,0,0,0,0,0-.06,0a.39.39,0,0,1-.11.06l-.06,0H36l-.11,0h0l-.08,0h0l0,0Zm.71,2.84a6.45,6.45,0,0,1-.76-2.55,1.16,1.16,0,0,0,.76-.32.9.9,0,0,0,.07-1.47l-.05,0a1,1,0,0,0-.36-.11.09.09,0,0,0,0-.05c0-.21.17-.46.28-.62l.24-.35c.1-.13.22-.23.33-.35s.31-.58.56-.79.49-.32.73-.49a3.37,3.37,0,0,1,1.64-.8,5.17,5.17,0,0,1,.88,0,11.09,11.09,0,0,1,1.19.4,3.39,3.39,0,0,1,1.35.77,5.39,5.39,0,0,1,1.85,4.61,5,5,0,0,1-.58,1.8,3.52,3.52,0,0,1-1.86,1.91,7.43,7.43,0,0,1-2.21.62,4.49,4.49,0,0,1-.71-.1,2.71,2.71,0,0,1-.63-.13A5.29,5.29,0,0,1,36.39,9.6Z"/></g></g></svg>