<svg xmlns="http://www.w3.org/2000/svg" viewBox="0 0 34.4 62.15"><defs><style>.cls-1{fill:#eb5d45;}.cls-2{fill:#255827;}.cls-3{fill:#e52823;}.cls-4{fill:#ff8500;}.cls-5{fill:#ad5404;}.cls-6{fill:#558455;}.cls-7{fill:#e9a061;}.cls-8{fill:#92443f;}.cls-9{fill:#b27e4c;}.cls-10{fill:#6b1e1e;}</style></defs><g id="Layer_2" data-name="Layer 2"><g id="Card"><path class="cls-1" d="M12.72,33.5a43.47,43.47,0,0,0-.5,5.85c.12,1.59.26,4.57.53,6.65s.33,4.12.39,4.92-.3,3.12.37,3.78,1,1.94,2.2,1.84a4.06,4.06,0,0,0,2.84-1.08c.48-.64.69-.46.62-1.3s-.37-5.2.21-6.85a28.82,28.82,0,0,0,.94-3.84l1.36-2s.32,1.47.53,2.81a20.61,20.61,0,0,1,.22,4.4,21.82,21.82,0,0,1-.61,3.11s-.4,1.64,2.16,2.48,3-3.14,3-3.56a28,28,0,0,1,.22-4.72,17.25,17.25,0,0,0,.52-5.3,25.65,25.65,0,0,0-1-5.27c-.32-.53-.42-1.19-.78-1.12s-1.14.31-1.14.31a15.68,15.68,0,0,1-5.69.61A21,21,0,0,1,12.72,33.5Z"/><path d="M14.69,56.45h0Z"/><path d="M18.16,56.07h0Z"/><path d="M18.56,55.72h0Z"/><path d="M18.81,55.34Z"/><path d="M21.58,52.5Z"/><path d="M15.48,56.74Z"/><polygon points="15.47 56.74 15.47 56.74 15.47 56.74 15.47 56.74"/><polygon points="15.22 56.65 15.22 56.65 15.22 56.65 15.22 56.65"/><path d="M15.21,56.65Z"/><path class="cls-2" d="M20.36,59c-.43-1.11-1.87-1.86-1.63-3.18a.25.25,0,0,0-.18-.31c-.5-.07-.37.76-.3,1.06.22,1,1.13,1.63,1.59,2.51.05.12.09.26.13.39a.22.22,0,0,0-.12.09,3.85,3.85,0,0,1-3.33.28,4.31,4.31,0,0,0-.61-.1,1.39,1.39,0,0,1-.79-.46.27.27,0,0,0-.07-.21A7,7,0,0,0,15.59,57c.18-.09.13-.26.12-.42a.28.28,0,0,0-.49-.14,1.48,1.48,0,0,0-.15.69,6.57,6.57,0,0,1-.3,1.26,3.61,3.61,0,0,0-.43,2.35c.65,1.2,2.13,1.25,3.34,1.42a2.47,2.47,0,0,0,1.44-.21,3.65,3.65,0,0,0,.91-.58.23.23,0,0,0,.18-.09A2.38,2.38,0,0,0,20.36,59Z"/><path class="cls-2" d="M17.33,57.56h0l.1,0a.26.26,0,0,0,.2-.47c-.29-.17-.64,0-1-.09-.24-.22-.65.13-.4.39A1.74,1.74,0,0,0,17.33,57.56Z"/><path class="cls-2" d="M17.73,57.94a.27.27,0,0,0-.29-.22,4.56,4.56,0,0,1-.74,0c-.35-.27-.66.36-.24.48a2,2,0,0,0,.41,0C17.15,58.22,17.74,58.38,17.73,57.94Z"/><path class="cls-2" d="M16.61,59c.24,0,.49,0,.73.1a.24.24,0,0,0,.28-.22c0-.37-.48-.31-.74-.36C16.54,58.2,16.11,58.89,16.61,59Z"/><path class="cls-2" d="M28.92,56a2.39,2.39,0,0,0-.77-.37c-.52-.21-1.08-.36-1.6-.58-.3-.23-.93-.38-.92-.83a.26.26,0,0,0-.11-.43c-.26-.08-.4.18-.4.4a.93.93,0,0,0,.37.8,5.22,5.22,0,0,0,1.6.8l-.1.07A4.65,4.65,0,0,0,26,57a2,2,0,0,1-.77,0,8.2,8.2,0,0,1-3.61-.55.26.26,0,0,0-.12-.11,5.65,5.65,0,0,1,.37-.88,6.87,6.87,0,0,0,.76-1.94l-.14-.06h0a1.46,1.46,0,0,1-.21-.16l-.06-.08a1.14,1.14,0,0,0-.09.26,6.32,6.32,0,0,1-.69,1.73,3.76,3.76,0,0,0-.56,2.23,1,1,0,0,0,.21.68,1.5,1.5,0,0,0,.55.23,5.3,5.3,0,0,0,2.13.35c.46,0,.91,0,1.37,0a5.69,5.69,0,0,1,1-.12c.27,0,.54,0,.81,0a.23.23,0,0,0,.18-.06l.22,0a2.74,2.74,0,0,0,1.6-.33C29.53,57.73,29.41,56.47,28.92,56Z"/><path class="cls-2" d="M22.64,55.53a.78.78,0,0,0,.56.33c.69.08,1.24-.54.68-1.12-.2-.2-.65-.39-.87-.13C22.59,54.64,22.44,55.2,22.64,55.53Z"/><path class="cls-3" d="M27.68,41.52s0,0,0-.07h0a6.24,6.24,0,0,0-.26-1.3.52.52,0,0,0,.11-.1.32.32,0,0,0,.07-.2.25.25,0,0,0-.06-.45.85.85,0,0,0-.31,0,.21.21,0,0,0-.08-.11.2.2,0,0,0,.06-.15.22.22,0,0,0,.06-.36.25.25,0,0,0-.1-.31l-.07,0a.24.24,0,0,0-.1-.14c0-.08,0-.15,0-.2a.19.19,0,0,0,0-.19.24.24,0,0,0-.16-.32,2.21,2.21,0,0,0-.32-.59h-.16l.21-.07a.25.25,0,0,0,.07-.44.31.31,0,0,0,0-.44.25.25,0,0,0,0-.17.25.25,0,0,0,.16-.36,1.2,1.2,0,0,0-.46-.37.25.25,0,0,0-.16-.34,0,0,0,0,0,0,0l-.06,0a3.55,3.55,0,0,0-1.59.07.23.23,0,0,0-.1.07l-.33,0a.21.21,0,0,0-.16.29l-.26.12c-.22.16-.09.55.2.46l.27-.06a.27.27,0,0,0,.23.19l-.16.08a.25.25,0,0,0-.09.32s-.07,0-.09.07a.25.25,0,0,0,.17.42,2,2,0,0,0,.35,0,.24.24,0,0,0,.11.15,1.37,1.37,0,0,0,.29.07.23.23,0,0,0,.15.17h0s0,.09,0,.13a.24.24,0,0,0-.08.22l0,0a.26.26,0,0,0,0,.15A.24.24,0,0,0,25,38a.55.55,0,0,0-.12.21.24.24,0,0,0,.17.29.23.23,0,0,0,.11.2,1,1,0,0,0,.3.08.58.58,0,0,0-.13.14.23.23,0,0,0,0,.27l-.16.07a.26.26,0,0,0-.09.34,1.21,1.21,0,0,0-.2.09.25.25,0,0,0,.09.46.27.27,0,0,0,.24.21h0a.2.2,0,0,0,.15.13h.13s0,0,0,.06h0a.25.25,0,0,0,.06.46,1.88,1.88,0,0,0,.58,0h0a.36.36,0,0,0-.13.24.41.41,0,0,0,0,.11.21.21,0,0,0,0,.26h0a.25.25,0,0,0,.17.43h.07s0,0,0,.05a.53.53,0,0,0-.26.31h0a.26.26,0,0,0-.16.33.25.25,0,0,0,.14.4s0,0,0,0a.25.25,0,0,0,.14.26.32.32,0,0,0,0,.14.63.63,0,0,0-.12.11.29.29,0,0,0,0,.35l-.21,0a.25.25,0,0,0-.15.37.54.54,0,0,0,.44.22l.39.08h0s0,.05,0,.07a.45.45,0,0,0-.12.06,2.74,2.74,0,0,0-.74.17.76.76,0,0,1-.16.69.05.05,0,0,1,0,0,.25.25,0,0,0,.12.28l.25.1a.26.26,0,0,0-.1.16c-.05.05-.11.09-.15.14a.25.25,0,0,0,.05.39s0,0,0,0a.41.41,0,0,1,0,.09.26.26,0,0,0,.17.31.4.4,0,0,0,0,.2.83.83,0,0,0-.23.15.25.25,0,0,0,0,.3s0,0,0,0h0a.26.26,0,0,0,0,.44.29.29,0,0,1,.1,0,.26.26,0,0,0,.13.1h0a.23.23,0,0,0,0,.26s-.05,0-.07,0a.29.29,0,0,0-.12.29.26.26,0,0,0,0,.21l0,0a.24.24,0,0,0-.05.2h0a.24.24,0,0,0,0,.43l.06,0a.25.25,0,0,0,0,.24.31.31,0,0,0-.09.07.25.25,0,0,0,.05.39l.06,0a.52.52,0,0,1-.09.6.42.42,0,0,0,0,.13.59.59,0,0,0-.19.13.23.23,0,0,0-.05.25.38.38,0,0,0-.12.1.39.39,0,0,0,0,.36.49.49,0,0,0-.37.27.36.36,0,0,0,0,.29.24.24,0,0,0-.09.3.22.22,0,0,0-.16.2c-.17,0-.3.08-.33.24a.74.74,0,0,0-.25,0,.49.49,0,0,0-.32.16.06.06,0,0,0,0,0,.25.25,0,0,0,.07.48l.25,0,.07,0h.33a.18.18,0,0,0,.22-.17l.33-.16a.23.23,0,0,0,.3-.17,1,1,0,0,0,.45-.56,1.28,1.28,0,0,0,.58-.93s0,0,0,0a4.19,4.19,0,0,0,.26-.7l0-.05s0-.07,0-.11l0-.08v0a3.72,3.72,0,0,0,.08-.57.38.38,0,0,0,0-.1v-.17a.25.25,0,0,0,0-.34v-.06a.27.27,0,0,0,0-.32v0a.25.25,0,0,0,0-.25.23.23,0,0,0,0-.41,0,0,0,0,1,0,0,.91.91,0,0,1,0-.17.23.23,0,0,0,.28-.16,2.23,2.23,0,0,0,.05-.36,1,1,0,0,0,.09-.77.22.22,0,0,0-.22-.18l0,0h.07a.25.25,0,0,0,.12-.41c.09-.15,0-.39-.19-.36h-.14a1.23,1.23,0,0,0,.44-.16A.25.25,0,0,0,27,46H27a.19.19,0,0,0,0-.08l.12-.1a.23.23,0,0,0,.05-.26.33.33,0,0,0,.08-.28.9.9,0,0,0,.21-.08.26.26,0,0,0,.09-.34l0,0a.91.91,0,0,0,.11-.16.6.6,0,0,0-.09-.63,3.78,3.78,0,0,0,.05-.75,1.51,1.51,0,0,0,0-.56c0-.18,0-.35,0-.53a.22.22,0,0,0,.05-.12c0-.11,0-.23,0-.34A.19.19,0,0,0,27.68,41.52Zm-.61,2.09a.16.16,0,0,0-.1,0,.28.28,0,0,0,0-.13l.11,0S27.07,43.56,27.07,43.61Zm-1.69,9.18h0l0,0h0C25.23,52.79,25.19,52.82,25.38,52.79Z"/><path class="cls-3" d="M20.74,41.64a1.61,1.61,0,0,0-.88.53.19.19,0,0,0,0,.12,3.86,3.86,0,0,0-.66.42c-.15.12-.05.35.11.4a.93.93,0,0,0-.28.4.26.26,0,0,0,0,.19,1.14,1.14,0,0,0-.29.29.21.21,0,0,0,0,.28l-.13.1a.24.24,0,0,0,.07.39.25.25,0,0,0,0,.34,2.18,2.18,0,0,0-.34.26.25.25,0,0,0,0,.38.89.89,0,0,0-.25.41.29.29,0,0,0,0,.16.55.55,0,0,0-.13.25.29.29,0,0,0,.06.21.24.24,0,0,0,.1.28h.05s0,0,0,.08a.26.26,0,0,0,.18.24l-.06.13a2.13,2.13,0,0,0-.8.24.25.25,0,0,0-.07.37,1.15,1.15,0,0,0-.17.14.25.25,0,0,0,.05.38.45.45,0,0,0,0,.11.36.36,0,0,0,.27.41.23.23,0,0,0,.1.23.32.32,0,0,0,0,.22s0,0,.05.07a.27.27,0,0,0,0,.27,1,1,0,0,0-.29.25.24.24,0,0,0,0,.29.25.25,0,0,0,.08.31.2.2,0,0,0,0,.13l-.07,0a.26.26,0,0,0,.11.42h.05a.21.21,0,0,0,.1.19,1.27,1.27,0,0,0-.07.12.25.25,0,0,0,.09.25.74.74,0,0,0-.36.32.26.26,0,0,0,0,.28.24.24,0,0,0,0,.33s0,0,0,0l0,0a.26.26,0,0,0,0,.3.74.74,0,0,0-.12.17.26.26,0,0,0,.15.37h.11a.79.79,0,0,0-.38.54.23.23,0,0,0,0,.11,1.59,1.59,0,0,0-.2.24.24.24,0,0,0,.14.36,1,1,0,0,0,.23,0,1,1,0,0,0-.13.16.19.19,0,0,0,0,.12.81.81,0,0,0-.29.4,1.75,1.75,0,0,0-.57.43l0,0-.35.13h0l-.21.05h0l-.06,0c-.27.12-.06.5.19.45a4.3,4.3,0,0,0,.77-.23l.13,0h0l.06,0s0,0,0-.06a2.61,2.61,0,0,0,1.51-1.41,1.3,1.3,0,0,0,.32-1.17h0a1.81,1.81,0,0,0,0-.23.27.27,0,0,0,.09-.12.2.2,0,0,1,0-.07.17.17,0,0,0,.18-.12,6.51,6.51,0,0,0,.21-1.55l0-.22s0,0,0-.08a.15.15,0,0,0,0-.07.22.22,0,0,0,.15-.2c0-.58,0-1.16,0-1.75a.25.25,0,0,0-.16-.21.25.25,0,0,0,.05-.13c0-.38,0-.75,0-1.13.1-.54.19-1.07.29-1.61l0,0a2.63,2.63,0,0,0,.09-.3l0,0c.07-.19.13-.38.19-.58s.22-.69.34-1a.2.2,0,0,0,.1-.08,1.93,1.93,0,0,0,.21-.84,1,1,0,0,0,.05-.16.21.21,0,0,0-.05-.22,1.94,1.94,0,0,1,0-.24l.07,0c.14-.12.07-.28-.05-.37h0a.21.21,0,0,0,.1-.29l.27-.09C21.17,42,21,41.52,20.74,41.64Zm-2.6,12.79-.13,0,.14-.07S18.14,54.41,18.14,54.43Zm-.2-5.71h0Zm.4,3.87v0l0,0Zm.35-3.16h0Zm.41-3.58h0l-.06,0Z"/><path class="cls-3" d="M21.63,52.66h0Z"/><path class="cls-3" d="M28,40.69a24.72,24.72,0,0,0-.77-3.79c-.12-.52-.28-1-.44-1.53s-.25-1-.78-1.12a1.31,1.31,0,0,1-.28-.09.27.27,0,1,0-.1.52c.18,0,.42.06.49.27.22.68.43,1.35.61,2s.36,1.46.53,2.2a15.57,15.57,0,0,1,.29,2.64,14.76,14.76,0,0,1-.6,4.36c-.18,1-.27,2-.37,3a3.68,3.68,0,0,1,.05.81v0h0v.22h0v.16s0,.1,0,.15a.68.68,0,0,1,0,.14.35.35,0,0,1,0,.11v.09h0s0,0,0,.06h0v0h0a1.22,1.22,0,0,1-.11.56,5,5,0,0,1-1.49,2.21,1.24,1.24,0,0,1-1.39,0,2.47,2.47,0,0,1-.92-.52h-.06l-.13-.07h0l-.12-.08h0a.28.28,0,0,1-.1-.09l0,0a.34.34,0,0,1-.07-.19v0h0v0s0-.05,0-.08v0a.49.49,0,0,1,0-.17s0-.07,0-.1c0-.25,0-.51,0-.77,0-1.31.62-2.51.66-3.81a13.08,13.08,0,0,0-.28-3.18,16.13,16.13,0,0,0-.67-3,.23.23,0,0,0-.09-.19h0c.22-.18.48-.3.69-.49l.47-.36a.26.26,0,0,0-.26-.44l-.8.61a1.4,1.4,0,0,0-.6.5,5.7,5.7,0,0,0-.89,1.92c-.25,1-.56,2-.82,3-.81,2.65-.31,5.46-.85,8.16,0,.19-.09.39-.15.58,0,0-.05,0-.06,0a2.11,2.11,0,0,1-.39.5l-.1.12c-.12.09-.21.24-.32.33a3.43,3.43,0,0,1-2.11.46.27.27,0,0,0-.14-.17s0,0,0-.06a4,4,0,0,1-.19-1c0-1.09.05-2.18,0-3.26s-.18-2-.23-3-.08-2.21-.18-3.32c-.08-1.52-.36-3.07-.47-4.59h0c0-.68-.08-1.36-.11-2a6.12,6.12,0,0,0,.63-.59,7.2,7.2,0,0,0,1.83-2.9c.06-.26.33-.72,0-.85a.26.26,0,0,0-.32.18,1.66,1.66,0,0,1-.06.21l0,0a.23.23,0,0,0-.15-.33,1.92,1.92,0,0,0-.58-.07.25.25,0,0,0-.21-.16l-.34,0a.29.29,0,0,0-.22.07.43.43,0,0,0-.24.17.25.25,0,0,0,0,.27.3.3,0,0,0,0,.1.23.23,0,0,0-.09.34.27.27,0,0,0,0,.26H14.3l-.07,0c0-.43.1-.87.18-1.3a.26.26,0,0,0-.46-.16,3.11,3.11,0,0,0-.18,1,19.77,19.77,0,0,0-.15,2.56c0,3.07.56,6.07.7,9.14,0,1.1.11,2.21.18,3.31a24.53,24.53,0,0,1,.17,3,12.71,12.71,0,0,0,.1,2.76,1.41,1.41,0,0,1-.18-.14,3.27,3.27,0,0,1-1.07-2,9.14,9.14,0,0,1-.12-1.66,9.6,9.6,0,0,1,0-1.61c-.11-1.45-.24-2.85-.3-4.32,0-1-.25-2-.36-3s-.14-1.87-.23-2.81a40.91,40.91,0,0,1,.45-6.71c0-.08.06-.15.05-.23a.27.27,0,0,0-.39-.22.38.38,0,0,0-.14.26c-.11.52-.14,1.05-.2,1.57A32.25,32.25,0,0,0,12,40.51c.14,1.33.16,2.69.41,4s.2,2.7.31,4c0,.72.17,1.43.16,2.15a6.05,6.05,0,0,0,0,1.41,7,7,0,0,0,.49,2.9,3.13,3.13,0,0,0,1.3,1.42h.1l.06,0,.1,0h0l.08,0h0l.08,0h0l.07,0h0l.08,0,.16.05h0l.35.08h0a3.44,3.44,0,0,0,2.06-.55l0,0,.1-.08s0,0,0,0l0-.05a.46.46,0,0,0,.07-.07l.1-.12.13-.09h0l0,0,.05,0,.08-.08.09-.14.07-.11.08-.11h0l.11-.14a8.52,8.52,0,0,0,.25-1,27.07,27.07,0,0,0,.3-3.25,19.53,19.53,0,0,1,.1-2.53,23.42,23.42,0,0,1,.93-4A10.59,10.59,0,0,1,21.34,42s0,0,0,0a11.51,11.51,0,0,1,.47,2.11,14.3,14.3,0,0,1,.36,4A17.77,17.77,0,0,1,21.76,50a9.62,9.62,0,0,0-.21,2.4l0,.11h0s0,.1.05.15l.06.19a.61.61,0,0,1,.07.17v0h0v0l0,0v0l0,.06a.25.25,0,0,1,0,.07h0a3.42,3.42,0,0,0,.52.56,4.48,4.48,0,0,0,1.81.74c1.43-.1,2.22-1.67,2.68-2.85a1.89,1.89,0,0,0,.13-.78,2.72,2.72,0,0,1,0-.64s0,0,0,0c0-.38.06-.76.1-1.14a26,26,0,0,1,.69-4.39A12,12,0,0,0,28,40.69ZM14.15,37l0,0a.34.34,0,0,0,0,.1s0,0,0,.06l-.09.06C14.14,37.17,14.15,37.09,14.15,37Zm1.06.08h0v0Zm.33-.55h0l0,0S15.54,36.54,15.54,36.53Zm.34-.6a.26.26,0,0,0-.08-.13h0a.25.25,0,0,0,0-.45H16a.29.29,0,0,0,.1,0Q16,35.63,15.88,35.93Zm-1.64.1.07,0a.24.24,0,0,0-.07.27.27.27,0,0,0,0,.32.27.27,0,0,0-.08.07c0-.24,0-.49,0-.73Z"/><polygon class="cls-3" points="15.47 56.74 15.47 56.74 15.47 56.74 15.47 56.74"/><polygon class="cls-3" points="15.47 56.74 15.47 56.74 15.46 56.74 15.47 56.74"/><polygon class="cls-3" points="15.23 56.66 15.23 56.66 15.22 56.65 15.23 56.66"/><path class="cls-4" d="M29.32,14.86c.35.47,2.5.67,3.54-.22s1.81-2.86,1.35-3.83-2-3.12-4.25-2.63S26.25,9.8,26.11,11s1,3.77,1.46,3.89A7.75,7.75,0,0,0,29.32,14.86Z"/><path class="cls-5" d="M34.21,10.81a5.78,5.78,0,0,0-1.8-2.49A2.17,2.17,0,0,0,31.66,8a4.2,4.2,0,0,0-2-.26c-1.58.46-3.3,1.54-3.57,3.29A4.78,4.78,0,0,0,26,12.18a3.25,3.25,0,0,0,.36,1.17,4.12,4.12,0,0,0,.85,1.22.79.79,0,0,0,.39.31c.31.15.65-.15.37-.42-.08-.07-.19,0-.27-.1a5.3,5.3,0,0,1-.68-.88,7.17,7.17,0,0,0,3.55.2c.68-.09,1.37-.15,2.05-.28a6.26,6.26,0,0,0,1-.23l0,.08a.24.24,0,0,0-.18.21c0-.12,0-.1-.06,0a.91.91,0,0,1-.17.09l-.3.13a6.43,6.43,0,0,1-1.12.38,8.41,8.41,0,0,1-2.5.16c-.32,0-.32.48,0,.5a8.28,8.28,0,0,0,2.93-.26,5.88,5.88,0,0,0,.74-.26s0,0,0,.06l-.62.47a4.57,4.57,0,0,1-.63.19,3.66,3.66,0,0,1-2,.07.26.26,0,0,0-.4.32c.15.2.42.22.65.28a3,3,0,0,0,1.29-.07,4.52,4.52,0,0,0,1.41-.37,7.51,7.51,0,0,0,1.13-1A3.72,3.72,0,0,0,34.21,10.81Zm-7.48-.19.07-.18h0a24.6,24.6,0,0,0,2.49.76,8.32,8.32,0,0,0,2.39.07c.45,0,.9-.1,1.34-.19a2.66,2.66,0,0,0,.65-.19c0,.14.11.28.15.42a.24.24,0,0,0-.08.09,4.51,4.51,0,0,1-1.35.47,11.72,11.72,0,0,1-1.87.28,6.72,6.72,0,0,1-2-.1,9.14,9.14,0,0,1-1.76-.6.26.26,0,0,0-.28.06A6.71,6.71,0,0,1,26.73,10.62ZM32.8,9.44c-.31.06-.62.13-.94.17a6.93,6.93,0,0,1-1.29.05A9,9,0,0,1,28,9.17a.18.18,0,0,0-.16,0,6.76,6.76,0,0,1,1-.61.21.21,0,0,0,.16.14c.36,0,.7.16,1.06.21a10.73,10.73,0,0,0,1.14.1c.25,0,.84.09,1-.18A5,5,0,0,1,32.8,9.44Zm-1.08-.75,0-.06S31.72,8.66,31.72,8.69ZM30,8.18a4.54,4.54,0,0,1,1.77.35h-.25l-.57,0A6.71,6.71,0,0,1,30,8.41l-.54-.11A2.11,2.11,0,0,1,30,8.18ZM27.77,9.23a.26.26,0,0,0,.1.42,9.29,9.29,0,0,0,2.61.51,8.67,8.67,0,0,0,1.35,0c.45-.06.88-.19,1.33-.24a6.16,6.16,0,0,1,.33.55l-.05,0a1.38,1.38,0,0,1-.29.08,5.4,5.4,0,0,1-.58.11c-.46.07-.92.13-1.38.16a7.26,7.26,0,0,1-2.13-.18c-.69-.18-1.35-.42-2-.64A3.51,3.51,0,0,1,27.77,9.23Zm5.35,3.54a7.52,7.52,0,0,1-.92.19l-1.79.24a7.66,7.66,0,0,1-1.85.09,9,9,0,0,1-1.78-.38s-.05,0-.08,0a2.54,2.54,0,0,1-.22-.71c0-.13,0-.26,0-.39s0,0,.06.06a10.49,10.49,0,0,0,1.88.66,7.62,7.62,0,0,0,2.08.11,13.52,13.52,0,0,0,2-.29,5.35,5.35,0,0,0,1.33-.45,4.07,4.07,0,0,1-.07.61A1.86,1.86,0,0,1,33.12,12.77Z"/><path class="cls-6" d="M4.23,29.62a5.08,5.08,0,0,0-2.56,1.57C.9,32.31,0,33.47.29,34.71a3.83,3.83,0,0,0,2.81,3c1.63.33,4.06,0,5.23-1.71s1.28-2.8.9-3.86S8.84,30.89,7.9,30.4A15.8,15.8,0,0,0,4.23,29.62Z"/><path class="cls-2" d="M9.49,32.42a1.76,1.76,0,0,0-.3-1,2,2,0,0,0-.72-1c-.14-.16-.42-.31-.57-.08a.26.26,0,0,0,.09.35,1.81,1.81,0,0,1,.76,1A1.27,1.27,0,0,1,9,32.3,2.64,2.64,0,0,0,8.75,32a5.68,5.68,0,0,0-1.4-1.28,8.31,8.31,0,0,0-3.34-1c.08,0,.14-.1.22-.14a.26.26,0,0,0,.2-.28c-.06-.34-.42-.22-.62-.08-.4.25-.79.53-1.17.81A6.23,6.23,0,0,0,0,33.87c-.28,2.53,1.73,3.92,4,4.26A5.23,5.23,0,0,0,8.75,35.8,4,4,0,0,0,9.49,32.42ZM3.85,30.24a8,8,0,0,1,3.24.92,5,5,0,0,1,1.27,1.17,2.34,2.34,0,0,1,.43.73,5.07,5.07,0,0,0,.27.68,2.54,2.54,0,0,1-.1.55,2.09,2.09,0,0,0-.27-.48A6.45,6.45,0,0,0,8,33.18a12.57,12.57,0,0,0-1.58-1.25,9.3,9.3,0,0,0-3.74-1.24c.29-.24.6-.47.91-.68A.25.25,0,0,0,3.85,30.24Zm.93,7.2a.19.19,0,0,0-.2-.11c-.21-.19-.4-.4-.62-.58a3.7,3.7,0,0,0-1-.54c-.35-.15-.7-.31-1.05-.43-.2-.07-.39-.14-.59-.19s-.41-.06-.61-.1a2.79,2.79,0,0,1-.21-.94A4.36,4.36,0,0,1,2.14,35c.55.26,1.11.53,1.65.83a4.82,4.82,0,0,1,1.41,1l.39.52,0,0a4.31,4.31,0,0,1-.8.13A.42.42,0,0,0,4.78,37.44Zm1.27-.18.06,0h0S6.08,37.27,6.05,37.26Zm.06,0,0,0A1,1,0,0,0,6,37.15L5.87,37a7.26,7.26,0,0,0-.49-.61,6.13,6.13,0,0,0-1.57-1q-.83-.45-1.68-.84a4.89,4.89,0,0,0-1.58-.43,3.87,3.87,0,0,1,.2-.88c.63.2,1.29.32,1.91.52a8.47,8.47,0,0,1,1.8.85,10.68,10.68,0,0,1,1.4,1.2,2.65,2.65,0,0,1,.56.6,4.08,4.08,0,0,1,.26.69A3.68,3.68,0,0,1,6.11,37.29ZM4,37.61a6,6,0,0,1-2.07-.79A3.12,3.12,0,0,1,1.06,36h.09c.18,0,.37.11.55.17.35.12.69.27,1,.42a3.66,3.66,0,0,1,.93.51l.5.47Zm3.21-.89a.2.2,0,0,0-.12-.08,2.47,2.47,0,0,0-.22-.59,3,3,0,0,0-.53-.59,15.13,15.13,0,0,0-1.49-1.29A9.14,9.14,0,0,0,3,33.28c-.67-.23-1.38-.36-2.06-.58a6.06,6.06,0,0,1,.48-.76.22.22,0,0,0,.14.1A13.44,13.44,0,0,1,5.13,33.7a8.42,8.42,0,0,1,1.51,1.07A6.69,6.69,0,0,1,7.75,36.2,4.78,4.78,0,0,1,7.17,36.72ZM7.78,36l0-.06h0S7.79,36,7.78,36Zm.3-.19a6.73,6.73,0,0,0-1-1.31,9.18,9.18,0,0,0-1.59-1.17,14.35,14.35,0,0,0-3.74-1.75,6.15,6.15,0,0,1,.53-.49.52.52,0,0,1,.11-.1.19.19,0,0,0,.16.19A9,9,0,0,1,6.11,32.3a10,10,0,0,1,1.5,1.16c.21.2.43.38.63.59a2.66,2.66,0,0,1,.42.8s0,0,.06,0A4.44,4.44,0,0,1,8.08,35.8Z"/><path class="cls-6" d="M14.07,12.54s-2.51,1.92-3.25,2.7a31,31,0,0,0-3.11,4.44,38,38,0,0,0-2.2,4.79c-.24,1-.5,2.28-.5,2.28a3.72,3.72,0,0,1,2-.24,1.58,1.58,0,0,1,1,.75A16.81,16.81,0,0,0,9.94,25c.52-.89,1.2-1.88,1.54-2.46s.61-1.13.61-1.13a12.07,12.07,0,0,1,.06,2.5c-.1,1.39,0,3.59-.22,4.77s-.5,3.08-.5,3.08a2.78,2.78,0,0,0,0,1.94,4,4,0,0,0,1,1.24l.31-1.45,2.39.8a15.08,15.08,0,0,0,6,.74c2.56-.43,2.91-.37,3.69-.48a4,4,0,0,1,1.78.35L27,32.14s-.66-3.93-1-4.75A6.34,6.34,0,0,1,25.68,26a4.43,4.43,0,0,0,1.95-.08c1-.29,1.46-.24,1.78-.9a12.23,12.23,0,0,0,.5-2.66,8.71,8.71,0,0,0,.5-2.65c-.12-.77-.23-1.81-.23-1.81a1.66,1.66,0,0,1-1.33-.13,5.3,5.3,0,0,1-1.07-1s-.42,0-.57.69-.55,2-.55,2a7.14,7.14,0,0,0-.95-2.18c-.59-.78-1.4-2.33-2.16-2.77a10.93,10.93,0,0,0-2.12-.79l-1.11.55s-.06,1.33-.63,1.59-2.76-.43-3.66-1.12A12.39,12.39,0,0,1,14.07,12.54Z"/><path class="cls-7" d="M5,26.75l-.54,2.18-.38,2.76s-.11,1,.18,1,.34-.16.34-.16.15.69.47.55a1.26,1.26,0,0,0,.52-.59s.12.86.48.69.56-.81.56-.81.15.48.53.29.52-.49.57-1,.12-1.06.12-1.06.41.39.57.05a4.22,4.22,0,0,0-.1-2.08c-.22-.76-.45-1.46-.45-1.46a1.81,1.81,0,0,0-1.32-.71A5.72,5.72,0,0,0,5,26.75Z"/><path class="cls-7" d="M27.78,16.8l.3-1.8s.42-1.66.77-1.75.59-.21.61.17a11.85,11.85,0,0,1-.14,1.44l.35.47,1.59-.08a7.26,7.26,0,0,1-.49,1.55C30.31,18,30.15,18,30.15,18a1.94,1.94,0,0,1-1.3-.26A7,7,0,0,1,27.78,16.8Z"/><path class="cls-7" d="M14.07,12.54a10.31,10.31,0,0,0,2.42,2.7c1,.54,1.71,1,2.45.76s1,.1,1.19-.51a5.93,5.93,0,0,0,.23-1.21,7,7,0,0,0,2.21-1.74,8,8,0,0,0,.76-2.07,2.55,2.55,0,0,1-.09-1.62,5,5,0,0,0,.81-2.32c0-.91,0-1.34,0-1.34a6.56,6.56,0,0,0-2.26-1.34,23,23,0,0,0-3.93-.33,3.68,3.68,0,0,1-.37,1.77,15.76,15.76,0,0,1-1.32,2,14.59,14.59,0,0,0-1,1.62s-.72-1.72-1.53-1.72a1,1,0,0,0-1,1.22,6.47,6.47,0,0,0,1.09,2.16,4.64,4.64,0,0,1,.62.42l0,.64Z"/><path class="cls-8" d="M24.26,5.12s-.86-2.51-2-3.19S19.63-.36,17.17.54s-3.41,1.52-3.72,2.92-.79,2.06-.61,2.73a4.26,4.26,0,0,0,.39,1s.47-.31,1.06.26a3.72,3.72,0,0,1,.86,1.42s-.06-.28.57-1,.55-.73,1.18-1.51a3,3,0,0,0,.86-1.59,2.69,2.69,0,0,0-.07-1l1.25-.13a5.86,5.86,0,0,1,2.85.25,6.77,6.77,0,0,1,2.05,1.2A.28.28,0,0,0,24.26,5.12Z"/><path d="M18.1,3.27Z"/><path class="cls-9" d="M8.11,30.53a.26.26,0,0,0-.49.1,4.86,4.86,0,0,1-.52,1.8c-.32-.57.05-1.49.14-2.1,0-.22.18-.74-.2-.73-.17,0-.24.18-.31.31-.43.92,0,2.12-.61,3a3.17,3.17,0,0,1,0-1.83c0-.23.4-1.66-.21-1.38-.32.15-.32,1.3-.38,1.62S5.44,32.52,5,32.72c-.29-.44.1-1.2.21-1.66.07-.29.4-1.3.1-1.49-.45-.29-.49.65-.54.87a10.31,10.31,0,0,1-.44,1.74,6.5,6.5,0,0,1,.11-2.24c.14-.72.36-1.42.55-2.12.08-.28.4-.75.38-1A.26.26,0,0,0,5,26.57c-.21.15-.33.72-.4,1s-.16.72-.27,1a9.2,9.2,0,0,0-.49,2.6c0,.54-.14,1.41.4,1.76.14.09.24,0,.36.05s.19.19.34.23a.59.59,0,0,0,.66-.31c.32.85.84.55,1.16-.08.72.65,1.09-.6,1.18-1.15C8,31.42,8.23,30.8,8.11,30.53Z"/><path class="cls-9" d="M8.68,29.33a1.75,1.75,0,0,0,0-.33c-.08-.45-.19-.89-.24-1.34a.25.25,0,0,0-.3-.4c-.26.12-.22.52-.17.77.1.46.18.92.26,1.38a.41.41,0,0,0,.05.09c0,.15,0,.33,0,.46,0,.29-.29.87.14,1s.29-.29.32-.51A2.1,2.1,0,0,0,8.68,29.33Z"/><path d="M23.46,16.79h0Z"/><path d="M30.16,20.65v0Z"/><path class="cls-9" d="M14.59,11.4a.26.26,0,0,0-.25-.41c-.35.13-.26.62-.37.91,0,.07,0,.56-.06.63l.49-.29C14.48,12,14.53,11.67,14.59,11.4Z"/><path class="cls-9" d="M29.47,13.1c-.45-.36-1,.13-1.2.55a5,5,0,0,0-.5,1.28,3,3,0,0,1-.06.79,7.09,7.09,0,0,1-.22.91.29.29,0,0,0,.05.32.27.27,0,0,0,.45-.23,5.67,5.67,0,0,0,.3-1.77,3.87,3.87,0,0,1,.39-1c.09-.19.2-.43.42-.48A3.74,3.74,0,0,1,29,14.87a.37.37,0,0,0,.15.4,1.2,1.2,0,0,1,.22.69.26.26,0,0,0,.29.22c.48-.11.06-1-.15-1.27C29.6,14.31,29.83,13.65,29.47,13.1Z"/><path class="cls-9" d="M31,15.39c-.07.18-.08.36-.14.54a5.79,5.79,0,0,1-.58,1.44c-.14.2-.26.5.08.58s1-2,1.12-2.39A.26.26,0,0,0,31,15.39Z"/><path class="cls-2" d="M12.49,21.3c0-.13.15-.28.23-.39.2-.28.4-.55.61-.82a1.57,1.57,0,0,1,.68-.57c.2-.06.66,0,.59-.34-.14-.61-1.11,0-1.33.23A10.26,10.26,0,0,0,12,21a19,19,0,0,0-1.11,1.83,37,37,0,0,1-2.16,3.5,2.2,2.2,0,0,1-.56.65,3.49,3.49,0,0,0-1.3-.73,3.74,3.74,0,0,0-1.49,0,1,1,0,0,1,.15-.61,3.9,3.9,0,0,0,.13-.76,8.91,8.91,0,0,1,.47-1.52,30.75,30.75,0,0,1,1.39-3c.53-1,1.13-1.92,1.74-2.84a15.21,15.21,0,0,1,1.85-2.44A16.08,16.08,0,0,1,12.5,14,7.71,7.71,0,0,1,14,13c.41.49.76,1,1.22,1.48a6.21,6.21,0,0,0,1.48,1.17c.94.48,2.22,1,3.22.36a1.55,1.55,0,0,0,.75-1.32c0-.18-.12-.45-.34-.39s-.21.53-.27.73c-.14.53-.73.71-1.21.75A3.9,3.9,0,0,1,17,15.22a5.33,5.33,0,0,1-1.5-1.17c-.24-.25-.47-.52-.7-.78a1.29,1.29,0,0,1-.4-.67.89.89,0,0,1,0-.36,1.42,1.42,0,0,0-.66.33c-.22.15-.45.3-.69.44a11.7,11.7,0,0,0-1.39,1,13.28,13.28,0,0,0-2.3,2.55c-.71,1-1.39,2.06-2,3.14A28.74,28.74,0,0,0,5.74,23a8,8,0,0,0-.56,1.72c-.06.29-.15.55-.22.83a8.27,8.27,0,0,0-.12.85c0,.18-.15.58.1.67s.26-.09.36-.18a1.18,1.18,0,0,1,.87-.25,2.07,2.07,0,0,1,1.09.26,2.23,2.23,0,0,1,.48.32c.1.11.11.28.22.38.34.35,1.14-.95,1.3-1.17a20.74,20.74,0,0,0,1.35-2l.68-1.21a11.74,11.74,0,0,1,.65-1.15c0,.74-.08,1.49-.11,2.24s0,1.5-.07,2.25A28.82,28.82,0,0,1,11.3,31c-.23,1.19-.42,2.73.37,3.78.11.14.32.34.51.17s0-.35-.08-.49a3.25,3.25,0,0,1-.48-1.8,11.54,11.54,0,0,1,.3-2.2,18.1,18.1,0,0,0,.27-2.2c.1-1.48.08-3,.14-4.46a16.84,16.84,0,0,1,.18-2.13A1.82,1.82,0,0,0,12.49,21.3Z"/><path class="cls-2" d="M30.57,18.52a2.72,2.72,0,0,0,0-.64c-.07-.29-.27-.26-.51-.19a1.47,1.47,0,0,1-1.44-.46c-.3-.26-.77-.88-1.19-.5s-.37.91-.56,1.33a1.19,1.19,0,0,1-.19.35,2.73,2.73,0,0,1-.39-.66c-.13-.23-.28-.46-.41-.69a8.63,8.63,0,0,0-.9-1.33,9.05,9.05,0,0,0-1.12-1.2,4.12,4.12,0,0,0-.65-.44,6.15,6.15,0,0,0-.66-.37c-.25-.1-.54-.06-.78-.2s-.16-.15-.29-.12a.27.27,0,0,0-.16.4.58.58,0,0,0,.44.28,3.18,3.18,0,0,1,.74.23,4.35,4.35,0,0,1,1.33.92,11.77,11.77,0,0,1,1.08,1.26,12.92,12.92,0,0,1,.88,1.42,9,9,0,0,1,.77,1.51c.2.53.33,1.08.51,1.62.07.2.34,1.07.67.64.14-.16,0-.42-.05-.59s-.18-.47-.27-.71c-.17-.51-.55-1.14-.32-1.68.11-.26.28-.48.37-.75a2.06,2.06,0,0,1,.29-.75c.38.16.62.57,1,.77a3.06,3.06,0,0,0,1.3.27,7.64,7.64,0,0,1,.07,1.18,6.54,6.54,0,0,1,0,1.17c-.12.78-.35,1.53-.48,2.31-.1.61,0,1.39-.37,1.92a2,2,0,0,1-.74.51,2,2,0,0,1-.82.4,1.25,1.25,0,0,0-.43.07,1.2,1.2,0,0,1-.53.08c-.26,0-.78,0-.87-.28a9.2,9.2,0,0,1-.21-1.07c-.08-.38-.17-.76-.26-1.15-.17-.78-.3-1.56-.4-2.36a9,9,0,0,0-.22-1.15,2.17,2.17,0,0,1-.1-1c.05-.2.21-.54,0-.71s-.44.17-.5.37a5.62,5.62,0,0,0,.25,2.22c.12.79.2,1.59.37,2.38s.34,1.58.52,2.38c.34,1.56.81,3.1,1.1,4.67a12.78,12.78,0,0,1,.28,2.38,7.84,7.84,0,0,1-.08,1.19,5.15,5.15,0,0,0-.12,1.1c0,.21.18.46.39.26s.16-.48.2-.69A11.21,11.21,0,0,0,27.14,32a22.49,22.49,0,0,0-.87-4.67,3,3,0,0,1-.24-1,3.4,3.4,0,0,1,.84.06,2.84,2.84,0,0,0,.87-.15,3.72,3.72,0,0,0,.78-.37c.24-.13.5-.24.73-.39a1.77,1.77,0,0,0,.67-1.33c.08-.6.13-1.21.26-1.8s.29-1.21.36-1.83a15.38,15.38,0,0,0,0-1.92A.22.22,0,0,1,30.57,18.52Zm-2.86-1.31v0Z"/><path class="cls-2" d="M25.42,34.22a2.54,2.54,0,0,0-.69,0,7.91,7.91,0,0,0-.81.19,12.4,12.4,0,0,1-2.58.33,14.14,14.14,0,0,1-3,0,17.29,17.29,0,0,1-2.84-.6c-.47-.15-.95-.29-1.43-.41-.2-.05-.4-.06-.6-.12s-.27-.18-.42-.22c-.4-.1-.4.4-.16.58a2.07,2.07,0,0,0,.82.21,13.3,13.3,0,0,1,1.41.38c.47.15.95.31,1.43.42s.95.14,1.42.23a10.33,10.33,0,0,0,2.83.12,22.7,22.7,0,0,0,2.86-.28A4.87,4.87,0,0,1,25,34.74c.17,0,.43.09.57,0a.27.27,0,0,0,0-.39A.42.42,0,0,0,25.42,34.22Z"/><path class="cls-2" d="M27.49,21.34a.25.25,0,0,0-.08-.12s.05-.07.06-.1a.22.22,0,0,0-.18-.29.25.25,0,0,0-.11-.24l0-.06a.22.22,0,0,0-.08-.32s0,0,0,0c.14-.19-.1-.41-.29-.35a.26.26,0,0,0-.12-.34l.1-.09a.29.29,0,0,0,0-.36.24.24,0,0,0-.23-.36.27.27,0,0,0-.21-.26.23.23,0,0,0-.29-.29.26.26,0,0,0-.12-.3.23.23,0,0,0-.3-.3.23.23,0,0,0-.27-.24.24.24,0,0,0,0-.22.67.67,0,0,0,.15-.34.24.24,0,0,0-.31-.24L25,16.6a.2.2,0,0,0-.07-.06,1.34,1.34,0,0,0,.07-.18.25.25,0,0,0-.33-.29.24.24,0,0,0-.22-.27.25.25,0,0,0-.24-.2l-.07,0a.24.24,0,0,0-.29-.29l-.15,0a.31.31,0,0,0,0-.1c.06-.14,0-.25-.18-.29a.23.23,0,0,0-.15-.34.54.54,0,0,0-.22,0,.28.28,0,0,0-.29-.17l-.09,0a.27.27,0,0,0-.12-.09.27.27,0,0,0-.11-.31.25.25,0,0,0-.31-.27,4.7,4.7,0,0,0-.45.17h0a3.68,3.68,0,0,0-.44.23.25.25,0,0,0,.25.43l0,0a.3.3,0,0,0,.27.11H22a.25.25,0,0,0,.21.21.25.25,0,0,0,.29.16l.13,0a.28.28,0,0,0,.12.14.25.25,0,0,0,.28.35l.08,0-.07.14c-.06.19.12.31.29.3l0,0a.25.25,0,0,0,.28.37,1.51,1.51,0,0,0,.26-.12.28.28,0,0,0,.11.15.25.25,0,0,0,.23.32h.06l-.11.15a.26.26,0,0,0,.17.36.27.27,0,0,0,.36.14l.05,0a.22.22,0,0,0,.08.13l-.08.13A.25.25,0,0,0,25,18h0a.23.23,0,0,0,.15.2l0,0a.24.24,0,0,0,.08.33l0,.06a.24.24,0,0,0,.2.36.24.24,0,0,0,.24.28.25.25,0,0,0,.18.29.66.66,0,0,0,.14,0,.18.18,0,0,0,0,.16.63.63,0,0,0-.12.59.25.25,0,0,0,.21.17s0,0,0,.06a.25.25,0,0,0,.24.18h0a.81.81,0,0,0,0,.16.19.19,0,0,0,.11.14.31.31,0,0,0-.05.1.2.2,0,0,0,.07.24.73.73,0,0,0-.08.25.25.25,0,0,0,.24.31.23.23,0,0,0,.15.14.24.24,0,0,0,.27.19s0,.06,0,.09c.14.29.57,0,.43-.26,0,.07.18-.25.23-.33A.23.23,0,0,0,27.49,21.34Z"/><path class="cls-2" d="M26.64,32.58l0,0c.11-.14.1-.38-.11-.42h-.06a.25.25,0,0,0,0-.48c.24-.05.2-.35,0-.45a.26.26,0,0,0-.11-.33.22.22,0,0,0,0-.14.26.26,0,0,0,0-.37.25.25,0,0,0,.06-.43.25.25,0,0,0-.07-.48,3.29,3.29,0,0,0-.42,0l.23-.05c.27-.05.2-.39,0-.46h0a.25.25,0,0,0-.07-.49l-.25,0a.25.25,0,0,0,0-.34c.11-.13.11-.35-.1-.39l-.26,0,0-.06h.07a.24.24,0,0,0,0-.46.23.23,0,0,0,0-.43.24.24,0,0,0-.07-.24h.1c.29-.07.19-.47-.07-.49h0a.25.25,0,0,0-.24-.38.26.26,0,0,0,0-.25l.06,0a.24.24,0,0,0,0-.3.28.28,0,0,0,0-.13.36.36,0,0,0,0-.1.25.25,0,0,0-.27-.37h0a.52.52,0,0,0,.06-.13.27.27,0,0,0,0-.09s0-.06,0-.1a.25.25,0,0,0-.18-.24h0a.24.24,0,0,0-.17-.39.28.28,0,0,0,0-.25l.22-.1a.25.25,0,0,0-.19-.46l-.13,0,.1-.11a.26.26,0,0,0-.09-.34l-.13-.07a1,1,0,0,0,.26-.27c.11-.13,0-.32-.15-.36h0a.56.56,0,0,1,.05-.08.26.26,0,0,0-.05-.4,1.21,1.21,0,0,0-.18-.05.25.25,0,0,0-.19-.4h-.12a.88.88,0,0,0,.24-.27.25.25,0,0,0-.08-.32c.07-.07.15-.14.22-.22a.26.26,0,0,0-.11-.42h0a.24.24,0,0,0,0-.31c.09-.15,0-.39-.19-.37a1.73,1.73,0,0,0-.45.1c-.18.06-.26.35-.06.45l.08,0-.05,0a.26.26,0,0,0,.06.4l.07,0-.16.16a.26.26,0,0,0,.05.4h0a1.22,1.22,0,0,0-.33.41.24.24,0,0,0,.17.31l.17,0v0a.25.25,0,0,0,.22.37H24a.91.91,0,0,0-.07.14.24.24,0,0,0,.15.28.45.45,0,0,0-.18.36.33.33,0,0,0,.17.29,3.47,3.47,0,0,0-.31.36.26.26,0,0,0,0,.3.83.83,0,0,0-.11.15.26.26,0,0,0,.07.32l0,0a.3.3,0,0,0,0,.37,1.33,1.33,0,0,0-.14.19.26.26,0,0,0,.15.37,1.23,1.23,0,0,0,.33,0s0,.05,0,.08a.55.55,0,0,0,0,.22.43.43,0,0,0,.07.1.37.37,0,0,0-.15.27.5.5,0,0,0,0,.12.6.6,0,0,0-.22.34.26.26,0,0,0,.14.28.19.19,0,0,0,.1.24.25.25,0,0,0,0,.39l.14.07a.31.31,0,0,0,0,.1L24,27a.25.25,0,0,0-.09.34.67.67,0,0,0,.38.28.45.45,0,0,0,0,.11,2.13,2.13,0,0,0-.25,0,.25.25,0,0,0,0,.48,3.2,3.2,0,0,0,.54.08h0a.25.25,0,0,0,0,.44l-.19,0a.25.25,0,0,0-.06.45.89.89,0,0,0,.17.08,2.25,2.25,0,0,0-.24.08.25.25,0,0,0,0,.43,1.27,1.27,0,0,0,.18.06l-.05,0a.25.25,0,0,0,0,.41.23.23,0,0,0,0,.31.24.24,0,0,0-.07.3v0h0c-.24,0-.23.44,0,.49h0l-.06,0c-.24.09-.23.51.07.49h.06a.3.3,0,0,0,0,.21h0c-.26.07-.23.51.07.49h.07l.24,0-.16.06c-.18.06-.28.36-.06.45a1.44,1.44,0,0,0,.37.1l-.07,0a.25.25,0,0,0-.07.12l-.33.14a.22.22,0,0,0-.11.25.8.8,0,0,0-.53.39.25.25,0,0,0,.22.37l.2,0c.44.08,1,.36,1.43.18.08,0,.41.28.49.27.24.1.45-.28.53,0,.16.52.05-1-.05-1.15a.35.35,0,0,0,.1-.08.24.24,0,0,0,0-.33.8.8,0,0,0,0-.15.24.24,0,0,0-.05-.14h0A.24.24,0,0,0,26.64,32.58Z"/><path class="cls-2" d="M12.82,18.63h0l-.06,0c-.21,0-.3.23-.21.39a.34.34,0,0,0-.15.09.25.25,0,0,0-.06.2l-.1,0a.25.25,0,0,0-.13.29h0a.25.25,0,0,0-.17.31s0,0,0,.06a1.91,1.91,0,0,0-.34.1.27.27,0,0,0-.18.31s0,.07.05.11h-.12a.24.24,0,0,0-.17.3.61.61,0,0,0,.09.16.61.61,0,0,0-.34.12.26.26,0,0,0-.12.28.59.59,0,0,0-.51.13c-.16.16-.16.29-.09.41h-.16c-.14,0-.31.15-.24.31a.75.75,0,0,0,.09.15,1,1,0,0,0-.17,0,.2.2,0,0,0-.16.16h0c-.15,0-.26.14-.25.28a.24.24,0,0,0-.15.35s0,0,0,0a.21.21,0,0,0,0,.2.05.05,0,0,1,0,0,.23.23,0,0,0-.19.23,1,1,0,0,0,.12.48.7.7,0,0,0-.14,0,.25.25,0,0,0-.24.31.84.84,0,0,0,.06.14.25.25,0,0,0-.31.24,1.46,1.46,0,0,0,.07.3l-.11,0a.25.25,0,0,0-.31.24.72.72,0,0,0,0,.21.24.24,0,0,0-.25.31A.61.61,0,0,0,8,26a.23.23,0,0,0-.09.2A4.72,4.72,0,0,0,7.36,26a.26.26,0,0,0-.29.37,1.28,1.28,0,0,0,.47.39.21.21,0,0,0,.14.12l.43.19a.26.26,0,0,0,.34-.12.54.54,0,0,0,.36-.18.46.46,0,0,0,.07-.42.23.23,0,0,0,.21-.21v0a.21.21,0,0,0,.18-.17.59.59,0,0,0,0-.23.22.22,0,0,0,.19-.11.48.48,0,0,0,.08-.44.23.23,0,0,0,.18-.22,1.47,1.47,0,0,0,0-.21.49.49,0,0,0,.46-.33h0a.25.25,0,0,0,.25-.25,1.32,1.32,0,0,0,0-.28.26.26,0,0,0,.11-.14.52.52,0,0,0,0-.24.27.27,0,0,0,.16-.23c0-.1,0-.21,0-.31a.46.46,0,0,0,.17-.28.25.25,0,0,0,.17-.16.46.46,0,0,0,0-.19.49.49,0,0,0,.24-.39.35.35,0,0,0,.18-.34.44.44,0,0,0,.15-.12h.13a.24.24,0,0,0,.17-.3.35.35,0,0,0,.13-.16s0-.07,0-.11a.28.28,0,0,0,0-.15s0,0,0-.06a.68.68,0,0,0,.22-.14.28.28,0,0,0,0-.13.24.24,0,0,0,.13-.29h0a.23.23,0,0,0,.22-.33l.3,0a.25.25,0,0,0,.23-.34l.19,0a.22.22,0,0,0,.17-.07l.17.07c.29.13.55-.3.26-.44A7.26,7.26,0,0,0,12.82,18.63Zm-2.58,4.45,0,0v0h0Zm0-.2V23a.1.1,0,0,0,0-.07Zm-.28.59s0,0,0,0h0s0,0,0-.05a.21.21,0,0,0,.11-.16h.07a.19.19,0,0,0,0,.18v0A.16.16,0,0,0,10,23.47Zm-.28.69v0l0-.06Z"/><path class="cls-9" d="M23.72,8.38a5.14,5.14,0,0,0,.39-1.06,5.2,5.2,0,0,0,.22-1.74c-.15-.59-.49-.17-.55.2a14,14,0,0,1-.27,1.8A7.66,7.66,0,0,0,23,9.21a10,10,0,0,1,0,1.89A5,5,0,0,1,21,13.65c-.88.83-2.1.44-3-.18-.52-.37-1-.83-1.48-1.25-.18-.17-.81-.83-1.09-.63-.49.35.92,1.16,1.12,1.34a13.22,13.22,0,0,0,1.24,1,3,3,0,0,0,3,.49A5.51,5.51,0,0,0,23,12.26a4.4,4.4,0,0,0,.5-1.71,7.13,7.13,0,0,1,.06-1.79Z"/><path class="cls-10" d="M24.26,5.12c0-.12,0-.24-.05-.32a5.54,5.54,0,0,0-.46-1.39A6,6,0,0,0,22,1.25a5.94,5.94,0,0,0-7.13-.12,6.1,6.1,0,0,0-2.14,3.72,4,4,0,0,0,.12,2.33c-1.12,1.19.15,2.16.66,3.21.11.21,1.14,1.3,1.16.56,0-.23-.3-.31-.44-.45s-.29-.56-.47-.85c-.32-.53-1-.85-.85-1.56s.8-.82,1.32-.36.51,1.48.89,1.61.35-.3.42-.51a3,3,0,0,1,.49-.9c.91-1.25,2.13-2.6,2.11-4.23,1.09.17,2.22,0,3.32.2a4.43,4.43,0,0,1,1.44.55c.47.26.62.77,1,1.06S24.3,5.47,24.26,5.12Zm-11,1.79h0Zm9.13-3.25a5.86,5.86,0,0,0-1.57-.34c-.88-.07-1.86.08-2.69,0-.31-.39-.46-.87-.79-1.25-.14-.16-.4-.51-.62-.22s.21.52.35.7c1,1.25.4,2.46-.38,3.63-.49.71-1,1.45-1.52,2.13-.41-.7-.93-1.52-1.89-1.35-.77-2.12.8-5,2.74-5.86a5.6,5.6,0,0,1,5.69.62,5.27,5.27,0,0,1,1.87,2.61A4.83,4.83,0,0,0,22.36,3.66Z"/><polygon points="18.09 3.27 18.09 3.27 18.1 3.27 18.09 3.27"/><path class="cls-10" d="M21.07,11.06a1.39,1.39,0,0,1-.87-.27c-.24-.26.17-.63.39-.34a1.77,1.77,0,0,0,.6.11A.26.26,0,1,1,21.07,11.06Z"/><path class="cls-10" d="M17.86,6.84c0-.24.24-.36.41-.48a2.55,2.55,0,0,1,2-.21c.23.07.36.4.12.53a.27.27,0,0,1-.31,0,1.65,1.65,0,0,0-.54-.09,2.27,2.27,0,0,0-1.11.29,1,1,0,0,1-.3.2A.26.26,0,0,1,17.86,6.84Z"/><path class="cls-10" d="M23.18,8.19c-.06-.14,0-.31-.14-.43s-.28-.28-.42-.42a.26.26,0,0,1,.25-.41A1.4,1.4,0,0,1,23.65,8a0,0,0,0,0,0,0A.26.26,0,0,1,23.18,8.19Z"/><path class="cls-10" d="M18.9,8.64c-.27-.09-.73-.22-.71-.57a.27.27,0,0,1,.3-.21.27.27,0,0,1,.16.11.76.76,0,0,0,.85,0,.27.27,0,0,1,.33.15C20,8.58,19.18,8.68,18.9,8.64Z"/><path class="cls-10" d="M22.61,9.28A1.46,1.46,0,0,1,21.88,9a.26.26,0,0,1,.23-.45,1.35,1.35,0,0,0,.5.2c.22,0,.52-.2.63.08S22.86,9.26,22.61,9.28Z"/><path class="cls-10" d="M20.71,13a1.85,1.85,0,0,1-1.13-.44c-.25-.18-.89-.53-.53-.87a.27.27,0,0,1,.4.13c.34.24.66.61,1.1.64s.61-.09.87-.25a.26.26,0,0,1,.35.11.27.27,0,0,1-.14.36A1.41,1.41,0,0,1,20.71,13Z"/><path class="cls-10" d="M14.14,9.62a.78.78,0,0,1,0-.68c-.22-.31-.43-.73-.87-.69a.27.27,0,0,1,0-.5.91.91,0,0,1,.58.12,2.47,2.47,0,0,1,.72.82.35.35,0,0,1,.09.28c0,.13-.12.24-.06.38A.25.25,0,0,1,14.14,9.62Z"/></g></g></svg>