<svg xmlns="http://www.w3.org/2000/svg" viewBox="0 0 53.5 47.23"><defs><style>.cls-1{fill:#e9a061;}.cls-2{fill:#b27e4c;}.cls-3{fill:#f4bdd8;}.cls-4{fill:#ed88b6;}.cls-5{fill:#b1dde3;}.cls-6{fill:#6fadb2;}.cls-7{fill:#6474b7;}.cls-8{fill:#eb5d45;}.cls-9{fill:#faed62;}.cls-10{fill:#ff8500;}.cls-11{fill:#92443f;}.cls-12{fill:#6b1e1e;}.cls-13{fill:#3c58a4;}.cls-14{fill:#cbc479;}.cls-15{fill:#ad5404;}.cls-16{fill:#e52823;}</style></defs><g id="Layer_2" data-name="Layer 2"><g id="Card"><path class="cls-1" d="M20,33.45s-.68.3-1.88-.56-2.05-1.09-2.58-1.62-2-1.56-2.33-2.25-.88-1.25-1.13-1.17a.53.53,0,0,0-.45.59,2,2,0,0,0,.22.66s-.46.16-.42.51a.91.91,0,0,0,.3.55s-.19,0,0,.35a1.09,1.09,0,0,0,.48.5,1.4,1.4,0,0,0,.24.77,1.12,1.12,0,0,0,.41.31,7,7,0,0,0,.41,1.12,4.63,4.63,0,0,1,.6,1.47,18.84,18.84,0,0,0,.44,3.14c.24.34,1,1,1.63.86s1.46-.93,1.95-.71a3.14,3.14,0,0,1,.85.56A6.6,6.6,0,0,0,20,36.61a5.16,5.16,0,0,0,.31-2.13A3,3,0,0,0,20,33.45Z"/><path class="cls-2" d="M20,33.45a4.8,4.8,0,0,1-1.6-.62A11.44,11.44,0,0,1,16,31.33c-.4-.36-.88-.6-1.28-1s-.63-.55-.92-.86A7,7,0,0,1,13,28.23a1.28,1.28,0,0,0-.8-.54.57.57,0,0,0-.55.34.9.9,0,0,0-.11.64,3.1,3.1,0,0,0,.13.4h0a.63.63,0,0,0-.33.66c0,.16.11.44.33.37a.58.58,0,0,0,0,.64c.08.14.26.31.42.26a1,1,0,0,0,.17.68,1.12,1.12,0,0,0,.47.47c.13.87.86,1.52,1,2.38s.17,1.51.27,2.26c0,.54,0,1.16.53,1.49a1.72,1.72,0,0,0,2.21.29c.23-.1.42-.28.66-.37a1.83,1.83,0,0,1,.66,0,1.9,1.9,0,0,1,.54.4.19.19,0,0,0,.26,0c.23-.25-.33-.54-.5-.67a1.5,1.5,0,0,0-1.12-.08,4,4,0,0,1-1.44.62,1.37,1.37,0,0,1-.88-.37c-.5-.33-.49-.61-.53-1.16s-.18-1.34-.24-2a3.21,3.21,0,0,0-.38-1.38,5.62,5.62,0,0,1-.64-1.36,4.76,4.76,0,0,1-.58-.61.28.28,0,0,1,0-.18,2,2,0,0,1-.09-.26s0-.08,0-.11l-.15-.12a1.66,1.66,0,0,1-.13-.14h0a.12.12,0,0,0-.05-.05h0l0,0v0a.39.39,0,0,1-.16-.3h0a2,2,0,0,1-.18-.33h0a.32.32,0,0,1,0-.13,1.9,1.9,0,0,1-.07-.28.43.43,0,0,1,.36-.23V29.3c0-.07,0-.14,0-.22s0,0,0,0,0,0,0-.05v0h0s0,0,0,0-.08-.3-.11-.45a1.83,1.83,0,0,1,.08-.25c.05-.07.08-.15.17-.16a.9.9,0,0,1,.54.35,7.18,7.18,0,0,0,.75,1.21,9.67,9.67,0,0,0,1.08,1c.52.43,1.1.78,1.62,1.22A8,8,0,0,0,17.84,33a8.66,8.66,0,0,0,1.84.83c.16,0,.35.1.5,0A.19.19,0,0,0,20,33.45Z"/><path class="cls-3" d="M43.91,32.64a3.15,3.15,0,0,1,.64,1,4.66,4.66,0,0,1,.23,1.53,6.21,6.21,0,0,1-.11,1.72,5.26,5.26,0,0,1-1.33,2.61,4.28,4.28,0,0,1-4.72,1,7.58,7.58,0,0,1-5.59,3A4.84,4.84,0,0,0,29,40a3.8,3.8,0,0,1-.44-2.29A1.78,1.78,0,0,1,27,38L22,37.41A27.52,27.52,0,0,1,21.77,34a1.17,1.17,0,0,0,.28-1.32,16.82,16.82,0,0,1,6.76-2.36c.12.82,2.66,2.2,3.07,2.61a4.23,4.23,0,0,0,1.41.73,3.66,3.66,0,0,0,1.86-.29,1.86,1.86,0,0,0,.92-1.81,18.91,18.91,0,0,0,4.81.23,6.88,6.88,0,0,1,1.36,0A2.89,2.89,0,0,1,43.91,32.64Z"/><path class="cls-4" d="M33.65,42.67a3.58,3.58,0,0,0-.6-1.28,5,5,0,0,0-1.53-1.51,6.71,6.71,0,0,0-1.76-.51c-.32.15-.41-.33-.08-.37a2.75,2.75,0,0,1,.75.13,3.51,3.51,0,0,1,1.93.91,4.87,4.87,0,0,1,1.13,1.35A3,3,0,0,1,34,42.45c0,.14.14.37,0,.46S33.67,42.83,33.65,42.67Z"/><path class="cls-4" d="M25.75,31.21c-.3.11-.6.23-.9.33a3,3,0,0,0-.67.2c-.26.17-.57.24-.85.4s-.87.44-1.29.69a.17.17,0,0,1-.11,0,.19.19,0,0,1-.1-.35c.5-.29,1-.54,1.55-.82.16-.09.34-.14.5-.22a1.94,1.94,0,0,1,.74-.27c.42-.11.83-.33,1.26-.42a11.93,11.93,0,0,1,2.89-.62l.19,0v0a.25.25,0,0,0,0,.07h0s0,.06,0,.08a.64.64,0,0,1,0,.07v0h0a.19.19,0,0,0,0,.07v0l-.21,0A13.84,13.84,0,0,0,25.75,31.21Z"/><path class="cls-4" d="M23,37.39c.28,0,.34,0,.47-.22a2.23,2.23,0,0,0,.16-.64c.05-.27.28-.62.39-.17s-.16.79-.24,1.07c.71.14.91-.16,1.12-.8a4.36,4.36,0,0,0,.17-.78c0-.16-.05-.54.1-.64.42-.33.27.71.25.85a4.63,4.63,0,0,1-.53,1.44,8.29,8.29,0,0,0,1.31.12,11.53,11.53,0,0,0,1.42.13,1.56,1.56,0,0,0,.61-.14c.18-.11.2-.25.3-.45.19-.37.46-.68.68-1s.44-.79.68-1.16a7.71,7.71,0,0,0,.64-.87.83.83,0,0,1,.17-.3,5.32,5.32,0,0,1,.36-.47c.13-.15.5-.72.73-.57s-.31.67-.44.8a5.86,5.86,0,0,0-.57.92c-.2.31-.49.57-.7.9s-.4.72-.62,1.07a3,3,0,0,0-.8,2.07,2.49,2.49,0,0,0,.3,1.11c.2.29.67.2,1,.31a5.48,5.48,0,0,1,3.24,3.35,9,9,0,0,0,2.51-.61,7.93,7.93,0,0,0,1.91-1.41,3.08,3.08,0,0,0,1.1-1.85c0-.24.27-1.53.66-1.18.23.2-.19.73-.24,1a4.22,4.22,0,0,1-.32,1.22,3.41,3.41,0,0,0,1.56.16A5,5,0,0,0,42,40.21,3,3,0,0,0,43,39.37a9,9,0,0,0,.91-1,6.22,6.22,0,0,0,.42-4.56c-.06-.23-.51-1.07-.35-1.24.36-.37.61.79.65.93.47,1.68.58,4-.68,5.45a8.09,8.09,0,0,1-1.34,1.34,4.63,4.63,0,0,1-1.85.67,3.66,3.66,0,0,1-2.15-.18,17.49,17.49,0,0,1-2.11,1.92,6.49,6.49,0,0,1-3,1c-.18,0-.43.09-.58-.05s-.14-.45-.22-.63a4.64,4.64,0,0,0-.85-1.21,4.39,4.39,0,0,0-2.31-1.52c-.18,0-.51,0-.66,0s-.25-.39-.32-.55A4.44,4.44,0,0,1,28.31,38a4.45,4.45,0,0,1-.81.15c-.26,0-.52-.09-.78-.11-.56-.06-1.12-.07-1.67-.13s-1.11-.07-1.67-.11-1.07-.14-1.61-.22a2.32,2.32,0,0,1,0-.37C22.19,37.2,22.61,37.37,23,37.39Z"/><path class="cls-5" d="M45.35,26.35s.89,3.78.67,4.4-.34,1.42-1.08,1.71-.68.3-1.25,0a24.23,24.23,0,0,0-3.16-.79s3.4-.6,3.72-1.61S45.35,26.35,45.35,26.35Z"/><path class="cls-6" d="M42.46,31.6a4.31,4.31,0,0,0,2,.85.86.86,0,0,0,.66-.32,3.21,3.21,0,0,0,.59-.78A3.23,3.23,0,0,0,45.73,30a14.19,14.19,0,0,0-.45-2.76c-.06-.28-.09-.57-.16-.84a.19.19,0,0,1,.32-.18,5.82,5.82,0,0,1,.23,1,14.5,14.5,0,0,1,.47,3.28,1.94,1.94,0,0,1-.6,1.64,1.47,1.47,0,0,1-1,.64,3.06,3.06,0,0,1-1.4-.38,5.47,5.47,0,0,1-.84-.5A.19.19,0,0,1,42.46,31.6Z"/><path class="cls-6" d="M41.63,32l1.4.23c.43.08.58-.33.21-.45a.41.41,0,0,0,0-.08.21.21,0,0,0,.12-.18.36.36,0,0,0,.4-.19c.16-.05.28-.17.24-.29L44,31c.21,0,.37-.11.34-.27.16,0,.3-.1.29-.23h0c.26.1.59,0,.52-.25a.76.76,0,0,0-.09-.18c.13-.06.22-.17.18-.28s-.07-.12-.1-.19.19-.11.18-.2a2.76,2.76,0,0,0-.08-.27v0c.15,0,.25-.16.19-.27s-.09-.16-.12-.24v0a.28.28,0,0,0,.26-.23c0-.11,0-.23,0-.34a2.44,2.44,0,0,0,.1-.24c.07-.26-.43-.43-.64-.18,0,0,0,0,0,.05h0a.47.47,0,0,0-.09.22c0,.06-.05.13-.08.19s0,0-.07,0l0,.06h0l0,.06a.58.58,0,0,0-.14.24,26.24,26.24,0,0,0-1.48,2.24.16.16,0,0,0,0,.15c-.08,0-.13.1-.12.17s0,0,0,.06h-.11a.29.29,0,0,0-.23.17c-.13,0-.23.11-.23.21h-.15a.34.34,0,0,0-.3.15l-.15,0C41.37,31.45,41.19,31.91,41.63,32Zm2.61-2.07,0,0v0Zm1.08-1.42Z"/><path class="cls-5" d="M27.14,20.81s.05-.17.58-.51,1.09-.23,1.47-.42a4.14,4.14,0,0,0,1.37-1.49,3.26,3.26,0,0,1,.58-.88l.79-.42.38.41.87.54.62.25s0,.93.51,1.27a2.27,2.27,0,0,0,1.88.25,20.29,20.29,0,0,0,3.75-2c.56-.41,1.77-1.51,2.25-1.94a3.76,3.76,0,0,0,.76-1L43.84,16a3.3,3.3,0,0,1,1.3,1.63A30.25,30.25,0,0,1,45.62,22c0,.89,0,3.19,0,3.19a7.94,7.94,0,0,0-3.06-1.59,4.42,4.42,0,0,0-3.16.56c-.31.12-1,1.43-1,1.43A6.85,6.85,0,0,1,39.16,27a3.26,3.26,0,0,1-.53,1.76c-.25.17-1,1.75-2.24,2.25s-1.32,2-1.62,2.49-2.61.06-2.61.06A19.16,19.16,0,0,1,29,31a1.22,1.22,0,0,1-.18-1.52c.25-.54.76-2.39,1-3l.73-1.94a4,4,0,0,0-.7-1.31c-.55-.7-.78-1.62-1.45-2.06A1.86,1.86,0,0,0,27.14,20.81Z"/><path class="cls-4" d="M21.89,34a.57.57,0,0,0,.25-.16.66.66,0,0,0,0-.14.24.24,0,0,1,.19-.23.88.88,0,0,1,0-.16.21.21,0,0,1,.06-.1,1.63,1.63,0,0,1-.11-.23.22.22,0,0,1,.16-.28.24.24,0,0,1,.23-.26.24.24,0,0,1,.38-.16.23.23,0,0,1,.35-.12.22.22,0,0,1,.25-.11h0a.25.25,0,0,1,.37-.21,1.18,1.18,0,0,1,.24.17l-.06-.13a.22.22,0,0,1,.18-.28c0-.17.19-.35.36-.22l0,0h0l.07.08a.24.24,0,0,1,.34-.29l.1.07a.24.24,0,0,1,.23-.24l.16,0A.26.26,0,0,1,26,30.8a1.12,1.12,0,0,1,.44,0,.24.24,0,0,1,.12,0l.08,0a.08.08,0,0,0,0-.05.26.26,0,0,1,.21-.12,1.17,1.17,0,0,1,.27,0s0,0,.06,0l.07,0s0,0,0-.05l0,0h0a.53.53,0,0,1,.34-.06h.09a.86.86,0,0,1,.27.05h0a.23.23,0,0,1,.34-.19,2.21,2.21,0,0,1,.73.76.19.19,0,0,1,.1,0l.14.09h0a3.75,3.75,0,0,1,.39.09,1.44,1.44,0,0,0,.41,0,.87.87,0,0,1,.68.17.24.24,0,0,1,0,.42,1.89,1.89,0,0,1-.83.16.24.24,0,0,1-.36,0l-.15-.11-.1,0c-.05.17-.24.28-.38.12l-.33-.38-.07,0a.23.23,0,0,1-.37.08l-.05,0a1.42,1.42,0,0,1,.1,1,.25.25,0,0,1-.35.15,1.62,1.62,0,0,1-.64-.68.2.2,0,0,1-.15,0,.66.66,0,0,1-.07.38.25.25,0,0,1-.38,0,1.74,1.74,0,0,1-.22-.24.26.26,0,0,1-.34.11l-.1-.07a.7.7,0,0,1,0,.14.24.24,0,0,1-.36.2,1.49,1.49,0,0,1-.14-.12.23.23,0,0,1-.26.12.22.22,0,0,1-.23.21.86.86,0,0,1-.32-.1c.07.19-.17.36-.34.27l-.08-.06a.26.26,0,0,1-.29.14.84.84,0,0,1-.27-.13.23.23,0,0,1-.33.11h0a.21.21,0,0,1-.25.09l0,0a.21.21,0,0,1-.14.12.29.29,0,0,1,0,.1.25.25,0,0,1-.29.29.29.29,0,0,1-.16.13.26.26,0,0,1-.23.21c-.06,0-.27.22-.37.24C21.72,34.55,21.59,34.09,21.89,34Z"/><path class="cls-4" d="M28.69,37.84l.11.07a.22.22,0,0,0,.09.3h0c-.23,0-.21.34-.06.44h0a.28.28,0,0,0,0,.22.25.25,0,0,0-.13.35.59.59,0,0,0,.13.18.17.17,0,0,0,.06.22s0,0,.05,0h0l.06,0a3.62,3.62,0,0,0,.85.38.2.2,0,0,0,.17,0l0,0a.28.28,0,0,0,.08.11,1.77,1.77,0,0,0,.31.15.24.24,0,0,0,.26-.36.21.21,0,0,0-.2-.18l-.05,0a1.7,1.7,0,0,0-.65-.27s0,0,0,0-.06,0-.09-.07h0a.24.24,0,0,0,.16-.23h0a.22.22,0,0,0,.1-.38h.14a.2.2,0,0,0,.19-.12h.09a.24.24,0,0,0,.1-.4,1.2,1.2,0,0,0-.27-.16,1.77,1.77,0,0,0,.32.05.24.24,0,0,0,.17-.41l-.06,0a.82.82,0,0,0,.31,0,.24.24,0,0,0,.21-.36,1.13,1.13,0,0,0-.1-.13,1,1,0,0,0,.29,0,.26.26,0,0,0,.24-.27.22.22,0,0,0,.26-.17c.07-.29-.14-.52-.41-.67a2.14,2.14,0,0,0,.62.13.24.24,0,0,0,.17-.41h0a.23.23,0,0,0,.14-.21.64.64,0,0,0-.11-.31,1.2,1.2,0,0,0,.38,0,.25.25,0,0,0,.23-.31,1,1,0,0,0-.26-.46.21.21,0,0,0,.18-.14,1,1,0,0,0,.52.08.24.24,0,0,0,.11-.4,1.44,1.44,0,0,0-.66-.42,3.24,3.24,0,0,1-.84-.49c-.23-.19-.57.15-.33.34l.07.06a1,1,0,0,0-.39.12h0l-.06,0a.12.12,0,0,0-.05.07A.6.6,0,0,0,31,34a.25.25,0,0,0,0,.34.74.74,0,0,0,.32.19h0c-.22,0-.55,0-.69.2a.36.36,0,0,0-.06.21h-.23c-.22,0-.35.34-.12.44l.12.05a.47.47,0,0,0-.38.32.33.33,0,0,0,0,.22c-.11,0-.22,0-.34,0a.24.24,0,0,0-.23.3s0,0,.05.08a.23.23,0,0,0-.15.43l.24.11a1.24,1.24,0,0,0-.27,0,.24.24,0,0,0-.16.3.54.54,0,0,0,.07.13.71.71,0,0,0-.34.14A.24.24,0,0,0,28.69,37.84Zm3-3.16a1.41,1.41,0,0,1,.42.16ZM30.92,36l-.07,0a3,3,0,0,1-.31,0c-.06,0-.24,0-.12,0A1,1,0,0,1,30.92,36Z"/><path class="cls-4" d="M36.18,31.89a2.07,2.07,0,0,0,.1.43.24.24,0,0,0,.39.09,1.3,1.3,0,0,0,.22.19.22.22,0,0,0,.31-.09l.12.06a.23.23,0,0,0,.25,0l.13.08a.24.24,0,0,0,.3-.06l.15.08a.21.21,0,0,0,.21,0,1.87,1.87,0,0,0,.29.2c.13.06.33,0,.36-.14h0a1.3,1.3,0,0,0,.26.14.23.23,0,0,0,.34-.14l.15.08a.24.24,0,0,0,.35-.14l.09.07a.25.25,0,0,0,.35-.16l.06.05a.23.23,0,0,0,.39-.21l.16,0,.36.13a.23.23,0,0,0,.29-.16.38.38,0,0,0,0-.1l.14.08a.22.22,0,0,0,.29-.06s0,0,0,0a.2.2,0,0,0,.28,0,.23.23,0,0,0,.25-.15.38.38,0,0,0-.22-.47.27.27,0,0,0-.3,0,.56.56,0,0,0-.23-.05.27.27,0,0,0-.16.06.72.72,0,0,0-.33-.06.23.23,0,0,0-.22.24,1.24,1.24,0,0,0-.5-.1.38.38,0,0,0-.26.12l-.28-.14A.21.21,0,0,0,40,32a.46.46,0,0,0-.26-.06.23.23,0,0,0-.21.17L39.45,32c-.13-.06-.33,0-.35.14s0,0,0,0a1.14,1.14,0,0,0-.37-.11.19.19,0,0,0-.17.08l-.3-.26c-.15-.1-.27,0-.32.13a.7.7,0,0,0-.17-.09.21.21,0,0,0-.25.09h0a.19.19,0,0,0-.13,0,1.67,1.67,0,0,0-.45-.21.3.3,0,0,0-.19,0l-.11-.07C36.52,31.6,36.15,31.61,36.18,31.89Zm6.16.24Z"/><path class="cls-1" d="M34.85,33.45c.2-1.26,2.51-4,3.14-4.47a5.71,5.71,0,0,0,1.17-2l-.26-.45-.46-1A13.13,13.13,0,0,1,39,24.24a6.54,6.54,0,0,1,.38-.59,1.11,1.11,0,0,0,1.09,0l.18-.08.06,0,.38-.13.37-.1.18,0h0a4.61,4.61,0,0,1,.64,0l.26,0,.29.06a5.64,5.64,0,0,1,.7.21l.06,0,.05,0,.34.17a7,7,0,0,1,.71.43h0l0,0a4.39,4.39,0,0,1,.45.34,1.73,1.73,0,0,0,.31.19,16.26,16.26,0,0,1,.5,2.57A4.71,4.71,0,0,1,45,29.65a38.61,38.61,0,0,1-3.4,1.94l-2.37.8.25.85a3.34,3.34,0,0,1-.14,1c-.15.32-.57.21-.57.21a1.6,1.6,0,0,1-.36.68c-.25.22-.81,0-.81,0a.59.59,0,0,1-.49.49c-.46.12-1.21-.43-1.21-.43l-.56,0A2,2,0,0,1,34.85,33.45Z"/><path class="cls-2" d="M34.7,33.83a5,5,0,0,0,.06-.57,6.72,6.72,0,0,1,1.54-2.77c.74-.87,1.53-1.7,2.24-2.6.14-.17.45-.47.45-.7s-.29-.51-.38-.73a4,4,0,0,1-.35-1.23.27.27,0,0,1,.15-.27c.27-.12.27-.23.29-.08a5.52,5.52,0,0,0,.9,2.28c.14.12,1.09.66.7.85s-.79-.45-1-.6a13.87,13.87,0,0,1-2,2.53,8.13,8.13,0,0,0-2.21,3.42c-.12.52-.17,1.71.61,1.78-.08-.17-.52-.86-.15-1s.3.45.39.62c.2.38.91,1.05,1.35.53.24-.27-.48-.58-.49-1s.23-.26.38-.07.31.64.71.72a.51.51,0,0,0,.64-.56c0-.25-.69-.86-.35-1s.64.71.7.91c.8-.27.24-1.47,0-1.91-.1-.2-.75-1.33-.44-1.43s.68,1,.8,1.18A9.65,9.65,0,0,0,42.4,31a13.79,13.79,0,0,0,2.41-1.33c1.36-1.15,1-3.21.57-4.73l0-.14,0,0a1.22,1.22,0,0,0,.24.1h0a.8.8,0,0,1,.15,0c0,.19.09.39.13.59a7.91,7.91,0,0,1,.16,2.61C45.73,30,44,30.49,42.49,31.34a19.73,19.73,0,0,1-3,1.21,3.18,3.18,0,0,1,.21,1.33c-.07.34-.33.84-.75.81a.86.86,0,0,1-.56.66c-.16.06-.33,0-.48,0s-.15.11-.26.2A1.22,1.22,0,0,1,36,35.47c-.61.39-1.2-.62-1.28-1.09A1.69,1.69,0,0,1,34.7,33.83Z"/><path class="cls-7" d="M21.47,26.91a3.37,3.37,0,0,1,1.23,1c.35.6.58,1.13.41,1.5a8.1,8.1,0,0,1-.55.91l-.66.73-.52,1.29a28.66,28.66,0,0,1-2.92.17,8.94,8.94,0,0,1-2.66-.07l-1-.44,1.1-2.67.4-1.26s-.27-1.23.38-1.59a3.66,3.66,0,0,1,2.11-.45A10.77,10.77,0,0,1,21.47,26.91Z"/><path class="cls-8" d="M21.64,32.37s.7.24.56.81a7.84,7.84,0,0,1-.32,1L21.74,34a15.53,15.53,0,0,1,.19,2.32,17.83,17.83,0,0,1,0,3.19,5.4,5.4,0,0,0,0,1.8,14.44,14.44,0,0,1-3.64.65A16.89,16.89,0,0,1,15,41.29s-.05-2,0-2.73-.08-4.47-.08-4.47-.54-.25-.51-.48a1.91,1.91,0,0,1,.24-.58V32l.21,0a8.17,8.17,0,0,0,2.92.58C19.31,32.59,21.64,32.37,21.64,32.37Z"/><path class="cls-9" d="M11,39.26s1.21,1,1.66,1.34,1,.63,1.2,1A1.34,1.34,0,0,1,13.8,43c-.3.41-.49.93-1.14,1s-1.39-.77-1.39-.77A17.58,17.58,0,0,1,9,41.42a1.71,1.71,0,0,1,.25-1.82,3.42,3.42,0,0,1,1.38-.69Z"/><path class="cls-10" d="M6.74,38.31l.65,1.89s.1,2-.52,2.53-.81.63-1.24.67a2.16,2.16,0,0,1-1.13,0,7.37,7.37,0,0,0-1.13-.25s-2.22.25-2.69-.33S.21,39.49.21,39.49s.2-.81.82-1a19.55,19.55,0,0,1,2.37-.22,4.21,4.21,0,0,1,1.33-.49A7.4,7.4,0,0,1,6.05,38Z"/><path class="cls-11" d="M42.35,13.52a1.84,1.84,0,0,1-1.48-.41c-.76-.59-1.11-.59-1.11-.59s-.58-.81-1.14-.83-.67.07-.86.71a9.52,9.52,0,0,0-.19,1.95l-.06.61a3.88,3.88,0,0,0-1.12-1.43,20.76,20.76,0,0,0-2.71-1.25,28.4,28.4,0,0,1-2.59-1.78,5.4,5.4,0,0,1-1.32-1.89,8.35,8.35,0,0,1,0-1.85,8.18,8.18,0,0,0-1.21,1,3,3,0,0,0-.41,1.15,1.7,1.7,0,0,0,.06,1,3.08,3.08,0,0,1-.72-1.47c-.06-.73.26-3.44,1.21-4.53S32,.66,34.12.39a8.33,8.33,0,0,1,3.24.07s2.29.33,3.09,1.12,1.63,1.55,1.63,1.55A9.2,9.2,0,0,1,45.8,2.4a9.38,9.38,0,0,1,4.07,2.24c.52.6,1.19,1.56,1.19,1.56A11.84,11.84,0,0,1,49,8.76a4,4,0,0,1-1.29.64,14,14,0,0,0-.92-3,4.71,4.71,0,0,0-2.52-2.44,2.47,2.47,0,0,0-1.46-.1l-.15.62a4.6,4.6,0,0,1,.67,2,8.6,8.6,0,0,1-.18,3.76,10.73,10.73,0,0,0-.64,2.27A3.56,3.56,0,0,0,42.35,13.52Z"/><path class="cls-1" d="M29,40s0,.74-1.31,1.45-1.86,1.39-2.57,1.64a13,13,0,0,1-3,1.14c-.76,0-1.51.26-1.55.51a.54.54,0,0,0,.35.67,2.16,2.16,0,0,0,.69.09s-.06.48.27.59a.9.9,0,0,0,.63,0s-.1.17.31.17a1.1,1.1,0,0,0,.66-.22,1.36,1.36,0,0,0,.79.12,1.09,1.09,0,0,0,.46-.24,7.09,7.09,0,0,0,1.19.11,4.76,4.76,0,0,1,1.58.09,18.77,18.77,0,0,0,3,1c.41-.07,1.36-.42,1.48-1.1s-.21-1.72.19-2.07a3,3,0,0,1,.87-.53,6.5,6.5,0,0,0-1.17-2,5,5,0,0,0-1.79-1.2A2.73,2.73,0,0,0,29,40Z"/><path class="cls-1" d="M42.35,13.52a1.61,1.61,0,0,1,.28.45,5.36,5.36,0,0,1,.29.68A5.21,5.21,0,0,1,42.09,16,10.81,10.81,0,0,1,40,17.57c-.6.28-1.86,1.37-2.54,1.62s-1.22.74-1.78.71-.55.19-1-.25-.64-.23-.76-.66a4.47,4.47,0,0,1-.13-.8s-.29.27-.81-.32-1-.67-1.06-.88a7.17,7.17,0,0,0-.65-.91s-.65-.41-.8-.81.48-.82.11-1.52S29.41,12.57,29.07,12a16.37,16.37,0,0,1-.86-2.38,4.21,4.21,0,0,1,.35-1.81,4.41,4.41,0,0,1,1.19-.84,4,4,0,0,0,1,3.25,14.5,14.5,0,0,0,3.77,2.56c1,.43,1.51.47,2,1a16.46,16.46,0,0,1,1,1.38s0-3.73,1.17-3.44,1.12,1.13,1.12,1.13a2.89,2.89,0,0,1,1.13.29A6.87,6.87,0,0,0,42.35,13.52Z"/><path class="cls-1" d="M27.14,20.72S24.75,22,24,22.28s-2.79,1.65-3.28,1.78-2,.43-2.66.6-.72.18-.9.62a3.49,3.49,0,0,0-.13,1.16,1.89,1.89,0,0,1,1.19-.39,3.83,3.83,0,0,1,1,.13s-1,.43-.89.63.38.51,1.08.41,2.21-.44,2.21-.44a3.9,3.9,0,0,1,2-.73c.93.05,1.78-.32,3-.34a27.28,27.28,0,0,0,3.59-.49,2,2,0,0,0,.08-.7,11.36,11.36,0,0,0-1-2.43c-.33-.5-.35-.8-.94-1.05A5.16,5.16,0,0,0,27.14,20.72Z"/><path class="cls-12" d="M31.09,14.17a.18.18,0,0,0,.14-.15A1.38,1.38,0,0,1,32.94,14a.2.2,0,0,0,.37-.13,1.16,1.16,0,0,0-.82-.49,1.91,1.91,0,0,0-1.48.38C30.81,13.85,30.79,14.2,31.09,14.17Z"/><path class="cls-12" d="M32.47,15.27c.29,0,.81-.14.69-.52a.19.19,0,0,0-.35.06.89.89,0,0,1-.73,0c-.15-.05-.36-.23-.49,0S32.25,15.27,32.47,15.27Z"/><path class="cls-12" d="M50.84,7.19a.2.2,0,0,0,.08-.26c-.12-.22-.24-.43-.37-.64s-.25-.35-.38-.53a.19.19,0,0,0-.3,0,.19.19,0,0,0,0,.28c.16.21.3.41.44.63s.19.33.28.49A.18.18,0,0,0,50.84,7.19Z"/><path class="cls-12" d="M50.4,8a.19.19,0,0,0,.08-.25c-.15-.27-.29-.53-.45-.79s-.43-1-.76-.67c-.1.18.09.25.16.39.25.41.49.82.71,1.25A.19.19,0,0,0,50.4,8Z"/><path class="cls-12" d="M49.61,8.45a.2.2,0,0,0,.11-.25A11.75,11.75,0,0,0,49.09,7a.2.2,0,1,0-.4,0,4.67,4.67,0,0,0,.43.83,3.71,3.71,0,0,1,.24.49A.22.22,0,0,0,49.61,8.45Z"/><path class="cls-12" d="M48.86,9.21A.19.19,0,0,0,49,9a3.58,3.58,0,0,0-.21-.63c-.15-.29-.26-.59-.41-.88a.19.19,0,0,0-.29,0,.19.19,0,0,0,0,.23c.1.26.26.55.37.8a3.69,3.69,0,0,1,.19.56A.18.18,0,0,0,48.86,9.21Z"/><path class="cls-12" d="M38.71,14.36a.93.93,0,0,0-.05-.84,1.21,1.21,0,0,1,.08-.68.56.56,0,0,1,.34-.18.19.19,0,0,0,0-.38.81.81,0,0,0-.7.59A1.45,1.45,0,0,0,38.42,14a.4.4,0,0,1,0,.22A.19.19,0,0,0,38.71,14.36Z"/><polygon points="33.13 25.85 33.13 25.85 33.13 25.85 33.13 25.85"/><path d="M33.53,25.58Z"/><path d="M33.53,25.58Z"/><path class="cls-6" d="M35.47,21.43a.19.19,0,0,0,.24-.15c0-.23-.31-.31-.44-.16h0A.19.19,0,0,0,35.47,21.43Z"/><path class="cls-6" d="M35.15,22.09A.19.19,0,0,0,35,21.9a.19.19,0,0,0,0,.38A.19.19,0,0,0,35.15,22.09Z"/><path class="cls-6" d="M34.69,23a.2.2,0,0,0-.19-.19.19.19,0,1,0,0,.38A.2.2,0,0,0,34.69,23Z"/><path class="cls-6" d="M34.31,24.06a.19.19,0,0,0-.19-.19.19.19,0,0,0,0,.38A.19.19,0,0,0,34.31,24.06Z"/><path class="cls-6" d="M34.43,25.28a.2.2,0,0,0-.19-.19.19.19,0,0,0,0,.38A.2.2,0,0,0,34.43,25.28Z"/><path d="M29.67,28.13Z"/><polygon points="29.67 28.13 29.67 28.13 29.67 28.13 29.67 28.13"/><path d="M29.69,28.08Z"/><polygon points="29.53 28.41 29.53 28.41 29.53 28.41 29.53 28.41"/><polygon points="29.54 28.4 29.54 28.4 29.54 28.4 29.54 28.4 29.54 28.4"/><path d="M29.69,28.08Z"/><polygon points="29.66 28.15 29.66 28.15 29.66 28.15 29.66 28.15"/><path d="M29.67,28.13Z"/><path d="M29.67,28.13Z"/><path d="M29.69,28.09Z"/><polygon points="29.7 28.08 29.7 28.08 29.7 28.08 29.7 28.08"/><polygon points="29.67 28.13 29.67 28.13 29.67 28.13 29.67 28.13"/><path d="M29.69,28.08Z"/><polygon points="29.69 28.08 29.69 28.08 29.69 28.08 29.69 28.08"/><polygon points="29.69 28.08 29.69 28.08 29.69 28.08 29.69 28.08"/><polygon points="27.33 21.03 27.33 21.03 27.33 21.03 27.33 21.03"/><polygon points="27.46 20.99 27.46 20.99 27.46 20.99 27.46 20.99"/><polygon points="27.46 20.99 27.46 20.99 27.46 20.99 27.46 20.99"/><path d="M27.47,21Z"/><path d="M27.47,21Z"/><polygon points="27.48 20.98 27.48 20.98 27.48 20.98 27.48 20.98"/><polygon points="27.48 20.98 27.48 20.98 27.48 20.98 27.48 20.98"/><path d="M31.63,30.43Z"/><path class="cls-2" d="M20.4,44.66a1.34,1.34,0,0,1,.83-.5A6.44,6.44,0,0,0,22.74,44c.41-.13.77-.29,1.17-.46s.93-.53,1.42-.74a11.38,11.38,0,0,0,2.39-1.55A4.53,4.53,0,0,0,29,40a.19.19,0,0,1,.37,0c0,.17-.13.31-.21.45a8.82,8.82,0,0,1-1.54,1.31,8.4,8.4,0,0,1-1.71,1.12c-.62.28-1.18.65-1.8.94a10.31,10.31,0,0,1-1.4.53,8.34,8.34,0,0,1-1.41.16.85.85,0,0,0-.55.34c0,.08,0,.14.07.21a1.57,1.57,0,0,0,.19.18,3.58,3.58,0,0,0,.45.09l0,0a1.07,1.07,0,0,1,.28-.43c.24-.22.52.2.21.32a.52.52,0,0,0-.08.65c.12.07.33,0,.43.11a1.1,1.1,0,0,1,0-.57c.09-.23.59-.78.73-.33,0,.15-.13.18-.22.26a.63.63,0,0,0-.18.64h0a.42.42,0,0,0,.42,0s0,0,.08,0a.91.91,0,0,1,.3-1.1c.15-.1.4,0,.39.16a.19.19,0,0,1-.21.18c-.14.18-.35.58,0,.69a1.06,1.06,0,0,0,.68-.05.88.88,0,0,1,.13-1c.12-.19.24-.46.5-.46a.2.2,0,0,1,.18.2.19.19,0,0,1-.17.18.75.75,0,0,0-.13.18c-.1.19-.34.45-.2.65a3.68,3.68,0,0,0,1.75.09,3.24,3.24,0,0,1,1.41.25c.64.23,1.29.42,1.93.65s.76.33,1.27,0A1.35,1.35,0,0,0,31.7,46a3.94,3.94,0,0,0,.06-1.57,1.49,1.49,0,0,1,.56-1c.18-.11.69-.48.82-.17a.19.19,0,0,1-.12.24,2,2,0,0,0-.59.31,2,2,0,0,0-.29.59c0,.26.06.51,0,.76A1.72,1.72,0,0,1,31,47.09c-.51.32-1.07,0-1.57-.16q-1.08-.34-2.16-.72c-.85-.24-1.74.14-2.58-.12a1.07,1.07,0,0,1-.63.23,1,1,0,0,1-.69-.14c0,.16-.26.25-.41.27a.6.6,0,0,1-.59-.25c0,.22-.31.16-.47.13a.61.61,0,0,1-.46-.58v0a2,2,0,0,1-.42,0,.88.88,0,0,1-.53-.38A.56.56,0,0,1,20.4,44.66Z"/><polygon points="29.02 30.4 29.02 30.4 29.02 30.41 29.02 30.41 29.02 30.4"/><polygon points="31.63 30.43 31.63 30.43 31.63 30.43 31.63 30.43 31.63 30.43 31.63 30.43"/><polygon points="31.63 30.43 31.63 30.43 31.63 30.43 31.63 30.43"/><path class="cls-2" d="M17.12,26.15c.15-.08.05-.26.12-.39a1.63,1.63,0,0,1,.91-.91,10.21,10.21,0,0,1,1.65-.31,11.34,11.34,0,0,0,2.75-1.06c.69-.38,1.33-.86,2-1.22A9.46,9.46,0,0,1,27.33,21h.43a.19.19,0,0,0,0-.35,3.41,3.41,0,0,0-1.13.24,30,30,0,0,0-4.31,2.35,10.41,10.41,0,0,1-2.67,1,6.66,6.66,0,0,0-1.72.35,2.13,2.13,0,0,0-.93.9c-.08.2-.2.43-.1.63a.19.19,0,0,0,.16.1A.17.17,0,0,0,17.12,26.15Z"/><polygon points="27.47 20.99 27.47 20.99 27.47 20.99 27.47 20.99"/><polygon points="30.01 24.96 30.01 24.96 30.01 24.96 30.01 24.96"/><path class="cls-13" d="M15,31.13c.21-.56.47-1.12.69-1.68a4.15,4.15,0,0,0,.39-1.7,1.41,1.41,0,0,1,.64-1.41,4,4,0,0,1,1.92-.49c.22,0,1.06,0,.62.35-.14.12-.83.05-1,.08a3.14,3.14,0,0,0-1.24.34c-1,.62-.41,1.52.26,2.14,1.11,1,3.83,2.58,5.23,1.31a1.42,1.42,0,0,0,.28-1.71,3.1,3.1,0,0,0-.65-.83c-.15-.14-.68-.36-.75-.5-.35-.71.9.11,1.08.29a2.49,2.49,0,0,1,.83,2.13c-.18.86-1,1.45-1.39,2.22-.08.18-.54,1.29-.72.68-.09-.3.6-1.28.74-1.54-2,.4-4.13-.93-5.43-2.34-.28.53-.45,1.15-.68,1.71a6.88,6.88,0,0,1-.65,1.73c-.48.56-.32-.3-.19-.65A.69.69,0,0,1,15,31.13Z"/><polygon points="13.63 41.61 13.63 41.61 13.63 41.61 13.63 41.61"/><polygon points="13.63 41.61 13.63 41.61 13.63 41.61 13.63 41.61 13.63 41.61"/><polygon class="cls-14" points="12.16 44.01 12.16 44.01 12.16 44.01 12.16 44.01"/><path class="cls-14" d="M8.72,41.27a.88.88,0,0,0,.43.48l.12.08c.17.13.3.31.47.44.57.39,1.08.87,1.66,1.25a5.19,5.19,0,0,1,.62.42h0l.05,0,.06,0h0l.06,0h0l.12,0h0a1.45,1.45,0,0,0,.29,0,1.73,1.73,0,0,0,.38-.05,2.38,2.38,0,0,0,1.22-2.15.84.84,0,0,0-.05-.2c-.06-.27-.65-.63-.78-.78-.5-.44-1-.86-1.53-1.26l-.32-.27s0,0,0,0a.59.59,0,0,0-.27-.38A1.23,1.23,0,0,0,10,38.8a3,3,0,0,0-1,1,1.53,1.53,0,0,0-.24.61A1.67,1.67,0,0,0,8.72,41.27Zm2-2.1c-.45.22-2,1.4-1.59,2.12-.36-.59.16-1.69.84-2.06A.83.83,0,0,1,10.75,39.17Zm1.08,3.29c.09-.61,1.2-1.32,1.78-.92.75.5-.16,2.1-.89,2.18h0C12,43.76,11.73,43,11.83,42.46ZM9.91,40.3a1.22,1.22,0,0,1,1.34-.65,4.26,4.26,0,0,1,1.68,1.41,2,2,0,0,0-1.2.7c-.11.16-.53,1.17-.27,1.32a4.8,4.8,0,0,1-1.59-1.24A1.22,1.22,0,0,1,9.91,40.3Z"/><path d="M6.14,43.5Z"/><polygon points="6.14 43.5 6.14 43.5 6.14 43.5 6.14 43.5"/><path d="M6.14,43.5Z"/><path d="M5.61,43.58h0Z"/><polygon points="5.63 43.58 5.63 43.58 5.63 43.58 5.63 43.58"/><polygon points="5.63 43.58 5.63 43.58 5.63 43.58 5.63 43.58 5.63 43.58"/><polygon points="5.84 43.55 5.84 43.55 5.84 43.55 5.84 43.55"/><polygon points="6.14 43.5 6.14 43.5 6.14 43.5 6.14 43.5"/><polygon points="6.14 43.5 6.14 43.5 6.14 43.5 6.14 43.5"/><polygon points="6.14 43.5 6.14 43.5 6.14 43.5 6.14 43.5 6.14 43.5"/><polygon points="29.47 27.36 29.47 27.36 29.47 27.36 29.47 27.36"/><polygon class="cls-15" points="6.61 38.48 6.61 38.48 6.61 38.48 6.61 38.48"/><polygon class="cls-15" points="6.61 38.48 6.61 38.48 6.61 38.48 6.61 38.48"/><polygon class="cls-15" points="5.61 43.58 5.61 43.58 5.61 43.58 5.61 43.58"/><polygon class="cls-15" points="5.94 43.53 5.95 43.53 5.95 43.53 5.94 43.53"/><polygon class="cls-15" points="4.33 43.01 4.33 43.02 4.33 43.01 4.33 43.01"/><polygon class="cls-15" points="4.3 42.97 4.3 42.97 4.3 42.97 4.3 42.97 4.3 42.97 4.3 42.97 4.3 42.97 4.3 42.97 4.3 42.97 4.3 42.97 4.3 42.97 4.3 42.97 4.3 42.97 4.3 42.97 4.3 42.97 4.3 42.97 4.3 42.97 4.3 42.97 4.3 42.97 4.3 42.97"/><path class="cls-15" d="M0,40.89c.06.75.09,1.92.83,2.31a5.79,5.79,0,0,0,2.65.14c.89,0,1.7.46,2.62.16,1.81-.59,2.09-4.83.31-5.55a3,3,0,0,0-1.69-.32c-.47.11-.73.42-1.22.53-.83.18-2.07,0-2.83.32A1.5,1.5,0,0,0,0,39.8,6.51,6.51,0,0,0,0,40.89Zm6,2.24c-1.7.33-1.71-3.87-.72-4.57,1.75-1.25,2.4,2.47,1.49,4A1.16,1.16,0,0,1,6.06,43.13Zm.13.36Zm-1.71-.34h0l-.05,0,0,0h0l0,0h0s0,0,0,0h0s0,0,0,0a3.44,3.44,0,0,1-.35-1.21,12.93,12.93,0,0,1-.1-1.52A6.24,6.24,0,0,1,4,38.88a3.19,3.19,0,0,1,.46-.69A1.23,1.23,0,0,1,5.49,38a2.11,2.11,0,0,0-1.13,1.31,4.4,4.4,0,0,0,0,1.45,3.29,3.29,0,0,0,1,2.51c-.23,0-.45,0-.68-.06a.41.41,0,0,1-.11-.07h0Zm-.08,0ZM.42,41c-.06-.72-.18-1.86.57-2.18a9.13,9.13,0,0,1,2.72-.29c-.3,0-.33,2-.32,2.17,0,.75.4,1.53.39,2.22a5.63,5.63,0,0,1-2.55,0c-.65-.24-.74-1-.79-1.68C.43,41.15.43,41.07.42,41Z"/><path class="cls-7" d="M52.75,36.2l-1.91-.59s-2-.06-2.52.57-.6.83-.64,1.26a2.37,2.37,0,0,0,0,1.13A6.74,6.74,0,0,1,48,39.7s-.2,2.23.4,2.68,3.33.38,3.33.38.81-.22.94-.84a19.12,19.12,0,0,0,.17-2.38,4.3,4.3,0,0,0,.45-1.34,7,7,0,0,0-.21-1.32Z"/><path d="M47.51,37.47h0Z"/><polygon points="47.51 37.45 47.51 37.45 47.51 37.45 47.51 37.45"/><polygon points="47.51 37.45 47.51 37.45 47.51 37.45 47.51 37.45 47.51 37.45"/><polygon points="47.53 37.24 47.53 37.24 47.53 37.24 47.53 37.24"/><polygon class="cls-13" points="52.59 36.34 52.58 36.34 52.58 36.34 52.59 36.34"/><polygon class="cls-13" points="52.59 36.34 52.59 36.34 52.59 36.34 52.59 36.34"/><polygon class="cls-13" points="47.51 37.47 47.51 37.47 47.51 37.47 47.51 37.47"/><polygon class="cls-13" points="47.55 37.13 47.55 37.13 47.55 37.13 47.55 37.13"/><polygon class="cls-13" points="48.11 38.74 48.11 38.74 48.11 38.74 48.11 38.74"/><polygon class="cls-13" points="48.15 38.76 48.15 38.76 48.15 38.76 48.15 38.76 48.15 38.76 48.16 38.76 48.16 38.76 48.16 38.76 48.16 38.76 48.16 38.76 48.16 38.76 48.16 38.76 48.16 38.76 48.16 38.76 48.15 38.76 48.15 38.76 48.15 38.76 48.15 38.76 48.15 38.76 48.15 38.76"/><path class="cls-13" d="M51.43,43a1.48,1.48,0,0,0,1.3-.71c.34-.77.09-2,.25-2.84.09-.49.4-.76.49-1.24a3,3,0,0,0-.35-1.67c-.77-1.77-5-1.37-5.54.45-.28.93.23,1.72.22,2.61A5.92,5.92,0,0,0,48,42.21c.4.73,1.58.73,2.33.77A6.74,6.74,0,0,0,51.43,43Zm-2.91-6.73c1.48-.95,5.22-.41,4,1.38-.68,1-4.88,1.1-4.6-.61A1.17,1.17,0,0,1,48.52,36.23Zm-.94.66Zm.36,1.66v0l-.06-.11a5.25,5.25,0,0,1-.08-.68,3.31,3.31,0,0,0,2.53.95,4.4,4.4,0,0,0,1.45-.08,2.13,2.13,0,0,0,1.28-1.16,1.19,1.19,0,0,1-.13,1.06,3,3,0,0,1-.67.48,6.25,6.25,0,0,1-1.29.17,13,13,0,0,1-1.53-.06,3.66,3.66,0,0,1-1.22-.31l0,0h0l0,0h0l0,0h0v0h0l0,0,0,0h0S48,38.57,47.94,38.55Zm.08.12Zm2,3.91c-.67,0-1.44-.11-1.7-.75a5.77,5.77,0,0,1-.09-2.55c.69,0,1.49.33,2.23.33.21,0,2.17-.07,2.16-.38A9.24,9.24,0,0,1,52.39,42c-.3.76-1.45.66-2.17.62Z"/><path class="cls-16" d="M14.25,33.58c0,.25.19.24.27.42a3.63,3.63,0,0,1,.22,1.42c0,1.59.07,3.17.06,4.76a3.87,3.87,0,0,0,0,1.1.16.16,0,0,0,.05.26,3.33,3.33,0,0,0,1.39.44,8,8,0,0,0,2,.16A17.72,17.72,0,0,0,20,42a8.65,8.65,0,0,0,1.6-.28,1.11,1.11,0,0,0,.39-.2l.06,0s0-.05,0-.08a.15.15,0,0,0,0-.14v0c0-.4,0-2.69,0-3.08a23.93,23.93,0,0,0-.22-3.39c0-.2,0-.39,0-.58a.87.87,0,0,0,.14-.08,1.14,1.14,0,0,0-.41-1.88,12.18,12.18,0,0,0-2.17.15,17.53,17.53,0,0,1-3.62-.08c-.29-.07-1-.48-1.28-.37s-.09.64-.07,1v0C14.46,33.13,14.21,33.33,14.25,33.58Zm7.65-.91,0,.09s0,.07,0,.1a4,4,0,0,1-1.88.29,10.13,10.13,0,0,1-2.13.13A15.78,15.78,0,0,1,15.56,33c-.42-.08-.83-.22-.86-.71a7.75,7.75,0,0,0,3.67.44c1.16,0,2.32,0,3.48-.11Zm-6.72,8.59a8.17,8.17,0,0,0,0-2,48.77,48.77,0,0,1-.08-5,16.92,16.92,0,0,0,4.66.08,10.94,10.94,0,0,0,1.76-.06c0,.17,0,.33,0,.5.07.69.19,1.41.2,2.1v.26h0v0a.09.09,0,0,1,0,0h0v.1h0a.17.17,0,0,1,0,.07v0s0,0,0,0,0,0,0,0v.11c0,.33,0,2.58,0,2.93s0,.44,0,.66h0a8,8,0,0,1-2.12.41,8.83,8.83,0,0,1-3.2,0A3.5,3.5,0,0,1,15.18,41.26Zm-.55-7.64a1,1,0,0,1,.16-.5,3.67,3.67,0,0,0,1.16.36,25.45,25.45,0,0,0,2.61.19c.49-.05,1-.05,1.47-.14a5.79,5.79,0,0,0,1.1-.05c.24-.07.5-.11.73-.2a.53.53,0,0,1,0,.46c-.26.16-.62.06-.92.12a11.5,11.5,0,0,1-1.18.08,13,13,0,0,0-2.07.15A5.68,5.68,0,0,1,14.63,33.62Z"/><path class="cls-2" d="M19.49,27.39a6.66,6.66,0,0,0,1.7-.34,16.19,16.19,0,0,1,2.13-.83,7.36,7.36,0,0,1,1.75-.11,10.33,10.33,0,0,0,1.47-.06,21.56,21.56,0,0,0,3.2-.63,2.49,2.49,0,0,0,.54-.2.2.2,0,0,0,0-.34h0a.08.08,0,0,1-.06,0H29.9s0,0,0,0h0a10.13,10.13,0,0,1-2.31.5,10.63,10.63,0,0,1-1.85.23h-.83a6.83,6.83,0,0,0-1.56.11c-1,.17-1.79.8-2.73,1a3.11,3.11,0,0,1-1.93,0c0-.26.35-.36.53-.49s.59-.28.72-.57a.19.19,0,0,0-.14-.23.2.2,0,0,0-.22.12,2.53,2.53,0,0,1-.27.18,4.41,4.41,0,0,0-.83.58c-.54.7.31.93.9.93Z"/><path class="cls-6" d="M34.82,20.23l.07,0A15.26,15.26,0,0,1,34,21.93a2.35,2.35,0,0,0-.76,2.62,1.88,1.88,0,0,1,0,.78v.05s0,0,0,.05h0c0,.05,0,.1,0,.15s0,.08,0,.12h0c0,.05,0,.1,0,.14s0,.11,0,.17v0l0,0a1.59,1.59,0,0,0,.13-.13h0l0-.06h0l.09-.15,0-.07h0v0h0a.36.36,0,0,1,0-.09s0,0,0-.08l0-.05,0,0h0a.29.29,0,0,0,0-.09h0a.24.24,0,0,0,0-.08c0-.45-.18-.91-.2-1.36a2,2,0,0,1,.75-1.53,9.26,9.26,0,0,0,.87-1.72,2.37,2.37,0,0,1,.17-.36.18.18,0,0,0,.07-.08h.09a.05.05,0,0,0,0,0,2.47,2.47,0,0,0,.54.11,2.92,2.92,0,0,0,1.14.11,6,6,0,0,0,1.58-.51c.48-.23.89-.56,1.35-.82a12.86,12.86,0,0,0,2-1.47,4,4,0,0,0,1-2.07v0c.48.64,1.25,1,1.64,1.78a6.69,6.69,0,0,1,.51,2.07,15.73,15.73,0,0,1,.15,2.06,33.09,33.09,0,0,1,0,3.45,4.22,4.22,0,0,0-1.78-1.18,3.73,3.73,0,0,0-2.56-.31,10.43,10.43,0,0,0-1.62.45c-.39.28-.73.62-1.11.92a8.31,8.31,0,0,1,.37-2.21,7,7,0,0,0,.26-1c.07-.17.15-.49-.11-.51s-.2.14-.2.27a3.13,3.13,0,0,0-.13.48c-.12.51-.3,1-.41,1.5a7.42,7.42,0,0,0-.14,1.88c0,.22.21.35.37.18s.17-.26.28-.38c.33-.25.64-.54,1-.8a.88.88,0,0,1,.44-.17c.4-.08.79-.19,1.18-.29a3.17,3.17,0,0,1,1.7.08,9.39,9.39,0,0,1,1.61.74,2.84,2.84,0,0,1,.68.66c.11.11.16.32.34.33a.19.19,0,0,0,.19-.15,16.69,16.69,0,0,0,0-3.39,14.12,14.12,0,0,0-.61-4.67c-.42-1.13-1.81-1.55-2.15-2.73a.19.19,0,0,0-.37.07l.06.13a.19.19,0,0,0-.1.21,7.14,7.14,0,0,1-2.28,2.16,8.76,8.76,0,0,1-1.9,1.41c-.38.24-.8.4-1.18.63s-1,.36-1.48.54a1,1,0,0,1-.29,0,.77.77,0,0,0-.3-.11.2.2,0,0,0-.13,0s-.06,0-.09,0c-.31-.19-.7-.34-.86-.69-.12-.17-.13-.6-.4-.54s-.11.32,0,.47a1.73,1.73,0,0,0,.95,1l.09,0c-.46.09-.87-.29-1.14-.62a1.45,1.45,0,0,1-.5-1,.25.25,0,0,1,0-.12.2.2,0,0,0-.13-.23.19.19,0,0,0-.23.13,1.6,1.6,0,0,0,.52,1.44A1.65,1.65,0,0,0,34.82,20.23Zm1.53-.35h-.08a8.91,8.91,0,0,0,1.53-.62,14.4,14.4,0,0,0,2.32-1.42,5.27,5.27,0,0,1,.87-.76,8,8,0,0,0,1.64-1.43.75.75,0,0,0,.09-.15,3.72,3.72,0,0,1-.95,1.82,7,7,0,0,1-1.27,1,7.31,7.31,0,0,1-.87.58,6,6,0,0,1-2,1A2.07,2.07,0,0,1,36.35,19.88Z"/><polygon class="cls-6" points="33.48 25.68 33.48 25.68 33.48 25.68 33.48 25.68"/><polygon class="cls-6" points="33.27 25.71 33.27 25.71 33.27 25.71 33.27 25.71"/><polygon class="cls-6" points="33.27 25.7 33.27 25.7 33.27 25.7 33.27 25.7"/><path class="cls-6" d="M27.14,20.72a1.37,1.37,0,0,1,.15-.35c.19-.35.6-.42.95-.51a4.56,4.56,0,0,0,1.17-.44,3.92,3.92,0,0,0,1.05-1.28,2.56,2.56,0,0,1,.82-1.1c.18-.09.36-.26.57-.26a.19.19,0,0,1,.12.31c-.12.09-.37.17-.53.3-.46.35-.61.95-1,1.41A2.8,2.8,0,0,1,29,20c-.26.1-.53.15-.78.23a1.09,1.09,0,0,0-.58.25.46.46,0,0,0-.08.13,1,1,0,0,1,.79.14,5.06,5.06,0,0,1,1.7,2.31c.06.15.3.7.43,1.15a7.29,7.29,0,0,0,.85-1.94,2.06,2.06,0,0,0-.2-1.65.19.19,0,0,1,.13-.23c.44,0,.56,1,.52,1.33a6.43,6.43,0,0,1-1,2.79c-.24.48-.45,1-.65,1.48a5.66,5.66,0,0,0-.25,1.47v0l0,.11a.83.83,0,0,1,0,.15l0,.11s0,.06,0,.08,0,.08,0,.12h0s0,0,0,0h0v0h0s0,0,0,0h0a.75.75,0,0,0-.07.12s0,0,0,.05l0,0h0l0,.07h0l0,0h0s0,0,0,0,0,0,0,.06h0v0h0v0c-.12.23-.25.46-.35.7l0,0a.19.19,0,0,1,0,.07l0,0s0,0,0,0a.08.08,0,0,0,0,0s0,.07,0,.11h0v.09h0V30a.38.38,0,0,0,0,.1v0a.76.76,0,0,0,0,.21,1.34,1.34,0,0,1,.07.18l0,.05a.14.14,0,0,0,0,.06s0,0,0,0h0a.81.81,0,0,0,.37.46,1.54,1.54,0,0,0,1,0A5.57,5.57,0,0,0,31.1,31a.42.42,0,0,1,.33,0,.19.19,0,0,1-.11.35,7.31,7.31,0,0,1-1.22.24,1,1,0,0,1-.24,0c-.72,0-1.08-.57-1.27-1.26a4.23,4.23,0,0,1,0-.87,7.61,7.61,0,0,1,.61-1.29.61.61,0,0,0,0-.13v0a1.12,1.12,0,0,0,0-.13.93.93,0,0,0,0-.13l0-.09,0-.11a.64.64,0,0,0,0-.07v0h0v0h0a.24.24,0,0,1,0-.08s0,0,0-.07h0a.13.13,0,0,0,0-.06v0s0-.06,0-.1v0h0v-.06h0a.13.13,0,0,0,0-.06v-.05l0-.25a6.36,6.36,0,0,1,.6-1.68h0a0,0,0,0,0,0,0l0-.09a.09.09,0,0,1,0-.05,3.63,3.63,0,0,0-.16-.65,9,9,0,0,0-.75-1.65,3.57,3.57,0,0,0-.76-1.05A1.87,1.87,0,0,0,28,21h0s0,0-.07,0l-.11,0h-.46l0,0h0a.22.22,0,0,1-.05-.12A.17.17,0,0,1,27.14,20.72Z"/><polygon class="cls-6" points="29.02 29.44 29.02 29.44 29.03 29.43 29.02 29.44"/><polygon class="cls-6" points="29 29.49 29 29.49 29.01 29.48 29 29.49"/><polygon class="cls-6" points="29.46 27.41 29.46 27.41 29.46 27.41 29.46 27.41"/><path class="cls-2" d="M28.13,9.13c.36-.11.26.41.35.62a14.51,14.51,0,0,0,.72,1.74c.38.63.9,1.16,1.33,1.75a1.73,1.73,0,0,1,.28,1.3,2.9,2.9,0,0,0-.12.42.75.75,0,0,0,.29.61l.37.14c.15,0,.33.12.27.29a2.58,2.58,0,0,0,.32.53c.19.12.44.3.35.56a1.54,1.54,0,0,0,.17.19,1.17,1.17,0,0,1,.33.11,1.37,1.37,0,0,1,.27.22c.11.1.25.17.37.26a2.45,2.45,0,0,0,.88.28,3.33,3.33,0,0,0,1-.13,5.51,5.51,0,0,0,1.17-.38,1.26,1.26,0,0,1,1,0,.26.26,0,0,1,.15.34.19.19,0,0,1-.24.08.16.16,0,0,1-.09-.09c-.45-.24-.94.06-1.37.24s-.86.18-1.29.29a2.71,2.71,0,0,1-2-.8c-.12-.09-.29-.07-.4-.16s-.39-.34-.31-.59c-.07-.09-.2-.12-.27-.21a2.91,2.91,0,0,1-.36-.59s0-.07,0-.11h-.05a1.45,1.45,0,0,1-.57-.28,1.11,1.11,0,0,1-.34-.91c0-.25.2-.49.15-.75a2,2,0,0,0-.46-1,13.37,13.37,0,0,1-1.08-1.4C28.74,11.45,27.72,9.29,28.13,9.13Z"/><path class="cls-2" d="M37.65,18a0,0,0,0,0,0,0h0Z"/><path class="cls-2" d="M42.33,13.11a.25.25,0,0,1,.17.27,6.43,6.43,0,0,0,.54,1c.06.09.14.19.12.3a.19.19,0,0,1-.21.16c-.12,0-.15-.13-.2-.22a5.61,5.61,0,0,1-.66-1.29A.2.2,0,0,1,42.33,13.11Z"/><path class="cls-12" d="M27.47,9.07a1.57,1.57,0,0,0,.48.86c.1.18.44.42.55.12a.2.2,0,0,0-.15-.23c-.09-.08-.14-.18-.25-.24v0a.16.16,0,0,0,.12,0,.2.2,0,0,0,.15-.27,2.67,2.67,0,0,1,.2-1.09,3.28,3.28,0,0,1,1-1.06,3.69,3.69,0,0,0,.62,2.54,8.6,8.6,0,0,0,2.51,2.22c.31.15.61.32.92.49s.62.2.92.33a6.53,6.53,0,0,1,2.4,1.53,6.51,6.51,0,0,1,.56,2,4.76,4.76,0,0,0,.1.52.19.19,0,0,0,.32,0c.07-.1,0-.22,0-.32s0-.22,0-.32c-.07-.71-.07-1.43-.1-2.14a3,3,0,0,1,.39-1.94l0-.07c.79-.71,1.32.4,1.45,1.08a1.9,1.9,0,0,1-.16,1.13,2.93,2.93,0,0,1-.64.8c-.17.17.09.43.27.26a2.47,2.47,0,0,0,.93-2,2.09,2.09,0,0,0-.08-.51,1.92,1.92,0,0,0,.46.27,3.69,3.69,0,0,0,1.91.41l.06,0h0c.16,0,.18-.18.15-.32s0-.33,0-.49c.13-.5.33-1,.48-1.47a13.81,13.81,0,0,0,.36-1.67,9.26,9.26,0,0,0-.31-4.5,4.77,4.77,0,0,0-.28-.55.57.57,0,0,0,0-.14A.83.83,0,0,0,42.84,4a.37.37,0,0,0,.3-.14.36.36,0,0,0,0-.25c2,.57,3.31,2.46,4,4.33a5.69,5.69,0,0,1,.31,1.28c.05.19,0,.61.31.55a.18.18,0,0,0,.12-.24,7.09,7.09,0,0,0-.45-1.87c-.71-1.95-2.15-3.89-4.24-4.43a.59.59,0,0,0-.19,0l-.09-.1a2.91,2.91,0,0,1,.77-.38C45.79,2,48,3.18,49.57,4.61a8.31,8.31,0,0,1,1,1.09l.46.63a.2.2,0,0,0,.24.1c.18-.08.12-.29,0-.4A12.31,12.31,0,0,0,50,4.54c-1.71-1.7-4.36-3.07-6.75-2a2.33,2.33,0,0,0-.72.44.22.22,0,0,0-.28.06.15.15,0,0,0-.09-.1,8.88,8.88,0,0,0-1-1A6,6,0,0,0,37.58.36.18.18,0,0,0,37.5.24,5.13,5.13,0,0,0,35.13.06a10.64,10.64,0,0,0-4.34,1.67,7,7,0,0,0-3.34,5.13A5.31,5.31,0,0,0,27.47,9.07Zm14.6-5a1.47,1.47,0,0,1-.22-.57c.26.19.75.54.65.92h0A.63.63,0,0,1,42.07,4Zm.75-.4c-.12-.06-.27-.15-.3-.28v0C42.67,3.37,42.75,3.52,42.82,3.64ZM29.88,7.51a2.72,2.72,0,0,1,.24-1s0,0,0-.07,0,0,0,0a1.77,1.77,0,0,1,.32-.5c.24-.31.46-.64.72-.94a16.46,16.46,0,0,1,1.69-1.65c.47-.36,1-.72,1.41-1.09A8.94,8.94,0,0,1,36.47.92a4.27,4.27,0,0,1,3.65.67,8.61,8.61,0,0,1,1.6,1.35.45.45,0,0,1,.11.13.37.37,0,0,0-.2.07c-.27.21-.15.59,0,.84s.48.84,1,.78h0a.41.41,0,0,1,.06.11c.89,1.66.61,4.37.12,6.14-.15.6-.44,1.18-.53,1.79,0,.1,0,.24,0,.37l-.08,0A2.61,2.61,0,0,1,41,12.91a2.8,2.8,0,0,1-.84-.39c-.1-.09-.25-.25-.4-.26a1.37,1.37,0,0,0-.4-.55,1,1,0,0,0-1.36.06v0a.28.28,0,0,0-.09.1,3.6,3.6,0,0,0-.48,2.46,2.7,2.7,0,0,0-.94-1A8.91,8.91,0,0,0,35,12.54a10.77,10.77,0,0,1-1.75-.73A7.56,7.56,0,0,1,30.8,9.9,3.25,3.25,0,0,1,29.88,7.51Zm-2.11-.14a6.71,6.71,0,0,1,3.72-5.61A8.19,8.19,0,0,1,36.74.46,5.39,5.39,0,0,0,35.36,1a9.41,9.41,0,0,0-2,1.36,14,14,0,0,0-2.2,1.94,10.49,10.49,0,0,0-1,1.28,1.58,1.58,0,0,0-.41.74h0c0,.07-.05.15-.08.22a.16.16,0,0,0-.13.11,4.87,4.87,0,0,0-1.19,1.12A2.64,2.64,0,0,0,28,9.12a.89.89,0,0,0,0,.28A.41.41,0,0,1,28,9.31,3.77,3.77,0,0,1,27.77,7.37Z"/><path class="cls-12" d="M42.32,13.53Z"/><path class="cls-6" d="M27.86,20.3a.23.23,0,0,1,.22-.19l.28.05a.27.27,0,0,1,.31-.24l.25.07a.24.24,0,0,1,.29-.23l.11,0a.24.24,0,0,1,.24-.26l.22.05a.47.47,0,0,1,0-.14.23.23,0,0,1,.21-.23.24.24,0,0,1,.27-.34h0a.21.21,0,0,1,.22-.16.21.21,0,0,1,.14-.22l0-.09c-.07-.17.12-.32.27-.29A.25.25,0,0,1,31,18a.56.56,0,0,1,0-.12s.06-.05.09-.07h0a.25.25,0,0,1,.22-.3.26.26,0,0,1,.14-.15c0-.21.23-.41.4-.21a.68.68,0,0,1,.16.33.25.25,0,0,1-.19.29h0a.27.27,0,0,1-.14.29.23.23,0,0,1-.17.26.22.22,0,0,1-.17.24.26.26,0,0,1-.14.15.28.28,0,0,1-.13.35.24.24,0,0,1-.22.29.22.22,0,0,1-.18.18l0,.06a.23.23,0,0,1-.17.29l0,0c.12.15-.05.35-.21.36a.73.73,0,0,1-.36-.08.26.26,0,0,1-.23.2l-.09,0a.21.21,0,0,1-.17.18h-.19a.24.24,0,0,1-.25.23,3.93,3.93,0,0,1,.86.75c.16.19-.05.53-.29.37s-.44-.33-.67-.49a2.07,2.07,0,0,0-.52-.3s0,0-.07,0A.34.34,0,0,1,28.1,21a.5.5,0,0,1,0-.12h0a.28.28,0,0,1-.2,0,1,1,0,0,1-.18-.09A.24.24,0,0,1,27.86,20.3Z"/><path class="cls-6" d="M29,29.91a.22.22,0,0,0,0,.16,1.85,1.85,0,0,0,.36.79.22.22,0,0,0,.1.26,2.11,2.11,0,0,0,.45.1l.07,0a.24.24,0,0,0,.17,0,2,2,0,0,0,.43,0l.19,0h.06a.19.19,0,0,0,.16-.18l.07-.05a.25.25,0,0,0,0-.07h0a.24.24,0,0,0,.18-.23.52.52,0,0,0-.32-.42.22.22,0,0,0,0-.13h.06a.24.24,0,0,0,.14-.35s0,0-.05-.06l0-.07a1,1,0,0,0,.4-.13.25.25,0,0,0,0-.38,1.84,1.84,0,0,0-.39-.28.26.26,0,0,0-.15-.31h0a.23.23,0,0,0-.12-.37,4.87,4.87,0,0,0-.7,0,.06.06,0,0,0,0,0,1.13,1.13,0,0,0,0-.18,1.16,1.16,0,0,0,.77-.11.27.27,0,0,0,.11-.19h0a.23.23,0,0,0,.16-.17.87.87,0,0,0,.35-.07.24.24,0,0,0,.1-.4,0,0,0,0,1,0,0l.07-.06a.24.24,0,0,0,0-.34l0,0,.14,0a.24.24,0,0,0,.11-.4L31.82,26l.05,0s0,0,0-.06a.58.58,0,0,0,.41-.18.25.25,0,0,0,0-.33.91.91,0,0,0-.48-.3.21.21,0,0,0,.05-.15,1,1,0,0,0,.38,0,.24.24,0,0,0,.06-.44A2.82,2.82,0,0,1,32,24.3a.26.26,0,0,0,0-.21.8.8,0,0,0-.22-.26.27.27,0,0,0,0-.23l-.06-.07a.2.2,0,0,0,.09-.12.78.78,0,0,0,0-.26.37.37,0,0,0,.11,0,.22.22,0,0,0,.11-.27s0,0,0,0l.12,0a.24.24,0,0,0,.14-.35.56.56,0,0,0-.18-.22.27.27,0,0,0,0-.27c-.06-.1-.19-.22-.27-.34l.09,0a.24.24,0,0,0,.17-.3,1.19,1.19,0,0,0-.5-.52c-.25-.17-.49.25-.24.42l.06,0a.3.3,0,0,0-.13.2.65.65,0,0,0,.17.46.21.21,0,0,0-.08.3,1.06,1.06,0,0,0,.15.15.23.23,0,0,0-.14.34l0,.06a.22.22,0,0,0-.15.27.07.07,0,0,1,0,0l-.15,0a.24.24,0,0,0-.17.41l.07.06a.21.21,0,0,0,0,.33.48.48,0,0,0,.11.09.25.25,0,0,0-.07.37.82.82,0,0,0-.41,0,.27.27,0,0,0-.08.44h0l-.17.3s-.05,0-.06,0a2.29,2.29,0,0,0-.52,1.6.18.18,0,0,0,.07.08s0,.09,0,.13a6.35,6.35,0,0,0-.23,1,.79.79,0,0,0-.16.1.24.24,0,0,0,0,.38l0,0a.11.11,0,0,0,0,.05h-.07a.24.24,0,0,0-.14.42.23.23,0,0,0-.12.15c-.05.13-.09.27-.13.4a.22.22,0,0,0-.07.16A1.82,1.82,0,0,0,29,29.91Zm2.37-4.53-.42-.1v-.05A2.86,2.86,0,0,0,31.34,25.38Zm-1.76,4.68s0,0,0,0h0Zm.43.65h0Zm.51-1.63L30.27,29Z"/><path class="cls-6" d="M38.51,23.54a.23.23,0,0,1-.06-.37l0,0h0l.09-.06a.31.31,0,0,1,0-.23c0-.07.1-.12.15-.19a.22.22,0,0,1-.11-.33.9.9,0,0,1,.19-.2.22.22,0,0,1,.06-.2l.07-.06s0-.05,0-.09a.28.28,0,0,1,0-.13.27.27,0,0,1,0-.16s0,0,0,0a.21.21,0,0,1,0-.26,1.22,1.22,0,0,1,.36-.39c.22-.14.42.13.33.32a.19.19,0,0,1,0,.13.22.22,0,0,1,0,.38h0a.24.24,0,0,1,0,.23.22.22,0,0,1,.06.23.24.24,0,0,1,0,.36,1.13,1.13,0,0,0-.18.12,3.38,3.38,0,0,0,.54-.09c.3-.06.43.38.13.46L40,23a.33.33,0,0,1,0,.14h.14c.27,0,.34.41.07.47a2.29,2.29,0,0,0-1.46.87.24.24,0,0,1-.44-.19.24.24,0,0,1-.06-.22A1.23,1.23,0,0,1,38.51,23.54Z"/></g></g></svg>