<svg xmlns="http://www.w3.org/2000/svg" viewBox="0 0 47.15 33.06"><defs><style>.cls-1{fill:#d09971;}.cls-2{fill:#6b1e1e;}.cls-3{fill:#59c1d7;}.cls-4{fill:#3b818f;}.cls-5{fill:#faed62;}.cls-6{fill:#cbc479;}.cls-7{fill:#ededed;}.cls-8{fill:#cecece;}.cls-9{fill:#e52823;}.cls-10{fill:#9f2224;}.cls-11{fill:#3c58a4;}.cls-12{fill:#2d3687;}.cls-13{fill:#00a97c;}.cls-14{fill:#04684c;}</style></defs><g id="Layer_2" data-name="Layer 2"><g id="Card"><path class="cls-1" d="M41.52,23.57c-.21.35,1.52-.57,2.25-1.8s2.31-2.88,2.43-3.34,0-1.29.53-1.58.19,2-.65,3.1a16.14,16.14,0,0,1-3.45,3.82A46.75,46.75,0,0,0,38.71,27a52.41,52.41,0,0,0-4.89,2c-.32.32-4.2.84-4.53,1.13s-4.57.38-5.69.82-4.23,1-5.42,1.32-2.71.76-2.78.37.13-.65.94-1A40.55,40.55,0,0,1,21,30.4c.82-.12,4-.54,5.25-.79l2.63-.53,4.17-.84c.68-.12,3.36-1.31,4-1.49A42.7,42.7,0,0,0,41.52,23.57Z"/><path class="cls-2" d="M28.69,29c-3.38.62-6.78,1.14-10.15,1.79a5.79,5.79,0,0,0-3,1.26c-.46.45-.58,1,.25,1a2.36,2.36,0,0,0,.79-.15A64.73,64.73,0,0,1,29,30.42c.18,0,.41-.14.34-.29S29.1,30,29,30a69.78,69.78,0,0,0-12.94,2.58.78.78,0,0,1-.37,0,.26.26,0,0,1-.2-.26c0-.13.16-.19.28-.24,1-.38,2.08-.75,3.15-1,3.26-.89,6.71-.94,10-1.82a.26.26,0,0,0,.19-.12C29.13,29,28.87,28.94,28.69,29Z"/><path class="cls-2" d="M33.86,28.22a.2.2,0,0,0-.11-.38,2.27,2.27,0,0,1-.69.12c-.23,0-.39.22-.18.37A2.2,2.2,0,0,0,33.86,28.22Z"/><path class="cls-2" d="M34.17,28.67l-.8.28a.2.2,0,1,0,.13.37c.28-.09.55-.18.82-.29a.19.19,0,0,0,.11-.25A.22.22,0,0,0,34.17,28.67Z"/><path class="cls-2" d="M46.74,16.45a.52.52,0,0,0-.48.29,1.79,1.79,0,0,0-.15.56,7.83,7.83,0,0,1-1.61,3.25,19.11,19.11,0,0,1-1.86,2.06c-.36.34-.76.63-1.12,1s-.2.6.25.3a13.39,13.39,0,0,0,2.61-2.6A7.73,7.73,0,0,0,46.32,18a2,2,0,0,1,.41-1.12A6.51,6.51,0,0,1,45.23,21,17.93,17.93,0,0,1,42,24.06a.51.51,0,0,0-.21.25.18.18,0,0,0,.14.25h0a.24.24,0,0,0,.12-.07,18.86,18.86,0,0,0,3.35-3.08,7.47,7.47,0,0,0,1.74-4.14C47.16,16.94,47.07,16.5,46.74,16.45Z"/><path class="cls-3" d="M34.17,28.67a1.7,1.7,0,0,0,2.45.94,2.51,2.51,0,0,0,.68-4,1.83,1.83,0,0,0-2.87.19A2.36,2.36,0,0,0,34.17,28.67Z"/><path class="cls-4" d="M34.8,25.23A2.63,2.63,0,0,1,36.51,27a5.45,5.45,0,0,1-.15,2.86,2.42,2.42,0,0,0,1.39-3.3C37,24.57,34.8,25.23,34.8,25.23Z"/><path class="cls-2" d="M37.77,26l-.09-.17a4.4,4.4,0,0,0-.37-.38,1.07,1.07,0,0,0-.5-.3,2.41,2.41,0,0,0-.91-.32,2.25,2.25,0,0,0-2.22,1.45,1,1,0,0,0-.1.66,5.17,5.17,0,0,0,0,.68,2.67,2.67,0,0,0,1.14,2.09,2,2,0,0,0,.79.25,1.84,1.84,0,0,0,.7,0,6.86,6.86,0,0,0,1.16-.64,3,3,0,0,0,.82-2.14C38.23,27,38.08,26.09,37.77,26Zm-.36,2.67a2,2,0,0,1-1.37.9c-1.87.26-2.74-2.52-1.61-3.75a2,2,0,0,1,2.47-.22A2.28,2.28,0,0,1,37.71,28,2.26,2.26,0,0,1,37.41,28.68Z"/><path class="cls-5" d="M29.46,30.21a1.72,1.72,0,0,0,2.46.94,2.52,2.52,0,0,0,.67-4,1.83,1.83,0,0,0-2.87.19A2.38,2.38,0,0,0,29.46,30.21Z"/><path class="cls-6" d="M30.09,26.77a2.64,2.64,0,0,1,1.72,1.77,5.47,5.47,0,0,1-.16,2.85,2.41,2.41,0,0,0,1.4-3.29C32.31,26.11,30.09,26.77,30.09,26.77Z"/><path class="cls-2" d="M33.06,27.55a.91.91,0,0,0-.09-.17c-.09-.15-.25-.24-.36-.38a1.17,1.17,0,0,0-.51-.31,2.35,2.35,0,0,0-.9-.31A2.26,2.26,0,0,0,29,27.83a1.16,1.16,0,0,0-.1.65c0,.23,0,.46,0,.69A2.66,2.66,0,0,0,30,31.25a1.94,1.94,0,0,0,.79.26,2.05,2.05,0,0,0,.7,0,6.53,6.53,0,0,0,1.15-.65,3,3,0,0,0,.83-2.14C33.53,28.53,33.38,27.62,33.06,27.55Zm-.36,2.67a2,2,0,0,1-1.37.9c-1.87.26-2.74-2.53-1.61-3.75a1.94,1.94,0,0,1,2.47-.22A2.27,2.27,0,0,1,33,29.56,2.34,2.34,0,0,1,32.7,30.22Z"/><path class="cls-3" d="M23.3,31.69a1.72,1.72,0,0,0,2.46.93,2.52,2.52,0,0,0,.67-4,1.83,1.83,0,0,0-2.87.19A2.39,2.39,0,0,0,23.3,31.69Z"/><path class="cls-4" d="M23.93,28.25A2.63,2.63,0,0,1,25.65,30a5.49,5.49,0,0,1-.16,2.85,2.42,2.42,0,0,0,1.4-3.3C26.15,27.58,23.93,28.25,23.93,28.25Z"/><path class="cls-2" d="M26.9,29l-.09-.18c-.09-.15-.25-.24-.36-.37a1.17,1.17,0,0,0-.51-.31,2.2,2.2,0,0,0-.9-.31,2.25,2.25,0,0,0-2.23,1.44,1.2,1.2,0,0,0-.1.66c0,.23,0,.46,0,.69a2.68,2.68,0,0,0,1.14,2.08,2,2,0,0,0,.79.25,1.89,1.89,0,0,0,.71,0,5.9,5.9,0,0,0,1.15-.64,3,3,0,0,0,.83-2.14C27.37,30,27.22,29.1,26.9,29Zm-.36,2.66a2,2,0,0,1-1.37.9c-1.87.26-2.74-2.52-1.61-3.75A2,2,0,0,1,26,28.63a2.22,2.22,0,0,1,.51,3.06Z"/><path class="cls-5" d="M37.77,25.43a9.74,9.74,0,0,0,.14,1.46,2,2,0,0,0,2.75,1.26c1.7-.88,2.11-3.55.65-4.23a2.5,2.5,0,0,0-2.91.56A1.41,1.41,0,0,0,37.77,25.43Z"/><path class="cls-6" d="M39.11,23.88s1.49.61,1.54,1.83a10.72,10.72,0,0,1-.42,2.83s2.67-1.76,2-3.58C41.49,22.8,39.11,23.88,39.11,23.88Z"/><path class="cls-2" d="M42,24.27a2.45,2.45,0,0,0-2.27-.81,3.05,3.05,0,0,0-2.26,2.36.53.53,0,0,0,0,.33c.05.1.2.16.28.08a.26.26,0,0,0,.07-.17,2.8,2.8,0,0,1,1-1.73,2.18,2.18,0,0,1,1.9-.46A1.78,1.78,0,0,1,42,25.25a2.58,2.58,0,0,1-.32,1.53,2.7,2.7,0,0,1-.78,1,1.76,1.76,0,0,1-2.77-1,.38.38,0,0,0-.1-.21c-.12-.09-.3,0-.34.16-.17.65.87,1.46,1.37,1.64a2.18,2.18,0,0,0,1.75-.12A3.13,3.13,0,0,0,42,27.08a2.88,2.88,0,0,0,.4-2A1.91,1.91,0,0,0,42,24.27Z"/><path class="cls-3" d="M41.7,22.84a8.74,8.74,0,0,0,1,1.06,2,2,0,0,0,2.94-.71c.78-1.74-.54-4.1-2.11-3.73a2.5,2.5,0,0,0-1.94,2.25A1.4,1.4,0,0,0,41.7,22.84Z"/><path class="cls-4" d="M41.79,20.79a2.5,2.5,0,0,1,2.35.49,11.05,11.05,0,0,1,1.42,2.47s1-3-.63-4.05C43,18.47,41.79,20.79,41.79,20.79Z"/><path class="cls-2" d="M44.29,19.32a2.45,2.45,0,0,0-2.28.76,3.05,3.05,0,0,0-.31,3.26.52.52,0,0,0,.21.25.19.19,0,0,0,.27-.11.26.26,0,0,0,0-.17,2.86,2.86,0,0,1-.31-2A2.17,2.17,0,0,1,43,19.81a1.8,1.8,0,0,1,1.9.26,2.7,2.7,0,0,1,.7,1.41,2.85,2.85,0,0,1,0,1.3,1.77,1.77,0,0,1-2.78,1,.36.36,0,0,0-.21-.11c-.14,0-.22.2-.16.34.27.61,1.58.6,2.09.44a2.15,2.15,0,0,0,1.3-1.19,3.07,3.07,0,0,0,.15-1.7,2.93,2.93,0,0,0-.92-1.81A1.87,1.87,0,0,0,44.29,19.32Z"/><path class="cls-7" d="M20.93,24.33C21.05,24.24,29.2,18.2,30,18a28,28,0,0,0,5.42-4.67c.32-.67,1.2-3,1.2-3L18.91.25.32,9.47s2.35,4.45,4.62,6,9.84,7.76,9.84,7.76a13.83,13.83,0,0,1,3.68.33C19.88,24,20.93,24.33,20.93,24.33Z"/><polygon class="cls-8" points="18.91 0.25 18.92 6.3 18.57 22.28 36.6 10.24 18.91 0.25"/><path class="cls-9" d="M13.69,7.26,13.33,5.4l-1.56-.56L6.56,7.62s0,1.14,0,1a12.36,12.36,0,0,1,1.74.82,2.26,2.26,0,0,1,1.09,1.2Z"/><path class="cls-10" d="M13.79,6.77c0-.39,0-.79-.07-1.18a.74.74,0,0,0-.11-.41A.86.86,0,0,0,13.25,5a3.28,3.28,0,0,0-1.32-.32,3.19,3.19,0,0,0-1.3.41c-1.28.63-2.56,1.3-3.81,2-.74.41-.65.84-.53,1.58a.4.4,0,0,0,.17.33c.19.11.4-.16.39-.38a3.87,3.87,0,0,1-.09-.66,10.33,10.33,0,0,1,1.76-.06.34.34,0,0,1,.26.08.32.32,0,0,1,.06.24l.09,2.68a.88.88,0,0,0,.08.42.3.3,0,0,0,.37.13c.13-.08.14-.27.13-.42L9.37,8.76a1.54,1.54,0,0,1,.19-1.08,1.67,1.67,0,0,1,.58-.4q1.5-.71,3-1.38l.14.94c0,.24.21.54.41.42a.37.37,0,0,0,.11-.32A1,1,0,0,1,13.79,6.77Zm-3.45-.18L8.93,7.3a3.53,3.53,0,0,1-.46,0h-1a47.81,47.81,0,0,1,4.36-2.17l1,.3C12,5.84,11.16,6.19,10.34,6.59Z"/><path class="cls-11" d="M18.73,15.16a3.37,3.37,0,0,0-.51-1.4,4.78,4.78,0,0,0-1.33-1.11,2.18,2.18,0,0,0,0-1.89A4,4,0,0,0,15,8.43a5.27,5.27,0,0,1-1.76-1.59c-.41-.41-1.34.54-2.27,1.59S9.51,11,9.87,10.73a6,6,0,0,1,1.9.22c.81.28,1.26,2.24,1.26,2.24l.73-.31.78.23,3.93,3Z"/><path class="cls-9" d="M27.93,15.73s-.22-2-1.59-1.8-1.65.66-1.73.91l-.3.89s-1.17-.55-1-1.13.16-1.31.83-1.69a1.92,1.92,0,0,0,1.3-2c-.06-1.18-.56-1.82-2.14-2.36s-1.83-.16-1.83-.16-.86-2.2-3-1.88a3.67,3.67,0,0,0-2.79,2.28,17,17,0,0,1,1.22,1.28,2,2,0,0,1,.17,1.21L17,12.9a4.17,4.17,0,0,1,1.5,1.19,3.7,3.7,0,0,1,.41,1.7s.71,1.09,1,1,.67.78.67.78a10.35,10.35,0,0,1,1.18,1.71c.15.47.4.38.4.38Z"/><path class="cls-10" d="M28.4,15.47a2.12,2.12,0,0,0-4.17-.24c-.51-.07-.65-.8-.4-1.25a5.91,5.91,0,0,1,1.08-1.1,2.73,2.73,0,0,0,.43-3.11,3.51,3.51,0,0,0-3.13-1.63.91.91,0,0,1-.52-.09,1,1,0,0,1-.25-.31A3.36,3.36,0,0,0,17.93,6.3a3.32,3.32,0,0,0-1.85,1.26,3.84,3.84,0,0,0-.51,1c0,.14-.26.85.22.48.13-.1.15,0,.2-.2a2.81,2.81,0,0,1,4.09-1.72,1.81,1.81,0,0,1,1,1.59c0,.44-.45.91-.85.72.43-.44.88-1.09.54-1.6A.85.85,0,0,0,19.42,8a1.34,1.34,0,0,0,.36,1.51,4.39,4.39,0,0,0-2.72,1.8c-.09.13-.17.32-.07.44s.46,0,.61-.23A3.9,3.9,0,0,1,20.3,10a3.13,3.13,0,0,1,2.79,1.27,2.6,2.6,0,0,1-.06,3,2,2,0,0,0-2.56.51,2.9,2.9,0,0,0-.31,2.74,6,6,0,0,0,1.69,2.29.69.69,0,0,0,.32.2c.13,0,.28-.07.28-.19a.31.31,0,0,0-.11-.22,11.48,11.48,0,0,1-1.42-1.77,2.76,2.76,0,0,1-.32-2.18,1.58,1.58,0,0,1,1.77-1.07.53.53,0,0,1,.26.13.46.46,0,0,1-.1.68.63.63,0,0,1-.73-.11c-.11-.11-.22-.27-.38-.25s-.25.43-.07.62a1.11,1.11,0,0,0,1.14.34,1.14,1.14,0,0,0,.8-.88,6.1,6.1,0,0,1,1.34,2.33c0,.15.11.34.27.38s.37-.19.34-.4a1.54,1.54,0,0,0-.26-.55,1.84,1.84,0,0,1,.51-2.44,1.55,1.55,0,0,1,2.25.8,1.3,1.3,0,0,0,.19.52c.12.14.4.16.46,0a.32.32,0,0,0,0-.14A.41.41,0,0,1,28.4,15.47Zm-4.83-4.58a4.7,4.7,0,0,0-1-.93,3.75,3.75,0,0,0-1.13-.42,2.09,2.09,0,0,0,.2-.74,2.63,2.63,0,0,1,2.09.2c.64.41,1.38.95,1.36,1.79a2.1,2.1,0,0,1-.61,1.77,3.06,3.06,0,0,1-.37.35A2.48,2.48,0,0,0,24,12,4,4,0,0,0,23.57,10.89Z"/><path class="cls-10" d="M27.14,15a.29.29,0,0,0-.41.16.46.46,0,0,1-.39.12,1,1,0,0,1-.38-.07.28.28,0,0,0-.34-.32c-.3.1-.26.54,0,.71a1,1,0,0,0,.69.22,1,1,0,0,0,.57-.08C27.11,15.59,27.48,15.18,27.14,15Z"/><path class="cls-10" d="M20,11.92c-.25-.25-.71,0-.92.24-.46.45,0,1.47.56,1.62C21.1,14.05,21.85,11.88,20,11.92Z"/><path class="cls-12" d="M17.77,12.78l-.17-.12a.77.77,0,0,1-.33-.34.81.81,0,0,1,.1-.52,2.44,2.44,0,0,0-.79-2.44c-.64-.64-1.45-1.09-2.09-1.73-.43-.42-.87-1-1.47-1a1.59,1.59,0,0,0-.72.22,5.3,5.3,0,0,0-2,1.77,5.53,5.53,0,0,0-.62,1.24c-.05.16-.39,1.22.15.82a.83.83,0,0,0,.23-.42,5.13,5.13,0,0,1,2.45-2.92c.29-.15.76-.22.87.09a.64.64,0,0,1-.05.41,7.85,7.85,0,0,1-1.87,2.85c-.11.11-.24.26-.19.41s.48.1.66-.09A9.25,9.25,0,0,0,14,8a18.7,18.7,0,0,1,2.37,2,1.83,1.83,0,0,1,.56.82,1.81,1.81,0,0,1-.1,1.05,2.14,2.14,0,0,1-.9,1.34c-.18.09-.42.2-.39.4s.39.21.59.1A2.88,2.88,0,0,0,17,12.9a2.63,2.63,0,0,1,1.4,2.51,1,1,0,0,0,0,.46c.06.14.47,0,.49-.08A3.17,3.17,0,0,0,17.77,12.78Z"/><path class="cls-12" d="M12.13,9.48a2.43,2.43,0,0,0,.52-1.33.26.26,0,0,0-.25-.29.28.28,0,0,0-.3.3,3.23,3.23,0,0,1-.25.8c-.16.16-.23.38-.39.53s-.77.28-.51.66.52,0,.74-.15A1.18,1.18,0,0,0,12.13,9.48Z"/><path class="cls-5" d="M9.87,10.73c-.86.53-1.59.93-1.85,1.81a4.4,4.4,0,0,0-.32,1.9c.08.45.21,1.05.21,1.05l2.42,1.34L13,13.19s-.11-2.35-1.53-2.45A5.1,5.1,0,0,0,9.87,10.73Z"/><path class="cls-5" d="M3.62,11.79s.86-3,2.67-3.18,2.31.51,2.61,1S9.51,11,9.51,11l-1.6,4.52Z"/><path class="cls-6" d="M13.18,12.5a2.13,2.13,0,0,0-1.08-1.64,3,3,0,0,0-2.47-.09,2.75,2.75,0,0,0-1.91-2.2,3.31,3.31,0,0,0-2.91.53,3.92,3.92,0,0,0-1.19,1.43c-.08.15-.67,1.72,0,1.26a.8.8,0,0,0,.24-.44,3.49,3.49,0,0,1,1.77-2.1,2.66,2.66,0,0,1,2.67.24,2,2,0,0,1,.56.67,1.63,1.63,0,0,1,.13.9,3.75,3.75,0,0,0-1.42,4.09c0,.17.17.37.34.34s.2-.36.15-.58A3.19,3.19,0,0,1,9.6,11.39a2.45,2.45,0,0,1,1.89-.21,1.69,1.69,0,0,1,1.15,1.45,1.18,1.18,0,0,0,0,.42.26.26,0,0,0,.35.14.33.33,0,0,0,.11-.2A1.63,1.63,0,0,0,13.18,12.5Z"/><polygon class="cls-13" points="16.73 21.4 20.21 17.05 17.11 15.15 14.06 12.27 10.33 16.83 16.73 21.4"/><path class="cls-14" d="M20.11,16.78a1.39,1.39,0,0,0-.21-.21c-1.88-1.52-3.83-3-5.84-4.3a.45.45,0,0,0-.34-.12.56.56,0,0,0-.26.18c-.7.81-1.38,1.65-2,2.52a8.26,8.26,0,0,0-1,1.42c-.23.53.05.75.45.23l2.66-3.45a.43.43,0,0,1,.21-.17A.38.38,0,0,1,14,13a17.07,17.07,0,0,1,2.63,1.85L13.53,19a.38.38,0,0,0-.12.34.28.28,0,0,0,.36.12.67.67,0,0,0,.3-.28l3-4a26,26,0,0,1,2.5,1.93l-2.8,3.79c-.11.16-.22.4-.08.53s.41,0,.54-.22q1.41-1.89,2.79-3.8a.71.71,0,0,0,.15-.33A.45.45,0,0,0,20.11,16.78Z"/><path class="cls-2" d="M36.94,10.34c0-.25-.29-.41-.5-.54q-8.29-5-16.91-9.53A2.12,2.12,0,0,0,18.78,0a2.08,2.08,0,0,0-1,.3L1,8.74C.42,9-.12,9.32,0,9.94A6.06,6.06,0,0,0,1,11.6a18.79,18.79,0,0,0,2.46,3,50.4,50.4,0,0,0,6.08,4.91C11.45,20.83,17,24.63,18.93,26c2.78-1.86,7.06-5.07,9.84-6.92,3.26-2.19,6.71-4.6,8.09-8.28a1,1,0,0,0,.09-.4S36.94,10.36,36.94,10.34ZM18.7,17.59c-5.27.27-17.88-7.8-18.11-8l.06,0a7.32,7.32,0,0,0,1.68-.89A27,27,0,0,0,5.21,7.18c4.42-2.26,8.88-4.4,13.33-6.6,0,.51.05,1,.11,1.53,0,.9,0,1.86,0,2.77.06.33-.16,1.34.24,1.42a.31.31,0,0,0,.31-.47c0-1.32,0-2.6,0-3.93a8.22,8.22,0,0,1-.1-1.3c2,1.21,4.09,2.22,6.14,3.33,2.29,1.33,4.62,2.6,6.93,3.91.76.45,1.54,1,2.33,1.4.61.34,1.14.81,1.73,1.17C33.29,12,28.9,17.06,18.7,17.59Z"/></g></g></svg>