<svg xmlns="http://www.w3.org/2000/svg" viewBox="0 0 74.96 69.13"><defs><style>.cls-1{fill:#b1dde3;}.cls-2{fill:#eb5d45;}.cls-3{fill:#ededed;}.cls-4{fill:#aaa;}.cls-5{fill:#e52823;}.cls-6{fill:#6fadb2;}.cls-7{fill:#e9a061;}.cls-8{fill:#b27e4c;}.cls-9{fill:none;}.cls-10{fill:#3c58a4;}.cls-11{fill:#92443f;}.cls-12{fill:#803124;}.cls-13{fill:#fcd4ac;}.cls-14{fill:#d09971;}.cls-15{fill:#6b1e1e;}.cls-16{fill:#ffeec7;}.cls-17{fill:#e5c285;}</style></defs><g id="Layer_2" data-name="Layer 2"><g id="Card"><path class="cls-1" d="M25.87,22a19.76,19.76,0,0,0-2.54.5,5.07,5.07,0,0,0-2.48,1.57c-.35.58-.09.91-.61,1.79a5.91,5.91,0,0,1-1.32,2c-.69.56-1.75,1.05-1.84,1.89s.27,1.21.22,1.6A1.72,1.72,0,0,1,17,32a9.18,9.18,0,0,0-2.26,1.64,2.08,2.08,0,0,0-.48,1.38,1.15,1.15,0,0,1,.05.34s-2,.67-2.39,1.33A3.58,3.58,0,0,0,11.48,38a6.28,6.28,0,0,0-.25,2c.11.76.38,1.52.4,2.11s0,2.72.58,3.39.85,1.08,1.4,1a4.82,4.82,0,0,1,1.38.16s.18.35,1.17.45a18.24,18.24,0,0,0,3.35-.33,6.17,6.17,0,0,1-.1,1.61,17.18,17.18,0,0,0-.2,2.44s3-.39,4.43-.52a18.86,18.86,0,0,1,3.37.14s11.28-.19,13.84-.54,8.67-.41,9.71-.44,3-.07,3.68-.1l1.59-.06-.28-1.92a1.89,1.89,0,0,0,1.23-.06c.55-.27.72.14,1.21-.11a.59.59,0,0,1,.77.11l.63-.22A7,7,0,0,0,61.16,45a10,10,0,0,0,1.18-3.4c.16-1.59.29-4.66-.61-5.86a6,6,0,0,0-2.91-2.23c-1.3-.56-.83-2.11-.88-2.73a2.54,2.54,0,0,0-1.17-2,11.24,11.24,0,0,1-2.43-2.21c-.64-.78-3.15-4.79-4.12-5.66a4.89,4.89,0,0,0-2.72-1.4,5.41,5.41,0,0,0-2.09.38s-.06.63-.32.83a3,3,0,0,1-.55.31s.47,2.33,0,3.36-.75,2-1.42,2.51a13.7,13.7,0,0,0-2.2,1.83,14,14,0,0,1-2.22,1.68l-1.94,0S30.4,28.3,29.4,27.37a13,13,0,0,1-2.31-3c.17,0-.45-1.6-.41-1.65s-.17-.05-.53-.25A.47.47,0,0,1,25.87,22Z"/><path class="cls-2" d="M41.49,33.65s-3-2.45-6.16-1.79-4.41,1-5.17,2a2.9,2.9,0,0,0-.71,2.2c.05.48.11,2.52.11,2.52s4,.55,5.33.23,4.65-.07,5.57-.39,1.84-.7,1.84-.7ZM36,35.06c-.87.21-1.25-.58-.75-.78C36.21,33.9,36.86,34.85,36,35.06Z"/><path class="cls-3" d="M41.56,45.38s.41-.1.49-1.18S42,38.07,42,38.07s-2.21.36-3.1.49-6.1.3-6.9.24a18.48,18.48,0,0,1-2.38-.45s-.11,3.84,0,4.88.2,3.71.2,3.71a3.23,3.23,0,0,1,.87-.11c.23.05.23.14.45.07a8,8,0,0,1,.83-.34,1.9,1.9,0,0,1,.63.06,1.47,1.47,0,0,1,.78-.4,8.23,8.23,0,0,1,1,0,1.91,1.91,0,0,1,.78-.34,5.37,5.37,0,0,1,1.1.09,2.14,2.14,0,0,1,.86-.42,3.4,3.4,0,0,1,1,.08,4,4,0,0,1,.94-.25,3.12,3.12,0,0,1,1,.09l.89-.16Z"/><path class="cls-4" d="M42.25,41.71c0-1.14,0-2.28-.07-3.42a.21.21,0,0,0-.2-.22.26.26,0,0,0-.23-.31h-.17a.22.22,0,0,0-.19.11,10.54,10.54,0,0,1-2.77.49c-1,.08-2,.07-3,.17a32,32,0,0,1-5.87-.26.25.25,0,0,0-.18.07c-.15-.11-.41-.05-.39.18.06.85.07,1.7.11,2.54s.13,1.69.13,2.54,0,1.68,0,2.52c0,.27,0,.81.21,1h0a.25.25,0,0,0,.39.09c.22-.21.68,0,1,0s.61-.36,1-.34a1.73,1.73,0,0,0,.75,0,1.34,1.34,0,0,0,.28-.18h0a.25.25,0,0,0,.16-.08.85.85,0,0,1,.62,0,1.38,1.38,0,0,0,.78,0c.37-.12.59-.33,1-.26a2,2,0,0,0,.69.1c.3-.05.49-.3.76-.41s.8.14,1.2.09.63-.31,1-.27.44.18.73.17a2.64,2.64,0,0,0,.74-.22c.4-.11.76.34,1.1-.16a2,2,0,0,0,.13-.25.22.22,0,0,0,.13-.2c0-.57.12-1.13.15-1.7S42.26,42.27,42.25,41.71ZM34.51,46h0s0,0,0,0ZM30,46.72s0,0,0,0l0,0Zm.06,0a.22.22,0,0,1,0-.1c0-.1,0-.2,0-.3,0-.29,0-.57,0-.86,0-.77,0-1.54,0-2.32s-.11-1.46-.14-2.2,0-1.44-.09-2.16c0,0,0,0,.06,0l1,.1a.23.23,0,0,0,.05.15c.09.1,0,.5,0,.64,0,.35,0,.7.05,1,0,.66,0,1.33,0,2s.07,1.33,0,2c0,.35-.06.69-.08,1a4.5,4.5,0,0,1,0,.9v0A2.88,2.88,0,0,0,30,46.69Zm2.65-.32c-.23.1-.54,0-.78,0a1.23,1.23,0,0,0-.54.18c0-.19,0-.39,0-.59,0-.41.06-.8.08-1.2,0-.77,0-1.54-.05-2.31s0-1.53-.05-2.29a4.9,4.9,0,0,0-.08-1.19l1.37.11c0,1.26.11,2.51.15,3.77,0,.63,0,1.26,0,1.89s0,1,0,1.56ZM34,46.05a2.9,2.9,0,0,0-.72,0c0-.48,0-1,0-1.44,0-.63,0-1.27-.05-1.9,0-1.2-.13-2.4-.14-3.6.37,0,.73,0,1.09,0a.17.17,0,0,0-.05.14c.06,1.31.11,2.61.15,3.92,0,.62,0,1.25.06,1.87,0,.19,0,.39,0,.58s0,.19,0,.28,0,.1,0,.13A1,1,0,0,1,34,46.05Zm1.58-.34a1.14,1.14,0,0,0-.64.1c0-.14,0-.28-.06-.41-.06-.68-.06-1.37-.08-2.06,0-1.37-.09-2.75-.15-4.12a.31.31,0,0,0-.07-.14c.42,0,.84,0,1.27-.08,0,1.16.14,2.31.17,3.47,0,.57,0,1.14,0,1.71a14.67,14.67,0,0,0,.1,1.62A2.93,2.93,0,0,1,35.62,45.71Zm1.65-.34a1.52,1.52,0,0,0-.58.26c-.08-.51-.06-1.07-.09-1.58s0-1.14,0-1.71c0-1.13-.16-2.25-.17-3.38.43,0,.86-.05,1.3-.06,0,1.16.05,2.32.1,3.48A29.69,29.69,0,0,0,38,45.51,2.29,2.29,0,0,0,37.27,45.37Zm1.78-.15a3.16,3.16,0,0,0-.6.25,28.82,28.82,0,0,1-.17-3.22c0-1.13-.1-2.25-.09-3.37.31,0,.63,0,1-.08,0,1.14,0,2.27.13,3.4,0,.57.12,1.14.17,1.71s.06,1,.14,1.42A1,1,0,0,0,39.05,45.22Zm1.61,0c-.24.07-.39.17-.57.21-.11-.55-.11-1.11-.17-1.66s-.12-1.1-.16-1.65c-.09-1.11-.12-2.22-.12-3.33l.75-.1c.08,1.17.27,2.32.35,3.49.08,1,.11,2,.25,3A.47.47,0,0,0,40.66,45.17Zm1.1-1.78c0,.37-.06.73-.09,1.1a.27.27,0,0,0-.08.47c-.08-.06-.08.09-.11.17-.15-1-.17-2.09-.25-3.13s-.27-2.25-.34-3.39c0,0,0,0,0-.07a4.42,4.42,0,0,0,.83-.24c0,1.14,0,2.27.07,3.41C41.76,42.27,41.78,42.83,41.76,43.39Z"/><path class="cls-5" d="M42.3,34.47c-.11-.52-.83-1.06-1.22-1.37a8.06,8.06,0,0,0-1.9-1A9.22,9.22,0,0,0,34,31.66,7.54,7.54,0,0,0,29.68,34a1.82,1.82,0,0,0-.54,1.53,15.2,15.2,0,0,1,.09,2.86c0,.32.44.45.49.13a10.76,10.76,0,0,0,0-1.88c0-.68-.22-1.56.21-2.12a6.52,6.52,0,0,1,3.83-2.29,9.85,9.85,0,0,1,4.61.09,7.8,7.8,0,0,1,2.05.9,4.78,4.78,0,0,1,.84.66,2.89,2.89,0,0,1,.55.64.45.45,0,0,0-.06.14,13.38,13.38,0,0,0,0,1.79,6.46,6.46,0,0,1,0,.88,5.86,5.86,0,0,0,0,.73.25.25,0,0,0,.17.43.39.39,0,0,0,.21,0,.25.25,0,0,0,.12-.22,5.06,5.06,0,0,1,0-.87,5.53,5.53,0,0,0,0-.91,12.78,12.78,0,0,1,0-1.75A.24.24,0,0,0,42.3,34.47Z"/><path class="cls-6" d="M22.44,30.93c-.12,0-.25.07-.37.12a.24.24,0,0,0-.12.38.32.32,0,0,0-.08.21s0,.05,0,.07a.5.5,0,0,0-.14.15.26.26,0,0,0,0,.28.34.34,0,0,0,0,.18s0,0,0,0a.47.47,0,0,0-.22.34,1,1,0,0,0-.71,0,.25.25,0,0,0-.15.36.52.52,0,0,0,.18.18h-.07a.25.25,0,0,0-.15.36l0,0a.26.26,0,0,0-.09.18.63.63,0,0,0,.17.42h0a.76.76,0,0,0,.15.5l0,.25a.26.26,0,0,0,.38.22,1.61,1.61,0,0,0,.35-.5,1.18,1.18,0,0,0,.11-.35.22.22,0,0,0,.19-.17s0,0,0-.06a.18.18,0,0,0,.11-.1.61.61,0,0,0,.06-.25.24.24,0,0,0,.16-.22l0,0a.87.87,0,0,0,0-.5.43.43,0,0,0,.13-.17l.08,0a.25.25,0,0,0,0-.43l-.08,0v0l.06-.06.06-.06h0a.24.24,0,0,0,0-.46.29.29,0,0,0,.16-.36.05.05,0,0,0,0,0C22.83,31.19,22.71,30.84,22.44,30.93Zm-.47.72c0-.09.13,0,.06,0Z"/><path class="cls-6" d="M21,35.49a6.41,6.41,0,0,0-1.5-.76.25.25,0,0,0-.28.37,1.78,1.78,0,0,0,.54.48,1.23,1.23,0,0,1,.31.37s0,0,0,0h0a.26.26,0,0,0-.42.11.92.92,0,0,0,0,.29.76.76,0,0,0-.43-.31.25.25,0,0,0-.31.24c0,.32.3.62.5.83l0,.06a2.17,2.17,0,0,0-.58-.41,1.19,1.19,0,0,0-.42-.28,3,3,0,0,0-1.37-.14.24.24,0,0,0-.12.44,6.58,6.58,0,0,0-.75.14A.62.62,0,0,0,16,37c-.14,0-.28.09-.43.11-.31.07-.18.55.14.49l.54-.13.28,0h.17a.26.26,0,0,0,.24.31.3.3,0,0,0,.19,0,2.05,2.05,0,0,1,.43-.09,3.59,3.59,0,0,1,.46,0c.19,0,.39.07.58.12a.67.67,0,0,1,.19.14.35.35,0,0,0,.08,0l-.21.06a4.82,4.82,0,0,0-1.68.32,3.64,3.64,0,0,0-.81.47,3.36,3.36,0,0,0-.64.61l0,0h0l0,0c-.16.25.19.47.4.3a8.61,8.61,0,0,1,.74-.58l.12-.08a3.61,3.61,0,0,0-.3.25,1.55,1.55,0,0,0-.62.91.25.25,0,0,0,.38.21l.11-.08a.25.25,0,0,0,.23-.1A5.82,5.82,0,0,1,18,39.06a.26.26,0,0,0,.07-.34l.34-.1a2.2,2.2,0,0,1,.36,0,6.51,6.51,0,0,0,.77,0,.21.21,0,0,0,.15-.15l.16,0c.13.06.25,0,.29-.17a.24.24,0,0,0,.27-.1,1.14,1.14,0,0,0,.1-.56h0a1.27,1.27,0,0,0,.05-.39h0a.28.28,0,0,0,.39-.22,1,1,0,0,0-.05-.41.43.43,0,0,0,0,0s0-.05,0-.08a.28.28,0,0,0,.14-.27,1.4,1.4,0,0,0-.09-.29A.26.26,0,0,0,21,35.49Zm-1.32,2,0,0a1.45,1.45,0,0,0,0,.28h0a1.33,1.33,0,0,0-.3-.06.21.21,0,0,0,.08-.11.27.27,0,0,0,.06-.27Z"/><path class="cls-6" d="M14.9,45c0-.43,0-.87-.07-1.3a.24.24,0,0,0-.39-.18,3.17,3.17,0,0,1,.24-1c.1-.23-.2-.55-.4-.3,0,0,0,0,0,.05h0a.06.06,0,0,1,0,0,2.46,2.46,0,0,0-.31.79,9,9,0,0,0-.22,1.15,8,8,0,0,0,.24,2.28.22.22,0,0,0,.26.17,1.15,1.15,0,0,0,.28.41.23.23,0,0,0,.3,0l0,.08c.08.2.42.26.48,0a4.23,4.23,0,0,0,0-1.28A1.43,1.43,0,0,0,14.9,45Z"/><path class="cls-7" d="M47.75,36.31s-1-2.46-2.42-2.76a8.14,8.14,0,0,0-3.08-.22c-.47.21-1.5.55-1.38.84a.86.86,0,0,1-.11.66s-1-.24-1.21.31a1,1,0,0,0,.1.89l4.54,1.31s-5.71-1.35-5.62-.82c.2,1.17,3.77,2.25,3.77,2.25a2.13,2.13,0,0,1-1.07.39c-1,0-2.24-.17-2.33.54-.12,1,2.55,1.18,2.87,1.31,2.91,1.18,4.27.91,4.27.91s4,3.85,4.61,4.3a6.29,6.29,0,0,0,1.66.72,1.18,1.18,0,0,1,.22-1.31c.58-.54,2.24-1.6,2.49-2.72s.06-4.06-1.76-4.86-1.85-1-2.21-.92A6.35,6.35,0,0,1,47.75,36.31Z"/><path class="cls-6" d="M19.17,48.08a16,16,0,0,0-.25,2.39h0l.19,0h.16s0,0,0,0h0c0-.38,0-.75.06-1.12s.13-.77.17-1.17,0-.75.09-1.12l-.45,0C19.18,47.39,19.22,47.88,19.17,48.08Z"/><path class="cls-6" d="M62.75,39a6.86,6.86,0,0,0-1-3.64c-.79-1.11-2.16-1.19-3.12-2-.54-.48-.46-1.11-.39-1.77a2.76,2.76,0,0,0-.5-1.94c-.78-1.16-2.05-1.89-3-2.9A33.69,33.69,0,0,1,52.1,23c-1.29-1.82-3.12-4-5.62-3.53-.22.05-.92.14-.7.48s.78,0,1,0a2.76,2.76,0,0,1,1.37,0,4.7,4.7,0,0,1,2.13,1.41,55.44,55.44,0,0,1,3.21,4.54A11.57,11.57,0,0,0,55.42,28a7.64,7.64,0,0,1,2,1.84c.82,1.37-.22,3.1,1.37,4.08A12.12,12.12,0,0,1,61,35.21a4.42,4.42,0,0,1,1.1,2.2,10.67,10.67,0,0,1-.07,5.41,10.89,10.89,0,0,1-.54,1.33A13.57,13.57,0,0,1,60.19,46c-.23.24-.4.52-.62.77s-.75.7-.75.06c0-.1.08-.32,0-.39s-.44.25-.52.34-.4.59-.62.34.07-.61.12-.78a12.23,12.23,0,0,0,.68-2.79,7.55,7.55,0,0,0-1.54-5c-.2-.27-.47-.68-.84-.71a9.22,9.22,0,0,0,1.17,2.1,7.33,7.33,0,0,1,.8,2.53,8,8,0,0,1-.32,2.71A3,3,0,0,1,57,46.89c-.32.27-1.29.79-1.62.34.39-.66,1.09-1.08,1.47-1.76a4.88,4.88,0,0,0,.54-2.4c0-1.59-.94-3-1.66-4.32a7,7,0,0,0-1-1.53c-.14-.15-1.21-1-1.31-.52,0,.19.37.39.49.47a3.7,3.7,0,0,1,.79.74,18.85,18.85,0,0,1,1.17,2,5.91,5.91,0,0,1,.9,4.36,3.88,3.88,0,0,1-2.18,2.88c-.61.23-1.92.52-2.15-.36-.35-1.32,1.78-2.12,2.38-3a4.52,4.52,0,0,0,0-4.34,5.32,5.32,0,0,0-3.48-2.52,5.36,5.36,0,0,1-1.15-.27,4,4,0,0,1,2.86-.87,6.68,6.68,0,0,1,1.8.49,1.92,1.92,0,0,1,1.11.82c1.32,1.69,3,3.14,3.12,5.43a4.89,4.89,0,0,1-.35,2.07,5,5,0,0,0-.66,1.94c1.09-.57,1.43-2.3,1.53-3.41a6.71,6.71,0,0,0-1.69-4.51,15.68,15.68,0,0,0-2-2,9.86,9.86,0,0,1,3,.53,1.82,1.82,0,0,1,1,.86c.08.21,0,.87.36.91s.16-.83.07-1a2.55,2.55,0,0,0-2-1.34c-.92-.17-2.16,0-2.94-.61a3.3,3.3,0,0,1,1.56-.81c.24-.06.6,0,.81-.09s.16-.36-.09-.47c-.9-.4-1.8.78-2.57,1-.59.19-1.27-.25-1.88-.27a7.27,7.27,0,0,0-2.11.38c-.36.11-1.34.26-1.61.7,0-.26-.07-.48-.08-.58,0-.82-.1-1.64-.13-2.46,0-.43,0-.86,0-1.28a3.3,3.3,0,0,1,.29-1.19,9.6,9.6,0,0,1,.91-2c.19-.3.41-.6.63-.88a5.91,5.91,0,0,0,.69-.81c.16-.3,0-.45-.29-.3l-.05,0a5.35,5.35,0,0,0-.81,1,9.49,9.49,0,0,0-1.28,2.23,14.18,14.18,0,0,1,.32-2c.06-.28.6-1.49.31-1.63-.54-.28-1,3-1,3.39a34,34,0,0,0,.06,6.3c0,.09,0,.37,0,.68a2.17,2.17,0,0,1,.53.13v0a15.42,15.42,0,0,1,1.77.38A4.48,4.48,0,0,1,54,39a4.31,4.31,0,0,1,.85,3.4c-.21,1.2-1.07,1.81-1.93,2.57a2.45,2.45,0,0,0-1,1.4,1.41,1.41,0,0,0,.8,1.33c.65.32,1.19,0,1.84-.12a2.72,2.72,0,0,1,.94.14.26.26,0,0,0-.05.12,6.06,6.06,0,0,0,.17,1.46.22.22,0,0,0,.24.19.22.22,0,0,0,.19-.24c0-.32,0-.34-.11-.66a6,6,0,0,1-.06-.74.26.26,0,0,0,0-.1.75.75,0,0,0,.26,0c.32-.08.6-.27.91-.35-.33.67,1,.13,1.21.07.12.82,1.35-.32,1.58-.54a11.4,11.4,0,0,0,2.51-3.59,6.69,6.69,0,0,0,.44-2.92C62.8,39.91,62.77,39.43,62.75,39Z"/><polygon class="cls-6" points="56.06 37.8 56.05 37.8 56.05 37.8 56.06 37.8"/><polygon class="cls-6" points="58.87 46.57 58.87 46.57 58.87 46.58 58.87 46.57"/><polygon class="cls-8" points="49.16 38.56 49.16 38.56 49.16 38.56 49.16 38.56"/><polygon class="cls-8" points="42.48 41.4 42.47 41.4 42.47 41.4 42.48 41.4"/><polygon class="cls-8" points="43.45 41.24 43.45 41.24 43.45 41.24 43.45 41.24"/><polygon class="cls-8" points="47.18 44.2 47.18 44.2 47.19 44.2 47.18 44.2"/><polygon class="cls-6" points="60.13 43.66 60.13 43.66 60.13 43.66 60.13 43.66"/><polygon class="cls-6" points="55.07 37.23 55.06 37.23 55.06 37.22 55.07 37.23"/><polygon class="cls-6" points="15.93 38.76 15.93 38.76 15.94 38.76 15.93 38.76"/><polygon class="cls-6" points="57.48 45.45 57.48 45.45 57.48 45.45 57.48 45.45"/><polygon class="cls-6" points="60.51 44.6 60.51 44.61 60.51 44.62 60.51 44.6"/><path class="cls-9" d="M38.93,39.7v0l0,0Z"/><polygon class="cls-9" points="38.23 39.05 38.23 39.05 38.23 39.05 38.23 39.05"/><path class="cls-9" d="M33.65,47.27v0Z"/><path class="cls-10" d="M45.06,46.59Z"/><path class="cls-9" d="M38.93,39.7v0l0,0Z"/><polygon class="cls-9" points="38.23 39.05 38.23 39.05 38.23 39.05 38.23 39.05"/><path class="cls-10" d="M27.6,46.22h0Z"/><path class="cls-10" d="M36.29,30.65h0Z"/><path class="cls-10" d="M34.13,27.56l.07,0Z"/><path class="cls-10" d="M14.81,45.25h0l0-.06a.16.16,0,0,1,0,.07Z"/><polygon class="cls-10" points="35.92 33.6 35.92 33.59 35.92 33.59 35.92 33.6"/><polygon class="cls-10" points="35.92 33.6 35.92 33.6 35.92 33.6 35.92 33.6"/><polygon class="cls-10" points="35.99 30.06 35.99 30.05 35.99 30.05 35.99 30.06"/><polygon class="cls-10" points="36.32 30.43 36.32 30.43 36.32 30.42 36.32 30.43"/><path class="cls-10" d="M74.92,48c-.08-.12-.26-.1-.39-.1l-.35,0a31.1,31.1,0,0,0-3.34.08c-.78,0-1.57.09-2.36.11s-1.72,0-2.58.06c-1.82.06-3.62.31-5.42.5-1.29.16-2.59.21-3.88.3s-2.63.2-4,.21a25.63,25.63,0,0,0-2.77.08l-.48,0h0c-.83,0-11.92.63-16,.73-3.24.11-6.47.24-9.71.3-4,.13-8,.37-12,.66a82.09,82.09,0,0,1-10.87.26c-.18,0-.35,0-.52.07-.51.08-.28.48.19.42a3.38,3.38,0,0,1,.9,0c.92,0,1.78,0,2.7.07,3.46,0,6.88-.32,10.3-.54,4.57-.34,9.17-.48,13.77-.6,2.07-.06,4.26-.16,6.36-.2,2.4,0,14.34-.71,14.44-.71h.21c.13,0,3.22-.07,4.48-.12,3.31-.2,6.63-.41,9.92-.84,1.91-.2,3.83-.16,5.74-.25.52,0,1-.07,1.55-.08.73,0,1.46-.12,2.19-.09.52,0,1,0,1.55,0,.1,0,.19,0,.28,0A.22.22,0,0,0,74.92,48Z"/><path class="cls-10" d="M29,36.32a.22.22,0,0,1,.21-.23.22.22,0,0,1,0,.43A.22.22,0,0,1,29,36.32Z"/><path class="cls-10" d="M24.75,36a.21.21,0,0,1,.2-.23.23.23,0,0,1,.23.21.22.22,0,0,1-.21.22A.21.21,0,0,1,24.75,36Z"/><path class="cls-10" d="M23.44,38a.21.21,0,0,1,.2-.23.23.23,0,0,1,.23.21.22.22,0,0,1-.21.22A.21.21,0,0,1,23.44,38Z"/><path class="cls-10" d="M27,35.74a.22.22,0,0,1,.21-.22.22.22,0,0,1,0,.43A.22.22,0,0,1,27,35.74Z"/><path class="cls-10" d="M19.22,50.85h0Z"/><path class="cls-10" d="M20.6,48.19a.23.23,0,0,1,.23-.21.22.22,0,0,1,.21.22.23.23,0,0,1-.23.21A.22.22,0,0,1,20.6,48.19Z"/><path class="cls-10" d="M26.56,37.24a.23.23,0,0,1,.23-.21.22.22,0,0,1,0,.44A.22.22,0,0,1,26.56,37.24Z"/><path class="cls-7" d="M40.22,29.68c.06.18.94-1.64,1.77-2a4.52,4.52,0,0,0,2.06-2.43,9.77,9.77,0,0,0,.56-3.05,7.22,7.22,0,0,1,0-1.51,2.17,2.17,0,0,0,.8-.8,10.63,10.63,0,0,0,.32-2.31A16.22,16.22,0,0,1,46.19,16a6.12,6.12,0,0,0,.52-2.65c-.17-.83-.13-1.5-.64-1.47s-1.5,1.49-1.5,1.49,0-1.49.07-2a6.32,6.32,0,0,0-.74-2.77c-.43-.61-1.93-2.82-3-3.25s-3.38-2.33-6.7-1.9A20.25,20.25,0,0,0,28,4.89c-.71.43-4.23,3-4.77,4.61a4.53,4.53,0,0,0-.28,3.13c.24.93,1.29,3.7,1.29,3.7s-1.39-.54-1.81-.14S22.26,17.28,23,18s1.68,1.2,2.11,2.16.51,2.13,1,2.37a5.31,5.31,0,0,1,.67.35,22.21,22.21,0,0,0,1.19,3,5.88,5.88,0,0,0,1.82,1.86,8.64,8.64,0,0,0,1.83.9c.87.27,2.08.64,2.05.61s2.88,1.16,2.88,1.16l1.61.24Z"/><path class="cls-11" d="M36.83,9.14s.22.71,1.63,1.23,6.34.45,6.34.45a27.91,27.91,0,0,0-1-4.26c-.42-.8-1.6-3.26-3.5-4.34S36.6-.25,34.47.19s-4.25.44-6.21,1.74a14.63,14.63,0,0,0-4.5,4.69,9,9,0,0,0-.86,5.14,40.84,40.84,0,0,0,1.37,4.46s3.08-1.15,4.22-2.41c1.48-1.62,2.31-2.64,2.31-2.64s3.45,1.18,4.87-.18S36.83,9.14,36.83,9.14Z"/><path class="cls-12" d="M32.6,19.24a2.62,2.62,0,0,0-2.67-.84,3.81,3.81,0,0,0-2.13.72.22.22,0,0,0,.06.3.21.21,0,0,0,.28,0c.22-.12.44-.24.69-.35a6.8,6.8,0,0,1,2.25-.25,2.41,2.41,0,0,1,1.48,1.13.21.21,0,0,0,.39-.18A2.15,2.15,0,0,0,32.6,19.24Z"/><path class="cls-12" d="M31.79,20.86a1.8,1.8,0,0,1-1.22.48,4.14,4.14,0,0,1-1.51-.29.22.22,0,0,0-.35.15v.05h0c.1.06.2.14.3.21h0l.13.09h0l.29.19h0l.25.16a8.7,8.7,0,0,0,.91.26,1,1,0,0,0,.24,0,1.2,1.2,0,0,0,.89-.42c.1-.12.21-.33.14-.47a.71.71,0,0,0,.14-.1A.21.21,0,0,0,31.79,20.86Zm-1,.9a3,3,0,0,0,.45-.09A.76.76,0,0,1,30.77,21.76Z"/><path class="cls-12" d="M42.16,17.35a2.19,2.19,0,0,0-1.35-.74c-1.4-.27-2.81.94-3.6,2h0l0,.08a1.32,1.32,0,0,0-.12.2h0a.2.2,0,0,0,.16.19h0c.12,0,.2-.1.28-.19a9.32,9.32,0,0,1,.65-.76A3.44,3.44,0,0,1,40.59,17a1.94,1.94,0,0,1,1.22.59.22.22,0,0,0,.41.09A.3.3,0,0,0,42.16,17.35Z"/><path class="cls-12" d="M40.59,19.38A4.11,4.11,0,0,1,38,19.6a.23.23,0,0,0-.22.26A.22.22,0,0,0,38,20a5.09,5.09,0,0,1,.55,0,.22.22,0,0,0,.17.21c.23.07.46.15.69.2a1.38,1.38,0,0,0,1.19-.33.61.61,0,0,0,.3-.35s0-.07,0-.11c.23-.13.64-.3.45-.58S40.81,19.3,40.59,19.38Z"/><path class="cls-12" d="M35.36,25.46a1.31,1.31,0,0,0,.44,0,2.42,2.42,0,0,0,.47,0,2.77,2.77,0,0,0,.7-.37,1.74,1.74,0,0,0,.45-.11c.27-.14.59-.33.67-.65a.21.21,0,0,0-.17-.26c-.15,0-.24.1-.28.23a1.5,1.5,0,0,1-.31.24c-.21.13-.47.07-.67.23a2.16,2.16,0,0,1-.47.26c-.2,0-.41,0-.62,0s-.57.15-.87.18-1-.1-.92-.64a.22.22,0,0,0-.19-.23c-.28,0-.26.32-.22.51a1,1,0,0,0,1,.77A1.6,1.6,0,0,0,35.36,25.46Z"/><path class="cls-12" d="M38.53,26.39a4.53,4.53,0,0,1-2,.73,10,10,0,0,1-1.21.14h-.45l-.25,0c-.11,0-.22,0-.33-.06h-.06c-.12,0-.24,0-.25.2h0l0,0,.17.09.14.05.35.11.07,0h0l0,0,.07,0h0l.19.06.27.11h0l.33.11.4,0a3.67,3.67,0,0,0,2.68-1.4A.22.22,0,0,0,38.53,26.39Z"/><polygon class="cls-12" points="23.67 15.54 23.67 15.54 23.67 15.54 23.67 15.54"/><polygon class="cls-12" points="44.8 11.84 44.8 11.84 44.8 11.85 44.8 11.84"/><path class="cls-12" d="M44.8,10.32v0c0-.11,0-.22,0-.32h0v0c0-.11,0-.23,0-.34h0c0-.06,0-.13,0-.19s0-.15,0-.23a.91.91,0,0,1,0-.17c-.07-.25-.16-.5-.22-.75a9.73,9.73,0,0,0-.68-2.12c-.55-.87-1.05-1.78-1.66-2.57a10.26,10.26,0,0,0-2.26-2A6.67,6.67,0,0,0,37.37.39,9,9,0,0,0,32,.45a17.24,17.24,0,0,0-2,.47,11.17,11.17,0,0,0-5.32,4,9.77,9.77,0,0,0-2,4.48,11.35,11.35,0,0,0,.72,5.37l0,0a.36.36,0,0,1,0,.09h0v0h0l.06.12a1,1,0,0,1,.07.15,1.89,1.89,0,0,1,.11.25h0c0,.06,0,.12.07.19l.05.12h0l.06.11a.21.21,0,0,0,.2.2.22.22,0,0,0,.21-.17l-.06-.14a2.43,2.43,0,0,1-.16-.37L24,15.14l-.09-.28h0c0-.08-.05-.15-.08-.22V14.6A9.7,9.7,0,0,1,23,11.5a8.91,8.91,0,0,1,3-7.39,9.47,9.47,0,0,1,3.64-2.52,8.7,8.7,0,0,1,1.49-.42C32,1,32.94.75,33.85.61a8.35,8.35,0,0,1,2.86.12,8.65,8.65,0,0,1,2.77,1.18A11.1,11.1,0,0,1,42,4.11c.57.84,1.13,1.71,1.63,2.62a14.35,14.35,0,0,1,.46,1.62,11.2,11.2,0,0,1,.36,1.41c0,.39,0,.78,0,1.18s.22.36.35.23v-.85Z"/><path class="cls-12" d="M32.35,7.89c-.19,0-.24.17-.27.32a11.65,11.65,0,0,1-2.34,3.89A12.07,12.07,0,0,1,27.86,14a5.87,5.87,0,0,1-.82.51,3.56,3.56,0,0,1-.53.16.22.22,0,0,0-.18.23c0,.28.33.2.51.13a3.56,3.56,0,0,0,1.31-.71A12.05,12.05,0,0,0,30,12.46a11.49,11.49,0,0,0,2.54-4.34A.21.21,0,0,0,32.35,7.89Z"/><path class="cls-12" d="M33.86,8.19a8.39,8.39,0,0,1-1.61,2.89c-.33.3-.72.54-1.05.84a.22.22,0,1,0,.28.33c.25-.24.54-.42.81-.64a7.46,7.46,0,0,0,2-3.22A.21.21,0,0,0,33.86,8.19Z"/><path class="cls-12" d="M42,10.67l-.63,0a12,12,0,0,1-2.31-.29A3.9,3.9,0,0,1,37,8.93a.19.19,0,0,0-.15-.11.19.19,0,0,1,0-.08c0-.2.09-.41.13-.61a.23.23,0,0,0-.1-.28c-.37-.14-.34.38-.41.61a6.32,6.32,0,0,1-1.39,2.77c-.13.21-.64.54-.35.79.14.1.29,0,.36-.14l.48-.58a7,7,0,0,0,1.12-2c1.14,1.49,2.72,1.76,4.5,1.85l.9,0a.22.22,0,0,0-.08-.43Z"/><path class="cls-8" d="M46.13,11.65a1.44,1.44,0,0,0-.91.5c-.14.14-.26.31-.4.44a8.84,8.84,0,0,1,0-1.26c0-.13-.07-.91-.36-.55-.09.11,0,.4-.06.54s0,.4,0,.6c0,.42,0,.84,0,1.25.08,1.69.06,3.39.08,5.08,0,.84,0,1.68,0,2.52a18.33,18.33,0,0,1-.09,2.46,5.72,5.72,0,0,1-2,3.94,9.54,9.54,0,0,0-1.68,1.49A5,5,0,0,1,39,30.09a5,5,0,0,1-4.22-.51,4.39,4.39,0,0,0-1-.5c-.38-.11-.76-.27-1.13-.4a10.25,10.25,0,0,1-2.24-.78,10.2,10.2,0,0,1-1.64-1.58,5.44,5.44,0,0,1-1.19-1.91c-.61-1.52-.93-3.13-1.53-4.65-.31-.76-.68-1.48-1-2.22s-.57-1.39-.95-2c-.11-.18-.46-.75-.72-.57.07.29.37.5.45.79s-.27.17-.46.16a1.78,1.78,0,0,0-1.2.21c-.49.4,0,1.07.29,1.42s.55.67.85,1,.64.54.94.82a4.27,4.27,0,0,1,.73,1,16.23,16.23,0,0,0,1,2.26,1.53,1.53,0,0,0,.43.37.85.85,0,0,1,.3.19,2,2,0,0,1,.18.53l.21.6A6.73,6.73,0,0,0,28.2,26.4a13.08,13.08,0,0,0,1.71,1.7,7.23,7.23,0,0,0,2.35.91c.41.15.83.28,1.23.45a11.13,11.13,0,0,1,1.08.57,5.58,5.58,0,0,0,4.54.56,3.5,3.5,0,0,0,.51-.26v0c.67-.34,1-1.09,1.49-1.62a21.75,21.75,0,0,1,1.82-1.48,6.24,6.24,0,0,0,1.82-3.7,11,11,0,0,0,.08-2.36c0-.37.33-.5.55-.77a2,2,0,0,0,.41-1,16.51,16.51,0,0,1,.2-2.32c.23-.84.64-1.61.81-2.47a5.55,5.55,0,0,0,0-2.33C46.68,12,46.49,11.66,46.13,11.65ZM26,21.77A6.14,6.14,0,0,0,24.46,19a7.16,7.16,0,0,1-1.39-1.36c-.25-.34-.69-.63-.75-1.08,0,0,0,0,0-.05.2-.22.53-.17.8-.16a3.16,3.16,0,0,1,.61,0l.25.06q.21.43.39.87c.1.22.21.44.32.66a12.45,12.45,0,0,0-1.46-1.26c-.21-.2-.52.11-.31.31a7.84,7.84,0,0,1,2.55,2.76s.05.06.08.08a12.15,12.15,0,0,1,.48,1.36l.39,1.28A1.46,1.46,0,0,1,26,21.77Zm20.42-7.22c-.14.94-.65,1.76-.86,2.68a9.59,9.59,0,0,0-.13,1.93,1.57,1.57,0,0,1-.55,1.21c0-.95,0-1.9,0-2.84v-.7l.07,0s0-.06,0-.09l0-.18c0-.08,0-.15.05-.22l0-.12,0-.13h0a3.66,3.66,0,0,1,.14-.62,9.27,9.27,0,0,1,.72-1.65c.06-.2.33-.41.21-.62a.23.23,0,0,0-.4.05q-.22.4-.42.81a11,11,0,0,0-.48,1.17l0-1.83a5,5,0,0,1,.37-.53,2.28,2.28,0,0,1,.89-.77h.06c.28.27.22.72.28,1.07A5.13,5.13,0,0,1,46.38,14.55Z"/><path class="cls-8" d="M52.23,46.8a1,1,0,0,0-.21-.15,10.13,10.13,0,0,1-2.75-2.08,17.55,17.55,0,0,0-2.4-2.32,3.85,3.85,0,0,0-.4-.24,1.49,1.49,0,0,0,.12-.14c.18-.27-.27-.49-.44-.22s-.87.21-1.15.19a2,2,0,0,1-1.15-.38,4.28,4.28,0,0,0-2.54-.7,3.47,3.47,0,0,1-1.39-.3,1.54,1.54,0,0,1-.53-.45c-.14-.22-.18-.63.12-.76a1.53,1.53,0,0,1,.73.08c.21,0,.43.07.65.09a2.82,2.82,0,0,0,1.41-.19.24.24,0,0,0,.15-.25l.63.21a2.35,2.35,0,0,0,1.3.19.25.25,0,0,0-.16-.47c-.24.08-.66-.11-.9-.17-.44-.12-.89-.29-1.33-.44a22.19,22.19,0,0,1-2.39-.91,1.55,1.55,0,0,1-.78-.62c-.13-.27,0-.3.25-.31a7.48,7.48,0,0,1,1.94.3c1.09.23,2.16.53,3.24.79a.25.25,0,0,0,.1-.49c-1.16-.27-2.3-.6-3.47-.84l-.61-.11c-.6-.16-.54-.35-.6-.53s.18-.43.35-.47a2.27,2.27,0,0,1,.86,0c.33.06.66.15,1,.23,1.29.32,2.68.22,4,.66.3.11.53-.33.22-.44a11.1,11.1,0,0,0-2.56-.46,19.3,19.3,0,0,1-2.12-.4c-.26,0-.58-.53.12-.88a3.53,3.53,0,0,1,1.25-.26,5.71,5.71,0,0,1,2.69.31,3.89,3.89,0,0,1,1.8,1.85,2.52,2.52,0,0,1,.26.67,5.32,5.32,0,0,1,.13,1.27,0,0,0,0,0,0,0c0,.13,0,.26,0,.39,0,.28.47.16.45-1.46a6.28,6.28,0,0,0,2,.49,16.49,16.49,0,0,1,1.7.34c.06-.43-1.21-.43-1.48-.49a10,10,0,0,1-2.3-.93A5.45,5.45,0,0,0,47.36,35a3.93,3.93,0,0,0-2.84-1.87,6.84,6.84,0,0,0-1.75,0,3.7,3.7,0,0,0-1.57.34,1.2,1.2,0,0,0-.55,1.17c-.53-.07-1.11,0-1.38.5a.77.77,0,0,0,0,.75l.1.1a1.9,1.9,0,0,0-.63,0c-.76.22-.43,1.09,0,1.46a4.45,4.45,0,0,0,1.1.58l1.48.56.64.21a2.88,2.88,0,0,1-1.37.07,3.07,3.07,0,0,0-1.2-.11.91.91,0,0,0-.62.87,1.3,1.3,0,0,0,.56,1,4.28,4.28,0,0,0,2.53.62,3,3,0,0,1,1.35.33,3.81,3.81,0,0,0,1.13.63,3.34,3.34,0,0,0,1.72,0c1.74,1.11,2.89,2.92,4.6,4.1.35.23,1,.8,1.45.82S52.41,47,52.23,46.8Z"/><path class="cls-7" d="M17,41.05s-1.29,2.49-1.09,4.14,1,3.93,4.15,3.76,3.76-5.52,3.76-5.52l.7-.31a11.71,11.71,0,0,0,3.06,1c1,0,1.59.2,1.79-.12a2,2,0,0,0,.24-.75s.94.14,1-.47a1.08,1.08,0,0,0-.2-.84l-1.9-.68L27,40.09l3.74.63s.88-.64.63-1a5.66,5.66,0,0,0-1.71-1.18,14.67,14.67,0,0,1-2.13-.76,6,6,0,0,1-1-.84l3.36.31s1.81.13,1.79-.42-1.66-2.23-4.74-2-3.4,1.22-4.1,1.89a9.14,9.14,0,0,0-1.2,1.48s-.73-.49-1.7.82-1.22.8-1.61,1a5,5,0,0,0-1.06.84Z"/><path class="cls-9" d="M12.83,40.08a7.5,7.5,0,0,1,3.09-2c.91-.36,2.17-.92,3.09-.4.47.36.29-.3.13-.52a3.36,3.36,0,0,0-.79-.76,5.63,5.63,0,0,0-2.11-.72,3.39,3.39,0,0,0-1.23,0c-.37.08-.53.26-.92.29A3,3,0,0,0,11.58,38a3.83,3.83,0,0,0-.15,1.78c0,.38.1.76.15,1.14,0,.12.06.29.09.47a1.38,1.38,0,0,1,0,.6A6.45,6.45,0,0,1,12.83,40.08Z"/><path class="cls-9" d="M14.21,40.36c-.14.22-.47.38-.64.62a3,3,0,0,0-.37.76,11.61,11.61,0,0,0-.38,1.75,7.21,7.21,0,0,0-.36,1.6c0,.15.15.7.33.77s.13,0,.19-.13,0-.46,0-.61c0-.37,0-.73,0-1.1A7.47,7.47,0,0,1,14.21,40.36Z"/><path class="cls-9" d="M19.22,39.54c0-.06.07-.11.1-.16l-.27.18Z"/><path class="cls-9" d="M18.26,35.84a2.48,2.48,0,0,1,1.18,1.08c.25.59.14.91.87,1.07a5.27,5.27,0,0,0,.46-3,3.11,3.11,0,0,0-3.14-2.7,1.3,1.3,0,0,0-.28,0c-.27,0-.4.21-.69.41s-.73.33-1.07.55c-.57.38-1.64,1.27-1.16,2.07A6.46,6.46,0,0,1,18.26,35.84Z"/><path class="cls-9" d="M30.05,37c.29,0,1.24.12,1.41-.22.31-.6-1.43-1.21-1.81-1.37a6,6,0,0,0-2.56-.34,5.65,5.65,0,0,0-2.65.49,7,7,0,0,0-1.92,1.76,17.87,17.87,0,0,0-1.26,2.12c-.15.28-.62.1-.47-.18s.36-.7.55-1h0a1.55,1.55,0,0,0-.64.32,4.06,4.06,0,0,0-.92,1c-.24.4-.42.84-.67,1.24A12,12,0,0,1,18.19,42c-.21.24-.61-.05-.41-.29a8.56,8.56,0,0,0,1.12-1.51l0-.08a2.5,2.5,0,0,0-.91.41,4.51,4.51,0,0,0-.51.42l-.16.18a8.61,8.61,0,0,0-1.18,4,3.16,3.16,0,0,0,.56,2.05,3.82,3.82,0,0,0,1.73,1.2,3.42,3.42,0,0,0,2.21.35,3.28,3.28,0,0,0,1.6-1.39,6.88,6.88,0,0,0,.9-2,12.07,12.07,0,0,0,.4-1.75,5.56,5.56,0,0,1-2.26-1.05c-.27-.18,0-.58.29-.4A4.06,4.06,0,0,0,24,43a.26.26,0,0,1,.32-.33c.54.22,1,.54,1.59.71a17.8,17.8,0,0,0,1.76.38,3.78,3.78,0,0,0,1.16.1.6.6,0,0,0,.59-.49h0c-.28-.06-.54-.15-.81-.2a8.76,8.76,0,0,1-1.45-.35,12.05,12.05,0,0,1-3-1.91c-.25-.2,0-.61.29-.41a17.08,17.08,0,0,0,1.46,1.07,7,7,0,0,0,1.49.82,11.49,11.49,0,0,0,1.32.3,3.49,3.49,0,0,0,1.14.22c.4,0,.68-.64.31-.9a4.13,4.13,0,0,0-1.11-.36,21.91,21.91,0,0,1-2.28-1.34,12.5,12.5,0,0,1-1.94-1,.21.21,0,0,0-.11,0c-.21,0-.3-.18-.25-.34s.16-.46.36-.28a1.18,1.18,0,0,0,.22.17c.23.09.45.24.66.34a4.71,4.71,0,0,0,.73.22l.91.25c.54.15,1.08.28,1.63.38l.87.15a4.7,4.7,0,0,0,.75.13.47.47,0,0,0,.44-.69,1.79,1.79,0,0,0-.73-.54,11.53,11.53,0,0,0-2-.8,3.43,3.43,0,0,1-1.19-.52c-.36-.26-.68-.56-1-.84a.25.25,0,0,1,.17-.44.23.23,0,0,1,.24,0,1.93,1.93,0,0,0,1.09.16,4.13,4.13,0,0,1,.92.11A8.64,8.64,0,0,0,30.05,37Z"/><path class="cls-8" d="M29.74,37.53c.62,0,2.12.2,2.23-.7.07-.57-.46-1-.89-1.26a7.74,7.74,0,0,0-2-.82,7.93,7.93,0,0,0-2.48-.11,5.55,5.55,0,0,0-2.32.45,9,9,0,0,0-2.07,1.83,5.88,5.88,0,0,0-.57.77c-.18,0-.37.06-.47.08a1.9,1.9,0,0,0-.4.14,4.17,4.17,0,0,1-.19.47,5.42,5.42,0,0,1-1.29,1s-.11-.05-.14,0-.07.17-.13.18c-.43.28-.84.53-1.07.65-1.32.69-1.12,1.12-1.63,2.51a7.23,7.23,0,0,0-.54,2.54,1.76,1.76,0,0,1-.08.67,3.38,3.38,0,0,0,.84,1.74,4.4,4.4,0,0,0,1.45,1,7,7,0,0,0,1.85.57,3.25,3.25,0,0,0,2.9-1.8,7.46,7.46,0,0,0,.87-2,11.4,11.4,0,0,0,.45-1.92,2.3,2.3,0,0,0,.55-.13A7.07,7.07,0,0,0,26,44c.64.16,1.29.28,1.93.39a2.72,2.72,0,0,0,1.33,0,1,1,0,0,0,.69-.89,1,1,0,0,0,.54-1.82,6.46,6.46,0,0,0-1.28-.44,6.5,6.5,0,0,1-1.37-.81l0,0c.49.12,1,.24,1.47.32l.87.15a1.63,1.63,0,0,0,.82,0,1,1,0,0,0,.69-.89,1,1,0,0,0-.42-.83,7,7,0,0,0-1.83-.93c-.53-.24-1.13-.29-1.64-.57a4,4,0,0,1-.58-.4c.27,0,.54,0,.82,0C28.58,37.33,29.14,37.49,29.74,37.53Zm-3.21-.94a.23.23,0,0,0-.24,0,.25.25,0,0,0-.17.44c.34.28.66.58,1,.84a3.43,3.43,0,0,0,1.19.52,11.53,11.53,0,0,1,2,.8,1.79,1.79,0,0,1,.73.54.47.47,0,0,1-.44.69,4.7,4.7,0,0,1-.75-.13L29,40.12c-.55-.1-1.09-.23-1.63-.38l-.91-.25a4.71,4.71,0,0,1-.73-.22c-.21-.1-.43-.25-.66-.34a1.18,1.18,0,0,1-.22-.17c-.2-.18-.41.07-.36.28s0,.38.25.34a.21.21,0,0,1,.11,0,12.5,12.5,0,0,0,1.94,1,21.91,21.91,0,0,0,2.28,1.34,4.13,4.13,0,0,1,1.11.36c.37.26.09.86-.31.9a3.49,3.49,0,0,1-1.14-.22,11.49,11.49,0,0,1-1.32-.3,7,7,0,0,1-1.49-.82,17.08,17.08,0,0,1-1.46-1.07c-.25-.2-.54.21-.29.41a12.05,12.05,0,0,0,3,1.91,8.76,8.76,0,0,0,1.45.35c.27,0,.53.14.81.2h0a.6.6,0,0,1-.59.49,3.78,3.78,0,0,1-1.16-.1,17.8,17.8,0,0,1-1.76-.38c-.56-.17-1.05-.49-1.59-.71A.26.26,0,0,0,24,43a4.06,4.06,0,0,1-2.39-1c-.27-.18-.56.22-.29.4a5.56,5.56,0,0,0,2.26,1.05,12.07,12.07,0,0,1-.4,1.75,6.88,6.88,0,0,1-.9,2,3.28,3.28,0,0,1-1.6,1.39,3.42,3.42,0,0,1-2.21-.35,3.82,3.82,0,0,1-1.73-1.2,3.16,3.16,0,0,1-.56-2.05,8.61,8.61,0,0,1,1.18-4l.16-.18a4.51,4.51,0,0,1,.51-.42,2.5,2.5,0,0,1,.91-.41l0,.08a8.56,8.56,0,0,1-1.12,1.51c-.2.24.2.53.41.29a12,12,0,0,0,.89-1.11c.25-.4.43-.84.67-1.24a4.06,4.06,0,0,1,.92-1,1.55,1.55,0,0,1,.64-.32h0c-.19.35-.36.7-.55,1s.32.46.47.18a17.87,17.87,0,0,1,1.26-2.12,7,7,0,0,1,1.92-1.76,5.65,5.65,0,0,1,2.65-.49,6,6,0,0,1,2.56.34c.38.16,2.12.77,1.81,1.37-.17.34-1.12.24-1.41.22a8.64,8.64,0,0,1-1.51-.18,4.13,4.13,0,0,0-.92-.11A1.93,1.93,0,0,1,26.53,36.59Z"/><path class="cls-8" d="M19.32,39.38a5.42,5.42,0,0,0,1.29-1,4.17,4.17,0,0,0,.19-.47,3.72,3.72,0,0,0-1,.81A3,3,0,0,0,19.32,39.38Z"/><path class="cls-6" d="M25.75,22c-.11-.09-.29,0-.44,0l-.1,0c-.62.17-1.26.25-1.88.41a4.82,4.82,0,0,0-2.65,1.63,4.85,4.85,0,0,0-.59,1.62,5.79,5.79,0,0,1-.91,1.53A7.79,7.79,0,0,1,18,28.58a3.61,3.61,0,0,0-1,1.15,2,2,0,0,0,0,1.42,1,1,0,0,1-.61,1.28c-.89.5-2.13,1.1-2.37,2.22a2.57,2.57,0,0,0,.05.83,3.57,3.57,0,0,0-2.12,1.21c-1.2,1.43-1,3.24-.54,4.93a9.62,9.62,0,0,1,.12,2c.06,1.16,1.46,3.54,3,3.65.91.07,1.6.71,2.13.39.19-.12-.91-1.53-.84-1.74a1.76,1.76,0,0,0,.08-.67,7.23,7.23,0,0,1,.54-2.54c.51-1.39.31-1.82,1.63-2.51.23-.12.64-.37,1.07-.65l.27-.18a3,3,0,0,1,.47-.66,3.72,3.72,0,0,1,1-.81,7.42,7.42,0,0,0,.36-1.27,4.62,4.62,0,0,1,.48-1.23,21.52,21.52,0,0,0,1.21-3.09,7.39,7.39,0,0,0,.22-1.69c0-.3.14-1.41-.15-1.58-.48-.28-.29.65-.29.82a8.62,8.62,0,0,1-.07,1.76,13.89,13.89,0,0,1-1.33,3.63,4.46,4.46,0,0,0-.32-1.59,3.8,3.8,0,0,0-.85-.94,5.26,5.26,0,0,0-2.68-.9c.08-.62-.29-1.19-.09-1.81a3,3,0,0,1,1.05-1.17A7.65,7.65,0,0,0,20.48,26,4.79,4.79,0,0,1,21,24.37a4,4,0,0,1,1.25-1A5.85,5.85,0,0,1,24,22.8a5.82,5.82,0,0,0,1.66-.38C25.76,22.34,26,22.2,25.75,22ZM11.67,41.38c0-.18-.07-.35-.09-.47-.05-.38-.11-.76-.15-1.14A3.83,3.83,0,0,1,11.58,38a3,3,0,0,1,2.51-2.05c.39,0,.55-.21.92-.29a3.39,3.39,0,0,1,1.23,0,5.63,5.63,0,0,1,2.11.72,3.36,3.36,0,0,1,.79.76c.16.22.34.88-.13.52-.92-.52-2.18,0-3.09.4a7.5,7.5,0,0,0-3.09,2A6.45,6.45,0,0,0,11.69,42,1.38,1.38,0,0,0,11.67,41.38ZM13,45.73c-.06.13-.13.16-.19.13s-.32-.62-.33-.77a7.21,7.21,0,0,1,.36-1.6,11.61,11.61,0,0,1,.38-1.75,3,3,0,0,1,.37-.76c.17-.24.5-.4.64-.62A7.47,7.47,0,0,0,13,44c0,.37,0,.73,0,1.1C13,45.27,13.06,45.59,13,45.73Zm7-7.4a.61.61,0,0,1-.19,0,4.38,4.38,0,0,0-1.47.26c-1.86.75-2.36,2-2.85,3.86a27.15,27.15,0,0,0,.21,4.11c0,.36-1.32-.55-1.75-.34s-.59-.24-.56-.62a15.85,15.85,0,0,1,.49-3.42,6.85,6.85,0,0,1,1.81-2.75,3.8,3.8,0,0,0,.42-.48,2.36,2.36,0,0,0-1.39.89c-.2-.46-1,.3-1.13.49a5.63,5.63,0,0,0-1.06,2.41c-.09.41-.19.83-.24,1.25a3.66,3.66,0,0,0,0,.41h0a.13.13,0,0,1,0,.06c0,.06,0,.14-.1.16-.91-2.51,1.21-5,3.49-6A6,6,0,0,1,19,38a2.91,2.91,0,0,1,.78.15C20,38.22,20,38.29,19.94,38.33Zm-2.59-6a1.3,1.3,0,0,1,.28,0A3.11,3.11,0,0,1,20.77,35a5.27,5.27,0,0,1-.46,3c-.73-.16-.62-.48-.87-1.07a2.48,2.48,0,0,0-1.18-1.08,6.46,6.46,0,0,0-3.83-.5c-.48-.8.59-1.69,1.16-2.07.34-.22.74-.32,1.07-.55S17.08,32.35,17.35,32.31Z"/><polygon class="cls-6" points="15.84 39.03 15.84 39.03 15.84 39.03 15.84 39.03"/><path class="cls-5" d="M36.65,34.13a.88.88,0,0,0-.24-.23.91.91,0,0,0-.35-.12H36a.21.21,0,0,0-.17-.08h-.18a1.09,1.09,0,0,0-.95.59,1.26,1.26,0,0,0-.08.64.57.57,0,0,0,.44.44,2.11,2.11,0,0,0,.61.06,2,2,0,0,0,.71-.15c.23-.09.46-.2.51-.47A.89.89,0,0,0,36.65,34.13Zm-.41.68a1.65,1.65,0,0,1-.47.13,2.58,2.58,0,0,1-.48,0h-.06l-.09,0s0,0,0,0h0s0,0,0,0,0,0,0,0,0,0,0,0v-.15a.09.09,0,0,0,0,0v-.05a.19.19,0,0,0,0-.07l0,0s0,0,0,0v0l0,0s0,0,0,0a.47.47,0,0,1,.18-.12l.08,0,0,0h.06l.06,0h0s0,0,0,0h0l.14,0,.23,0a.2.2,0,0,1,.1.07l.12.13a.64.64,0,0,1,.08.19s0,.07,0,0h0s0,0,0,0Z"/><path class="cls-13" d="M50.48,51.1s-7.24-.2-9.49.37S29.05,52.26,26.88,53s-7.15,1.12-7.2,1.59a3.27,3.27,0,0,0-.1,1.83,9.11,9.11,0,0,0,1.91,4.25c1.89,2.65,4.89,6.81,5.52,7.19s.57.89,1.24,1,2.42-.11,3.48-.09,5.52-.38,7.12-.57,10.65-1,11.71-1.2,7.51-1,8-1.3a3.55,3.55,0,0,0,1.73-2.46c0-1.16-2.07-3.89-2.44-4.54a50.11,50.11,0,0,0-4.45-5.52A10.54,10.54,0,0,0,50.48,51.1Z"/><path class="cls-14" d="M19.58,54.81s-.06,1.31-.12,1.93,1.24,2.56,1.77,3.39a28.38,28.38,0,0,0,2.59,3.81,22.57,22.57,0,0,1,2,2.4s1.42,2.15,1.94,2.31.64.36,1,.19a19.23,19.23,0,0,1,3.53-.09c.56,0,4.32-.35,5-.5a50.44,50.44,0,0,1,5.24-.35c.84,0,6.26-.65,7-.85s6.67-.85,7.13-.92a11,11,0,0,0,2.61-.87,8.18,8.18,0,0,0,1-1.89s-2.78.79-3.7,1.12-7.16,1.1-8.39,1.33-8.28.69-9.69.87-6.41.07-7.26.24a24.68,24.68,0,0,1-2.91,0C28,67,25,62.89,24.62,62.41s-2.9-5-3.29-5.37S19.58,54.81,19.58,54.81Z"/><path class="cls-15" d="M60.5,63c0-1.08-.85-2-1.41-2.87-.85-1.27-1.61-2.57-2.54-3.77a31.08,31.08,0,0,0-3.22-3.56,11.43,11.43,0,0,0-1.72-1.38,2.78,2.78,0,0,0-1.78-.48c-.84,0-1.7,0-2.54,0s-1.85,0-2.77.09c-4,.22-8,.66-12,1.07-1.94.2-3.89.44-5.82.78s-4.11.63-6.14,1a.19.19,0,0,0-.16.12h0a1.25,1.25,0,0,0-.89.37.2.2,0,0,0-.05.09.23.23,0,0,0-.25.24,9.06,9.06,0,0,0,.23,2.7,13.29,13.29,0,0,0,1.26,2.35,31.18,31.18,0,0,0,3.24,4.65c1.17,1.36,2.07,2.94,3.36,4.2.25.24.63.64,1,.51a.21.21,0,0,0,.21,0A11.64,11.64,0,0,1,31.85,69a25.07,25.07,0,0,0,3.57-.21c1.24-.16,2.47-.37,3.72-.49s2.41-.09,3.62-.17,2.36-.28,3.55-.42,2.28-.26,3.42-.41,2.48-.35,3.72-.48a27.12,27.12,0,0,0,3.35-.52,7.39,7.39,0,0,0,2.53-.83,3.2,3.2,0,0,0,1.15-2,.18.18,0,0,0,0-.1A1.22,1.22,0,0,0,60.5,63Zm-40.13-8.5a.26.26,0,0,0,.2-.15.2.2,0,0,0,.11,0c1.6-.32,3.24-.48,4.84-.79s3.29-.58,4.95-.78c3.19-.39,6.4-.65,9.6-1,1.6-.15,3.2-.29,4.81-.37s3.17,0,4.75,0a2.35,2.35,0,0,1,1.18.1,5.59,5.59,0,0,1,.91.54,15.17,15.17,0,0,1,1.71,1.5,31.89,31.89,0,0,1,3,3.39c.83,1.09,1.5,2.27,2.25,3.4.3.45.63.88.91,1.35.18.32.56,1,.44,1.4,0,0-.13.07-.21.1s-.3.09-.44.14c-.33.09-.65.2-1,.3a21.89,21.89,0,0,1-2.25.59c-1.54.34-3.09.6-4.64.88a69.22,69.22,0,0,1-9.84,1.2c-3.24.1-6.47.26-9.71.36-.72,0-1.43,0-2.14.1a3.62,3.62,0,0,1-1.1,0,.24.24,0,0,0-.24-.07,1.68,1.68,0,0,1-.55-.33,14.86,14.86,0,0,1-2.86-3.82,45.57,45.57,0,0,0-2.77-4.34c-.49-.71-1-1.39-1.51-2.09-.23-.31-.44-.64-.67-1S19.94,54.51,20.37,54.47Zm7.26,13.75a15,15,0,0,1-1.47-1.72c-.39-.51-.71-1.07-1.12-1.58S24,63.7,23.47,63a36,36,0,0,1-2.55-3.88,11.11,11.11,0,0,1-1.06-2,6.34,6.34,0,0,1-.18-1.76l.07.09c1,1.37,2,2.72,2.9,4.11s1.73,2.9,2.63,4.33a13.09,13.09,0,0,0,1.36,1.78A6.59,6.59,0,0,0,28,67l.26.13a6.91,6.91,0,0,1-.1,1C28.08,68.63,27.92,68.51,27.63,68.22Zm30.77-2.9a22.15,22.15,0,0,1-2.64.66c-2.24.41-4.55.6-6.82.9s-4.45.65-6.67.75c-1.16.05-2.33.06-3.49.18s-2.24.31-3.36.45a26.77,26.77,0,0,1-3.69.21,14.09,14.09,0,0,0-3.11.11,4.57,4.57,0,0,0,.14-1.28,13.93,13.93,0,0,0,2.69-.12c1.78-.05,3.56-.11,5.33-.22s3.74-.09,5.6-.17,3.45-.3,5.16-.54,3.53-.56,5.29-.88a49.82,49.82,0,0,0,5.24-1.11c.61-.18,1.26-.34,1.86-.57A2.45,2.45,0,0,1,58.4,65.32Z"/><path class="cls-14" d="M38.71,54.93a3.25,3.25,0,0,0-.45,2.73,3.3,3.3,0,0,0,2.3,2.59,7.32,7.32,0,0,0,2.79-.69A11.89,11.89,0,0,1,48.26,59c1.45.27,2.63.79,3.05.31s-4.7-4-7.51-4.22S38.71,54.93,38.71,54.93Z"/><path class="cls-14" d="M29.18,56.7A2.34,2.34,0,0,0,28,58.78c.17,1.12.59,1.67,1.75,1.71S31.1,60,31.1,60a1.27,1.27,0,0,0,1.06.11,2.52,2.52,0,0,0,1.1-.5,2.35,2.35,0,0,0,.77-.27,1.93,1.93,0,0,0,.68-2C34.59,56.57,29.18,56.7,29.18,56.7Z"/><path class="cls-14" d="M33,62.63c-.08.16-.83,1.38-.39,2a2.62,2.62,0,0,0,2,1c.87,0,1.6.12,2.05-.53s1-1.71.13-2.48S33,62.63,33,62.63Z"/><path class="cls-16" d="M41,59.52A7.51,7.51,0,0,0,42.4,59a7.64,7.64,0,0,1,4.5-.78c1.84.34,4.44,1.61,4.79,1s-.06-2.4-2-3.36-5.09-2.32-7.52-1.6-2.91.24-3.19.81a3.68,3.68,0,0,0,.27,3.3C40,59.16,40.34,59.73,41,59.52Z"/><path class="cls-16" d="M33.23,58.24s.29.52.67.47,1-.15,1.11-.73-.06-3.31-.64-3.45-.93-.24-1.14.09a3.56,3.56,0,0,0-.34.69s-.31-.5-1,.1a5.34,5.34,0,0,0-1.1,1.29s-.46-.83-1.41-.14A1.9,1.9,0,0,0,28.62,59c.42.51.82,1,1.41.79a2.64,2.64,0,0,0,1-.57,1.08,1.08,0,0,0,1.06.09A3,3,0,0,0,33.23,58.24Z"/><path class="cls-16" d="M34.31,61.24c-.67.48-1.51,1.43-1.42,1.93a2.61,2.61,0,0,0,.47,1l.67.1a.55.55,0,0,0,.43.62,2.52,2.52,0,0,0,2-.36,3.91,3.91,0,0,0,.77-1.85c-.07-.31-.63-1.57-1.39-1.57A9.05,9.05,0,0,0,34.31,61.24Z"/><path class="cls-17" d="M31.77,59.61a1.53,1.53,0,0,0,1-.33,1.77,1.77,0,0,0,.48-.64.91.91,0,0,0,1.23.12s0-.06.05-.09a.43.43,0,0,0,.26-.1,1.69,1.69,0,0,0,.38-1.31,6.94,6.94,0,0,0-.12-1.64c-.09-.47-.24-1.22-.79-1.35a2.28,2.28,0,0,0-.69,0,.73.73,0,0,0-.53.22,1.53,1.53,0,0,0-.28.52s0,0,0,0a1.65,1.65,0,0,0-1.65.73,5.74,5.74,0,0,0-.36.5s-.06-.09-.12-.1a2.08,2.08,0,0,0-2.33,1.45,2.11,2.11,0,0,0,.15,1.54,2,2,0,0,0,1.29.93,1.22,1.22,0,0,0,.88-.08,1.41,1.41,0,0,0,.52-.51A1.21,1.21,0,0,0,31.77,59.61ZM34.39,55a3.79,3.79,0,0,1,.21.73A6.52,6.52,0,0,1,34.7,57a2.37,2.37,0,0,1-.12,1.06.47.47,0,0,1-.06.09s-.07-.09-.08-.12a2,2,0,0,1-.1-.21,4.14,4.14,0,0,1-.07-3h0A.52.52,0,0,1,34.39,55Zm-1-.09c.06-.11.1-.17.23-.18h.2a4.57,4.57,0,0,0,.15,3.39,1.37,1.37,0,0,0,.19.3.43.43,0,0,1-.42-.09.87.87,0,0,1-.31-.53,5.5,5.5,0,0,1-.29-1.44A2.86,2.86,0,0,1,33.35,54.93Zm-2,1.31c.28-.4.76-1,1.31-.8h.05a4.26,4.26,0,0,0-.08.8A5.71,5.71,0,0,0,33,58.08l0,0a.23.23,0,0,0-.09.32,1.12,1.12,0,0,1-1,.69,1,1,0,0,1-.9-.54,2.14,2.14,0,0,1-.19-1.17A2.67,2.67,0,0,1,31.31,56.24Zm-1,3.29a1,1,0,0,1-.73-.1,1.36,1.36,0,0,1-.84-1.16A1.53,1.53,0,0,1,29.21,57a1.43,1.43,0,0,1,1.27-.43h.05a2.49,2.49,0,0,0-.22.65,2.46,2.46,0,0,0,.43,1.9A1,1,0,0,1,30.29,59.53Z"/><path class="cls-17" d="M37.09,61.88c-.14-.21-.29-.42-.44-.62a.24.24,0,0,0-.15-.1,1.62,1.62,0,0,0-.92-.39A1.88,1.88,0,0,0,34.3,61s0,0-.07,0a3.49,3.49,0,0,0-.95.8A2.47,2.47,0,0,0,32.66,63a1.31,1.31,0,0,0,.43,1.24,1.48,1.48,0,0,0,.44.25.23.23,0,0,0,.15.32,3.38,3.38,0,0,1,.58.34,1,1,0,0,0,.62.1,3.09,3.09,0,0,0,1.43-.36,2.13,2.13,0,0,0,.78-1,4.18,4.18,0,0,0,.19-.6,2.6,2.6,0,0,0,.1-.68A1.59,1.59,0,0,0,37.09,61.88Zm-4,1.32a1.81,1.81,0,0,1,.47-1,3.84,3.84,0,0,1,.63-.58.18.18,0,0,0,.18-.07,1.15,1.15,0,0,1,1-.28,1.11,1.11,0,0,1,.76.33.85.85,0,0,1,.16.28.91.91,0,0,1,.06.36,1.87,1.87,0,0,1-.21.8,2.12,2.12,0,0,1-1.55,1,1.68,1.68,0,0,1-1-.1A.87.87,0,0,1,33.13,63.2Zm3.29.84a1.51,1.51,0,0,1-1.25.64,1.21,1.21,0,0,1-.68,0,.5.5,0,0,1-.12-.08h0a2.76,2.76,0,0,0,2.18-1.15,2.48,2.48,0,0,0,.31-.81.16.16,0,0,1,0,.07A3.09,3.09,0,0,1,36.42,64Z"/><path class="cls-17" d="M51.73,57.46a4.83,4.83,0,0,0-1.38-1.53A10,10,0,0,0,46,54.05,14.69,14.69,0,0,0,42.84,54a10.56,10.56,0,0,0-3.11.47,1.35,1.35,0,0,0-1.32,1.26,4.27,4.27,0,0,0,1,3.25,2.37,2.37,0,0,0,1.63.82.82.82,0,0,0,.8-.37s0,0,.07,0a18.1,18.1,0,0,1,2.66-.9,7.7,7.7,0,0,1,3.24.07,13.89,13.89,0,0,1,2.76.74c.49.2,1.1.37,1.44-.19S52,57.92,51.73,57.46ZM41.41,59.11c0,.48-1.16-.11-1.25-.17a2.55,2.55,0,0,1-.83-1A3.06,3.06,0,0,1,39,55.34c.17-.31.34-.43.52-.44a.2.2,0,0,0,.2.05,2.88,2.88,0,0,1,1,1.33,12,12,0,0,1,.62,1.64c.08.34.09.67.17,1A.23.23,0,0,0,41.41,59.11ZM51,59a3.85,3.85,0,0,1-.52-.22,15.7,15.7,0,0,0-3-.72A7.7,7.7,0,0,0,44.76,58a14.68,14.68,0,0,0-2.75.88c-.11-.37-.11-.76-.2-1.13a12,12,0,0,0-.55-1.45,5,5,0,0,0-.79-1.42l-.09-.08A13.16,13.16,0,0,1,43,54.47a13,13,0,0,1,3.3.14A8.42,8.42,0,0,1,51,57.19a3.33,3.33,0,0,1,.62,1.14C51.69,58.74,51.48,59.07,51,59Z"/><path class="cls-17" d="M40.29,57a1.43,1.43,0,0,0-.08-.22l-.07-.07a.12.12,0,0,0-.08,0,.32.32,0,0,0-.14,0h0a.16.16,0,0,0-.09,0,.29.29,0,0,0-.12.15.28.28,0,0,0,0,.18h0a.76.76,0,0,1,0,.11.61.61,0,0,0,0,.12.36.36,0,0,0,.07.1.41.41,0,0,0,.11.07h.13a.3.3,0,0,0,.11-.07.26.26,0,0,0,.07-.11s0,0,0,0a.31.31,0,0,0,0-.1v0S40.29,57.07,40.29,57Z"/><path class="cls-17" d="M47.57,56.56a11.27,11.27,0,0,0-5.46.49c-.31.09-.18.58.13.48a10.71,10.71,0,0,1,5.2-.48C47.75,57.11,47.89,56.63,47.57,56.56Z"/><path class="cls-17" d="M50,57.08a7.3,7.3,0,0,0-3.44-1.91A16,16,0,0,0,42.3,55a.25.25,0,0,0,0,.5,15.67,15.67,0,0,1,4,.14,6.78,6.78,0,0,1,3.36,1.8C49.88,57.65,50.24,57.3,50,57.08Z"/><path class="cls-17" d="M34.91,62.29l0,0-.06,0h-.1a.16.16,0,0,0-.09,0l-.07.06,0,0v0h0l0,0,0,0h0l0,.06v.09a.29.29,0,0,0,0,.09l0,.06a.11.11,0,0,0,.07.06l.06,0h.06l.1,0a.16.16,0,0,0,.08-.06s0,0,0,0l.08-.12,0-.06a.17.17,0,0,0,0-.1.13.13,0,0,0,0-.06A.24.24,0,0,0,34.91,62.29Z"/><path class="cls-17" d="M32.17,57a.14.14,0,0,0-.08-.05.1.1,0,0,0-.09,0h0a.22.22,0,0,0-.17.07s0,0,0,.08a.23.23,0,0,0-.07.1.16.16,0,0,0,0,.09.17.17,0,0,0,0,.1s0,0,0,0a.17.17,0,0,0,0,.07.8.8,0,0,0,0,.15l0,.06a.13.13,0,0,0,.06.07.27.27,0,0,0,.15,0,.28.28,0,0,0,.13,0,.23.23,0,0,0,.07-.07.12.12,0,0,0,0-.08.89.89,0,0,0,.07-.28,1,1,0,0,0,0-.17A.32.32,0,0,0,32.17,57Z"/><path class="cls-17" d="M29.87,58.07a.16.16,0,0,0,0-.1.16.16,0,0,0,0-.09.23.23,0,0,0-.07-.07l-.08-.05h-.07l-.12,0-.05,0a.19.19,0,0,0-.07.11.13.13,0,0,1,0,.06v0a.36.36,0,0,0,0,.11v0h0a.29.29,0,0,0,0,.09h0a.21.21,0,0,0,.06.08h0l0,0h.2l0,0h0l0,0h0l0,0s0,0,0,0V58.2h0v0c0-.05,0-.11,0-.16A.13.13,0,0,1,29.87,58.07Z"/><path class="cls-17" d="M34.59,56.57v0a.25.25,0,0,0-.5,0v0A.25.25,0,0,0,34.59,56.57Z"/><path class="cls-6" d="M51.09,35.8a7.76,7.76,0,0,1,3-.67v-.5c-.71.08-1.39.26-2.09.4a3.43,3.43,0,0,0-1.49.5c-.19.15,0,.41.18.43a2.75,2.75,0,0,0,1.09-.25c.4-.13.82-.14,1.21-.28s.17-.6-.13-.49-.78.15-1.16.28a2.76,2.76,0,0,1-1,.24l.17.43a1.65,1.65,0,0,1,.6-.24l.72-.15c.64-.13,1.26-.3,1.91-.37.31,0,.33-.51,0-.5a8.3,8.3,0,0,0-3.28.74.25.25,0,0,0-.09.34.26.26,0,0,0,.34.09Z"/><path class="cls-6" d="M52.38,34.76a.92.92,0,0,0-.33,0,13.82,13.82,0,0,1,1.34-.35c.28-.06.21-.48-.07-.49a3.49,3.49,0,0,0-1.53.4,4.59,4.59,0,0,0-.6.27,5.44,5.44,0,0,0-.55.39,1.86,1.86,0,0,0-.31.1l-.13.08.33-.46a4.88,4.88,0,0,1,.47-.55,3,3,0,0,0,1-.54.25.25,0,0,0-.18-.43l-.24,0,.41-.23c.24-.1.11-.46-.12-.46a2,2,0,0,0-1.08.34,3,3,0,0,1,.27-.35,1.22,1.22,0,0,0,.49-.41c.15-.22-.13-.44-.34-.34a1.52,1.52,0,0,0-.45.35l-.15.07-.08,0,.18-.32a.25.25,0,0,0,.12-.13,1.38,1.38,0,0,0,.08-.27.25.25,0,0,0-.48-.14c-.32.85-1,1.48-1.36,2.33v0h0s0,0,0,.06c-.1.27.32.43.45.19a4.54,4.54,0,0,1,.45-.69,5,5,0,0,0-.72,1.61.26.26,0,0,0,.29.3,1.8,1.8,0,0,0-.08.21.21.21,0,0,0,0,.21,2.31,2.31,0,0,0-.2.76c0,.27.34.31.47.13l.12-.18a.19.19,0,0,0,.21-.06l.06-.06a.28.28,0,0,0,.18,0c.36-.18.68-.46,1-.63l.48-.21a4.07,4.07,0,0,0,.6-.06A.25.25,0,0,0,52.38,34.76Z"/><path class="cls-6" d="M62.5,40a1.68,1.68,0,0,0-.23-1.42c-.09-.14-.36-.18-.43,0a1.08,1.08,0,0,0-.1.35c0,.17.11.24.25.23a2.86,2.86,0,0,1,.07.28.24.24,0,0,0-.27.18,1.42,1.42,0,0,0,.05.65.23.23,0,0,0-.18.29A4.76,4.76,0,0,1,62,41.88s0,0,0,0a.26.26,0,0,0-.32,0,3.29,3.29,0,0,0,0-.44.25.25,0,0,0-.48,0,6.51,6.51,0,0,0,0,1.25c0,.11,0,.23-.07.34l0,.15a2.59,2.59,0,0,0-.52-1c-.17-.2-.48,0-.42.24a3.72,3.72,0,0,1,.07,2.09c-.12.36-.33.69-.44,1a.92.92,0,0,0,0,.59c0,.07-.11.14-.15.21s0,0,0,0a.24.24,0,0,0-.26-.3l0-.31a4.2,4.2,0,0,0,0-1.58.23.23,0,0,0-.37-.12,1.52,1.52,0,0,0,0-.21.25.25,0,0,0-.48,0,5.53,5.53,0,0,1-.55,1.68,3.46,3.46,0,0,1-.22.31c0-.31.09-.63.12-1a1.68,1.68,0,0,0,.08-.8.25.25,0,0,0-.48,0,5.9,5.9,0,0,0-.09.72,4.45,4.45,0,0,1-.44.84A6.82,6.82,0,0,0,57,43.63c0-.27-.43-.35-.49-.06s-.09.4-.14.59a.28.28,0,0,0-.3.1,7,7,0,0,1-1.23,1.63A6,6,0,0,1,53,47c-.3.11-.17.6.13.49s.31-.15.47-.22a.18.18,0,0,0,.19.1h.07a2.83,2.83,0,0,0,2.43-1.7l.07-.09A3.15,3.15,0,0,1,55.48,47a.25.25,0,0,0,.3.39,3.88,3.88,0,0,0,1.31-1.33,1.31,1.31,0,0,1-.39.88.25.25,0,0,0,.36.35A1,1,0,0,0,57.3,47a8.85,8.85,0,0,0,1-1.3c.07-.12.13-.25.19-.37a2.84,2.84,0,0,1-.53,1.35c-.17.28.25.51.43.26s.21-.35.3-.53a1.2,1.2,0,0,1-.18.4c-.13.2.11.42.29.36,0,.19.25.34.41.16a3.07,3.07,0,0,0,.24-.35.23.23,0,0,0,.32-.08,3.54,3.54,0,0,1,.19-.33c.57.18.93-.74,1.09-1.21.06-.17.11-.35.16-.53a3.11,3.11,0,0,0,.49-1.15.2.2,0,0,0,.25-.17,5.33,5.33,0,0,0,.06-.89.28.28,0,0,0,.21-.07c.38-.32.29-.89.15-1.4a.27.27,0,0,0,.08-.17,2.32,2.32,0,0,0-.13-.78A.32.32,0,0,0,62.5,40Zm-2,4.69a2.7,2.7,0,0,0,.14-.56c0,.09,0,.16,0,.25a4.44,4.44,0,0,1-.49,1.09C60.27,45.22,60.41,45,60.51,44.7Z"/><path class="cls-10" d="M31.06,47.7a.22.22,0,0,1,.21-.22.21.21,0,0,1,.22.21.21.21,0,0,1-.2.22A.23.23,0,0,1,31.06,47.7Z"/><path class="cls-10" d="M31.71,49.9a.22.22,0,0,1,.21-.23.22.22,0,1,1-.21.23Z"/><path class="cls-10" d="M33.76,47.13a.21.21,0,0,1,.2-.23.23.23,0,0,1,.23.21.22.22,0,0,1-.21.22A.21.21,0,0,1,33.76,47.13Z"/><path class="cls-10" d="M45.27,43.61a.22.22,0,0,1,.21-.23.22.22,0,0,1,0,.44A.23.23,0,0,1,45.27,43.61Z"/><path class="cls-10" d="M45.27,46a.22.22,0,0,1,.21-.22.21.21,0,0,1,.22.21.21.21,0,0,1-.2.22A.23.23,0,0,1,45.27,46Z"/><path class="cls-10" d="M43.91,44.57a.22.22,0,0,1,.21-.23.21.21,0,0,1,.22.21.21.21,0,0,1-.2.22A.22.22,0,0,1,43.91,44.57Z"/><path class="cls-10" d="M41.17,48.18a.21.21,0,0,1,.2-.22.22.22,0,1,1,0,.43A.21.21,0,0,1,41.17,48.18Z"/><path class="cls-10" d="M39.36,46.7a.22.22,0,0,1,.21-.23.23.23,0,0,1,.23.21.22.22,0,0,1-.44,0Z"/><path class="cls-10" d="M38.16,48a.21.21,0,0,1,.2-.22.22.22,0,1,1,0,.43A.21.21,0,0,1,38.16,48Z"/><path class="cls-10" d="M32.76,48.65a.22.22,0,0,1,.21-.22.21.21,0,0,1,.22.2.22.22,0,0,1-.21.23A.22.22,0,0,1,32.76,48.65Z"/><path class="cls-10" d="M35,49.18a.22.22,0,1,1,.23.21A.23.23,0,0,1,35,49.18Z"/><path class="cls-10" d="M35.82,47.56a.21.21,0,0,1,.2-.22.22.22,0,1,1-.2.22Z"/><path class="cls-10" d="M36.83,49.47a.22.22,0,0,1,.21-.23.22.22,0,0,1,.22.21.21.21,0,0,1-.2.22A.22.22,0,0,1,36.83,49.47Z"/><path class="cls-10" d="M37.26,46.37a.22.22,0,0,1,.44,0,.22.22,0,0,1-.21.23A.23.23,0,0,1,37.26,46.37Z"/><path class="cls-10" d="M39.62,49.25a.23.23,0,0,1,.21-.23.22.22,0,0,1,0,.44A.23.23,0,0,1,39.62,49.25Z"/><path class="cls-10" d="M43.59,48.65a.22.22,0,0,1,.43,0,.22.22,0,0,1-.21.23A.22.22,0,0,1,43.59,48.65Z"/><path class="cls-10" d="M43.8,47.18A.22.22,0,0,1,44,47a.23.23,0,0,1,.23.21.22.22,0,0,1-.44,0Z"/><path class="cls-10" d="M42.66,42.75a.22.22,0,0,1,.44,0,.22.22,0,0,1-.21.23A.23.23,0,0,1,42.66,42.75Z"/><path class="cls-10" d="M47.62,45a.21.21,0,0,1,.2-.23.23.23,0,0,1,.23.21.22.22,0,0,1-.21.23A.21.21,0,0,1,47.62,45Z"/><path class="cls-10" d="M42.66,45.82a.22.22,0,0,1,.21-.23.23.23,0,0,1,.23.21.22.22,0,0,1-.44,0Z"/><path class="cls-10" d="M47.32,47.29a.21.21,0,0,1,.2-.22.22.22,0,1,1,0,.43A.21.21,0,0,1,47.32,47.29Z"/><path class="cls-10" d="M46,48.37a.22.22,0,0,1,.21-.22.22.22,0,0,1,0,.43A.22.22,0,0,1,46,48.37Z"/><path class="cls-10" d="M50.08,47.29a.22.22,0,1,1,.23.21A.23.23,0,0,1,50.08,47.29Z"/><path class="cls-10" d="M48.5,48.59a.21.21,0,0,1,.2-.22.22.22,0,1,1,0,.43A.21.21,0,0,1,48.5,48.59Z"/><path class="cls-10" d="M51.65,47.34a.21.21,0,0,1,.22-.21.22.22,0,0,1,.21.22.23.23,0,0,1-.23.21A.21.21,0,0,1,51.65,47.34Z"/><path class="cls-10" d="M51.09,48.79a.22.22,0,0,1,.22-.21.22.22,0,0,1,.21.23.21.21,0,0,1-.22.2A.21.21,0,0,1,51.09,48.79Z"/><path class="cls-10" d="M53.16,48.16a.22.22,0,0,1,.23-.2.22.22,0,0,1,0,.43A.22.22,0,0,1,53.16,48.16Z"/><path class="cls-10" d="M54.42,48.91a.22.22,0,1,1,.44,0,.22.22,0,0,1-.44,0Z"/><path class="cls-10" d="M54.47,47.91a.23.23,0,0,1,.23-.21.22.22,0,0,1,0,.43A.22.22,0,0,1,54.47,47.91Z"/><path class="cls-10" d="M52.35,49a.23.23,0,0,1,.23-.21.21.21,0,0,1,.2.23.21.21,0,0,1-.22.2A.22.22,0,0,1,52.35,49Z"/><path class="cls-10" d="M13.49,37.73a.21.21,0,0,1,.21-.22.22.22,0,0,1,.22.21.22.22,0,1,1-.43,0Z"/><path class="cls-10" d="M15.65,36.84a.22.22,0,0,1,.43,0,.22.22,0,1,1-.43,0Z"/><path class="cls-10" d="M14.26,36.59a.22.22,0,0,1,.2-.23.23.23,0,0,1,.23.21.22.22,0,0,1-.21.23A.21.21,0,0,1,14.26,36.59Z"/><path class="cls-10" d="M12.08,37.43a.21.21,0,0,1,.2-.23.23.23,0,0,1,.23.21.22.22,0,0,1-.21.22A.21.21,0,0,1,12.08,37.43Z"/><path class="cls-10" d="M12.21,39.66a.22.22,0,0,1,.21-.23.22.22,0,1,1-.21.23Z"/><path class="cls-10" d="M17.08,33.9a.22.22,0,0,1,.44,0,.22.22,0,0,1-.21.23A.23.23,0,0,1,17.08,33.9Z"/><path class="cls-10" d="M19.19,35.31a.22.22,0,0,1,.2-.23.23.23,0,0,1,.23.21.22.22,0,0,1-.21.23A.21.21,0,0,1,19.19,35.31Z"/><path class="cls-10" d="M19,33.76a.22.22,0,0,1,.21-.23.22.22,0,0,1,.22.21.21.21,0,0,1-.2.22A.22.22,0,0,1,19,33.76Z"/><path class="cls-10" d="M18,34.85a.21.21,0,0,1,.2-.22.22.22,0,1,1,0,.43A.21.21,0,0,1,18,34.85Z"/><path class="cls-10" d="M15.43,34.51a.22.22,0,0,1,.21-.23.22.22,0,0,1,0,.43A.21.21,0,0,1,15.43,34.51Z"/><path class="cls-10" d="M19.54,30.34a.21.21,0,0,1,.2-.22.22.22,0,1,1,0,.43A.21.21,0,0,1,19.54,30.34Z"/><path class="cls-10" d="M21.1,32.54a.22.22,0,0,1,.21-.23.22.22,0,0,1,.22.21.22.22,0,0,1-.43,0Z"/><path class="cls-10" d="M21.08,29.72a.22.22,0,0,1,.21-.22.21.21,0,0,1,.22.2.21.21,0,0,1-.2.23A.23.23,0,0,1,21.08,29.72Z"/><path class="cls-10" d="M17.7,30.09a.22.22,0,0,1,.21-.23.23.23,0,0,1,.23.21.22.22,0,0,1-.44,0Z"/><path class="cls-10" d="M20.77,27.38a.22.22,0,0,1,.21-.23.22.22,0,0,1,0,.43A.22.22,0,0,1,20.77,27.38Z"/><path class="cls-10" d="M22,28.1a.22.22,0,0,1,.21-.22.22.22,0,0,1,0,.43A.22.22,0,0,1,22,28.1Z"/><path class="cls-10" d="M24.12,24.8a.21.21,0,0,1,.2-.22.22.22,0,1,1,0,.43A.21.21,0,0,1,24.12,24.8Z"/><path class="cls-10" d="M22.14,24.62a.21.21,0,0,1,.2-.22.22.22,0,1,1,0,.43A.21.21,0,0,1,22.14,24.62Z"/><path class="cls-10" d="M22.89,27.08a.22.22,0,0,1,.44,0,.22.22,0,0,1-.21.23A.23.23,0,0,1,22.89,27.08Z"/><path class="cls-10" d="M24.49,23.15a.21.21,0,0,1,.2-.22.23.23,0,0,1,.23.21.22.22,0,0,1-.21.22A.21.21,0,0,1,24.49,23.15Z"/><path class="cls-10" d="M26.22,27.55a.22.22,0,0,1,.21-.23.22.22,0,0,1,0,.43A.22.22,0,0,1,26.22,27.55Z"/><path class="cls-10" d="M26.19,25.49a.22.22,0,0,1,.21-.23.22.22,0,1,1-.21.23Z"/><path class="cls-10" d="M25.2,32.94a.21.21,0,0,1,.2-.22.22.22,0,1,1,0,.43A.21.21,0,0,1,25.2,32.94Z"/><path class="cls-10" d="M27.42,29.47a.22.22,0,0,1,.21-.23.22.22,0,0,1,.22.21.22.22,0,0,1-.21.23A.22.22,0,0,1,27.42,29.47Z"/><path class="cls-10" d="M28.14,32.68a.21.21,0,0,1,.2-.23.23.23,0,0,1,.23.21.22.22,0,0,1-.21.22A.21.21,0,0,1,28.14,32.68Z"/><path class="cls-10" d="M25.32,30.23a.22.22,0,0,1,.21-.22.21.21,0,0,1,.22.2.21.21,0,0,1-.2.23A.23.23,0,0,1,25.32,30.23Z"/><path class="cls-10" d="M32.29,30.14a.22.22,0,0,1,.21-.23.22.22,0,0,1,.22.21.22.22,0,0,1-.43,0Z"/><path class="cls-10" d="M29.4,29.06a.22.22,0,0,1,.21-.23.22.22,0,0,1,0,.43A.22.22,0,0,1,29.4,29.06Z"/><path class="cls-10" d="M26.47,34.55a.22.22,0,0,1,.21-.23.22.22,0,0,1,.22.21.22.22,0,0,1-.43,0Z"/><path class="cls-10" d="M27,31.54a.22.22,0,0,1,.21-.23.21.21,0,0,1,.22.21.21.21,0,0,1-.2.22A.22.22,0,0,1,27,31.54Z"/><path class="cls-10" d="M23.13,35.84a.22.22,0,0,1,.43,0,.22.22,0,0,1-.43,0Z"/><path class="cls-10" d="M23.84,31.83a.22.22,0,0,1,.44,0,.22.22,0,0,1-.21.23A.23.23,0,0,1,23.84,31.83Z"/><path class="cls-10" d="M23.38,34a.21.21,0,0,1,.21-.22.22.22,0,0,1,.22.21.22.22,0,0,1-.43,0Z"/><path class="cls-10" d="M21.55,37.17a.22.22,0,0,1,.2-.23.23.23,0,0,1,.23.21.22.22,0,0,1-.21.23A.21.21,0,0,1,21.55,37.17Z"/><path class="cls-10" d="M29,34.45a.22.22,0,0,1,.21-.22.21.21,0,0,1,.22.21.21.21,0,0,1-.2.22A.23.23,0,0,1,29,34.45Z"/><path class="cls-10" d="M33.69,31.39a.22.22,0,0,1,.44,0,.22.22,0,0,1-.21.23A.23.23,0,0,1,33.69,31.39Z"/><path class="cls-10" d="M30.61,32a.22.22,0,0,1,.21-.23.23.23,0,0,1,.23.21.22.22,0,0,1-.21.23A.23.23,0,0,1,30.61,32Z"/><path class="cls-10" d="M26.15,24a.22.22,0,0,1,.21-.22.21.21,0,0,1,.22.2.21.21,0,0,1-.2.23A.23.23,0,0,1,26.15,24Z"/><path class="cls-10" d="M24.32,28.7a.21.21,0,0,1,.22-.21.22.22,0,0,1,.21.22.23.23,0,0,1-.22.21A.21.21,0,0,1,24.32,28.7Z"/><path class="cls-10" d="M21.34,26a.21.21,0,0,1,.22-.21.22.22,0,1,1,0,.43A.21.21,0,0,1,21.34,26Z"/><path class="cls-10" d="M23.06,23.28a.22.22,0,0,1,.22-.21.22.22,0,0,1,.21.23.22.22,0,0,1-.22.21A.22.22,0,0,1,23.06,23.28Z"/><path class="cls-10" d="M17,36.51a.23.23,0,0,1,.23-.21.22.22,0,1,1-.23.21Z"/><path class="cls-10" d="M18.46,37a.22.22,0,0,1-.1-.19.21.21,0,0,1,.22-.21.22.22,0,0,1,0,.43Z"/><path class="cls-10" d="M15,41.37a.24.24,0,0,1-.1-.19.21.21,0,0,1,.22-.21.22.22,0,0,1,0,.43Z"/><path class="cls-10" d="M13.72,40.42a.26.26,0,0,1-.1-.2.22.22,0,0,1,.43,0,.22.22,0,0,1-.21.21Z"/><path class="cls-10" d="M12.1,43a.21.21,0,0,1-.1-.19.21.21,0,0,1,.22-.21.22.22,0,0,1,.21.23.23.23,0,0,1-.21.21Z"/><path class="cls-10" d="M14.8,42.71a.24.24,0,0,1-.1-.19.23.23,0,0,1,.23-.21.22.22,0,0,1,0,.43Z"/><path class="cls-10" d="M15,44.74a.24.24,0,0,1-.1-.19.21.21,0,0,1,.22-.21.22.22,0,0,1,0,.43Z"/><path class="cls-10" d="M13.43,45a.24.24,0,0,1-.1-.19.22.22,0,0,1,.44,0,.23.23,0,0,1-.21.21Z"/><path class="cls-10" d="M16.47,40.27a.21.21,0,0,1-.1-.2.21.21,0,0,1,.22-.2.21.21,0,0,1,.21.22.23.23,0,0,1-.21.21Z"/><path class="cls-10" d="M15.44,38.67a.23.23,0,0,1-.1-.19.22.22,0,0,1,.22-.21.22.22,0,0,1,.21.23.23.23,0,0,1-.21.21Z"/><path class="cls-10" d="M18.51,38.61a.23.23,0,0,1-.1-.19.22.22,0,0,1,.22-.21.22.22,0,0,1,.21.23.21.21,0,0,1-.21.2Z"/><path class="cls-10" d="M27.45,45.82a.22.22,0,0,1,.21-.23.22.22,0,1,1-.21.23Z"/><path class="cls-10" d="M26.1,46.62a.22.22,0,0,1,.2-.23.23.23,0,0,1,.23.21.22.22,0,0,1-.21.23A.21.21,0,0,1,26.1,46.62Z"/><path class="cls-10" d="M27,47.74a.22.22,0,1,1,.43,0,.22.22,0,0,1-.21.23A.22.22,0,0,1,27,47.74Z"/><path class="cls-10" d="M28.89,46.62a.22.22,0,0,1,.2-.23.23.23,0,0,1,.23.21.22.22,0,0,1-.21.23A.21.21,0,0,1,28.89,46.62Z"/><path class="cls-10" d="M28.3,49a.22.22,0,0,1,.44,0,.22.22,0,0,1-.21.23A.23.23,0,0,1,28.3,49Z"/><path class="cls-10" d="M26.88,50.3a.22.22,0,0,1,.21-.23.22.22,0,1,1-.21.23Z"/><path class="cls-10" d="M29.6,50A.22.22,0,0,1,30,50a.22.22,0,0,1-.21.23A.23.23,0,0,1,29.6,50Z"/><path class="cls-10" d="M24.66,44.5a.22.22,0,0,1,.21-.22.22.22,0,0,1,0,.43A.22.22,0,0,1,24.66,44.5Z"/><path class="cls-10" d="M23.47,48.1a.21.21,0,0,1,.22-.21.22.22,0,0,1,.21.23.21.21,0,0,1-.22.2A.21.21,0,0,1,23.47,48.1Z"/><path class="cls-10" d="M22.25,50.07a.22.22,0,1,1,.21.22A.22.22,0,0,1,22.25,50.07Z"/><path class="cls-10" d="M22.29,48.24a.21.21,0,0,1,.22-.21.22.22,0,0,1,.21.23.23.23,0,0,1-.23.21A.21.21,0,0,1,22.29,48.24Z"/><path class="cls-10" d="M25.29,49.71a.23.23,0,0,1,.23-.21.22.22,0,0,1,0,.43A.22.22,0,0,1,25.29,49.71Z"/><path class="cls-10" d="M20.6,49.64a.23.23,0,0,1,.23-.21.22.22,0,0,1,.21.23.22.22,0,0,1-.44,0Z"/><path class="cls-10" d="M23.67,49.5a.22.22,0,1,1,.21.22A.22.22,0,0,1,23.67,49.5Z"/><path class="cls-10" d="M25,48.1a.21.21,0,0,1,.22-.2.22.22,0,0,1,.21.22.23.23,0,0,1-.23.21A.21.21,0,0,1,25,48.1Z"/><path class="cls-10" d="M24.88,45.71a.21.21,0,0,1,.22-.21.22.22,0,1,1,0,.43A.21.21,0,0,1,24.88,45.71Z"/><path class="cls-10" d="M40.54,30.66a.22.22,0,0,1,.21-.22.21.21,0,0,1,.22.2.21.21,0,0,1-.2.23A.23.23,0,0,1,40.54,30.66Z"/><path class="cls-10" d="M36.4,31.18a.21.21,0,0,1,.2-.23.23.23,0,0,1,.23.21.22.22,0,0,1-.21.22A.21.21,0,0,1,36.4,31.18Z"/><path class="cls-10" d="M38.88,31.49a.22.22,0,0,1,.21-.23.21.21,0,0,1,.22.21.21.21,0,0,1-.2.22A.22.22,0,0,1,38.88,31.49Z"/><path class="cls-10" d="M43.76,30a.22.22,0,0,1,.21-.23.21.21,0,0,1,.22.21.22.22,0,0,1-.2.23A.23.23,0,0,1,43.76,30Z"/><path class="cls-10" d="M44.32,27.81a.22.22,0,0,1,.21-.22.22.22,0,1,1,0,.43A.22.22,0,0,1,44.32,27.81Z"/><path class="cls-10" d="M42.64,28.6a.23.23,0,0,1,.21-.23.21.21,0,0,1,.22.21.22.22,0,0,1-.21.23A.22.22,0,0,1,42.64,28.6Z"/><path class="cls-10" d="M45.38,33a.21.21,0,0,1,.2-.22.23.23,0,0,1,.23.21.22.22,0,0,1-.21.22A.21.21,0,0,1,45.38,33Z"/><path class="cls-10" d="M46.24,30.1a.22.22,0,0,1,.21-.23.22.22,0,0,1,.22.21.22.22,0,0,1-.43,0Z"/><path class="cls-10" d="M47.32,32.08a.21.21,0,0,1,.2-.22.22.22,0,1,1,0,.43A.21.21,0,0,1,47.32,32.08Z"/><path class="cls-10" d="M45.06,31.39a.21.21,0,0,1,.2-.22.22.22,0,1,1,0,.43A.21.21,0,0,1,45.06,31.39Z"/><path class="cls-10" d="M41.27,32.58a.22.22,0,0,1,.21-.22.21.21,0,0,1,.22.2.21.21,0,0,1-.2.23A.23.23,0,0,1,41.27,32.58Z"/><path class="cls-10" d="M47.64,28.54a.21.21,0,0,1,.2-.23.23.23,0,0,1,.23.21.22.22,0,0,1-.21.22A.21.21,0,0,1,47.64,28.54Z"/><path class="cls-10" d="M45.89,26.5a.21.21,0,0,1,.2-.23.23.23,0,0,1,.23.21.22.22,0,0,1-.21.22A.21.21,0,0,1,45.89,26.5Z"/><path class="cls-10" d="M44.61,25.27a.21.21,0,0,1,.2-.22.22.22,0,1,1,0,.43A.21.21,0,0,1,44.61,25.27Z"/><path class="cls-10" d="M47.84,24.41a.22.22,0,0,1,.44,0,.22.22,0,0,1-.21.23A.23.23,0,0,1,47.84,24.41Z"/><path class="cls-10" d="M48,26.94a.22.22,0,0,1,.21-.22.21.21,0,0,1,.22.2.21.21,0,0,1-.2.23A.23.23,0,0,1,48,26.94Z"/><path class="cls-10" d="M49.62,24.34a.22.22,0,0,1,.21-.23.21.21,0,0,1,.22.21.22.22,0,0,1-.2.23A.23.23,0,0,1,49.62,24.34Z"/><path class="cls-10" d="M48.9,21.88a.22.22,0,0,1,.21-.23.22.22,0,0,1,.22.21.22.22,0,0,1-.43,0Z"/><path class="cls-10" d="M47.82,20.71a.21.21,0,0,1,.2-.22.22.22,0,1,1-.2.22Z"/><path class="cls-10" d="M46.34,23.28a.22.22,0,0,1,.21-.23.21.21,0,0,1,.22.21.22.22,0,0,1-.2.23A.23.23,0,0,1,46.34,23.28Z"/><path class="cls-10" d="M45.85,21.36a.22.22,0,0,1,.21-.23.22.22,0,0,1,0,.44A.23.23,0,0,1,45.85,21.36Z"/><path class="cls-10" d="M50.45,29.87a.22.22,0,0,1,.21-.23.23.23,0,0,1,.23.21.22.22,0,0,1-.44,0Z"/><path class="cls-10" d="M50.23,26.92a.22.22,0,0,1,.21-.22.21.21,0,0,1,.22.2.21.21,0,0,1-.2.23A.23.23,0,0,1,50.23,26.92Z"/><path class="cls-10" d="M51.12,24.55a.21.21,0,0,1,.2-.23.23.23,0,0,1,.23.21.22.22,0,0,1-.21.22A.21.21,0,0,1,51.12,24.55Z"/><path class="cls-10" d="M53.51,27.67a.22.22,0,0,1,.21-.22.23.23,0,0,1,.23.21.22.22,0,0,1-.44,0Z"/><path class="cls-10" d="M52.46,26.08a.22.22,0,0,1,.21-.23.22.22,0,0,1,0,.44A.23.23,0,0,1,52.46,26.08Z"/><path class="cls-10" d="M52.54,31a.22.22,0,0,1,.21-.22.21.21,0,0,1,.22.2.21.21,0,0,1-.2.23A.23.23,0,0,1,52.54,31Z"/><path class="cls-10" d="M52.21,28.69a.22.22,0,0,1,.2-.23.23.23,0,0,1,.23.21.22.22,0,0,1-.21.23A.21.21,0,0,1,52.21,28.69Z"/><path class="cls-10" d="M55.24,30.15a.21.21,0,0,1,.2-.22.22.22,0,1,1,0,.43A.21.21,0,0,1,55.24,30.15Z"/><path class="cls-10" d="M55.58,29a.22.22,0,0,1,.21-.22A.21.21,0,0,1,56,29a.21.21,0,0,1-.2.23A.23.23,0,0,1,55.58,29Z"/><path class="cls-10" d="M56.86,31a.22.22,0,0,1,.21-.22.21.21,0,0,1,.22.2.22.22,0,0,1-.21.23A.22.22,0,0,1,56.86,31Z"/><path class="cls-10" d="M53.84,29.38a.22.22,0,0,1,.21-.22.21.21,0,0,1,.22.2.21.21,0,0,1-.2.23A.22.22,0,0,1,53.84,29.38Z"/><path class="cls-10" d="M53.89,33.21a.22.22,0,0,1,.43,0,.22.22,0,0,1-.21.23A.22.22,0,0,1,53.89,33.21Z"/><path class="cls-10" d="M54.54,31.52a.23.23,0,0,1,.21-.23.22.22,0,0,1,0,.44A.23.23,0,0,1,54.54,31.52Z"/><path class="cls-10" d="M55.9,33.34a.22.22,0,0,1,.44,0,.22.22,0,0,1-.21.23A.23.23,0,0,1,55.9,33.34Z"/><path class="cls-10" d="M53.51,34.84a.22.22,0,0,1,.21-.23.21.21,0,0,1,.22.21.21.21,0,0,1-.2.22A.22.22,0,0,1,53.51,34.84Z"/><path class="cls-10" d="M49.88,35.83a.21.21,0,0,1,.2-.23.23.23,0,0,1,.23.21.22.22,0,0,1-.21.22A.21.21,0,0,1,49.88,35.83Z"/><path class="cls-10" d="M49.87,33a.22.22,0,0,1,.21-.22.21.21,0,0,1,.22.21.21.21,0,0,1-.2.22A.23.23,0,0,1,49.87,33Z"/><path class="cls-10" d="M49.64,31a.22.22,0,0,1,.44,0,.22.22,0,0,1-.21.23A.23.23,0,0,1,49.64,31Z"/><path class="cls-10" d="M51.75,32.29a.22.22,0,0,1,.21-.22.21.21,0,0,1,.22.2.21.21,0,0,1-.2.23A.23.23,0,0,1,51.75,32.29Z"/><path class="cls-10" d="M51.74,34.48a.22.22,0,0,1,.21-.23.22.22,0,0,1,0,.43A.22.22,0,0,1,51.74,34.48Z"/><path class="cls-10" d="M58.19,35.19A.22.22,0,0,1,58.4,35a.23.23,0,0,1,.23.21.22.22,0,0,1-.44,0Z"/><path class="cls-10" d="M60.41,35.62a.21.21,0,0,1,.2-.22.22.22,0,1,1,0,.43A.21.21,0,0,1,60.41,35.62Z"/><path class="cls-10" d="M59.71,38.47a.22.22,0,0,1,.44,0,.22.22,0,0,1-.21.23A.23.23,0,0,1,59.71,38.47Z"/><path class="cls-10" d="M57.3,36.82a.22.22,0,0,1,.21-.23.22.22,0,1,1-.21.23Z"/><path class="cls-10" d="M60.38,40.59a.22.22,0,0,1,.44,0,.22.22,0,0,1-.21.23A.23.23,0,0,1,60.38,40.59Z"/><path class="cls-10" d="M56.79,45.6a.22.22,0,0,1,.44,0,.22.22,0,0,1-.21.23A.23.23,0,0,1,56.79,45.6Z"/><path class="cls-10" d="M58.22,43.66a.22.22,0,1,1,.23.21A.23.23,0,0,1,58.22,43.66Z"/><path class="cls-10" d="M53.67,46.47a.22.22,0,0,1,.21-.23.21.21,0,0,1,.22.21.21.21,0,0,1-.2.22A.22.22,0,0,1,53.67,46.47Z"/><path class="cls-10" d="M56.12,44.43a.22.22,0,0,1,.21-.23.22.22,0,0,1,.22.21.22.22,0,0,1-.43,0Z"/><path class="cls-10" d="M55.28,45.3a.22.22,0,0,1,.21-.23.23.23,0,0,1,.23.21.22.22,0,0,1-.44,0Z"/><path class="cls-10" d="M55.62,43a.22.22,0,0,1,.21-.23.23.23,0,0,1,.23.21.22.22,0,0,1-.44,0Z"/><path class="cls-10" d="M57.48,42.08a.21.21,0,0,1,.2-.22.22.22,0,1,1,0,.43A.21.21,0,0,1,57.48,42.08Z"/><path class="cls-10" d="M58.66,41.72a.21.21,0,0,1,.2-.22.22.22,0,1,1,0,.43A.21.21,0,0,1,58.66,41.72Z"/><path class="cls-10" d="M56.45,39.76a.22.22,0,0,1,.21-.22.21.21,0,0,1,.22.2.21.21,0,0,1-.2.23A.23.23,0,0,1,56.45,39.76Z"/><path class="cls-10" d="M54.63,38.69a.22.22,0,0,1,.21-.23.23.23,0,0,1,.23.21.22.22,0,0,1-.44,0Z"/><path class="cls-10" d="M58.41,38.47a.22.22,0,0,1,.21-.22.21.21,0,0,1,.22.2.21.21,0,0,1-.2.23A.23.23,0,0,1,58.41,38.47Z"/><path class="cls-10" d="M54.85,37a.22.22,0,0,1,.21-.23.22.22,0,0,1,0,.44A.23.23,0,0,1,54.85,37Z"/><path class="cls-10" d="M52.08,36.53a.22.22,0,0,1,.43,0,.22.22,0,0,1-.21.23A.22.22,0,0,1,52.08,36.53Z"/><path class="cls-10" d="M59.2,46a.21.21,0,0,1,.2-.22.22.22,0,1,1,0,.43A.21.21,0,0,1,59.2,46Z"/><path class="cls-10" d="M60.72,37.35a.22.22,0,0,1,.21-.22.21.21,0,0,1,.22.2.21.21,0,0,1-.2.23A.23.23,0,0,1,60.72,37.35Z"/><path class="cls-10" d="M60.85,43a.21.21,0,0,1,.2-.23.23.23,0,0,1,.23.21.22.22,0,0,1-.21.22A.21.21,0,0,1,60.85,43Z"/><path class="cls-10" d="M60,44.35a.22.22,0,0,1,.43,0,.22.22,0,0,1-.21.23A.22.22,0,0,1,60,44.35Z"/><path class="cls-10" d="M61.3,39.17a.22.22,0,0,1,.21-.22.21.21,0,0,1,.22.21.21.21,0,0,1-.2.22A.23.23,0,0,1,61.3,39.17Z"/><path class="cls-10" d="M61.34,41.65a.22.22,0,0,1,.21-.22.21.21,0,0,1,.22.2.21.21,0,0,1-.2.23A.23.23,0,0,1,61.34,41.65Z"/><path class="cls-10" d="M47.79,33.84a.21.21,0,0,1,.22-.21.22.22,0,0,1,.21.23.22.22,0,0,1-.22.2A.21.21,0,0,1,47.79,33.84Z"/><path class="cls-10" d="M48.25,36.3a.23.23,0,0,1,.23-.21.21.21,0,0,1,.2.22.21.21,0,0,1-.22.21A.22.22,0,0,1,48.25,36.3Z"/><path class="cls-10" d="M46.33,25a.23.23,0,0,1,.22-.21.22.22,0,0,1,.21.23.21.21,0,0,1-.22.2A.22.22,0,0,1,46.33,25Z"/><path class="cls-10" d="M45.1,22.52a.22.22,0,0,1,.22-.21.22.22,0,0,1,.21.23.21.21,0,0,1-.22.2A.22.22,0,0,1,45.1,22.52Z"/><path class="cls-10" d="M48.23,23a.21.21,0,0,1,.22-.21.22.22,0,0,1,.21.23.22.22,0,0,1-.22.21A.22.22,0,0,1,48.23,23Z"/><path class="cls-10" d="M42.86,32.35a.21.21,0,0,1,.22-.21.22.22,0,1,1,0,.43A.21.21,0,0,1,42.86,32.35Z"/></g></g></svg>