<svg xmlns="http://www.w3.org/2000/svg" viewBox="0 0 69 48.31"><defs><style>.cls-1{fill:#ededed;}.cls-2{fill:#eb5d45;}.cls-3{fill:#e52823;}.cls-4{fill:#cecece;}.cls-5{fill:#b1dde3;}.cls-6{fill:#798c67;}.cls-7{fill:#e9a061;}.cls-8{fill:#f4bdd8;}.cls-9{fill:#b27e4c;}.cls-10{fill:#92443f;}.cls-11{fill:#803124;}.cls-12{fill:#6fadb2;}.cls-13{fill:#ed88b6;}.cls-14{fill:#255827;}</style></defs><g id="Layer_2" data-name="Layer 2"><g id="Card"><path class="cls-1" d="M68.84,29.41s-6.46-6.25-6.66-6.55a2.53,2.53,0,0,0-.57-.54.93.93,0,0,1-.84.8c-.75.06-.8.31-1,0s-.63-1.1-.63-1.1v-.58a.51.51,0,0,1-.72-.11,1.21,1.21,0,0,1-.36-.82,1.19,1.19,0,0,1-.91-.12c-.36-.26-.45-1.45-.45-1.45V17.25l-2.89-2.32h-14l-7.5,1.13s-5.57.56-6.2.68a9.86,9.86,0,0,0-1.8.73l-5.9,15.28L24.1,43a13,13,0,0,1,1.45,2.79c.09.7.3,2.16.3,2.16H69Z"/><path class="cls-2" d="M41.49,19.81s-3.35.77-4.05,1.05a30.28,30.28,0,0,0-4,1.77A5.06,5.06,0,0,0,32,24.12a1.29,1.29,0,0,0-.11.51s.37.82.71,1.82.63,2,.82,2.57L34.06,31s2.63,4.72,2.92,5.27,1.25,2.12,1.25,2.12a5.37,5.37,0,0,0,2.85.32c1.31-.32,4.67-.65,6.29-1.17s7.05-1.88,7.73-2.07,2.44-.75,2.44-.75a4.16,4.16,0,0,0,1-2.13,4.31,4.31,0,0,0-.7-2.94c-.65-.88-3.16-3.75-3.63-4.21s-2.1-2.32-2.1-2.32-4.1-1.19-4.93-.93-1.61-3.23-1.61-3.23Z"/><path class="cls-3" d="M58.36,30.2c-.6-1.37-1.88-2.31-2.88-3.43-1.23-1.35-2.12-3.05-3.63-4.09-.17.18,0,.47.16.65l3.93,4.33A8.69,8.69,0,0,1,58.12,31,4.14,4.14,0,0,1,58,33.48a2.45,2.45,0,0,1-.68,1.05l.53-.15A4.27,4.27,0,0,0,58.36,30.2Z"/><path class="cls-3" d="M37.25,36.36a8.09,8.09,0,0,1-.7-1.21.21.21,0,0,0-.41,0A5.83,5.83,0,0,0,37,36.67l.67,1.1.64.23c-.09-.11-.28-.38-.36-.5Z"/><path class="cls-3" d="M39.92,37.3a23.29,23.29,0,0,1-2.37-3c-.1-.22-.44-.21-.44.06a14.65,14.65,0,0,0,1.63,2.17A12.06,12.06,0,0,0,40,38c.16.12.41.4.56.53l.51,0A7.88,7.88,0,0,1,39.92,37.3Z"/><path class="cls-3" d="M34.28,28.83c-.19-.34-.41-.68-.62-1a11.06,11.06,0,0,1-1.12-2c-.08-.36-.16-.72-.21-1.08a.21.21,0,0,0-.26-.3l0,0a3.8,3.8,0,0,1,.65-1,8.08,8.08,0,0,1,1.76-1.06c.9-.4,1.85-.72,2.77-1.08a32,32,0,0,1,3.21-.94l.92-.25a.2.2,0,0,0,.14-.25.22.22,0,0,0-.26-.14c-1.1.31-2.2.56-3.29.89-.68.22-1.35.5-2,.74-1.2.48-3.23,1.16-3.92,2.3-.11.25-.81,1.13-.3,1.23l.05,0a7,7,0,0,0,.3.88l.09.2c.15.57.35,1.13.51,1.69a25.67,25.67,0,0,0,1.12,3.23.21.21,0,0,0,.32-.26c-.17-.49-.41-.94-.54-1.45s-.26-.86-.4-1.29c.14.22.28.44.43.66.47.68.72,1.5,1.18,2.2a.2.2,0,0,0,.37-.17A16.36,16.36,0,0,1,34.28,28.83Z"/><path class="cls-3" d="M56.28,29.79c-.31-.4-.56-.84-.86-1.25s-.63-.64-.91-1c-.37-.48-.66-1-1-1.48-.3-.33-.53-.7-.85-1a5.5,5.5,0,0,1-.54-.54c-.19-.17-.36-.76-.68-.49a.24.24,0,0,0,0,.32c.11.16.23.33.36.49a8.31,8.31,0,0,1,1,1.12,14.67,14.67,0,0,1,1,1.43,11.69,11.69,0,0,0,1.23,1.42c.29.41.56.88.88,1.28.17.23.45.34.62.58,1,1.52-.93,2.47-2.14,2.84l-.18.07a5.79,5.79,0,0,0-.79-1.47,19,19,0,0,0-1.82-2.55c-.63-.86-1.13-1.82-1.77-2.67-.18-.17-.33-.54-.55-.69l-.38.14.08.11c.88,1.09,1.56,2.36,2.36,3.44A14.25,14.25,0,0,1,53,32a12.84,12.84,0,0,1,.87,1.42.79.79,0,0,1,.08.26l-.59.23c-.57.21-1.19.29-1.77.53s-1,.51-1.51.69c-.93.26-1.86.49-2.79.77s-2,.65-3,.91a8.39,8.39,0,0,1-1.86.24,3.78,3.78,0,0,1-2.72-1.57c-.34-.54-.77-1-1.07-1.61-.08-.2-.41-.18-.42.05a3.57,3.57,0,0,0,.61,1,6,6,0,0,0,1.23,1.52,3.42,3.42,0,0,0,1.66.94,3.27,3.27,0,0,0,1.36.05,13.88,13.88,0,0,0,3.53-.9c.57-.16,1.2-.34,1.77-.52a10.85,10.85,0,0,0,2.83-1,5.63,5.63,0,0,1,1.41-.5A16.25,16.25,0,0,0,54.41,34c1.23-.42,3-1,2.9-2.61a1.79,1.79,0,0,0-.55-1.14A3.89,3.89,0,0,1,56.28,29.79Z"/><path class="cls-3" d="M35.89,29.46c-.37-.52-.74-1-1.07-1.58a4.56,4.56,0,0,0,.75-.41c.4-.22.84-.36,1.26-.54,1.14-.49,2.25-1.06,3.39-1.56s2.2-.85,3.29-1.28a.2.2,0,0,0-.08-.4c-1.36.52-2.74,1-4.06,1.62-.82.35-1.61.77-2.43,1.13a16.32,16.32,0,0,0-1.61.7c-.21.12-.4.25-.62.35a.27.27,0,0,0-.08.07c-.1-.19-.2-.38-.29-.57-.41-.84-1.18-2-.73-3a7,7,0,0,1,2.17-1.1,15.89,15.89,0,0,1,2.8-1c1.14-.34,2.22-.88,3.36-1.21.17-.11.49-.07.48-.33-.08-.43-.72,0-1,.05-.92.31-1.91.77-2.9,1.08a25.32,25.32,0,0,0-3.72,1.4c-1.32.48-2,.91-1.65,2.45a8.62,8.62,0,0,0,.77,1.76,11,11,0,0,0,1,1.66l.56.81c.1.13.19.32.38.32A.21.21,0,0,0,35.89,29.46Z"/><path class="cls-3" d="M32.84,27,35,30.77c.45.77,3.08,4.72,3.63,5.33s2.2,2.55,2.2,2.55a6.31,6.31,0,0,1-1.75-.1,4.25,4.25,0,0,1-1.54-.76S33.78,30,33.37,29A8.89,8.89,0,0,1,32.84,27Z"/><path class="cls-3" d="M34.82,27.88a18.16,18.16,0,0,1,4-2C40,25.47,42.4,24.3,43,24.08S46.47,23,46.47,23a34.21,34.21,0,0,1,2.89,3.22c.35.66,2.66,4,2.66,4l2,3.22.1.42s3.07-1.14,3-2.17-1.66-2.78-1.91-3.05-2.38-3-2.82-3.51-1-1.07-1-1.07L45.7,19.56l-4.08,1S37.48,22,36.51,22.41s-2.79,1-3.06,1.55a2.64,2.64,0,0,0,.12,2.11C33.91,26.63,34.82,27.88,34.82,27.88Z"/><path class="cls-4" d="M33.76,46.92c-.57-1.62-1.08-3.31-1.56-5a38,38,0,0,0-1.34-4.45c0-.13-.11-.25-.26-.23-.4.1,0,.68.09.94.17.5.32,1,.47,1.51.4,1.24.66,2.51,1.06,3.74.43,1.53,1,3,1.48,4.51a.21.21,0,0,0,.38-.16C34,47.51,33.87,47.23,33.76,46.92Z"/><path class="cls-4" d="M25.74,45.75a4.31,4.31,0,0,0-.13-.8.21.21,0,0,0-.24-.17.2.2,0,0,0-.16.24,4.48,4.48,0,0,1,.11.6h0a2.45,2.45,0,0,1,0,.27,1.79,1.79,0,0,1,0,.23s0,0,0,0a10.6,10.6,0,0,0,.16,1.13c0,.21.08.38.1.59a.56.56,0,0,0,.05.23.22.22,0,0,0,.17.09.21.21,0,0,0,.21-.2c0-.46-.16-.9-.22-1.35Z"/><path class="cls-4" d="M30.6,24.84a10.13,10.13,0,0,1-.69-1.67.21.21,0,0,0-.41,0,4,4,0,0,0,.37,1c.34.69.62,1.42.89,2.14.44,1.08.81,2.2,1.25,3.28.25.53.42,1.07.66,1.61A.2.2,0,0,0,33,31.1c-.26-.62-.5-1.28-.78-1.9C31.72,27.74,31.19,26.28,30.6,24.84Z"/><path class="cls-4" d="M27,26.25a23.71,23.71,0,0,1-.88-2.62.21.21,0,0,0-.42,0,21.56,21.56,0,0,0,.89,2.64c.55,1.73,1.15,3.44,1.75,5.15a.21.21,0,1,0,.39-.13c-.22-.67-.47-1.33-.7-2C27.68,28.3,27.35,27.27,27,26.25Z"/><path class="cls-4" d="M35.64,45.34c-.52-1.46-.91-3-1.41-4.46-.26-.68-.54-1.33-.74-2s-.36-1.15-.56-1.72a.35.35,0,0,0-.1-.19.21.21,0,0,0-.32.24c.16.41.3.83.43,1.25.43,1.55,1.13,3,1.53,4.59.36,1.26.79,2.51,1.25,3.74.13.36.24.72.35,1.08.07.15,0,.4.26.43s.2-.36.13-.57C36.23,46.9,35.93,46.13,35.64,45.34Z"/><path class="cls-4" d="M30.47,31.06c-.34-.84-.66-1.69-1-2.54-.55-1.65-1.1-3.31-1.8-4.9a.2.2,0,0,0-.39.11c1.06,2.45,1.76,5.05,2.79,7.52A.21.21,0,1,0,30.47,31.06Z"/><path class="cls-4" d="M25.48,17.18a2.93,2.93,0,0,1,1-.36c1.56-.13,3.12-.25,4.67-.44a10.67,10.67,0,0,0,1.58-.2c.69-.08,1.43-.24,2.13-.32a.21.21,0,0,0,.12-.36c-.13-.1-.3,0-.45,0-.36,0-.72.11-1.08.17-.52.07-1.06.15-1.61.25s-1.05.05-1.61.16c-1.27.17-2.56.2-3.84.35-.29,0-1.75.48-1.21.9C25.29,17.39,25.37,17.25,25.48,17.18Z"/><path class="cls-4" d="M25.5,41.35a.21.21,0,0,0-.39.06c.31,1.1.6,2.23.92,3.33s.52,2.1.81,3.14a.21.21,0,0,0,.41-.06c-.1-.5-.31-1-.42-1.51C26.42,44.65,26,43,25.5,41.35Z"/><path class="cls-4" d="M54.13,15.53c.25.22.51.42.78.62s.52.54.8.79.56.47.81.75a.21.21,0,0,0,.25-.33l-.1-.11c-.24-.24-.53-.45-.78-.7s-.49-.54-.78-.77-.52-.4-.77-.61a.21.21,0,0,0-.36.19A.49.49,0,0,0,54.13,15.53Z"/><path class="cls-4" d="M61.8,22.71c.55.5,1,1.06,1.53,1.6.71.78,1.47,1.56,2.2,2.34,1,1,2.13,2,3,3.08a.21.21,0,1,0,.26-.32c-.23-.28-.47-.56-.73-.82-1-1-2-1.89-3-2.94-.61-.64-1.21-1.26-1.8-1.91a18.65,18.65,0,0,0-1.31-1.36.32.32,0,0,0-.22-.12C61.56,22.25,61.53,22.7,61.8,22.71Z"/><path class="cls-4" d="M54.58,17a23.55,23.55,0,0,0,2.09,1.9.21.21,0,0,0,.25-.15.22.22,0,0,0-.09-.22l-.58-.49-1.31-1.28a4.81,4.81,0,0,1-.78-.71.21.21,0,0,0-.38.18A3.45,3.45,0,0,0,54.58,17Z"/><path class="cls-4" d="M66.43,29.47c.7.84,1.53,1.6,2.16,2.51a.21.21,0,0,0,.38-.06c0-.2-.17-.35-.28-.5-.39-.47-.76-.93-1.19-1.36-2.07-2.41-4.28-4.64-6.34-7.06a.2.2,0,0,0-.39.12,5.89,5.89,0,0,0,.64.78C63,25.83,64.8,27.55,66.43,29.47Z"/><path class="cls-4" d="M57,24.56a.75.75,0,0,0,.24,0c.35,0,.44-.37.28-.84a3.43,3.43,0,0,0-1.24-1.43c-.12-.06-.26-.19-.41-.17a.37.37,0,0,0-.35.16.84.84,0,0,0-.06.14v0h0s0,.08,0,.12h0a.94.94,0,0,0,0,.16v0h0a3,3,0,0,0,.35.66,3.5,3.5,0,0,0,.24.3l.24.26.08.07h0l0,0h0l.35.31A1.33,1.33,0,0,0,57,24.56Zm-.37-.79h0a.42.42,0,0,0,0,.1Z"/><path class="cls-4" d="M43.39,43.92c-.37-.8-1-3-1.82-3.21s-.19,2.08-.11,2.55a18.33,18.33,0,0,0,.95,2.56c.28.69.63,1.38.94,2.06a.23.23,0,0,0,.2.22c.31,0,.22-.34.11-.52-.22-.49-.46-1-.67-1.45a12.9,12.9,0,0,1-1.43-5,4.27,4.27,0,0,1,.85,1.42c.19.42.33.85.5,1.27.39,1,1,1.93,1.43,2.89.18.35.35.7.51,1.06,0,.14.12.32.32.26s-.13-.72-.2-1C44.48,46,43.85,45,43.39,43.92Z"/><path class="cls-4" d="M48.91,46.13a35.08,35.08,0,0,1-1.82-3.36,15.85,15.85,0,0,0-1.34-2.42c-.14-.2-.52-.49-.73-.2s0,.49,0,.73a16.39,16.39,0,0,0,1.8,4.88c.36.72.67,1.45,1.05,2.16h.42c-1-2.41-2.59-4.68-2.89-7.35a4.31,4.31,0,0,1,.39.56c.56,1,1,2,1.49,3A38,38,0,0,1,49.36,48l.33,0h.1l-.1-.2A16.86,16.86,0,0,0,48.91,46.13Z"/><path class="cls-4" d="M50.63,41.84c-.4-.56-1.12-2.42-1.72-2.54s-.06.82,0,1.1a26.33,26.33,0,0,0,1.16,3.76c.36.81.88,1.52,1.3,2.3.21.37.43.74.63,1.12l.24.47h.47c-.22-.39-.41-.81-.64-1.19-.48-.86-1-1.69-1.48-2.54-.3-.61-.46-1.27-.71-1.9s-.38-1.45-.59-2.17c.63,1.15,1.29,2.27,1.9,3.42s1.14,2.32,1.72,3.47c.15.28.31.56.44.85,0,0,0,.07.05.1h.46l0,0C52.75,46,51.8,43.86,50.63,41.84Z"/><path class="cls-4" d="M56.44,44.32h0l-.07-.12c-.61-1.07-1.31-2.05-1.87-3.16-.29-.61-1.35-3-2.18-2.67s1,3.69,1.16,4.4c.4,1,.88,2,1.37,3a25.11,25.11,0,0,1,1.25,2.35h.41a2.82,2.82,0,0,0-.33-.78c-.21-.39-.41-.77-.64-1.15a32.89,32.89,0,0,1-1.95-4.22,17.35,17.35,0,0,1-1.05-3,.31.31,0,0,1,0-.14c1.11.86,1.4,2.37,2.17,3.5s1.25,2.06,1.88,3.1.94,1.81,1.49,2.66h.5c-.15-.2-.27-.43-.41-.64C57.58,46.38,57.08,45.31,56.44,44.32Z"/><path class="cls-4" d="M56.44,44.32h0v0Z"/><polygon class="cls-4" points="56.48 48.23 56.48 48.23 56.48 48.23 56.48 48.23"/><path class="cls-4" d="M58.66,41.14c-.41-.55-1.71-3.85-2.56-3a2.15,2.15,0,0,0,.2,1.71c.24.6.49,1.19.72,1.79.31.84.66,1.63,1,2.46.72,1.3,1.53,2.56,2.19,3.9h.46a.61.61,0,0,1,0-.12c-.28-.56-.58-1.11-.89-1.65-.47-.91-1.09-1.74-1.51-2.69-.27-.7-.6-1.39-.86-2.1s-.48-1.2-.71-1.8a2.12,2.12,0,0,1-.25-1.23,3,3,0,0,1,.85,1c.3.53.57,1.07.87,1.6l0,0,0,0v0h0l.17.3c.87,1.53,1.76,3,2.49,4.66.29.63.61,1.25.93,1.86h.48c-.18-.36-.39-.69-.56-1.05A63.62,63.62,0,0,0,58.66,41.14Z"/><path class="cls-4" d="M65.08,46.18c-.6-1.14-1.16-2.3-1.82-3.41-.91-1.53-1.59-3.18-2.54-4.68-.34-.45-1.09-1.56-1.65-1.6-.34,0-.35.36-.29.6a14.87,14.87,0,0,0,.95,2.64c.39.89.78,1.82,1.25,2.68.82,1.58,1.67,3.13,2.58,4.65.19.3.33.64.52.94h.47c-.23-.38-.44-.82-.68-1.21-1.13-1.9-2.2-3.83-3.15-5.83a22.9,22.9,0,0,1-1.54-4c1.25,1,1.86,2.58,2.62,4,.57,1.18,1.26,2.29,1.88,3.44s1.18,2.24,1.74,3.38a2,2,0,0,1,.08.26h.38a.24.24,0,0,0,0-.23A14,14,0,0,0,65.08,46.18Z"/><path class="cls-4" d="M69,46.3v-.1c-.76-1.5-1.51-3-2.41-4.44A35.93,35.93,0,0,1,64,37.39a6.41,6.41,0,0,0-1.27-1.93c-.62-.53-1,0-.82.65a50.65,50.65,0,0,0,1.86,5c.39.84.7,1.76,1.14,2.59s1,1.8,1.59,2.68c.27.4.57.79.81,1.22.08.13.16.26.24.41h.48a2.18,2.18,0,0,1-.14-.25,13.86,13.86,0,0,0-.9-1.4c-.44-.64-.81-1.31-1.21-2l0,0-.24-.4a26.42,26.42,0,0,1-1.44-3.15v0c-.43-1.1-.88-2.18-1.3-3.28a6.54,6.54,0,0,1-.54-1.93c1,.65,1.62,2.7,2.29,3.75S66,41.65,66.71,42.8c.81,1.4,1.52,2.86,2.26,4.3v-.8Z"/><path class="cls-4" d="M65.62,36.89A8.19,8.19,0,0,1,65.07,35c.61.78,1.07,1.73,1.63,2.56a23.37,23.37,0,0,1,1.82,3.47l.42.88V41.5a2.31,2.31,0,0,1,0-.37.17.17,0,0,1,0-.07l0-.08c-.37-.79-.7-1.61-1.14-2.37s-.92-1.5-1.38-2.25a10.62,10.62,0,0,0-1.12-1.7c-.2-.21-.57-.3-.63.07A4.24,4.24,0,0,0,65,36.37c.28.81.61,1.59.94,2.38a27.76,27.76,0,0,0,2,3.6c.36.61.65,1.26,1,1.89h0V44l0,0v0a1.21,1.21,0,0,1,0-.19v-.23a.28.28,0,0,1,0-.09.08.08,0,0,1,0,0h0v0c-.57-1.25-1.4-2.36-2-3.56A21.72,21.72,0,0,1,65.62,36.89Z"/><path class="cls-4" d="M68.93,36.58a1.84,1.84,0,0,1,0-.33c0-.06,0-.11,0-.16l0-.23-.3-.52c-.22-.39-1.09-2.41-1.65-1.64a2,2,0,0,0,.18,1.21c.2.54.43,1.06.66,1.59s.6,1.2.86,1.82c.07.15.14.3.2.46v-.17c0-.15,0-.31,0-.46l0-.31A18.62,18.62,0,0,1,67.42,34a10.62,10.62,0,0,1,1.13,1.89Z"/><path class="cls-4" d="M60.25,34.08c1.6-.5,3.41-1.23,3.91-2.83a3,3,0,0,0,.12-.84,3.89,3.89,0,0,0-.56-1.92,10.39,10.39,0,0,0-1.84-2.19l-8.6-8.47a2.6,2.6,0,0,0-.55,1.42c0,.14,0,.34.18.33s.17-.14.2-.25c.08-.28.15-.57.23-.86l8.38,8.24a9.49,9.49,0,0,1,1.6,1.87,3.25,3.25,0,0,1,.47,2.36,3.8,3.8,0,0,1-2.53,2.4c-1.14.42-5.06,1.52-5.3,1.59l-1,.3c-.69.21-1.38.4-2.07.59-1.38.38-2.77.74-4.16,1.07s-2.79.66-4.2,1l-.61.12c-2.11.43-4.41.79-6.34-.17A12,12,0,0,1,35.12,36a.27.27,0,0,0-.18-.1c-.14,0-.23.16-.2.29a.68.68,0,0,0,.26.32,10.81,10.81,0,0,0,3.24,2,10.65,10.65,0,0,0,5.57-.1A163.52,163.52,0,0,0,60.25,34.08Z"/><polygon points="62.19 32.92 62.19 32.92 62.19 32.92 62.19 32.92"/><path d="M62.18,32.92Z"/><path d="M62.18,32.92Z"/><path d="M62.18,32.92h0Z"/><polygon points="63.09 32.76 63.09 32.75 63.09 32.76 63.09 32.76"/><polygon points="63.1 32.75 63.1 32.75 63.09 32.75 63.1 32.75"/><path d="M62.18,32.92Z"/><path d="M62.18,32.92Z"/><polygon points="62.19 32.92 62.19 32.92 62.19 32.92 62.19 32.92"/><polygon points="57.81 33.92 57.81 33.92 57.81 33.92 57.81 33.92"/><path class="cls-5" d="M40.81,12.25s.56-2.31,3.77-3.69,5.5-1,7.2.35,2.94,4.11,2.38,5.63-.57,3.83-3.12,4.72-6,3.48-9,.69-2.35-4-2.13-5.26A8.53,8.53,0,0,1,40.81,12.25Z"/><path class="cls-6" d="M53.15,18c-.35.14-.53.12-.94.26s-.82.14-.81.41.05.49.53.58a3.78,3.78,0,0,0,1.45.1c.47-.09,1.07-.24,1,0a1.61,1.61,0,0,1-1,1.43c-1,.44-1.12,1-2.34,1.21s-1.69.36-1.69.36H45.29s-.59-2.6-.74-3a2.22,2.22,0,0,1-.14-.74,23.5,23.5,0,0,1,2.45-.83,7.64,7.64,0,0,0,2.86-1.2c.47-.47,1.63-1,1.9-.87s.38,1.12.82,1.32S53.53,17.88,53.15,18Z"/><path class="cls-7" d="M40.62,12.68s2.48.09,2.25.52.24.73-.33.85A4.41,4.41,0,0,1,41,13.89a.64.64,0,0,1-.23.79c-.44.4-.55.27-.84.81a2,2,0,0,0,0,1.68,1.36,1.36,0,0,1,.25.53,7.15,7.15,0,0,0-1,.14,4,4,0,0,0-1,.42,25,25,0,0,1-3.69,2.47c-1.66.71-2.81,1.56-3.71,1.93a6.43,6.43,0,0,1-2.37.84l-6.6.89-.95,1.68,2.09,3.71a13,13,0,0,0,3.92,1.32,37.76,37.76,0,0,0,6,.07,4.88,4.88,0,0,0,1.61-.54s2-1.22,2.73-1.61,2.69-2,3.5-2.53,2.86-2.68,3.48-3.13a6.85,6.85,0,0,1,2.1-1.48A15.73,15.73,0,0,0,48.53,21c.38-.2.84-.42,1.1-.32s.41.13.3.42-.58,1.34-.58,1.34a11.19,11.19,0,0,0,1.52-.3,12.32,12.32,0,0,0,1.45-.6,2.62,2.62,0,0,1-.26,1.22c-.28.42-.54.88-.54.88a.81.81,0,0,1-.25.89A10.36,10.36,0,0,1,49,26.18a12.75,12.75,0,0,1-2.52.24c-.28,0-.92,0-.92,0s-2.79,3.18-3.39,3.75a51.86,51.86,0,0,1-4.62,4.2,29.15,29.15,0,0,1-5.45,2.72,33.44,33.44,0,0,1-5.16,1.18c-1.37.12-2.78.11-2.78.11L8,29.44s.78-5.22,1.19-5.75,8.29-7.29,8.29-7.29l4-.95,3.3.95a2.78,2.78,0,0,1,.64.94,2.36,2.36,0,0,1-.09,1.05l-.65.62-.05.26A4.28,4.28,0,0,1,26,19h1.18s-.11-.11.52-.49a15.63,15.63,0,0,1,3-1.12,28.61,28.61,0,0,0,3-1.1c.66-.29,2.13-.89,2.39-1s1.07-.18,1.27-.58.66-1.39.88-1.83a3.41,3.41,0,0,1,1-1.17,1.56,1.56,0,0,1,1-.4,2,2,0,0,1,.79.18Z"/><path class="cls-8" d="M18.18,25.33s.74,2.21.32,2.22-1.4-.49-2.42-.55a18.19,18.19,0,0,0-4.3.47c-1.15.29-2.7.76-2.7.76a7.22,7.22,0,0,0,.46-1.53,26.19,26.19,0,0,0-.21-3.14L9,22.76a13.57,13.57,0,0,0-1.59,1.8,5,5,0,0,0-.29,2.85,26.56,26.56,0,0,1,.36,2.78c0,.8.37,2.1.54,3.24s1.13,3.74,1.31,5.37.64,4.6.8,5.87a14.28,14.28,0,0,0,1,3.1,25.18,25.18,0,0,0,7.27.51,26.64,26.64,0,0,0,6.35-.73,8.19,8.19,0,0,0,.6-3.14c-.24-.94-.86-3-.86-3l.39-.23s1.1.36,1.42-.21a13.41,13.41,0,0,0,.59-2.68l-2.07,0,.12-1.5a10.29,10.29,0,0,1,0-3.33,5.82,5.82,0,0,1,1-1.79c.31-.17,1-.52.9-.5s0-.37-1.12-.47a5.66,5.66,0,0,1-1.7-.34,1.13,1.13,0,0,0-.16-1c-.34-.34-.86-.71-.86-1a5.1,5.1,0,0,0-.4-2.24,10.47,10.47,0,0,0-1.26-1.42s-2.24.68-2.46.71A5.19,5.19,0,0,1,18.18,25.33Z"/><path class="cls-9" d="M34.5,35a.22.22,0,0,0,.06.29c.16.1.49,0,.45-.22a.21.21,0,0,0-.28-.16A.25.25,0,0,0,34.5,35Z"/><path class="cls-9" d="M8.71,21.62a7.67,7.67,0,0,0-1.34-1.33,8.78,8.78,0,0,0-1.86-1.22A.4.4,0,0,0,5.25,19a.19.19,0,0,0-.16.23c0,.1.22.18.31.23a10.73,10.73,0,0,1,2.44,1.77,4.83,4.83,0,0,1,1.39,2.63c0,.1,0,.22.14.23a8.31,8.31,0,0,1-.24,3.41.66.66,0,0,0-.05.28.19.19,0,0,0,.16.19c.12,0,.19-.11.24-.21.43-1,.1-2.22.51-3.23l-.22.38A5.86,5.86,0,0,0,8.71,21.62Z"/><path class="cls-9" d="M39.39,12.17a.21.21,0,0,0-.1.39,12.51,12.51,0,0,0,1.49.38,7.34,7.34,0,0,1,1.81.35c.13.06.12.24.06.34s-.44.27-.68.3a2.41,2.41,0,0,1-.6,0,1.08,1.08,0,0,0-.36,0,.41.41,0,0,0-.23-.25.2.2,0,0,0-.24.16c0,.12.05.17.1.27a.32.32,0,0,1,0,.34c-.2.53-.88.74-1,1.32a3.77,3.77,0,0,0,.09,1.06.21.21,0,0,0,.37-.18c0-.22,0-.45-.05-.67a.34.34,0,0,1,.09-.32c.35-.4.92-.77,1-1.33.18,0,.34,0,.53.06A1.58,1.58,0,0,0,43,13.93a.66.66,0,0,0-.15-1,12.83,12.83,0,0,0-2.42-.5C40.05,12.36,39.72,12.25,39.39,12.17Z"/><path class="cls-9" d="M27.44,23.76a13.45,13.45,0,0,0,1.88-.33,7.62,7.62,0,0,0,1.73-.77c.74-.35,1.46-.74,2.19-1.11a40.73,40.73,0,0,0,5.24-3.29,2.76,2.76,0,0,1,1.1-.25c.21,0,.65,0,.61-.31s-.26-.16-.41-.13a3.19,3.19,0,0,0-1.74.48c-1.21.81-2.37,1.67-3.61,2.43-.77.44-1.59.79-2.36,1.22-.54.29-1.11.53-1.65.83a6.15,6.15,0,0,1-2,.67c-1.31.16-2.58.49-3.89.59-.74.09-1.48.12-2.21.25a2.9,2.9,0,0,0,.25-.36c.1-.18.16-.37.27-.54A1.4,1.4,0,0,0,23.3,22a2.83,2.83,0,0,0,1.07-2.53l.11-.05a4.8,4.8,0,0,1,.87-.12,5.75,5.75,0,0,1,1.55-.08h0a1.86,1.86,0,0,0,.3,1.3h0a.2.2,0,0,0,.38-.15,2,2,0,0,0-.14-.25c-.45-1.12.13-1.45,1.08-1.85a32.33,32.33,0,0,1,3.36-1,14.4,14.4,0,0,0,2.32-.88,9,9,0,0,1,1.85-1,3.85,3.85,0,0,1,1.11-.23.22.22,0,0,0,.19-.22l0,0c.74-.78.9-3.55,3.15-3.42a.8.8,0,0,1,.27,0,.21.21,0,0,0,.13-.39,2.44,2.44,0,0,0-2.36.75,6.23,6.23,0,0,0-1.07,2,2.18,2.18,0,0,1-.53.85.19.19,0,0,0-.14.07h-.11c-1.26.16-2.18,1.08-3.32,1.54a38.46,38.46,0,0,1-3.74,1.12,4.93,4.93,0,0,0-2.54,1.28s0,.05,0,.07h0a6.52,6.52,0,0,0-1.92.08H25a1.29,1.29,0,0,0,.59-1.15,1.4,1.4,0,0,0-.38-1.06c-.12-.18-.3-.4-.23-.64a.21.21,0,1,0-.42,0c-.07.5.37.84.57,1.26a1.35,1.35,0,0,1-.12,1,1.9,1.9,0,0,1-.73.45l-.08,0c0-.12,0-.23-.19-.25s-.24.33-.19.52a1.28,1.28,0,0,1,.14.47,2.83,2.83,0,0,1-.28,1.3,2.36,2.36,0,0,1-.33.58c-.12.13-.3.17-.43.29s0,.38,0,.57-.23.38-.34.57-.25.53-.42.77a2.58,2.58,0,0,1-1.24,1,23.61,23.61,0,0,1-2.51.47,9.55,9.55,0,0,0-1.07.18.21.21,0,0,0-.19.19.2.2,0,0,0,.18.22c1-.19,2-.28,3-.51a2.94,2.94,0,0,0,1.58-.74.67.67,0,0,0,.2,0l.74-.14c.7,0,1.41-.13,2.11-.19S26.62,23.9,27.44,23.76ZM40.5,11.49h0Z"/><path class="cls-9" d="M38.91,27.54c-.93.59-1.86,1.29-2.82,1.83a20.71,20.71,0,0,0-2.39,1.55.19.19,0,0,0-.17-.07A16,16,0,0,1,31,31c-1.06.06-2.12.1-3.18.11a8.29,8.29,0,0,0-1.22,0c-.15,0-.34,0-.46.12a.21.21,0,0,0,0,.29.2.2,0,0,0,.14.06,5.75,5.75,0,0,1,.93-.1c1.37,0,2.74-.06,4.12-.11.6,0,1.21,0,1.82-.06l.24,0a.4.4,0,0,0,0,.28.2.2,0,0,0,.37-.17.12.12,0,0,1,0,.1h0a2.08,2.08,0,0,1,.76-.71l1.86-1.12a39.41,39.41,0,0,0,5.3-3.8l1.36-1.25a14.06,14.06,0,0,1,2.15-1.93,14.83,14.83,0,0,1,2.87-1.22c.44-.14.78-.49,1.23-.57.13,0,.38,0,.43.1-.07.45-.49.73-.62,1.16a.21.21,0,0,0,.38.16c.12-.37.45-.6.56-1a.63.63,0,0,0,0-.58c-.25-.37-.81-.33-1.19-.19a2.09,2.09,0,0,0-.46.26,7.75,7.75,0,0,1-.78.35c-2.85.89-3.36,1.64-5.39,3.59A30.72,30.72,0,0,1,38.91,27.54Z"/><path class="cls-9" d="M52.44,22.27c.06-.18.2-.59-.09-.63s-.25.19-.25.35a2.25,2.25,0,0,1-.37.84,3.9,3.9,0,0,1-.94,1.08,2.76,2.76,0,0,1-.52.25.41.41,0,0,0-.22.17.22.22,0,0,0,.12.27.22.22,0,0,0,.22,0,2.72,2.72,0,0,0,1-.62,3.61,3.61,0,0,1-.36.51,3.21,3.21,0,0,1-.88.67c-.1.06-.24.07-.29.19s0,.05,0,.07a3.38,3.38,0,0,1-2.2.77c-.62.06-1.27,0-1.89,0a3.28,3.28,0,0,0-.23-.59c-.08-.34,0-.7-.11-1.05,0-.15,0-.31-.22-.31-.35,0-.14.47-.13.69a3.94,3.94,0,0,0,.06.77c.07.19.17.38.23.58a1.26,1.26,0,0,0-.24.22c-1.26,1.41-2.53,2.84-3.84,4.22-.44.47-.92.9-1.4,1.32S39,33,38.48,33.41a10.14,10.14,0,0,1-1.91,1.32c-.46.27-.94.51-1.38.79l-.23.15-.18.08c-1,.49-2.07.86-3.12,1.25q-.82.26-1.68.45a.78.78,0,0,0-.37,0c-.43.07-.89.26-1.33.35a15.71,15.71,0,0,1-3.28.3.18.18,0,0,1,.09,0,.2.2,0,1,0-.25.32.42.42,0,0,0,.25,0,16.2,16.2,0,0,0,3.4-.33l1-.28v0a19.52,19.52,0,0,0,3.05-.86c.87-.35,1.76-.66,2.61-1.08h0a.21.21,0,0,0,.1-.06,6.82,6.82,0,0,1,.7-.42,16.64,16.64,0,0,0,2.24-1.38,17.19,17.19,0,0,0,1.92-1.8,75.35,75.35,0,0,0,5.43-5.73s0,0,.05-.06,0,0,0,0a16.16,16.16,0,0,0,3.27-.23s.46-.17.46-.17a3.91,3.91,0,0,0,.44-.26,4.85,4.85,0,0,0,.61-.51h0a3.37,3.37,0,0,0,.91-.72c.17-.21,1-1.12.51-1.3l.09-.12A2.82,2.82,0,0,0,52.44,22.27Z"/><path class="cls-10" d="M16.24,18.19a13.53,13.53,0,0,1-5.52,1.56,37.93,37.93,0,0,1-6.12-.62,6.16,6.16,0,0,0-1.55,0l-.89.3a13.92,13.92,0,0,0-.68-1.72,15.42,15.42,0,0,1-1.22-3.9,14.47,14.47,0,0,1,.6-5.07c.65-1.39,1.65-4.22,3.61-5.56s5-3,6.55-3a32.91,32.91,0,0,1,7.71,1c1.52.54,4.64,1.85,5.84,3.94s3.34,3.35,3.16,5.52-.05,3.23-1,4a11.93,11.93,0,0,1-3,1.86,9.08,9.08,0,0,1-2.91,1,20.37,20.37,0,0,0-3.71.18A2.73,2.73,0,0,0,16.24,18.19Z"/><path class="cls-11" d="M7.86,2.88a5.61,5.61,0,0,0-.56.87,7.36,7.36,0,0,0-.82,3.08c-.11,1.86.18,3.72.11,5.58A8.07,8.07,0,0,1,4.77,17a7,7,0,0,1-.63.57c-.15.14-.53.27-.36.53a.21.21,0,0,0,.31,0,6.4,6.4,0,0,0,.51-.4,6.22,6.22,0,0,0,1.84-2.8c1.06-2.58.28-5.38.45-8.07a7,7,0,0,1,.78-2.93,4.48,4.48,0,0,1,.4-.64c.11-.13.26-.3.08-.44A.22.22,0,0,0,7.86,2.88Z"/><path class="cls-11" d="M27.83,10.27a5.2,5.2,0,0,0-.17-.68,12.42,12.42,0,0,0-2.94-4.67,15.6,15.6,0,0,0-2.43-2.24C19.86.93,16.79.34,13.81.09a11.81,11.81,0,0,0-4.4.25,13.73,13.73,0,0,0-2.9,1.37A16.27,16.27,0,0,0,3.78,3.54,11.46,11.46,0,0,0,.68,8.79a11.34,11.34,0,0,0-.29,6.74c.38,1.21,1,2.32,1.37,3.54a1.05,1.05,0,0,0,.12.31c.27.36.82.09,1.23-.07,1.3-.52,2.69.39,3.79,1.25a9.49,9.49,0,0,1,2,1.91,3.16,3.16,0,0,1,.55,2.61l.18,0a.66.66,0,0,0,.17-.12.61.61,0,0,0,.21-.34.8.8,0,0,1,.09-.31,3.25,3.25,0,0,1,.35-.39,4.41,4.41,0,0,1,.51-.46,5.71,5.71,0,0,1,1.14-.74l.43-.18a3.63,3.63,0,0,0,1.93,1.56,1.84,1.84,0,0,0,.87.24.61.61,0,0,0,.58-.59,3,3,0,0,1-2-.34,2.23,2.23,0,0,1-1-1.18,1.47,1.47,0,0,1,.3-1.49,1.75,1.75,0,0,1,1.4-.42A3,3,0,0,1,17,21.94V19.6a2.2,2.2,0,0,1,.23-1.19c.47-.77,1.58-.69,2.48-.67a7.81,7.81,0,0,0,2.58-.39A15.15,15.15,0,0,0,24,16.62a8.39,8.39,0,0,0,2.77-1.78A5.36,5.36,0,0,0,27.83,10.27ZM13.2,23.36Zm13.91-10a4.7,4.7,0,0,1-.73,1.38A4.59,4.59,0,0,1,24.26,16a6.21,6.21,0,0,0,1.37-2.88c.07-.36.31-2.53-.37-2.29a.2.2,0,0,0-.07.28,4,4,0,0,1,0,2,5.82,5.82,0,0,1-1.38,2.73,5.24,5.24,0,0,1-1.14,1,6.76,6.76,0,0,1-1.17.41l-.81.11a5.91,5.91,0,0,0,.54-1,9.59,9.59,0,0,0,.73-4.1A10.14,10.14,0,0,0,21.16,9l-.24-.62c-.06-.18-.06-.49-.32-.47a.21.21,0,0,0-.15.32,5.78,5.78,0,0,0,.24.7c.21.54.42,1.09.58,1.65a8.44,8.44,0,0,1-.6,6,6.41,6.41,0,0,1-.55.81h-.06c-.31,0-.62,0-.92,0s-.55,0-.83,0c.24-.39.45-.85.56-1a14.76,14.76,0,0,0,1.18-5.37.21.21,0,1,0-.42,0,14.35,14.35,0,0,1-1.1,5.1,8.11,8.11,0,0,1-.78,1.33l-.31.06c-.5.1-1,.17-1.52.27.16-.22.31-.43.45-.66a8.49,8.49,0,0,0,1.06-2.31,8.83,8.83,0,0,0,.14-4.59,11.38,11.38,0,0,0-1.14-2.29,3.55,3.55,0,0,1-.38-2.45A.2.2,0,0,0,16,5.15c-.53-.28-.43,1-.42,1.3a5,5,0,0,0,.94,2.39c1.15,1.93,1,3.41.58,5.53a8.86,8.86,0,0,1-1.8,3.5l0,0-.1,0c-.95.29-1.9.62-2.87.83l.15-.2a11.18,11.18,0,0,0,1.94-4.94,16.26,16.26,0,0,0,.27-2.7.21.21,0,0,0-.41,0,17.37,17.37,0,0,1-.51,3.79,9.63,9.63,0,0,1-2.08,4.16l-.11,0a22.51,22.51,0,0,1-4.1.15c-.6-.05-1.17-.26-1.77-.25H5.28a.19.19,0,0,0-.23,0,9.74,9.74,0,0,0-2.89.34A2.05,2.05,0,0,0,2,18.28a.2.2,0,0,0,.06-.3,4,4,0,0,1-.3-.39,8,8,0,0,1-1-2.23,7.66,7.66,0,0,1-.26-2.43,10.74,10.74,0,0,1,.26-2.71A12.7,12.7,0,0,1,2,6.63,9.3,9.3,0,0,1,3.65,4.25a8.34,8.34,0,0,1,.9-.88.2.2,0,0,0,.17.11c.23,0,.39-.26.58-.4.4-.31.82-.6,1.24-.89A12.79,12.79,0,0,1,10,.55a13.56,13.56,0,0,1,4,.07,21,21,0,0,1,2.5.17c.45.1.88.24,1.32.37a14,14,0,0,1,3.59,1.41,5.41,5.41,0,0,1,1.64,1.21,10.78,10.78,0,0,0,1,1.05A8.92,8.92,0,0,1,25.78,7a8.35,8.35,0,0,1,1.46,2.62.19.19,0,0,0,.08.1l.06.15A5.54,5.54,0,0,1,27.57,11,7.05,7.05,0,0,1,27.11,13.36Z"/><path class="cls-11" d="M11.84,4.18c.05-.12,0-.3-.12-.34s-.29.25-.31.44a6.59,6.59,0,0,0,.1,1.88,17.42,17.42,0,0,1,.6,4.24,9.74,9.74,0,0,1-1.42,4,5.59,5.59,0,0,1-.48.61c-.2.23-.41.45-.64.67a.21.21,0,1,0,.29.29c.23-.22.46-.45.67-.69A8,8,0,0,0,12,12.75a9.31,9.31,0,0,0,.56-2.55,17.54,17.54,0,0,0-.59-3.94A6.06,6.06,0,0,1,11.84,4.18Z"/><path class="cls-11" d="M10,10.89a.21.21,0,0,0,.41,0c-.11-1.19-.16-2.38-.32-3.56a7,7,0,0,1,.46-3.74.2.2,0,0,0-.29-.28c-.84,1.48-.68,3.29-.48,4.92C9.82,9.1,9.88,10,10,10.89Z"/><path class="cls-11" d="M4.31,13.63a.2.2,0,0,0,.19-.22c0-.2,0-.4-.07-.6-.11-.63-.17-1.26-.23-1.9a6.9,6.9,0,0,1-.07-1.7A13.5,13.5,0,0,1,5.9,4.84a.21.21,0,0,0-.37-.18A13.25,13.25,0,0,0,3.7,9.33a5.37,5.37,0,0,0,0,1.06c.09,1,.23,2,.36,3A.21.21,0,0,0,4.31,13.63Z"/><path class="cls-11" d="M5.84,4.38A.21.21,0,0,0,6,4.16.17.17,0,0,0,6,4,.2.2,0,0,0,5.81,4a.21.21,0,0,0-.19.22.17.17,0,0,0,.07.14A.2.2,0,0,0,5.84,4.38Z"/><path class="cls-4" d="M56.81,24.43h0Z"/><path d="M13.2,23.36h0Z"/><polygon points="13.08 23.25 13.09 23.25 13.09 23.25 13.08 23.25"/><path d="M14.54,20.29h0Z"/><path d="M14.49,20.28Z"/><polygon points="13.49 20.45 13.49 20.45 13.48 20.45 13.49 20.45"/><path d="M13.49,20.45Z"/><polygon points="14.9 20.34 14.9 20.34 14.91 20.34 14.9 20.34"/><path d="M14.55,20.29Z"/><polygon points="14.49 20.29 14.49 20.29 14.5 20.29 14.49 20.29"/><polygon points="14.48 20.28 14.48 20.28 14.48 20.28 14.49 20.28 14.48 20.28"/><path d="M16.36,22.66h0v0Z"/><path d="M15.24,21.79h0v0h0Z"/><polygon points="14.9 20.34 14.9 20.34 14.9 20.34 14.91 20.34 14.9 20.34"/><path class="cls-11" d="M15,22.49c-.48-.16-.38-.6-.28-1a1.05,1.05,0,0,0-.68-.19.64.64,0,0,0-.43.1.21.21,0,0,1-.34-.23h0c.36-.46,1.36-.32,1.75,0a.32.32,0,0,1,.08.09h0l0,.13c0,.08,0,.16,0,.23h0a.8.8,0,0,0,0,.15h0A.49.49,0,0,0,15,22a.48.48,0,0,0,0,.12h0a.48.48,0,0,0,0,.17l.08.13,0,0v0a.14.14,0,0,1-.09,0Z"/><polygon points="13.59 23.63 13.59 23.63 13.59 23.63 13.59 23.63"/><polygon points="13.43 23.55 13.44 23.55 13.44 23.55 13.44 23.55 13.44 23.55 13.44 23.56 13.43 23.55"/><polygon points="13.44 23.55 13.43 23.55 13.43 23.55 13.44 23.55 13.44 23.55"/><path d="M13.34,23.49h0Z"/><path d="M13.2,23.36h0Z"/><path class="cls-11" d="M22.42,18.76c0-.22.23-.22.39-.26a1.36,1.36,0,0,0,.8-.42c.06-.07.09-.16.16-.21s.45.13.27.31a1.57,1.57,0,0,1-1,.7C22.82,18.92,22.45,19.07,22.42,18.76Z"/><path d="M24.63,33.86h0Z"/><path d="M52.75,17.71Z"/><path d="M52.77,17.69Z"/><path d="M8.43,27.71a.91.91,0,0,1-.21-.65l0,.1a2,2,0,0,0,.11.26c0,.06.07.12.11.17a.64.64,0,0,0,.1.13l0,0h0A.3.3,0,0,1,8.43,27.71Z"/><path d="M12.76,22.89l0-.05a.34.34,0,0,1,.08.09Z"/><polygon points="58.75 19.91 58.75 19.91 58.75 19.91 58.75 19.91 58.75 19.91"/><polygon points="58.75 19.9 58.75 19.9 58.75 19.9 58.75 19.9"/><polygon points="58.8 20.63 58.8 20.63 58.8 20.63 58.8 20.64 58.8 20.63"/><path d="M58.8,20.63Z"/><polygon points="56.98 17.15 56.98 17.15 56.98 17.15 56.98 17.15"/><polygon points="57.03 17.07 57.03 17.08 57.03 17.08 57.03 17.07"/><polygon points="56.45 24.1 56.45 24.1 56.45 24.1 56.45 24.1 56.45 24.1"/><polygon points="56.44 24.1 56.44 24.1 56.44 24.1 56.44 24.1 56.44 24.1"/><polygon points="56.44 24.1 56.44 24.1 56.44 24.1 56.44 24.09 56.44 24.1 56.44 24.1 56.44 24.1"/><path d="M56.43,24.09h0Z"/><polygon points="55.47 22.61 55.47 22.62 55.47 22.62 55.47 22.61"/><polygon points="55.47 22.61 55.47 22.61 55.47 22.61 55.47 22.61"/><polygon points="55.47 22.61 55.47 22.61 55.47 22.61 55.47 22.61"/><path class="cls-12" d="M62.16,20.24a1.64,1.64,0,0,0-.09-.44,1.3,1.3,0,0,0-1.15-.93c-.22,0-.5.05-.6-.15a.32.32,0,0,1,0-.16c-.37-3.89,0-7.83-.49-11.7A4.81,4.81,0,0,0,58.7,4.08,3.1,3.1,0,0,0,55,3.73,4,4,0,0,0,53.31,6c-.25.77-.33,2,.82,2.07a.91.91,0,0,0,.53-.15c.47-.36.31-1.11.58-1.64a1.3,1.3,0,0,1,1.58-.52A2.06,2.06,0,0,1,58,7a5.69,5.69,0,0,1,.24,1.79c.05,2.52-.07,5-.19,7.55a1.4,1.4,0,0,0-1.42.51,1.77,1.77,0,0,0-.12,1l.1,1.35a2.73,2.73,0,0,0,.17.85.86.86,0,0,0,.64.52c.2,0,.43,0,.55.11A.68.68,0,0,1,58,21a.75.75,0,0,0,.85.58c.13.73.39,1.58,1.1,1.82a1.44,1.44,0,0,0,1.5-.53,3.39,3.39,0,0,0,.61-1.56A3.76,3.76,0,0,0,62.16,20.24Zm-1.75-1a2.1,2.1,0,0,1,.71.1c.3.1.62.34.58.66a.69.69,0,0,1-.33.42,1.7,1.7,0,0,1-2.15-.28.26.26,0,0,1-.1-.21.27.27,0,0,1,.08-.17A1.65,1.65,0,0,1,60.41,19.26Zm-3.27-2.33.16-.12a.76.76,0,0,1,.73,0,1.12,1.12,0,0,0-.57.17.44.44,0,0,0-.18.53c.12.21.41.23.65.21a.21.21,0,0,1-.08.34.51.51,0,0,1-.4,0A.67.67,0,0,1,57.14,16.93Zm.62,3.37a.73.73,0,0,1-.66-.47,1.35,1.35,0,0,1-.06-.34,7.41,7.41,0,0,1-.1-1.32c.06,0,1,.53,1,.38l0,1.75Zm1,.91a.29.29,0,0,1-.22-.09.69.69,0,0,1-.15-.42,14,14,0,0,1,0-2.15c.1-2.33.21-4.66.31-7a24.07,24.07,0,0,0,0-3.29A4.27,4.27,0,0,0,57.83,6a1.9,1.9,0,0,0-2.2-.63,1.94,1.94,0,0,0-1,1.53c0-.11-1,0-1.1,0s.2-.91.27-1.08A3.49,3.49,0,0,1,55.35,4a2.69,2.69,0,0,1,3.24.53,4.31,4.31,0,0,1,.77,2.25,66.09,66.09,0,0,1,.38,7.44l.07,4.39a.34.34,0,0,1-.32.41,1.35,1.35,0,0,0-.66,1.7c.05.12.12.26.05.37A.2.2,0,0,1,58.72,21.21Zm1.71,1.88c-.6,0-.91-.54-1-1a9,9,0,0,0-.19-1.16c0-.09,0-.19-.08-.28a2.38,2.38,0,0,0,1.06.51h.18a2,2,0,0,0,1.41-.47C61.65,21.55,61.52,22.9,60.43,23.09Z"/><path class="cls-12" d="M59.94,20.35a1.1,1.1,0,0,0,1-.3.31.31,0,0,0-.14-.44,1.22,1.22,0,0,0-1.15.21A.33.33,0,0,0,59.94,20.35Z"/><polygon points="14.48 20.28 14.48 20.28 14.48 20.28 14.49 20.28 14.48 20.28"/><polygon points="13.43 23.55 13.43 23.55 13.43 23.55 13.43 23.55"/><polygon points="13.43 23.55 13.43 23.55 13.43 23.55 13.43 23.55"/><path class="cls-13" d="M19.61,26.67a1,1,0,0,0,0-.17,4,4,0,0,0-.09-.84.69.69,0,0,0-.22-.46c-.13-.1-.39.31-.43.26s-.33,0-.48.07c0-.13-.2-.17-.29-.08a.45.45,0,0,0-.09.36,7.52,7.52,0,0,0,.22,1.56,9.24,9.24,0,0,0-4.74-.47A34.81,34.81,0,0,0,9.62,28a1.36,1.36,0,0,1-.29.06l.08-.13a.2.2,0,0,0-.21-.29v0q.09-.42.15-.84c.06-.33.09-.66.13-1a.28.28,0,0,0-.05-.16v.12c0,.11,0,.23,0,.34v.09h0a2.09,2.09,0,0,1,0,.35c0,.11,0,.22-.05.33s-.06.26-.1.39l-.09.33,0,.09h0l-.06.2,0,.07a.08.08,0,0,0,0,0l0,0a.05.05,0,0,1-.05,0h0l0,0,0,0a.83.83,0,0,1-.15-.11.47.47,0,0,1-.1-.1.64.64,0,0,1-.1-.13c0-.05-.07-.11-.11-.17a1.47,1.47,0,0,1-.1-.22v.08a2,2,0,0,1-.07-.42,3.61,3.61,0,0,1,.94-2.63A1,1,0,0,0,9.32,24a.23.23,0,0,0-.1-.28c-.13-.05-.25,0-.33.15A4.71,4.71,0,0,0,7.77,26.3a2,2,0,0,0,.79,2.05A2.06,2.06,0,0,0,10,28.28a26.72,26.72,0,0,1,3.48-.94,7.78,7.78,0,0,1,3.59.12,7.14,7.14,0,0,0,1,.29,1.34,1.34,0,0,0,1-.2A1.25,1.25,0,0,0,19.61,26.67Z"/><path class="cls-13" d="M26.79,31.38h.05a.75.75,0,0,0,.21,0c.19,0,.25-.31.14-.47a.84.84,0,0,0-.49-.28,7.22,7.22,0,0,0-2.26-.27c0-.85-1-1.41-1.14-2.24-.05-.26,0-.52-.06-.78a4.5,4.5,0,0,0-1.54-2.55c-.1-.1-.23-.21-.37-.16a.26.26,0,0,0-.08.35.81.81,0,0,0,.28.27,3.39,3.39,0,0,1,1.3,3.22.66.66,0,0,0,0,.46c.09.14.35.13.36,0A3.31,3.31,0,0,1,24,30.29a1.48,1.48,0,0,1-1.1-.51,12.05,12.05,0,0,0-.85-.9,4.2,4.2,0,0,0-2.32-.64,1.1,1.1,0,0,0-.76.13c-.35.28.27.33.45.32a4.65,4.65,0,0,1,1.7.17,2.29,2.29,0,0,1,1.3,1.06,8.74,8.74,0,0,0-1.91.22.38.38,0,0,0-.21.1c-.09.13,0,.31.18.35a.84.84,0,0,0,.44-.08,3.81,3.81,0,0,1,1.71-.14c.42.06.82.19,1.24.28a17.84,17.84,0,0,0,2.63.33,3.91,3.91,0,0,0-1.76,2.37,7.5,7.5,0,0,0-.15,1.83,15.08,15.08,0,0,0,.76,5.91,5.4,5.4,0,0,0-2.93,0c-.18.06-.41.23-.31.39s.29.09.44,0a3.66,3.66,0,0,1,1.3-.25.52.52,0,0,1,.28.06.56.56,0,0,1,.17.29A14.07,14.07,0,0,1,25,44.34a4.71,4.71,0,0,1-.37,2.73c-.08.17-.14.43,0,.48s.25-.09.32-.22a5.12,5.12,0,0,0,.44-3,15.76,15.76,0,0,0-.75-3,1.54,1.54,0,0,0,1.85-.63,3.74,3.74,0,0,0,.53-2c0-.17,0-.38-.2-.39s-.23.22-.23.39a2.75,2.75,0,0,1-.75,2.14,5.72,5.72,0,0,0,.61-2.14.44.44,0,0,0-.06-.32.49.49,0,0,0-.38-.1l-.95.05c0-1.21-.19-2.42-.13-3.63a4.14,4.14,0,0,1,1.41-3.21A.61.61,0,0,1,26.79,31.38Z"/><path class="cls-13" d="M17.29,28.73a4.71,4.71,0,0,0-2,.44,7.36,7.36,0,0,0-4.14,3.63c-.15.33-.28.68-.41,1-.07.13-.1.34.09.4s.26-.12.3-.26c.17-.43.33-.87.54-1.28a7.46,7.46,0,0,1,5.19-3.53,1,1,0,0,1,.31,0,.21.21,0,0,0,.26-.05A.22.22,0,0,0,17.29,28.73Z"/><path class="cls-13" d="M10.07,42.52C9.93,41.24,9.7,40,9.5,38.7a25.41,25.41,0,0,0-.78-3.48,14.49,14.49,0,0,1-.77-3c-.06-.78-.23-1.57-.37-2.35a.2.2,0,0,0,.06-.14c0-.48-.06-1-.12-1.44a6.72,6.72,0,0,1-.24-2.6,2.44,2.44,0,0,1,.3-1.13C8,24,8.6,23.57,9,23a.21.21,0,0,0-.07-.4c-.16,0-.25.13-.32.26-.71.79-1.72,1.49-1.73,2.66A5.92,5.92,0,0,0,7,27.88a9.74,9.74,0,0,1,.2,1.71l0,.05a1.07,1.07,0,0,0,0,.53c0,.3.12.64.18.95.1.67.15,1.35.31,2a30.55,30.55,0,0,0,.86,3c.22.88.37,1.77.54,2.67.21,1.39.49,2.85.61,4.27a11,11,0,0,0,1,4.63.2.2,0,0,0,.38-.15,10,10,0,0,1-.68-1.85A18.44,18.44,0,0,1,10.07,42.52Z"/><polygon points="14.9 20.34 14.9 20.34 14.9 20.34 14.9 20.34"/><polygon points="14.89 20.34 14.9 20.34 14.9 20.34 14.89 20.34"/><path d="M14.55,20.29Z"/><polygon points="14.49 20.28 14.49 20.28 14.49 20.29 14.49 20.28"/><polygon points="14.49 20.28 14.49 20.28 14.49 20.28 14.49 20.28"/><path class="cls-12" d="M44.81,20.86h0a8.09,8.09,0,0,1-3.05-1.29,8.28,8.28,0,0,1-1.26-1.51,5.25,5.25,0,0,1-.53-1.8c.14-.29-.21-.5-.36-.23A2.91,2.91,0,0,0,40,17.78a2.75,2.75,0,0,0,.48.93,8.12,8.12,0,0,0,1.28,1.34,8.74,8.74,0,0,0,3.06,1.22A.21.21,0,0,0,44.81,20.86Z"/><path class="cls-12" d="M54.05,11.89A7.24,7.24,0,0,0,52,8.72a3.8,3.8,0,0,0-1.12-.61,7.16,7.16,0,0,0-2.5-.56,5.85,5.85,0,0,0-3.82.65,9.77,9.77,0,0,0-2.22,1.48c-.4.29-2.21,2.38-1.91,2.8.15.2.51,0,.41-.23a8.5,8.5,0,0,1,3.24-3.33,6.53,6.53,0,0,1,3.52-1l1.68.18a9.33,9.33,0,0,1,1.93.65,4.56,4.56,0,0,1,1.5,1.4,6.35,6.35,0,0,1,.92,6,5.38,5.38,0,0,1-.7,1.37l-.09.13h0l.09,0a.28.28,0,0,1,.09.1.17.17,0,0,1,0,.17.08.08,0,0,1,0,0h0c.27,0,.52-.66.67-.83A6.66,6.66,0,0,0,54.05,11.89Z"/><polygon class="cls-12" points="54.05 11.89 54.05 11.89 54.06 11.9 54.05 11.89"/><path class="cls-12" d="M47.14,8.56a6.82,6.82,0,0,0-2.63.84,12.93,12.93,0,0,0-2,1.57,5,5,0,0,0-1.07,1.46c-.1.16-.21.38,0,.47s.26-.13.33-.27a4.57,4.57,0,0,1,.42-.71A8.68,8.68,0,0,1,44,10.28,6.07,6.07,0,0,1,47.15,9,.21.21,0,1,0,47.14,8.56Z"/><path class="cls-12" d="M44.8,20.4a.21.21,0,0,0,.21-.23c0-.19-.23-.18-.37-.2a3.69,3.69,0,0,1-1.81-.84,7.8,7.8,0,0,1-.58-.57.21.21,0,0,0-.29,0,.21.21,0,0,0,0,.29,6.92,6.92,0,0,0,.61.6A4.07,4.07,0,0,0,44.8,20.4Z"/><path class="cls-12" d="M53.1,12.54a.21.21,0,0,0-.24-.17c-.24.06-.15.32-.09.49a4.55,4.55,0,0,1-.48,3.77.23.23,0,0,0-.08.2c.36.73,1-1.08,1-1.36A5.22,5.22,0,0,0,53.1,12.54Z"/><path class="cls-14" d="M54.63,19.38l-.24-.22,0-.05a2.44,2.44,0,0,0-1.17,0,1.72,1.72,0,0,1-1.6-.27c.35-.54,1.69-.3,1.84-.9v0l0-.08a.57.57,0,0,1,0-.18c-.15-.34-.63-.51-.86-.81s-.15-1.2-.8-1.32c-.94-.18-1.68.66-2.41,1.12a9.45,9.45,0,0,1-2.53,1c-.57.23-2.47.43-2.58,1.06,0,.15.09.27.13.4a12.89,12.89,0,0,1,.41,1.38c0,.53.19,1,.27,1.52,0,.17,0,.4.15.48l.08,0a.21.21,0,0,0,.19-.3,3.51,3.51,0,0,0-.14-.9,3.67,3.67,0,0,1-.11-.74,9.46,9.46,0,0,0-.55-1.81,3.49,3.49,0,0,1,1.17-.42,23.79,23.79,0,0,0,2.49-.75,6.75,6.75,0,0,0,1.15-.55c.5-.31.92-.72,1.44-1,1.3-.59.74.39,1.32,1a1.85,1.85,0,0,0,.42.36l.09,0h0l.08,0h0l.08,0a.28.28,0,0,1,.09.1.17.17,0,0,1,0,.14h0a.27.27,0,0,1-.08.07.4.4,0,0,1-.15,0h-.07a2.85,2.85,0,0,0-1.33.51.43.43,0,0,0,0,.69,2,2,0,0,0,1.79.38,2.52,2.52,0,0,1,1-.06s0,.05,0,.07a3.13,3.13,0,0,1-1.78,1.7,8.31,8.31,0,0,1-1.08.53c-.57.19-1.18.24-1.76.4a.41.41,0,0,0-.31.16.21.21,0,0,0,.08.28.2.2,0,0,0,.22,0l.62-.15a5.29,5.29,0,0,0,2-.62,4.52,4.52,0,0,0,2.32-1.93,2.63,2.63,0,0,0,.1-.36A.21.21,0,0,0,54.63,19.38Z"/><path class="cls-13" d="M25.14,44.23s-.06,0-.09-.07l0,0c0-.12,0-.23-.05-.34a5,5,0,0,1,0-.55.21.21,0,0,0-.22-.23l-.14-.76s0,0,0-.06,0-.05,0-.07a.3.3,0,0,0-.09-.13v0a.23.23,0,0,0-.09-.19s0-.07,0-.1a.24.24,0,0,0-.16-.3l-.11,0,0,0h0a2.54,2.54,0,0,0-1,0,.25.25,0,0,0-.27,0l-.08,0h0l0,0a.86.86,0,0,1-.23.13.3.3,0,0,0-.15.35l-.1,0a.25.25,0,0,0-.12.38h0c-.29,0-.2.48.06.49l-.19.06a.22.22,0,0,0-.1.38c-.12,0-.23.07-.35.09-.28,0-.21.49.07.49h.25a.22.22,0,0,0,0,.21h0l-.25.09a.24.24,0,0,0-.13.13c-.13.07-.27.14-.39.22a.24.24,0,0,0-.09.34l0,.06c-.14.13-.07.45.16.42h.13a.26.26,0,0,0,.3.28h0a.36.36,0,0,0,0,.11s0,0,0,.06l-.32,0h-.09a.22.22,0,0,0-.17.27l-.09,0a.25.25,0,0,0,0,.46.24.24,0,0,0,.22.31h.13a.21.21,0,0,0,0,.15l-.53.09h-.07c-.28,0-.21.52.07.49h.06l.42,0v0a.24.24,0,0,0,.14.44c.37,0,.74,0,1.1,0,0,.11.1.2.23.18h.12a5.32,5.32,0,0,0,1.61-.47.21.21,0,0,0,.11-.18l.13-.07a.2.2,0,0,0,.11-.24,2,2,0,0,0,.41-.87.3.3,0,0,0-.06-.2.88.88,0,0,0,0-.16.26.26,0,0,0,0-.38.14.14,0,0,0,0-.07,2.82,2.82,0,0,0,0-.71.24.24,0,0,0,0-.09.09.09,0,0,1,0-.05l0,0A.25.25,0,0,0,25.14,44.23Zm-1.52-.59-.12,0h0Z"/><path class="cls-13" d="M26.22,30.8l-.06,0h0a1.84,1.84,0,0,0-.65.21.22.22,0,0,0-.24-.24l-.07,0h0a1,1,0,0,0-.47,0,.23.23,0,0,0-.18-.19.84.84,0,0,0-.59.1.26.26,0,0,0-.22-.13.7.7,0,0,0-.8-.18.22.22,0,0,0-.16-.15,2.06,2.06,0,0,0-2.42,1.44.25.25,0,0,0,.37.28A8.16,8.16,0,0,1,22,31.28l.16-.05a2.83,2.83,0,0,0-.73,1.15h0l0,0c-.09.3.3.4.46.2l.28-.35a3,3,0,0,0-.15.51c0,.22.24.46.42.24l0,0s0,.07,0,.1a.25.25,0,0,0,.39.2,3.18,3.18,0,0,0-.19.75c0,.21.21.43.39.26,0,.21.32.29.45.1a.31.31,0,0,0,.07-.09.2.2,0,0,0,.25,0,10.33,10.33,0,0,0,1.11-1.58,1.58,1.58,0,0,1,.12-.15,5.55,5.55,0,0,0,.91-1,2.06,2.06,0,0,1,.41-.23C26.52,31.19,26.53,30.78,26.22,30.8Zm-4.28,0-.53.23A1.48,1.48,0,0,1,21.94,30.77Z"/><path class="cls-13" d="M9.4,25.48a4.69,4.69,0,0,0-.08-1.06,1.17,1.17,0,0,1,.06-.2c.11-.31-.37-.44-.49-.14l-.36,1a.23.23,0,0,0,0,.16,1,1,0,0,0-.05.16.24.24,0,0,0-.31.08,3.34,3.34,0,0,0-.35,1.15v0h0a.64.64,0,0,1,0,.07.23.23,0,0,0,.27.23,1.71,1.71,0,0,1,0,.45.27.27,0,0,0,.15.27v0a.25.25,0,0,0,.34.16.25.25,0,0,0,.48.05,2.76,2.76,0,0,0,.15-.8s0,0,0-.06,0,0,0-.06l0-.21A4.14,4.14,0,0,0,9.4,25.48Z"/><path class="cls-13" d="M20.45,26.26a.23.23,0,0,0,.35,0,1.45,1.45,0,0,0,.17-.18.25.25,0,0,0,.28.16.14.14,0,0,0,.09.05v0a.3.3,0,0,0,.08.16l-.06.44a.25.25,0,0,0,.46.19l0-.06a.2.2,0,0,0,0,.07l.05.07h0s0,0,0,0,0,.05,0,.08a.2.2,0,0,0,.07.23c0,.07,0,.14,0,.2s0,0,0,0V28a.2.2,0,0,0,.14.21c0,.27,0,.54,0,.81a.25.25,0,0,0,.24.24.26.26,0,0,0,.24.21.39.39,0,0,0,.21,0,.43.43,0,0,1,.12.29.23.23,0,0,0,.15.22.26.26,0,0,0,.18.14.79.79,0,0,0,.49.38.24.24,0,0,0,.3-.19.26.26,0,0,0,0-.45.06.06,0,0,0,0,0,.32.32,0,0,0-.13-.15H23.8a.25.25,0,0,0-.08-.17c0-.18-.19-.26-.35-.18a4,4,0,0,0-.59-.71l0,0s0-.07,0-.1a.45.45,0,0,0,.06-.32,1.73,1.73,0,0,0-.06-.6c0-.24,0-.48,0-.71a.24.24,0,0,0-.2-.23v0s0,0-.05-.08,0-.08,0-.12v0s0,0,0,0a.32.32,0,0,0,0-.09l0,0v-.05h0s0,0,0-.07a.2.2,0,0,0-.14-.2A.26.26,0,0,0,22,25.7a2.64,2.64,0,0,0-.23-.35h0a0,0,0,0,0,0,0,.25.25,0,0,0-.36-.22c-.11-.09-.32-.11-.39,0a.75.75,0,0,1-.07.12.24.24,0,0,0-.37-.19c-.13-.09-.32-.08-.36.12l-.12.76A.26.26,0,0,0,20.45,26.26Z"/></g></g></svg>