<svg xmlns="http://www.w3.org/2000/svg" viewBox="0 0 55.64 33.38"><defs><style>.cls-1{fill:#fcd4ac;}.cls-2{fill:#cbc478;}.cls-3{fill:#d09971;}.cls-4{fill:#6b1e1e;}.cls-5{fill:#f4b822;}.cls-6{fill:#ededed;}.cls-7{fill:#aaa;}.cls-8{fill:#b78413;}</style></defs><g id="Layer_2" data-name="Layer 2"><g id="Card"><path class="cls-1" d="M.14,30.39a3.29,3.29,0,0,0,2.39,2.54c2.07.53,20.35-.33,23.09-.13s16.57.11,19.1.13,8.54.56,9.43.17a2.07,2.07,0,0,0,1.29-1.9c.06-.8-.08-6.42-.08-6.42L55,12.52,54.41.83S45.31.31,43.77.25,32.1.32,32.1.32L21.31.52S7.3.47,6.55.52,3,.33,3,.33L2,9.88S.66,24.17.62,24.52.14,30.39.14,30.39Z"/><path class="cls-2" d="M9.91,15.79H9.4a.22.22,0,0,1-.18-.39,2.44,2.44,0,0,1,.81-.05c.19,0,.49-.06.53.2a.22.22,0,0,1-.2.24C10.21,15.8,10.06,15.79,9.91,15.79Z"/><path class="cls-2" d="M30.48,15.9c-.3,0-.66-.28-.37-.57a1.12,1.12,0,0,1,.64-.17c.25,0,.65-.12.81.12a.29.29,0,0,1,.13.51A1.68,1.68,0,0,1,30.48,15.9Z"/><path d="M49,26.88l0,0Z"/><path class="cls-3" d="M52.7,1.91s-7.86-.13-8.78-.1-12.13,0-13.58,0-15.55,0-17.24,0-8.41.05-8.41.05l-.28.06.61,2s5.53-.25,7.32-.22,14.44-.3,15.54-.24,12.38.14,13.3.25,9.11.17,9.48.21,1.39.16,1.39.16.43,5.12.31,6.35.15,8.88.15,8.88l.22,10.11,1.26.06s0-5.59-.08-6.16-.39-9.46-.39-9.46-.16-7.15-.12-7.92a32.35,32.35,0,0,0-.33-3.66A3.22,3.22,0,0,0,52.7,1.91Z"/><path class="cls-3" d="M55.44,31.2s-.36,1.74-1.29,1.9-11.31-.16-12-.17H15.77s-11.44.22-12.06.18S1.19,32.64,1,32.27a12.94,12.94,0,0,1-.51-1.38s11,.27,11.63.31,11.54.1,11.94.1H35.85s13.35,0,14.57.07S55.44,31.2,55.44,31.2Z"/><path class="cls-4" d="M2.22,29.51a1.14,1.14,0,0,0,.63.28,39.05,39.05,0,0,0,7,.57c6.26.1,12.51,0,18.76-.18l25.54-.56L53.48,2.74A1.19,1.19,0,0,0,53.29,2a1.18,1.18,0,0,0-.94-.29Q28.5,1.37,4.66,1.59a.9.9,0,0,0-.61.15.91.91,0,0,0-.22.63q-.58,6.72-1,13.46c-.29,4.31-.73,8.67-.73,13a1,1,0,0,0,.1.63Zm48.48-.26L26,29.78a221.93,221.93,0,0,1-22.34-.25c.14-4.14.39-8.28.65-12.42C4.33,16,4.88,4.24,5.2,4.22c15.55-1,31.15-.56,46.72,0l.68,25Zm2.85-5.57c0,.71,0,1.44.05,2.16.07,1.14.27,2.28.31,3.43a.13.13,0,0,0,0,.06l-.92,0c0-.86,0-1.69,0-2.55,0-1.61-.12-3.25-.12-4.88-.09-4.08-.24-8.16-.41-12.24-.07-1.34,0-2.68-.05-4,0-.52,0-1,0-1.51a.43.43,0,0,0,0-.12l.09-.17c.16-.32.34-.63.5-1,.07.47,0,.93.06,1.4.05,1.08.19,2.15.25,3.24s.06,2.4.07,3.59c0,1.95,0,3.9,0,5.86A65.8,65.8,0,0,0,53.55,23.68ZM6.33,1.92C6.74,2,7.15,2,7.44,2l4.39,0L20.6,2q8.77,0,17.54,0c2.46,0,4.91,0,7.37.07l3.68,0a21,21,0,0,0,3.51.06L52,3.82c-15.44-.57-30.92-1-46.34-.06a.67.67,0,0,1-.5-.11A.75.75,0,0,1,5,3.33C4.89,2.7,4.58,2.25,5.16,2A2.83,2.83,0,0,1,6.33,1.92ZM2.61,26.63c.1-3.61.22-7.23.53-10.82L3.72,9c.19-2.24.57-4.56.57-6.82A8.82,8.82,0,0,1,4.6,6.22Q3.67,17.8,3.16,29.41l-.63-.09C2.56,28.43,2.58,27.53,2.61,26.63Z"/><path class="cls-4" d="M55.64,30.94a5.42,5.42,0,0,0,0-.57q-.24-14.54-1-29.07a.87.87,0,0,0-.18-.59.88.88,0,0,0-.59-.2c-17-1.38-34,.58-51-.41-.06,0-.64,5.28-.69,5.76-.22,1.93-.44,3.86-.63,5.8s-.39,3.87-.57,5.8-.34,3.87-.5,5.81S.18,27.15.05,29.09a4.85,4.85,0,0,0,.18,2.27,3.12,3.12,0,0,0,1.51,1.53l.18.08a8.36,8.36,0,0,0,3.42.38q23.48-.7,47,0c1,0,2.21,0,2.85-.81A2.63,2.63,0,0,0,55.64,30.94ZM3,.14ZM.79,24.83c.12-1.57.25-3.15.39-4.73.16-1.94.34-3.87.53-5.81s.39-3.86.59-5.8S2.74,4.63,3,2.7c.08-.71.17-1.43.26-2.14,17,1,34.09-1,51.06.45l1,29.9a92.54,92.54,0,0,1-9.42.29l-12.39-.05-9.15,0c-7.84,0-15.69-.06-23.53-.41a.56.56,0,0,1-.39-.19c-.12-.13-.06-.16,0-.3a3,3,0,0,0,0-.67c0-.25,0-.49,0-.73l.21-2.91C.74,25.55.77,25.19.79,24.83Zm53.76,7.68a1.5,1.5,0,0,1-.39.22,4.15,4.15,0,0,1-1.72.19q-24-.68-48,0a6,6,0,0,1-2.19-.21,2.36,2.36,0,0,1-.91-.58c-.14-.15-.59-.67-.4-.89s.46,0,.6,0l.73,0,1.47.05,5.85.15c1.95,0,3.9.06,5.85.08l5.86,0H25l7.59,0,13,.05c3.18,0,6.36,0,9.54-.21A1.34,1.34,0,0,1,54.55,32.51Z"/><polygon class="cls-4" points="54.66 0.83 54.66 0.83 54.66 0.83 54.66 0.83"/><path class="cls-3" d="M7,9.83a3.1,3.1,0,0,0-.93,1.83,22.75,22.75,0,0,0,0,5.08c.22.13.07.25,2.05.39a18.31,18.31,0,0,0,5.41-1.07s-1-5.95-1-6.65,0-3.4-.69-3.64a5.54,5.54,0,0,0-1.92-.09s1.25.43,1.41,1.45a8.48,8.48,0,0,1-.09,2.41Z"/><path class="cls-3" d="M20.07,5.37s1.3-.11,1.72.68a9.47,9.47,0,0,1,.41,3l-3.37.05A7.29,7.29,0,0,1,19,6.67a3,3,0,0,0,.22-1.49s-1.5,1.14-1.74,2a6.1,6.1,0,0,0-.09,2,1.15,1.15,0,0,0-1,1.26c0,1.19-.66,6,.14,6.36a9.52,9.52,0,0,0,4.43.36A7.51,7.51,0,0,0,24.32,16c-.27.08-.59-6.85-.59-6.85s-.32-3.66-1.41-3.95A3.79,3.79,0,0,0,20.07,5.37Z"/><path class="cls-3" d="M30.62,4.52s-2.31,1.2-2.82,2.26A6.13,6.13,0,0,0,27.25,9s-.62,0-.76,1.14-.42,5.65,0,6.13,1.31,1.25,4,1,4.17-.83,3.93-.93S33.08,9.6,33.08,9.6s.33-2.75,0-3.26-1.94-1.11-1.94-1.11A4.64,4.64,0,0,1,32,7.13a8.14,8.14,0,0,1-.22,2L29.2,9s-.46.1-.27-.95A7.13,7.13,0,0,1,30,5.75Z"/><path class="cls-3" d="M40,8.58a2.83,2.83,0,0,1,.52.9,2.63,2.63,0,0,1,0,.73l-2.22.11L39.1,8s-1.23.45-1.46,1a3.23,3.23,0,0,0-.19,1.28s-.59-.2-.78.61-.56,5.45,0,6,2.16.44,3.71.35a6.5,6.5,0,0,0,2.7-.78l-1.45-5.6s-.15-2.05-.78-2.58S40,8.58,40,8.58Z"/><path class="cls-3" d="M47.51,6.31s-2.11,1-2.32,2.11a5.38,5.38,0,0,0-.06,1.86s-.53-.09-.57,1.74-.73,4.36.3,4.66,4.84.33,5.23-.2-.44-5.85-.44-5.85l-.39-.82L47.89,6.76a2.83,2.83,0,0,0-.14,1.48A3.79,3.79,0,0,1,47.51,10l-1.61.2.46-2.37Z"/><path class="cls-3" d="M47.16,17.34a10.76,10.76,0,0,0-.51,2.72c0,1.34,0,2.32,0,2.32S44.7,24.5,45.85,26s2.42,1.55,2.75,1.34.63-1.6.63-1.6l-1.1-3.29Z"/><path class="cls-3" d="M39.5,19.17A2.33,2.33,0,0,0,39,20.56c0,.76.48.93.48.93v1.09s-1.22,1.19-.92,2,.52,1.42,1.3,1.4,1.76-.45,1.75-1.22-1.09-1.86-1.09-1.86l-.25-3.06Z"/><path class="cls-3" d="M29.83,17.92s-1.17.72-1,1.25a3,3,0,0,0,.44.83l-.09,2s-1.52.9-1.4,2.15-.65,2.81.72,3.18,3.69.49,3.59-.64a22.55,22.55,0,0,0-1.73-4.37Z"/><path class="cls-3" d="M21,18.16s-1.42,1.27-1.28,1.63.3,1,.3,1-.51.5-.31.71a.7.7,0,0,1,.2.44s.27.86-.12,1.26-1.69,2.37-1.56,3.18-.34,1.84,1,2,1.69-.27,1.69-.27.25.46.95.18,1-1.56,1-1.56l-1.94-2.79Z"/><path class="cls-3" d="M9.47,18.15s-.56-.21-.72,1,.29,2.65-.31,3-1.87,2.06-1.27,3.2S7.85,26.91,9.23,27s2.19-1.61,2.19-1.61L9.71,22.55Z"/><path class="cls-5" d="M13.56,9.49s0,1.41-.06,2.24S13.42,16,13.42,16s-2.9.28-3.72.33-2.85.15-2.85.15a21.2,21.2,0,0,1-.3-2.55c0-.76.14-2.3.11-2.76s-.39-1.45.23-1.55,2.59-.09,3.68-.16A27.87,27.87,0,0,1,13.56,9.49Z"/><path class="cls-6" d="M12.08,9.41s.61-3.75-1.6-3.67S8.1,9.48,8.1,9.48s-.86.19-.84.09-.13-4.76,3.36-4.79S12.89,9.6,12.89,9.6Z"/><path class="cls-7" d="M11.07,5.53a2.2,2.2,0,0,0-2.3.67,4.28,4.28,0,0,0-.83,2.43,4.87,4.87,0,0,0,0,.54.24.24,0,0,0,.18.31c.4,0,.21-.54.28-.79a3.73,3.73,0,0,1,.78-2.26,1.9,1.9,0,0,1,1.6-.54,1.67,1.67,0,0,1,.93,1,9.55,9.55,0,0,1,.13,2.39h0v0a.22.22,0,0,0,.15.27.24.24,0,0,0,.29-.27c0-.35,0-.7,0-1A2.71,2.71,0,0,0,11.07,5.53Z"/><path class="cls-7" d="M13.16,7.24a12.54,12.54,0,0,0-.3-1.32,1.68,1.68,0,0,0-.78-.86A2.27,2.27,0,0,0,11,4.6,3.42,3.42,0,0,0,7.47,6.72a7.53,7.53,0,0,0-.3,1.82c0,.24,0,.49-.09.73a.23.23,0,1,0,.44.08c0-.26.07-.53.09-.8A5.86,5.86,0,0,1,8,6.66,2.92,2.92,0,0,1,10.4,5.05a1.73,1.73,0,0,1,1,.14,2.82,2.82,0,0,1,.89.67,4.8,4.8,0,0,1,.37,1.36,4.12,4.12,0,0,1,.14,1.17c0,.2,0,.4,0,.6s0,.33.17.35c.33,0,.25-.4.28-.62A3.88,3.88,0,0,0,13.16,7.24Z"/><path class="cls-8" d="M13.83,9.46a.27.27,0,0,0-.1-.17.55.55,0,0,0-.36-.08l-6,.09a1.44,1.44,0,0,0-.65.11c-.55.3-.28,1.91-.29,2.45q0,1.47,0,2.94a7.74,7.74,0,0,0,.12,1.6.32.32,0,0,0,.1.19.33.33,0,0,0,.2,0l6-.35a.82.82,0,0,0,.63-.22.77.77,0,0,0,.12-.49l.22-5.82A.7.7,0,0,0,13.83,9.46Zm-6.26.29,5.85-.1-.2,4.91c-2.12,0-4.25.15-6.36.31v-4c0-.22-.12-.91.1-1.06a.57.57,0,0,1,.34-.08Zm1,6.37c-.55,0-1.1,0-1.65,0,0-.29,0-.57-.05-.86,1.14-.08,2.28-.11,3.43-.22.84-.07,1.68,0,2.52-.08a1.65,1.65,0,0,0,.38-.05,1.08,1.08,0,0,1,0,.18c0,.21,0,.41,0,.62,0,0,0,0,0,.06-.94.07-1.91.11-2.87.17C9.76,16,9.18,16.09,8.59,16.12Z"/><path class="cls-5" d="M34.66,9.29l-.16,4.62V16a23,23,0,0,1-4.75.44,18.71,18.71,0,0,1-2.46-.65s-.18-3.75-.14-4.54.1-2.34.1-2.34,2.47,0,3.95,0A16.42,16.42,0,0,1,34.5,9,.39.39,0,0,1,34.66,9.29Z"/><path class="cls-6" d="M32.79,8.91s.54-3.82-1.65-3.49-2.29,3.47-2.29,3.47l-1-.08s-.16-4.28,3.39-4.29S33.8,9,33.8,9Z"/><path class="cls-7" d="M31.58,5.2A2.22,2.22,0,0,0,30,5.51,3.75,3.75,0,0,0,28.7,8.09c0,.24-.22.74.15.8s.22-.42.27-.66a4.32,4.32,0,0,1,.43-1.5,2.18,2.18,0,0,1,1.09-1.05c.8-.17,1.37-.08,1.74.71a3.61,3.61,0,0,1,.26,1.49c0,.25,0,.54,0,.8a.22.22,0,0,0,.18.23c.28,0,.27-.28.27-.47a8.34,8.34,0,0,0,0-1C33,6.53,32.61,5.36,31.58,5.2Z"/><path class="cls-7" d="M34.07,7.87a4.9,4.9,0,0,0,0-1.21,4.91,4.91,0,0,0-.48-1,3.05,3.05,0,0,0-4.51-.57,3.77,3.77,0,0,0-.76,1,3,3,0,0,0-.44,1c-.1.48-.13.94-.2,1.44a.22.22,0,1,0,.44,0c0-.29.07-.53.1-.83a4.05,4.05,0,0,1,1-2.24,2.76,2.76,0,0,1,3.16-.44A2.88,2.88,0,0,1,33.6,6.66a4.15,4.15,0,0,1,0,1.22c0,.28,0,.57,0,.86A.23.23,0,0,0,33.8,9C34.25,9.07,34,8.16,34.07,7.87Z"/><path class="cls-8" d="M34.81,9.24c0-.05,0-.09,0-.14-.1-.34-.56-.41-.92-.42l-6.48,0c-.68,0-.4,1.25-.4,1.75,0,1.75-.07,3.51.06,5.25a.69.69,0,0,0,.07.29.59.59,0,0,0,.28.19c2.21.88,4.69.54,7,.16a.42.42,0,0,0,.21-.08.46.46,0,0,0,.07-.26l.1-6.6ZM30,9.11l4.36,0-.12,5.8a17.17,17.17,0,0,0-6.81-.2c-.1-1.84,0-3.65,0-5.48a.22.22,0,0,1,0-.13.22.22,0,0,1,.15,0Zm-2.56,6.57c0-.17,0-.34,0-.5a15.91,15.91,0,0,1,6.73.22.2.2,0,0,0,.1,0c0,.13,0,.27,0,.41l-.09,0a13.44,13.44,0,0,1-2.6.35A8.81,8.81,0,0,1,27.47,15.68Z"/><path class="cls-5" d="M24.47,9.16S24.41,12.4,24.4,13,24.32,16,24.32,16a13.28,13.28,0,0,1-3.24.47,26.74,26.74,0,0,1-3.9-.32S17,14.48,17,14.43s.14-5.22.14-5.22,3-.06,4.19-.12S24.47,9.16,24.47,9.16Z"/><path class="cls-6" d="M22.9,9S23.47,5.24,21,5.4s-2.19,3.74-2.19,3.74l-1-.06s-.11-4.61,3.2-4.49S23.8,9,23.8,9Z"/><path class="cls-7" d="M22.57,5.74a2.16,2.16,0,0,0-2.23-.51,2.69,2.69,0,0,0-1.23,1.2l-.37,1a7.37,7.37,0,0,0-.13,1.4.22.22,0,0,0,.22.27.21.21,0,0,0,.22-.21l0-.81a2.78,2.78,0,0,1,.25-1,2,2,0,0,1,1.54-1.6,1.68,1.68,0,0,1,1.53.7,6,6,0,0,1,.32,2.19c0,.2-.1.52.18.57s.27-.15.26-.3a7.54,7.54,0,0,0,0-1A3.33,3.33,0,0,0,22.57,5.74Z"/><path class="cls-7" d="M24,8.1A4,4,0,0,0,23.88,7a3.06,3.06,0,0,0-.46-1.22c-.31-.42-.6-1-1.11-1.14a3.37,3.37,0,0,0-3,.2,4.45,4.45,0,0,0-1.65,4,.21.21,0,0,0,.09.28c.54.2.31-.9.37-1.2a4,4,0,0,1,.38-1.45,2.82,2.82,0,0,1,1.75-1.58,3.21,3.21,0,0,1,2.07.24,3.18,3.18,0,0,1,.57.64,2.34,2.34,0,0,1,.47.93,4.62,4.62,0,0,1,.2,1.11c0,.32,0,.64,0,1a.23.23,0,0,0,.15.3C24.17,9.2,24,8.36,24,8.1Z"/><path class="cls-8" d="M24.68,9.16a.21.21,0,0,0-.2-.26c-.12-.12-.42-.06-.6-.07-.8,0-1.65,0-2.46,0-1,.05-2,0-3.06,0-.25,0-1.32-.12-1.38.21a.2.2,0,0,0-.08.19c0,1.42,0,2.83,0,4.25,0,.61,0,1.22,0,1.82a3.69,3.69,0,0,0,0,.58.21.21,0,0,0,0,.21,1.65,1.65,0,0,0,.58.19,10.68,10.68,0,0,0,2.93.27,14.45,14.45,0,0,0,3.87-.42c.05,0,.06-.06.09-.09a.2.2,0,0,0,.17-.21c0-.8,0-1.61,0-2.41C24.56,12,24.73,10.6,24.68,9.16Zm-.53,6.62a15,15,0,0,1-4.13.39,9.07,9.07,0,0,1-2.69-.34c0-.19,0-.38,0-.57h0l1.22-.21c1-.12,2.1-.22,3.14-.26a13.82,13.82,0,0,1,2.4.3h.08C24.16,15.32,24.15,15.55,24.15,15.78Zm0-1.16a17.32,17.32,0,0,0-6.84.23c0-1,0-2,0-3.06V10.21c0-.14-.08-.67,0-.78s.43-.08.62-.08h.71l5.59-.08C24.21,11.05,24.18,12.84,24.15,14.62Z"/><path class="cls-8" d="M21.58,15.28a.23.23,0,0,0-.23-.12,4.2,4.2,0,0,0-.87,0c-.47.07-.43.53,0,.63s1.11.1,1.3-.19A.27.27,0,0,0,21.58,15.28Z"/><path class="cls-5" d="M50,10.19A10.41,10.41,0,0,0,47.27,10c-1,.16-2.14.25-2.14.25l-.07,3.42.07,2.13a3,3,0,0,0,.88.27A11.93,11.93,0,0,0,48.19,16c.9-.05,2.29,0,2.29,0a29.49,29.49,0,0,1-.17-3A15.18,15.18,0,0,0,50,10.19Z"/><path class="cls-6" d="M49.45,10.07a8.6,8.6,0,0,0-.14-2.56,1.71,1.71,0,0,0-1.8-1.2A2.15,2.15,0,0,0,45.66,7.9a7.61,7.61,0,0,0-.19,2.28c.13,0,.76,0,.76,0a4,4,0,0,1,.17-1.95c.36-.56.5-.71,1.11-.8a.91.91,0,0,1,1.15.7,10.07,10.07,0,0,1,.18,1.91Z"/><path class="cls-7" d="M49.68,8.86a4.12,4.12,0,0,0-.32-1.7,3,3,0,0,0-1.18-1,2.38,2.38,0,0,0-2.55,1.4,3.63,3.63,0,0,0-.29,2c0,.21-.06.5.13.64s.4-.14.31-.34a8.45,8.45,0,0,1,0-1.59,2.38,2.38,0,0,1,1.5-1.67,1,1,0,0,1,1.13.24,1.76,1.76,0,0,1,.71,1.09c.05.33.06.68.08,1s0,.57,0,.87a.22.22,0,0,0,.19.26.21.21,0,0,0,.24-.19C49.7,9.54,49.7,9.2,49.68,8.86Z"/><path class="cls-7" d="M48.92,8.23a1.5,1.5,0,0,0-1-1.1,1.71,1.71,0,0,0-1.55.71A3.87,3.87,0,0,0,46,10a.22.22,0,0,0,.22.22c.31,0,.2-.39.22-.6,0-.65,0-1.51.67-1.86.26-.1.59-.26.86-.1.62.39.55,1,.61,1.68,0,.15,0,.36,0,.53a.22.22,0,0,0,.22.21c.32,0,.2-.4.2-.61C49,9.05,49,8.62,48.92,8.23Z"/><path class="cls-8" d="M50.75,15.74c0-.59,0-1.17,0-1.77s-.13-1.06-.18-1.59c0-.75-.18-1.45-.21-2.19v0h0c0-.29-.29-.26-.49-.25-.45,0-.88-.15-1.33-.14s-.93.08-1.4.1-1.22,0-1.82.13a.26.26,0,0,0-.16.06c-.19,0-.19.3-.19.47,0,.44,0,.88,0,1.32,0,1.35,0,2.7,0,4.05a.3.3,0,0,0,.26.36,6.2,6.2,0,0,0,1.05.09,11.32,11.32,0,0,0,1.17-.14,10.67,10.67,0,0,0,1.26-.09,9.22,9.22,0,0,1,1.82,0A.29.29,0,0,0,50.7,16,.3.3,0,0,0,50.75,15.74Zm-2.1-5.53c.4,0,.82.12,1.23.13,0,.05,0,.09,0,.14,0,.35.13.72.15,1.08s0,.78.08,1.17.11.93.14,1.39h0c-1.1.12-2.19.16-3.3.25a9.19,9.19,0,0,0-1.65.14c0-1.36,0-2.73,0-4.09a6.15,6.15,0,0,1,.73-.06C47,10.36,47.79,10.19,48.65,10.21Zm-1.44,5.56a4.91,4.91,0,0,1-1.87.06c0-.29,0-.58,0-.87a8.42,8.42,0,0,1,1.11-.14c1.26,0,2.55-.16,3.84-.25h0c0,.35,0,.7,0,1.06C49.27,15.57,48.24,15.74,47.21,15.77Z"/><path class="cls-8" d="M47.77,15.11c-.21,0-.6-.06-.62.24s.27.24.44.21h.51a.22.22,0,0,0,.23-.13C48.44,15.05,48,15.11,47.77,15.11Z"/><path class="cls-6" d="M41.26,10.14S41,8.26,40,8.58s-1.18,1.7-1.18,1.7l-.79-.07s0-2.64,2.15-2.44S42,10.28,42,10.28Z"/><path class="cls-7" d="M42.11,9.77A3.84,3.84,0,0,0,42,9a2.64,2.64,0,0,0-.44-.76,1.63,1.63,0,0,0-1.68-.73,2.16,2.16,0,0,0-2,1.53,6.36,6.36,0,0,0-.1,1.07.22.22,0,0,0,.18.25c.25,0,.29-.25.27-.44A3.12,3.12,0,0,1,38.41,9a1.89,1.89,0,0,1,2.2-1c.45.16.7.64.94,1a3.93,3.93,0,0,1,.14,1,.22.22,0,0,0,.3.28C42.18,10.2,42.13,9.93,42.11,9.77Z"/><path class="cls-7" d="M41.11,8.71a1.62,1.62,0,0,0-1.7-.29,1.5,1.5,0,0,0-.68,1.07c0,.26-.23.83.11.94a.23.23,0,0,0,.26-.29,1.68,1.68,0,0,1,.47-1.31c.43-.17,1.24-.12,1.34.44,0,.21.06.44.07.64s0,.34.21.35c.36,0,.21-.49.19-.73A1.28,1.28,0,0,0,41.11,8.71Z"/><path class="cls-6" d="M38.86,10.28c-.18,0-1.69.14-1.69.14s-.05,2.94-.1,3.69a15.1,15.1,0,0,0,.27,2.41,12,12,0,0,0,2.78.16c1.25-.11,3-.43,3-.43l.08-1.68L43,10.28Z"/><path class="cls-7" d="M43.42,15c-.06-.21.07-.62-.13-.74l0-.77c0-1,0-2.07,0-3.11a.19.19,0,0,0,0-.22A.2.2,0,0,0,43,10c-1.43,0-2.85.08-4.28.1-.53,0-1.08,0-1.61.05-.14,0-.2.11-.2.23s0,0,0,0c0,.65-.09,1.35-.08,2s0,1.56,0,2.34a2.83,2.83,0,0,0,0,.29,2.48,2.48,0,0,0,.07.72c0,.26.08.48.11.76s.23.38.48.35c.42,0,.84.05,1.26.05a16,16,0,0,0,2.76-.2c.28,0,.5-.15.8-.2l.71,0a.27.27,0,0,0,.28-.13c0-.11,0-.24,0-.36A4.56,4.56,0,0,0,43.42,15Zm-.59-4.54a40.66,40.66,0,0,0,0,4.13,9.87,9.87,0,0,1-1.44.12,19.25,19.25,0,0,1-2.63.17l-1.41,0h-.06a.09.09,0,0,0,0,0c0-.18,0-.33,0-.53a35.55,35.55,0,0,1,.05-3.72C39.17,10.51,41,10.48,42.83,10.42Zm.08,5.64a4.53,4.53,0,0,0-.74.05c-.26.06-.47.15-.75.19a17.71,17.71,0,0,1-3.92.13c0-.38-.14-.75-.16-1.13a1.58,1.58,0,0,1,.3,0h1.88c.69,0,1.42-.14,2.11-.19a3.77,3.77,0,0,0,1.21-.1L43,15A10,10,0,0,1,42.91,16.06Z"/><path class="cls-7" d="M39.91,15.78a.24.24,0,0,0-.23.3c.11.26.39.08.59.06a.23.23,0,0,0,.24-.36C40.34,15.62,40.1,15.73,39.91,15.78Z"/><path class="cls-6" d="M11.6,23.54a6.65,6.65,0,0,0-1.39-1,12.4,12.4,0,0,0-.06-1.88,1.13,1.13,0,0,0-.3-.26l.37-.49s0-.67-.1-.76l-.15-.1s.14-1.3-.23-1.28-.44.27-.52,1,.08,3.5-.07,3.71-.75.29-1,.59a3.91,3.91,0,0,0-.39,1.74c0,.44.43,1.92,1.92,1.56S12.19,24.09,11.6,23.54ZM9.41,24.79c-.68.06-.6-.51-.49-.71,0,0,.83-.34,1.19-.15S10.08,24.72,9.41,24.79Z"/><polygon class="cls-7" points="8.45 22.74 8.44 22.75 8.45 22.74 8.45 22.74 8.45 22.74"/><path class="cls-7" d="M11.83,23.77a1.76,1.76,0,0,0-1.19-1.12,1.17,1.17,0,0,1-.25-.07,6.59,6.59,0,0,0,0-.77c-.07-.44.15-1.15-.34-1.41,0,0,.07-.06.12-.1a.47.47,0,0,0,.24-.36,3.57,3.57,0,0,1,0-.46.36.36,0,0,0-.14-.37,1.68,1.68,0,0,0,.07-.63.78.78,0,0,0-.15-.61.65.65,0,0,0-1,0v0A.23.23,0,0,0,9,18C9,19.5,9,21,9,22.41a.2.2,0,0,0-.09.11,3.48,3.48,0,0,1-.43.22c-.88.44-1,1.74-.85,2.61a1.91,1.91,0,0,0,1.62,1.32,2.42,2.42,0,0,0,2-.82A2.78,2.78,0,0,0,11.83,23.77ZM10.44,26a2.5,2.5,0,0,1-1.29.23,2.13,2.13,0,0,1-1-.64,2.64,2.64,0,0,1,.13-2.11c.19-.38.7-.4,1-.69a.24.24,0,0,0,.06-.15.19.19,0,0,0,.1-.17v-.67c0-1.21,0-2.43.07-3.64a.13.13,0,0,0,.06,0,.22.22,0,0,1,.14,0c.23,0,.19.24.19.42a1.08,1.08,0,0,1,0,.44c-.26.19-.2.45.11.51a2.28,2.28,0,0,0,0,.45h0a.58.58,0,0,0-.3.78.23.23,0,0,0,.12.1c.05,0,.12,0,.12.08a14.91,14.91,0,0,1,0,1.64c0,.1,0,.21.06.28l0,0a.2.2,0,0,0,.1.15c.18.1.4.1.58.2s.57.35.66.66A2.12,2.12,0,0,1,10.44,26Z"/><path class="cls-7" d="M9.23,26.67h0Z"/><path class="cls-7" d="M9.84,23.55c-.9-.16-2,.94-.79,1.48C10.1,25.45,11.15,24,9.84,23.55Zm-.28,1.1c-.22.05-.81-.14-.52-.42.22,0,.39-.24.62-.26s.18.07.28.13C10.18,24.33,9.8,24.64,9.56,24.65Z"/><path class="cls-6" d="M22.88,25.17c-.26-.4-1.27-1.52-1.27-1.52s0-2.63-.06-3.24a9.12,9.12,0,0,0-.2-2.16,1.05,1.05,0,0,0-.51-.23l-.5,1.19.44.36-.44,1s.44.37.3.69a4.1,4.1,0,0,1-.38.65,1.07,1.07,0,0,1,.24,1.17c-.33.61-1.63,1.84-1.72,2.6S18.71,28,19.59,28a1.65,1.65,0,0,0,1.25-.37s1.61.53,2-.59S23.13,25.58,22.88,25.17Zm-2,1.35c-.7.1-.66-.81-.53-1a1.24,1.24,0,0,1,.65-.16C21.37,25.4,21.61,26.41,20.92,26.52Z"/><path class="cls-7" d="M23.21,25.53a3.6,3.6,0,0,0-.74-1.19,2.48,2.48,0,0,1-.58-.67.28.28,0,0,0-.11-.08c0-1.1-.06-2.2,0-3.32,0-.28-.07-.57-.08-.85s0-.61,0-.9a.91.91,0,0,0-.49-.75c-.17-.06-.41-.1-.54.06a3.14,3.14,0,0,0-.27.62c-.21.5-.6,1,.18,1.19-.1.39-.81,1-.14,1.21v.29c-.07.33-.55.6-.31,1,0,.08.16.12.15.21a3.13,3.13,0,0,1-.2,1.13s0,.07-.06.11a.19.19,0,0,0-.07.11l-.06.09c-.28.44-.74.76-1,1.22-.6,1.05-.54,3.17,1,3.29a1,1,0,0,0,.88-.41C22.24,28.83,23.74,27,23.21,25.53ZM20.88,27.4c-.2-.13-.37.05-.49.2-.35.44-1,.17-1.25-.28a2.43,2.43,0,0,1,.57-2.69,5,5,0,0,0,.57-.69,2.82,2.82,0,0,0,.38-1.11c0-.32.14-.72-.16-.95a1.4,1.4,0,0,0,.36-.9c0-.21,0-.43-.24-.52.27-.48.77-1.09-.08-1.29.13-.32.3-.67.42-1,.47.15.23,1,.28,1.37a7.51,7.51,0,0,1,.06,1.64c0,.62,0,1.26,0,1.9,0,.2,0,.4,0,.6a.19.19,0,0,0,.18.21,2,2,0,0,0,.45.6,2.53,2.53,0,0,1,.9,1.58C23,27.13,21.85,28.21,20.88,27.4Z"/><path class="cls-7" d="M20.8,25.17a.82.82,0,0,0-.81.77.75.75,0,0,0,.82.83C22.06,26.89,21.94,25.18,20.8,25.17Zm.12,1.17c-.41,0-.66-.2-.39-.58a.24.24,0,0,0,.14-.14.52.52,0,0,1,.51.18A.32.32,0,0,1,20.92,26.34Z"/><path class="cls-6" d="M49,22.68a1.82,1.82,0,0,0-.58-.05l-.09-1.08s.73-.37.69-.37-.82-.81-.82-.81l.56-.48L48,19.17l.65-.47a4.8,4.8,0,0,0-.8-1.13,2.12,2.12,0,0,0-.66-.23l.17,5.37a1.84,1.84,0,0,0-1.24,1.63c0,1.26.83,2.56,2.06,2.49S49.9,25,49.91,24.34,49.36,22.76,49,22.68Zm-.82,3.11c-.61.11-.54-.95-.34-1.15a1.73,1.73,0,0,1,.62,0C48.64,24.72,48.75,25.68,48.14,25.79Z"/><path class="cls-7" d="M49.89,23.37a1.32,1.32,0,0,0-.74-.76,1.29,1.29,0,0,0-.59-.22c0-.17,0-.33-.07-.49s0-.11,0-.16c.25-.17.68-.23.71-.58a.36.36,0,0,0-.09-.22,3.59,3.59,0,0,0-.57-.6c.16-.11.4-.21.4-.43a1.31,1.31,0,0,0-.55-.7c.41-.2.59-.42.27-.82s-.41-.6-.64-.88a1.4,1.4,0,0,0-.62-.39.43.43,0,0,0-.48.37c0,.07,0,.15,0,.22.05.58,0,1.14.06,1.73.08,1,.08,2,.15,3l0,0a.13.13,0,0,1,0,.12s0,0,0,.06l-.12.06-.08,0h0l-.06,0-.08,0-.13.09h0l-.07.06h0a1.66,1.66,0,0,0-.2.26,2.33,2.33,0,0,0-.06,2.66,2.1,2.1,0,0,0,.73.8l.06,0h0l.07,0,.16.07a2.19,2.19,0,0,0,.33.12h0l.07,0a.9.9,0,0,0,.22.06h.28a.34.34,0,0,0,.14,0h.13l0,0a1.73,1.73,0,0,0,1-.72,4,4,0,0,0,.31-.62h0A2.83,2.83,0,0,0,49.89,23.37ZM46.32,25A2,2,0,0,1,47,23.15a.25.25,0,0,0,.12-.11l.06,0c.17,0,.4-.1.38-.33,0-.5-.06-1-.07-1.51s0-1.16-.08-1.73,0-1.25-.07-1.88a1.85,1.85,0,0,1,.69.75,2.92,2.92,0,0,1,.29.4c-.17.14-.44.16-.58.34a.28.28,0,0,0,.12.38,1.22,1.22,0,0,1,.56.44,2.77,2.77,0,0,0-.45.31.27.27,0,0,0,.11.4,2.2,2.2,0,0,1,.6.54c-.4.23-.82.27-.61.85h0c0,.16,0,.34.07.51s0,.26.17.3a.92.92,0,0,0,.29,0A3,3,0,0,1,49,23a1,1,0,0,1,.5.62,2.53,2.53,0,0,1-.3,2.12,1,1,0,0,0-.07.15l-.06.12a1.23,1.23,0,0,1-.68.55.83.83,0,0,1-.28,0h-.07a.83.83,0,0,1-.27-.07h0a2.16,2.16,0,0,1-.69-.27A2.58,2.58,0,0,1,46.32,25Z"/><polygon class="cls-7" points="47.33 24.82 47.33 24.82 47.33 24.81 47.33 24.82"/><polygon class="cls-7" points="47.37 24.72 47.38 24.72 47.38 24.72 47.37 24.72"/><path class="cls-7" d="M47.3,25.08v.12a.57.57,0,0,1,0,.13.77.77,0,0,0,.57.66.85.85,0,0,0,.26.05c.74,0,1-1.28.27-1.62a.92.92,0,0,0-.85.07h0a1,1,0,0,0-.08.11.44.44,0,0,0-.08.11l0,0v0h0v0s0,.07,0,.11,0,.07,0,.11h0v0Zm.45-.18a.42.42,0,0,1,.3-.12.3.3,0,0,1,.3.19c0,.2.06.58-.2.62C47.72,25.58,47.69,25.24,47.75,24.9Z"/><path class="cls-5" d="M32,23.26s-1.12-.68-1.16-.69a.88.88,0,0,0,.46-.54c.12-.38-.66-.48-.66-.48a15.62,15.62,0,0,1,.14-2.74.88.88,0,0,0-.34-1.11c-.36-.13-1.07.52-1.17.87s.54.6.54.6v3.12l-1.31,1s.16,3.22.18,3.25a8.87,8.87,0,0,0,1,.18,8,8,0,0,0,2.55-.39Zm-1.31,1.81-.77.19c-.05,0-.28-.34-.28-.34s-.08-.9-.07-.93,1.12-.16,1.12-.16Z"/><path class="cls-8" d="M32.14,23.12c-.07-.18-.26-.23-.42-.29s-.31-.16-.47-.25a.56.56,0,0,0,.15-.82c-.1-.19-.32-.24-.52-.3,0-.76,0-1.52,0-2.28a1.57,1.57,0,0,0,.1-.84,1,1,0,0,0-.19-.75.65.65,0,0,0-.38-.11c-.13,0-.3,0-.4.08a1.7,1.7,0,0,0-.82.68.64.64,0,0,0,.46.88c0,1.05-.15,2.07-.15,3.11a3.58,3.58,0,0,0-1.18.93.62.62,0,0,0-.06.48c0,.16,0,.32,0,.48,0,.81.07,1.58.13,2.39,0,.21.18.31.36.34a3,3,0,0,0,.59.1c.64,0,1.28-.07,1.91-.1a2.44,2.44,0,0,0,.84-.19c.16,0,.34-.1.34-.3A10.38,10.38,0,0,0,32.14,23.12Zm-2.53,3.39a2.5,2.5,0,0,1-.77-.09c-.09-1-.14-2-.14-3a5.07,5.07,0,0,1,.83-.69.73.73,0,0,0,.34-.2c.14-.22.05-.51.09-.76s.05-.67.07-1a6.46,6.46,0,0,0,0-1.81c-.07-.14-.24-.17-.37-.23s0-.35.14-.47a2.63,2.63,0,0,1,.41-.27,1.31,1.31,0,0,1,.28,0,3.16,3.16,0,0,1,0,.92.91.91,0,0,0-.1.4,21.36,21.36,0,0,0,0,2.4c.05.16.23.22.38.27a.22.22,0,0,1,.22.24c-.21.16-.57.21-.38.56a.43.43,0,0,0,.28.21,5.5,5.5,0,0,0,.77.38A10.16,10.16,0,0,1,32,26.22,9.15,9.15,0,0,1,29.61,26.51Z"/><path class="cls-8" d="M30.77,23.58c-.28-.11-.61.06-.91,0a1.06,1.06,0,0,0-.46.1.22.22,0,0,0,0,.37c0,.29,0,.58.06.89s.18.47.52.44a1.5,1.5,0,0,0,.83-.14c.17-.05.2-.24.19-.39a6.12,6.12,0,0,0,0-1A.44.44,0,0,0,30.77,23.58ZM30.06,25h-.17c0-.29,0-.62-.06-.92a5.23,5.23,0,0,0,.68-.07,5.57,5.57,0,0,1,0,.92A.91.91,0,0,1,30.06,25Z"/><path class="cls-5" d="M41.81,23.77a2.16,2.16,0,0,0-1-.78l-.07-3.82H39.5v1.36h.56l.06,2.36s-1.29.72-1,1.59a1.15,1.15,0,0,0,1.69.79C41.58,24.92,42.12,24.28,41.81,23.77Zm-1.63.89c-.55-.11-.23-.88,0-1a1.53,1.53,0,0,1,.91.28C41.35,24.19,40.73,24.77,40.18,24.66Z"/><path class="cls-8" d="M41.49,23a.86.86,0,0,0-.53-.23,2.85,2.85,0,0,1,0-.29,23.53,23.53,0,0,1,.1-3.25c0-.2-.17-.28-.34-.3a10.36,10.36,0,0,0-1.12-.07c-.12,0-.29,0-.34.15a5.86,5.86,0,0,0,0,.84c0,.16,0,.31,0,.47s0,.37.23.38h.35c0,.7,0,1.41,0,2.11a2,2,0,0,0-.77.74,1.33,1.33,0,0,0,1.05,2C41.56,25.77,42.87,24,41.49,23Zm-.63,2c-.63.27-1.62,0-1.51-.84a1.24,1.24,0,0,1,.72-1,.27.27,0,0,0,.1-.08.19.19,0,0,0,.11-.16c0-.8,0-1.61,0-2.41a.21.21,0,0,0-.14-.19c-.11-.12-.3-.08-.45-.09v-.13h0c0-.28,0-.57,0-.85.31,0,.61,0,.92.05-.15,1.14,0,2.3-.1,3.44,0,0,0,0,0,.06a.2.2,0,0,0,0,.15c.09.29.49.09.65.32a1.53,1.53,0,0,1,.41.43A1.1,1.1,0,0,1,40.86,25Z"/><path class="cls-8" d="M40.4,23.35c-.37,0-.77.34-.73.74a.74.74,0,0,0,.72.82.87.87,0,0,0,.89-.92A.73.73,0,0,0,40.4,23.35Zm.12,1.12c-.41,0-.48-.26-.32-.58C40.76,23.48,41.13,24.19,40.52,24.47Z"/></g></g></svg>