<svg xmlns="http://www.w3.org/2000/svg" viewBox="0 0 25.79 60.43"><defs><style>.cls-1{fill:#92443f;}.cls-2{fill:#e9a061;}.cls-3{fill:#3c58a4;}.cls-4{fill:#faed62;}.cls-5{fill:#b27e4c;}.cls-6{fill:#cbc478;}.cls-7{fill:#803124;}</style></defs><g id="Layer_2" data-name="Layer 2"><g id="Card"><path class="cls-1" d="M17.14,8.43s-.32,0-.78.42a8,8,0,0,0-1,2.16s.14-1.65-.49-2.3a3.32,3.32,0,0,0-2-1.24c-1.35-.4-2.81-.4-3.76-.94A10.07,10.07,0,0,1,7.24,5.05,2.75,2.75,0,0,1,6.18,6.69a4.87,4.87,0,0,1-1.47.82,6.07,6.07,0,0,1-.27-2.88A5.86,5.86,0,0,1,6.13,2.15l.93-.27S9.17-.34,11.17.3,15.66,1.78,16.35,4A19.84,19.84,0,0,1,17.14,8.43Z"/><path class="cls-2" d="M15.48,13.74l1.33,1a8.43,8.43,0,0,1-1.06,2.09,4,4,0,0,1-2,1.55c-.93.16-1.66.47-2.5-.09A12.61,12.61,0,0,1,9.48,17l.93-1.39Z"/><path class="cls-3" d="M18,15.13a3.43,3.43,0,0,1-1.08,2.23,15.72,15.72,0,0,1-2,1.19l-1.15-.19a3.11,3.11,0,0,1-1.88.82,3.06,3.06,0,0,1-2.14-1.07c-.35-.34-.63-.8-.37-1s.49.18,1.05.55a5.41,5.41,0,0,0,2.14.79,3.35,3.35,0,0,0,1.83-.38,9.77,9.77,0,0,0,2-2.09c.2-.42.55-1.23.55-1.23Z"/><path class="cls-3" d="M21.79,54.22s-.64,1.7-1.59,1.57-1.84.14-2.08-.37a1.63,1.63,0,0,1,0-1.14,12.88,12.88,0,0,0,2,.35A4,4,0,0,0,21.79,54.22Z"/><path class="cls-3" d="M8.71,50.84s-1.48.64-2.22,0a3.46,3.46,0,0,1-.77-2.16s1.19.88,1.67,1.13A16,16,0,0,0,9,50.5Z"/><path class="cls-4" d="M18,15.13l2.8.82a10.69,10.69,0,0,1,2.69,1.61,12.19,12.19,0,0,1,2,3.8,7.28,7.28,0,0,1-.46,3.72,5,5,0,0,1-1.4,2.18,10.14,10.14,0,0,0-1.86,2.11,34.9,34.9,0,0,0,.67,4.18,26,26,0,0,1,.76,5.83c-.09,1.31-.15,5.27-.24,6s.36,3,.24,4-.37,3.22-.95,3.86-.48,1-.48,1-1.76.88-2.71.47-1.27-.06-1.27-.06-.24-2-.27-3.3.8-3.8.71-4.47-.86-3-.86-3l-.32-1.29-1.77-.06-1.36-.47L12,44.46l-1.39,1.79-.45,2.24L9.11,50.61a9.82,9.82,0,0,1-2.4-1,7,7,0,0,1-1-.92L6,45.65l.75-3.91L9.3,38.12l.38-3.35a11.34,11.34,0,0,0,.82-3.15L10,28.21a4.43,4.43,0,0,1-1.43.8,11.79,11.79,0,0,1-1.23.21A4.38,4.38,0,0,0,7,27.42a10.39,10.39,0,0,0-.83-1.56l.71-1.28s-.17-2.74.66-3.94a22.36,22.36,0,0,0,1.67-3.16A2.87,2.87,0,0,0,10.82,19a2.88,2.88,0,0,0,2.25-.26,6.33,6.33,0,0,0,3.09-.46C17.14,17.66,18,15.13,18,15.13Z"/><path class="cls-2" d="M5.69,49.8a3.17,3.17,0,0,1-1.41,1.34C3.42,51.45.86,52.43.55,53s-.87.79.37,1.22a5,5,0,0,0,3.28-.06c.51-.28,1.19,0,1.67.08s2.36.36,2.86,0a1.05,1.05,0,0,0,.35-1.12c0-.31-.2-1.86-.2-1.86A2.64,2.64,0,0,1,7.07,51,4,4,0,0,1,5.69,49.8Z"/><path class="cls-2" d="M17.88,54.91A5,5,0,0,1,17,56.48c-.43.3-1.26.69-1.31,1.28s-.11,1.69.52,2a1.77,1.77,0,0,0,1.36,0l.63.42.67-.47s.29.57.61.47.64-.61.64-.61a1.19,1.19,0,0,0,.69.25c.32,0,.34-.49.34-.49s.57.06.57-.39-.47-1.57-.57-2.3a13.85,13.85,0,0,0-.28-1.42,2.59,2.59,0,0,1-1.57.42C18,55.54,17.88,54.91,17.88,54.91Z"/><path class="cls-2" d="M6.19,25.86s-.2.39-.53,0-.57-1.08-1-1.08-.63.16-.57.39a5.36,5.36,0,0,1,.13.65s-1.12.27-1,.76a3.44,3.44,0,0,0,.3.87s-.5.29-.31.67.31.45.31.45-.52.22-.35.53a.77.77,0,0,0,.5.38s-.5.47-.15.72,0,.35.81.32,1.37-1,1.37-1l1.51-.16a3.35,3.35,0,0,0-.1-1.82A8.67,8.67,0,0,0,6.19,25.86Z"/><path class="cls-2" d="M19.11,27.26a2.69,2.69,0,0,1-1.29.72,1.74,1.74,0,0,0-1.33.86c-.06.26-.22.38,0,.66a1.85,1.85,0,0,0,.45.42L17,31.05s.67.71.74.84.09.61.62.75.76-.14,1.08-.1a1.29,1.29,0,0,0,1.21-.23,16.53,16.53,0,0,0,1.14-2.94,4.06,4.06,0,0,0-1.21-1.58A1.82,1.82,0,0,0,19.11,27.26Z"/><path class="cls-2" d="M17.45,8.45s.49,0,.55.92a2,2,0,0,1-.71,2,2.08,2.08,0,0,0-.78.89s-.3,2.34-1.18,3a12.82,12.82,0,0,1-2.6,2c-.78.28-1.23.51-1.63.13a6.76,6.76,0,0,1-.7-.76s-1.68-.41-2.19-1.21S7.05,13,6.74,12.49a10.79,10.79,0,0,1-.88-1.38A16,16,0,0,1,5.32,8.8L5,7.28s1.32-.44,1.63-1.07.58-1.16.58-1.16a4.74,4.74,0,0,0,2,1.67c1.11.33,2.84.43,3.6.75a15.47,15.47,0,0,1,1.63.88l1.06,2.34a3.2,3.2,0,0,1,.58-1.57C16.63,8.57,16.88,8.2,17.45,8.45Z"/><path class="cls-5" d="M1.66,51.9a6.6,6.6,0,0,1,.66-.27c.57-.22,1.15-.41,1.7-.68a4.66,4.66,0,0,0,.77-.47,3.17,3.17,0,0,0,.34-.28c.11-.11.1-.18.16-.3a.3.3,0,0,1,.4-.1c.16.1.13.32.07.48a2.33,2.33,0,0,1-1.07.91c-1,.61-2.25.83-3.27,1.47-.32.2-.82.53-.87,1s1.05.47,1.36.48a9.68,9.68,0,0,0,2.22-.24,5.6,5.6,0,0,1,2.15.21,4.12,4.12,0,0,0,2.15,0c.18-.08.24-.13.27-.33a3,3,0,0,0,0-.52c0-.37-.08-.72-.12-1.09a2.75,2.75,0,0,1,0-1,4.71,4.71,0,0,0,.54.12,3.05,3.05,0,0,0,0,1.31,4.93,4.93,0,0,1,.07.66c0,.2,0,.39,0,.59s0,.26-.08.41a1.37,1.37,0,0,1-.72.41,5.44,5.44,0,0,1-1.93,0,8,8,0,0,0-2.17-.28,10.65,10.65,0,0,1-2.17.27c-.76,0-2.34,0-2.14-1.14C.15,52.74.93,52.24,1.66,51.9Z"/><path class="cls-5" d="M7.48,54.69h0Z"/><path class="cls-6" d="M14.94,36.69c.23-.09.16-.33.13-.52s-.08-.5-.14-.75c-.24-1.59-.59-3.15-.94-4.71a58.45,58.45,0,0,1-.92-11.95c.07-.44-.52-.59-.56-.1,0,1.11-.07,2.24,0,3.35.11,1.31.09,2.6.27,3.9A50.49,50.49,0,0,0,14,33c.16.89.31,1.79.48,2.68,0,.19.07.39.1.58S14.67,36.8,14.94,36.69Z"/><circle class="cls-3" cx="13.64" cy="20.14" r="0.27"/><path class="cls-3" d="M14,22.36a.27.27,0,0,0,.05-.38l0,0,0,0a.28.28,0,0,0-.51.2A.29.29,0,0,0,14,22.36Z"/><circle class="cls-3" cx="14" cy="24.04" r="0.27"/><path class="cls-3" d="M14.52,26.32a.28.28,0,1,0-.55,0A.28.28,0,0,0,14.52,26.32Z"/><circle class="cls-3" cx="14.55" cy="27.82" r="0.27"/><circle class="cls-3" cx="14.79" cy="29.61" r="0.27"/><circle class="cls-3" cx="15.25" cy="31.89" r="0.27"/><circle class="cls-3" cx="15.57" cy="33.71" r="0.27"/><circle class="cls-3" cx="15.75" cy="35.58" r="0.27"/><path class="cls-5" d="M21.08,55.22l0,0h0Z"/><path class="cls-5" d="M15.53,57.38c.39-.71,1.24-1,1.62-1.75a3.81,3.81,0,0,0,.29-.52c.06-.21.07-.51.37-.48.62.15-.21,1.33-.42,1.62s-.41.42-.62.64-.66.45-.79.84c-.22.71,0,1.81.78,2.06a1.55,1.55,0,0,0,.31,0,.79.79,0,0,1,.18-.14c0-.35.1-.73-.13-1a.27.27,0,0,1,.22-.5c.65.34.43,1.15.47,1.74a.54.54,0,0,0,.56-.19.24.24,0,0,1,.13-.22,3.54,3.54,0,0,0,0-.46c-.08-.2-.22-.47.05-.59.57-.16.5.87.53,1.2s.44.31.56,0-.3-1.05.15-1.24a.27.27,0,0,1,.29.1c.2.36.08.82.27,1.19.66-.11.26-.85.19-1.27A.28.28,0,0,1,21,58.2a5.26,5.26,0,0,1,.22.89c.21-.39,0-.85-.06-1.25a10.2,10.2,0,0,1-.55-2.37.28.28,0,0,1,.45-.24.26.26,0,0,1,.09.27,2.75,2.75,0,0,0,.19,1,7.84,7.84,0,0,1,.51,2.36c0,.41-.33.92-.79.92-.22.3-.81.58-1.12.27a1,1,0,0,1-.34.27.73.73,0,0,1-.88-.14l-.05-.09a1.17,1.17,0,0,1-.61.3.72.72,0,0,1-.7-.21.84.84,0,0,1-.42.12C15.56,60.39,15,58.46,15.53,57.38Z"/><path class="cls-5" d="M16.94,60.32h0Z"/><path class="cls-5" d="M16.21,29.15c-.06-.38.25-.64.53-.84s.53-.37.81-.54a11.55,11.55,0,0,0,1.13-.52.28.28,0,0,1,.53.18c-.3.59-1.13.55-1.6,1a7.39,7.39,0,0,0-.85.62,1.08,1.08,0,0,0,.09.46,1.19,1.19,0,0,1,.39-.53.27.27,0,0,1,.37.09.29.29,0,0,1-.13.41,1.72,1.72,0,0,0-.23.95,1.12,1.12,0,0,0,.07.6,3.3,3.3,0,0,0,.57.61c.24.43.28.69.85.66a1.81,1.81,0,0,1,.52-.06c.24,0,.46.13.7.14.53-.12.79-.71,1-1.18s.32-1.3.55-1.93a.27.27,0,0,1,.54.06c0,.21-.12.35-.16.58-.25,1.06-.55,2.64-1.74,3a2.26,2.26,0,0,1-.85-.13,1.26,1.26,0,0,0-.37,0,1.28,1.28,0,0,1-1.07-.27,1.85,1.85,0,0,1-.37-.58,1.92,1.92,0,0,1-.75-1.07c0-.2,0-.42,0-.64C16.41,30.09,16.25,29.41,16.21,29.15Z"/><path class="cls-5" d="M3.29,29.69a.37.37,0,0,0,0,.39,1,1,0,0,0,1.1.67,1.73,1.73,0,0,0,.73-.26,1.29,1.29,0,0,0,.47-.33.66.66,0,0,0,.11-.24.27.27,0,0,0,.18.07,2.11,2.11,0,0,0,.45-.09h0a4.36,4.36,0,0,0,1.12-.38.27.27,0,0,0-.26-.48,5,5,0,0,1-1.31.4.23.23,0,0,0-.17.08.49.49,0,0,0-.18-.3h0a.73.73,0,0,0,0-.63l.08-.1c.24.28.54.48.71.23a.28.28,0,0,0-.1-.4,1.73,1.73,0,0,1-.48-.59s0,0,0,0a.87.87,0,0,0,.08-.1,1,1,0,0,0-.68-1.37c-.19,0-.44.08-.43.32a.28.28,0,0,0,.39.23c.8.57-.24.92-.77.77s-1-.63-.6-1.05c.12-.07.23-.19.37-.21s.07,0,.11,0a.25.25,0,0,0,.37-.17c.12-.32-.38-1.21.28-1,.37.24.43.78.78,1a.56.56,0,0,0,.9-.3.28.28,0,0,0-.53-.13l0,0h0c-.29-.29-.38-.73-.69-1a.93.93,0,0,0-1-.09c-.38.27-.32.73-.26,1.14l-.11,0c-.92.36-1,1.05-.68,1.59a1.07,1.07,0,0,0-.06,1.08A.24.24,0,0,0,3,28.6,1,1,0,0,0,3.29,29.69ZM5.15,28c0,.34-.51.45-.82.43s-.7,0-.79-.34a.5.5,0,0,1,0-.32,1.71,1.71,0,0,0,1.26.33ZM3.81,29.91a1.07,1.07,0,0,0,.31,0,2.43,2.43,0,0,0,1-.26l.08.07c0,.22-.28.24-.42.35a.83.83,0,0,1-.87,0A.56.56,0,0,1,3.81,29.91Zm-.35-1.07a1.26,1.26,0,0,0,.69.15,1.78,1.78,0,0,0,.85-.1l0,0c0,.45-1.33.64-1.51.25A.4.4,0,0,1,3.46,28.84Z"/><path class="cls-6" d="M9.63,22.23a0,0,0,0,1,0,0s0,0,0,0S9.63,22.25,9.63,22.23Z"/><path class="cls-6" d="M5.44,49.84a3.36,3.36,0,0,0,1,1,3,3,0,0,0,1.82.56,1,1,0,0,0,.8-.22h.05c.24-.95,1.13-1.61,1.29-2.6.17-.61.13-1.26.29-1.87a7.58,7.58,0,0,1,1.52-2.08c.68-.71,1-1.7,1.72-2.39a3.6,3.6,0,0,0,1.76.57l1.15,0A6.72,6.72,0,0,0,17.45,45a6.52,6.52,0,0,1,.18,3.13,12.83,12.83,0,0,0-.36,3.38c.11,1.07.2,2.14.38,3.19.19.75.38,1.32,1.28,1.23a3.86,3.86,0,0,0,1.27-.17,2.24,2.24,0,0,0,1.38-.65A11.36,11.36,0,0,0,23.3,51c.5-1.6-.25-3.24-.14-4.86,0-1,.22-2.11.26-3.13a48.48,48.48,0,0,0-.09-6.71,33.76,33.76,0,0,0-.76-3.73,16.66,16.66,0,0,1-.38-3.22c.19-.2.35-.41.53-.61.44-.55,1-1,1.43-1.49a11.33,11.33,0,0,0,1.52-3.49,7.59,7.59,0,0,0,.11-1.43,5,5,0,0,0-.13-1.68,8.36,8.36,0,0,0-3.72-4.6,11.62,11.62,0,0,0-2.85-.87A12.43,12.43,0,0,1,17,14.52c-.32-.14-.59-.42-1-.45a.28.28,0,0,0-.36.14.28.28,0,0,0,.15.36c.1,0,.23,0,.34.09s.26.16.4.24h0a6.17,6.17,0,0,1-1.27,2,4.49,4.49,0,0,1-1.2,1,2.52,2.52,0,0,1-1.55.31,3.26,3.26,0,0,1-1.84-.67,5.45,5.45,0,0,1-.78-.66.3.3,0,0,0-.25-.11.26.26,0,0,0-.4.07c-.18,0-.31.23-.3.44-.24.35-.49.69-.71,1.05s-.41.93-.62,1.39a10.79,10.79,0,0,0-.81,2.36c-.2,1.06.1,2.24-.58,3.16a.67.67,0,0,0-.25.65c.2.52.58,1,.77,1.49A4.58,4.58,0,0,1,7,29c0,.44.12.71.61.57A1.84,1.84,0,0,0,8,29.4c.19,0,.35-.06.53-.11a3.73,3.73,0,0,0,1.12-.69,11.13,11.13,0,0,0,.45,2.49c.3,1.59-.59,3.07-.89,4.6A7.19,7.19,0,0,0,9,37.85a2.31,2.31,0,0,1-.52,1c-.58.87-1.23,1.7-1.76,2.6a12.81,12.81,0,0,0-1,5.75A10,10,0,0,1,5.41,49v0C5.23,49.19,5.37,49.62,5.44,49.84Zm6.84-31.05a1.87,1.87,0,0,1-1.73-.39,2.28,2.28,0,0,1-1-1s0,0,0,0A4.6,4.6,0,0,0,12.28,18.79Zm4.79-3.66.58.22a7.51,7.51,0,0,1-1,1.85,4.94,4.94,0,0,1-1.28.9,2.9,2.9,0,0,1-.75.17,4.54,4.54,0,0,0,.84-.73,5,5,0,0,0,1.24-1.67A7.21,7.21,0,0,0,17.07,15.13Zm1.4,40.24a1.91,1.91,0,0,1-.22-.53,1.84,1.84,0,0,0,.47.07,6.6,6.6,0,0,0,2.22-.26l.33,0a1.06,1.06,0,0,1-.35.35,2.13,2.13,0,0,1-.91.3,3.38,3.38,0,0,1-1,.14A1.69,1.69,0,0,1,18.47,55.37ZM9.7,49.11c-.19.4-.48.78-.71,1.16a.29.29,0,0,1-.16,0,7.24,7.24,0,0,0-.94-.36A7.92,7.92,0,0,1,6.5,49a2.68,2.68,0,0,1-.36-.29.27.27,0,0,0-.1-.11,25,25,0,0,0,.31-3.77,8.86,8.86,0,0,1,.83-3.08c.49-.81,1-1.55,1.57-2.3a4,4,0,0,0,.78-1.55c-.07-1.81.7-3.46,1.12-5.18A5.35,5.35,0,0,0,10.44,30a6.58,6.58,0,0,1-.2-2,.08.08,0,0,1,0,0,.16.16,0,0,0,0-.1c0-.14,0-.27,0-.41,0-1,.06-2,.05-3,0-.44.1-2.48-.41-2.43a.26.26,0,0,0-.26.24,37.29,37.29,0,0,1,.07,5.39c0,.06,0,.12,0,.19a.77.77,0,0,0-.19.21,3.22,3.22,0,0,1-1.08.71,4.06,4.06,0,0,0-.86.25,5.22,5.22,0,0,0-.29-1.84c-.21-.5-.53-.9-.73-1.37,1-1,.63-2.52.87-3.79a13.27,13.27,0,0,1,.79-2.13,12.7,12.7,0,0,1,.67-1.45c.12-.15.24-.32.35-.49a3.85,3.85,0,0,0,1.13,1,2.45,2.45,0,0,0,1.61.5,3,3,0,0,0,1-.36.28.28,0,0,0,.15-.25,8.61,8.61,0,0,1,1,0,3.82,3.82,0,0,0,2-.56,5.41,5.41,0,0,0,1-.81,8,8,0,0,0,1.05-2l.47.14a27.93,27.93,0,0,1,2.72.73,7.47,7.47,0,0,1,3.33,3.43,4.15,4.15,0,0,1,.55,2.41A8.14,8.14,0,0,1,24,26.5a5.61,5.61,0,0,1-1.2,1.37c-.31.32-.6.66-.88,1a3.35,3.35,0,0,0-2.19-1.78c-.12,0-.24,0-.37,0a.5.5,0,0,1,0-.17,5.28,5.28,0,0,1,.9-1.9c.37-.57,1.29-1.24.81-2a5.77,5.77,0,0,1-.67-.64,3.43,3.43,0,0,0-.86-.92.63.63,0,0,0-.66,0c-.19.13-.27.46,0,.56a.26.26,0,0,0,.33-.1c.22.06.35.29.49.46a4.71,4.71,0,0,0,.92,1c.18.38-.39.75-.56,1.05-.57.74-1.41,2.06-1.21,3h0a.27.27,0,0,0,.09.21c.16.13.3,0,.46,0a2,2,0,0,1,1.22.53,2.35,2.35,0,0,1,.85,1.05.45.45,0,0,1,0,.23.27.27,0,0,0,.13.21,6.63,6.63,0,0,0,.09,1.18c.17,1,.29,2,.56,3A30.86,30.86,0,0,1,22.88,43a33.53,33.53,0,0,0-.26,3.48c-.05,1.21.35,2.38.31,3.59a8.8,8.8,0,0,1-.36,1.58,9,9,0,0,1-.87,2.25.23.23,0,0,0-.17.15c-.17.09-.39,0-.58.07a3.45,3.45,0,0,0-.63.17,5.49,5.49,0,0,1-2,0,.33.33,0,0,0-.17,0c-.12-.85-.2-1.72-.3-2.57a11.59,11.59,0,0,1,.32-3.38A7,7,0,0,0,18,45.07c-.16-.52-.41-1-.52-1.56,0-.2-.06-.39-.07-.58s.09-.7-.29-.73a.19.19,0,0,0-.1,0,.33.33,0,0,0-.19,0c-.43,0-.85,0-1.27,0A3.55,3.55,0,0,1,14.53,42c-.43-.27-.71-.44-1,.07A15.1,15.1,0,0,0,12.14,44a13,13,0,0,0-1.76,2.28C9.91,47.13,10.19,48.23,9.7,49.11Zm-3.83.13A10.39,10.39,0,0,0,7.69,50.4c.23.12.5.14.73.26a1.2,1.2,0,0,0,.31.13l0,.05,0,0a2.56,2.56,0,0,1-2.15-.64C6.21,50,5.85,49.68,5.87,49.24Z"/><path class="cls-5" d="M5,7.28c.41-.09.42.47.46.76a11.63,11.63,0,0,0,.88,3.33,10.43,10.43,0,0,1,.72,1.21A6.15,6.15,0,0,0,9,15.63a4.53,4.53,0,0,0,1.09.64l0,0a.25.25,0,0,1,.18-.26.27.27,0,0,1,.34.17c.25,1,1,1.12,1.87.81a5,5,0,0,0,1-.65c.43-.35.93-.63,1.34-1a6.25,6.25,0,0,0,.76-.94,8.54,8.54,0,0,0,.52-1.79,1.77,1.77,0,0,1,.8-1.36,3.1,3.1,0,0,0,.67-1c.17-.41.17-1.28-.32-1.46l.12-.54a1.09,1.09,0,0,1,.72.73,2.64,2.64,0,0,1-.81,2.71,1.2,1.2,0,0,0-.52.57,21.58,21.58,0,0,1-.6,2.23,4.71,4.71,0,0,1-.81,1.12,13.78,13.78,0,0,1-1.53,1.21,3.49,3.49,0,0,1-2,.9A1.53,1.53,0,0,1,10.43,17a2.49,2.49,0,0,1-.69-.3,5,5,0,0,1-1.28-.81,7.3,7.3,0,0,1-1.93-3.24c-.21-.46-.57-.83-.77-1.29a18.33,18.33,0,0,1-.91-3.75A.28.28,0,0,1,5,7.28Z"/><path class="cls-7" d="M4.17,5.3a7,7,0,0,0,.09,1.37c0,.23.07.45.12.67a2,2,0,0,0,.26.58c.11.21.36.8.67.46s-.15-.58-.23-.8a1.25,1.25,0,0,0,.64-.26,5.79,5.79,0,0,0,1-.81A2.69,2.69,0,0,0,7.08,6c.11-.18.17-.39.27-.57.08.08.15.17.23.26a5.66,5.66,0,0,0,2.54,1.44,12.39,12.39,0,0,0,1.47.31A10.52,10.52,0,0,1,13,7.72a2.54,2.54,0,0,1,1.85,1.55c.14.51.16,1,.25,1.56,0,.19,0,.46.27.53s.36-.23.42-.41a6.59,6.59,0,0,1,.55-1.44c.22-.33.48-.93,1-.75a4.44,4.44,0,0,0,.16-1.4A9.24,9.24,0,0,0,17.3,6a7.07,7.07,0,0,0-.41-1.28,7.65,7.65,0,0,0-1.22-2.2A7.49,7.49,0,0,0,14,1,6.06,6.06,0,0,0,11.84.11,7.38,7.38,0,0,0,10.43,0,6.1,6.1,0,0,0,9,.16,3.44,3.44,0,0,0,7.9.79a2.92,2.92,0,0,0-.46.47,2,2,0,0,1-.22.27c-.07.05-.2,0-.29.06A3.12,3.12,0,0,0,5,3a4.89,4.89,0,0,0-.65,1.41A4.3,4.3,0,0,0,4.17,5.3Zm4.92.85A3.59,3.59,0,0,1,7.43,4.52a2.47,2.47,0,0,1-.18-1.23,4.64,4.64,0,0,1,.16-.81c0-.13.07-.26.11-.39a1.29,1.29,0,0,1,.19-.32A3.12,3.12,0,0,1,8.8.85a3.39,3.39,0,0,1,1.3-.3,6.05,6.05,0,0,1,2.63.4,6.4,6.4,0,0,1,2.17,1.5,6.5,6.5,0,0,1,.83,1,8.58,8.58,0,0,1,.67,1.4,7.29,7.29,0,0,1,.42,1.52,7.3,7.3,0,0,1,.08.93c0,.16,0,.31,0,.47a2.74,2.74,0,0,1,0,.4,1.3,1.3,0,0,0-.42.18,1.94,1.94,0,0,0-.57.67,5,5,0,0,0-.44.9,5.41,5.41,0,0,0-.07-.58A2.75,2.75,0,0,0,14.24,7.7a4.57,4.57,0,0,0-1-.47A7.39,7.39,0,0,0,11.84,7,14.57,14.57,0,0,1,10,6.53,7.14,7.14,0,0,1,9.09,6.15Zm-4-2.27A2.88,2.88,0,0,1,6.93,2.15,3.58,3.58,0,0,0,7,4.86a.38.38,0,0,0-.09.19,3.36,3.36,0,0,1-.3.7,4.56,4.56,0,0,1-1,1A1.35,1.35,0,0,1,5,7.05l-.1.06a1.55,1.55,0,0,1-.06-.31A4.43,4.43,0,0,1,5.09,3.88Z"/><path d="M12.18,14.44a.28.28,0,1,0-.26.28A.27.27,0,0,0,12.18,14.44Z"/><path class="cls-7" d="M12.4,9.24a.26.26,0,0,0,.22-.31.3.3,0,0,0-.28-.24,4.44,4.44,0,0,0-1.83-.34c-.17,0-.43,0-.51.18a.27.27,0,0,0,.34.38A3.72,3.72,0,0,1,11.67,9,2.41,2.41,0,0,0,12.4,9.24Z"/><path class="cls-7" d="M6.54,10.24A2.7,2.7,0,0,1,7,9.49a2.66,2.66,0,0,1,.65-.23.28.28,0,0,0,0-.55,1.55,1.55,0,0,0-.36.08,4.55,4.55,0,0,0-.63.3,3.2,3.2,0,0,0-.61.89A.28.28,0,0,0,6.54,10.24Z"/><path class="cls-7" d="M11.79,11.33a1.57,1.57,0,0,0,1-.29.27.27,0,0,0,0-.51c-.19-.07-.32.09-.47.17a.94.94,0,0,1-1-.08.27.27,0,0,0-.31.45A1,1,0,0,0,11.79,11.33Z"/><path class="cls-7" d="M8.3,12a2.51,2.51,0,0,0,.49-.34c.3-.33-.21-.75-.43-.34a.77.77,0,0,1-.93.11.27.27,0,0,0-.35.17C6.94,12.07,8,12.13,8.3,12Z"/><path class="cls-7" d="M10.16,13.34c.27-.05.68-.17.65-.52a.28.28,0,0,0-.31-.22c-.11,0-.15.11-.24.15a.94.94,0,0,1-.59.06.28.28,0,0,0-.37.12C9.13,13.41,9.85,13.43,10.16,13.34Z"/><path class="cls-7" d="M10.66,15.35a3.09,3.09,0,0,0,1-.36c.24-.15.77-.39.46-.73s-.45.14-.68.22a2.29,2.29,0,0,1-1.14.36c-.24-.05-.67-.23-.73.15a.28.28,0,0,0,.27.3A1.56,1.56,0,0,0,10.66,15.35Z"/><path class="cls-6" d="M25.22,21.57a.31.31,0,0,0,.2-.24.72.72,0,0,0-.36-.71.21.21,0,0,0-.15,0,.25.25,0,0,0-.19,0,.25.25,0,0,0,0-.15l.15-.15a.24.24,0,0,0-.25-.39.79.79,0,0,0,.08-.29c.13-.19-.12-.43-.33-.34l-.05,0a.63.63,0,0,0,.06-.4A.35.35,0,0,0,24,18.6a.25.25,0,0,0-.35-.3l-.07,0a1.68,1.68,0,0,0,.06-.24.26.26,0,0,0-.26-.25s0-.05,0-.07a.26.26,0,0,0-.18-.31.88.88,0,0,0-.35,0c-.07-.21-.28-.29-.53-.3a.27.27,0,0,0-.25-.23h0a.26.26,0,0,0-.27-.1,2.42,2.42,0,0,0-.52.23.21.21,0,0,0,0-.1l.28-.21a.25.25,0,0,0-.25-.43,2,2,0,0,0-.24.16.12.12,0,0,0-.08,0h0a.54.54,0,0,0-.09-.26.47.47,0,0,0-.57-.2l0,0c.09-.23-.26-.43-.42-.24l-.08.09a.28.28,0,0,0-.37,0l-.07.05h0a.23.23,0,0,0-.2-.17c0-.07-.08-.14-.15-.15h-.18s0-.05,0-.08a.27.27,0,0,0-.4-.05l-.14.16c-.11-.1-.28-.13-.35,0a5.46,5.46,0,0,0-.28.77.25.25,0,0,0,.19.29s0,0,0,0l-.1.12h0l0,.05a.2.2,0,0,0,0,.24h0c-.15.21.14.46.34.34a5.91,5.91,0,0,0,.66-.45l0,0c0,.17.13.38.31.31l0,0a.25.25,0,0,0,.36.27l.12-.07a.25.25,0,0,0,.23.19l.1,0a.26.26,0,0,0,.36,0l.28-.23a.61.61,0,0,0-.05.12.26.26,0,0,0,.37.29l.17-.11c-.07.1-.15.2-.21.3a.26.26,0,0,0,0,.24.24.24,0,0,0,.29.36l-.13.2c-.1.17.07.45.28.36l.1-.05a.24.24,0,0,0,.31.26l.05,0c0,.16.14.34.31.27l.22-.1a.57.57,0,0,0,0,.23.26.26,0,0,0,.32.24,1,1,0,0,0,.23-.06l-.11.11a.25.25,0,0,0,.17.43.59.59,0,0,0,.2-.05c-.14.22.15.45.35.34l.4-.23a.25.25,0,0,0,.06.34,2.19,2.19,0,0,0-.34.34.22.22,0,0,0,.06.3.24.24,0,0,0,.26.37.43.43,0,0,0,0,.33.45.45,0,0,0,.42.23.26.26,0,0,0,.06.18s0,0,0,0,0,0,0,0a.22.22,0,0,0,0,.26.78.78,0,0,0-.23.51.22.22,0,0,0,.05.11,1.33,1.33,0,0,0-.38.67.31.31,0,0,0,.11.28,1.05,1.05,0,0,0-.13.26s0,0,0,0a1.14,1.14,0,0,0-.23.3,1.67,1.67,0,0,0-1,.51.25.25,0,0,0,.11.42l.11,0h0c0,.05.06.07.09.11a.25.25,0,0,0-.11.16.37.37,0,0,0-.16.3.27.27,0,0,0-.24.25.68.68,0,0,0,0,.14.25.25,0,0,0-.15.3s0,0,0,0h0a.26.26,0,0,0-.22.38.38.38,0,0,0-.19.29.39.39,0,0,0-.19.12h0c-.27-.05-.46.31-.2.46l.07,0h0l.07,0a1,1,0,0,0,1-.37c.15-.15.27-.31.4-.46h0l.07-.08c.25-.26.56-.48.84-.72,0,0,0,0,.05,0l.15-.12a.24.24,0,0,0,0-.35c.12-.27.38-.68.45-.88a.22.22,0,0,0-.09-.25.22.22,0,0,0,.2-.11.75.75,0,0,0,.1-.33c.08-.25.16-.5.22-.76,0,0,0,0,0,0a.25.25,0,0,0,0-.33l0-.21a.06.06,0,0,1,0,0c0-.07,0-.14,0-.21h0s0-.08,0-.12h0a.17.17,0,0,0,0-.07v-.09l.1,0a.25.25,0,0,0,.09-.42A2.76,2.76,0,0,0,25.22,21.57Zm-1.61,4.11,0,0a.41.41,0,0,1-.05.09.27.27,0,0,0-.13-.07Zm.2-6.61h0Zm-1-1.06,0-.07h.05S22.84,18,22.83,18Zm-.52.09-.08,0,.06-.06Zm1,1.09.07.06-.21.1s0,0,0,0h0Zm1.37,2.54a1.31,1.31,0,0,0,.05.22l-.08,0c-.13,0-.21.1-.19,0S24.53,21.82,24.64,21.73Zm-1.39,5.14h0a.32.32,0,0,0,.14,0l-.12.09S23.27,26.88,23.25,26.87Zm.29-.15h0Z"/><path class="cls-6" d="M19.5,25.09l.42-.19a.22.22,0,0,0,.1-.29l.1-.06a.22.22,0,0,0,.1-.24,1.24,1.24,0,0,0,.23-.17.27.27,0,0,0,0-.33l.06,0a.24.24,0,0,0,0-.32.24.24,0,0,0-.27-.34l-.17,0a.63.63,0,0,0,.15-.18.26.26,0,0,0-.21-.38l-.28,0,0,0a.26.26,0,0,0-.11-.41.25.25,0,0,0-.34-.33c-.1,0-.2.1-.3.15a.23.23,0,0,0-.11.27l0,0a.25.25,0,0,0,.07.39l-.09.09c-.13.14-.05.44.18.42l.39-.05a.29.29,0,0,0,0,.4.32.32,0,0,0,.13.1.24.24,0,0,0,.23.33h0s0,0,0,0a1.37,1.37,0,0,0-.47.39l-.29.18c-.17-.15-.51,0-.4.24l.07.19c0,.05-.11.07-.16.12h0a2.29,2.29,0,0,0-.54.38.17.17,0,0,0-.07.14.76.76,0,0,0-.34.49.3.3,0,0,0,0,.21.25.25,0,0,0,0,.12,1.36,1.36,0,0,0-.12.12.27.27,0,0,0-.06.16.85.85,0,0,0-.32.57.21.21,0,0,0,0,.15h0c-.18.13-.15.5.13.46a2.59,2.59,0,0,0,.89-.29.17.17,0,0,0,.1,0c.26-.15.61-.45.53-.76a2.93,2.93,0,0,0,.36-.43.26.26,0,0,0,0-.17,1.17,1.17,0,0,0,.21-.6,1.12,1.12,0,0,0,0-.32l.05,0A.2.2,0,0,0,19.5,25.09Z"/><path class="cls-6" d="M23.08,38.9a.25.25,0,0,0-.09-.29l.05,0c.13-.24,0-.31,0-.5s0,.07,0-.24a3.62,3.62,0,0,0,0-.57,2.6,2.6,0,0,0-.13-.36,2.45,2.45,0,0,1-.11-.76s0,0,0,0a0,0,0,0,1,0,0,.22.22,0,0,0-.05-.11h0a.25.25,0,0,0-.13-.49.22.22,0,0,0,0-.08.24.24,0,0,0-.23-.4l-.24,0a1.82,1.82,0,0,0,.35-.27.25.25,0,0,0-.11-.41.25.25,0,0,0-.06-.49l0,0h0a.25.25,0,0,0-.07-.45.24.24,0,0,0-.12-.14.26.26,0,0,0-.19-.19L22,33c.21-.15.09-.54-.19-.46h0a.26.26,0,0,0,0-.45l.11-.16a.25.25,0,0,0,0-.25l0-.17c.15-.28-.28-.54-.43-.25a.54.54,0,0,0,0,.53c-.11.16-.23.32-.33.49a.22.22,0,0,0,0,.18,1.56,1.56,0,0,0-.44.48.26.26,0,0,0,.2.38.23.23,0,0,0,0,.18,11.56,11.56,0,0,0-1.23.59c-.21.11-.13.49.12.46s.25,0,.37-.06a.2.2,0,0,0,.17.2,1.69,1.69,0,0,0,.45,0,.22.22,0,0,0,.16.22A.2.2,0,0,0,21,35l.26-.08.19,0a2,2,0,0,0-.29.22.25.25,0,0,0,.11.42.58.58,0,0,0,.14,0v0l-.13.06a.24.24,0,0,0,0,.42c-.08.06-.16.1-.23.16a.24.24,0,0,0,.08.4h0c-.1.14,0,.32.15.37h.05a1,1,0,0,0-.18.23.24.24,0,0,0,0,.22l-.1.09a.25.25,0,0,0,.11.42h0a.24.24,0,0,0,.07.35l.08,0a.23.23,0,0,0,0,.2.69.69,0,0,0-.15.07.24.24,0,0,0-.05.39h0l-.11.11a.21.21,0,0,0,0,.27.65.65,0,0,0-.17.2.25.25,0,0,0,.21.37,1.93,1.93,0,0,0-.4.24.25.25,0,0,0,.11.42l.22,0a.24.24,0,0,0,.12.14l-.19.11a.26.26,0,0,0,.06.46,1.22,1.22,0,0,0,.42.06.19.19,0,0,0,.14.1l.17,0a.26.26,0,0,0,0,.29h0l-.19.12a.26.26,0,0,0-.09.34.65.65,0,0,0,.09.08,1.28,1.28,0,0,0-.14.23.26.26,0,0,0,.09.34l.17.06a.36.36,0,0,0,.33.37c-.23.1-.45.23-.67.35a.25.25,0,0,0,0,.43.8.8,0,0,0,.25.11.31.31,0,0,0,0,.19,1.47,1.47,0,0,0-.38.25.27.27,0,0,0,0,.36h0c-.11.08-.19.28-.05.39h0a.23.23,0,0,0,0,.26.67.67,0,0,0-.2.21.27.27,0,0,0,0,.3,1.33,1.33,0,0,0-.49.33.26.26,0,0,0,.18.43H21a.24.24,0,0,0,0,.35.75.75,0,0,0,.33.17h0a.22.22,0,0,0,.09.26l-.08.05a.23.23,0,0,0-.06.22,1.77,1.77,0,0,0-.43.28.24.24,0,0,0,.13.41.26.26,0,0,0,.09.35.8.8,0,0,0,.42.13.29.29,0,0,0,.1.12s0,0-.07.06a.26.26,0,0,0,0,.35.82.82,0,0,0,.28.14s0,0,0,.06a.2.2,0,0,0,.07.24.25.25,0,0,0,.06.2,2,2,0,0,0-.25.14.25.25,0,0,0,.06.46h0a.35.35,0,0,0-.05.2l-.09.07a.23.23,0,0,0,0,.31.87.87,0,0,0-.15.25s0,0,0,.08a.86.86,0,0,0-.3.42.17.17,0,0,0,0,.14l-.09.09a.26.26,0,0,0,0,.3,0,0,0,0,0,0,0l0,0a.24.24,0,0,0,0,.3.25.25,0,0,0-.05.16l-.24.05a.21.21,0,0,0-.16.19A1.77,1.77,0,0,0,20,54a.25.25,0,0,0,.17.43,2,2,0,0,0,.51-.1,1.54,1.54,0,0,0,1.53-1.38v0h0a.25.25,0,0,0-.06-.4,1,1,0,0,0,.16-.06.24.24,0,0,0,.07-.35.88.88,0,0,0,.15,0,.25.25,0,0,0,0-.41l.06,0a.23.23,0,0,0,0-.39.22.22,0,0,0,0-.14l.09,0c.29-.06.19-.42-.06-.46l.17-.08a.22.22,0,0,0,.08-.34.23.23,0,0,0,0-.41.24.24,0,0,0,0-.43l.09,0a.25.25,0,0,0-.12-.47h0a.25.25,0,0,0-.18-.26.23.23,0,0,0-.12-.36.25.25,0,0,0-.07-.38.24.24,0,0,0-.07-.44h0a.24.24,0,0,0,0-.47l.25-.09c.32-.09.18-.52-.13-.48l-.33.06.14-.05h0l.06,0c.2-.09.14-.31,0-.4l.27-.08a.25.25,0,0,0,0-.47.25.25,0,0,0-.12-.23l.33,0c.31-.06.18-.51-.12-.48a.23.23,0,0,0,.15-.25h0a.25.25,0,0,0-.06-.49,1.15,1.15,0,0,0-.26,0,.08.08,0,0,0,0,0,.2.2,0,0,0,0-.08A.24.24,0,0,0,23,43.5c0-.39,0-.77,0-1.16a.23.23,0,0,0-.19-.22v-.29a3.4,3.4,0,0,0,.09-.46l.06,0A.26.26,0,0,0,23,41v-.4a.69.69,0,0,0,0-.25.25.25,0,0,0-.06-.41.74.74,0,0,0,0-.36,3.36,3.36,0,0,0,.29-.24A.24.24,0,0,0,23.08,38.9Zm-.79.08h.06s0,0,0,0Z"/><path class="cls-6" d="M13.47,41.83c-.44.2-.88.39-1.31.61a.22.22,0,0,0-.11.22,1.69,1.69,0,0,0-.39.22.18.18,0,0,0-.06.09,2.21,2.21,0,0,0-1,.37.27.27,0,0,0,0,.41l-.06,0a.25.25,0,0,0,0,.4,1.72,1.72,0,0,0-.36.26.23.23,0,0,0-.07.21.9.9,0,0,0-.2.14.35.35,0,0,0-.06.14,3.41,3.41,0,0,0-.53.13.26.26,0,0,0-.15.36.24.24,0,0,0-.07.18A.25.25,0,0,0,9,46a.24.24,0,0,0,.11.31h0s0,0,0,0a.75.75,0,0,0-.15,0,.25.25,0,0,0-.11.42l.08.06a.26.26,0,0,0,0,.31l0,0a.22.22,0,0,0,0,.11,1.17,1.17,0,0,0,.15.27c-.14,0-.28.14-.22.3A1.39,1.39,0,0,0,9,48s0,0,0,0a.86.86,0,0,0,0,.16c-.17,0-.38.11-.31.31l0,0a.29.29,0,0,0-.2.25.58.58,0,0,0,0,.19.25.25,0,0,0-.28.31h0a.23.23,0,0,0-.12.34l0,0-.07.06a.25.25,0,0,0-.31.35c.27.43.9.59,1.18.25a.23.23,0,0,0,.3-.1,1.76,1.76,0,0,0,.18-.59.31.31,0,0,0,.11-.09,3.28,3.28,0,0,0,.39-.85,2.42,2.42,0,0,0,.13-.46c0-.05,0-.1,0-.16h0A2.65,2.65,0,0,0,10.44,47a3.07,3.07,0,0,0,0-1.09l0,0,.13-.06a.18.18,0,0,0,.1-.13,1.19,1.19,0,0,0,.38-.36v0a2.67,2.67,0,0,0,.48-.47.24.24,0,0,0,.16-.15,2.75,2.75,0,0,0,.8-.61.26.26,0,0,0-.06-.39,6,6,0,0,0,.37-.51.2.2,0,0,0,0-.26l.33-.12h0l.06,0a.22.22,0,0,0,.1-.31l.42-.19C14,42.12,13.76,41.69,13.47,41.83ZM10,46.5Z"/><path class="cls-6" d="M8,29.08a.74.74,0,0,0,.81-.29.91.91,0,0,0,.13-.26.2.2,0,0,0,.2-.06,1.9,1.9,0,0,0,.2-.34c.11.2.47.08.43-.2a2.7,2.7,0,0,0,0-.28.45.45,0,0,0,0-.11.21.21,0,0,0,.18-.16,1.87,1.87,0,0,0,.08-.71c.31-.62,0-1.37.16-2,0-.31-.43-.45-.48-.13-.09.52,0,1,0,1.57a1,1,0,0,1-.07.33s0,.08-.06.13v.09s0,.06,0,.09a.19.19,0,0,0-.15.15,1.42,1.42,0,0,0,0,.2.22.22,0,0,0-.16.22c0,.06,0,.11,0,.17a.24.24,0,0,0-.41,0,1.2,1.2,0,0,0-.08.27A.62.62,0,0,0,8.4,28a.28.28,0,0,0-.33.1s0,.07-.05.1a.21.21,0,0,0-.23.11.56.56,0,0,0,0,.12.26.26,0,0,0-.36.08.84.84,0,0,0-.16.56.25.25,0,0,0,.49.06l0-.06A.26.26,0,0,0,8,29.08Z"/></g></g></svg>