<svg xmlns="http://www.w3.org/2000/svg" viewBox="0 0 23.49 21.36"><defs><style>.cls-1{fill:#b27e4c;}.cls-2{fill:#e9a061;}</style></defs><g id="Layer_2" data-name="Layer 2"><g id="Card"><path class="cls-1" d="M8.37,14.68a.36.36,0,0,0-.27,0,8.18,8.18,0,0,0-.82.32c-.59.48-7.87,3.1-6.37,3.89a.29.29,0,0,0,.35-.16A7,7,0,0,1,2.9,17.68a15.25,15.25,0,0,1,1.8-.81c.65-.33,1.32-.62,2-.93a14.1,14.1,0,0,1,1.37-.63c.17-.07.43-.08.46-.31A.3.3,0,0,0,8.37,14.68Z"/><path class="cls-1" d="M23.47,9c-.09-.24-.35-.2-.54-.11-1.14.35-2.34.73-3.46,1.17-.21.07-.45.17-.52.4a.29.29,0,0,0,.53.22c1.25-.51,2.53-.89,3.82-1.3A.3.3,0,0,0,23.47,9Z"/><path class="cls-2" d="M3,.12l.91,2A7.18,7.18,0,0,0,2.63,4.74,48.13,48.13,0,0,0,1.49,9.8c-.16.65-1,2.86-1.08,3.45s-.42,1.45.6,2,1.24.58,2.12,0,1.37-2.84,1.49-3.3a5,5,0,0,1,.69-1.19A3.54,3.54,0,0,1,7.2,12a10.23,10.23,0,0,1,1.59,4.75C9,19,8.7,19.94,9.21,20.47s.95.76,1.45.58,1.18-1.48,1.18-1.48.32.6,1.25.19a2.59,2.59,0,0,0,1.24-1.09s.9.67,1.49.39a1.5,1.5,0,0,0,1-1.38,12,12,0,0,1,.09-2c.09-.15-.08-3.58-.08-3.58a13.76,13.76,0,0,1,1.91,2.3c.3.69.55,2.23,1.22,2.57s.58.85,1.06.55a1.56,1.56,0,0,0,.67-1.72,9.72,9.72,0,0,0-1.43-3.38c-.51-.56-1.52-3.64-2.43-4.59a52.67,52.67,0,0,1-3.21-4.51,1.88,1.88,0,0,1-.11-.37c-.09-.35.51-.52.55-.93s.12-1.36.12-1.36Z"/><path class="cls-1" d="M21.89,15.78a4.9,4.9,0,0,0-.13-.55,17.86,17.86,0,0,0-1.37-3.29,68.88,68.88,0,0,0-5-8.26,2.2,2.2,0,0,1-.39-.74c-.13-.65.37-1.26.4-1.91,0-.18-.07-.4-.24-.4s-.23.15-.29.29a3.45,3.45,0,0,0-.42,2.25,3.64,3.64,0,0,0,.6,1.09A58.21,58.21,0,0,1,20,12.48a18.69,18.69,0,0,1,1.32,3.29c.15.54.12,1.32-.43,1.44a.75.75,0,0,1-.75-.35,2.88,2.88,0,0,1-.33-.81,7,7,0,0,0-1.89-3,2.52,2.52,0,0,1-.75-.88c-.28-.69.16-1.44.13-2.18a.37.37,0,0,0-.16-.34c-.23-.12-.42.23-.46.49a21.47,21.47,0,0,0-.11,4.74,8.3,8.3,0,0,1,0,2.68,1.81,1.81,0,0,1-.52,1,1,1,0,0,1-1,.2.44.44,0,0,1-.27-.31.65.65,0,0,1,.06-.33A8,8,0,0,0,15.27,15c-.08-1.72-.72-3.39-.61-5.11a1,1,0,0,0,0-.51c-.08-.16-.29-.27-.43-.17s-.13.24-.14.38a34.72,34.72,0,0,0,.54,4.64,6.94,6.94,0,0,1-.72,4.52c-.38.59-1.14,1.11-1.71.71a12.11,12.11,0,0,0-.41-7.07,8.23,8.23,0,0,1-.69-2.3.53.53,0,0,0-.13-.39.32.32,0,0,0-.43.15.84.84,0,0,0,0,.52,26.76,26.76,0,0,0,.91,2.84,11.7,11.7,0,0,1,.52,4.36,4.2,4.2,0,0,1-1.15,2.94.87.87,0,0,1-.71.28.77.77,0,0,1-.43-.3,2.76,2.76,0,0,1-.41-1.66c-.08-2.64-.37-5.52-2.21-7.43A8.84,8.84,0,0,1,5,9.21c-.12-.26-.35-.6-.59-.44s-.09.41,0,.61l.68,1.15a3.16,3.16,0,0,0-1,1.93,6.18,6.18,0,0,1-.71,2.12,1.6,1.6,0,0,1-1.94.68,1.5,1.5,0,0,0,.64-1.5A1.49,1.49,0,0,0,1,12.59L3.17,4c.18-.72.44-1.53,1.13-1.8.21-.09.5-.16.53-.4s-.2-.36-.4-.35a1,1,0,0,0-.54.28L3.54.45C3.47.18,3.18-.14,3,.07A.33.33,0,0,0,3,.31,3.06,3.06,0,0,0,3.51,2,14.6,14.6,0,0,0,2,6.16a5.74,5.74,0,0,1-.33,1.28l-.35,1.4-.7,2.73L.27,12.91A4.51,4.51,0,0,0,0,14.19a2.09,2.09,0,0,0,1.23,1.62,2.11,2.11,0,0,0,2.08-.27c1.38-1.08,1-3.43,2.21-4.65a6.11,6.11,0,0,1,2.6,3.76,24.75,24.75,0,0,1,.59,4.64c.07.8.28,1.77,1,2A1.43,1.43,0,0,0,11,21a4.32,4.32,0,0,0,.88-1,1.47,1.47,0,0,0,1.41,0,3.11,3.11,0,0,0,1.1-1,1.39,1.39,0,0,0,1.93,0,3.13,3.13,0,0,0,.82-2,17.55,17.55,0,0,0-.14-4,8.79,8.79,0,0,1,2.33,3.32c.23.6.5,1.32,1.12,1.48A1.23,1.23,0,0,0,21.84,17,2.22,2.22,0,0,0,21.89,15.78ZM.76,13.11c.14.1.39.09.53.21a.93.93,0,0,1,.15.87,2.46,2.46,0,0,1-.14.47.29.29,0,0,0-.18.05c-.07,0-.13.11-.2.15C.4,14.43.58,13.7.76,13.11Z"/><path class="cls-1" d="M11.64,8.31a.29.29,0,0,1,0-.56c.28-.18,1.12-.27,1.08.24a.31.31,0,0,1-.34.24.65.65,0,0,0-.39,0A.56.56,0,0,1,11.64,8.31Z"/><path class="cls-1" d="M15.38,8.07a.29.29,0,0,1,.3-.29.3.3,0,0,1,0,.59A.29.29,0,0,1,15.38,8.07Z"/><path class="cls-1" d="M13.35,15.45a.29.29,0,1,1,.28.3A.28.28,0,0,1,13.35,15.45Z"/><path class="cls-1" d="M10.51,15.91a.29.29,0,0,1,.58,0,.3.3,0,0,1-.3.28A.29.29,0,0,1,10.51,15.91Z"/></g></g></svg>