<svg xmlns="http://www.w3.org/2000/svg" viewBox="0 0 25.82 35.94"><defs><style>.cls-1{fill:#00a97c;}.cls-2{fill:#b1dde3;}.cls-3{fill:#2d3687;}.cls-4{fill:#3c58a4;}.cls-5{fill:#ff8500;}.cls-6{fill:#faed62;}.cls-7{fill:#e52823;}.cls-8{fill:#3b818f;}.cls-9{fill:#cbc479;}.cls-10{fill:#ad5404;}.cls-11{fill:#9f2224;}.cls-12{fill:#04684c;}.cls-13{fill:#6b1e1e;}</style></defs><g id="Layer_2" data-name="Layer 2"><g id="Card"><path class="cls-1" d="M4.75,18.32a2.72,2.72,0,0,0-1.24,2c0,1.26.57,3,3.39,3.71a27.55,27.55,0,0,0,8.3.62c1.68-.19,4.52-1.11,5.4-2s1.36-2.52.91-3.15-1.1-1.65-1.1-1.65-2.62,1.84-7.67,2.06C6.66,20.2,4.75,18.32,4.75,18.32Z"/><path class="cls-2" d="M4.15,22.78A3.89,3.89,0,0,0,2.9,26.11C3,28.43,5.26,30,8.06,30s6,.76,10.2-.64,4.16-2.74,4.06-3.95-1.72-2.77-1.72-2.77-1,1.75-7.79,2.08C7.25,25,4.15,22.78,4.15,22.78Z"/><path class="cls-3" d="M25.41,28.62a3.18,3.18,0,0,1-.27,2.84c-.92,1.21-4.81,3.64-8.35,4.06a16,16,0,0,1-7.72-.58,42.68,42.68,0,0,1-6.86-4.17C1.83,30.32.8,29.8.54,29.4S.05,28.05.44,28s.87.18,2,1.25A14.94,14.94,0,0,0,7,31.71a11.75,11.75,0,0,0,3.84.67,22.4,22.4,0,0,0,3.59-.74l5.21-1.22c1.16-.27,4.23-1.07,4.83-1.28A2.93,2.93,0,0,0,25.41,28.62Z"/><path class="cls-4" d="M2.64,26.32S1,27,.7,27.5s.94,1.26,1.47,1.4,3.38,2.68,5.82,3,4.77.38,6.43-.24a44,44,0,0,1,5-1.36c.73-.17,4-.85,4.59-1a1.46,1.46,0,0,0,1-.53,2.69,2.69,0,0,0,.16-.56,13.81,13.81,0,0,0-1.55-.93,9.19,9.19,0,0,1-1.22-.78s-.6,1.53-1.14,1.71S16.12,30,15.58,30s-2.43.38-3.85.38-5.89-1.06-7.18-2A6.73,6.73,0,0,1,2.64,26.32Z"/><path class="cls-5" d="M6.43,9.42a2.27,2.27,0,0,0-1.8,2.34A2.75,2.75,0,0,0,7,14.43c.78.11,3.81.91,6.32.39s5.47-.8,6.08-1.17a2.51,2.51,0,0,0,1.27-2.54c-.28-1.19-.44-1.35-1-1.69s-.88-.51-.88-.51-1.39.87-5.51,1.25A15.49,15.49,0,0,1,6.43,9.42Z"/><path class="cls-6" d="M5,7.06A2.69,2.69,0,0,0,6.43,9.42a12.09,12.09,0,0,0,5.18.77c2.12-.26,6.7-.53,7.09-1s1.43-2.15,1.14-2.89a4.56,4.56,0,0,0-3-1.78c-1-.09-4.78.07-5.52,0a10.1,10.1,0,0,0-4.18.56C6.16,5.66,5,6.15,5,7.06Z"/><path class="cls-2" d="M9.51,5.5a7.3,7.3,0,0,0,.3-2.62C9.64,1.8,9.19,1.09,9.89.57S13.68.13,14.15.21s1,.44,1,.85-.14,1.34-.14,1.77.3,2.52.3,2.52-2.57.3-3.35.3S9.51,5.5,9.51,5.5Z"/><path class="cls-7" d="M5.57,13.94a2.17,2.17,0,0,0-1.42,2.12c0,1.67.76,2.59,1.85,2.9s5.57,1.39,7.69.81,5.86-1.23,6.72-2.08a3.09,3.09,0,0,0,.47-3.08c-.31-.63-1.05-1.27-1.51-1.18a38.6,38.6,0,0,1-7.07,1.63A18.44,18.44,0,0,1,5.57,13.94Z"/><path class="cls-8" d="M12.61.4a2.64,2.64,0,0,1,.44,1.7V5.59s.42,0,1-.09a10.87,10.87,0,0,0,1.32-.27A2.44,2.44,0,0,1,15,3.73c.05-.9.39-2.62.09-3a1.17,1.17,0,0,0-.94-.54A13.14,13.14,0,0,0,12.61.4Z"/><path class="cls-9" d="M13.06,5.71a4.79,4.79,0,0,1,1.09,1.61,7.85,7.85,0,0,1,0,2.68s3.71-.67,4.36-.89,2.07-1.95,1-3-1.26-1.19-2-1.37a16.87,16.87,0,0,0-2.29-.25v.91l0,.17Z"/><path class="cls-10" d="M14.19,10.15a3.68,3.68,0,0,1,1.11,2,6.93,6.93,0,0,1,0,2.24s2.77-.52,3.24-.62a2.94,2.94,0,0,0,1.91-1.59,3.33,3.33,0,0,0-.13-2.06c-.17-.25-.9-1.09-1.5-1S14.19,10.15,14.19,10.15Z"/><path class="cls-11" d="M15.31,14.51a5.23,5.23,0,0,1,1.5,2,10.17,10.17,0,0,1,.08,2.63L20.22,18a3,3,0,0,0,.87-2A3.5,3.5,0,0,0,20.41,14a3.48,3.48,0,0,0-1-.53Z"/><path class="cls-12" d="M16.9,19.31a6.1,6.1,0,0,1,1.2,2,8.77,8.77,0,0,1-.4,2.85,10.82,10.82,0,0,0,3.09-1.66,3.11,3.11,0,0,0,.72-3A2.45,2.45,0,0,0,20.22,18Z"/><path class="cls-8" d="M17.73,24.26a6.55,6.55,0,0,1,1.38,2.39,5.35,5.35,0,0,1-.25,2.56,21.42,21.42,0,0,0,3-1.66A3.91,3.91,0,0,0,22.35,25a4.71,4.71,0,0,0-1.12-2,1.93,1.93,0,0,0-.52-.3Z"/><polygon class="cls-13" points="4.55 28.73 4.55 28.73 4.55 28.73 4.55 28.73"/><path class="cls-13" d="M25.82,29.5a2.62,2.62,0,0,0-.15-.66c-.47-1.28-1.91-1.88-3.21-2.31a4.26,4.26,0,0,0-1.47-4,3.39,3.39,0,0,0-.43-4.78,3.2,3.2,0,0,0-.64-4.45,2.69,2.69,0,0,0-.76-4.45A2.09,2.09,0,0,0,20,6.45,3.2,3.2,0,0,0,18,4.6a7.08,7.08,0,0,0-2.75-.32,4.34,4.34,0,0,1,.1-2.11A1.9,1.9,0,0,0,14.79.22,2.19,2.19,0,0,0,13.6,0H11.35a2.37,2.37,0,0,0-1.27.24,2,2,0,0,0-.65,2A5.7,5.7,0,0,1,9.56,4.4,5.57,5.57,0,0,0,5.81,5.66c-1,1-1.1,2.8,0,3.54a3.07,3.07,0,0,0-.6,4.46,3.32,3.32,0,0,0-.68,4.52,3.14,3.14,0,0,0-.49,4.46,4.19,4.19,0,0,0-1.43,3.68c0-.19-1.36.36-1.47.43A2.75,2.75,0,0,0,.09,28c-.41,1,.67,2,1.39,2.53,1.1.77,2.2,1.52,3.33,2.24a18.69,18.69,0,0,0,6.57,3A17.25,17.25,0,0,0,19.11,35a13,13,0,0,0,5.11-2.36A4.1,4.1,0,0,0,25.82,29.5ZM9.93.91a.89.89,0,0,1,.36-.39A1.42,1.42,0,0,1,11,.41h2.84a1.29,1.29,0,0,1,.91.21A1.39,1.39,0,0,1,15,1.89,8.7,8.7,0,0,0,15,5.3c-1.68,0-3.37.08-5.06.08a16.72,16.72,0,0,0,0-2.83A3.38,3.38,0,0,1,9.93.91Zm-4.56,6a2.28,2.28,0,0,1,.94-1.14,5.46,5.46,0,0,1,2.9-.94.35.35,0,0,1,.33.1.27.27,0,0,1-.12.39.83.83,0,0,1-.47,0l-1.2-.12a.26.26,0,0,0-.21,0c-.09.07-.06.23,0,.31a.7.7,0,0,0,.35.09,40,40,0,0,0,8.55-.21.73.73,0,0,0,.28-.1.21.21,0,0,0,.06-.26C16.74,5,16.6,5,16.49,5l-1.12.21-.08-.54A5.41,5.41,0,0,1,17.9,5a3.28,3.28,0,0,1,1.35.9,1.89,1.89,0,0,1,.46,1.52,2,2,0,0,1-.88,1.25,5,5,0,0,1-1.45.61,21.38,21.38,0,0,1-10,.22A2.77,2.77,0,0,1,6.1,9a2.45,2.45,0,0,1-.77-1.75A1.23,1.23,0,0,1,5.37,6.89Zm-.52,5a2.13,2.13,0,0,1,.87-2.14A.62.62,0,0,1,6,9.64a1,1,0,0,1,.39,0,21.51,21.51,0,0,0,12.06-.32,1.16,1.16,0,0,1,.41-.09,1,1,0,0,1,.44.16,2.3,2.3,0,0,1,.14,3.79,4.69,4.69,0,0,1-1.63.63,25.62,25.62,0,0,1-9.5.68,5.61,5.61,0,0,1-2.4-.81A2.76,2.76,0,0,1,4.85,11.92Zm-.56,4.54a2.56,2.56,0,0,1,1.28-2.52,5.25,5.25,0,0,0,2.34.91,21.6,21.6,0,0,0,6.22.07,19.9,19.9,0,0,0,4.84-1,2.11,2.11,0,0,1,.49-.14,1.2,1.2,0,0,1,1,.53,2.64,2.64,0,0,1,.4,2,2.45,2.45,0,0,1-.64,1.39A3.3,3.3,0,0,1,19,18.3a21.4,21.4,0,0,1-11,1,6,6,0,0,1-2.52-.9A2.8,2.8,0,0,1,4.29,16.46ZM3.71,21a2.2,2.2,0,0,1,.85-2.33.55.55,0,0,1,.29-.11.66.66,0,0,1,.27.12A10,10,0,0,0,10.56,20,20.69,20.69,0,0,0,20,18.24a.55.55,0,0,1,.28-.07.53.53,0,0,1,.24.11,2.67,2.67,0,0,1,.89,2.85,4.33,4.33,0,0,1-2.75,2.42,17.67,17.67,0,0,1-6.59,1A18.78,18.78,0,0,1,7,23.88a6,6,0,0,1-2.3-1.16A3.29,3.29,0,0,1,3.71,21Zm.07,2.51A3.78,3.78,0,0,1,4.29,23c2.08,1.56,4.83,1.87,7.43,1.93,3.12.06,6.42-.22,9-2a3.47,3.47,0,0,1,1.41,2.58A2.77,2.77,0,0,1,21.91,27a2.82,2.82,0,0,1-1,1,9.94,9.94,0,0,1-3.3,1.3,22.52,22.52,0,0,1-10.91.24,6.32,6.32,0,0,1-2.65-1.26A3.58,3.58,0,0,1,3.78,23.5ZM2.07,26.86a4.82,4.82,0,0,1,.7-.2,2.89,2.89,0,0,0,1.16,2.07,6.31,6.31,0,0,0,2.21,1A21.79,21.79,0,0,0,19.83,29a3.83,3.83,0,0,0,2.55-2.08,12.55,12.55,0,0,1,2.69,1.41c-.12.44-.62.64-1.06.77-3.42,1-6.93,1.74-10.43,2.43a13.54,13.54,0,0,1-5.76.29,13.28,13.28,0,0,1-4.24-2.19A28.59,28.59,0,0,1,1,27.82c-.43-.37.06-.58.41-.74Zm22.79,4.51a4.18,4.18,0,0,1-.58.75,8.68,8.68,0,0,1-3.15,1.81c-3.66,1.4-7.76,2.22-11.47,1-2.55-.85-4.68-2.6-7-4A7.21,7.21,0,0,1,1,29.56a2.08,2.08,0,0,1-.52-.91c-.08-.46.34-.51.66-.28l2.07,1.45a16.51,16.51,0,0,0,3.26,1.92,10.66,10.66,0,0,0,4.76.58A30.73,30.73,0,0,0,16,31.46L22.28,30a7.34,7.34,0,0,0,3-1.21A3.19,3.19,0,0,1,24.86,31.37Z"/><polygon class="cls-13" points="4.11 32.29 4.11 32.29 4.11 32.29 4.11 32.29"/></g></g></svg>