<svg xmlns="http://www.w3.org/2000/svg" viewBox="0 0 25.83 37.12"><defs><style>.cls-1{fill:#9f2224;}.cls-2{fill:#e52823;}.cls-3{fill:#00a97c;}.cls-4{fill:#b1dde3;}.cls-5{fill:#faed62;}.cls-6{fill:#6b1e1e;}</style></defs><g id="Layer_2" data-name="Layer 2"><g id="Card"><path class="cls-1" d="M2.91.26a3.15,3.15,0,0,0-1.71.87C.65,1.81.34,2.2.34,2.47s0,4.48,0,4.88-.11,8-.12,8.51S.22,23,.22,23s.4,7.59.38,7.79,0,4.89.16,5.22.89.53,1,.62A14.29,14.29,0,0,0,3.32,37L3,32.37l-.13-5.89-.09-6.23-.18-4.09.13-3.76V7.16Z"/><path class="cls-2" d="M25.11,3.32,13.19,1.51,4.06.26H2.91L2.78,7.54v6.51l-.06,3.87V22.4l.39,8.21L3.32,37,10,36.44s9.77-.78,11-1.15,4.58-.85,4.58-.85l-.09-8.84Z"/><path class="cls-3" d="M25.48,25.06a2.57,2.57,0,0,0-1.1-1.35c-.3-.17-1.88-1.13-1.88-1.13A3.24,3.24,0,0,0,24,20.88c.35-1.12.48-3-.33-3.7a9.25,9.25,0,0,0-4-2.28,32,32,0,0,0-4.3-.35s0,3,0,3.33-.15,5.76-.15,5.76v4.79l.16,3.7a16.46,16.46,0,0,0,4.08,0A13.42,13.42,0,0,0,24,30.38c.52-.53.53-.59.72-.7a8.35,8.35,0,0,0,.91-1.25S25.56,25.59,25.48,25.06ZM19,18.18s2.13,0,2.34,1.56S19,21.23,19,21.23Zm2.86,9.37c-.33,1.68-2.86.85-2.86.85V25h1.78C21.57,25,22.16,25.87,21.83,27.55Z"/><path class="cls-4" d="M13.77,6.14,12.63,1.38,7.79.48,2.86,14.78l.06,2.71a9.06,9.06,0,0,0,2,.26c.84,0,1.24,0,1.24,0l1.09-2.3.36-.3,1.27-.05,3.65,0,.84,2a5.9,5.9,0,0,1,1.07.31,1.54,1.54,0,0,1,.88.61l.06-3.71,1-.15ZM11,11.62l-2.39-.08.78-3.23.78-1.91,1.56,5Z"/><path class="cls-5" d="M14.86,23.71s-1.57-2-3.25-1.49-3.79,2.25-3.43,4.2,1.56,4,3.43,4a6.34,6.34,0,0,0,3.44-1.14l.1,1.86v2.2L15,34.74a11.33,11.33,0,0,1-3.56.93,11.56,11.56,0,0,1-5.13-1.42,19,19,0,0,1-3.16-3.64A7.9,7.9,0,0,1,3,28.44c0-.72-.15-5.29-.15-5.29a15.46,15.46,0,0,1,1.32-2.22c.44-.46,2.7-3.07,4.53-3.59a10.45,10.45,0,0,1,5.18-.06,4.06,4.06,0,0,1,1.54.67l-.33,6.1Z"/><path class="cls-6" d="M25.82,34.28a1.28,1.28,0,0,0,0-.19L25.52,3.75a.7.7,0,0,0-.09-.43.75.75,0,0,0-.55-.25L6.31.24A10.55,10.55,0,0,0,2.77.1,3.6,3.6,0,0,0,.17,1.79,5,5,0,0,0,.1,3.44l0,2.16Q0,9.92,0,14.25q0,8.64.26,17.29,0,1.77.12,3.54a2.26,2.26,0,0,0,.2,1,1.7,1.7,0,0,0,.81.68,6.21,6.21,0,0,0,2.75.31,167.6,167.6,0,0,0,21.09-2.25.81.81,0,0,0,.45-.18A.6.6,0,0,0,25.82,34.28ZM8,1.05a.52.52,0,0,1,.25,0l3.61.49a.55.55,0,0,1,.33.11.66.66,0,0,1,.16.31l3.49,12.29a.55.55,0,0,0-.7.27,1.63,1.63,0,0,0-.12.82l.05,2.14a2.47,2.47,0,0,1-1.71-1c-.25-.48-.22-1.16-.69-1.43a1.39,1.39,0,0,0-.57-.12c-1.49-.1-3-.15-4.49-.16a.56.56,0,0,0-.36.07.7.7,0,0,0-.19.28l-.84,2a.58.58,0,0,1-.22.32.59.59,0,0,1-.29.05l-2.38,0a.31.31,0,0,1-.25-.07A.3.3,0,0,1,3,17.21c0-.66-.07-1.34,0-2a7.78,7.78,0,0,1,.58-1.85C4,12,4.51,10.71,5,9.39q1.41-4,2.83-8A.47.47,0,0,1,8,1.05Zm5.86,28.79a1.69,1.69,0,0,1-.52.18,1.89,1.89,0,0,1-.66.17,5.35,5.35,0,0,1-2.32-.52,4.3,4.3,0,0,1-1.91-3.4.25.25,0,0,0,0-.17,2.92,2.92,0,0,1,.2-.93,4.15,4.15,0,0,1,3-2.73l.32,0h.1a4.34,4.34,0,0,1,1.23.3,5.2,5.2,0,0,1,1.08.6,4.44,4.44,0,0,1,.49.41h0c0,1.42,0,2.83,0,4.24,0,.39,0,.78,0,1.17a3.08,3.08,0,0,0-.27.24c-.09.06-.19.08-.27.14A1.54,1.54,0,0,1,13.86,29.84ZM3.18,18.09A.57.57,0,0,1,3.31,18a1.61,1.61,0,0,1,.76-.08L5.43,18a1.37,1.37,0,0,0,.78-.09,1.49,1.49,0,0,0,.53-.76l.63-1.55a.59.59,0,0,1,.17-.27A.66.66,0,0,1,8,15.24c1.36,0,2.72.07,4.08.17a.66.66,0,0,1,.41.12.67.67,0,0,1,.14.28l.33,1A8.33,8.33,0,0,0,7.14,18a10.69,10.69,0,0,0-4,4.47l-.11-2.49C3,19.46,2.76,18.46,3.18,18.09ZM3.4,30v0a8.47,8.47,0,0,1-.13-1.51L3.16,25a4.11,4.11,0,0,1,.08-1.53,10,10,0,0,1,.61-1.28A9.88,9.88,0,0,1,7.67,18.2a7.71,7.71,0,0,1,7.05-.29.66.66,0,0,1,.3.24.62.62,0,0,1,.05.33l-.18,4.58A4.83,4.83,0,0,0,12.07,22a3.81,3.81,0,0,0-2.11.68A4.52,4.52,0,0,0,8,26.6a4.43,4.43,0,0,0,2.46,3.64,4.33,4.33,0,0,0,4.35-.44A20.56,20.56,0,0,1,14.79,34a1,1,0,0,1-.12.41.81.81,0,0,1-.38.27,7.91,7.91,0,0,1-5.14.53,8.37,8.37,0,0,1-4.43-2.68A5.69,5.69,0,0,1,3.4,30Zm12,2a.93.93,0,0,1,0-.22h0v0c-.1-1.25-.05-2.49-.06-3.75,0-1.07-.06-2.15,0-3.23.06-3.17.29-6.34.18-9.51,0-.18,0-.37,0-.55a.22.22,0,0,0,.19,0c2.34.06,4.9.14,6.82,1.65A3.88,3.88,0,0,1,24,19.5a3,3,0,0,1-.18.83,3.93,3.93,0,0,1-.31.87,3.41,3.41,0,0,0-.17.33,8.25,8.25,0,0,0-.87.8.24.24,0,0,0-.14.05.25.25,0,0,0,0,.35.27.27,0,0,0,.16.08.29.29,0,0,0,.08,0,6.86,6.86,0,0,1,2.32,1.59c.12.12.2.29.31.42v0a8.56,8.56,0,0,1,.08,2c0,.58,0,1.16,0,1.74,0,0,0,0,0,0a7.86,7.86,0,0,1-3.06,2.51,11.17,11.17,0,0,1-2.34.6,22.24,22.24,0,0,1-2.6.31C16.65,32.09,16,32,15.45,32ZM13.13,1.64a6.45,6.45,0,0,1,.76.19L15,2l2.1.37c2.64.45,5.29.81,8,1.1L25.23,24A9,9,0,0,0,23,22.52a4.34,4.34,0,0,0,.85-5.33,5.63,5.63,0,0,0-3.08-2.3,15.86,15.86,0,0,0-3.87-.61.83.83,0,0,1-.58-.19.77.77,0,0,1-.15-.33L13.84,5.48C13.7,5,12.55,1.86,13,1.66A.32.32,0,0,1,13.13,1.64ZM3.56.45,7.42.94,3,13.45C3,9.2,2.87,4.9,3.13.66A.31.31,0,0,1,3.19.47a.33.33,0,0,1,.24,0ZM.94,35.82a1,1,0,0,1-.1-.45Q.56,26.73.49,18.09q0-4.3,0-8.63c0-1.44,0-2.88.05-4.32C.56,4.43.62,3.7.58,3A1.65,1.65,0,0,1,1,1.71,4.6,4.6,0,0,1,1.79,1c.08-.06.82-.46.82-.49Q2.36,18.65,3,36.79l-1.66-.71A.8.8,0,0,1,1,35.84Zm19.76-.75A156.85,156.85,0,0,1,3.52,36.62c-.08-.94-.15-1.87-.19-2.81,0-.48-.05-1-.07-1.44s.1-.77.1-1.15A8.51,8.51,0,0,0,14.62,35a1.11,1.11,0,0,0,.52-.41,1.31,1.31,0,0,0,.12-.49l.15-1.62a20.1,20.1,0,0,0,5.31-.4,8.44,8.44,0,0,0,4.53-2.64l.12,4.85C23.82,34.59,22.26,34.84,20.7,35.07Z"/><path class="cls-6" d="M8.42,11.62a.26.26,0,0,0,.27.12,24.84,24.84,0,0,1,2.86.09.13.13,0,0,0,0,.05.25.25,0,0,0,.37-.29c-.13-.51-.31-1-.44-1.55a29.25,29.25,0,0,1-.79-2.92,5.58,5.58,0,0,1-.24-1,.25.25,0,0,0-.28-.2h0A.23.23,0,0,0,10,6a43.11,43.11,0,0,0-1.51,5c0,.2-.19.44-.07.63ZM10.15,6.9c.3,1.12.53,2.25.91,3.35.1.36.21.72.31,1.08-.83-.07-1.66-.08-2.5-.08.08-.32.14-.67.24-1C9.41,9.13,9.78,8,10.15,6.9Z"/><path class="cls-6" d="M19.51,24.66c-.24,0-.77-.11-.76.22a2.46,2.46,0,0,0,0,.37,27.06,27.06,0,0,0,0,3.12.34.34,0,0,0,.06.12.25.25,0,0,0,.11.17,1.26,1.26,0,0,0,.47.08,3,3,0,0,0,2.36-.66,1.17,1.17,0,0,0,.29-.52,1.4,1.4,0,0,0,.14-1,1.83,1.83,0,0,0-1.77-1.91C20.08,24.68,19.8,24.69,19.51,24.66Zm2.13,1.7a.13.13,0,0,0,0,.06,1.71,1.71,0,0,1-.2,1.2,1.49,1.49,0,0,1-1,.58,4.44,4.44,0,0,1-1.15,0s-.09,0-.12,0a.38.38,0,0,1,0-.1c0-.53,0-1.06,0-1.59,0-.23-.12-1.19.08-1.33a.47.47,0,0,1,.24,0c.28,0,.56,0,.83.05a1.62,1.62,0,0,1,.76.2A1.46,1.46,0,0,1,21.64,26.36Z"/><path class="cls-6" d="M19.52,17.89h0Z"/><path class="cls-6" d="M18.72,21.47a.23.23,0,0,0,.39.1,2.5,2.5,0,0,0,1.12-.12,1.1,1.1,0,0,0,.83-.44A1.92,1.92,0,0,0,21.54,20a1.24,1.24,0,0,0-.06-.54,2,2,0,0,0-2-1.53,1.42,1.42,0,0,0-.58.06.22.22,0,0,0-.2.22.18.18,0,0,0,0,.1c0,.46,0,.93,0,1.39A9.94,9.94,0,0,0,18.72,21.47Zm2-2.61a1.39,1.39,0,0,1-.21,2,1.43,1.43,0,0,1-.42.1,2.48,2.48,0,0,1-.9.12c0-.8,0-1.61,0-2.41,0-.09,0-.2,0-.31A1.84,1.84,0,0,1,20.7,18.86Z"/></g></g></svg>