<svg xmlns="http://www.w3.org/2000/svg" viewBox="0 0 35.21 66.87"><defs><style>.cls-1{fill:#e9a061;}.cls-2{fill:#b27e4c;}.cls-3{fill:#92443f;}.cls-4{fill:#eb5d45;}.cls-5{fill:#fff;}.cls-6{fill:#558455;}.cls-7{fill:#255827;}.cls-8{fill:#e52823;}.cls-9{fill:#803124;}</style></defs><g id="Layer_2" data-name="Layer 2"><g id="Card"><path class="cls-1" d="M19.73,17.11A3.6,3.6,0,0,1,17.48,19a10.87,10.87,0,0,1-4.4-.26V17.11a14.24,14.24,0,0,1-1.87-.53,6.93,6.93,0,0,1-1.28-1.77,6,6,0,0,1-.17-1.09l-.86-1a3.36,3.36,0,0,0,.65-2A7.6,7.6,0,0,1,9.63,8a4.25,4.25,0,0,1,.68-1.71,6,6,0,0,0,1.8,1.87c1.06.62,2.43.92,2.84,1.72a5.12,5.12,0,0,1,.42,1.95l-.09.83s1.3-1.51,1.9-1.38,1.21.56.92,1.27-.83,1.29-.86,1.72,1.13,1,1.13,1l1.22.16Z"/><path class="cls-2" d="M13.46,16.72l-1-.11c-.3-.13-.63-.22-.94-.32a2,2,0,0,1-.68-.67l0-.06.1,0a.38.38,0,1,0,0-.76.38.38,0,0,0-.37.32,1.09,1.09,0,0,1-.14-.23,4.36,4.36,0,0,0-.12-1.08c0-.41-.45-.5-.75-.66-.57-.43.14-1,.2-1.54a15.23,15.23,0,0,0,.14-2.24,10.47,10.47,0,0,1,.33-2.09,4.22,4.22,0,0,0,.35-.89.38.38,0,0,0-.75-.13,7.32,7.32,0,0,0-.49,1.43,4.85,4.85,0,0,0-.09.55.76.76,0,0,0,0,.21c-.18,1,0,2-.2,3-.12.48-.49.9-.46,1.42a1.41,1.41,0,0,0,1,1.15c.13.36,0,.75.12,1.11a6,6,0,0,0,.62,1,3,3,0,0,0,.72.71,5.63,5.63,0,0,0,1,.38,1.73,1.73,0,0,0,.78.16.91.91,0,0,0,0,.33c0,.11,0,.24,0,.37l.73.37s0-.38,0-.41a4.74,4.74,0,0,0,0-.55c.28,0,.57-.1.54-.43S13.71,16.77,13.46,16.72Z"/><path class="cls-3" d="M17.15,14.47A3.11,3.11,0,0,0,18,12.7a2.63,2.63,0,0,0-.82-1.47L16,11.86l-.73.75s.39-1.76,0-2.19a23.36,23.36,0,0,0-3.63-2.63s-1.65-1.22-1.46-2S12,3.8,13.57,3.4a11.53,11.53,0,0,1,5.05,0,8,8,0,0,1,1.73.85l.83-1.79a3.34,3.34,0,0,1,2-1.83c1.28-.29,2.7-.25,3.15.14a3.35,3.35,0,0,1,.73,1,6.81,6.81,0,0,1-.79,2.66,5.5,5.5,0,0,1-.83.9,2.05,2.05,0,0,0-1.92-1.14,2.33,2.33,0,0,0-1.63.69L21.52,6a3.59,3.59,0,0,1,1,2.72,12.12,12.12,0,0,1-1.7,4.6c-.73.92-1.61,2.26-1.61,2.26Z"/><path class="cls-4" d="M20.08,17a5.1,5.1,0,0,1,2.75.75,50.41,50.41,0,0,1,4,3.49C27.78,22,28.71,23,28.71,23a8.64,8.64,0,0,0-2.5,1.82,4.68,4.68,0,0,0-.73,2l-.88-.73-.83-.39a13.45,13.45,0,0,0,0,3.3c.24,1.73.4,3.88.59,4.64A9.06,9.06,0,0,1,24.62,35S21.81,38,18.84,38.11s-4.7.65-6.58.2a7.92,7.92,0,0,1-2.81-1.18s.72-5.93.76-7.42a30.7,30.7,0,0,0-.1-3.07s-2.22-.7-2.57-1.46a2.24,2.24,0,0,1-.3-1,17,17,0,0,1,.83-2.92C8.6,20,8.91,19.4,9.84,19a15.55,15.55,0,0,1,3.22-.71,2.9,2.9,0,0,0,2.28.83,12.82,12.82,0,0,0,3.74-.67Z"/><path class="cls-5" d="M12.13,18.66s-.07,2.26,1.21,2.21a4.86,4.86,0,0,0,2.52-1s2,1.15,3.1.2a4.34,4.34,0,0,0,1.39-2.22l-.59-.9a4.17,4.17,0,0,1-3.29,2.2,7.92,7.92,0,0,1-3.39-.58Z"/><path class="cls-1" d="M10.23,43.54a48.21,48.21,0,0,0-.27,5.2c.11,1.52,1.12,6.12,1.33,7.18s.16,3.14-.49,3.93a30.67,30.67,0,0,1-2.67,2.4,1.94,1.94,0,0,0-.47,1.47s4.62.47,5.58.2a7.53,7.53,0,0,0,2.38-1.87l-.69-4,.61-4.7a29.55,29.55,0,0,1-.2-5,8.67,8.67,0,0,1,1-2.25,11.18,11.18,0,0,1,.95,2.69c.31,1.46.92,5.72,1.39,6.65a23,23,0,0,1,.88,4.3l-.76,2.87L16.41,65s.07,1.91,1.82,1.53a19.8,19.8,0,0,0,4.48-2.08S25.4,63.6,25,62.7s-1.34-3-1.34-3A7.13,7.13,0,0,0,24,55.57a15.87,15.87,0,0,1-.79-6c.26-1.45,1.71-6.31,1.71-6.31H10.53Z"/><path class="cls-6" d="M10.1,37.58V41l.12,2.56s2.69-.12,3.91.92,2.18,1.71,2.18,1.71a30.31,30.31,0,0,1,4.49-1.57,17.23,17.23,0,0,1,3.71-.55,25.54,25.54,0,0,0,.53-4.6c-.16-1-.43-4.42-.43-4.42a17.53,17.53,0,0,1-7.25,3.4A15.91,15.91,0,0,1,10.1,37.58Z"/><path class="cls-1" d="M7.2,24.42,5.41,27.07s-2.33,2-2.88,2.57S.65,31.56.65,31.56L.5,32.65l1.07,1.09,1.06.54.86-.78s.72.4,1,0a7,7,0,0,0,.2-2.1,11,11,0,0,0,2.78-2c.93-1.07,2.29-2.69,2.29-2.69a8.34,8.34,0,0,1-1.83-1.21A6.26,6.26,0,0,1,7.2,24.42Z"/><path class="cls-1" d="M25.48,26.83s2.18,2.2,2.84,2.88a8.93,8.93,0,0,1,1.91,2.37,7.23,7.23,0,0,1,.16,2.17s-.62,1.53.72,1.62S34.32,34,34.32,34l.24-2.83-2.07-2a38.3,38.3,0,0,0-2-4.21c-.58-.78-1.76-2-1.76-2a6.23,6.23,0,0,0-2.33,1.51A11.41,11.41,0,0,0,25.48,26.83Z"/><path class="cls-2" d="M35.06,31.51a6.17,6.17,0,0,0-1.51-1.69c-1.85-1.88-2.12-5-4.18-6.65l-.83.2a14,14,0,0,1,3,4.69,5.82,5.82,0,0,0,.86,1.77,8.65,8.65,0,0,0,1.14,1A2.16,2.16,0,0,1,34.38,32a2.72,2.72,0,0,1-.6,1.9,2.91,2.91,0,0,1-.58.72,3.13,3.13,0,0,1-.58.36,2.76,2.76,0,0,1-1.17.5c-.43,0-.91-.35-.8-.77l.31.14a.32.32,0,0,0,.23.42.51.51,0,0,0,.48-.19,1.1,1.1,0,0,0,.2-.5,1.22,1.22,0,0,0,0-.63.51.51,0,0,0-.49-.34.33.33,0,0,0-.26.47,1.23,1.23,0,0,1-.38-1,6.26,6.26,0,0,0,0-1.06,3.08,3.08,0,0,0-.88-1.33l-4.1-4.22a2,2,0,0,0-.33.58c0,.21.15.32.31.48l1.05,1.09,2.11,2.17A3.73,3.73,0,0,1,30,32.43a5.2,5.2,0,0,1-.06,1.8,2,2,0,0,0,.46,1.68,1.54,1.54,0,0,0,1.27.31,5.17,5.17,0,0,0,1.26-.47,4,4,0,0,0,1-.59,3.71,3.71,0,0,0,.71-1,3.37,3.37,0,0,0,.6-2.37A1.06,1.06,0,0,0,35.06,31.51Z"/><path d="M14.93,48.76h0v0Z"/><path class="cls-2" d="M16,46.17l-.11,0a.58.58,0,0,0-.24.29c-1.17,2.35-.36,5.55-.45,7-.17,2.62-.91,4-.46,5.75A17.61,17.61,0,0,1,15,61a2,2,0,0,1-.53,1.85,2.7,2.7,0,0,1-1.68.45l-4.23.21c-.3,0-.68,0-.77-.31a.6.6,0,0,1,.22-.56,12.9,12.9,0,0,1,1.86-1.21,4.91,4.91,0,0,0,1.76-4A21,21,0,0,0,11,53.06a29.83,29.83,0,0,1-.31-9.52l-.77.19a29.34,29.34,0,0,0,.37,9.71,18.63,18.63,0,0,1,.62,3.91,4.42,4.42,0,0,1-1.49,3.54c-.46.36-1,.58-1.5.92-.73.51-1.47,1.8-.3,2.3a2.82,2.82,0,0,0,1.12.15h2.74A7.91,7.91,0,0,0,14,64a2.67,2.67,0,0,0,1.79-1.68c.33-1.12-.36-2.25-.54-3.4-.23-1.46.37-2.9.5-4.37a22.22,22.22,0,0,0-.2-3.64,6.26,6.26,0,0,1,.57-3.56,1.5,1.5,0,0,0,.28-.71A.44.44,0,0,0,16,46.17Z"/><polygon points="19.54 61.94 19.54 61.95 19.54 61.95 19.54 61.94"/><path class="cls-2" d="M24.15,60.41l0-.1c-.3-.88.17-1.81.3-2.72.21-1.5-.48-3-.79-4.43-.64-3,.3-6.11,1.37-9l-.72-.3c-1,2.92-2.05,6-1.44,9.07.31,1.58,1.07,3.13.83,4.73-.16,1.08-.76,2.24-.23,3.2.36.65,1.22,1.13,1.1,1.87a1.19,1.19,0,0,1-.63.79,8.23,8.23,0,0,1-1,.37,13.76,13.76,0,0,0-2.37,1.44,3.85,3.85,0,0,1-2.61.76c-.55-.09-1.13-.5-1.07-1s.61-.8,1-1.08a5,5,0,0,0,2-3.82,11.59,11.59,0,0,0-.72-4.38A32.43,32.43,0,0,1,18,51.48c-.29-1.65-.22-3.41-1-4.89a1,1,0,0,0-.45-.49c-.21-.08-.56,0-.53.32,0,.11.19.28.25.38s.15.27.22.41A6.06,6.06,0,0,1,16.94,49c.12.94.11,1.9.26,2.84a21.54,21.54,0,0,0,1.19,3.89,11.29,11.29,0,0,1,.85,4,4.53,4.53,0,0,1-1.59,3.59c-.69.53-1.66.93-1.78,1.78a1.69,1.69,0,0,0,1.36,1.66,4.51,4.51,0,0,0,3.2-.49c1-.5,1.89-1.17,2.88-1.65a8,8,0,0,0,1.33-.7,1.66,1.66,0,0,0,.73-1.24C25.38,61.8,24.48,61.21,24.15,60.41Z"/><path d="M17.56,48.4v0h0Z"/><path class="cls-7" d="M25.41,38.78A25.33,25.33,0,0,0,25,34.9l-.68.4a25.49,25.49,0,0,1,0,8.13,23.44,23.44,0,0,0-8.06,2.38,8.07,8.07,0,0,0-5.66-2.74l-.27-5c0-.21-.05-.46-.24-.53a.36.36,0,0,0-.43.24,3.84,3.84,0,0,0,0,1.31l.07,1.63L9.83,44a5.46,5.46,0,0,1,4.49,1.2c.6.51,1.16,1.2,1.94,1.27a3,3,0,0,0,1.43-.37,30,30,0,0,1,4.7-1.62,3.34,3.34,0,0,1,1.85-.11c.21.07.46.18.64,0a.64.64,0,0,0,.17-.38A25.19,25.19,0,0,0,25.41,38.78Z"/><path class="cls-2" d="M9.93,26.93a.47.47,0,0,1-.35-.15l-.08-.06-.09-.07-.05,0a4.52,4.52,0,0,1-.53.71C8.25,27.92,7.59,28.43,7,29a2.91,2.91,0,0,1-.51.4A14.69,14.69,0,0,1,5,30.7c-.21.18-.59.24-.6.58,0,0,0,0,0,0A8.8,8.8,0,0,0,4.13,33a.67.67,0,0,1-.2.12h0A.47.47,0,0,0,4,32.75a.4.4,0,0,0-.47-.27c-.23.06-.27.31-.38.48a2,2,0,0,1-.52.81c-.13-.05-.29,0-.43,0-.23-.21-.4-.52-.76-.53-.19-.28-.19-.76-.61-.82l0-.11a.65.65,0,0,1,0-.13c.19-.27.25-.53.45-.81A9.21,9.21,0,0,1,2,30.6a4.09,4.09,0,0,1,.54-.33c.3-.26.53-.58.85-.82l0,0h0a.36.36,0,0,0,.11-.14c.47-.46,1-.9,1.4-1.4A6.31,6.31,0,0,0,6.76,26c.22-.37.44-.75.64-1.15l0,0a1.16,1.16,0,0,1-.16-.4A.81.81,0,0,1,6.94,24a12.29,12.29,0,0,1-.77,1.54h0A6.47,6.47,0,0,1,4.3,27.38c-.58.65-1.25,1.2-1.85,1.83l-.06.06v0l-.21.22c-.22.23-.55.34-.8.57A4.88,4.88,0,0,0,.21,31.63a.92.92,0,0,0-.1,1,.64.64,0,0,0,.45.49c.12.38.34.84.8.85a1.12,1.12,0,0,0,1,.55.33.33,0,0,0,.17,0c.29.14.78-.25,1-.55a.54.54,0,0,0,.32-.11A.67.67,0,0,0,4,33.82a.77.77,0,0,0,.7-.27c.3-.33.26-.85.32-1.27a2.8,2.8,0,0,1,.16-.74.67.67,0,0,0,.14-.09A11,11,0,0,0,6.91,30,30.34,30.34,0,0,0,9.34,27.9a7.59,7.59,0,0,0,.77-1A.34.34,0,0,1,9.93,26.93Z"/><circle class="cls-8" cx="15.99" cy="21.26" r="0.38"/><circle class="cls-8" cx="16.01" cy="23.09" r="0.38"/><circle class="cls-8" cx="15.99" cy="24.8" r="0.38"/><path d="M19.76,14.15v0Z"/><path class="cls-9" d="M12,10.56a1.17,1.17,0,0,0-1.24-.48l0,0v0h0a.39.39,0,0,1-.68-.36c.44-.73,1.58-.44,2.16,0,.32.23.76.81.26,1.07A.39.39,0,0,1,12,10.56Z"/><circle class="cls-9" cx="11.1" cy="11.23" r="0.38"/><path d="M19.22,16.47v0Z"/><path class="cls-9" d="M27.36,1.78A1.84,1.84,0,0,0,27,1.31a.27.27,0,0,0,0-.09,1,1,0,0,0-.34-.43A3.6,3.6,0,0,0,22.42.6a7,7,0,0,0-2.14,3.16,9.91,9.91,0,0,0-8.51-.09c-.84.4-2.14,1.34-1.91,2.44s1.76,2.2,2.66,2.69,1.78.78,2.17,1.61,0,1.85-.07,2.79c0,.28,0,.62.27.73a.51.51,0,0,0,.54-.2,2.53,2.53,0,0,0,.26-.55,2.87,2.87,0,0,1,1.7-1.59,2.06,2.06,0,0,1-.89,2.56c-.24.12-.56.33-.45.57a.51.51,0,0,0,.32.21l2.88.92c-.11.28-.17.7.11.81s.56-.3.65-.63a18.35,18.35,0,0,1,1.46-3.38A11.62,11.62,0,0,0,22.72,9.2a4.46,4.46,0,0,0-.83-3.48,1.56,1.56,0,0,1,3-.29,4.13,4.13,0,0,0,.24.85c.14.25.49.44.73.27s.15-.63,0-.92A4.89,4.89,0,0,0,24.7,4a2,2,0,0,0-1.89-.39c-.38.15-.8.46-1.16.25s-.27-.83,0-1.23A3.8,3.8,0,0,1,23.54.9,2.42,2.42,0,0,1,26,1.34a.76.76,0,0,0,.09.09c.1.28.48.42.58.73A.38.38,0,0,0,27.36,1.78ZM21.72,7.06a4.92,4.92,0,0,1,.21,1.79,6.56,6.56,0,0,1-.39,1.91,17.38,17.38,0,0,1-1.7,3.36,1.63,1.63,0,0,1-.75.78c-.55.21-1.12-.2-1.57-.58a4.28,4.28,0,0,0,.85-1.82,1.44,1.44,0,0,0-.95-1.59c-.73-.16-1.38.47-1.86,1a2.39,2.39,0,0,0-.69-2.55,11.06,11.06,0,0,0-2.34-1.52c-.76-.45-2.41-1.57-1.65-2.54a3.86,3.86,0,0,1,3-1.45,7.11,7.11,0,0,1,4.6,0A5.15,5.15,0,0,1,21.72,7.06Zm-.28-2.27s.1.14.08.2l-.08,0a.16.16,0,0,0,0-.07,1.15,1.15,0,0,0-.19-.26,2.51,2.51,0,0,1-.38-.48A1.37,1.37,0,0,1,21.44,4.79Z"/><path class="cls-9" d="M25.69,3.46a.38.38,0,0,0-.32-.18.4.4,0,0,0-.18.75,6.13,6.13,0,0,1,.65,1,.38.38,0,0,0,.66-.39A5.5,5.5,0,0,0,25.69,3.46Z"/><path class="cls-9" d="M25.51,1.9a.39.39,0,0,0-.32.7,1.89,1.89,0,0,1,.78.85.38.38,0,0,0,.52.13C27.12,3.15,25.92,2.09,25.51,1.9Z"/><path d="M10.66,7.36l0,0h0Z"/><path class="cls-8" d="M25.3,19.37a17.22,17.22,0,0,0-2.36-1.9,5.91,5.91,0,0,0-2.83-1,.56.56,0,0,0-.59.28.35.35,0,0,0-.31.22,3.26,3.26,0,0,1-2.08,1.72,6.22,6.22,0,0,1-3.67-.18s0,0,0-.05l-.38-.2h0a.16.16,0,0,0-.07-.07.45.45,0,0,0-.26-.09h-.19a6.87,6.87,0,0,0-2.75.47,4.55,4.55,0,0,0-2.15,2.51,10.07,10.07,0,0,0-.55,2.16,2.69,2.69,0,0,0,0,1.77,3.65,3.65,0,0,0,1.16,1.28c.11.08,1.61.74,1.62.57-.16,2-.25,4-.29,6,0,.15-.05.29-.09.43-.12,1-.29,1.92-.34,2.9a1.59,1.59,0,0,0,.15,1,3.22,3.22,0,0,0,2.44,1.38,5.55,5.55,0,0,0,2,.19c.31,0,.63,0,.94,0s.62,0,.93,0a7.83,7.83,0,0,0,1.08-.07,8,8,0,0,0,2.69-.45,12,12,0,0,0,4.1-1.75,11.51,11.51,0,0,0,1.18-1c.2-.11.29-.59.29-.59a18.81,18.81,0,0,1-.58-3.73c-.08-1.65-.28-3.28-.23-4.94a4,4,0,0,1,1.14,1,1,1,0,0,0,.51-.56c.1-.24.14-.5.22-.75a3.66,3.66,0,0,1,1.39-1.79,10.25,10.25,0,0,1,2-1l.07,0Zm-5.53-1.83,0,0a.34.34,0,0,1,.09.14,2,2,0,0,1-1.35,2,3.48,3.48,0,0,1-1.78-.11A4.28,4.28,0,0,0,19.77,17.54Zm-7.08,1.34h0l.06,0a.59.59,0,0,0,.29.31,7.1,7.1,0,0,0,2.19.48h.15a2.14,2.14,0,0,1-1.56.83,1.35,1.35,0,0,1-1.27-1.39A.39.39,0,0,0,12.69,18.88Zm12.47,7.18a4.67,4.67,0,0,0-2.51-1.19,1,1,0,0,0-.61.07.4.4,0,0,0-.18.52c.1.17.33.18.53.2a4.06,4.06,0,0,1,1.08.26.41.41,0,0,0-.1.23c0,1.43.09,2.8.19,4.25a29.39,29.39,0,0,0,.33,3.36c.1.39.19.77.29,1.16a8.72,8.72,0,0,1-1.91,1.46A15.6,15.6,0,0,1,19,37.62a7.81,7.81,0,0,1-2.37.34,9.84,9.84,0,0,1-2.17,0,7.79,7.79,0,0,1-2.5-.14,4.46,4.46,0,0,1-1.2-.34.89.89,0,0,1-.33-.15.94.94,0,0,1-.12-.09l0,0-.05,0-.08-.07c0-.82,0-1.63.05-2.45,0-.29,0-.58,0-.88,0-.12,0-.25,0-.38a3.15,3.15,0,0,0,.05-.43,1.34,1.34,0,0,0,0-.2,1.5,1.5,0,0,1,0-.2h0v0h0l0-.26a1.62,1.62,0,0,1,0-.22c0-.15,0-.31,0-.46s0-.17,0-.25,0-.19,0-.29v-.23c0-.09,0-.18,0-.28v-.79c0-.11,0-.22,0-.33l0-.2a1,1,0,0,1,0-.17,0,0,0,0,1,0,0h0v-.11s0-.06,0-.1a.25.25,0,0,0,0-.08h0v0c.12-1.57.27-3.14.49-4.7a1.23,1.23,0,0,0,0-.54.4.4,0,0,0-.41-.3c-.24.05-.32.35-.35.59-.11.9-.22,1.79-.32,2.68a3.57,3.57,0,0,1-2-1.63A3.46,3.46,0,0,1,8,22.64a8.48,8.48,0,0,1,.81-2.21A2.83,2.83,0,0,1,10.63,19a6.51,6.51,0,0,1,1.17,0,1.43,1.43,0,0,0,0,.55,2.15,2.15,0,0,0,1.65,1.65A2.67,2.67,0,0,0,16,20.11a3.69,3.69,0,0,0,3.27.07c.85-.5,1.71-1.86,1.26-2.83l.61.1a6,6,0,0,1,2.4,1.48l4.59,3.93A5,5,0,0,0,25.16,26.06Z"/><path class="cls-8" d="M24.33,34.27a.93.93,0,0,0,.05-.1.25.25,0,0,0-.39-.3,1.79,1.79,0,0,0-.13.14.22.22,0,0,0-.16-.14.25.25,0,0,0,0-.35h0a.25.25,0,0,0-.09-.45.26.26,0,0,0,0-.21l.15-.06c.28-.12.07-.5-.19-.46l-.1,0a.25.25,0,0,0-.11-.17l.08,0a.23.23,0,0,0,.08-.34h0c.31-.09.18-.58-.13-.49h0a.24.24,0,0,0-.05-.37h0l0,0,.19-.06a.24.24,0,0,0-.05-.47.28.28,0,0,0,0-.25.26.26,0,0,0-.16-.34l.2-.1c.23-.1.12-.35-.06-.43a.3.3,0,0,0-.13-.09,2.5,2.5,0,0,0,.36-.24.25.25,0,0,0-.14-.42.16.16,0,0,0,0-.07.25.25,0,0,0-.08-.35h0a.47.47,0,0,0,.12-.51.55.55,0,0,0-.3-.3l0-.06.17-.06c.23-.1.12-.38-.07-.44a.24.24,0,0,0-.06-.38.24.24,0,0,0-.15-.42l-.17,0a.24.24,0,0,0-.28.15l-.8.25c-.21.07-.26.44,0,.48h0c-.1.14-.09.36.11.39h.11a1.06,1.06,0,0,0-.19.23.28.28,0,0,0,0,.2.25.25,0,0,0,0,.38s0,0,0,0c-.28.13-.52.31-.52.55a.37.37,0,0,0,.13.27.72.72,0,0,0-.23.35.24.24,0,0,0,.05.2l-.17.06c-.2.07-.27.44,0,.48a3.36,3.36,0,0,0,1.05,0,.28.28,0,0,0,.05.48.41.41,0,0,1,.24.19s0,.06,0,.09h0v0a2.15,2.15,0,0,0-.55.4.25.25,0,0,0,0,.35s.06,0,.08.05l-.07,0a.24.24,0,0,0,0,.32,1,1,0,0,0-.26.25.22.22,0,0,0,0,.17,3.19,3.19,0,0,0-.42.3.26.26,0,0,0,.05.4l.21.08a.28.28,0,0,0,.24.22,1.41,1.41,0,0,0,.29,0,.28.28,0,0,0,.15.15h0a.47.47,0,0,0-.08.14.25.25,0,0,0,.09.26.23.23,0,0,0,.09.31h0s0,.06-.05.09a.33.33,0,0,0,.05.21.65.65,0,0,0-.26.36.48.48,0,0,0,0,.24.89.89,0,0,0-.47.66.2.2,0,0,0,.06.16,10.79,10.79,0,0,0-1.89.87c-.24.14-.09.56.19.46.49-.17,1-.31,1.49-.51a.25.25,0,0,0,.17,0l.2-.09a.21.21,0,0,0,.16.08c.43,0,.94-.39,1.25-.63a.3.3,0,0,0,.12-.2,4.18,4.18,0,0,0,.83-.68A.23.23,0,0,0,24.3,35a.25.25,0,0,0-.14-.38h-.05a.83.83,0,0,0,.09-.16l.06-.07h0l0,0S24.32,34.3,24.33,34.27Zm-2-4.38v0h0Z"/><path class="cls-8" d="M20.71,17.64a.79.79,0,0,0,.27-.2,1,1,0,0,1-.1.27c.2-.12.38-.3.58-.45a1.94,1.94,0,0,1-.2.57c.16,0,.3-.22.44-.29,0,.27-.13.43-.27.63a5,5,0,0,1,.66-.56c-.07.34-.37.59-.47.9.19-.1.61-.55.84-.42-.11.44-.6.86-.84,1.26.46-.1.78-.69,1.21-.87-.28.46-.79.77-1,1.25.54-.18.93-.73,1.45-.95-.17.27-.58.47-.66.75.44-.08.85-.67,1.3-.63-.24.41-.76.62-.87,1.1.36-.05.82-.49,1.19-.67-.26.37-.78.58-.93,1a6.17,6.17,0,0,0,1.5-.79,12.72,12.72,0,0,1-.86,1.08c.29,0,.84-.47,1.13-.64-.25.25-.73.51-.87.81.47-.17.88-.48,1.36-.61-.2.24-1.21,1-1,1.27.54-.24,1-.66,1.56-.86,0,.24-.61.56-.79.73a7.22,7.22,0,0,0-.78.88c.57-.07,1.21-.82,1.73-1.11a6.81,6.81,0,0,0-1.22,1c.58-.08,1-.64,1.6-.75-.21.38-1.26.81-1.17,1.22A11.39,11.39,0,0,0,27,21.69a4.7,4.7,0,0,0-1.39,1.12A4,4,0,0,0,27.26,22a3.61,3.61,0,0,0-1.38,1c.41.09,1.14-.56,1.5-.78-.44.35-1.21.65-1.5,1.15a3.88,3.88,0,0,0,1.54-.78,5.48,5.48,0,0,0-1.19.88c.47-.05,1.08-.61,1.5-.86a8.32,8.32,0,0,0-1.45,1,5.2,5.2,0,0,0,1.36-.76c-.34.3-.83.93-1.28,1"/><path class="cls-8" d="M20.84,17.85a1.22,1.22,0,0,0,.32-.24l-.42-.24a.49.49,0,0,1-.08.21c-.11.22.12.49.34.35s.42-.32.64-.49l-.42-.24a1.88,1.88,0,0,1-.18.5c-.08.18.06.45.28.37a2.8,2.8,0,0,0,.5-.31l-.37-.22a.74.74,0,0,1-.24.5c-.17.24.2.49.39.3a6,6,0,0,1,.62-.51l-.37-.28c-.09.32-.35.57-.47.89s.19.38.37.28.47-.45.64-.39L22.22,18a5.11,5.11,0,0,1-.82,1.2.26.26,0,0,0,.29.37c.53-.15.79-.66,1.27-.89l-.34-.34c-.31.45-.78.76-1.06,1.24-.1.18.08.45.29.37.57-.22,1-.72,1.51-1L23,18.66c-.22.29-.55.45-.69.81-.07.18.14.35.31.3.43-.11.78-.62,1.23-.62l-.22-.37c-.28.42-.74.64-.9,1.16a.25.25,0,0,0,.31.3,4.92,4.92,0,0,0,1.25-.69L24,19.21c-.31.39-.76.59-.95,1.08-.07.19.14.35.31.31a6.61,6.61,0,0,0,1.56-.81l-.34-.34c-.23.4-.6.7-.87,1.08a.25.25,0,0,0,.22.37c.48,0,.88-.43,1.26-.68l-.3-.39c-.31.29-.71.49-.91.86-.1.18.06.45.28.37.46-.18.88-.47,1.36-.61L25.34,20c-.33.38-1.35,1-1,1.58a.25.25,0,0,0,.34.09c.52-.25,1-.64,1.5-.84l-.31-.31c-.06.24-.46.41-.65.56a5.83,5.83,0,0,0-.84.95.25.25,0,0,0,.24.41c.71-.13,1.19-.78,1.78-1.13l-.25-.43a6.5,6.5,0,0,0-1.26,1,.25.25,0,0,0,.24.42c.6-.11,1-.62,1.6-.75l-.28-.36c-.3.45-1.28.67-1.21,1.34,0,.14.15.31.31.24a11.14,11.14,0,0,0,1.62-.9.26.26,0,0,0-.26-.44,5.17,5.17,0,0,0-1.43,1.16.25.25,0,0,0,.24.42,3.5,3.5,0,0,0,1.76-.9.25.25,0,0,0-.3-.4,3.79,3.79,0,0,0-1.48,1.11.25.25,0,0,0,.15.37c.66.09,1.19-.49,1.7-.81L27.26,22c-.54.41-1.21.65-1.59,1.24-.13.2.08.4.28.37a4,4,0,0,0,1.59-.8c.26-.18,0-.6-.25-.43a5.87,5.87,0,0,0-1.24.92.25.25,0,0,0,.24.41,4.7,4.7,0,0,0,1.57-.88c.27-.17,0-.6-.25-.44a8.62,8.62,0,0,0-1.51,1.08.25.25,0,0,0,.24.42,5.77,5.77,0,0,0,1.42-.78l-.3-.39c-.35.31-.69.82-1.16.95a.25.25,0,0,0,.13.48c.58-.15,1-.7,1.39-1.08.2-.19-.07-.55-.31-.39a5.36,5.36,0,0,1-1.3.73l.24.42a7.67,7.67,0,0,1,1.41-1l-.25-.44a4.33,4.33,0,0,1-1.45.84l.24.42a5.5,5.5,0,0,1,1.14-.84l-.25-.43a3.81,3.81,0,0,1-1.47.75l.28.36c.32-.49.95-.71,1.41-1.06.25-.18,0-.6-.25-.43l-.62.43c-.17.12-.47.36-.69.33l.14.37a3.25,3.25,0,0,1,1.3-.93l-.3-.4a3.1,3.1,0,0,1-1.54.78l.24.42a4.37,4.37,0,0,1,1.34-1.08l-.26-.44a10.48,10.48,0,0,1-1.49.86l.32.24c0-.22.4-.45.55-.55a2.17,2.17,0,0,0,.59-.54.26.26,0,0,0-.28-.37c-.59.13-1,.64-1.6.75l.24.42a6.54,6.54,0,0,1,1.16-.94c.26-.18,0-.6-.25-.43-.55.33-1,1-1.66,1.08l.24.42a5.48,5.48,0,0,1,1-1.05c.25-.18.55-.36.64-.68,0-.17-.13-.37-.31-.3-.58.22-1.06.62-1.62.89l.34.09c0,.05,0,0,.05-.06a1.5,1.5,0,0,0,.11-.13,2.91,2.91,0,0,1,.3-.31c.17-.16.35-.3.51-.48a.26.26,0,0,0-.25-.42c-.48.15-.89.44-1.35.62l.28.37c.18-.33.57-.52.83-.77s-.06-.55-.3-.39-.67.61-1,.61l.21.38A12.84,12.84,0,0,0,25,19.7a.25.25,0,0,0-.34-.34,6.21,6.21,0,0,1-1.44.76l.31.31c.15-.4.63-.64.89-1s-.14-.45-.34-.34a4.69,4.69,0,0,1-1.13.64l.31.31c.13-.43.6-.67.84-1a.25.25,0,0,0-.21-.38c-.56,0-.86.51-1.37.64l.31.31c.11-.27.47-.46.64-.69s-.14-.43-.34-.34c-.51.23-.87.72-1.4.92l.29.36c.27-.47.74-.79,1.05-1.24.15-.23-.14-.44-.34-.34-.43.2-.7.71-1.16.84l.29.36a5.7,5.7,0,0,0,.86-1.31.26.26,0,0,0-.17-.31c-.4-.15-.73.26-1,.44l.36.28a7.56,7.56,0,0,0,.47-.89c.06-.2-.18-.41-.36-.28a5.79,5.79,0,0,0-.72.59l.39.3a1.1,1.1,0,0,0,.31-.75.26.26,0,0,0-.38-.21c-.13.07-.24.21-.38.26l.28.36a2.32,2.32,0,0,0,.23-.62.25.25,0,0,0-.42-.24,5.34,5.34,0,0,1-.53.41l.34.34a1.4,1.4,0,0,0,.13-.34.25.25,0,0,0-.41-.24.69.69,0,0,1-.22.16c-.29.15,0,.58.25.43Z"/><path class="cls-8" d="M10.06,23.74l-.26,0a1,1,0,0,1,.51.16c-.26.05-.54,0-.81.07.11.16.33.18.47.29a5.06,5.06,0,0,1-.56,0,2.45,2.45,0,0,0,.54.18c-.15.07-.39,0-.57,0a3.25,3.25,0,0,0,.51.3,5.61,5.61,0,0,0-.58,0c-.06.23.32.37.46.51-.17.08-.43-.08-.62-.08.09.16.35.21.51.32l-.47-.13c0,.22.31.36.44.52a3.51,3.51,0,0,1-.53-.15c.09.21.32.3.49.43a1.59,1.59,0,0,1-.37-.18c.13.18.35.31.45.51a.75.75,0,0,0-.34-.2.61.61,0,0,0,.39.31c.08-.3-.34-1,.33-.7a1.16,1.16,0,0,0,0-.82,1.09,1.09,0,0,0-.05.17c.17-.12.06-.43.06-.61"/><path class="cls-8" d="M10.12,23.5l-.32,0c-.28,0-.35.44-.07.49a1.12,1.12,0,0,1,.41.09l.11-.41c-.27,0-.54,0-.81.07s-.21.29-.11.42a.61.61,0,0,0,.24.18,1.51,1.51,0,0,1,.22.11L10,24c-.19,0-.38,0-.56,0a.25.25,0,0,0-.13.47,4.22,4.22,0,0,0,.6.2l-.06-.46s-.14,0-.19,0l-.25,0a.25.25,0,0,0-.12.46,3.3,3.3,0,0,0,.51.31l.12-.47a5.66,5.66,0,0,0-.58,0,.27.27,0,0,0-.24.18.53.53,0,0,0,.17.5c.1.1.27.18.35.26L9.7,25c-.07,0-.15,0-.23,0a1.8,1.8,0,0,0-.32-.06.25.25,0,0,0-.22.37c.15.23.39.27.61.41l.19-.45-.47-.13a.26.26,0,0,0-.31.31c.07.29.33.42.5.63l.25-.42a4.61,4.61,0,0,1-.53-.15.25.25,0,0,0-.28.37c.11.23.33.33.52.47l.24-.41a1.3,1.3,0,0,1-.31-.16.25.25,0,0,0-.32.07.26.26,0,0,0,0,.33,3,3,0,0,1,.41.46l.4-.31A1.17,1.17,0,0,0,9.39,26a.25.25,0,0,0-.28.37.9.9,0,0,0,.55.42.25.25,0,0,0,.3-.18,1.43,1.43,0,0,0,0-.58s0-.05,0,0V26s0,0,0,0l0,0-.07.05s0,0,0,0l.05,0,.11,0a.25.25,0,0,0,.28-.12,1.33,1.33,0,0,0,0-1,.25.25,0,0,0-.48,0,1.09,1.09,0,0,0-.05.17.25.25,0,0,0,.42.24c.25-.2.13-.51.13-.78s-.52-.32-.5,0a2.48,2.48,0,0,0,0,.27c0,.07,0,.13,0,.16l.42.24a.94.94,0,0,1,0-.16H9.81a.91.91,0,0,1,0,.63l.28-.12c-.3-.11-.68-.09-.71.3a1.32,1.32,0,0,0,0,.34s0,.06,0,.08,0,.09,0,.06v.1s0,0,0,0l.31-.18a.36.36,0,0,1-.25-.18l-.28.36a.55.55,0,0,1,.23.14.25.25,0,0,0,.39-.31,5.07,5.07,0,0,0-.48-.56l-.31.39a1.72,1.72,0,0,0,.43.21c.23.07.44-.27.24-.42s-.36-.2-.44-.37L9,25.94a4.44,4.44,0,0,0,.52.15.26.26,0,0,0,.25-.42c-.11-.13-.34-.24-.38-.42l-.31.31.48.13a.25.25,0,0,0,.19-.46,1.92,1.92,0,0,0-.25-.12A.67.67,0,0,1,9.36,25l-.21.38c.24,0,.44.16.69.07A.25.25,0,0,0,10,25a1.79,1.79,0,0,0-.28-.2l-.09-.08c-.05,0,0,0,0,0L9.31,25a5.66,5.66,0,0,1,.58,0c.24,0,.36-.36.13-.46a3.3,3.3,0,0,1-.51-.31l-.13.47a1.83,1.83,0,0,0,.7,0c.2-.08.13-.4-.06-.45A3.51,3.51,0,0,1,9.53,24l-.12.46c.18,0,.37,0,.56,0s.36-.28.18-.43a1.74,1.74,0,0,0-.26-.15.46.46,0,0,1-.21-.13l-.11.41c.27,0,.54,0,.81-.07a.26.26,0,0,0,.11-.42,1.17,1.17,0,0,0-.63-.22L9.8,24,10,24a.25.25,0,1,0,.13-.48Z"/><path class="cls-7" d="M25.18,39.93a.72.72,0,0,0-.36-.06.26.26,0,0,0-.09-.21l.31-.24c.26-.18,0-.62-.25-.43h0a.25.25,0,0,0-.21-.07l-.06,0a1,1,0,0,0,.37-.35.24.24,0,0,0,0-.29A.94.94,0,0,0,25,38a.25.25,0,0,0-.21-.31c.07-.17-.07-.42-.29-.35l-.1,0a.31.31,0,0,0,.05-.1s0,0,0,0,.23-.14.35-.19h0l.06,0c.21-.1.11-.42-.09-.45a.25.25,0,0,0-.25-.28c.11-.21-.11-.51-.33-.34A14.77,14.77,0,0,1,22.69,37a10.45,10.45,0,0,0-1.3.64s0,0,0,0l-.61.29a.24.24,0,0,0-.1.4.24.24,0,0,0,.19.44l.72-.18c-.08.06-.16.1-.23.16s0,0,0,0c-.65.23-1.3.47-1.94.73a.25.25,0,0,0,.13.49c.14,0,.28-.08.41-.12a.79.79,0,0,0-.5.33.26.26,0,0,0,.22.38,2.49,2.49,0,0,0,.86-.12.25.25,0,0,0,.06.45,1,1,0,0,0,.35,0s0,0,0,0a.88.88,0,0,0,.35.1l-.28.09a.25.25,0,0,0,.1.48l-.22.07c-.25.1-.24.5.06.49h.14a.24.24,0,0,0,.3.18l.07,0a.74.74,0,0,0-.19.27.26.26,0,0,0,.17.31,1.06,1.06,0,0,0,.25,0,.24.24,0,0,0,.09.36,1.26,1.26,0,0,0-.33.16l-1,.26c-.34.09-.78.18-1,.5a.26.26,0,0,0,.28.37c.59-.16,1.16-.34,1.73-.53L21.7,44l.11,0,.05,0,1.08-.25a.22.22,0,0,0,.16-.21,3.45,3.45,0,0,1,.46-.12.31.31,0,0,0,.13.06h.12a.18.18,0,0,0,.17.07,1.15,1.15,0,0,0,.62-.23.23.23,0,0,0,0-.35.57.57,0,0,0,.18-.36.14.14,0,0,0,0-.09c.09-.41.14-1-.3-1.14h0a.33.33,0,0,0-.06-.1,2,2,0,0,0,.66-.37C25.27,40.64,25.63,40.14,25.18,39.93Zm-2.54-.29.1,0h0l-.3.2-.56.17A7.35,7.35,0,0,0,22.64,39.64Zm-2.19.06c.35-.1.71-.18,1.06-.26l.3-.07-.39.12c-.42.12-.84.24-1.27.33l-.17,0Zm4.14.86-.15.08,0,0h0a.23.23,0,0,0,.07-.17h.27Z"/></g></g></svg>