<svg xmlns="http://www.w3.org/2000/svg" viewBox="0 0 52.84 34.74"><defs><style>.cls-1{fill:#e9a061;}.cls-2{fill:#b27e4c;}.cls-3{fill:#f4bdd8;}.cls-4{fill:#798c67;}.cls-5{fill:#255827;}.cls-6{fill:#ed88b6;}.cls-7{fill:#803124;}.cls-8{fill:#92443f;}</style></defs><g id="Layer_2" data-name="Layer 2"><g id="Card"><path class="cls-1" d="M51.54,9.68a3.41,3.41,0,0,0,0-1.65,7.15,7.15,0,0,0-.37-1.1L51,7a.78.78,0,0,0-.08-.23.5.5,0,0,0-.48-.21.34.34,0,0,0-.17.05.44.44,0,0,0-.27.31.57.57,0,0,0,0,.13l-.07.08a.92.92,0,0,0-.15.25,3.44,3.44,0,0,1-.64,0l-.42-.07s0-.09,0-.14A.5.5,0,0,0,47.81,7l-.07,0a5.69,5.69,0,0,1-.55,1.12,2,2,0,0,0-.34,0h-.5a2.69,2.69,0,0,0-.57,0,.91.91,0,0,0-.67,1,6,6,0,0,0,.12,1.11s0,.05.05.08a4.15,4.15,0,0,0-.24.42l-.56,1.56s-.74-1.63-1.42-1.52-1.61,1-1.59,1.52a2.39,2.39,0,0,0,.05.55c0-.06-.1-.16-.36-.09s-.42.81-1,1.16a6.06,6.06,0,0,1-1.32.55l3.24,3.28s1.71,1.36,2.59,1,2-1.47,3-1.56,2.46.2,3.06-1a9.91,9.91,0,0,0,.67-3.29s1.25-.27,1.19-1S51.41,10.6,51.54,9.68Z"/><path class="cls-1" d="M17.81,20.25a9.67,9.67,0,0,0-1.55-.83c-.89-.37-2.44-.88-2.44-.88l-.4-1.29s.92-2.44.55-3.48a1.61,1.61,0,0,0-1.32-1.1,8.28,8.28,0,0,1-2.68,0c-.7-.27-1.78-.74-2.11,0s.18,1.25.73,1.68S9.91,15,9.81,15.6,8.93,20,8.93,20L8.5,22.36,6.33,21.8A17.51,17.51,0,0,1,3.07,24C1.94,24.46.41,25.32.35,25.84s.24,1.45,1,1.46,3.87-1.4,4.94-1.14a10.39,10.39,0,0,1,3.36,1.6c.92.67,3.11,2.82,5.59,2.83A15.34,15.34,0,0,0,21,29a9.68,9.68,0,0,0-.86-4.21,16.4,16.4,0,0,0-2.61-2.94s-.21-1,.11-1.16A.3.3,0,0,0,17.81,20.25Z"/><path class="cls-1" d="M34.49,29s-.15,3.21,1.63,4.12a7.4,7.4,0,0,0,4.66.9,9.63,9.63,0,0,1,3.15.06c.66.13,1.16.54,1.46.27s0-.8,0-.8.75.44,1,0a.68.68,0,0,0-.1-.82s.4.15.48-.22-.07-.41-.07-.41.82.11.75-.37S46.42,31,46.42,31s.46-1.25-.16-1.31-1.49.76-2.18.78-2.13-.75-3-.78a2.17,2.17,0,0,1-1.4-.51s.39-.26.2-1.11a2.48,2.48,0,0,0-.74-1.3,13.92,13.92,0,0,1-1.93.63,3.92,3.92,0,0,0-1.88.71Z"/><path class="cls-2" d="M47.64,31.26a1,1,0,0,0-.18-.22,1.61,1.61,0,0,0-.87-.39,1.3,1.3,0,0,0,.18-.83.84.84,0,0,0-.83-.51,2.94,2.94,0,0,0-1,.28,8.46,8.46,0,0,1-1.54.45.85.85,0,0,1-.35,0,1.07,1.07,0,0,1-.35-.14,5.3,5.3,0,0,0-2.5-.63A3.77,3.77,0,0,0,39.78,27c-.11-.21-.31-.44-.53-.36a.38.38,0,0,0-.21.43,1.65,1.65,0,0,0,.21.47,2.74,2.74,0,0,1,.32,1.35c0,.13,0,.29-.17.34a.55.55,0,0,1-.33,0c-.26-.06-.6.15-.53.41s.35.29.59.31a11.92,11.92,0,0,1,2.46.31c.49.14,1,.35,1.46.46a10.74,10.74,0,0,0,1.51.19,9.67,9.67,0,0,1,1.68.36,2.19,2.19,0,0,1,.73.26c.1.09.2.35,0,.29a1.82,1.82,0,0,1-.29-.32.33.33,0,0,0-.59.29.86.86,0,0,0,.21.29s.21.18.13.26-.11,0-.15,0-.49-.37-.72-.23c-.59.38.48.86.65,1.11-.38.27-.33,0-.66-.08a3.46,3.46,0,0,1-.57-.3.36.36,0,0,0-.54.33c0,.3.51.42.72.55a.37.37,0,0,1,.17.18c.15.47-1.39-.18-1.57-.23-1.68-.5-3.38.3-5.09.06a5.75,5.75,0,0,1-1.8-.58,3.94,3.94,0,0,1-1.55-1.31,3,3,0,0,1-.38-1.14,4.27,4.27,0,0,1-.19-1.19.35.35,0,0,0-.21-.49c-.7-.07-.4.87-.33,1.28a3.7,3.7,0,0,0,.43,1.7,4.83,4.83,0,0,0,.34.45,5.6,5.6,0,0,0,3.94,2A24.72,24.72,0,0,0,42,34.18a5.36,5.36,0,0,1,1.6.12,11.09,11.09,0,0,0,1.5.41A.78.78,0,0,0,46,34a1.61,1.61,0,0,0,.39-.16.65.65,0,0,0,.43-1c.16-.15.24-.34.43-.46s.47-.2.54-.53A.91.91,0,0,0,47.64,31.26Zm-1.72-.93a.34.34,0,0,0-.06.12c-.25-.07-.5-.13-.76-.18l.3-.11c.22-.09.45-.24.7-.15C46.12,30.14,46,30.23,45.92,30.33Z"/><path class="cls-1" d="M44.18,21.65l-2.41,2.93s2.3.18,3,.18,1.71,0,1.82-.25l.11-.29s2.12.25,2-.64-1.76-1.35-2.4-1.35A9.24,9.24,0,0,1,44.18,21.65Z"/><path class="cls-2" d="M48.59,22.69l0,0a2.53,2.53,0,0,0-1-.44c-1-.26-2-.62-3-.81-.21-.06-.52-.13-.63.14-.23.59,1,.61,1.27.7l1.48.43a5.11,5.11,0,0,1,1.33.46c.82.56-.5.79-.91.79a1.06,1.06,0,0,0-.7-.68c-.3-.08-.74-.38-1-.05a.35.35,0,0,0,.11.47c.29.15.83.12.93.51a4,4,0,0,1-1.75.07c-.47,0-.94,0-1.41,0a5.58,5.58,0,0,0-1.58,0,.35.35,0,0,0,0,.65,4.27,4.27,0,0,0,1,0c.41,0,.81,0,1.22.06.58,0,1.17.06,1.75.06a1.73,1.73,0,0,0,1.36-.38l.08,0a2.39,2.39,0,0,0,1.48-.36A1,1,0,0,0,48.59,22.69Z"/><path class="cls-2" d="M20.77,28.68a9.89,9.89,0,0,1-2.58,1.1,7.55,7.55,0,0,1-2.41.38,8.92,8.92,0,0,1-4.54-1.43c-.66-.51-1.1-1.16-1.77-1.67a5.54,5.54,0,0,0-4.32-1c-1.28.31-2.65,1.08-4,.61-.89-.19-.19-1,.26-1.23.11,0,.83-.4,1-.47.33-.17.65-.37,1-.57a14.33,14.33,0,0,0,1.77-1.29,3.45,3.45,0,0,1,1.44-.88A2.46,2.46,0,0,1,8,22.37a8.86,8.86,0,0,1,1.24.71,5.61,5.61,0,0,0,4.07,1,10.14,10.14,0,0,0,3-1.41c1-.58,1.71-.62,1.58-.89s-1-.3-1.79.19a8.19,8.19,0,0,1-3.52,1.52,4.49,4.49,0,0,1-2.39-.69,12.55,12.55,0,0,0-2.17-1.16,2.86,2.86,0,0,0-2.45.17,1.05,1.05,0,0,1,.07-.11l-.19.15c-.34.28-.69.56-1.06.82l-.21.13a6.82,6.82,0,0,1-.71.57A8.63,8.63,0,0,1,2.45,24,9.25,9.25,0,0,0,.61,25c-.78.65-.91,1.79.21,2.23A5.08,5.08,0,0,0,4.19,27,8.75,8.75,0,0,1,6,26.58,5.48,5.48,0,0,1,10.2,28.8a9,9,0,0,0,5.6,2,11.17,11.17,0,0,0,5.52-1.67C21.7,28.86,21.14,28.38,20.77,28.68Z"/><path class="cls-2" d="M15.33,18.78l-.51-.15c-.44-.13-.71-.23-.83-.5a2.09,2.09,0,0,1,.07-1.43,4.43,4.43,0,0,0,0-3.38,2.2,2.2,0,0,0-2.26-1H11.6a4.38,4.38,0,0,0-.59,0,3.45,3.45,0,0,1-.85,0l-.39-.09a3.07,3.07,0,0,0-1.45-.11c-.59.12-.78.44-.83.69-.21.91,1.25,2,1.31,2.09l.1.08c.39.29.57.44.57.78a6.21,6.21,0,0,1-.22,1.35c-.05.19-.09.37-.13.55-.09.43-.21.89-.33,1.35a13.57,13.57,0,0,0-.56,3.05,1,1,0,0,1,.75.23,12.22,12.22,0,0,1,.53-3.09c.13-.48.25-.94.34-1.39l.12-.52a6.35,6.35,0,0,0,.25-1.54,1.65,1.65,0,0,0-.86-1.37l-.1-.08C8.7,14,8.17,13.26,8.22,13c0,0,.08-.08.26-.12A2.42,2.42,0,0,1,9.59,13l.43.1a4.18,4.18,0,0,0,1.06,0,4.28,4.28,0,0,1,.52,0h.25c.8,0,1.27,0,1.59.59a3.75,3.75,0,0,1-.1,2.8,2.78,2.78,0,0,0,0,1.93,1.79,1.79,0,0,0,1.33.93l.49.15a5.72,5.72,0,0,1,2.49,1.16l.5-.56A6.31,6.31,0,0,0,15.33,18.78Z"/><path class="cls-3" d="M38.31,14.59s-1.92,1.93-3.09,2.11a42.86,42.86,0,0,0-4.75.7,4,4,0,0,0-2,2.68c-.34,1.63-1.12,2.67-1.11,4.22s.34,3.82,1.16,4a9.62,9.62,0,0,0,2.71.38A25.25,25.25,0,0,0,34,28.28l.21.74a3.25,3.25,0,0,1,1.58-1.12c.88-.2,3-.38,3.22-.81s.64-.35.64-.78v-.8s2.82-1.59,3.51-3,2.06-3.92,2.06-3.92a6.17,6.17,0,0,1-2.47-.47C42.06,17.7,39.86,15,39.3,15A1.82,1.82,0,0,1,38.31,14.59Z"/><path class="cls-4" d="M30,17.63a7.54,7.54,0,0,0-2.57-.89c-1.18-.08-4.73-.14-5.7.6S19,18.76,18.37,19.83a9.28,9.28,0,0,0-.87,2s2.39,1.81,2.76,3.35.7,3.25.7,3.25a3.24,3.24,0,0,0,2.4.68C25,29,28,28.41,28,28.41s-.32-2-.71-4.11a7,7,0,0,1,.58-4C27.89,20.28,30,17.63,30,17.63Z"/><path class="cls-5" d="M28,17.15a8.76,8.76,0,0,0,2.07.48l.3-.66a8.32,8.32,0,0,1-2.24-.49,10.57,10.57,0,0,0-3.27-.21c-2.73.27-5.59,1.53-7,4a9.23,9.23,0,0,0-.6,1.12.41.41,0,0,0-.13.26c0,.26.26.39.43.54A14.32,14.32,0,0,1,19.2,24a7.34,7.34,0,0,1,1.33,4.26c0,.24-.17.85.3.78L21,29l.17,0,1.72.35a10.58,10.58,0,0,0,5.56-.66c.15-.06.33-.15.35-.31a.34.34,0,0,0-.3-.35,1.09,1.09,0,0,0-.5.1,11,11,0,0,1-4.07.61,11.19,11.19,0,0,1-2.08-.28c-.39-.09-.58-.05-.6-.46s0-.59-.07-.89A7.65,7.65,0,0,0,20,24a9.16,9.16,0,0,0-1-1.32c-.1-.1-1.17-1.07-1.16-1.1A7.63,7.63,0,0,1,19,19.71C21.15,17.25,24.86,16.48,28,17.15Z"/><path class="cls-6" d="M45.52,18.28a.33.33,0,0,0-.1-.14.32.32,0,0,0-.38-.05.6.6,0,0,0-.16.34,9.77,9.77,0,0,1-5,6.73l-.45-2.24a.49.49,0,0,0-.07-.19c-.12-.17-.43-.08-.53.11a.94.94,0,0,0,0,.64l.49,2.23a.71.71,0,0,1-.31.85,2.09,2.09,0,0,1-.78.24,6.73,6.73,0,0,0-3.77,1.77A7.83,7.83,0,0,1,35,23.38a.56.56,0,0,0,0-.45.36.36,0,0,0-.53,0,1,1,0,0,0-.28.52c-.17.52-.33,1.06-.46,1.6a3.62,3.62,0,0,0,0-.57.3.3,0,0,0-.43-.25l0-.16c0-.27-.52-.29-.56,0l-.12.82a.21.21,0,0,0,0,.12v0c0,.16,0,.32-.07.48s0,.22,0,.33a2.74,2.74,0,0,0-.23-.53.29.29,0,0,0-.53.07l0,.19a3.3,3.3,0,0,0-.35-.88.29.29,0,0,0-.53.07,11.3,11.3,0,0,0-.29,1.38,3.2,3.2,0,0,0-.32-.57.29.29,0,0,0-.5,0,3.2,3.2,0,0,0-.41,1h0a.47.47,0,0,0-.13.15c-.06-.14-.13-.27-.18-.4a.29.29,0,0,0-.57.08l-.08.54v0c0-.17-.07-.33-.11-.48A8.53,8.53,0,0,1,27.76,24a9.18,9.18,0,0,1,2.65-6.32,18.91,18.91,0,0,0,3.36-.3,9.44,9.44,0,0,0,2.85-.93,3.64,3.64,0,0,0,1.89-1.75.93.93,0,0,0,0-.44c0-.15.12-.64,0-.65s-.31.21-.39.38A5.16,5.16,0,0,1,35,16.42a13.48,13.48,0,0,1-3.63.57,3.23,3.23,0,0,0-2.84,1.91,10.2,10.2,0,0,0-1.47,5.56A13.63,13.63,0,0,0,27.61,27l.33,1.22a1,1,0,0,0,.08.22c.21.35.74.29,1.08.35a18.7,18.7,0,0,0,2.11.26c.46,0,.93,0,1.39,0s.78-.18,1.19-.19c.16.27.06.71.34.84s.52-.18.69-.42a5.58,5.58,0,0,1,3.48-1.77A3.31,3.31,0,0,0,39.54,27,1.11,1.11,0,0,0,40,25.85a10.82,10.82,0,0,0,5.48-7A.89.89,0,0,0,45.52,18.28ZM31.14,27a1.27,1.27,0,0,1,0,.2s0,.05-.05.08l0,.06A2.06,2.06,0,0,0,31,27a11.57,11.57,0,0,1,.15-1.2,5.5,5.5,0,0,1,.09.91A.27.27,0,0,0,31.14,27Z"/><path class="cls-2" d="M44.21,19a5.38,5.38,0,0,1-2.82-1.7A28.26,28.26,0,0,0,38.74,15a.7.7,0,0,1-.33-.39.35.35,0,0,1,.42-.39.87.87,0,0,1,.24.15c.39.33.82.63,1.18,1a10.37,10.37,0,0,0,1.12,1.08A13.91,13.91,0,0,0,43,17.79c.54.39,1.32.78,2,.35a9,9,0,0,1,1.72-1.08,6,6,0,0,1,2.15-.24c1.23,0,1.63-1,1.9-2,.12-.58,0-1.17.11-1.74,0-.38.43-.58.74-.66,1.3-.43-.16-1.69-.39-2.42a8.54,8.54,0,0,1-.14-1.76,3.43,3.43,0,0,1-.25-.9.34.34,0,0,1,.67-.08c0,.29.19.52.24.81.1.54,0,1.11.11,1.65a17,17,0,0,1,.94,1.79c.2.92-.44,1.43-1.24,1.67a8.57,8.57,0,0,1-.26,2.26,2.76,2.76,0,0,1-1.55,2c-.88.21-1.81,0-2.69.24C46,18,45.37,19.12,44.21,19Z"/><path class="cls-7" d="M50.53,9.39c.12-.65-1-.54-1.41-.37s-1.28,1-.29.69A3.11,3.11,0,0,1,50,9.58C50.2,9.6,50.45,9.66,50.53,9.39Z"/><path class="cls-7" d="M49.66,11a.35.35,0,1,0,.64-.26C50.21,10.07,49.36,10.45,49.66,11Z"/><path class="cls-7" d="M50.56,14.23A3.5,3.5,0,0,1,48.93,14a.65.65,0,0,0-.52-.1.12.12,0,0,0,0,0,.18.18,0,0,0,0,.09,3.2,3.2,0,0,0,1.1.78,1.7,1.7,0,0,0,1.29,0C51.14,14.65,51,14.23,50.56,14.23Z"/><polygon class="cls-7" points="48.42 14.06 48.42 14.06 48.41 14.06 48.42 14.06"/><path class="cls-5" d="M27.87,28.27a.2.2,0,0,0,.06-.19,1.91,1.91,0,0,0-.53-1.19.28.28,0,0,0-.11-.08,3.18,3.18,0,0,0-.13-.51,7.09,7.09,0,0,0-.27-2.15A.34.34,0,0,0,26.8,24l-.09-1.27,0-.13a.3.3,0,0,0,.25-.2,1.26,1.26,0,0,0,0-.72l.15-.6a.3.3,0,0,0-.57-.15s0,.11-.05.16a.29.29,0,0,0-.32.21c0,.25-.07.51-.09.76a.25.25,0,0,0-.05.15c0,.12,0,.23,0,.35s0,.21,0,.31-.11.32-.17.47a1.33,1.33,0,0,1,0-.2c0-.33-.53-.41-.58-.08L25,25a.32.32,0,0,0-.43.2.24.24,0,0,0-.2.19s0,0,0,.06a.3.3,0,0,0-.43.17l-.18.5c0-.15-.05-.31-.09-.46a.28.28,0,0,0-.54,0,.29.29,0,0,0-.53.06c0,.11-.05.22-.07.33a4.84,4.84,0,0,0-.36-.72.29.29,0,0,0-.53.07l0,.14s0-.08,0-.12a.29.29,0,0,0-.58,0,8.16,8.16,0,0,1-.07,1.31s0,0,0,.06a1.93,1.93,0,0,0-.18,1.06.34.34,0,0,0,.21.26c0,.12,0,.25,0,.37,0,.31.47.39.56.11,0,0,0,.07,0,.1a.3.3,0,0,0,.57,0l.09-.37c.07.2.14.4.23.6s.47.15.53-.07,0-.22.06-.33a1.86,1.86,0,0,0,.1.25.3.3,0,0,0,.51,0s0-.09.05-.13a.28.28,0,0,0,.46,0l0-.06a.31.31,0,0,0,.23,0c0,.05,0,.09,0,.14.06.32.49.24.56,0a.29.29,0,0,0,.35-.14,2.07,2.07,0,0,1,.06.5c0,.36.58.38.58,0a2.8,2.8,0,0,1,0-.5l.08.23c.11.29.58.27.58-.07,0,.11.08.21.11.32a.3.3,0,0,0,.58-.08v-.15l.08.13c.14.22.57.17.54-.14C27.92,28.55,27.9,28.41,27.87,28.27Z"/><path class="cls-6" d="M44.9,19.29a.27.27,0,0,0-.44-.16l0,0A.29.29,0,0,0,44,19a.75.75,0,0,0-.25-.09.3.3,0,0,0-.21,0h0c-.21-.17-.56,0-.5.26L43,19c-.22-.29-.69-.05-.5.29l.14.3a.27.27,0,0,0-.11.31l.11.38a.27.27,0,0,0-.27.28,2.33,2.33,0,0,0,0,.28.29.29,0,0,0-.16.36.24.24,0,0,0-.23.21,2,2,0,0,0,0,.35.33.33,0,0,0-.14.23s0,0,0,.07a.32.32,0,0,0-.33,0,.3.3,0,0,0-.37.08c-.15-.23-.56-.06-.52.26a.22.22,0,0,1,0,.08.29.29,0,0,0-.39.24l0,0a.31.31,0,0,0-.4.11,1.76,1.76,0,0,0-.34.81.36.36,0,0,0,0,.11v1.3a.29.29,0,0,0,.57.06.28.28,0,0,0,.47.1c1.14-1.16,2.68-2.2,3-3.9a.29.29,0,0,0,.27-.36,1,1,0,0,0,0-.16l.66-.53C44.69,20,45,19.74,44.9,19.29Z"/><path class="cls-8" d="M50.14,3a1.24,1.24,0,0,0,0-.83,1.07,1.07,0,0,0-.63-.7A1.36,1.36,0,0,0,49,1.41c-.15,0-.56.2-.7.12S48.07,1,48,.92a1,1,0,0,0-.45-.29C47,.46,46.53,1,46,.81A5,5,0,0,0,44.71.39a2.76,2.76,0,0,0-1.53.42A.34.34,0,0,0,43,1a4.42,4.42,0,0,0-.73.1.91.91,0,0,0-.1-.13.63.63,0,0,0-.47-.2.84.84,0,0,0-.41.11,1,1,0,0,0-.24.17.67.67,0,0,0-.15.14,1.65,1.65,0,0,0-.28.41.42.42,0,0,0,0,.12h0a2,2,0,0,0-1.54.63,1.83,1.83,0,0,0-.42.71c-.11.34,0,.75-.18,1.06s-.75.62-1,1c-.34.56-.1,1,0,1.52.09.37-.2.48-.34.78a1,1,0,0,0-.1.62,1.67,1.67,0,0,0,.26.67c.07.11.2.26.29.41s0,.26.07.38-.32.34-.45.5a1.14,1.14,0,0,0-.31.88,1.18,1.18,0,0,0,1,.92,2.14,2.14,0,0,1,.06,2,.51.51,0,0,0,.32.73v.09s1.37,0,1.83-.72l.13-.2.7-.29a.51.51,0,0,0,.3-.74.43.43,0,0,1-.05-.12l.25-.27s.49-1.24,1-1.38a1.38,1.38,0,0,1,.91.32.76.76,0,0,0,.54.4l.25.21.13-.25a1,1,0,0,0,.62-.88l.3-.36.07-.09a1,1,0,0,1-.2-.37.29.29,0,0,1,0-.09,1.41,1.41,0,0,1,0-.35V9.35a2.72,2.72,0,0,1,0-.3,1.2,1.2,0,0,1,.13-.33,1,1,0,0,1,.36-.36,1,1,0,0,1,.5-.14h1s0,0,0-.06a2.71,2.71,0,0,1,.18-.41.82.82,0,0,1,.24-.41L47.74,7a1.3,1.3,0,0,0,.13.13.84.84,0,0,1,.33-.07.91.91,0,0,1,.9.62,1.66,1.66,0,0,0,.57-.06h0a.92.92,0,0,1,.94-.85,1,1,0,0,1,.53.16,6.86,6.86,0,0,0,.76-.55A9.85,9.85,0,0,0,50.14,3Z"/><path class="cls-7" d="M52.16,5.86l-.11-.08a1.73,1.73,0,0,1-.17-.21,3.88,3.88,0,0,1-.26-.9,3.4,3.4,0,0,0-.7-1.41.26.26,0,0,0-.14-.1s0,0,0,0a2.45,2.45,0,0,0-.89-2A1.7,1.7,0,0,0,48.47,1a1.42,1.42,0,0,0-1-.74,2.08,2.08,0,0,0-1.4.31A2.13,2.13,0,0,0,44.75,0,3.43,3.43,0,0,0,43,.52c-.21.09-.13.11-.37,0s-.24-.14-.36-.18a1.29,1.29,0,0,0-.7-.08,1.88,1.88,0,0,0-.88.38c-.27.22-.38.54-.74.6-.62.12-1,.08-1.41.67a3.78,3.78,0,0,0-.4,1.68c-.09.6-.83.76-1.15,1.26a1.92,1.92,0,0,0,0,1.83,1.93,1.93,0,0,0,0,2.58.88.88,0,0,0-.44.47,2.5,2.5,0,0,0,0,1.41,1,1,0,0,0,.7.82.94.94,0,0,1,.64.86c0,.3-.24.53-.34.79-.33.89.42,1.37,1.22,1.17,1-.26,1.74-1.09,2.81-1.17.26,0,.51-.31.32-.56a1.33,1.33,0,0,1,.18-1.79c.71-.47,1.32.52,1.77.93a.38.38,0,0,0,.53,0,4.2,4.2,0,0,0,1-1.45,2.39,2.39,0,0,0,0-1.4C45,7.81,46.65,8.43,47.53,8a1,1,0,0,0,.57-.84.44.44,0,0,0,0-.17l.08.14a1.77,1.77,0,0,0,.37.44,1.23,1.23,0,0,0,1.23,0,1.06,1.06,0,0,0,.55-.8,1.72,1.72,0,0,0,1.33.43,1.33,1.33,0,0,0,1.06-.83.61.61,0,0,0,.12-.27A.37.37,0,0,0,52.16,5.86Zm-1.8,0a.38.38,0,0,0-.63.17c-.1.29-.13,1-.58.93-.24,0-.35-.29-.48-.45a.94.94,0,0,0-.83-.43c-.4,0-.54.33-.52.69s.07.41-.2.53a2.19,2.19,0,0,1-.68.09c-.82,0-1.64.24-1.88,1.15A3,3,0,0,0,44.64,10a2,2,0,0,1-.56,1.49c-.71-.68-1.51-1.47-2.51-.7A2,2,0,0,0,41,13a6.07,6.07,0,0,0-1.54.71,3.05,3.05,0,0,1-.91.39c-.59.13-.23-.29-.07-.6a1.69,1.69,0,0,0-.55-2c-.29-.21-.59-.13-.67-.52a2.28,2.28,0,0,1,0-.64c0-.32.09-.41.42-.44a.38.38,0,0,0,.26-.64c-.53-.61-1.07-1.5-.25-2.12a.39.39,0,0,0,.17-.43c-.29-.71-.43-1.29.26-1.78a2.05,2.05,0,0,0,.76-.76c.19-.44,0-.93.19-1.38A.9.9,0,0,1,39.83,2,2.68,2.68,0,0,0,40.46,2c.46-.16.56-.7,1-.87s.84.28,1.38.29S43.62,1,44.05.83a1.55,1.55,0,0,1,1.71.47.39.39,0,0,0,.46.06c.58-.28,1.4-.7,1.68.2a.37.37,0,0,0,.46.26c.3-.09.74-.28,1-.14A1.45,1.45,0,0,1,50,2.86a.3.3,0,0,0,0,.23c0,.05,0,.09,0,.14a.32.32,0,0,0,.26.23.35.35,0,0,0,.08.33c.63.72.43,1.86,1.13,2.52l.17.14C51.29,6.6,50.74,6.22,50.36,5.91Z"/></g></g></svg>