<svg xmlns="http://www.w3.org/2000/svg" viewBox="0 0 42.21 65.42"><defs><style>.cls-1{fill:#b1dde3;}.cls-2{fill:#92443f;}.cls-3{fill:#ed88b6;}.cls-4{fill:#f4bdd8;}.cls-5{fill:#e9a061;}.cls-6{fill:#6474b7;}.cls-7{fill:#faed62;}.cls-8{fill:#cbc478;}.cls-9{fill:#b27e4c;}.cls-10{fill:#803124;}.cls-11{fill:#6fadb2;}.cls-12{fill:none;}.cls-13{fill:#3c58a4;}</style></defs><g id="Layer_2" data-name="Layer 2"><g id="Card"><path class="cls-1" d="M1.64,48.9a7.93,7.93,0,0,0-.8,3C.7,53.62,1,58.69,1,58.69A1.45,1.45,0,0,0,.8,60.31c.46.95,3.68,2.59,8,2.64s10.61-.26,10.61-.26L29.77,46.85s-7.85-7.14-7.91-7.16-17.12,4.8-17.12,4.8Z"/><path class="cls-2" d="M16.32,21.54s-.38-.21-.15-.89l.24-.69s-.75-.71-.8-1.25-.3-1.77.56-2a2.37,2.37,0,0,1,1.83.55s1.41-1.39,2.09-1.95,2.15-1.79,2.63-2.08a20.91,20.91,0,0,0,1.65-1.29,13.87,13.87,0,0,0,2.19,1.46A7,7,0,0,0,29,13.9a6.07,6.07,0,0,0-3.7-5.21c-3.58-1.39-4.55-1.31-5.7-1.12a10.72,10.72,0,0,0-2.26.66,1.18,1.18,0,0,1-1.2-.9A9.18,9.18,0,0,1,16.73,3,6.29,6.29,0,0,1,18,.9S16.48,0,12.79,2.52a9.66,9.66,0,0,0-3.65,3.9A2.14,2.14,0,0,0,9,8.09s2.44-1.46,4.67-.66S15.9,9.14,15.9,9.14s-1.81,2.77-2,4.32.27,5.29,1.26,6.5A11.23,11.23,0,0,1,16.32,21.54Z"/><path class="cls-3" d="M16.22,7.54a2.94,2.94,0,0,0-.88.47.47.47,0,0,0,0,.48l.48,1.07,1.26-1.23Z"/><path class="cls-4" d="M23.17,64.39s3.35.87,5.76-.19a20.52,20.52,0,0,0,4.34-2.69L35.52,61a6.38,6.38,0,0,0,2.79.61c1.69,0,4-.38,3.81-.53a17.64,17.64,0,0,1-.64-3.06s-5.48-.8-8.68-1S27.11,54.1,25,58.49,23.17,64.39,23.17,64.39Z"/><path class="cls-3" d="M42.14,60.74A8.62,8.62,0,0,0,42,59.4a5.35,5.35,0,0,0-.11-.55.49.49,0,0,0-.2-.33l-.07,0a.46.46,0,0,0-.29.1,3.55,3.55,0,0,1-2.63.54,1.42,1.42,0,0,1-.36-.14.42.42,0,0,0-.3-.08.26.26,0,0,0-.13.35.56.56,0,0,0,.33.25,3.74,3.74,0,0,0,1.25,0,6.43,6.43,0,0,0,.76,0,3.76,3.76,0,0,0,1.2-.43,8.45,8.45,0,0,1,.21,1.74,8.34,8.34,0,0,1-4.57.45A13.38,13.38,0,0,1,35.52,61a.7.7,0,0,0-.35,0c-.12,0-.24.12-.23.24s.21.25.38.28a18.57,18.57,0,0,0,3.32.39,8.09,8.09,0,0,0,3.26-.62.4.4,0,0,0,.22-.18.44.44,0,0,0,0-.2A1,1,0,0,0,42.14,60.74Z"/><path class="cls-5" d="M19.6,40c-.46-.44-2.13-1.78-6.27-1.09S5.65,44,5.65,44l0,.5A1.68,1.68,0,0,0,5.12,44a.92.92,0,0,1-.51-.82,22.12,22.12,0,0,1,.21-3.31c.23-1.2.79-3.21.79-3.21A15.37,15.37,0,0,1,3,34.25a8.27,8.27,0,0,1-.95-2A7.06,7.06,0,0,0,.74,35.08a25.32,25.32,0,0,0-.48,5c0,1.2.79,3.65.63,5.34s-.45,3.27-.1,3.88a8.2,8.2,0,0,0,.76,1.17c.21.23.63,1.53.87,1.39s.37-.65.37-.65.43.47.57.28a2.4,2.4,0,0,1,.44-.42V49.29s.19,1.5.7,1.24S5,49.38,5,49.38l.4-1.78s.09.76.58.45.59,0,.42-.52l0-.15,1.92.93s1.34-.09,2.55,0a13.83,13.83,0,0,0,3.89-1.09s0-.23.43.81a14.35,14.35,0,0,0,.69,1.53s3.36,1,4.31,1.21a20.4,20.4,0,0,0,3.8-.2l-2.51-7.16A26.22,26.22,0,0,0,19.6,40Z"/><path class="cls-5" d="M30.91,42.27a5.5,5.5,0,0,0-1.7-3.5c-1.5-1.11-5.79-.56-5.79-.56s-.55.58-.56.63a2.46,2.46,0,0,0-.43.87c-.07.42-.34,1.89-.34,1.89a5.71,5.71,0,0,1,1.79,0c.81.19,1.91,1.91,2.34,2.58A44.45,44.45,0,0,1,27.81,49a13.07,13.07,0,0,0,2-1.24c.89-.7,1.13-2.64,1-3.5A4.88,4.88,0,0,1,30.91,42.27Z"/><path class="cls-5" d="M15.88,21.52A8,8,0,0,0,17,24.41c.79,1,2.6,2.56,3.79,2.67s1.95-1.34,1.95-1.34-.33-1.22.69-1.4,2.3.19,3-.27,2.24-3.25,2.24-3.25-.6-2.45-.36-2.84.69-.62.63-1.24,0-2.84,0-2.84-1.86-.28-2.2-.41-2.41-1.57-2.41-1.57a8,8,0,0,1-1.17,1,11.67,11.67,0,0,0-1.82,1.17L18,17.24s-1.65-1-2.12-.35a2,2,0,0,0-.1,2.09,5.06,5.06,0,0,1,.63,1Z"/><path class="cls-6" d="M15.23,48.78a.52.52,0,0,0-.27.78c.32.55,1,1.32,1,1.41a2.24,2.24,0,0,0,0,1.93,6,6,0,0,0,1.19,1.31A1.49,1.49,0,0,0,17,55.9a8.7,8.7,0,0,0,1.05,2,17.08,17.08,0,0,0-.16,2.65c.07,1,0,4.21,1.55,4.3s1.73-.43,1.73-.43a3.3,3.3,0,0,0,2,.72c.86-.17,2.79-2.46,3.35-3.34s1.3-2.23,2.24-2.45a8.7,8.7,0,0,0,1.45-.45,5.57,5.57,0,0,1,1.6,2.2,1.52,1.52,0,0,1,0,.81s.63.9,2.17,0a27.43,27.43,0,0,0,4-3A3.14,3.14,0,0,1,40.3,58a4.71,4.71,0,0,1,1.68.72s-.13-1-.68-1.39-1.38-.58-1.89-.91a36.35,36.35,0,0,1-2.51-3,9.58,9.58,0,0,0-2-1.84,4.48,4.48,0,0,0-1.23-.3A1.88,1.88,0,0,1,34,50.16c.33-.56,1-1.3.86-2s-.25-1.21-.74-1.24a1.51,1.51,0,0,1-.76-.21,1.44,1.44,0,0,0,.13-1.5,5.09,5.09,0,0,0-1.35-1.27,5.35,5.35,0,0,0-.89-1.44.53.53,0,0,0-.54-.07A8,8,0,0,1,30.58,46C30,47.48,29,48.77,26.11,49.84s-5.08.42-6.67.42a12.33,12.33,0,0,1-3.56-.73C15.54,49.44,15.23,48.78,15.23,48.78Z"/><path class="cls-7" d="M15.48,21.82a63.42,63.42,0,0,1-5.27,3.7c-.92.38-5.56,3.84-5.56,3.84L1.91,31.45V32s1.3,3,2.46,3.66,1.12,1.18,1.12,1.18-1.1,3.56-.88,4.54a8.62,8.62,0,0,1,.13,2.09l.81.7a6.89,6.89,0,0,1,2.07-2.32c1.28-.8,4.8-3.33,7.86-3.36S19.27,39.76,19.6,40A13.38,13.38,0,0,1,21,41.8l1.07-.2a11.67,11.67,0,0,1,.23-1.72,2,2,0,0,0,.1-.78s1.06-.19,1-1.85a7.15,7.15,0,0,1,.87-3.55,6.24,6.24,0,0,0,.24-4c-.51-1.12-1.7-4.12-1.7-4.12A2.14,2.14,0,0,1,21.38,27c-1.61.6-2.91-.92-3.31-1.44S15.48,21.82,15.48,21.82Z"/><path class="cls-8" d="M24.93,30.76A12.53,12.53,0,0,0,23,25.41a.47.47,0,0,0-.28-.27c-.17,0-.32.12-.37.28a3,3,0,0,0-.06.51,1.27,1.27,0,0,1-1.17.93,2.81,2.81,0,0,1-1.52-.45,7.5,7.5,0,0,1-3.44-4.33c0-.15-.1-.33-.25-.38a.53.53,0,0,0-.41.12q-6.6,4.28-13,8.78a1.73,1.73,0,0,0-.87,1.07,1.54,1.54,0,0,0,.21.85,10.57,10.57,0,0,0,3.72,4.34,1.45,1.45,0,0,0,.67.3,1.57,1.57,0,0,0,.89-.26,20.37,20.37,0,0,1,2.72-1.37,4.06,4.06,0,0,1,3,0c.2.09.48.19.6,0s-.21-.46-.48-.51a9.22,9.22,0,0,0-2-9.62l3.8-2.27a.91.91,0,0,0,.81.81.78.78,0,0,0,.62,1.34.79.79,0,0,0,1.18,1,.84.84,0,0,0,.26.9.85.85,0,0,0,.94.06.81.81,0,0,0,.46.85.83.83,0,0,0,.95-.23.91.91,0,0,0,1.73.1,1.48,1.48,0,0,0,1.59-.84,6.43,6.43,0,0,1,1.17,4.2,13.69,13.69,0,0,1-.85,3.84,5.62,5.62,0,0,0-.39,1.37c0,.45,0,.91-.05,1.36a1.38,1.38,0,0,1-.13.54c-.31.51-1.06.36-1.66.38-.19,0-.43.1-.39.28s.18.18.3.2a4.9,4.9,0,0,0,.94.06,1,1,0,0,1-.26,1,5.41,5.41,0,0,1-.83.67.39.39,0,0,0-.22.31c0,.2.26.32.45.25a1,1,0,0,0,.42-.42c0,.26.18.62.38.47a.38.38,0,0,0,.1-.2l.55-2.16a1.53,1.53,0,0,0,.85-1.13,8.81,8.81,0,0,0,.14-1.46c.14-1.78,1.07-3.43,1.19-5.21A5.15,5.15,0,0,0,24.93,30.76ZM10.5,25.85a2.47,2.47,0,0,1,.77.67,10,10,0,0,1,1.18,2,11.83,11.83,0,0,1,.5,2.94,5.2,5.2,0,0,1-.41,2.91,4.09,4.09,0,0,1-.25.46,5.1,5.1,0,0,0-2.79.22c-.69.31-1.34.7-2,1-.36.17-.66.39-1,.53l-.25.06,0,0a4.47,4.47,0,0,1-.88-.55,9.36,9.36,0,0,1-3-3.82A.82.82,0,0,0,2.1,32a2.41,2.41,0,0,1,0-.38A22.56,22.56,0,0,1,4.16,30c.74-.52,1.5-1,2.26-1.51S7.84,27.52,8.54,27l1.82-1.29A.3.3,0,0,0,10.5,25.85Zm4.66-2.69a.94.94,0,0,1,.42-.68.22.22,0,0,0,.12-.11h0a8,8,0,0,0,.26.9.05.05,0,0,1,0,0c-.15-.07-.34.07-.5.11A.32.32,0,0,1,15.16,23.16ZM16,24.75c-.44.07-.19-.48-.05-.67a1.64,1.64,0,0,1,.27-.32,4.49,4.49,0,0,0,.38.62C16.41,24.5,16.26,24.72,16,24.75Zm.57.68a3,3,0,0,1,.34-.63h0c.21.24.44.47.67.69C17.27,25.81,16.3,26.24,16.57,25.43Zm1.3,1.38c-.3-.22,0-.65.16-.89,0,0,0,0,0,0l.3.26.31.24a.86.86,0,0,1-.07.1A.75.75,0,0,1,17.87,26.81Zm1.32.84a.07.07,0,0,1-.1,0,.89.89,0,0,1,0-.89h0a3.7,3.7,0,0,0,.46.31l.22.13A.78.78,0,0,1,19.19,27.65Zm1.93.16c-.47.52-.79.13-.76-.45,0,0,0,0,0,0s.23,0,.35,0h.48A.68.68,0,0,1,21.12,27.81Zm1.12-.29a.76.76,0,0,1-.54-.25,1.14,1.14,0,0,0,.26-.09l.06-.05a.48.48,0,0,1,.11-.09l.06,0C22.25,27.17,22.37,27.36,22.24,27.52Zm.58-.67c-.13,0-.22-.1-.33-.15a1.22,1.22,0,0,0,.15-.17l.11-.19c.06.1.13.19.19.28A.23.23,0,0,1,22.82,26.85Z"/><path class="cls-8" d="M11.32,39a11.86,11.86,0,0,1-1.75-.46c-.49-.25-1-.38-1.51-.62a.26.26,0,0,0-.42.06c-.18.45.85.61,1.14.76a10.3,10.3,0,0,0,2.44.75A.25.25,0,0,0,11.32,39Z"/><path class="cls-8" d="M10,40a1.37,1.37,0,0,0-.29-.07l-3.11-.34c-.63-.07-.53.46,0,.52l3.13.34c.14,0,.3,0,.37-.1A.27.27,0,0,0,10,40Z"/><path class="cls-8" d="M21.82,28.77a.25.25,0,0,0-.25-.25.25.25,0,0,0-.24.25.25.25,0,1,0,.49,0Z"/><path class="cls-8" d="M21.48,30.25a.25.25,0,1,0,.09-.49A.25.25,0,1,0,21.48,30.25Z"/><path class="cls-8" d="M21.08,31.45a.25.25,0,0,0,.25.24.24.24,0,0,0,.24-.25.25.25,0,0,0-.49,0Z"/><path class="cls-8" d="M20.85,32.87a.25.25,0,0,0,.25.25.25.25,0,0,0,.24-.25.25.25,0,0,0-.25-.25A.25.25,0,0,0,20.85,32.87Z"/><path class="cls-8" d="M21.23,34.23a.25.25,0,1,0-.24.25A.25.25,0,0,0,21.23,34.23Z"/><path class="cls-8" d="M24.51,31.24a.25.25,0,0,0-.16-.28,1.5,1.5,0,0,0,.11-.44.17.17,0,0,0-.06-.15A2.34,2.34,0,0,0,24.29,29a.23.23,0,0,0-.16-.16s0-.05,0-.06a.23.23,0,0,0,0-.26.25.25,0,0,0-.29-.33l-.07,0,.06-.08s0,0,.05,0a.19.19,0,0,0,.07-.2.22.22,0,0,0-.18-.36l-.09,0a.29.29,0,0,0-.08-.22c.13-.25-.27-.47-.45-.22a2.49,2.49,0,0,1-.71.66.25.25,0,0,0,.13.46h.12s0,0,0,.06h0a.25.25,0,0,0,.07.45.18.18,0,0,0,.08.11.2.2,0,0,0,0,.15l-.06,0a.28.28,0,0,0,0,.42l-.13.09a.25.25,0,0,0,.05.44.26.26,0,0,0,0,.38l-.1.05a.24.24,0,0,0,.1.44.28.28,0,0,0,.07.25l-.15.08a.27.27,0,0,0,0,.44l-.4.12c-.25.08-.23.52.07.49l.66,0c-.12.06-.25.11-.36.18a.25.25,0,0,0,.19.46l0,0h0l-.2.07a.24.24,0,0,0-.1.4l-.05,0a.25.25,0,0,0,.13.47l.14,0h0a.26.26,0,0,0,0,.29l-.25.19a.2.2,0,0,0-.06.22l-.07,0a.25.25,0,0,0,0,.41.47.47,0,0,1-.09.06.22.22,0,0,0,0,.32.49.49,0,0,0-.11.41s0,0-.06,0A.28.28,0,0,0,22,36a2.09,2.09,0,0,0-.14.17.27.27,0,0,0,.08.34,1,1,0,0,0-.37.32.22.22,0,0,0,.06.3l-.13.1a.23.23,0,0,0,0,.31h0c-.21.08-.26.43,0,.49h0a.22.22,0,0,0,0,.11l-.08,0a.26.26,0,0,0,.06.46,1.15,1.15,0,0,0,.39.07l.09.05c.76.22,1.09-.34,1.24-1a.24.24,0,0,0,.09-.17l.13-1.69h0l0-.09a1.62,1.62,0,0,0,.16-.7c0-.13,0-.26.07-.38a.23.23,0,0,0,.05-.28s0,0,0,0h0a.26.26,0,0,0,.09-.42l.05,0a.26.26,0,0,0,.09-.42.24.24,0,0,0,0-.34l.19-.06a.23.23,0,0,0,.12-.36.24.24,0,0,0,0-.36s0-.1,0-.15,0,0,0,0a.26.26,0,0,0,.05-.37,3.7,3.7,0,0,0,.24-.29A.22.22,0,0,0,24.51,31.24Zm-2.07,6.59a.21.21,0,0,0,0-.15.23.23,0,0,0-.09-.39l.26-.08a1.87,1.87,0,0,1,0,.25.24.24,0,0,0,.17.29,1.83,1.83,0,0,1-.08.25A.22.22,0,0,0,22.44,37.83Z"/><path class="cls-8" d="M22.36,39.37a.25.25,0,0,0-.31-.18,2.34,2.34,0,0,1-.82.19H21a2.67,2.67,0,0,1-.67-.14.24.24,0,0,0-.24.06.29.29,0,0,0-.07.25c0,.19.26.24.43.27l-.1,0a.26.26,0,0,0,.07.5l.19,0a.27.27,0,0,0,.06.1.41.41,0,0,0,0,.11h0a.27.27,0,0,0-.11.29.21.21,0,0,0,.1.13.22.22,0,0,0,.06.19c.3.28.63-.07.85-.26l.7-.64a.25.25,0,0,0-.14-.41l.07-.18A.26.26,0,0,0,22.36,39.37Z"/><path class="cls-8" d="M12.51,35.05h0c-.16-.11-.28-.24-.5-.22a.52.52,0,0,0-.13.06.23.23,0,0,0-.18.08h0a.38.38,0,0,0-.29-.09h0a.27.27,0,0,0-.43,0,.26.26,0,0,0-.29.18s0,.05,0,.08,0,0-.08-.07a.24.24,0,0,0-.36.15,0,0,0,0,0,0,0l0,0a.26.26,0,0,0-.35.12.33.33,0,0,0-.28,0,.38.38,0,0,0-.19.22.24.24,0,0,0-.32.11.26.26,0,0,0-.3.14.24.24,0,0,0-.31.09v0c-.13-.1-.39-.09-.42.11v0a.23.23,0,0,0-.23.18s0,.08,0,.12a.26.26,0,0,0-.15,0,.44.44,0,0,0-.16.22s0,0-.09,0a.28.28,0,0,0-.21.21.36.36,0,0,0-.32,0,.37.37,0,0,0-.21.32.18.18,0,0,0-.15.12.25.25,0,0,0-.35.07.23.23,0,0,0-.18,0l0,0a.23.23,0,0,0-.27,0,.23.23,0,0,0-.21.34.91.91,0,0,0,0,.33.22.22,0,0,0,.24.17s0,.07,0,.1a.25.25,0,0,0,.45.13.23.23,0,0,0,.4-.08.24.24,0,0,0,.4-.23.25.25,0,0,0,.25-.3,1.3,1.3,0,0,1,0-.13l.06.12a.26.26,0,0,0,.47-.13v0a.25.25,0,0,0,.26-.1A.27.27,0,0,0,8.24,37a.13.13,0,0,0,0-.06.25.25,0,0,0,.2-.09.27.27,0,0,0,.35,0,.26.26,0,0,0,.32-.21.23.23,0,0,0,.27-.18c.14.16.47.11.44-.14a2.64,2.64,0,0,1,0-.29.23.23,0,0,0,.37,0,.28.28,0,0,0,.4-.19.24.24,0,0,0,.47-.09s0-.06,0-.09a.27.27,0,0,0,.33-.16.22.22,0,0,0,.14,0l.07,0a.34.34,0,0,0,.31,0l0-.05c.14,0,.28,0,.43.07l.09.07c.21.09.37-.2.28-.37A.35.35,0,0,0,12.51,35.05Z"/><path class="cls-8" d="M10.76,39.25l-.12-.11a.19.19,0,0,0-.1-.1,3.62,3.62,0,0,0-1.62-.33l-.05,0-.12,0a1.48,1.48,0,0,0-.58-.16.25.25,0,0,0-.22.35L7.4,38.7a.25.25,0,0,0-.19.46,4.92,4.92,0,0,0,2.11.56,5.67,5.67,0,0,0,1.23.09.25.25,0,0,0,.24-.26A.29.29,0,0,0,10.76,39.25Z"/><path class="cls-8" d="M9.08,40.14a12.45,12.45,0,0,0-3.7.36.25.25,0,0,0,.14.48l.39,0a.24.24,0,0,0,0,.17s0,.06,0,.1h0a.24.24,0,0,0-.09.41h0a.24.24,0,0,0-.1.31l0,0-.13.08a.24.24,0,0,0,0,.37.21.21,0,0,0,0,.15,1.93,1.93,0,0,0-.22.28.23.23,0,0,0,0,.16c-.08.11-.16.21-.23.32s.13.49.34.34a.39.39,0,0,0,.1-.08.19.19,0,0,0,.29,0,.1.1,0,0,0,0-.05h0l.1-.14,0,0,0-.05h0a5.41,5.41,0,0,1,.7-.95l.7-.6a.24.24,0,0,0,.2-.05,4.09,4.09,0,0,1,.67-.51.23.23,0,0,0,.09-.3l.23,0a.32.32,0,0,0,.24-.22h.18A.25.25,0,0,0,9.08,40.14Z"/><path d="M12.31,24Z"/><polygon points="12.3 23.97 12.31 23.97 12.31 23.97 12.31 23.97 12.31 23.97 12.31 23.97 12.31 23.97 12.31 23.97 12.3 23.97 12.3 23.97"/><polygon points="12.31 23.97 12.31 23.97 12.31 23.97 12.31 23.97"/><polygon points="12.31 23.97 12.31 23.97 12.31 23.97 12.31 23.97 12.31 23.97"/><polygon points="12.31 23.97 12.31 23.97 12.31 23.97 12.31 23.97"/><polygon points="12.31 23.97 12.31 23.97 12.31 23.97 12.31 23.97"/><path d="M12.48,23.89Z"/><path d="M12.48,23.89Z"/><polygon points="12.48 23.89 12.48 23.89 12.48 23.89 12.48 23.89"/><polygon points="12.48 23.89 12.48 23.89 12.48 23.89 12.48 23.89"/><polygon points="12.48 23.88 12.48 23.89 12.48 23.89 12.48 23.88"/><polygon points="12.49 23.88 12.49 23.88 12.49 23.88 12.49 23.88"/><polygon points="12.49 23.88 12.49 23.88 12.49 23.88 12.49 23.88 12.49 23.88"/><polygon points="12.49 23.88 12.49 23.88 12.49 23.88 12.49 23.88"/><path d="M12.76,23.71Z"/><polygon points="6.43 49.72 6.43 49.72 6.43 49.72 6.43 49.72"/><path d="M22.14,63.91h0v0h0Z"/><path d="M31.56,59.83Z"/><path d="M31,60h0Z"/><polygon points="31.01 60.02 31.01 60.02 31.01 60.02 31.01 60.02"/><polygon points="30.67 59.82 30.67 59.82 30.68 59.82 30.67 59.82"/><path d="M15,47l.14-.05a2.25,2.25,0,0,1-.05.22c0,.08,0,.17,0,.26a.08.08,0,0,1,0,0l-.12,0C14.65,47.42,14.73,47.08,15,47Z"/><path d="M21.81,43.91l0,0A.27.27,0,0,1,22,44Z"/><path d="M27.18,48.17v0a.52.52,0,0,0,.11.1l-.1,0S27.18,48.2,27.18,48.17Z"/><polygon points="22.61 44.37 22.61 44.37 22.61 44.37 22.61 44.37"/><polygon points="22.28 44.21 22.27 44.2 22.28 44.21 22.28 44.21"/><polygon points="22.32 44.03 22.32 44.03 22.32 44.03 22.32 44.03"/><path d="M21.81,43.91h0l.15,0h0A.19.19,0,0,0,22,44Z"/><path d="M30.45,47.42Z"/><polygon points="29.59 47.53 29.59 47.53 29.59 47.53 29.59 47.53"/><polygon points="29.77 47.26 29.77 47.26 29.77 47.26 29.77 47.26"/><path d="M33,46.89l.09,0h0a1,1,0,0,0,.24-.17l.08-.08,0,.13a.24.24,0,0,1-.25.28A.22.22,0,0,1,33,46.89Z"/><path d="M33,46.89l.09,0-.08,0Z"/><polygon points="31.63 42.48 31.63 42.47 31.63 42.47 31.63 42.47 31.64 42.48 31.63 42.48"/><path d="M41.3,58.21Z"/><polygon points="41.2 58.13 41.2 58.13 41.2 58.14 41.2 58.13"/><polygon points="41.19 58.13 41.19 58.13 41.19 58.13 41.19 58.13 41.2 58.13 41.19 58.13"/><path d="M41.19,58.13Z"/><path d="M41.18,58.12Z"/><path d="M41.18,58.12Z"/><path d="M41.16,58.11h0Z"/><polygon points="41.16 58.11 41.16 58.11 41.16 58.11 41.16 58.11"/><polygon points="41.02 58.04 41.02 58.04 41.02 58.04 41.02 58.04"/><polygon points="41.02 58.04 41.02 58.04 41.02 58.04 41.02 58.04 41.02 58.04"/><polygon points="41.02 58.04 41.02 58.04 41.02 58.04 41.02 58.04 41.02 58.04"/><polygon points="41.02 58.04 41.02 58.04 41.02 58.04 41.02 58.04 41.02 58.04"/><path d="M40.31,57.81Z"/><polygon points="40.3 57.81 40.3 57.81 40.3 57.81 40.3 57.81"/><polygon points="40.62 57.79 40.63 57.79 40.63 57.79 40.62 57.79"/><polygon points="40.17 57.79 40.17 57.79 40.17 57.79 40.17 57.79"/><polygon points="40.17 57.79 40.17 57.79 40.17 57.79 40.17 57.79"/><path d="M17.35,63.38v0Z"/><path d="M27.6,48Z"/><path class="cls-9" d="M31.08,41.6a3.67,3.67,0,0,0-.25-.84c-.42-1.69-1.28-2.29-2.89-2.75a11.84,11.84,0,0,0-2.46-.17,5.37,5.37,0,0,0-1.65,0c-.24,0-.68-.06-.66.31s.92.13,1.21.11c.58,0,1.19.08,1.78.08a7.73,7.73,0,0,1,1.44.08,3.23,3.23,0,0,1,2.49,1.69c.18.34.23.74.38,1.1a4.45,4.45,0,0,1,.19.82h0a.24.24,0,0,0,.25.23C31.27,42.24,31.12,41.84,31.08,41.6Z"/><path class="cls-9" d="M26.93,42.9a5.66,5.66,0,0,0-.83,1,.3.3,0,0,0-.08.5c.34.2.51-.31.69-.51s.23-.26.34-.4l.24-.24A.25.25,0,1,0,26.93,42.9Z"/><polygon points="19.95 27.18 19.95 27.18 19.95 27.18 19.95 27.18"/><polygon points="14.65 22.6 14.65 22.61 14.65 22.61 14.65 22.6"/><polygon points="16.71 20.44 16.71 20.44 16.71 20.44 16.71 20.44"/><polygon points="16.73 19.96 16.73 19.96 16.73 19.96 16.73 19.96"/><path d="M15.52,19h0a.14.14,0,0,0,0,.06S15.52,19,15.52,19Z"/><path d="M15.49,18.91h0Z"/><path class="cls-10" d="M18,19.55a.54.54,0,0,1-.14-.27.33.33,0,0,1,0-.17c-.28,0-.61-.14-.59-.46a1.35,1.35,0,0,0,0-.72,1.07,1.07,0,0,0-.19-.18c-.18-.13-.58-.28-.61.06s0,.53-.26.55-.25-.57-.18-.82c.28-.67,1.13-.46,1.53,0a1.27,1.27,0,0,1,.26,1.1c.41,0,.7.1.58.57a.24.24,0,0,1,.29.23C18.59,19.74,18.13,19.76,18,19.55Z"/><path d="M15.88,21.51h0Z"/><path d="M16.12,20.25Z"/><path d="M16.12,20.25Z"/><path class="cls-9" d="M17.69,23.4a10.37,10.37,0,0,1-1.37-1.86c-.06-.09-.11-.24-.18-.37a1.18,1.18,0,0,1-.27.32s0,0,0,0h0a.14.14,0,0,1,0,.07.11.11,0,0,1-.05.09h0a.93.93,0,0,1,.05.1,9.3,9.3,0,0,0,2,2.51.3.3,0,0,0,.15.05.26.26,0,0,0,.2-.11.25.25,0,0,0-.07-.35C18,23.72,17.85,23.57,17.69,23.4Z"/><path class="cls-9" d="M29,13.9c-.22-.08-.36.13-.35.34A21,21,0,0,0,28.58,17a.54.54,0,0,1-.06.33c-.15.22-.41.37-.45.67a2.19,2.19,0,0,0,.11,1,5.92,5.92,0,0,1,.25,1.77,15.14,15.14,0,0,1-1,1.79,3.06,3.06,0,0,1-1,1.28,5.27,5.27,0,0,1-.62.24,5,5,0,0,1-.95,0,7.82,7.82,0,0,0-1.28,0c-.19.09-.43.06-.61.19a1.58,1.58,0,0,0-.63,1.46.25.25,0,0,0,.49-.09,1,1,0,0,1,.3-.85c.1-.15.27-.14.42-.17a1.27,1.27,0,0,1,.67-.07c.4,0,.8,0,1.21,0a2.71,2.71,0,0,0,1.4-.41,4.24,4.24,0,0,0,1.05-1.43,18.71,18.71,0,0,0,1-1.79,9.54,9.54,0,0,0-.36-2.75c0-.22.18-.32.3-.46a1,1,0,0,0,.24-.7,23,23,0,0,1,0-2.49C29.09,14.33,29.25,14,29,13.9Z"/><path class="cls-10" d="M23.82,16.66h0l.05,0,.1,0,.09,0a2,2,0,0,1,.34-.06h.16l.09,0,.16,0,.29,0,.33,0,.26,0,.22,0,.1,0,.1,0,.14.05a.24.24,0,0,0,.08-.44,1.47,1.47,0,0,0-.62-.17,3.61,3.61,0,0,0-1.46.15c-.23.1-1,.33-1,.63h0l.1,0,.19-.07Z"/><path class="cls-10" d="M28.9,17.08c-.22-.22-1-.81-1.2-.3a.26.26,0,0,0,.05.2h.07l.08,0h.17l.08,0h0a.85.85,0,0,1,.17.06.31.31,0,0,1,.13.06l0,0a.11.11,0,0,1,0,.07s0,0,0,0,0,0,0,0,0,0,0,.05l0,0a.28.28,0,0,0,.19.09A.26.26,0,0,0,28.9,17.08Z"/><polygon class="cls-10" points="25.5 17.78 25.49 17.79 25.48 17.79 25.5 17.78"/><polygon class="cls-10" points="25.59 17.73 25.59 17.73 25.58 17.74 25.59 17.73"/><polygon class="cls-10" points="25.56 17.18 25.56 17.18 25.56 17.18 25.56 17.18"/><path class="cls-10" d="M24.94,17.86h.31l.09,0,.08,0,.07,0,.08-.05h0l0,0h0l.06-.07v0h0v0s0,0,0-.07,0-.05,0-.08v-.06h0v0h0v0s0,0,0,0h0v0h0l0,0s0,0,0,0l-.08,0h0l-.12,0-.13,0h0c-.28,0-.58.14-.81.18l-.27.07-.09,0-.16,0h-.07l-.1.06-.13.06h0l-.13.07a.29.29,0,0,0,0,.09h.64a1.77,1.77,0,0,1,.32,0l.34.07h0Z"/><polygon class="cls-10" points="25.7 17.6 25.69 17.6 25.69 17.61 25.7 17.6"/><polygon class="cls-10" points="25.66 17.24 25.66 17.24 25.66 17.24 25.66 17.24"/><polygon class="cls-10" points="25.64 17.22 25.64 17.22 25.64 17.23 25.64 17.22"/><polygon class="cls-10" points="27.55 18.14 27.54 18.14 27.53 18.14 27.55 18.14"/><polygon class="cls-10" points="27.9 18.21 27.89 18.21 27.89 18.21 27.9 18.21"/><path class="cls-10" d="M28,17.48H27.9l-.2.05-.14,0h0l0,0h0l-.12.09h0l0,.05h0a.18.18,0,0,0-.05.07h0v0h0v0h0a.08.08,0,0,1,0,0h0v0s0,0,0,0h0l.09.07h0l.05,0,.07.05h0l.05,0,.07,0,.09,0H28l0,.06h.21a.25.25,0,0,0,.17-.41C28.45,17.63,28.2,17.52,28,17.48Z"/><polygon class="cls-10" points="26.16 20.41 26.15 20.41 26.15 20.41 26.16 20.41"/><path class="cls-10" d="M27.91,20.21H27l-.14,0-.24-.05a.29.29,0,0,1-.16-.07l-.07,0a.27.27,0,0,1-.08-.07.09.09,0,0,1,0-.06.13.13,0,0,1,0-.06h0v0l0-.09v-.07h0a.15.15,0,0,1,0-.07.25.25,0,0,0-.32.08.64.64,0,0,0,.19.73h0l.1,0,.12,0h0l.19,0a.53.53,0,0,0,.12,0h.78l.16,0h.05l.11,0,.1,0,0,0h0l0,0,.07-.06.05-.05h0Z"/><polygon class="cls-10" points="25.31 21.86 25.32 21.87 25.32 21.86 25.31 21.86"/><polygon class="cls-10" points="25.32 21.87 25.32 21.87 25.32 21.87 25.32 21.87"/><polygon class="cls-10" points="27.35 21.57 27.36 21.57 27.36 21.57 27.35 21.57"/><path class="cls-10" d="M27.49,21.83s0,0,0,0h0v0l0,0a.2.2,0,0,0,0-.08h0l0,0,0,0h0l0,0H27.2l-.13,0h-.15l-.05,0-.06-.05s0,0,0-.05h0l0-.05h0l0,0,0-.05h0l0,0a1.67,1.67,0,0,0-.31.05h0l-.1,0-.11.06-.13.05-.1,0-.11,0-.07,0h0l-.23.05-.18,0h-.44l.06,0,.09,0,0,0,0,0,.07,0,.09,0,.07,0,.07,0h0l.08,0,.09,0a.76.76,0,0,1,.18.09l.06,0,.13.07.19.1h0l.11,0h0l.12,0,.18.05.11,0h.52l.05,0h.07l0,0h0l0,0,0,0h0a0,0,0,0,0,0,0l0,0h0s0,0,0,0l0,0,0,0,0,0s0,0,0,0v0h0l.05,0h0v0h0Zm-.7-.4Z"/><polygon class="cls-10" points="26.27 22.29 26.27 22.29 26.27 22.29 26.27 22.29"/><polygon class="cls-10" points="27.24 22.3 27.23 22.3 27.23 22.3 27.24 22.3"/><polygon class="cls-10" points="26.65 22.38 26.65 22.38 26.64 22.38 26.65 22.38"/><polygon class="cls-10" points="26.57 22.37 26.56 22.37 26.55 22.36 26.57 22.37"/><path class="cls-11" d="M5.47,48.86c1.14.22,2.27-.23,3.43-.2a22,22,0,0,0,5.93-1c.4-.2.06-.67-.3-.41a19.82,19.82,0,0,1-3.32.71c-1.39.18-2.8.15-4.19.37a3.55,3.55,0,0,1-1.3.06c-.22,0-.51-.21-.66,0S5.23,48.84,5.47,48.86Z"/><polygon class="cls-11" points="5.02 50.27 5.02 50.27 5.02 50.27 5.02 50.27"/><path class="cls-11" d="M5,50.26A21,21,0,0,0,8.25,50c.82,0,1.62-.15,2.43-.23A15,15,0,0,0,14.59,49c.15-.06.35-.08.51-.14l.12-.1.1-.06,0-.19c0-.05,0-.09,0-.14l0-.07a.24.24,0,0,0-.24.06c-.5.17-1,.3-1.52.47s-.82.16-1.22.27c-1.93.24-3.88.43-5.83.6h0c-.43,0-.93.06-1.37.05a.25.25,0,1,0-.06.49Z"/><path class="cls-11" d="M5,50.27H5Z"/><polygon class="cls-11" points="2.4 59.73 2.41 59.73 2.41 59.73 2.4 59.73"/><path class="cls-11" d="M2.44,60.29a21.28,21.28,0,0,0,8.68,2c2.27.15,4.54.12,6.8.09l.08-.43c-2.71-.11-5.44,0-8.14-.26a19.17,19.17,0,0,1-7.8-2.14A2,2,0,0,1,1.41,59a2,2,0,0,1-.22-1C1.11,56.43,1,54.86,1,53.28a6.73,6.73,0,0,1,.38-2.86A.88.88,0,0,0,1.49,50a.29.29,0,0,0-.23-.3c-.17,0-.28.19-.33.35C.11,52.59.66,55.31.7,57.94a2.48,2.48,0,0,1-.06.77c-.06.23-.18.44-.23.67A1.77,1.77,0,0,0,.94,61a4.19,4.19,0,0,0,1.5.88,22.13,22.13,0,0,0,7.63,1.3c2.59.05,5.19-.12,7.78-.06l0-.49c-2.58-.06-5.15.1-7.73,0a22.92,22.92,0,0,1-7.59-1.24,3.45,3.45,0,0,1-1.26-.73,1.35,1.35,0,0,1-.38-1.34A10.73,10.73,0,0,0,2.44,60.29Z"/><path d="M15.88,21.52h0Z"/><path d="M15.78,21.38Z"/><polygon points="29.59 47.53 29.59 47.53 29.59 47.53 29.59 47.53 29.59 47.53"/><polygon points="31.51 47.18 31.51 47.18 31.51 47.18 31.51 47.18"/><path d="M31.69,47.06h0Z"/><polygon points="18.15 63.26 18.15 63.25 18.15 63.27 18.15 63.26"/><polygon points="18.16 63.27 18.15 63.27 18.15 63.27 18.16 63.27 18.16 63.27"/><path d="M29,58.93h0Z"/><polygon points="29.52 58.88 29.51 58.88 29.52 58.88 29.52 58.88"/><polygon points="18.16 63.28 18.16 63.27 18.16 63.27 18.16 63.28 18.16 63.28"/><polygon points="34.2 62.03 34.2 62.03 34.2 62.03 34.2 62.03"/><polygon points="34.22 62.02 34.22 62.02 34.21 62.02 34.22 62.02"/><path d="M22.1,44.15h0l0,0,0,0Z"/><path d="M27.48,47.39Z"/><polygon points="27.19 48.28 27.19 48.28 27.19 48.28 27.19 48.28"/><polygon points="27.19 48.28 27.19 48.28 27.19 48.28 27.19 48.28"/><polygon points="35.09 61.66 35.09 61.66 35.09 61.66 35.09 61.66"/><polygon points="28.16 59.32 28.16 59.32 28.16 59.32 28.16 59.32"/><polygon points="28.16 59.32 28.16 59.32 28.16 59.32 28.16 59.32"/><polygon points="32.78 47.25 32.78 47.25 32.78 47.25 32.78 47.25 32.78 47.25 32.78 47.25"/><path d="M31.76,47.14Z"/><path d="M31.89,46.76Z"/><path d="M32.13,43.39Z"/><polygon points="32.13 43.39 32.13 43.39 32.13 43.39 32.13 43.39"/><path d="M32,43.09Z"/><polygon points="31.93 42.63 31.93 42.64 31.93 42.64 31.93 42.63"/><path d="M31.68,42.53h0Z"/><polygon points="38.56 59.13 38.56 59.13 38.56 59.13 38.56 59.13"/><polygon points="38.59 59.08 38.59 59.08 38.59 59.08 38.59 59.08"/><polygon points="38.59 59.07 38.59 59.07 38.59 59.08 38.59 59.07"/><polygon class="cls-10" points="16.72 20.44 16.72 20.44 16.72 20.44 16.71 20.44 16.72 20.44"/><path class="cls-10" d="M29.19,13.74a6.26,6.26,0,0,0-2.08-4.1,9.37,9.37,0,0,0-4.24-2.13,8,8,0,0,0-5.38.38.73.73,0,0,1-.34.12.56.56,0,0,1-.37-.15,2,2,0,0,1-.46-1.64c.08-1.83.38-3.81,1.71-5.07.16-.15.34-.42.16-.56s-.32,0-.44.12a6.15,6.15,0,0,0-1.67,3.11,14.24,14.24,0,0,0-.23,3.57,1.59,1.59,0,0,0-.66.42,6.39,6.39,0,0,0-2.93-1.1,4.19,4.19,0,0,0-3,.83,1.38,1.38,0,0,0-.59,1c.4,0,.69-.35,1-.62a3.08,3.08,0,0,1,2.2-.75,6.38,6.38,0,0,1,2.3.61,2.1,2.1,0,0,1,1.12.92c.33.76-.25,1.57-.68,2.28a8.36,8.36,0,0,0-.85,6,13.34,13.34,0,0,0,2.72,5.45.25.25,0,0,0,.14.11c.21.05.17-.32.05-.5a2,2,0,0,1-.27-1.75l.16.11a.78.78,0,0,0,.15.1c.1,0,.22,0,.33,0a1.68,1.68,0,0,1,.38.12.91.91,0,0,0,.68.09c.22-.1.28-.47.06-.55a.45.45,0,0,0-.23,0,2.14,2.14,0,0,1-2.06-1.43,1.7,1.7,0,0,1-.12-1.17.92.92,0,0,1,.88-.68c.58,0,1.05.75,1.59.55a1.06,1.06,0,0,0,.42-.34,25.66,25.66,0,0,1,5.73-4.81,6.22,6.22,0,0,0,3.2,1.63,2.41,2.41,0,0,1,1.05.34.52.52,0,0,0,.25.14c.23,0,.31-.29.3-.52Zm-13-5.4c.13-.06.38-.18.52,0a.18.18,0,0,0,0,.12,3.68,3.68,0,0,0-.39.3c-.15.13-.27.28-.41.42A.91.91,0,0,1,16.21,8.34Zm-.13-.49a1,1,0,0,0-.49.48h0C15.51,8,15.85,7.92,16.08,7.85Zm8.61,4c.22-.14.42-.5.18-.6s-.25.05-.35.13L22.63,13a.64.64,0,0,1,.19-.54,1,1,0,0,0,.28-.5c0-.2-.19-.42-.36-.33a.47.47,0,0,0-.16.21,8,8,0,0,1-2.1,2.72.89.89,0,0,0,.25-.5c0-.19-.19-.39-.37-.31s-.16.17-.2.29A6.43,6.43,0,0,1,17.92,17a1.65,1.65,0,0,0-2.26-.22,1.6,1.6,0,0,0-.45,1,.8.8,0,0,0,0,.38,3.23,3.23,0,0,0,.35,1l.07.22s0,0,0,.06l.2.28c.09.11.2.21.29.31A.27.27,0,0,0,16,20a.56.56,0,0,0-.05.49A8.89,8.89,0,0,1,14.66,12a7,7,0,0,1,2.42-3.21,6.71,6.71,0,0,1,4.5-1A10.11,10.11,0,0,1,26,9.38a7,7,0,0,1,1.62,1.4,6.09,6.09,0,0,1,1.11,2.79A6.29,6.29,0,0,1,24.69,11.8Z"/><path class="cls-10" d="M9.73,6.31a4.31,4.31,0,0,1,.62-.15.25.25,0,0,0,0-.49,3.22,3.22,0,0,0-1.53.58c-.17.12-.45.23-.33.5a.26.26,0,0,0,.43,0A2.58,2.58,0,0,1,9.73,6.31Z"/><path class="cls-10" d="M10.22,4.79a3.85,3.85,0,0,1,.49-.07,2,2,0,0,1,1.33.5.24.24,0,0,0,.35,0c.24-.34-.34-.56-.56-.71S10.15,4,10,4.5A.25.25,0,0,0,10.22,4.79Z"/><path class="cls-10" d="M12.39,3.23a7.09,7.09,0,0,1,.74,1,.24.24,0,0,0,.34.06.25.25,0,0,0,.06-.35,10.8,10.8,0,0,0-.71-1c-.2-.27-.73-.39-.82,0A.26.26,0,0,0,12.39,3.23Z"/><path class="cls-10" d="M14.55,3.64c.29,0,.28-.31.25-.52a3.82,3.82,0,0,1,.11-1.39A1.8,1.8,0,0,1,15.2,1a.25.25,0,0,0-.42-.27,3.9,3.9,0,0,0-.5,2.07C14.33,3.08,14.19,3.61,14.55,3.64Z"/><path class="cls-10" d="M15.64,2.51A.25.25,0,0,0,16,2.27a4.46,4.46,0,0,1,.47-.89,5.2,5.2,0,0,1,.71-1,.25.25,0,0,0,0-.35c-.39-.32-1,.9-1.16,1.17S15.16,2.28,15.64,2.51Z"/><polygon points="12.3 23.97 12.3 23.97 12.3 23.97 12.3 23.97"/><polygon points="12.3 23.97 12.3 23.97 12.3 23.97 12.3 23.97"/><polygon class="cls-11" points="27.43 47.12 27.43 47.13 27.43 47.13 27.43 47.12"/><path class="cls-11" d="M27.81,49a.77.77,0,0,0,0-.15,28,28,0,0,0-.93-3.49A8.79,8.79,0,0,0,25.65,43a4.09,4.09,0,0,0-2.14-1.5A3.29,3.29,0,0,0,21,41.8c-.16.1-.33.3-.22.45s.36.06.53,0a2.74,2.74,0,0,1,3,.15,6.86,6.86,0,0,0-2.72.81.6.6,0,0,0-.25.19.26.26,0,0,0,0,.3c.11.14.34.05.5,0a5.33,5.33,0,0,1,2.88-.75.81.81,0,0,1,.27.05.66.66,0,0,1,.24.2,5.83,5.83,0,0,1,.64,1.07,17.11,17.11,0,0,1,1.47,4.68.8.8,0,0,0,.09.3.23.23,0,0,0,.26.12C27.79,49.26,27.82,49.1,27.81,49Zm-.33-1.56Z"/><polygon class="cls-11" points="27.43 47.12 27.43 47.13 27.43 47.13 27.43 47.12"/><path class="cls-9" d="M15.52,48.12c-.19-.64-.36-1.3-.51-2a1.71,1.71,0,0,1,0-.25.23.23,0,0,0-.14-.15.26.26,0,0,0-.26-.12c-.2,0-.22.26-.17.42a3.92,3.92,0,0,0,.27,1.36c.14.47.4.89.55,1.36l0,0c.09.23.17.46.28.68a.24.24,0,0,0,.34.09.25.25,0,0,0,.08-.34C15.82,48.83,15.67,48.48,15.52,48.12Z"/><path class="cls-9" d="M24.09,50.2a1.1,1.1,0,0,0,0-.31A54.93,54.93,0,0,0,21.18,42a6.76,6.76,0,0,0-1.51-2.37,5.45,5.45,0,0,0-3.4-1.21c-4.2-.23-8.22,2.22-10.8,5.55-.56-.2-.66-1-.65-1.54a20.16,20.16,0,0,1,.8-5.06.75.75,0,0,0,0-.42c0-.13-.22-.23-.34-.15a.33.33,0,0,0-.11.19,18.55,18.55,0,0,0-.84,5.28c0,.29,0,.65-.3.8a.87.87,0,0,1-.43.07,4,4,0,0,0-1.36.31c-.08,0-.17.08-.2.16s.09.31.26.32a.91.91,0,0,0,.45-.14,2.21,2.21,0,0,1,2,.15,2.55,2.55,0,0,1,1.13,1.69,13,13,0,0,0,.2,2.16c-.18.1-.38-.13-.39-.33s.1-.39.11-.59-.14-.45-.34-.4-.2.22-.24.38l-.72,3.46a3.71,3.71,0,0,1,.23-3.34.35.35,0,0,0,.09-.28c-.08-.26-.46-.06-.6.16a6.35,6.35,0,0,0-.77,4.49c-.88-.77-.8-2.13-.79-3.3a.36.36,0,0,0-.05-.23c-.09-.13-.3-.08-.39.05a.73.73,0,0,0-.09.44,24.55,24.55,0,0,0,.29,3.2,3.79,3.79,0,0,1-.82-2.55c0-.42.09-.94-.26-1.18a4.65,4.65,0,0,0-.31,1.73,5.26,5.26,0,0,1,0-2.27c.3-3.12-.64-6.24-.47-9.36A13.24,13.24,0,0,1,2,32.59a.42.42,0,0,0,.07-.32.28.28,0,0,0-.41-.09.74.74,0,0,0-.26.38A17.69,17.69,0,0,0,.26,36.47,11.88,11.88,0,0,0,.1,40.32c.06.31.11.63.15,1q.14,1,.21,1.92a28.35,28.35,0,0,1,0,3.8,4.93,4.93,0,0,0,.26,2.62c.27.52.74.92,1,1.46a5.32,5.32,0,0,0,.26.66.65.65,0,0,0,.56.37c.23,0,.44-.29.32-.49a.74.74,0,0,0,1.1-.37,1.82,1.82,0,0,0-.12-1.33,1.47,1.47,0,0,0,.25.65.5.5,0,0,0,.61.19.73.73,0,0,0,.32-.5,17.3,17.3,0,0,0,.53-2.15.79.79,0,0,0,1.2-.24,6.14,6.14,0,0,0,1.67.64c.21,0,.53,0,.48-.23a.32.32,0,0,0-.19-.19,12,12,0,0,0-1.29-.4,1.43,1.43,0,0,1-1-.89,3.5,3.5,0,0,1,0-.91,2,2,0,0,0-.67-1.63C8.27,41.11,12,38.75,16,38.84a5,5,0,0,1,3.28,1.07,6.24,6.24,0,0,1,1.41,2.21,61.48,61.48,0,0,1,3.09,8.52C24,50.66,24.08,50.44,24.09,50.2Z"/><path class="cls-9" d="M16.88,43.1c-.28-.07-.61-.14-.7-.45a.25.25,0,0,0-.3-.18c-.28.09-.18.41,0,.59a1.35,1.35,0,0,0,.91.52c.2.06.46,0,.44-.26A.26.26,0,0,0,16.88,43.1Z"/><path class="cls-12" d="M32.82,44.5c-.16-.1-.31-.29-.52-.25h-.07a7.77,7.77,0,0,1,0,.83c-.08.56-.21,1.11-.31,1.67h0l0,.05h0a.76.76,0,0,1,0,.11l0,0s0,0,0,.05l0,.08h0a0,0,0,0,0,0,0h0a.08.08,0,0,0,0,0h0v0h0a.1.1,0,0,0,0,.07l0,0,0,0,.05,0h0l0,0,.06,0,.12-.1.07,0,.06,0h0l0,0h0l0,0h0l0,0,.08-.06.06-.05a1.56,1.56,0,0,0,.5-.42c.1-.12.25-.22.29-.38a4.15,4.15,0,0,0,0-.86A1.07,1.07,0,0,0,32.82,44.5Z"/><polygon class="cls-12" points="34.77 52.83 34.77 52.83 34.77 52.83 34.77 52.83"/><path class="cls-12" d="M24.65,64.58a8.31,8.31,0,0,0,3.5-.41,12.5,12.5,0,0,0,3.15-1.61,1,1,0,0,0,.25-.21.52.52,0,0,0,.06-.13.21.21,0,0,1,.06-.25s0,0,0-.07a2.79,2.79,0,0,0-.24-1.33,11.16,11.16,0,0,1-4.93,1.72.82.82,0,0,1-.27,0,22.43,22.43,0,0,1-1.53,2.06l-.23.24A.49.49,0,0,1,24.65,64.58Z"/><path class="cls-12" d="M31.69,60a2.79,2.79,0,0,1,.46,1.24,4.68,4.68,0,0,1,0,.64l.11,0a3.27,3.27,0,0,0,2.32-.73.56.56,0,0,0,.22-.21.41.41,0,0,0,0-.27,2.27,2.27,0,0,0-.42-1,6.67,6.67,0,0,0-1.12-1.46c-1.19-1.09-3-1.27-4.2-2.35a5.25,5.25,0,0,1-.86-1.07c-.16-.26-.31-.52-.45-.8,0-.11-.13-.22,0-.34a.27.27,0,0,1,.28-.1.67.67,0,0,1,.3.36,4.94,4.94,0,0,0,1.53,1.91,13.41,13.41,0,0,0,2.15,1A6.31,6.31,0,0,1,35.4,60.7l3-2.2a2.91,2.91,0,0,1,1.68-.74,2.43,2.43,0,0,1,1.3.53l.24.18a2,2,0,0,0-.77-1.08c-.51-.35-1.16-.45-1.69-.77-1.16-.71-1.49-2.31-2.58-3.13-1.69-1.28-4.4-.15-6.11-1.42a1,1,0,0,1-.47-1,8.16,8.16,0,0,0,5.44,1.29,2,2,0,0,0-1.53-.81,8.59,8.59,0,0,1-1.76-.26,1.43,1.43,0,0,1-1.06-1.28,5.12,5.12,0,0,0,2.35,1.08,3.06,3.06,0,0,1,.73-1.86c.35-.59.58-1.4.12-1.9a1.24,1.24,0,0,0-1.37-.2,4.37,4.37,0,0,0-1.2.85,16.78,16.78,0,0,1-15.49,3.45,2.23,2.23,0,0,0,1.3,2.69c1,.38,2.21-.09,3.3.12.25,0,.56.24.47.48l-3.5,0a.68.68,0,0,0-.35.06.64.64,0,0,0-.21.34,2.42,2.42,0,0,0,1.16,2.71c.13.07.29.16.3.3s-.45.24-.7.08c0,1.41.08,2.82.16,4.22a3.19,3.19,0,0,0,.26,1.26,1.65,1.65,0,0,0,1.84.81.7.7,0,0,0,.46-.3.84.84,0,0,0,.07-.47c0-1.6-.05-3.21-.07-4.81.33-.06.47.41.48.75l.09,3.79a2,2,0,0,0,.1.69,1.34,1.34,0,0,0,1.43.7c1.18-.16,1.93-1.31,2.57-2.32a8.93,8.93,0,0,1,4-3.83,8,8,0,0,1-3.56-4.78.41.41,0,0,1,0-.29.29.29,0,0,1,.43,0,.88.88,0,0,1,.17.45c.41,2.11,2.31,3.55,4.06,4.79a1.79,1.79,0,0,1,.25.22A3.66,3.66,0,0,1,31.69,60ZM40,57.75h0ZM32.28,47.63Zm-4,11.55Zm-.05,0Zm-.11.09Z"/><path class="cls-12" d="M30.73,59.69l0,0a.68.68,0,0,0-.12-.12,2.66,2.66,0,0,0-.53-.21.72.72,0,0,1-.28-.13h0a1.83,1.83,0,0,0-.33,0,2.75,2.75,0,0,0-1.22.66,10.23,10.23,0,0,0-1.59,1.82,10.46,10.46,0,0,0,4.54-1.61A1.19,1.19,0,0,0,30.73,59.69Z"/><path class="cls-12" d="M18.15,63.27h0v0h0Z"/><path class="cls-13" d="M41.41,58.29a2.43,2.43,0,0,0-1.3-.53,2.91,2.91,0,0,0-1.68.74l-3,2.2A6.31,6.31,0,0,0,32,56.87a13.41,13.41,0,0,1-2.15-1A4.94,4.94,0,0,1,28.36,54a.67.67,0,0,0-.3-.36.27.27,0,0,0-.28.1c-.08.12,0,.23,0,.34.14.28.29.54.45.8A5.25,5.25,0,0,0,29.14,56c1.2,1.08,3,1.26,4.2,2.35a6.67,6.67,0,0,1,1.12,1.46,2.27,2.27,0,0,1,.42,1,.41.41,0,0,1,0,.27.56.56,0,0,1-.22.21,3.27,3.27,0,0,1-2.32.73l-.11,0V62a2.71,2.71,0,0,1,0,.29.84.84,0,0,1,0,.17A3.37,3.37,0,0,0,34,62.15,9.49,9.49,0,0,0,35.87,61l2-1.52a9.9,9.9,0,0,1,1.71-1.09,1.18,1.18,0,0,1,.73-.15,3,3,0,0,1,.66.34.57.57,0,0,0,.65,0,.07.07,0,0,0,0-.05Z"/><path class="cls-3" d="M32.19,61.91a4.68,4.68,0,0,0,0-.64A2.79,2.79,0,0,0,31.69,60a3.66,3.66,0,0,0-1-.92.57.57,0,0,1,.11.16.34.34,0,0,1-.11.42,1.19,1.19,0,0,1,.43.46,10.46,10.46,0,0,1-4.54,1.61c-.13.17-.26.34-.38.52a.82.82,0,0,0,.27,0,11.16,11.16,0,0,0,4.93-1.72,2.79,2.79,0,0,1,.24,1.33s0,0,0,.07a1,1,0,0,1-.06.25.52.52,0,0,1-.06.13,1,1,0,0,1-.25.21,12.5,12.5,0,0,1-3.15,1.61,8.31,8.31,0,0,1-3.5.41.49.49,0,0,0-.17,0l-.43.37a7.73,7.73,0,0,0,3.79-.16,13,13,0,0,0,3.49-1.65,4,4,0,0,0,.58-.43.89.89,0,0,0,.21-.26,0,0,0,0,0,0,0,.84.84,0,0,0,0-.17,2.71,2.71,0,0,0,0-.29Z"/><polygon class="cls-13" points="30.25 47.52 30.25 47.52 30.25 47.52 30.25 47.52"/><polygon class="cls-13" points="30.34 47.41 30.34 47.4 30.34 47.41 30.34 47.41"/><polygon class="cls-13" points="30.26 47.51 30.26 47.51 30.26 47.51 30.26 47.51"/><polygon class="cls-13" points="30.21 47.56 30.22 47.56 30.21 47.56 30.21 47.56"/><polygon class="cls-13" points="40.02 57.75 40.01 57.75 40.01 57.75 40.02 57.75"/><polygon class="cls-13" points="31.91 42.92 31.91 42.92 31.91 42.93 31.91 42.92"/><polygon class="cls-13" points="31.5 42.32 31.49 42.31 31.5 42.32 31.5 42.32"/><polygon class="cls-12" points="34.77 52.83 34.77 52.83 34.77 52.83 34.77 52.83"/><path class="cls-12" d="M32.82,44.5c-.16-.1-.31-.29-.52-.25h-.07a7.77,7.77,0,0,1,0,.83c-.08.56-.21,1.11-.31,1.67h0l0,.05h0a.76.76,0,0,1,0,.11l0,0s0,0,0,.05l0,.08h0a0,0,0,0,0,0,0h0a.08.08,0,0,0,0,0h0v0h0a.1.1,0,0,0,0,.07l0,0,0,0,.05,0h0l0,0,.06,0,.12-.1.07,0,.06,0h0l0,0h0l0,0h0l0,0,.08-.06.06-.05a1.56,1.56,0,0,0,.5-.42c.1-.12.25-.22.29-.38a4.15,4.15,0,0,0,0-.86A1.07,1.07,0,0,0,32.82,44.5Z"/><path class="cls-12" d="M18.15,63.27h0v0h0Z"/><polygon class="cls-3" points="35.98 61.66 35.99 61.66 35.98 61.66 35.98 61.66"/><polygon class="cls-3" points="35.88 61.64 35.89 61.64 35.88 61.64 35.88 61.64"/><path class="cls-13" d="M41.86,58.85a5.35,5.35,0,0,1,.11.55A1.36,1.36,0,0,0,42.09,58a1.63,1.63,0,0,0-.33-.53,10.49,10.49,0,0,0-2.11-1.3,10.93,10.93,0,0,1-2.58-2.91A5,5,0,0,0,34,51.06c0-.89.85-1.57,1-2.44a1.86,1.86,0,0,0-1.41-2.13,2,2,0,0,0-.25-1.93c-.42-.55-1.08-.88-1.46-1.46a3.88,3.88,0,0,0-.43-.77c-.21-.22-.5-.65-.83-.36a.7.7,0,0,0-.16.42c-.13,1.27.33,2.58,0,3.79a4.81,4.81,0,0,1-2.35,2.48,11.34,11.34,0,0,1-8.43,1.51c-1.45-.37-2.9-1.12-4.36-.83a3.79,3.79,0,0,0,.93.38,23,23,0,0,0,5.11,1.15,11.54,11.54,0,0,0,8.28-2.78,4.07,4.07,0,0,0,1.31-1.74c.41-1.2-.11-2.53.1-3.79.49.23.63.86.67,1.41a6,6,0,0,1-.4,2.89,6.11,6.11,0,0,1-2.16,2.44,14.88,14.88,0,0,1-11,2.14,5.75,5.75,0,0,1-1.81-.55,2.23,2.23,0,0,1-1.13-1.45,1.61,1.61,0,0,0-.14-.5c-.1-.15-.33-.23-.45-.11a.38.38,0,0,0-.07.29c.06.75.77,1.26,1,2a10,10,0,0,1,.19,1.73A2.5,2.5,0,0,0,17,54.54a2.43,2.43,0,0,0-.19,2.17c.22.72.6,1.39.76,2.13a22.49,22.49,0,0,1,0,3.58c.08,1.2.78,2.54,2,2.64.69,0,1.39-.32,2-.1.27.09.49.28.76.38A1.79,1.79,0,0,0,24.05,65H24l.26-.24a.39.39,0,0,1,.15-.11h.07l.23-.24a22.43,22.43,0,0,0,1.53-2.06.16.16,0,0,1-.1,0A.25.25,0,0,1,26,62c.05-.12.22-.15.36-.16l.27,0a10.23,10.23,0,0,1,1.59-1.82,2.75,2.75,0,0,1,1.22-.66,1.83,1.83,0,0,1,.33,0,.24.24,0,0,1-.07-.27l-.08-.09c.11.07.24,0,.37,0a.87.87,0,0,1,.68.21l.07,0a1.79,1.79,0,0,0-.25-.22c-1.75-1.24-3.65-2.68-4.06-4.79a.88.88,0,0,0-.17-.45.29.29,0,0,0-.43,0,.41.41,0,0,0,0,.29,8,8,0,0,0,3.56,4.78,8.93,8.93,0,0,0-4,3.83c-.64,1-1.39,2.16-2.57,2.32a1.34,1.34,0,0,1-1.43-.7,2,2,0,0,1-.1-.69l-.09-3.79c0-.34-.15-.81-.48-.75,0,1.6.05,3.21.07,4.81a.84.84,0,0,1-.07.47.7.7,0,0,1-.46.3,1.65,1.65,0,0,1-1.84-.81,3.19,3.19,0,0,1-.26-1.26c-.08-1.4-.14-2.81-.16-4.22.25.16.72.21.7-.08s-.17-.23-.3-.3a2.42,2.42,0,0,1-1.16-2.71.64.64,0,0,1,.21-.34.68.68,0,0,1,.35-.06l3.5,0c.09-.24-.22-.44-.47-.48-1.09-.21-2.26.26-3.3-.12a2.23,2.23,0,0,1-1.3-2.69A16.78,16.78,0,0,0,31.75,48a4.37,4.37,0,0,1,1.2-.85,1.24,1.24,0,0,1,1.37.2c.46.5.23,1.31-.12,1.9a3.06,3.06,0,0,0-.73,1.86,5.12,5.12,0,0,1-2.35-1.08,1.43,1.43,0,0,0,1.06,1.28,8.59,8.59,0,0,0,1.76.26,2,2,0,0,1,1.53.81A8.16,8.16,0,0,1,30,51.12a1,1,0,0,0,.47,1c1.71,1.27,4.42.14,6.11,1.42,1.09.82,1.42,2.42,2.58,3.13.53.32,1.18.42,1.69.77a2,2,0,0,1,.77,1.08l0,0,0,0h0A.49.49,0,0,1,41.86,58.85ZM18.15,63.27h0ZM33.28,46c0,.16-.19.26-.29.38a1.56,1.56,0,0,1-.5.42l-.06.05-.08.06,0,0h0l0,0h0l0,0h0l-.06,0-.07,0-.12.1-.06,0,0,0h0l-.05,0,0,0,0,0a.1.1,0,0,1,0-.07h0v0h0a.08.08,0,0,1,0,0h0a0,0,0,0,1,0,0h0l0-.08s0,0,0-.05l0,0a.76.76,0,0,0,0-.11h0l0-.05h0c.1-.56.23-1.11.31-1.67a7.77,7.77,0,0,0,0-.83h.07c.21,0,.36.15.52.25a1.07,1.07,0,0,1,.43.67A4.15,4.15,0,0,1,33.28,46Zm1.49,6.79Z"/><path class="cls-13" d="M30.69,59.72l0,0-.16-.09A.68.68,0,0,1,30.69,59.72Z"/><path class="cls-13" d="M24.48,64.58h-.07a.39.39,0,0,0-.15.11l-.26.24h.05Z"/><path class="cls-13" d="M26.35,61.79c-.14,0-.31,0-.36.16a.25.25,0,0,0,.15.31.16.16,0,0,0,.1,0c.12-.18.25-.35.38-.52Z"/><path class="cls-13" d="M30.57,59.6l.16.09a.34.34,0,0,0,.11-.42.57.57,0,0,0-.11-.16l-.07,0a.87.87,0,0,0-.68-.21c-.13,0-.26.12-.37,0l.08.09a.24.24,0,0,0,.07.27A1.19,1.19,0,0,1,30.57,59.6Z"/><path class="cls-13" d="M41.65,58.47a.07.07,0,0,1,0,.05l0,0Z"/><polygon class="cls-13" points="28.32 59.18 28.32 59.18 28.32 59.18 28.32 59.18 28.32 59.18"/><polygon class="cls-13" points="28.16 59.32 28.16 59.32 28.16 59.32 28.16 59.32"/><polygon class="cls-13" points="28.27 59.23 28.27 59.23 28.27 59.23 28.27 59.23"/><polygon class="cls-13" points="32.28 47.63 32.28 47.63 32.28 47.63 32.28 47.63"/></g></g></svg>