<svg xmlns="http://www.w3.org/2000/svg" viewBox="0 0 48.38 62.74"><defs><style>.cls-1{fill:#e7f6f9;}.cls-2{fill:#6474b7;}.cls-3{fill:#b1dde3;}.cls-4{fill:#6fadb2;}.cls-5{fill:#e9a061;}.cls-6{fill:#798c67;}.cls-7{fill:#3c58a4;}.cls-8{fill:#b27e4c;}.cls-9{fill:#255827;}.cls-10{fill:#803124;}.cls-11{fill:#92443f;}.cls-12{fill:none;}</style></defs><g id="Layer_2" data-name="Layer 2"><g id="Card"><path class="cls-1" d="M2.4,25.57A10.57,10.57,0,0,0,.83,27.94a10.17,10.17,0,0,0-.47,4.21,11.72,11.72,0,0,0,2.42,5.34,6.56,6.56,0,0,1,1.9,5.14A53.67,53.67,0,0,1,3.43,50.3c-.54,1.5-1.83,7.58-1.83,7.58a10.37,10.37,0,0,0,7,1.71c3.85-.55,5.54-1.43,5.54-2.67S12.76,48.59,13,45.84a30,30,0,0,0,.2-4s4.93-.7,6-1.46S24,38.1,25,35.4s1.08-10.3-1.49-12A17.6,17.6,0,0,0,19,21.64s-.39,1-1.85.69S16,20.93,16,20.93a22.12,22.12,0,0,0-3.92-.45c-2.68,0-5.83,0-6.36.51S2.4,25.57,2.4,25.57Z"/><path class="cls-2" d="M16,21.27a34.92,34.92,0,0,1-.62,4.41c-.41,1.75-.42,2.85-.68,3.39s-.82.52-.51.9a3.61,3.61,0,0,0,2.53.88c.78-.16,1.45-.45,1.11-.75s-.46-.2-.46-.73S19,21.57,19,21.57a2.25,2.25,0,0,1-1.87.76A1.32,1.32,0,0,1,16,21.27Z"/><path class="cls-3" d="M3.45,22.78c-1,.38-1.05.75-1.05,1.31S2.92,27,3.45,27.17a1.27,1.27,0,0,0,.9,0L4.8,25.8H7.67s-.36.94.88.73,1.76-.14,1.93-.63a2.49,2.49,0,0,0,.16-.89s.73-.64.44-1.21.19-.64-.6-.85a22.62,22.62,0,0,0-3.15-.31,16,16,0,0,1,.29-1.82c.18-.65.2-2.05-.89-1.63s-1.47.54-1.35,1.24.33,2.33.33,2.33l-1.13,1s-.31-1-.72-1Z"/><path class="cls-4" d="M4.22,23a.33.33,0,0,0,.37-.25L5.18,22c.17-.21.59-.58.32-.85a.28.28,0,0,0-.4,0,.92.92,0,0,0-.13.21c-.3.34-.57.72-.84,1.09A.32.32,0,0,0,4.22,23Z"/><path class="cls-4" d="M13,21.89c-1-.18-5.09-.65-4.93.92a.28.28,0,0,0,.37.15.27.27,0,0,0,.17-.23A.59.59,0,0,1,9,22.44c1.84-.46,3.76,0,5.59.29.19.06.44.07.5-.17s-.22-.37-.45-.39C14.11,22.09,13.54,22,13,21.89Z"/><path class="cls-4" d="M8.09,20.67a29.78,29.78,0,0,1,7.53.59.28.28,0,0,0,.34-.2.27.27,0,0,0-.2-.34c-.74-.19-1.5-.29-2.25-.41a36.94,36.94,0,0,0-5.46-.21C7.5,20.07,7.59,20.84,8.09,20.67Z"/><polygon class="cls-4" points="22.04 30.19 22.03 30.19 22.03 30.19 22.04 30.19"/><path class="cls-4" d="M4.84,29.7a3.12,3.12,0,0,0,1.3.89,3.69,3.69,0,0,0,.64.29,28.41,28.41,0,0,0,2.9.85c.83.12,1.66.29,2.51.33s1.6,0,2.42.09h.06c.88,0,1.77,0,2.65-.13a8.21,8.21,0,0,0,2.44-.49,9.51,9.51,0,0,0,1.74-.72l.05-.06h0l.07-.08h0l0,0,0,0,.12-.14.05-.07.06-.07.11-.12h0v0h0l.08-.09.07-.08.05-.06,0,0h0v0h0l0,0h0l0,0,0,0,0,0,.07-.11h0v0h0a3.1,3.1,0,0,0,.38-1.71c0-.25-.15-.54-.43-.41s-.14.3-.13.47a2.39,2.39,0,0,1-.09.84,3.36,3.36,0,0,1-.65,1.15l-.07.09a2.33,2.33,0,0,1-.62.46,21,21,0,0,1-2.75.89,34.77,34.77,0,0,1-3.68.21A21.25,21.25,0,0,1,8,30.68a5.9,5.9,0,0,0-1.1-.36,9.1,9.1,0,0,1-1.38-.73,1,1,0,0,1-.23-1.16A4.8,4.8,0,0,1,5.93,27c.18-.27.36-.57.54-.87a.3.3,0,0,0,0-.41c-.36-.28-.56.26-.71.51s-.48.74-.68,1.12A2.32,2.32,0,0,0,4.84,29.7Zm16.09.8Z"/><path class="cls-4" d="M19.44,23a.28.28,0,1,0-.05.56,4.41,4.41,0,0,1,1.7.89.29.29,0,0,0,.4,0c.27-.33-.24-.59-.48-.75A4.62,4.62,0,0,0,19.44,23Z"/><polygon class="cls-4" points="24.96 30.68 24.96 30.68 24.96 30.68 24.96 30.68"/><polygon class="cls-4" points="24.96 30.68 24.96 30.69 24.96 30.69 24.96 30.68"/><path class="cls-4" d="M19.41,21.88a9,9,0,0,1,4.12,2,.28.28,0,0,0,.37-.42A6.38,6.38,0,0,0,21.48,22c-.54-.18-1.07-.38-1.62-.56-.27-.08-.77-.26-.83.16A.29.29,0,0,0,19.41,21.88Z"/><path class="cls-4" d="M25.9,32.16h0Z"/><path class="cls-4" d="M25.92,31.8a30,30,0,0,0-.26-4.11,1.14,1.14,0,0,0-.2-.61.37.37,0,0,0-.56,0A4,4,0,0,1,24,30.94a8.07,8.07,0,0,1-3.49,2.17c-6.17,2.21-13.23.7-18.81-2.76-.44-.28-.93-.64-1-1.16A1.69,1.69,0,0,1,1,28.3a16.56,16.56,0,0,1,1.54-2.51c.13-.18.22-.5,0-.56a.34.34,0,0,0-.3.13A7.78,7.78,0,0,0,0,30.77a10.31,10.31,0,0,0,1.71,5.68,28.44,28.44,0,0,1,1.91,2.94c1.38,2.83.65,6.19-.12,9.25L1.31,57.45a.85.85,0,0,0,0,.61.82.82,0,0,0,.44.33c3.43,1.5,7.48,2,10.92.53A3.1,3.1,0,0,0,14,58c.63-.88.4-2.08.18-3.14a42.13,42.13,0,0,1-.64-12.92,17.72,17.72,0,0,0,6.15-1.35,10.91,10.91,0,0,0,4.84-4A9.15,9.15,0,0,0,25.92,31.8ZM25,30.59ZM16.39,41c-.26.06-.53.11-.8.15a9.22,9.22,0,0,1-3,.08.57.57,0,0,0-.41,0c-.21.14-.1.49.12.6a1.09,1.09,0,0,0,.71,0c-.65,4.61-.05,9.29.74,13.87a2.51,2.51,0,0,1-.23,2,2.15,2.15,0,0,1-.72.51c-3.36,1.68-7.45,1.12-10.89-.38C2.55,53.82,4,50,4.7,45.94c.4-2.37.49-4.93-.67-7-.45-.82-1.08-1.54-1.61-2.32A11.06,11.06,0,0,1,.56,30.12a22.75,22.75,0,0,0,17.1,4.3A14.48,14.48,0,0,0,22.21,33c1.17-.61,3.08-1.78,3.14-3.28a9.25,9.25,0,0,1-2,7.47A12.17,12.17,0,0,1,16.39,41Z"/><polygon class="cls-4" points="25.76 28.39 25.76 28.39 25.76 28.39 25.76 28.39"/><path class="cls-5" d="M15.85,22.33a.54.54,0,0,0-.77.23,1.71,1.71,0,0,0-.2,1s-.84.81-.79,1.08a6.47,6.47,0,0,0,.35.86s-.56.52-.35.91.46.33.51.54-.44,1,.11,1.3a11.15,11.15,0,0,0,3.92.18,6.77,6.77,0,0,0,1.78-.75,5.63,5.63,0,0,0,.51-1.76,3.77,3.77,0,0,0-.14-1.09s-.93.17-1.13-.11.15-.48-.26-1.09a2.56,2.56,0,0,0-.85-.82L17.61,24l-1.51-.29Z"/><path class="cls-5" d="M21.08,16.91a1.57,1.57,0,0,1,.79.74.94.94,0,0,1,0,.89s.95.8,1.37.41.4-.63.4-.63.5.53.8.3a.79.79,0,0,0,.33-.48.35.35,0,0,0,.48.16.89.89,0,0,0,.42-.58s.69.46.93,0,.44-1.72-.15-2.1A3.48,3.48,0,0,0,23,15.31,3.55,3.55,0,0,0,21.08,16.91Z"/><path class="cls-5" d="M28.71,16.61s.08,1,.43,1.14.66.08.71.33,0,1.79.94,1.83a5,5,0,0,0,2.26-.41c.35-.21.91-.6.91-.6V20a14.84,14.84,0,0,0,2.63-.78,13.71,13.71,0,0,0,2.94-1.61c.48-.56,1.53-1.71,1.53-1.71a1.88,1.88,0,0,1-.15-.85,2.52,2.52,0,0,0-.19-1l-.64-1.61a4.11,4.11,0,0,0,1-2c0-.89-1-1.75-1.68-1.6s-1.55,1.48-1.55,1.48-.31-.22-.12-.82a2.33,2.33,0,0,0-.28-2,6.16,6.16,0,0,1-1.18-2.39,12.6,12.6,0,0,0-.31-1.46,15.7,15.7,0,0,1-3.6,2.06c-1.25.32-4.06.77-4.06.77a17.77,17.77,0,0,0-.37,1.77c-.09.67.35,1.43.24,2s-.75,2.25-.48,3.09.76,2.05.76,2.05l1.5-.29a.65.65,0,0,1,.25.76c-.14.56-.48.58-.48.58Z"/><path class="cls-6" d="M41.06,15.85a9.49,9.49,0,0,1-2.35,2.29,18.11,18.11,0,0,1-3.83,1.61,7.08,7.08,0,0,0-2.54.91,5.38,5.38,0,0,1-1.28.49,13.83,13.83,0,0,1-1.53-.4,4.58,4.58,0,0,0-2.12-.07l-.63-1.61-.44-1.19a.42.42,0,0,1-.44,0l-.23-.14s0,.6-.42.58-.48-.16-.48-.16,0,.48-.33.48a1.73,1.73,0,0,1-.8-.3s0,.49-.2.56l-.2.07a9.79,9.79,0,0,0,.55,2.2c.3.5,2,2.65,2,2.65s0-.14-1.25,0a19.22,19.22,0,0,0-2.44.36,7.21,7.21,0,0,0-1.29.48,2.49,2.49,0,0,1,.07,1.4,15,15,0,0,0-.36,1.61,24.92,24.92,0,0,0,3.33-.24c1.54-.24,2.59-.38,3.65-.53s2.46-.07,3.32-.3S33.05,26,33.05,26s-.15,1-.39,2.37A17.68,17.68,0,0,0,33.52,35c.56,1,1.8,3.64,1.8,3.64s-.27,1.56-.43,2.44a11.64,11.64,0,0,0-.38,3.26,14.2,14.2,0,0,1,.37,2.57c0,.67-.29,1.95-.34,2.74s.11,3.53,2,3.31,1.85-3.06,1.85-3.06.32,2.53.44,2.94a30.11,30.11,0,0,1,.64,3.29,9.84,9.84,0,0,1-.11,1.9s1.64,1.2,2.92.81,2.55-.92,2.39-4-1.16-4.71-.73-6.32A35.83,35.83,0,0,0,45,44.68a21.89,21.89,0,0,1,.7-3c.09-.34,1.18-2.8,1.18-2.8a10.57,10.57,0,0,0,1.25-3.1A4.36,4.36,0,0,0,47.53,33,22,22,0,0,0,45.72,31c-.63-.6-.87-2.27-1.4-3.83a49.31,49.31,0,0,1-2-6.41A44.23,44.23,0,0,0,41.06,15.85Z"/><path class="cls-4" d="M11,24.83c.06-.14.23-.42.25-.49a1.85,1.85,0,0,0,.09-.66.84.84,0,0,0-.16-.56,1.3,1.3,0,0,0-.23-.15,1.13,1.13,0,0,0-.27-.22,1.3,1.3,0,0,0-.55-.12l-2.62-.2A6.74,6.74,0,0,1,8,20.88a1.67,1.67,0,0,0-.14-1.54,1.43,1.43,0,0,0-1.64-.29,1.62,1.62,0,0,0-1,.88,2.27,2.27,0,0,0-.12.86,8.4,8.4,0,0,0,.25,1.8L4.82,23a.17.17,0,0,1-.13,0A.19.19,0,0,1,4.58,23a1.16,1.16,0,0,0-1.09-.48,1.51,1.51,0,0,0-1,.65,1.79,1.79,0,0,0-.31,1.29,5.92,5.92,0,0,0,.27.91,6.91,6.91,0,0,0,.49,1.54,1.15,1.15,0,0,0,1.34.61,1.06,1.06,0,0,0,.53-.59A3,3,0,0,0,5,26.14c.88,0,1.75,0,2.62-.1a1.35,1.35,0,0,0,.66.71,1.41,1.41,0,0,0,.46,0,3.57,3.57,0,0,0,1.65-.41A1.32,1.32,0,0,0,11,24.91.27.27,0,0,1,11,24.83ZM7.48,22.42s0,0,0,0h0Zm-.21-2.85a.85.85,0,0,1,.21,1c-.2.37-.64.39-1,.39a.89.89,0,0,1-.42-.15c-.07-.05-.21-.06-.23-.15a.33.33,0,0,0-.11-.34A1.2,1.2,0,0,1,7.27,19.57Zm-1.4,2.75a3.63,3.63,0,0,1-.08-.6,2.67,2.67,0,0,1-.08-.48,1.86,1.86,0,0,0,1.48.18,4.41,4.41,0,0,0-.25,1,4.32,4.32,0,0,0-1,0Zm-.38.87A1.34,1.34,0,0,1,5.78,23,2.14,2.14,0,0,1,6.69,23c1.21.06,2.42.16,3.63.25.07,0,.15,0,.16.09a.12.12,0,0,1,0,.1,1.92,1.92,0,0,1-.9.79,3.7,3.7,0,0,1-1.18.28,13.49,13.49,0,0,1-2,0l-1.23-.06c0-.25-.14-.68,0-.87A1,1,0,0,1,5.49,23.19Zm-2.66.48c.28-.6,1-.9,1.39-.2a1.09,1.09,0,0,1-1,1.08C2.6,24.5,2.57,24.16,2.83,23.67ZM4.11,27c-.59.12-.8-.37-.89-.85s-.21-.7-.31-1.05H3a1.54,1.54,0,0,0,1.62-.83v.19a3.16,3.16,0,0,1,0,.81A5.23,5.23,0,0,1,4.11,27Zm.94-1.4A5,5,0,0,0,5.12,25h.19a17.45,17.45,0,0,1,1.77.06A7.06,7.06,0,0,0,9,24.94a2.42,2.42,0,0,0,1.49-.68,2.47,2.47,0,0,0,.28-.28,1.23,1.23,0,0,1-.14.47,4.23,4.23,0,0,1-1,.77,8.5,8.5,0,0,1-2.15.26C6.65,25.55,5.85,25.57,5.05,25.57ZM9.8,26a6,6,0,0,1-1.4.21L8.19,26l.8,0a2.47,2.47,0,0,0,1.41-.57A.79.79,0,0,1,9.8,26Z"/><path class="cls-4" d="M9.87,29.47c-.81-.39-1.58.41-2.16.89a.28.28,0,1,0,.4.39,6.75,6.75,0,0,1,.59-.47,1.54,1.54,0,0,1,.76-.36.71.71,0,0,1,.25.11,1.89,1.89,0,0,0-.83.75.28.28,0,0,0,0,.4A.32.32,0,0,0,9.41,31a2.12,2.12,0,0,1,.39-.34,3.27,3.27,0,0,1-.29.39.28.28,0,0,0,.2.44.28.28,0,0,0,.28-.14,2.08,2.08,0,0,0,.44-.69A1,1,0,0,0,9.87,29.47Z"/><path d="M22,30.21Z"/><path d="M22.42,30Z"/><path d="M22.43,30h0Z"/><polygon points="22.27 29.91 22.27 29.91 22.27 29.91 22.27 29.91"/><polygon points="22.27 29.91 22.27 29.91 22.27 29.91 22.27 29.91"/><path d="M25.18,31h0Z"/><polygon points="25.06 30.86 25.06 30.86 25.06 30.86 25.06 30.86 25.06 30.86"/><polygon points="25.06 30.85 25.06 30.85 25.06 30.85 25.06 30.85"/><polygon points="25.06 30.85 25.06 30.85 25.06 30.85 25.06 30.85"/><polygon points="25.13 30.73 25.13 30.73 25.13 30.73 25.13 30.73"/><polygon points="25.13 30.73 25.13 30.73 25.13 30.73 25.13 30.73"/><polygon points="25.02 30.59 25.02 30.59 25.02 30.59 25.02 30.59 25.02 30.59"/><polygon points="25.02 30.58 25.02 30.58 25.02 30.58 25.02 30.59 25.02 30.58"/><polygon points="25.02 30.58 25.02 30.58 25.02 30.58 25.02 30.58"/><path d="M25,30.58Z"/><path class="cls-7" d="M16.94,31c-.69-.07-3.07-.06-3.09-1,0-.45.4-.67.54-1.05a3.86,3.86,0,0,1,.12-.59.28.28,0,0,1,.38-.12c.25.14.1.43.09.64a2.17,2.17,0,0,1-.56,1c0,.31,1.44.4,1.71.44s1.38.23,1.38-.17c-.13-.17-.3-.29-.36-.5s0-.22,0-.33-.06-.41,0-.6a.3.3,0,0,1,.37-.16.28.28,0,0,1,.17.34c0,.2,0,.36,0,.55s.24.26.32.42C18.37,30.61,17.56,31.06,16.94,31Z"/><path d="M24,37.38Z"/><polygon points="23.95 37.38 23.95 37.38 23.95 37.38 23.95 37.38"/><path d="M24,37.38Z"/><polygon points="23.95 37.38 23.95 37.38 23.95 37.38 23.95 37.38"/><path d="M24.22,37Z"/><polygon points="24.93 36.02 24.94 36.02 24.94 36.02 24.93 36.02 24.93 36.02"/><polygon points="24.94 36.02 24.94 36.02 24.94 36.02 24.94 36.02"/><polygon points="24.94 36.02 24.94 36.02 24.94 36.02 24.94 36.02"/><path d="M24.94,36Z"/><polygon points="24.94 36.02 24.94 36.02 24.94 36.02 24.94 36.02"/><path d="M25,35.9h0Z"/><path d="M25.2,35.63Z"/><polygon points="25.2 35.63 25.2 35.63 25.2 35.63 25.2 35.63"/><polygon points="25.2 35.62 25.2 35.62 25.2 35.62 25.2 35.62"/><polygon points="25.2 35.62 25.2 35.62 25.2 35.62 25.2 35.62"/><polygon points="25.2 35.62 25.2 35.62 25.2 35.62 25.2 35.62 25.2 35.62 25.2 35.62"/><path d="M25.61,34.8h0Z"/><path d="M25.82,33.93h0Z"/><polygon points="26.02 33.31 26.02 33.31 26.02 33.32 26.02 33.31"/><polygon points="26.61 31.3 26.61 31.3 26.61 31.3 26.61 31.3"/><polygon points="26.62 31.28 26.62 31.28 26.62 31.28 26.62 31.28"/><path d="M26.77,31.06Z"/><path d="M27.2,30.71h0v0Z"/><path class="cls-8" d="M20.44,24.49a1,1,0,0,1-.52-.12.29.29,0,0,0-.52-.24c-.28.44.27.87.69.88h.47s0-.12,0-.3S20.44,24.49,20.44,24.49Z"/><path d="M27.35,12.83Z"/><polygon points="27.48 12.15 27.48 12.15 27.48 12.15 27.48 12.15"/><polygon points="27.55 11.83 27.55 11.83 27.55 11.83 27.55 11.83"/><path d="M27.57,11.76h0Z"/><path d="M27.79,13l0,0h0v0Z"/><path d="M33.87,10.71Z"/><path d="M29.1,29.81h0Z"/><path d="M34.21,33.21h0v0Z"/><polygon points="33.7 32.65 33.7 32.65 33.7 32.66 33.7 32.65"/><polygon points="33.69 31.99 33.69 31.99 33.69 32 33.69 31.99"/><polygon points="33.4 28.8 33.4 28.81 33.4 28.81 33.4 28.8"/><path d="M48,34.94c-.43-.07-.2-.64-.22-.94a1.21,1.21,0,0,1,0-.19v-.36h0a.14.14,0,0,0,0-.07v-.21l.06.12,0,0,0,0a.43.43,0,0,1,0,.07h0a1.59,1.59,0,0,1,.12.27h0s0,.08,0,.12a.78.78,0,0,1,0,.14h0c0,.06,0,.12.05.18h0c0,.06,0,.12,0,.19a.76.76,0,0,0,0,.15h0v0s0,.05,0,.07l0,.15v.06a.28.28,0,0,1-.25.15Z"/><path d="M48.21,34.13Z"/><polygon points="48.22 34.07 48.22 34.08 48.22 34.08 48.22 34.07"/><path d="M47.67,31.76v0l0,0Z"/><polygon points="48.2 33.52 48.2 33.52 48.2 33.52 48.2 33.52"/><path d="M47.79,33Z"/><path d="M44.34,26.81h0Z"/><polygon points="43.84 26.34 43.84 26.34 43.84 26.34 43.84 26.34"/><polygon points="43.84 26.34 43.84 26.33 43.84 26.34 43.84 26.34 43.84 26.34"/><polygon points="43.75 26.17 43.75 26.17 43.75 26.17 43.75 26.18 43.75 26.18 43.75 26.17"/><polygon points="43.94 26.52 43.94 26.52 43.94 26.52 43.94 26.52"/><polygon points="43.94 26.51 43.94 26.51 43.94 26.52 43.94 26.51"/><polygon points="43.74 26.17 43.75 26.17 43.75 26.17 43.74 26.17"/><polygon points="43.4 25.41 43.4 25.41 43.4 25.41 43.4 25.41"/><polygon points="43.4 25.41 43.4 25.41 43.4 25.41 43.4 25.41"/><polygon points="48.32 35.01 48.32 35.01 48.32 35.02 48.32 35.01"/><polygon points="35.1 37.54 35.1 37.53 35.1 37.54 35.1 37.54"/><polygon points="34.81 36.95 34.81 36.95 34.81 36.95 34.81 36.95"/><polygon points="34.88 36.67 34.88 36.66 34.89 36.67 34.88 36.67"/><polygon points="34.01 35.18 34.01 35.18 34.01 35.18 34.01 35.18"/><path class="cls-9" d="M45.15,60.18c-.18-.68-.64-1.24-.82-1.93-.14-.31.09-1-.39-1a.29.29,0,0,0-.26.3,3.84,3.84,0,0,0,.15,1.07,14.78,14.78,0,0,0,.65,1.4,1.45,1.45,0,0,1,.12,1.2,1.55,1.55,0,0,1-.92.57c-.93.07-1.84-.22-2.77-.18-1.19,0-2.33.45-3.51.53A3.92,3.92,0,0,1,35,61.86a2.13,2.13,0,0,1,.19-.75,5.7,5.7,0,0,1,.89-.66c.33-.17.64-.41,1-.59s.78-.36,1.19-.61a3.93,3.93,0,0,0,1.06-.85l-.53-.25a5.36,5.36,0,0,1-1.72,1.07c-.63.35-1.22.73-1.82,1.14a1.74,1.74,0,0,0-.56.52,2.55,2.55,0,0,0-.19.72.67.67,0,0,0,.13.67,3.5,3.5,0,0,0,1.58.47,14.15,14.15,0,0,0,2.74-.33A9.06,9.06,0,0,1,41,62.12c.85,0,1.67.21,2.53.2A1.62,1.62,0,0,0,45.15,60.18Z"/><polygon points="47.78 34.19 47.78 34.2 47.78 34.2 47.78 34.19"/><polygon points="47.78 34.19 47.78 34.19 47.78 34.19 47.78 34.19"/><path d="M47.78,34.19Z"/><path d="M43.74,26.16h0Z"/><path d="M43.4,25.42Z"/><polygon points="43.4 25.41 43.4 25.41 43.4 25.41 43.4 25.41"/><polygon points="43.4 25.41 43.4 25.41 43.4 25.41 43.4 25.41"/><path d="M43.37,25.71Z"/><path d="M24.5,18.1Z"/><path d="M24.45,17.94Z"/><path d="M24.42,17.75Z"/><polygon points="24.5 18.1 24.5 18.1 24.5 18.1 24.5 18.1"/><polygon points="24.42 17.75 24.42 17.75 24.42 17.75 24.42 17.75"/><path d="M23.12,17.51Z"/><path d="M23.23,17.87h0Z"/><path d="M23.12,17.51Z"/><path d="M22.48,18.54h0Z"/><path d="M22.45,18.52Z"/><path d="M24.42,17.75Z"/><path d="M24.28,17.22Z"/><path d="M24.44,17.86h0Z"/><polygon points="24.42 17.75 24.42 17.75 24.42 17.75 24.42 17.75 24.42 17.75"/><polygon points="24.38 17.56 24.38 17.56 24.39 17.56 24.38 17.56"/><polygon points="24.38 17.55 24.38 17.55 24.38 17.56 24.38 17.55"/><polygon points="24.73 27.06 24.73 27.06 24.73 27.07 24.73 27.06"/><path d="M25.41,26.88h0Z"/><path d="M28.36,26.56a.29.29,0,1,1,.15-.55.31.31,0,0,1,.19.08l-.06.09h0l0,0h0l0,.05a.11.11,0,0,0,0,.06.05.05,0,0,0,.05,0h.17a.31.31,0,0,1-.28.17A.32.32,0,0,1,28.36,26.56Z"/><polygon points="28.76 26.22 28.76 26.22 28.76 26.22 28.76 26.22"/><path d="M28.75,26.22h0Z"/><polygon points="28.62 26.2 28.62 26.2 28.62 26.2 28.62 26.2"/><polygon points="28.62 26.2 28.62 26.2 28.62 26.2 28.62 26.2"/><polygon points="28.62 26.2 28.62 26.2 28.62 26.2 28.62 26.2"/><path d="M33.53,26Z"/><path d="M33.56,26Z"/><polygon points="33.57 26.03 33.57 26.02 33.57 26.03 33.57 26.03"/><path d="M33.57,26h0Z"/><polygon points="33.61 26.01 33.61 26.01 33.61 26.01 33.61 26.01"/><polygon points="33.61 26.01 33.61 26.01 33.61 26.01 33.61 26.01"/><polygon points="33.64 26 33.64 26 33.64 26 33.64 26"/><path d="M33.64,26Z"/><path d="M33.64,26Z"/><path d="M33.64,26Z"/><path d="M33.06,26.2a.29.29,0,0,1,.28-.35.28.28,0,0,1,.25.16h-.05s-.08,0-.11.09l0,.09,0,.11h0v0h0v0h0a1,1,0,0,1,0,.1.44.44,0,0,0,0,.1h0l0,.12s0,.07,0,.1,0,.06,0,.09,0,.06,0,.09h0l0,.11h0v0h0a.59.59,0,0,0,0,.13.43.43,0,0,1,0,.05v.06h0a.28.28,0,0,0,0,.09A12.1,12.1,0,0,1,33.06,26.2Z"/><path d="M33.34,26.39Z"/><path d="M33.34,26.37Z"/><path d="M33.53,26Z"/><polygon points="33.56 26.03 33.56 26.03 33.56 26.03 33.56 26.03"/><polygon points="33.57 26.03 33.57 26.02 33.57 26.03 33.57 26.03"/><path d="M33.57,26h0Z"/><path class="cls-7" d="M19.2,21.54a.65.65,0,0,1,0-.19,1.32,1.32,0,0,0-.5-1,.07.07,0,0,1,0-.05.13.13,0,0,1,0-.06v-.34a.28.28,0,0,0,0-.18l-.06-.08,0-.12a.69.69,0,0,0-.6-.48.9.9,0,0,0-.73.33,1.27,1.27,0,0,0-.29.75,1.51,1.51,0,0,0-.88.35.92.92,0,0,0-.33.45,1.35,1.35,0,0,0,0,.29,7.43,7.43,0,0,0-.07.94h.5s.07,0,.06,0a1.75,1.75,0,0,0,1,.4,2.55,2.55,0,0,0,.91.06,8,8,0,0,1,.95-.19,2.06,2.06,0,0,1,.17-.33.52.52,0,0,0,.08-.36C19.24,21.65,19.21,21.6,19.2,21.54ZM18,19.64c.07.09,0,.18-.1.23a.42.42,0,0,1-.25-.12A.33.33,0,0,1,18,19.64Zm-.51.69a.78.78,0,0,0,.6.06,1.94,1.94,0,0,1-.13.54s0,.05,0,.06h-.05a.94.94,0,0,1-.36-.11.19.19,0,0,1-.11-.08.45.45,0,0,1,0-.2A1.48,1.48,0,0,1,17.45,20.33Zm-1.2.89a.39.39,0,0,1,.06-.21.71.71,0,0,1,.44-.27.44.44,0,0,0,.14.42,1.45,1.45,0,0,0,.55.32.87.87,0,0,0,.67,0A.9.9,0,0,0,18.5,21a.77.77,0,0,1,.12.53.58.58,0,0,1-.31.43A.81.81,0,0,1,18,22a2.54,2.54,0,0,1-1.22-.18.91.91,0,0,1-.42-.35A.48.48,0,0,1,16.25,21.22Z"/><path class="cls-8" d="M19.68,27.73a9,9,0,0,1-1.42.46,6.75,6.75,0,0,1-1.74,0c-.48,0-.95-.08-1.42-.15a.23.23,0,0,1-.18-.08.2.2,0,0,1,0-.15c0-.2.07-.41.08-.61a.7.7,0,0,0-.17-.58c-.14-.13-.38-.18-.43-.37a.39.39,0,0,1,.22-.37,2.56,2.56,0,0,0,.4-.22c.11-.11.16-.31,0-.41s-.24-.05-.36-.08a.48.48,0,0,1-.31-.62.86.86,0,0,1,.56-.51c.19-.07.45-.14.49-.35a.27.27,0,0,0-.38-.28.85.85,0,0,1,.59-.76,1.23,1.23,0,0,0,.57,1.2,2.81,2.81,0,0,0,1.33.41.9.9,0,0,0,.43,0,.84.84,0,0,0,.45-.55,2.43,2.43,0,0,1,.3-.68,2.25,2.25,0,0,1,.59,1.25c0,.15,0,.34.18.41a.3.3,0,0,0,.36-.14.67.67,0,0,0,0-.42A4.07,4.07,0,0,0,19,22.39s-.13,0-.29,0a2.12,2.12,0,0,0-.39.13l-.54,1.16a1.72,1.72,0,0,1-1.4-.44,1.73,1.73,0,0,1-.24-1.1,1.32,1.32,0,0,0-1.22.27,1.35,1.35,0,0,0-.41,1.19l-.21.15a1.39,1.39,0,0,0-.21.21,1.8,1.8,0,0,0-.27.49,1.12,1.12,0,0,0,.32,1.09.82.82,0,0,0-.33.71.84.84,0,0,0,.4.67.38.38,0,0,1,.16.12.23.23,0,0,1,0,.16c0,.36-.19.75,0,1.06a.87.87,0,0,0,.58.34,10,10,0,0,0,1.22.17,8,8,0,0,0,2.08,0,7.86,7.86,0,0,0,1.77-.6,1.8,1.8,0,0,0,.34-.17,1.68,1.68,0,0,0,.46-.62A5.4,5.4,0,0,0,19.68,27.73Z"/><polygon class="cls-8" points="26.1 15.75 26.1 15.75 26.09 15.75 26.1 15.75"/><path class="cls-8" d="M26.66,18.14,26.6,18"/><path d="M35.1,37.53Z"/><path d="M34.53,36.33Z"/><polygon points="35.1 37.54 35.1 37.54 35.1 37.54 35.1 37.54"/><polygon points="47.76 38.06 47.76 38.06 47.76 38.06 47.76 38.06"/><polygon points="47.76 38.05 47.76 38.05 47.76 38.06 47.76 38.05"/><polygon points="47.92 33.33 47.92 33.33 47.92 33.33 47.92 33.33 47.92 33.33 47.92 33.33 47.92 33.33 47.92 33.33 47.92 33.33"/><path class="cls-9" d="M43.75,32.84a.28.28,0,0,1,.29-.28.3.3,0,0,1,.28.29.3.3,0,0,1-.29.28A.3.3,0,0,1,43.75,32.84Z"/><path class="cls-10" d="M40,9.57a.63.63,0,0,0-.76.28c-.39.42-.33,1.29-1,1.41a.29.29,0,0,0-.28.28c.06.48.68.24.92,0,.47-.36.46-1,.83-1.45.14,0,.28,0,.36-.16A.29.29,0,0,0,40,9.57Z"/><path class="cls-10" d="M29.53,8.26a1.74,1.74,0,0,0-1.71.62.47.47,0,0,0-.15.34h.23c.05,0,.12.06.13.12l.11,0h.07a1.13,1.13,0,0,1,.1-.13,1.26,1.26,0,0,1,1-.4A.28.28,0,0,0,29.53,8.26Z"/><path class="cls-10" d="M32.88,7.94c-.34,0-1.32.08-1,.62a.31.31,0,0,0,.33,0A1.53,1.53,0,0,1,34,9.08a.29.29,0,0,0,.45-.35A2.13,2.13,0,0,0,32.88,7.94Z"/><path class="cls-10" d="M33.45,13.87c-.18,0-.35-.19-.54-.14a.28.28,0,0,0,0,.55c1.06.3,1.11.9.82,1.87-.05.25-.36.49-.08.71.56.29.68-.82.76-1.17A1.53,1.53,0,0,0,33.45,13.87Z"/><path class="cls-10" d="M30.59,13.31a1.44,1.44,0,0,1-1,.07c-.39-.6-1.18.6.38.63a2.2,2.2,0,0,0,.87-.19A.28.28,0,0,0,30.59,13.31Z"/><path class="cls-10" d="M29.05,10.18c-.37-.16-.54.39-.35.61C29.1,11.16,29.44,10.38,29.05,10.18Z"/><path class="cls-10" d="M32.61,9.92a.34.34,0,0,0,0,.67C33.09,10.64,33.12,9.81,32.61,9.92Z"/><path class="cls-8" d="M34.58,18.91c.62-.39,1.24-.78,1.83-1.22a.86.86,0,0,0,.28-.29.3.3,0,0,0-.07-.37.32.32,0,0,0-.35,0,1,1,0,0,0-.2.16,10.33,10.33,0,0,1-1.56,1,17.42,17.42,0,0,1-1.71,1,3,3,0,0,1-1.68.29,1,1,0,0,1-.81-.86,2.39,2.39,0,0,0-.23-.8c-.26-.36-.85-.42-1-.84A3.65,3.65,0,0,1,29,16.6c0-.16-.16-.32-.32-.31s-.27.29-.25.49a1.66,1.66,0,0,0,.92,1.28.6.6,0,0,1,.25.16.58.58,0,0,1,.09.26,4.7,4.7,0,0,0,.12.51,1.61,1.61,0,0,0,.56.91,1.3,1.3,0,0,0,.55.2,3.47,3.47,0,0,0,1.93-.24,6.84,6.84,0,0,0,.86-.42c0,.15,0,.31,0,.47a.29.29,0,0,0,.51.13c.11-.17,0-.38,0-.58s0-.19,0-.3v-.05Z"/><path class="cls-8" d="M29.85,19.17h0Z"/><path class="cls-8" d="M28.68,15a2.17,2.17,0,0,0-.24-.45,3.06,3.06,0,0,1-.32-.77A3,3,0,0,1,28,12.63a9.47,9.47,0,0,1,.31-1.38,2.66,2.66,0,0,0,0-1.4c-.05-.17-.13-.34-.17-.53a2.75,2.75,0,0,1,0-.41V8a2.61,2.61,0,0,1,.16-1,1.64,1.64,0,0,0,.14-.3.32.32,0,0,0-.06-.31.3.3,0,0,0-.36,0,.61.61,0,0,0-.22.3,3.37,3.37,0,0,0-.21,1.22c0,.26,0,.51-.05.76a3.41,3.41,0,0,0,0,.64c0,.28.19.54.25.82.25,1.14-.67,2.18-.49,3.32a4,4,0,0,0,.58,1.35,1,1,0,0,1,.17.37,1,1,0,0,0,.06.35.3.3,0,0,0,.44,0A.51.51,0,0,0,28.68,15Z"/><path class="cls-10" d="M41.19,14.63c-.15-.45-.36-.87-.49-1.32a2.64,2.64,0,0,0-.31-.71.29.29,0,0,0-.31-.2.28.28,0,0,0-.23.33,5.88,5.88,0,0,1,.3.73c.13.43.33.9.47,1.32l.58,0A1.15,1.15,0,0,0,41.19,14.63Z"/><path d="M22,30.21Z"/><path d="M24.73,31.05Z"/><path d="M24.73,31h0Z"/><polygon points="25.02 30.59 25.02 30.59 25.02 30.59 25.02 30.59"/><polygon points="25.02 30.58 25.02 30.58 25.02 30.59 25.02 30.58"/><path d="M25.22,30.27h0Z"/><path d="M24.13,37.09Z"/><path d="M24.13,37.09Z"/><path d="M24.22,37Z"/><path d="M25.89,32.7Z"/><path d="M25.9,31.8Z"/><polygon points="25.89 32.7 25.89 32.7 25.89 32.7 25.89 32.7"/><polygon points="25.83 29.19 25.83 29.19 25.83 29.19 25.83 29.19"/><polygon class="cls-4" points="47.75 38.06 47.76 38.06 47.75 38.06 47.75 38.06"/><path class="cls-9" d="M48.14,33.87a12.3,12.3,0,0,0-1.79-2.7,16.63,16.63,0,0,1-2.08-4.67,106,106,0,0,1-2.8-10.71c0-.15-.08-.32-.22-.38s-.39.15-.51.33A9,9,0,0,1,36.13,19a43.18,43.18,0,0,0-5.07,2,.32.32,0,0,0-.12-.18l-.12-.07-.23-.07a7.67,7.67,0,0,0-3.11-.3A10.06,10.06,0,0,0,26.59,18l-.59.11c0,.05.15.3.18.36a8.29,8.29,0,0,1,.91,3.15c0,.21.09.48.3.5s.34-.27.3-.5-.16-.45-.09-.66a6.74,6.74,0,0,1,2.82.33l.1,0a22.94,22.94,0,0,1-2.62,1.53,8.13,8.13,0,0,1-2,.55,1.09,1.09,0,0,0-.23-.25,5.7,5.7,0,0,1-1.79-2.58,10.38,10.38,0,0,1-.31-1.22,1.79,1.79,0,0,1,0-.24l-.54.15a7.16,7.16,0,0,0,2.19,4.25,14.88,14.88,0,0,0-4.76,1,6.88,6.88,0,0,1,.21,1.26A4,4,0,0,1,20.4,27c-.13.32-.55.76,0,.92a3.07,3.07,0,0,0,1.35,0q5.51-.81,11-1.44a13.5,13.5,0,0,0,.92,9.25,11.23,11.23,0,0,1,1.12,2.6c.36,1.86-.65,3.72-.62,5.61,0,1.06.37,2.09.39,3.14s-.3,2.21-.31,3.32a2.91,2.91,0,0,0,1.43,2.79,2,2,0,0,0,2.61-1.72l.81,4.82c.11.65.17,1.44-.34,1.86,1.5.72,3.36,1.42,4.73.48a4.12,4.12,0,0,0,1.4-3.3,13,13,0,0,0-.37-3.88,7.42,7.42,0,0,1-.41-2.75,18.21,18.21,0,0,1,1-2.61,28,28,0,0,0,.44-3.05,19,19,0,0,1,2-4.49,7.45,7.45,0,0,0,.9-3.57A3.79,3.79,0,0,0,48.14,33.87ZM37.94,49.78a2.28,2.28,0,0,1,0,.45,4.77,4.77,0,0,1-.19,1.13c-.07.28-.15.55-.22.83a.54.54,0,0,1-.24.4.73.73,0,0,1-.33,0c-.53,0-1.12.24-1.54-.07a1.3,1.3,0,0,1-.38-.65,6.18,6.18,0,0,1-.23-2.3c.06-.78.27-1.55.29-2.33a10.5,10.5,0,0,0-.22-1.85,5.42,5.42,0,0,1-.18-1.88c.23-1.33.45-2.66.68-4a13.69,13.69,0,0,0,1.29,2.16c.74,1.4.56,3.11,1.07,4.61a3.92,3.92,0,0,1,.23.81,8.17,8.17,0,0,1-.2,1.39A6.74,6.74,0,0,0,37.94,49.78Zm7.62-8.93-1.5,6a10.93,10.93,0,0,0-.45,2.83,24.49,24.49,0,0,0,.58,3.37,10.12,10.12,0,0,1,0,3A3.14,3.14,0,0,1,43.36,58c-1,.86-2.49.45-3.71,0,0,0,0-1.49,0-1.64a12.45,12.45,0,0,0-.22-1.72c-.11-.56-.29-1.1-.45-1.65a6.75,6.75,0,0,1-.12-1.27c0-.39-.07-.78-.11-1.18-.07-.8-.15-1.59-.22-2.39a25.47,25.47,0,0,0-.81-5c-.95-3.17-3.11-5.87-4.16-9a13.79,13.79,0,0,1-.21-8L35,25.27c.25-.14.52-.44.34-.65s-.45,0-.64.11a8.65,8.65,0,0,1-6.18,1.63c.24-.25.43-.76.1-.86s-.45.28-.61.52a2.2,2.2,0,0,1-1.65.73l-5.5.71a3.89,3.89,0,0,0,.25-2.56c2-1.13,4.56-.56,6.71-1.39a22.36,22.36,0,0,0,2.8-1.62c3.42-2,8-2.33,10.43-5.45a81.54,81.54,0,0,0,4,14l-2.64,1.24a.62.62,0,0,0-.32.25.56.56,0,0,0,0,.34c.64,2.64,2.57,5,2.56,7.7a1.42,1.42,0,0,0,.18.91c.2.24.72.18.72-.13Zm2-4.93a11,11,0,0,1-1.1,3.13.14.14,0,0,1,0,.06l-.06,0a4.17,4.17,0,0,1-1.16,1.17,7.55,7.55,0,0,0,0-1.84,11.07,11.07,0,0,0-.69-1.67c-.67-1.55-1.26-3.18-1.89-4.75a6.12,6.12,0,0,0,2.74-1.25,13,13,0,0,0,1.27,1.61,4.84,4.84,0,0,1,1,2l.06.62C47.7,35.33,47.65,35.63,47.59,35.92Z"/><polygon class="cls-4" points="47.96 33.44 47.95 33.43 47.96 33.44 47.96 33.44"/><path class="cls-9" d="M32.74,57a1.88,1.88,0,0,1-1.47-.69,1.59,1.59,0,0,1,.37-1.48,5.51,5.51,0,0,1,1.44-.76,2.58,2.58,0,0,0,.94-.7,2.82,2.82,0,0,0,.67-.84.29.29,0,0,1,.33-.21c.74.3-.57,1.38-.82,1.68a3.68,3.68,0,0,1-1.12.69c-.68.28-1.26.45-1.32,1.29,0,.31,1,.52,1.24.42a8.76,8.76,0,0,0,.84-.35,6.74,6.74,0,0,1,1-.17,13.9,13.9,0,0,0,3.27-.55c.45-.1.45-.61.5-1a4.81,4.81,0,0,0-.45-.91c-.19-.29-.86-1-.29-1.19a.29.29,0,0,1,.34.26,2.27,2.27,0,0,0,.3.46,2.29,2.29,0,0,1,.29.47,2.41,2.41,0,0,1,.35.72,1.31,1.31,0,0,1,0,.59,1.25,1.25,0,0,1-.49,1,12.77,12.77,0,0,1-4,.76C34,56.52,33.42,57,32.74,57Z"/><path class="cls-11" d="M37.83,10.25s.71-1.34,1.39-1.43,1.37,0,1.59.93.31,1.32,0,1.67a10.94,10.94,0,0,0-.73,1l.84,2.4s.7-1.67,1-2.4S44,7.46,44,6.37a5.87,5.87,0,0,0-2.71-5C39.11.18,35.68.14,33,.85s-4,2.25-4.27,3a20,20,0,0,0-.64,2.42,19.64,19.64,0,0,0,3.78-.53c1-.38,2.52-.9,3-1.13a4.44,4.44,0,0,0,1.1-1s.5,1.95.73,2.57.91,1.25,1,1.76S37.83,10.25,37.83,10.25Z"/><path class="cls-10" d="M44.15,5a6,6,0,0,0-2.7-4,9,9,0,0,0-5.28-1,11.25,11.25,0,0,0-5.5,1.55,6.73,6.73,0,0,0-2.22,2.28c-.24.42-1.26,2.53-.59,2.81a1.06,1.06,0,0,0,.53,0c2.62-.43,5.37-.91,7.41-2.62a9,9,0,0,0,1.1,3.1,4.36,4.36,0,0,1,.56,1.2c.13.7-.19,1.44,0,2.12a.43.43,0,0,0,.15.25c.17.09.37-.06.49-.22.35-.5.55-1.19,1.13-1.41.75-.29,1.55.56,1.5,1.37a3.09,3.09,0,0,1-1.25,2,.73.73,0,0,0-.28.35c0,.15.07.34.22.32a.35.35,0,0,0,.14-.06A3.44,3.44,0,0,0,41.22,11a2.12,2.12,0,0,0-1-2.35,1.56,1.56,0,0,0-2.17,1c.29-1.13-.47-2.23-1-3.29a8.36,8.36,0,0,1-.76-2.49c0-.22-.08-.48-.29-.54s-.35.1-.48.22c-1.94,1.76-4.69,2.22-7.28,2.61a5.61,5.61,0,0,1,2.63-4A10.39,10.39,0,0,1,35.6.62,10.31,10.31,0,0,1,40,1a5.51,5.51,0,0,1,3.26,2.77c.84,1.83.34,4-.43,5.84S41,13.24,40.69,15.23c0,.29.1.72.37.62s.19-.26.21-.42c.35-3.37,3.1-6.25,3-9.64A4.9,4.9,0,0,0,44.15,5Z"/><path class="cls-12" d="M27.12,16.51A23.17,23.17,0,0,0,29.63,16a.28.28,0,0,1,.13,0,.44.44,0,0,0-.14-.42,8,8,0,0,1-1.37.23,7.89,7.89,0,0,1-1.28.1,2.11,2.11,0,0,1,.15.6Z"/><path class="cls-12" d="M19.65,18h0c.3.34,1.2.12,1.9-.06a1,1,0,0,0-.13-.47A9.76,9.76,0,0,0,19.65,18Z"/><path class="cls-10" d="M29.93,15.1a.35.35,0,0,0-.45-.07l-.13,0a15.24,15.24,0,0,1-2,.27h0c-.18,0-.54,0-.8,0l.19.13a1.3,1.3,0,0,1,.29.44,7.89,7.89,0,0,0,1.28-.1,8,8,0,0,0,1.37-.23.44.44,0,0,1,.14.42.28.28,0,0,0-.13,0,23.17,23.17,0,0,1-2.51.48,2.73,2.73,0,0,1,0,.57h0c.39-.09.79-.12,1.18-.2A7.37,7.37,0,0,0,30,16.51a.23.23,0,0,0,.08-.09c.29,0,.29-.38.29-.61A.89.89,0,0,0,29.93,15.1Z"/><path class="cls-8" d="M22,17.36l-.22,0-.35.08a1,1,0,0,1,.13.47l.57-.13a1.36,1.36,0,0,0-.06-.29A.56.56,0,0,0,22,17.36Z"/><path class="cls-8" d="M27,15.9a1.3,1.3,0,0,0-.29-.44l-.19-.13a2.51,2.51,0,0,0-.81-.28,9.38,9.38,0,0,0-1.18-.2,4.74,4.74,0,0,0-1.63.2,3.64,3.64,0,0,0-1.34.69,2.78,2.78,0,0,0-.84,1.16c0,.05,0,.09,0,.13a.07.07,0,0,1,0,0L21,17l.19.19a1.48,1.48,0,0,0,.24.26,0,0,0,0,0,0,0l.35-.08.22,0a1.19,1.19,0,0,0-.4-.51.28.28,0,0,0-.17-.07,3.07,3.07,0,0,1,1.85-1.27,5.14,5.14,0,0,1,2.58.13,1.12,1.12,0,0,1,.4.18,1,1,0,0,1,.25.44,2,2,0,0,1,.07.73.75.75,0,0,1-.18.48.33.33,0,0,1-.47,0,.45.45,0,0,1-.08-.23,5.56,5.56,0,0,0-.29-.9c-.07-.17-.21-.36-.39-.34s-.24.21-.22.37a1.41,1.41,0,0,0,.18.44,1.77,1.77,0,0,1,.19,1,.34.34,0,0,1-.07.22.23.23,0,0,1-.34-.09.71.71,0,0,1-.09-.38,3.11,3.11,0,0,0-.47-1.42c-.09-.13-.2-.27-.36-.26s-.27.26-.22.44a1.6,1.6,0,0,0,.31.47,3,3,0,0,1,.4,1.27.19.19,0,0,1,0,.15c0,.05-.12,0-.18,0a1.37,1.37,0,0,1-.55-.31,3,3,0,0,0-.35-1.19c-.12-.21-.37-.43-.56-.29a.33.33,0,0,0-.08.36,1.23,1.23,0,0,0,.19.33,4.35,4.35,0,0,1,.35.76.79.79,0,0,1,.05.6.49.49,0,0,1-.57.22,1,1,0,0,1-.49-.33q-.33.06-.66.15a1.15,1.15,0,0,0,.14.17,2.32,2.32,0,0,0,1.26.6.93.93,0,0,0,.55-.16,1,1,0,0,0,.31-.44,1.74,1.74,0,0,0,.59.1.58.58,0,0,0,.49-.31.51.51,0,0,0,.53.07.5.5,0,0,0,.28-.46c.13,0,.22.14.59.06A.7.7,0,0,0,26.6,18a1.2,1.2,0,0,0,.51-.93,2.73,2.73,0,0,0,0-.57h0A2.11,2.11,0,0,0,27,15.9Z"/><path class="cls-10" d="M21.52,18.36a.33.33,0,0,1,0-.22.31.31,0,0,1,0-.1s0-.07,0-.1c-.7.18-1.6.4-1.9.06h0a9.76,9.76,0,0,1,1.77-.53,0,0,0,0,1,0,0,1.48,1.48,0,0,1-.24-.26L21,17l-.34.09-.52.15a2.17,2.17,0,0,0-.88.38c-.4.39,0,1,.46,1.08a4.42,4.42,0,0,0,1.9-.18A1.09,1.09,0,0,1,21.52,18.36Z"/><path class="cls-8" d="M22.22,18.31l-.11-.12a1,1,0,0,0,0-.38l-.57.13s0,.06,0,.1a.31.31,0,0,0,0,.1.33.33,0,0,0,0,.22,1.09,1.09,0,0,0,.08.15q.33-.09.66-.15Z"/><path class="cls-9" d="M27.16,26.87a1.64,1.64,0,0,0,.17-.95.26.26,0,0,0-.5-.06l-.23.68.45-.06a.48.48,0,0,1-.1-.23c0-.21-.29-.21-.42-.11a.92.92,0,0,0-.35.69.25.25,0,0,0,.49.06,1.77,1.77,0,0,0,0-.51c0-.23-.35-.37-.47-.13l-.14.27h.43c-.24-.51-.78-.19-1,.13l.46.19a.4.4,0,0,0-.42-.51c-.42,0-.77.44-1.23.29a.24.24,0,0,0-.24.07c-.12.14-.39.09-.55.14a.53.53,0,0,0-.39.36h.48l-.11-.28a.26.26,0,0,0-.37-.15l-.43.26.34.09c-.15-.34-.54-.24-.73,0l.42.25.07-.33c0-.14-.07-.34-.24-.32a.59.59,0,0,0-.55.48l.49.06,0-.23a.26.26,0,0,0-.38-.21,1,1,0,0,0-.43.35l.46.06v-.11a.26.26,0,0,0-.43-.18l-.3.37.43.18,0-.37a.25.25,0,0,0-.37-.22,1.47,1.47,0,0,0-.43.43l.46.06,0-.11c0-.19-.11-.36-.31-.31a1.11,1.11,0,0,0-.53.29l.43.18,0-.2c0-.24-.28-.31-.43-.18l-.07,0a.25.25,0,0,0,.13.48.77.77,0,0,0,.29-.17l-.42-.17,0,.2c0,.23.28.31.42.18a.63.63,0,0,1,.31-.17L21,27.13a.7.7,0,0,0,0,.38.25.25,0,0,0,.45.06,1,1,0,0,1,.25-.25l-.38-.21,0,.37a.24.24,0,0,0,.42.17l.31-.37-.43-.17a.53.53,0,0,0,0,.25c0,.23.33.21.45.06a.53.53,0,0,1,.26-.18L22,27l0,.23c0,.26.44.37.49.07l.07-.11-.24-.31-.07.32c-.05.22.25.46.41.25.08-.06.06-.1-.05-.11a.25.25,0,0,0,.34.09l.44-.26L23,27l.11.28a.25.25,0,0,0,.48,0c0-.05.37-.05.42-.06a.73.73,0,0,0,.39-.22l-.24.06a1.38,1.38,0,0,0,.67,0l.33-.1.17-.07c.11,0,.15-.1.13-.22a.25.25,0,0,0,.45.19.26.26,0,0,1,.16-.13.25.25,0,0,0,.43,0l.14-.27-.46-.12a1.22,1.22,0,0,1,0,.38l.49.07a.45.45,0,0,1,.21-.34l-.42-.11a.77.77,0,0,0,.15.36.26.26,0,0,0,.46-.06l.24-.69-.49-.07a1.21,1.21,0,0,1-.1.7c-.14.29.29.54.43.25Z"/><path class="cls-9" d="M42.47,28a.24.24,0,0,0,.24.38l.32-.06h0l-.06.13a.25.25,0,0,0,.28.37l.23-.07a.22.22,0,0,0,0,.31.22.22,0,0,0,0,.22.94.94,0,0,1-.1.1.26.26,0,0,0,0,.35.12.12,0,0,0-.05.05.24.24,0,0,0,.16.41c-.13.13-.06.28.07.36a.08.08,0,0,0,0,.05l-.11.06c-.22.16-.1.56.19.46s.49-.19.73-.3a.23.23,0,0,0,.26,0l.22-.22a.22.22,0,0,0,0-.32,3.27,3.27,0,0,0,.14-.62c0-.18-.17-.26-.3-.25a8.65,8.65,0,0,0-.35-1,.22.22,0,0,0-.22-.27v0l.16-.14a.26.26,0,0,0-.25-.42l-.13,0a.22.22,0,0,0-.05-.29l0,0c.2-.17,0-.44-.22-.4,0,0,0-.05,0-.07l.07-.18a.2.2,0,0,0-.06-.22l0-.06a.25.25,0,0,0-.26-.31,2.74,2.74,0,0,0,.15-.4.26.26,0,0,0-.31-.31l-.06,0a.54.54,0,0,1,.07-.13.26.26,0,0,0-.16-.36l.12-.4a.25.25,0,0,0-.12-.29l.1-.15a.25.25,0,0,0-.15-.37l-.2,0-.05,0a.61.61,0,0,0,0-.48.51.51,0,0,0-.13-.16l0,0c.12-.2-.14-.5-.35-.34a.1.1,0,0,0,0,.05.29.29,0,0,0-.15-.21l.19-.2a.24.24,0,0,0-.23-.4.25.25,0,0,0-.17-.38l.12-.12a.25.25,0,0,0,0-.44l.13-.18c.13-.18-.08-.42-.28-.37l-.29.08a.56.56,0,0,0,0-.62s0,0,0,0h0c0-.14,0-.28,0-.42a.24.24,0,0,0-.06-.29.25.25,0,0,0-.19-.4h-.1c.08-.08.16-.15.23-.23a.28.28,0,0,0,0-.39l0,0a.24.24,0,0,0-.17-.41c.13-.18,0-.48-.25-.4l-.16.06c.08-.12.18-.22.26-.34s-.26-.52-.43-.26a7,7,0,0,1-.71.92.26.26,0,0,0,.16.42c-.12.17,0,.48.24.39l.13-.05a.21.21,0,0,0,.06.1.17.17,0,0,0,0,.12c-.07.07-.13.14-.2.2a.25.25,0,0,0,.17.43h.07a12.61,12.61,0,0,1-.92.87c-.21.17,0,.4.21.4a.24.24,0,0,0,.25.42c.28-.13.55-.28.83-.43l-.2.28a.25.25,0,0,0,.28.36l.15,0c-.1.11-.18.24-.29.34a.22.22,0,0,0,0,.32l-.19.19c-.16.17,0,.51.24.42l.09,0-.06.06a.24.24,0,0,0,.2.41l-.08.09a.25.25,0,0,0,.09.4l-.13.15a.26.26,0,0,0,.21.37.23.23,0,0,0,.17.36.25.25,0,0,0,.31.37h0a.23.23,0,0,0,.19.22h0a.18.18,0,0,0,0,.25,1.85,1.85,0,0,0-.32.25.22.22,0,0,0-.06.2s0,0-.05.06a.25.25,0,0,0,.21.38h0c-.09.18,0,.45.26.36l.14,0a.25.25,0,0,0,.13.14l-.18.21a.24.24,0,0,0,0,.3l0,0c-.14.11-.08.26,0,.35-.21.11-.42.22-.64.32s-.06.5.2.45a3,3,0,0,0,.59-.16A.26.26,0,0,0,42.47,28Z"/><path class="cls-9" d="M48,35.08l.26-.3c.21-.24-.12-.58-.35-.35l-.18.15a3.76,3.76,0,0,0,.25-.31.24.24,0,0,0-.21-.37,1.46,1.46,0,0,0-.22,0l.19-.17a.25.25,0,0,0-.25-.42l-.41.14.14-.15a.25.25,0,0,0-.17-.42l0-.06a.25.25,0,0,0-.27-.36l0-.06a.24.24,0,0,0-.07-.33.26.26,0,0,0-.18-.32.27.27,0,0,0-.31-.22l-.07,0a.24.24,0,0,0-.3-.29l-.14,0h0l.07,0c.25-.13.08-.55-.19-.45l-.06,0h0l-.21.1a.23.23,0,0,0-.35-.17L44,31.48a.25.25,0,0,0,.19.45c.16,0,.32-.1.48-.15a.24.24,0,0,0,.35.3l.25-.09a.23.23,0,0,0,.3.24h.06a.27.27,0,0,0,.13.17c0,.16.15.34.31.28l-.19.27a.24.24,0,0,0,.17.36.23.23,0,0,0,.17.33l-.22.24c-.16.17,0,.5.24.41l.25-.08-.3.28c-.2.19.07.56.3.39a2.34,2.34,0,0,1,.56-.3,3.84,3.84,0,0,1-1.23.82c-.23.1-.24.52.07.49H46a3.39,3.39,0,0,0,.57-.1,4.25,4.25,0,0,1-.58.35c-.26.12-.08.54.19.45a2.77,2.77,0,0,0,.26-.1l-.13.1a.25.25,0,0,0,.25.43l.16-.09a.1.1,0,0,0,0,0,.22.22,0,0,0,0,.21.18.18,0,0,0,0,.14l-.09.11a.29.29,0,0,0,0,.34h0a.22.22,0,0,0-.06.2l-.11.14a.23.23,0,0,0,0,.31,1,1,0,0,0-.13.25,4.16,4.16,0,0,1-.68,1.17c-.19.26.24.51.43.26A5.57,5.57,0,0,0,46.81,39a2.82,2.82,0,0,1,.19-.51,2.56,2.56,0,0,0,.27-.45s0-.05,0-.07l.12-.13a.25.25,0,0,0,.06-.21l.37-.44a.28.28,0,0,0,0-.37.23.23,0,0,0,0-.16.25.25,0,0,0,0-.26v0a.23.23,0,0,0,0-.25l.08-.09a.24.24,0,0,0,0-.29l.31-.31A.24.24,0,0,0,48,35.08Z"/><path class="cls-9" d="M45.46,40.91l-.18.08A.27.27,0,0,0,45,41a2.45,2.45,0,0,1-1.25.23c-.33,0-.31.47,0,.5.1,0,.2,0,.3,0a2.4,2.4,0,0,1-.38.12c-.23.06-.25.44,0,.48h0a.23.23,0,0,0,.14.21.2.2,0,0,0,.12.23A.23.23,0,0,0,44,43a.24.24,0,0,0,0,.4.23.23,0,0,0,.13.26l-.11.07a.24.24,0,0,0,0,.36.28.28,0,0,0-.09.3l-.1.05a.23.23,0,0,0,0,.4l-.22.12a.26.26,0,0,0,.06.46h0a.24.24,0,0,0,.06.33s0,0,0,0a.26.26,0,0,0,.13.42.24.24,0,0,0,0,.22l-.09.1a.25.25,0,0,0,0,.37l0,.06a.24.24,0,0,0,0,.28,3,3,0,0,1-.16.37.24.24,0,0,0,0,.22h0a.31.31,0,0,0-.1.43h0l0,0a.64.64,0,0,0-.13.26s0,.05,0,.08a4.84,4.84,0,0,1-.62.66.23.23,0,0,0-.23,0l-.25.12a.25.25,0,0,0,.13.47,1.72,1.72,0,0,0,.52-.12h0a1.3,1.3,0,0,0,.26-.14h0a.41.41,0,0,0-.13.2.26.26,0,0,0,.19.31l0,.05a.26.26,0,0,0,.18.31l-.12.13a.26.26,0,0,0,.11.42h0l-.12.29c-.07.15.08.28.22.31a.22.22,0,0,0-.05.12v.11s0,0,0,0l0,.06a.45.45,0,0,1,0,.11v.06a.56.56,0,0,1-.05.08l0,0c0,.05,0,0,0,0a1.14,1.14,0,0,1-.16.15.23.23,0,0,0,0,.3.25.25,0,0,0,.12.11h0a.26.26,0,0,0-.18.28.25.25,0,0,0,.25.21,1.13,1.13,0,0,0,.26,0,.16.16,0,0,0,0,.07c-.28.13-.54.28-.82.38a.25.25,0,0,0,.06.49l.23,0-.25.16c-.19.12-.14.49.13.46l.27-.05c-.14.11-.27.22-.41.31s-.14.49.12.47l.16,0c-.05.06-.11.11-.15.17a.26.26,0,0,0,.22.38l.09,0c-.11.15-.23.3-.33.46a.21.21,0,0,0,.06.3l-.33.32a.25.25,0,0,0,.07.39l-.2.22a.59.59,0,0,0,0,.08l-.47.25a.25.25,0,0,0,.12.47,2,2,0,0,0,2.13-1.86.19.19,0,0,0-.09-.18,1.34,1.34,0,0,0,.07-.18s.06-.05.07-.09,0-.23.07-.34a1.18,1.18,0,0,0,0-.2,7,7,0,0,0,.12-.92s0-.06,0-.09,0-.3,0-.45a.24.24,0,0,0-.09-.34l.12-.08a.23.23,0,0,0,0-.41.24.24,0,0,0-.15-.36h-.08l.11-.12a.24.24,0,0,0,0-.3v-.27A.24.24,0,0,0,44.2,52h0l.06-.12a.24.24,0,0,0-.1-.34l.05-.1c.13-.23-.11-.43-.33-.35l.06-.14a.25.25,0,0,0-.15-.3.48.48,0,0,0-.07-.53l.09-.26a.25.25,0,0,0,0-.19l0,0c.29-.14,0-.57-.25-.43l-.13.06h0v0a7.79,7.79,0,0,0,.51-.63.2.2,0,0,0,0-.21.41.41,0,0,0,.12-.3A.28.28,0,0,0,44,48a3.61,3.61,0,0,0,.22-.44.19.19,0,0,0,0-.22c0-.1.09-.19.13-.3a.17.17,0,0,0,0-.07,2,2,0,0,0,.23-.54.31.31,0,0,0,0-.1c0-.07.09-.12.13-.19a.25.25,0,0,0-.07-.31.29.29,0,0,0,0-.1.22.22,0,0,0,0-.38.24.24,0,0,0,0-.33l.12-.06a.23.23,0,0,0,0-.4l.25-.12A.22.22,0,0,0,45,44a.24.24,0,0,0,.09-.29h0a.26.26,0,0,0,.08-.44.23.23,0,0,0,0-.3.24.24,0,0,0,0-.41.25.25,0,0,0,0-.25.25.25,0,0,0,.09-.25l.06,0c.25-.13.08-.47-.17-.45l0,0a3.28,3.28,0,0,0,.59-.23C46,41.2,45.75,40.77,45.46,40.91ZM43.88,54.84h0Z"/><path class="cls-9" d="M38.31,49.46a.22.22,0,0,0-.2-.21.25.25,0,0,0-.22-.28.24.24,0,0,0-.13-.46l.24-.15a.22.22,0,0,0,.08-.33l.09,0c.26-.15.06-.49-.2-.46h0l.21-.15a.25.25,0,0,0-.19-.46l-.26.08.12-.09a.23.23,0,0,0-.17-.43l.07-.07c.21-.18,0-.45-.24-.41h0l.38-.26a.25.25,0,0,0-.18-.45.24.24,0,0,0-.18-.37l.09-.09a.24.24,0,0,0-.11-.41h-.15l.17-.18a.25.25,0,0,0,0-.33,1.91,1.91,0,0,0,.26-.41.25.25,0,0,0-.12-.34.24.24,0,0,0-.38-.28l-.47.41c-.2.17,0,.41.2.41a.61.61,0,0,1-.15.13.26.26,0,0,0,0,.4l-.3.29a.26.26,0,0,0,.24.42l-.19.17c-.17.17,0,.39.18.41l0,0a.25.25,0,0,0,.08.4,3.19,3.19,0,0,0-.26.26.25.25,0,0,0,.23.41l-.35.29a.25.25,0,0,0,.14.45l-.1.09a.25.25,0,0,0,.24.42l.13,0c-.08.13,0,.26.14.32a.25.25,0,0,0,.07.33,2.39,2.39,0,0,0-.22.23.25.25,0,0,0,.17.42h0a.24.24,0,0,0,.16.24,3.06,3.06,0,0,0-.29.21c-.16.13-.05.36.11.42l.09,0a1.49,1.49,0,0,0-.14.12.26.26,0,0,0,.09.41l-.12.12a.28.28,0,0,0,0,.37l0,0a.26.26,0,0,0-.07.36c-.08.06-.17.1-.26.17a.24.24,0,0,0,0,.39.27.27,0,0,0-.06.3s0,0,0,0a.26.26,0,0,0,.11.42,1.1,1.1,0,0,0,.25,0s0,0,0,0H37c.31,0,.7-.12.82-.38a2.88,2.88,0,0,0,.11-.78l0-.2L38,51.3l.14-.35h0a.24.24,0,0,0,.09-.32A3.06,3.06,0,0,0,38.31,49.46Zm-.49.09h0Zm-.43,2.1h0l.06,0Z"/><path class="cls-9" d="M34.88,24.37l-.83.38a.24.24,0,0,0-.39,0c-.06.14-.18.1-.3.18a0,0,0,0,1,0,0A.23.23,0,0,0,33,25l0,0a.27.27,0,0,0-.21.06l-.06,0h0a.26.26,0,0,0-.42.11.14.14,0,0,1,0,.06A.25.25,0,0,0,32,25.3a.24.24,0,0,0-.35.07l0,.05a.26.26,0,0,0-.31,0,.24.24,0,0,0-.4,0l-.11.2a.25.25,0,0,0-.18-.08l.06-.3c0-.25-.36-.33-.47-.12a2.17,2.17,0,0,1-1.46,1.11.25.25,0,0,0,.13.49,3.07,3.07,0,0,0,.6-.22v0a.26.26,0,0,0,.24.18,4.1,4.1,0,0,0,1.05-.15.27.27,0,0,0,.21-.05h0l.27-.09a.25.25,0,0,0,.42,0s.06-.16.11-.17.09,0,.15.05a.44.44,0,0,0,.34,0,.84.84,0,0,0,.27-.22.31.31,0,0,0,.23-.06l.08-.11a.21.21,0,0,0,.3-.09.15.15,0,0,0,0-.09l0,0a.26.26,0,0,0,.36-.07l.14-.21a.67.67,0,0,0,.21-.09.26.26,0,0,0,.21,0l1-.48C35.43,24.67,35.17,24.24,34.88,24.37Z"/><path class="cls-9" d="M28.8,21.78l.08-.08a.23.23,0,0,0,.18,0,.24.24,0,0,0,.32.07s0,0,0,0a.24.24,0,0,0,.26,0h0a.2.2,0,0,0,.26,0,.24.24,0,0,0,.26,0,1.92,1.92,0,0,0,.22-.18.4.4,0,0,0,.51-.29.24.24,0,0,0-.43-.2.25.25,0,0,0-.22,0,.22.22,0,0,0-.35,0,.24.24,0,0,0-.22,0,.27.27,0,0,0-.24-.07.26.26,0,0,0-.25-.1.27.27,0,0,0-.3,0,.27.27,0,0,0-.4.06.23.23,0,0,0-.3-.13.25.25,0,0,0-.38,0s0,0,0,0a.27.27,0,0,0-.31,0,0,0,0,0,1,0,0l0,0a1,1,0,0,0-.2-.08.25.25,0,0,0-.15-.41.25.25,0,0,0-.19-.3.14.14,0,0,0,0-.09.23.23,0,0,0-.14-.15.16.16,0,0,0,0-.1.33.33,0,0,0-.06-.1.22.22,0,0,0,0-.14,1.12,1.12,0,0,1-.2-.46.35.35,0,0,0-.17-.24s0-.06-.06-.09a.22.22,0,0,0-.05-.08.23.23,0,0,0-.08-.09.24.24,0,0,0-.29-.07l-.25.13h0s0,0-.06,0,0,0,0,.05l-.12.07-.06,0h0l-.05,0a.21.21,0,0,0,0,.33.22.22,0,0,0,0,.24.23.23,0,0,0,0,.14.28.28,0,0,0,0,.18.28.28,0,0,0,.15.26.23.23,0,0,0,.07.31.25.25,0,0,0,.26.28s0,.06,0,.09.06,0,.1.07a.25.25,0,0,0-.06.31.23.23,0,0,0,.29.09.2.2,0,0,0,.27.12h.09a1.5,1.5,0,0,0-.34.27.25.25,0,0,0,.36.35,3.28,3.28,0,0,1,.38-.27l.09,0a.81.81,0,0,1,.27,0h.17a2.49,2.49,0,0,1,0,.55.25.25,0,0,0,.48.14l0-.08a.21.21,0,0,0,.16-.07,1,1,0,0,1,.08-.11.24.24,0,0,0,.34.1l0,0A.21.21,0,0,0,28.8,21.78Zm-1.36-.52,0-.07,0,0v0Z"/></g></g></svg>