<svg xmlns="http://www.w3.org/2000/svg" viewBox="0 0 30.66 64.55"><defs><style>.cls-1{fill:none;}.cls-2{fill:#fcd4ac;}.cls-3{fill:#d09971;}.cls-4{fill:#6b1e1e;}.cls-5{fill:#eb5d45;}.cls-6{fill:#b1dde3;}.cls-7{fill:#e9a061;}.cls-8{fill:#6fadb2;}.cls-9{fill:#cecece;}.cls-10{fill:#e52823;}.cls-11{fill:#255827;}.cls-12{fill:#3c58a4;}.cls-13{fill:#b27e4c;}.cls-14{fill:#92443f;}</style></defs><g id="Layer_2" data-name="Layer 2"><g id="Card"><path d="M12.35,7.83v0Z"/><path class="cls-1" d="M14.36,2.16C13.43,1.47,11.83.34,10.59.8c.12.29.56.59.76.86a4.67,4.67,0,0,1,.57,1,8.2,8.2,0,0,1,.6,2.11c.05.37,0,.74.05,1.11a1.84,1.84,0,0,0,.42.82A3.69,3.69,0,0,0,16.66,8V7.58a7.4,7.4,0,0,0-.19-1.93A6.09,6.09,0,0,0,14.36,2.16Z"/><path class="cls-2" d="M27.12,40.15s.64,2.43.06,3.74a6.11,6.11,0,0,1-1.9,2.2l.08.67s.87,7,1.08,7.83.88,3.43.34,3.79-1.08.06-1.42,0a3.43,3.43,0,0,1-1.42-.62c-.3-.31-.45-4.07-.58-4.58S23,48.43,22.87,48s-.23-1-.23-1-2.44.3-3.32.3-1.71,0-1.71,0,.09,2.72.12,3.55.2,1.9.21,2.43,0,1.06-.33,1.28a3.23,3.23,0,0,1-1.32.59,2.33,2.33,0,0,1-1.45-.3c-.23-.26,0-2.4,0-2.82s0-5,0-5S12.65,47,12,46.88l-1.76-.33L9.76,46s.58.07-.54.71A15.16,15.16,0,0,1,6,48.5a14.88,14.88,0,0,1-2.27.09,1.64,1.64,0,0,0-.14.89c.12.31.82,1.53.82,1.53A15.81,15.81,0,0,1,4,53.16c-.24.71-.62,3.56-1,4.23s-.23,1.41-1.18,1.47-1.69,0-1.6-.61,1-5.09,1.13-5.87,1.28-6.62,1.28-6.62.55,1.19.71,1.49L4,48.45s.22.56,1.57.28a10.36,10.36,0,0,0,4-2.29,2.77,2.77,0,0,0,0-1.3l-.36-2Z"/><path class="cls-3" d="M3.44,49.78,2.07,57.17l-.23,1.69s.57.08,1-.87,1.57-7,1.57-7Z"/><path class="cls-3" d="M16.5,47.3c0,.06.19,2.52.24,3.63s0,4.28,0,4.28,1-.14,1.07-.85a37.12,37.12,0,0,0-.1-4.13c-.06-1-.1-2.87-.1-2.87s1.83,0,3.26-.16a22.43,22.43,0,0,0,2.93-.53A23.89,23.89,0,0,0,24,49.12c.13.61.51,4.4.64,5.47s.69,3.79.69,3.79,1.34.79,1.58-.3-.58-3.93-.74-4.72-.87-6.13-.84-6.6a4.39,4.39,0,0,1,.1-.75A7.34,7.34,0,0,0,27,44.45a7.87,7.87,0,0,0,.44-2.3l-.34-2.32a5.52,5.52,0,0,1-3.41,1.91c-1.95.13-13,.49-13,.49l-1.12,1.1.22,1.15s-.45.38,1.59.48,5.95.41,7.27.36S22.21,45,22.21,45s-.2,1.37-1.12,1.74A27.58,27.58,0,0,1,16.5,47.3Z"/><path class="cls-4" d="M9.67,44.21l.43,0A23,23,0,0,0,14.41,44a.24.24,0,0,0,.16-.3.25.25,0,0,0-.33-.14c-.3.06-.62.09-.93.14-1.08.07-2.21,0-3.3,0-.18,0-.41-.09-.51.12A.24.24,0,0,0,9.67,44.21Z"/><path class="cls-4" d="M26.07,45.9a3.85,3.85,0,0,0,1.46-2.43,9.55,9.55,0,0,0,0-3.11.74.74,0,0,0-.13-.41.27.27,0,0,0-.39,0,.42.42,0,0,0,0,.38,3.15,3.15,0,0,1-1.28,3.06,7.65,7.65,0,0,1-3.24,1.25,29.1,29.1,0,0,1-12.53-.27c-.16,0-.52-.08-.61.11s.35.37.53.41a34.81,34.81,0,0,0,10.33.65,14.61,14.61,0,0,0,3.88-.78,6.6,6.6,0,0,0,3.14-2.33,5.14,5.14,0,0,1-.69,2.35A3.83,3.83,0,0,1,25,45.93,14.37,14.37,0,0,1,18.65,47,32.77,32.77,0,0,1,11,46.41c-.26-.06-.67,0-.6.28s.22.19.37.22l3.86.55c0,2.23-.06,4.45,0,6.68a1.65,1.65,0,0,0,.14.8c.31.55,1.08.59,1.7.5a2.11,2.11,0,0,0,1.31-.51,2.28,2.28,0,0,0,.35-1.69l-.31-5.72a28.29,28.29,0,0,0,4.78-.29l1,9.54a2.37,2.37,0,0,0,.21.91,2.49,2.49,0,0,0,1.57,1c.56.18,1.26.32,1.66-.11a1.32,1.32,0,0,0,.26-.85,8.88,8.88,0,0,0-.31-2.23,82.26,82.26,0,0,1-1.29-9,.41.41,0,0,1,0-.31.54.54,0,0,1,.23-.19ZM15.6,55c-.17,0-.42-.09-.51-.26-.06-.65,0-1.31,0-2,0-1.64,0-3.3,0-4.94a1.39,1.39,0,0,1,.07-.33l.32,0c.26,0,.53,0,.79,0,0,1.45.18,2.9.2,4.36,0,.62.07,1.23,0,1.84A3.5,3.5,0,0,1,16.34,55,2.62,2.62,0,0,1,15.6,55Zm1.94-.59c-.07.24-.36.3-.55.44l-.09,0a3.68,3.68,0,0,0,.06-.56c0-.48,0-1,0-1.45-.06-1-.06-1.91-.13-2.86s-.12-1.62-.11-2.43v-.06l.55,0a1.58,1.58,0,0,1,0,.3c.09.73,0,1.47.09,2.21s.17,1.73.2,2.6A7.89,7.89,0,0,1,17.54,54.37Zm6.57,3a2,2,0,0,1-.1-.49l-1-9.79.44-.08c.56,3.67.83,7.38,1.55,11,0-.08-.65-.32-.75-.42A.82.82,0,0,1,24.11,57.41Zm1.4-7.72c.1,1.32.33,2.61.54,3.93a20.75,20.75,0,0,0,.51,2.44c.07.74.5,1.7-.08,2.32-.32,0-.7.08-.95-.17-.2-.84-.29-1.74-.43-2.59s-.27-1.62-.36-2.44-.25-1.89-.35-2.85-.27-2.1-.43-3.18a.71.71,0,0,1,0-.25s0,0,0,0a5.81,5.81,0,0,0,1-.43l.16-.08C25.24,47.47,25.39,48.58,25.51,49.69Z"/><path class="cls-4" d="M4.11,50.93a.78.78,0,0,0-.07.3,26.51,26.51,0,0,1-.65,3.19L2.52,58c-.07.27-.22.62-.51.6l1.62-8.69c0-.13,0-.28-.07-.36a.23.23,0,0,0-.31.07.64.64,0,0,0-.13.33l-1.5,8.21a.92.92,0,0,1-.19.49.63.63,0,0,1-.87-.17.8.8,0,0,1,0-.46l.15-.89c.44-2.63.89-5.26,1.42-7.87.21-1.05.43-2.09.7-3.13a.79.79,0,0,0,0-.34c0-.11-.13-.22-.24-.2s-.21.17-.25.31c-.34,1.21-.56,2.45-.79,3.68C1.06,52.35.55,55.18,0,58a1.07,1.07,0,0,0,0,.47.89.89,0,0,0,.5.56,2.38,2.38,0,0,0,1.74,0,1,1,0,0,0,.46-.27,1.1,1.1,0,0,0,.19-.46l.31-1.22c.49-1.93,1-3.86,1.33-5.82,0-.17,0-.4-.13-.46a.27.27,0,0,0-.3.13Z"/><path class="cls-5" d="M13.69,31.5,13,32.84a5,5,0,0,1-3.41.7c-2-.29-6-2.65-6.95-4.07s-2.32-4.86-2-7,.73-4.29,1.51-5.3L4.68,13.8l7.9,9.65s.48-1.53.9-3,1.13-6.35,1.13-6.35,5.16,3.51,5.45,4.19.39,1,.93,1.27,3.4,1.24,4.29,2.8a9.27,9.27,0,0,1,1.39,4.49c.06,1.63.64,7.45.64,7.45Z"/><path class="cls-5" d="M30.4,31.34c-.67-1.46-1.67-3.87-2.42-4.48a2.35,2.35,0,0,0-1.38-.6s.17,1,.28,2.85c.14,2.15.57,4.8.57,4.8l0,.85a2.64,2.64,0,0,0-2.18-1,37.63,37.63,0,0,1-4.06-.6s-8.85.56-11.78.26A7.09,7.09,0,0,1,5.94,32S1.88,38.8,1.57,39.41.78,40.85.62,41.28A2.24,2.24,0,0,0,.35,42.4a9.26,9.26,0,0,0,1,2.21L1.5,44s-.62-1.81-.27-2.33a1.06,1.06,0,0,1,1.61,0c.38.44,1.66,2.08,1.66,2.08s.54.52.78.11.4-2,1.14-2.09a1.61,1.61,0,0,1,1.63.94,1.27,1.27,0,0,0,1.5.64c.6-.16,1.31-1.43,1.93-1.41s.91-.2,1.33.17,1.54,1.85,2.6,1.93,2.43-1.35,3.06-1.33,1.22,1.06,1.89,1.15a6.06,6.06,0,0,0,1.85.08,1.43,1.43,0,0,0,1-.67,9.23,9.23,0,0,0,2.4-1.08,18.82,18.82,0,0,0,1.49-2.34s2.19-1.34,2.68-2.77S31.07,32.81,30.4,31.34Z"/><path class="cls-6" d="M13.53,31.63a1.1,1.1,0,0,1-.33.86,5.71,5.71,0,0,1-.95.8A9.74,9.74,0,0,0,11.49,36a3.15,3.15,0,0,0,1.71,2.25,11.76,11.76,0,0,1,3.3,2.29c.5.72,1.51,2.43,2.08,2.7a3.45,3.45,0,0,0,2.29.06A8.53,8.53,0,0,0,24,40.63a6.68,6.68,0,0,0,.84-1.9.39.39,0,0,1-.46-.12,3.44,3.44,0,0,1-.38-.56l-.37.39a1,1,0,0,1-.35-.61c-.06-.39-.38-1.43-.38-1.43s-.37.84-.73.65-.53-1.17-.44-1.64a12.53,12.53,0,0,0,0-1.76.82.82,0,0,1-.59-.72,1.69,1.69,0,0,1,.47-1.09,13,13,0,0,0,1.6-2.71,3.92,3.92,0,0,0-.46-2.57c-.35-.48-1.42-1.64-2.2-1.71a3.06,3.06,0,0,0-2.13.32c-.6.43-1.8,1.07-1.82,1.69s.75.83.75.83,2.48.52,2.93.72S13.53,31.63,13.53,31.63Z"/><path class="cls-7" d="M17,26.08s-.48.94-.18,1.33,1.88.7,1.88.7,3.41.58,3.28,1-1.72.41-1.72.41-1.77-.36-1.77,0,2.94,1.83,2.94,2.2a.67.67,0,0,1-.3.55l-.47-.14s.54.43.12.64-2.22-.81-2.22-.81l-.87-.24s1.94,2.1,1.5,2.29-2.53-1.26-3.2-1.55-2.49-.94-3.2-1.19a9.93,9.93,0,0,1-1-.37A3.36,3.36,0,0,1,12.07,29a10.13,10.13,0,0,1,1.18-1.49l.75-.32.68.05s.78-1.14,1.37-1.21A1.78,1.78,0,0,1,17,26.08Z"/><path class="cls-7" d="M21.81,33.2,22,36.81l.36.26.57-.85s.37,2.2.72,2.22.46-.75.46-.75.1,1.11.53.87.45-1.74.45-1.74.44.73.76.48.33-1.8.33-1.8l-.36-1.67s-2-.39-2.48-.58A4.13,4.13,0,0,0,21.81,33.2Z"/><path class="cls-6" d="M9.59,46a3.29,3.29,0,0,1-2.28,2,14,14,0,0,1-3.6.54,2.14,2.14,0,0,0,.37,1.9,42.58,42.58,0,0,1,2.53,3.74A2.7,2.7,0,0,1,6.79,57,12.85,12.85,0,0,0,5,60.11,3.17,3.17,0,0,0,5.21,63a6.34,6.34,0,0,0,1.52,1.39c.36.17,1.89-.46,2.65-.9a32.38,32.38,0,0,0,3.33-3.19s1.65-1.47,1.71-2A5.35,5.35,0,0,0,13,55.58a13.85,13.85,0,0,1-2.15-3.93,15.22,15.22,0,0,1-.06-3.4l-.49-1.7Z"/><path d="M14.87,39.13Z"/><polygon points="14.8 39.1 14.8 39.1 14.8 39.1 14.8 39.1 14.8 39.11 14.8 39.1"/><path d="M14.53,39h0Z"/><polygon points="14.51 38.96 14.51 38.96 14.51 38.96 14.51 38.96"/><polygon points="14.51 38.96 14.5 38.95 14.51 38.96 14.51 38.96"/><polygon points="14.48 38.94 14.48 38.94 14.48 38.94 14.48 38.94"/><polygon points="14.48 38.94 14.48 38.93 14.48 38.94 14.48 38.94"/><polygon points="14.48 38.93 14.48 38.93 14.48 38.93 14.48 38.93"/><polygon points="14.37 38.86 14.37 38.86 14.37 38.86 14.37 38.86"/><path class="cls-8" d="M21.27,40.17h.22l.14-.05a.74.74,0,0,0,.12-.13.34.34,0,0,0,.06-.12v-.1a.53.53,0,0,0,0-.13h0v0h0a.14.14,0,0,0,0-.06h0v0a.93.93,0,0,1-.05-.1A.62.62,0,0,0,21.4,39c-.1,0-.25-.09-.35,0a1.33,1.33,0,0,0-.14.19.58.58,0,0,0-.1.12l0,.08a.23.23,0,0,0,0,.11h0a1.11,1.11,0,0,0,0,.19.34.34,0,0,1,0,.1s0,0,0,.06l0,.07s0,0,0,.06l.05.06,0,0,.09.06.09,0h0a.2.2,0,0,0,.08,0h.11Zm-.07.45c-.37-.08-1-.65-.81-1a1.07,1.07,0,0,1,.39-1,.89.89,0,0,1,1,.08c.71.52.52,2-.44,2Z"/><polygon points="20.87 40 20.87 40 20.87 40 20.87 40"/><polygon points="21.77 39.52 21.77 39.52 21.77 39.52 21.77 39.52"/><polygon points="21.77 39.52 21.77 39.52 21.77 39.52 21.77 39.52"/><polygon points="21.77 39.52 21.77 39.52 21.77 39.52 21.77 39.52 21.77 39.52"/><polygon points="21.77 39.51 21.77 39.52 21.77 39.52 21.77 39.52 21.77 39.51"/><path d="M21.76,39.51h0Z"/><path d="M17.39,43.84Z"/><polygon points="17.07 43.84 17.07 43.84 17.07 43.84 17.07 43.84"/><polygon points="17.07 43.84 17.08 43.84 17.07 43.84 17.07 43.84"/><polygon points="17.08 43.84 17.08 43.84 17.08 43.84 17.08 43.84"/><polygon points="17.08 43.84 17.08 43.84 17.08 43.84 17.08 43.84"/><polygon points="17.5 43.61 17.5 43.61 17.49 43.61 17.5 43.61"/><polygon points="17.5 43.61 17.5 43.61 17.5 43.61 17.5 43.61"/><polygon points="17.81 43.42 17.81 43.42 17.81 43.42 17.81 43.42"/><polygon points="17.81 43.42 17.81 43.42 17.81 43.42 17.81 43.42"/><path d="M18.5,43.29Z"/><path d="M18.49,43.28h0Z"/><path d="M18.5,43.28Z"/><path d="M18.49,43.27Z"/><polygon points="18.47 43.26 18.47 43.26 18.47 43.26 18.47 43.26"/><polygon points="18.46 43.24 18.46 43.24 18.46 43.25 18.46 43.24"/><path d="M18.41,43.22h0Z"/><polygon points="18.35 43.2 18.35 43.2 18.35 43.2 18.35 43.2"/><polygon points="16.07 43.08 16.07 43.08 16.07 43.08 16.07 43.08"/><polygon points="13.78 42.66 13.78 42.66 13.78 42.66 13.78 42.66"/><polygon points="6.71 42.54 6.71 42.54 6.72 42.55 6.71 42.54"/><polygon points="7.1 35.25 7.1 35.25 7.1 35.25 7.1 35.25"/><path class="cls-5" d="M7.12,35.17h0Z"/><polygon points="7.27 34.87 7.27 34.87 7.27 34.87 7.27 34.87"/><path d="M7.9,33.39h0Z"/><path d="M7.62,33.29Z"/><path d="M11.29,33.82h0Z"/><polygon points="13.69 42.63 13.69 42.63 13.69 42.63 13.69 42.63"/><polygon points="14.41 41.02 14.42 41.03 14.42 41.03 14.41 41.02"/><path d="M14.53,39Z"/><path d="M14.52,39Z"/><polygon points="14.51 38.96 14.51 38.96 14.51 38.96 14.51 38.96 14.51 38.96 14.51 38.96"/><path d="M14.51,39Z"/><polygon points="14.51 38.96 14.5 38.95 14.51 38.96 14.51 38.96"/><polygon points="14.48 38.93 14.48 38.93 14.48 38.93 14.48 38.93"/><path d="M14.48,38.93Z"/><path d="M14.37,38.86h0Z"/><path d="M14.37,38.86Z"/><path class="cls-9" d="M9.68,46.29c-.21,0-.24-.23-.21-.4A21,21,0,0,0,9,43.09H9.1l0,0h.37c.09.45.17.9.26,1.35s.45,1.81-.07,1.81Z"/><path class="cls-9" d="M9.58,45.23h0a3.38,3.38,0,0,0-.1-.71.78.78,0,0,0,0-.37.22.22,0,0,0-.2-.16c0-.06,0-.13,0-.2s0,0-.06-.07a.25.25,0,0,0-.29-.35l-.2.05a.19.19,0,0,0-.22-.16h0a.26.26,0,0,0-.29-.35h0A.19.19,0,0,0,8,42.7a.23.23,0,0,0-.22-.31H7.58a.24.24,0,0,0-.17-.23l-.17,0A.23.23,0,0,0,7,41.93a1.85,1.85,0,0,0-.84.19h0l-.06,0c-.26.14-.07.51.2.46h0l-.11.08h0a.1.1,0,0,0,0,0,.24.24,0,0,0,.28.39.21.21,0,0,0,.21.15.23.23,0,0,0,.06.26.26.26,0,0,0,0,.41.25.25,0,0,0,.22.43l.21-.06a.22.22,0,0,0,.22.08l.12,0a.21.21,0,0,0,.09.19.53.53,0,0,0-.32.45.26.26,0,0,0,.2.24.27.27,0,0,0,.07.21.61.61,0,0,0-.16.27.25.25,0,0,0,.22.31l0,0a.22.22,0,0,0,.09.29l-.11.11a.27.27,0,0,0,0,.37l-.16.09a.49.49,0,0,0,.19.73,3.57,3.57,0,0,0,1.42-1.09h0a.21.21,0,0,0,0-.06s0,0,.05,0a1.26,1.26,0,0,0,.13-.26l0,0a.25.25,0,0,0,.1-.31h0s.06-.06.06-.11v-.3h0A1.47,1.47,0,0,0,9.58,45.23Z"/><path d="M9.28,43.15Z"/><path d="M9.41,43.13Z"/><path d="M9.47,43.13Z"/><path d="M9.1,43.12h0Z"/><path class="cls-8" d="M8.81,50.83a.09.09,0,0,0,0,.06A.32.32,0,0,0,9,51h.12a.36.36,0,0,0,.2-.06c.48-.1.49-.59.31-1s-.46-.51-.77-.25l-.05,0h0a.14.14,0,0,0-.08,0l0,.06h0a.36.36,0,0,0-.07.1l0,.06a.43.43,0,0,0,0,.16.43.43,0,0,0,0,.16c0,.05,0,.09,0,.14h0a.58.58,0,0,0,.08.22h0l0,.06a.13.13,0,0,0,.07.06l0,0h0Zm.2.61a.77.77,0,0,1-.53-.34l0-.08h0l-.06-.16,0-.07a.08.08,0,0,0,0,0v0h0s0,0,0-.06l0,0h0s0,0,0,0h0v0h0v0h0a.64.64,0,0,0,0-.07h0s0-.05,0-.07a.06.06,0,0,0,0,0h0a.28.28,0,0,0,0-.09v-.06a.09.09,0,0,0,0,0s0-.07,0-.11a.37.37,0,0,1,0-.11v0h0v0h0v0h0s0-.05,0-.08,0-.06,0-.09A1.29,1.29,0,0,1,9.2,49a.9.9,0,0,1,.91.77c.35.84,0,1.64-.95,1.64Z"/><path d="M8.31,50.61Z"/><polygon points="8.31 50.6 8.31 50.6 8.31 50.61 8.31 50.6"/><polygon points="8.27 50.49 8.27 50.49 8.27 50.49 8.27 50.49"/><polygon points="8.25 50.42 8.25 50.42 8.25 50.42 8.25 50.42"/><polygon points="8.22 50.31 8.22 50.31 8.22 50.31 8.22 50.31"/><polygon points="8.22 50.3 8.22 50.3 8.22 50.3 8.22 50.31 8.22 50.3"/><path d="M8.21,50.15h0Z"/><polygon points="8.26 49.85 8.26 49.85 8.26 49.85 8.26 49.85"/><polygon points="8.26 49.84 8.26 49.84 8.26 49.84 8.26 49.84 8.26 49.84 8.26 49.84 8.26 49.84 8.26 49.85 8.26 49.84"/><path d="M8.26,49.83h0Z"/><polygon points="8.27 49.78 8.27 49.78 8.27 49.78 8.27 49.78"/><path d="M8.79,50.81h0Z"/><polygon points="8.66 50.66 8.66 50.66 8.66 50.66 8.66 50.66"/><path d="M8.75,50h0Z"/><path class="cls-9" d="M1.52,44h0v0h0l-.05-.12a.42.42,0,0,0,0-.1l0-.09,0-.07h0l0-.08h0l0-.1,0,0,0-.1.25.19c.12.08.29.13.28.31a.24.24,0,0,1-.22.23Z"/><path d="M1.08,43.33h0Z"/><path d="M.46,43Z"/><path d="M1,38H1Z"/><path d="M1,37.91H1Z"/><path d="M1.44,37.12v0l0,0Z"/><path d="M1.57,36.89Z"/><path d="M2.43,36.34h0Z"/><path d="M3.11,35.46h0v0Z"/><polygon points="4.13 33.24 4.14 33.25 4.14 33.25 4.13 33.24"/><path d="M4.5,33.08h0Z"/><path d="M4.77,31.69Z"/><polygon points="4.76 31.69 4.76 31.69 4.76 31.69 4.76 31.69"/><path d="M6.81,42Z"/><path class="cls-10" d="M11.92,24.76a.24.24,0,1,1,.24.23A.24.24,0,0,1,11.92,24.76Z"/><path class="cls-10" d="M12.21,25.93a.24.24,0,0,1,.23-.25.25.25,0,0,1,.25.23.24.24,0,0,1-.23.25A.25.25,0,0,1,12.21,25.93Z"/><path d="M17.07,43.84Z"/><polygon points="17.43 43.65 17.43 43.65 17.42 43.66 17.43 43.65"/><path d="M6.81,42Z"/><path d="M6.81,42Z"/><path d="M9.1,43.12h0Z"/><polygon points="12.95 41.92 12.95 41.92 12.95 41.92 12.95 41.92"/><polygon points="17.07 43.84 17.07 43.84 17.07 43.84 17.07 43.84"/><polygon points="17.07 43.84 17.08 43.84 17.07 43.84 17.07 43.84"/><polygon points="17.08 43.84 17.08 43.84 17.08 43.84 17.08 43.84"/><polygon points="17.08 43.84 17.08 43.84 17.08 43.84 17.08 43.84"/><polygon points="16.83 43.46 16.83 43.46 16.83 43.46 16.83 43.46"/><path d="M4.61,35.77h0Z"/><polygon points="5.5 34.12 5.49 34.12 5.5 34.13 5.5 34.12"/><path d="M5.4,34.08h0Z"/><path d="M5.61,33.87h0Z"/><path d="M5.54,33.86h0Z"/><polygon points="5.78 33.57 5.78 33.57 5.79 33.58 5.78 33.57"/><polygon points="6.06 33.34 6.06 33.34 6.06 33.34 6.06 33.34"/><polygon points="6.42 32.7 6.42 32.7 6.42 32.7 6.42 32.7"/><path class="cls-10" d="M13.19,42.7a.21.21,0,0,0-.23-.26s0,0,0-.06a.25.25,0,0,0-.17-.11.25.25,0,0,0-.18-.19h0a.24.24,0,0,0-.34-.2l-.12.06a.34.34,0,0,0-.43,0,2.33,2.33,0,0,0-.88.46c-.16.11-.35.29-.28.49h-.17a.24.24,0,0,0-.21.43l.08,0,.14,0a13.64,13.64,0,0,0,2.71-.21c.18,0,.47,0,.46-.29S13.35,42.68,13.19,42.7Z"/><path class="cls-11" d="M10.15,43.37h0Z"/><path class="cls-9" d="M3.76,47.71c-.16-.35-.34-.7-.5-1.05C3,46.09,2.77,45.53,2.5,45c-.13-.28-.27-.56-.42-.83a7.18,7.18,0,0,1-.35-.87c-.1-.29-.23-.58-.32-.88s0-.42,0-.66a.24.24,0,0,0-.35-.23C1,41.58.92,41.8.9,42a1.39,1.39,0,0,0,.06.64,2.12,2.12,0,0,1,.13.38c.06.22.18.43.26.65a14,14,0,0,0,.71,1.52c.27.56.5,1.13.76,1.68l.39.85.19.43c.05.11.07.26.13.37a.24.24,0,0,0,.42,0A.59.59,0,0,0,3.89,48C3.85,47.91,3.8,47.81,3.76,47.71Z"/><polygon class="cls-9" points="1.5 44 1.49 43.99 1.49 43.99 1.5 44"/><path class="cls-8" d="M21.37,31.32a.45.45,0,0,0,.12-.06s0,0,0,0c.2.16.53.08.51-.22a.22.22,0,0,0-.13-.2,9.56,9.56,0,0,0,.89-1.2,5.63,5.63,0,0,0,.62-1l0-.07h0l0-.06c.07-.16-.06-.27-.2-.29a3,3,0,0,0,.11-.52.25.25,0,1,0-.48-.13,5,5,0,0,1-1.44,2.59.62.62,0,1,0-.08,1.14Z"/><path class="cls-8" d="M24.61,38.67a.26.26,0,0,0-.11-.14.24.24,0,0,0-.44-.1c0,.06-.07.11-.1.16a.3.3,0,0,0-.2-.14.21.21,0,0,0-.11-.19s-.06,0-.09,0a.21.21,0,0,0-.08-.17.25.25,0,0,0-.19,0h0a.17.17,0,0,0,0-.05h0l0-.05s0,0,0-.06h0a.83.83,0,0,1-.2-.32.75.75,0,0,1-.09-.39v0a2.17,2.17,0,0,1,0-.25c-.12-.08-.3-.1-.36.06a1.27,1.27,0,0,1-.18.29h0a.23.23,0,0,0-.29,0l-.07.07a.24.24,0,0,0-.09-.15.24.24,0,0,0-.3-.31.18.18,0,0,0-.08-.07c0-.11.08-.22.11-.33a.21.21,0,0,0-.06-.2l.1-.24a.26.26,0,0,0-.17-.31h-.05c0-.1.07-.2.09-.3a.27.27,0,0,0-.09-.24c.08-.19.17-.38.25-.58a.25.25,0,0,0-.11-.34s0,0,0-.06a.24.24,0,0,0-.16-.35.19.19,0,0,0,0-.13c.23-.22-.1-.53-.34-.35a.23.23,0,0,0,0-.23.24.24,0,0,0-.38-.3l-.18.15a.22.22,0,0,0-.28,0l-.11.08a.24.24,0,0,0-.24-.21.24.24,0,0,0-.24-.16.24.24,0,0,0-.35-.12.23.23,0,0,0-.2-.12.24.24,0,0,0-.24,0,.27.27,0,0,0-.27.32A.25.25,0,0,0,19,33h0c-.06.22.14.33.32.28a.22.22,0,0,0,.09.1.3.3,0,0,0,.08.18.35.35,0,0,0-.05.08.34.34,0,0,0,0,.14L19,34a.32.32,0,0,0-.23-.06.29.29,0,0,0-.31,0l-.12.09a.14.14,0,0,0-.09,0s-.05,0-.08-.06h-.06c-.08-.27-.52-.15-.46.16l0,.13a.25.25,0,0,0,.13.14.24.24,0,0,0,.4.21.21.21,0,0,0,.26,0,.25.25,0,0,0,.37.17l.29-.17-.08.16c-.1.24.26.41.42.24l.07-.07-.17.45c-.1.28.31.43.46.19l.27-.41-.24,1a.25.25,0,0,0,.46.2l.22-.36a.29.29,0,0,0,.14.13l-.11.24a.27.27,0,0,0,.09.34.28.28,0,0,0,.18,0,.26.26,0,0,0,.15,0,10.28,10.28,0,0,1-.53.91c-.16.23.2.51.39.3.05,0,.08-.11.13-.16s0,.06.07.07h0c0,.19.27.34.41.17l0,0a.26.26,0,0,0,.2.18h.08s0,0,0,0a.26.26,0,0,0,.21.3,3.08,3.08,0,0,1-.24.27.26.26,0,0,0,.31.4l0,0h0l.29-.23.11,0a.2.2,0,0,0,.16.09.26.26,0,0,0,.12.18.24.24,0,0,0,.07.24l-.42.66a.25.25,0,0,0,.34.34l.18-.12.07,0v0a.2.2,0,0,0,0,.28.25.25,0,0,0,.43.18,12.44,12.44,0,0,0,.78-1.12,5.35,5.35,0,0,0,.41-.7l0-.06h0s0,0,0-.06S24.73,38.72,24.61,38.67Z"/><path class="cls-8" d="M12.75,54.82a8,8,0,0,1-1.27-2.56,14.56,14.56,0,0,1-.5-2.34,6.65,6.65,0,0,0-.64-3.71c-.14-.24-.49-.82-.78-.44a.21.21,0,0,0,0,.24,8,8,0,0,1-.79.87,7.27,7.27,0,0,1-2.47,1.24,6.4,6.4,0,0,1-1.3.35,9,9,0,0,1-1.16-.08.23.23,0,0,0-.43,0c-.37.37,0,1.42.2,1.79.72,1.12,1.52,2.16,2.21,3.31.34.59.91,1.11.93,1.84a2.84,2.84,0,0,1-.59,2.17c-.3.48-.56,1-.86,1.45a3.27,3.27,0,0,0-.6,1.28,3.81,3.81,0,0,0,.73,3.3c.38.34.71.8,1.23.93a3.26,3.26,0,0,0,1.88-.36,8.34,8.34,0,0,0,1-.5c.21-.16.4-.33.62-.48h0c1.36-.93,2.25-2.42,3.45-3.55.38-.38.94-.74,1-1.31a3.05,3.05,0,0,0-.36-1.45A23.1,23.1,0,0,0,12.75,54.82ZM12,54.48l0,0,0,0Zm.85,3.86,0,0a6.64,6.64,0,0,1-.6.71C12.44,58.81,12.62,58.57,12.81,58.34ZM5.67,63.09a1.93,1.93,0,0,1-.34-.53,3.68,3.68,0,0,1,.24-3.07c.63-1,1.58-2.14,1.69-3.37.14-1.52-.85-2.62-1.64-3.83a12.39,12.39,0,0,1-1.73-2.64c-.17-.51-.22-.77.36-.8a8.12,8.12,0,0,0,1.21,0,10.63,10.63,0,0,0,1.71-.55A6.36,6.36,0,0,0,7.92,48a.35.35,0,0,0,.14.06.25.25,0,0,0,.27.32l-.09.05h0l-.06,0c-.22.1-.11.42.08.45a.25.25,0,0,0,.37.25l0,0a.23.23,0,0,0,.29.17,2.76,2.76,0,0,1,.27-.08.22.22,0,0,0,.27.11l.13,0a.28.28,0,0,0,.3.19.25.25,0,0,0,.08.12.2.2,0,0,0,.06.15.19.19,0,0,0,0,.16,1.43,1.43,0,0,0-.1.33s0,0,0,0v0a.19.19,0,0,0,0,.18l-.12.19a.24.24,0,0,0,0,.29l-.11.19a.22.22,0,0,0,0,.17l-.17.17a.25.25,0,0,0,0,.34L9.42,52a.24.24,0,0,0,.2.41.26.26,0,0,0,.31.24.24.24,0,0,0,.22.21.57.57,0,0,0-.08.13.29.29,0,0,0,0,.3c-.09.11-.18.21-.27.33s.14.47.34.34l.1-.06a.24.24,0,0,0,.29.24v0a.78.78,0,0,0-.16.72.33.33,0,0,0,.15.16l-.2.34c-.16.26.18.46.39.3l0,0a.33.33,0,0,0,.22,0l0,.05A.2.2,0,0,0,11,56l-.07.09c-.15.22.15.46.35.33l0,.06L11,56.8c-.16.23.17.47.37.32a.32.32,0,0,0,.18.1l-.63.89c-.12.15,0,.32.17.36l-.14.18c-.16.21,0,.58.3.4h.05a.21.21,0,0,0,.06.1c-.13.23.21.5.39.28a1.59,1.59,0,0,0,.13-.13s.06,0,.1,0l-.42.41a38,38,0,0,1-3,2.39C7.94,62.57,6.49,64,5.67,63.09Zm8.47-4.73a10.27,10.27,0,0,1-1.33,1.39,19.47,19.47,0,0,1-2.88,3h0a5.7,5.7,0,0,1-1.39.87c-.58.23-1.28.64-1.92.36a.88.88,0,0,1-.25-.18l.27,0a2.8,2.8,0,0,0,1.07-.41c.74-.58,1.49-1.15,2.24-1.72a15.28,15.28,0,0,0,3.44-3.32c.16-.34.35-.67.53-1A2,2,0,0,1,14.14,58.36Z"/><path class="cls-8" d="M17.39,26.35a1,1,0,0,0,.22.25c.65.62,1.4,1.11,2.07,1.71.24.19.54-.18.3-.37-.65-.59-1.39-1.07-2-1.67a1.52,1.52,0,0,0-.22-.22,5.32,5.32,0,0,1,.57-.43l0,.05c.74.51,1.42,1.12,2.11,1.7a17,17,0,0,1,1.47,1.35.23.23,0,0,0,.3,0s0,0,0,0a8.53,8.53,0,0,1-1,1.37l-.19.2c-.14-.11-.27-.21-.41-.3a9.8,9.8,0,0,1-.85-.58c-.2-.13-.43-.44-.68-.26a.25.25,0,0,0,0,.34,5.2,5.2,0,0,1,.47.35c.37.28.79.52,1.16.8-.11.15-.15.3,0,.42A.25.25,0,0,0,21,31a14.43,14.43,0,0,0,1.38-1.64A3.13,3.13,0,0,0,23,27.77a1.34,1.34,0,0,0,0-.2,4.26,4.26,0,0,1,.07.87,1.72,1.72,0,0,1-.11.67,12.77,12.77,0,0,1-1.48,2.24c-.52.94-.75,1.66.11,2.48a.24.24,0,0,0,.36-.32,1.24,1.24,0,0,1-.47-.84A3.32,3.32,0,0,1,22.36,31a9.06,9.06,0,0,0,1.06-1.71,3.28,3.28,0,0,0,.13-1.43A2.24,2.24,0,0,0,23,26.48a.83.83,0,0,0-.13-.14,1.52,1.52,0,0,0-.35-.54,2.93,2.93,0,0,0-3.05-1.14,3.7,3.7,0,0,0-1.43.53c-.24.22-1.63,1.07-1.17,1.42C17.12,26.76,17.24,26.51,17.39,26.35Zm4.88,2.21a.22.22,0,0,0-.07-.21c-.45-.39-.82-.87-1.3-1.22-.72-.58-1.4-1.21-2.16-1.74a2.84,2.84,0,0,1,.77-.22.27.27,0,0,0,.21.16c.25.18.49.38.74.58.71.59,1.36,1.25,2.07,1.85A2.5,2.5,0,0,1,22.27,28.56Zm-.55-3a7.89,7.89,0,0,1,.65.76.94.94,0,0,1,.06.15s0,0,0,0a1.64,1.64,0,0,1,.13.62h0c-.79-.67-1.51-1.4-2.34-2,.16,0,.3,0,.46,0A2,2,0,0,1,21.72,25.6Z"/><path class="cls-12" d="M21.63,33.84h0Z"/><polygon class="cls-12" points="14.87 39.13 14.88 39.14 14.88 39.14 14.87 39.13"/><path class="cls-8" d="M24.66,38.56a2.62,2.62,0,0,0-.16.42c-.62,2-2.73,4.37-5,4.22-1.06-.07-2-2-2.69-2.74A17.35,17.35,0,0,0,14.51,39a9.68,9.68,0,0,1-2-1.86,5.13,5.13,0,0,0,3.52-1.47,10.85,10.85,0,0,0,1.55-1.48c.13-.15.46-.48.2-.67s-.5.32-.67.46-.44.15-.79-.07-.57-.41-.85-.61c-.52-.38-1.11-.66-1.63-1-.19-.15-.56-.45-.52.07,0,.25.37.43.55.54.89.58,1.79,1.12,2.66,1.72-.17.22-.56.65-.83.64s-.72-.49-.91-.62c-.6-.42-1.19-.86-1.81-1.23-.16-.1-.32-.36-.47-.35s-.56.42-.65.6a3.52,3.52,0,0,0-.4,3,7.15,7.15,0,0,0,1.82,2c.94.86,2.18,1.31,3.08,2.21s1.38,2.09,2.33,2.75,2.53-.14,3.35-.64a6.44,6.44,0,0,0,2.45-2.67c.16-.32.75-1.27.57-1.64S24.76,38.34,24.66,38.56Zm-12-1.91a.87.87,0,0,1-.4-.16c-.17-.07-.34-.12-.42-.31a1.59,1.59,0,0,1-.06-.37s0,0,0,0q.59.4,1.2.78A2.17,2.17,0,0,1,12.66,36.65Zm-.71-2,.3.21c.6.37,1.16.8,1.75,1.2l.25.18a3.88,3.88,0,0,1-.56.23c-.47-.28-.93-.57-1.39-.88l-.49-.37h0A5.12,5.12,0,0,1,12,34.66Zm.17-.45h0Zm.33-.67c.21.12.41.27.62.4.79.52,1.55,1.09,2.34,1.59-.21.16-.43.31-.65.45a.24.24,0,0,0-.15-.09,2.22,2.22,0,0,1-.46-.29c-.66-.48-1.34-.94-2-1.4v0C12.22,34,12.34,33.75,12.45,33.54Z"/><path class="cls-8" d="M9,50.66c-.17,0-.28-.33-.12-.43a.2.2,0,0,1,.26-.15.18.18,0,0,1,.18.08c.07.12.11.32,0,.41A.31.31,0,0,1,9,50.66Z"/><path class="cls-8" d="M21.47,39.27l-.1,0a.21.21,0,0,0-.23,0,.5.5,0,0,0-.29.48v0s0,0,0,.08,0,.05,0,.07a.24.24,0,0,0,.28.14A.41.41,0,0,0,21.47,39.27Z"/><path class="cls-13" d="M21.22,29.59c1.2,0,1.15-1,0-1.2s-2.23-.48-3.34-.76c-.3-.12-.93-.27-1-.64s.18-.45.27-.7a.24.24,0,0,0,0-.47.7.7,0,0,0-.14,0s0,0,0,0a1.85,1.85,0,0,0-1.66.37c-.34.26-.52.64-.92.84a2.76,2.76,0,0,1-.8.25c-.21,0-.56,0-.52.29s.47.17.7.16a2.71,2.71,0,0,0,1.37-.66,3,3,0,0,1,.58-.6,1.62,1.62,0,0,1,.91-.22l0,0a1.12,1.12,0,0,0-.15,1.06c.53.73,1.55.81,2.36,1a22.56,22.56,0,0,1,2.72.69,20.64,20.64,0,0,1-2.95.09c-.74.09-.68.66-.14,1,.77.63,1.76.9,2.54,1.49.08.07.18.21.13.32a12.52,12.52,0,0,1-3.09-1.37.24.24,0,0,0-.31.14c-.09.35.42.39.63.54a14.74,14.74,0,0,0,1.86.94c.1.1.25.16.28.32-1-.29-1.88-.95-2.89-1.21-.39-.06-.49.31-.27.58A15,15,0,0,1,19,33.73h0l0,0a.78.78,0,0,0-.33,0,32.38,32.38,0,0,0-3.13-1.79c-.68-.26-1.35-.57-2-.8A10.22,10.22,0,0,1,12,30.62a.24.24,0,0,0-.11.46,9.59,9.59,0,0,0,1.57.51c.5.16,1,.39,1.48.58a24,24,0,0,1,3.62,2,.2.2,0,0,0,.22,0c.22.08.51.11.65-.13.56-.53-1-1.67-1.28-2.09.56.21,1.06.56,1.63.75.36.12.79.44,1.17.21a.44.44,0,0,0,.14-.5.53.53,0,0,0,.65-.57c-.11-.69-.88-.95-1.43-1.23a8.15,8.15,0,0,1-1.61-1C19.49,29.51,20.36,29.66,21.22,29.59Z"/><path class="cls-10" d="M18.18,25.12h0a1.43,1.43,0,0,1,.21-.12l.21-.09c-.2-.52-.37-1-.53-1.59a10.24,10.24,0,0,1-.31-3.86.25.25,0,0,0-.16-.29.24.24,0,0,0-.32.25c0,.33,0,.7,0,1a9.94,9.94,0,0,0,.59,3.7C18,24.47,18.06,24.8,18.18,25.12Z"/><path class="cls-10" d="M14.25,26.94h0c-.06-.18-.21-.19-.37-.18a18.85,18.85,0,0,0-1.13-3.07h0c.13-.33.24-.67.35-1a21.65,21.65,0,0,0,.9-4.06.24.24,0,0,0-.47,0,19.58,19.58,0,0,1-.67,3.2c-.12.45-.25.86-.41,1.3a18.91,18.91,0,0,0-1.76-2.42c-.4-.47-.8-.94-1.17-1.43L9.34,19a2.66,2.66,0,0,1-.66-.16,1.69,1.69,0,0,0,.24.41c.86,1.07,1.76,2.13,2.6,3.22a14.45,14.45,0,0,1,1.84,4.17c-.41-.14-.82-.26-1.24-.39a12.72,12.72,0,0,0-2.33-.77,11.7,11.7,0,0,0-2.93-.32A7.76,7.76,0,0,0,6.32,23a5,5,0,0,0-1-1.59,10.72,10.72,0,0,0-1.07-.81c-.28-.3-.62.17-.28.38a5.9,5.9,0,0,1,1.32,1.11,7,7,0,0,1,1.12,3.12,5.14,5.14,0,0,0-2,.64.24.24,0,0,0,.22.42,5.37,5.37,0,0,1,2.06-.63,11.94,11.94,0,0,1,3.89.56c.75.17,1.42.58,2.18.74l.52.17a3.82,3.82,0,0,0-1.52,2.11c-.31,1.12-.39,2.95.49,3.85a.2.2,0,0,0-.13,0,3.55,3.55,0,0,1-2,.19,11.29,11.29,0,0,1-2.31-.48,8.25,8.25,0,0,1-1.11-.56c-.24-.12-.51-.17-.74-.3-.57-.38-1.11-.83-1.69-1.22a11.74,11.74,0,0,1-1.41-1.41,11.83,11.83,0,0,1-2-6.45,12.76,12.76,0,0,1,.85-4.18,7.79,7.79,0,0,1,1.45-2.45c.12-.14.23-.29.34-.43a.24.24,0,0,0,0-.37c-.34-.25-.58.42-.81.6A9.62,9.62,0,0,0,.75,20a10.9,10.9,0,0,0,0,5.94,10.58,10.58,0,0,0,1.89,3.94c.28.29.56.59.86.88a.09.09,0,0,1,.05,0l0,0,.12.12h0l.17.16,0,0c.2.16.42.3.63.45h0l.09.08.27.2a4,4,0,0,0,1.15.72h0l.08,0,0,0h0l.14,0a12.46,12.46,0,0,0,1.15.59h0l.06,0,.11,0a12.54,12.54,0,0,0,2.92.54h.36a2.86,2.86,0,0,0,1-.19l.15-.06a.24.24,0,0,0,.17-.32c.57.27,1.37-.81,1.35-1.32a.24.24,0,0,0-.48,0,1.24,1.24,0,0,1-.67.93,2.81,2.81,0,0,1-.59-2,3.82,3.82,0,0,1,1.38-3.16,1.22,1.22,0,0,1,.46-.22c.16,0,.34.16.48,0S14.37,27.07,14.25,26.94Z"/><path class="cls-10" d="M27.54,34.11a.56.56,0,0,0,.07-.46c-.2-1.39-.36-2.78-.47-4.18a24,24,0,0,0-.68-5.07,6.39,6.39,0,0,0-3-4,10,10,0,0,1-2.63-1.33c-.45-.45-.71-1.08-1.16-1.54-.63-.64-1.58-.93-2.11-1.65-.09-.12-.2-.29-.37-.3a.23.23,0,0,0-.23.32,2.07,2.07,0,0,0,.72.78A12.91,12.91,0,0,1,19.44,18c.36.39.6.89.95,1.28.92,1,2.42,1.22,3.54,2a5.43,5.43,0,0,1,1.92,2.79,16.08,16.08,0,0,1,.6,3.38L27.13,34,23.58,33a3.79,3.79,0,0,0-2-.14.4.4,0,0,0,.23.37A27.1,27.1,0,0,1,27,34.45c.11,0,.25.1.26.22a.31.31,0,0,1-.09.2,2.43,2.43,0,0,1-.8.63c-.2.1-.46.29-.35.48s.35.09.51,0a2.64,2.64,0,0,0,1-.74A.92.92,0,0,0,27.54,34.11Z"/><path class="cls-13" d="M26.15,34.21l-.29-.1-.15,0-.1,0v0a4.88,4.88,0,0,1,.16.66,3.6,3.6,0,0,1,0,2.36,2.16,2.16,0,0,1-.32-.9,9.91,9.91,0,0,1-.19-1.88.24.24,0,0,0-.46,0,3.31,3.31,0,0,0,0,1,15.59,15.59,0,0,1-.13,3c-.49-1.24-.23-2.6-.39-3.89,0-.42-.53-.38-.51,0a21.42,21.42,0,0,1,0,3.67,10.73,10.73,0,0,1-.55-3.19c0-.2,0-.46,0-.68a.42.42,0,0,0-.11-.31.24.24,0,0,0-.39.15c0,.34,0,.63-.06,1a4.43,4.43,0,0,1-.29,1.76h0a1.1,1.1,0,0,1-.17-.64c0-.49,0-1-.05-1.46a11.2,11.2,0,0,1,0-1.42H22a.63.63,0,0,1-.24,0s0,.15,0,.18c0,.73,0,1.35,0,2.08A3.34,3.34,0,0,0,21.91,37c.42.56.88.25,1-.33.15.57.25,1.7.77,2,.24.09.44-.13.51-.34a.65.65,0,0,0,.47.51c.63,0,.56-1.18.61-1.62.59.75,1,0,1.11-.6A8.64,8.64,0,0,0,26.15,34.21Z"/><path class="cls-7" d="M10.59,19.8a6,6,0,0,0,2.28-.86c1.23-.63,1-.67,1-.67l1.51-1.46a11.17,11.17,0,0,0,.3-1.79,5.81,5.81,0,0,1,.4-1.61L16.51,11l.23-2.7a5.41,5.41,0,0,1-2.11-.2,25.94,25.94,0,0,1-2.1-1.74,4.66,4.66,0,0,1-1.31,2.33A23.76,23.76,0,0,1,7.44,11c-1,.29-2,.66-2,.66s-1.11-1.44-1.65-1.45c-1.1,0-.87,1.1-.55,1.9a9.23,9.23,0,0,0,1.85,2.11,4.54,4.54,0,0,0,1.21,2.65c1.07,1,2.14,2,2.36,1.85s.28.14.28.14Z"/><path class="cls-14" d="M5.5,11.68s1-.32,1.86-.66a14.19,14.19,0,0,0,3.23-1.75c.55-.56.68-1,1.16-1.44a3.54,3.54,0,0,0,.7-1.45,3.7,3.7,0,0,0,1.36,1.43,15.5,15.5,0,0,0,2.85.51,5.68,5.68,0,0,1-.22,2.29A30.34,30.34,0,0,0,15.6,15a31.88,31.88,0,0,0-.14,3.53l.76-1.66.44,1.81A13.7,13.7,0,0,0,17,15.38s-.2-4.45-.13-5.31.23-5.05-.78-6.36S12.79.58,11.52.48l-1.3.21A2.94,2.94,0,0,0,8,.39,6.33,6.33,0,0,0,4,3.91c-1.16,2.44-1,7-1,7L3.38,14a12.21,12.21,0,0,0,.29,3.25,17.79,17.79,0,0,0,1.16,2.7l-.15-1.25.05-.74a5.6,5.6,0,0,0,.9,1.59,4.68,4.68,0,0,0,.73.63L5.75,18a11.26,11.26,0,0,0,1,.86,1.62,1.62,0,0,0,.65.31,5.25,5.25,0,0,1-.94-1.84A7.93,7.93,0,0,0,5.18,15.1L5,13.91l-1.4-1.1a3.47,3.47,0,0,1-.69-1.51c0-.55,0-.88.52-1.1a1.11,1.11,0,0,1,1.33.5C5.14,11.16,5.5,11.68,5.5,11.68Z"/><path class="cls-4" d="M8.27,13.76c-.31-.14-.16-.44.08-.55a4.59,4.59,0,0,1,1.92-.87,3.4,3.4,0,0,1,1.19,0,.24.24,0,0,1-.07.48,3.42,3.42,0,0,0-2.65.7C8.58,13.59,8.46,13.81,8.27,13.76Z"/><path class="cls-4" d="M15.59,13.46a.28.28,0,0,1-.17-.11.3.3,0,0,1,0-.1,4.68,4.68,0,0,0-1.68-.51.24.24,0,0,1,.19-.44c.47,0,1.78.34,1.95.79A.24.24,0,0,1,15.59,13.46Z"/><path class="cls-4" d="M9.92,14.76a1.12,1.12,0,0,1-.81-.26.25.25,0,0,1,.29-.41.24.24,0,0,1,.09.11.7.7,0,0,0,.31.07,1.16,1.16,0,0,0,.68-.14.24.24,0,0,1,.27.39A1.86,1.86,0,0,1,9.92,14.76Z"/><path class="cls-4" d="M14.14,14.67c-1.17-.16-.49-1.09-.19-.55a.67.67,0,0,0,.6,0s0,0,.06,0a.25.25,0,0,1,.34,0C15.31,14.51,14.45,14.75,14.14,14.67Z"/><path class="cls-4" d="M12,16.87l-.71-.14a.24.24,0,0,1,.13-.46,4.78,4.78,0,0,0,.91.14c.29,0,.76-.37.91,0a.23.23,0,0,1-.17.29A2.16,2.16,0,0,1,12,16.87Z"/><path class="cls-4" d="M11.83,18.12a2.75,2.75,0,0,1-.85-.18.24.24,0,0,1-.07-.44l.1,0a.34.34,0,0,1,.17.05h0a1.35,1.35,0,0,0,1.36-.11.25.25,0,0,1,.35.15c.09.36-.81.61-1.08.57Z"/><path class="cls-4" d="M4.53,12.44a2.32,2.32,0,0,0-.73-.83c-.12-.13-.35-.09-.41-.28s.22-.38.44-.27a2.88,2.88,0,0,1,1.09,1.1A.24.24,0,0,1,4.53,12.44Z"/><path d="M4.59,14h0v0Z"/><path class="cls-1" d="M4.59,14.05a5.15,5.15,0,0,1-1-.77,21.48,21.48,0,0,0,.18,3A7.48,7.48,0,0,0,4.47,19c0-.34-.3-1.17,0-1.43s.45.26.54.46a5.35,5.35,0,0,0,.83,1.27C5.77,19,5.32,18,5.6,17.75s.82.65,1.05.81a7,7,0,0,1-.71-1.72,2.29,2.29,0,0,0,.49.54A10.17,10.17,0,0,1,4.59,14.05Z"/><path class="cls-1" d="M15.64,16l0,0c.23.25.09,1,.15,1.33.06-.22.1-1.23.54-1s.25,1.11.33,1.42a11.55,11.55,0,0,0,0-2.2q0-1.17-.06-2.34c0-.71,0-1.43,0-2.16A15.77,15.77,0,0,1,16,13.41,17.36,17.36,0,0,0,15.64,16Z"/><path class="cls-1" d="M5.7,15.25a4.77,4.77,0,0,0,1.29,2c1.06.94,3.31,2.42,4.72,1.92a5.72,5.72,0,0,0,3.36-2.76,6.25,6.25,0,0,0,.28-2.27,14.51,14.51,0,0,1,.7-2.39,17.57,17.57,0,0,0,.33-2.61,4.63,4.63,0,0,1,.09-.64,5.86,5.86,0,0,1-2.3-.35A3.67,3.67,0,0,1,12.45,6.7a5.79,5.79,0,0,1-2.6,3.24A12.73,12.73,0,0,1,8,11c-.67.3-1.46.41-2.11.73-.09.05-.15,0-.22.09s0,.15,0,.2-.17.17-.3.11-.28-.55-.37-.72c-.22-.38-.78-1.11-1.31-1-.91.14-.1,1.86.11,2.21a2.67,2.67,0,0,0,.65.73c.14.11.52.3.6.51A4.07,4.07,0,0,1,5.7,15.25Z"/><path class="cls-1" d="M10.68,1.6c-.21-.23-.44-.44-.67-.65A1,1,0,0,0,9.5.58,2.82,2.82,0,0,1,9.19.51a3.35,3.35,0,0,0-1,0A6.24,6.24,0,0,0,4.3,3.86a10.28,10.28,0,0,0-.89,3.45c0,.89-.06,1.78,0,2.66A1,1,0,0,1,4,10a1.07,1.07,0,0,1,.31.13,1.68,1.68,0,0,1,.57.45,2.79,2.79,0,0,1,.57.83.33.33,0,0,1,.21-.09c.45-.12,1-.27,1.37-.43A12.92,12.92,0,0,0,9.85,9.36a6,6,0,0,0,1.46-1.29A4.52,4.52,0,0,0,12,4.36,5.38,5.38,0,0,0,10.68,1.6Z"/><path class="cls-4" d="M17.19,17.15c0-1.53-.06-3.06-.08-4.59s0-3,.07-4.53a9.33,9.33,0,0,0-.68-3.82A5.85,5.85,0,0,0,14,1.37,10,10,0,0,0,12.24.46a4.39,4.39,0,0,0-1-.19c-.34,0-.66.12-1,.11s-.54-.23-.8-.3a3.38,3.38,0,0,0-1-.07A4.31,4.31,0,0,0,6.92.47,6.93,6.93,0,0,0,4.41,2.74,8.35,8.35,0,0,0,3.12,6a14.63,14.63,0,0,0-.21,2.19c0,.38,0,.75,0,1.12s.11.73.08,1a9.12,9.12,0,0,0-.23.9,3.12,3.12,0,0,0,.22,1,3.71,3.71,0,0,1,.16,1.1c0,.83,0,1.66.11,2.48a8.38,8.38,0,0,0,1.27,4.12c.14.18.44.51.61.15S5,19.21,5,18.91c.32.36.84,1.46,1.35,1.54.67.12,0-1.35-.08-1.62.3.2.76,1,1.15,1,.56,0,0-.76-.06-1s-.31-.68-.46-1l-.27-.24a.92.92,0,0,1-.15-.17,6.07,6.07,0,0,1-.52-.71,8.53,8.53,0,0,0,.74,1.89c-.23-.16-.73-1-1.05-.81s.17,1.26.25,1.55A5.35,5.35,0,0,1,5,18c-.09-.2-.23-.73-.54-.46s0,1.09,0,1.43a7.48,7.48,0,0,1-.69-2.72,21.48,21.48,0,0,1-.18-3,5.15,5.15,0,0,0,1,.77.28.28,0,0,1,.09-.25c.1-.07.2,0,.3,0-.08-.21-.46-.4-.6-.51a2.67,2.67,0,0,1-.65-.73c-.21-.35-1-2.07-.11-2.21.53-.08,1.09.65,1.31,1,.09.17.19.65.37.72s.21,0,.3-.11,0-.16,0-.2.13,0,.22-.09c.65-.32,1.44-.43,2.11-.73a12.73,12.73,0,0,0,1.9-1.08,5.79,5.79,0,0,0,2.6-3.24,3.67,3.67,0,0,0,1.72,1.49,5.86,5.86,0,0,0,2.3.35h.15a21.07,21.07,0,0,1,.05,2.52c0,.73,0,1.45,0,2.16s0,1.56.06,2.34a11.55,11.55,0,0,1,0,2.2c-.08-.31,0-1.25-.33-1.42s-.48.76-.54,1c-.06-.31.08-1.08-.15-1.33l0,0a3.51,3.51,0,0,1-.32,1l.06.66c0,.21-.05.73.08.9.35.47.66-.6.75-.81.06.24.09,1.94.63,1.32a2.39,2.39,0,0,0,.27-.93,3,3,0,0,0,.08-.84ZM11.31,8.07A6,6,0,0,1,9.85,9.36,12.92,12.92,0,0,1,7,10.88c-.42.16-.92.31-1.37.43a.33.33,0,0,0-.21.09,2.79,2.79,0,0,0-.57-.83,1.68,1.68,0,0,0-.57-.45A1.07,1.07,0,0,0,4,10a1,1,0,0,0-.58,0c0-.88,0-1.77,0-2.66A10.28,10.28,0,0,1,4.3,3.86,6.24,6.24,0,0,1,8.19.52a3.35,3.35,0,0,1,1,0A2.82,2.82,0,0,0,9.5.58,1,1,0,0,1,10,1c.23.21.46.42.67.65A5.38,5.38,0,0,1,12,4.36,4.52,4.52,0,0,1,11.31,8.07ZM13,6.66a1.84,1.84,0,0,1-.42-.82c0-.37,0-.74-.05-1.11a8.2,8.2,0,0,0-.6-2.11,4.67,4.67,0,0,0-.57-1c-.2-.27-.64-.57-.76-.86,1.24-.46,2.84.67,3.77,1.36a6.09,6.09,0,0,1,2.11,3.49,7.4,7.4,0,0,1,.19,1.93V8A3.69,3.69,0,0,1,13,6.66Z"/><path class="cls-4" d="M5,13.91s0,0,0-.06-.2-.12-.3,0a.28.28,0,0,0-.09.25C4.82,14.16,5,14.17,5,13.91Z"/><path class="cls-13" d="M16.62,8.54h-.15a4.63,4.63,0,0,0-.09.64,17.57,17.57,0,0,1-.33,2.61,14.51,14.51,0,0,0-.7,2.39,6.25,6.25,0,0,1-.28,2.27,5.72,5.72,0,0,1-3.36,2.76c-1.41.5-3.66-1-4.72-1.92a4.77,4.77,0,0,1-1.29-2A4.07,4.07,0,0,0,5,13.85s0,0,0,.06c0,.26-.19.25-.42.14a10.17,10.17,0,0,0,1.84,3.33.92.92,0,0,0,.15.17l.27.24a9.48,9.48,0,0,0,3.77,2c1.45.27,3-.95,4-1.89a3,3,0,0,0,.68-.92,3.51,3.51,0,0,0,.32-1A17.36,17.36,0,0,1,16,13.41a15.77,15.77,0,0,0,.67-2.35A21.07,21.07,0,0,0,16.62,8.54Z"/></g></g></svg>