<svg xmlns="http://www.w3.org/2000/svg" viewBox="0 0 51.2 64.08"><defs><style>.cls-1{fill:#f4bdd8;}.cls-2{fill:#6474b7;}.cls-3{fill:#e9a061;}.cls-4{fill:#b27e4c;}.cls-5{fill:#3c58a4;}.cls-6{fill:#ed88b6;}.cls-7{fill:#803124;}.cls-8{fill:#92443f;}</style></defs><g id="Layer_2" data-name="Layer 2"><g id="Card"><path class="cls-1" d="M11.49,20.78a5.23,5.23,0,0,1-.42,1.73,12.17,12.17,0,0,0-1.15,3.85c0,1,.69,4.4.78,5.34s.18,3.15.18,3.15l-.68,3.51s1.21,2,3,2.16,6.4-.28,7.93-1.08a21.4,21.4,0,0,0,3.09-2.08l-.21-6-.59-2.58a5.75,5.75,0,0,1-2.58.72,17.72,17.72,0,0,1-2.66-.15,2.63,2.63,0,0,1-.43-2.2c.42-1,1.22-2.56,1.22-2.56l.27-.33,1.87-.94-3-1.87a4.09,4.09,0,0,1-2.13.65,8.16,8.16,0,0,1-2.67-1.2l-1.55-.44Z"/><path class="cls-2" d="M10.2,39.16a10.11,10.11,0,0,0,.69,3.65c.67,1.26,2,2.36,2.41,3.24s-.13,1.87.32,2.77,1.1,1.6,1.08,2.68-.45,2.39,0,3.44,1.14,2.92,1.14,2.92.22,2.29,2,1.79S19.49,58,19.49,58l.16-2.83a10.87,10.87,0,0,0,.57-2.89,21.18,21.18,0,0,1,.14-3.83c.2-1.32.41-2.36.41-2.36l1.42,1,1.25.28s-.33,2.43-.41,3.22.08,2,1.42,1.75,1.83-.19,2.24-1.18,2.75-4.6,2.75-4.6l.3-2.16A11.12,11.12,0,0,0,27,41.65a17.28,17.28,0,0,1-2.79-2.08l-.17-2a17.69,17.69,0,0,1-5.59,2.84,15.41,15.41,0,0,1-6.95-.33A4.67,4.67,0,0,1,10.2,39.16Z"/><path class="cls-3" d="M15.62,59s-.53,2.11-.55,2.5-.33,1.61.46,1.95,4.89.25,5.74.09,2.63-.08,2.68-.65.12-1-1.19-1.46a10.09,10.09,0,0,1-2.58-1.59L19.25,59a1.8,1.8,0,0,1-1.66.77A3,3,0,0,1,15.62,59Z"/><path class="cls-3" d="M22.94,51.37s-1.51,1.36-1.57,2.14,0,1.49,1,1.72a27.75,27.75,0,0,1,3.45,1c.64.27,2.23.55,2.18-.24s-1.19-1.79-1.51-2.35A5.44,5.44,0,0,1,26.05,52s-1.34.7-2.08.28A3.06,3.06,0,0,1,22.94,51.37Z"/><path class="cls-3" d="M19.22,24.3A5.61,5.61,0,0,0,18,26.66a7.66,7.66,0,0,0,.2,2.73,8.61,8.61,0,0,0,5.24-.57c2.37-1.25,5.73-3.59,5.73-3.59l.72-.43.62.42.86-.07s-.36.72,0,1.1.62.54,1,.33.73-.37.73-.37a.87.87,0,0,0,1,.57c.81-.09,2.07-1.4,2.07-1.4a9.61,9.61,0,0,0,3.36-2c1.19-1.28,1.36-1.57,2.29-2.07s4.28-2.32,5.84-2.91,3.52-1.58,3.52-1.58S49,13.43,47.92,12.63a10.21,10.21,0,0,0-2.58-1.26,53.62,53.62,0,0,1-5.27,4.31,12,12,0,0,1-3.25,1.17c-.63.06-3.48-.58-4.56,0s-2.72,1.08-2.9,2.21-.5,2.49-.5,2.49a8.92,8.92,0,0,0-2.39.56c-1.21.47-5.21,1.44-5.21,1.44Z"/><path class="cls-3" d="M13.56,21.07a10.11,10.11,0,0,0,2.94.85,2.94,2.94,0,0,0,1.6-.43l-.2-.91s2-.48,2.18-1.47.08-1.87.2-2.45a4.42,4.42,0,0,0-.18-2.85,7.81,7.81,0,0,1-.72-2.09A4.05,4.05,0,0,0,18.89,10c-.37-.44-.56-.64-.56-.64A2.77,2.77,0,0,1,17,9.33a4.17,4.17,0,0,0-.51-.3,1.91,1.91,0,0,1-.91,1.57c-.94.62-1.86.61-2.23,1.54a3.94,3.94,0,0,0-.47,3.08,23.33,23.33,0,0,1,.28,3.66l-2.33-2.79-2-.38s-.37,2.12.6,2.4a3.93,3.93,0,0,1,1.27.52s.88.78.86,1.26a1.81,1.81,0,0,0,0,.63Z"/><path class="cls-4" d="M20.8,15.14a5.1,5.1,0,0,0-.3-1.21,5.77,5.77,0,0,0-.27-.56,1.77,1.77,0,0,1-.29-.54,3.92,3.92,0,0,1,0-.59l-.06-.61c0-.1,0-.19,0-.28s0-.2-.06-.3a4.68,4.68,0,0,0-.18-.48,2.12,2.12,0,0,0-.12-.2c-.09-.19-.27-.39-.38-.6a3.25,3.25,0,0,0-.47-.65c-.12-.12-.24-.24-.37-.35a1.2,1.2,0,0,1,.15.52.39.39,0,0,0-.38.09.31.31,0,0,0-.1.25.46.46,0,0,0,.11.3s.12,0,.18,0a.63.63,0,0,1,.22.07.74.74,0,0,1,.24.31,5,5,0,0,1,.41,1.46c0,.27,0,.54.05.8a1.56,1.56,0,0,0,.11.71c.11.19.24.38.35.57a2.31,2.31,0,0,1,.25.61A3.67,3.67,0,0,1,20,15.9c-.06.51-.2,1-.31,1.52a3.4,3.4,0,0,0,0,.78,2.36,2.36,0,0,1-.13.75,1.68,1.68,0,0,1-.74,1,1.78,1.78,0,0,1-.56.2c-.1,0-.2,0-.29,0a2.33,2.33,0,0,1-.37,0c-.45,0-.86-.23-1.31-.22a1.61,1.61,0,0,1-.72-.12c-.18-.08-.37-.17-.53,0a.37.37,0,0,0,0,.57,1.16,1.16,0,0,0,.54.21,3.18,3.18,0,0,0,.69,0,1.94,1.94,0,0,1,.63.15c.1,0,.19.1.3.13a.76.76,0,0,1,.16,0,.66.66,0,0,1,0,.15,3.64,3.64,0,0,0,.25.57c.08.14.14.29.31.34a.4.4,0,0,0,.35-.09.35.35,0,0,0,.12-.39,2.2,2.2,0,0,0-.15-.26,1.57,1.57,0,0,1-.11-.35,3.11,3.11,0,0,0,1.15-.41,2.49,2.49,0,0,0,.67-.74,2.94,2.94,0,0,0,.38-1.94,1.71,1.71,0,0,1,.08-.63l.15-.67A4.46,4.46,0,0,0,20.8,15.14Z"/><path d="M23.86,39.45Z"/><polygon points="23.44 41.52 23.44 41.52 23.44 41.52 23.44 41.52"/><path d="M23.58,39.93s0,0,0,0l0,0Z"/><path d="M24,39.77l.06,0-.05,0Z"/><polygon points="15.31 62.32 15.31 62.32 15.31 62.32 15.31 62.32"/><polygon points="15.39 61.47 15.39 61.46 15.39 61.47 15.39 61.47"/><polygon points="15.39 61.46 15.39 61.46 15.39 61.46 15.39 61.46"/><path d="M15.39,61.46Z"/><polygon points="15.39 61.45 15.39 61.45 15.39 61.46 15.39 61.45"/><path d="M15.72,63.06Z"/><polygon points="15.32 62.33 15.32 62.33 15.32 62.33 15.32 62.33"/><polygon points="15.32 62.32 15.32 62.32 15.32 62.33 15.32 62.32"/><polygon points="15.32 62.32 15.32 62.32 15.32 62.32 15.32 62.32"/><polygon points="15.31 62.32 15.32 62.32 15.32 62.32 15.31 62.32"/><polygon points="15.31 62.32 15.31 62.31 15.32 62.32 15.31 62.32"/><path class="cls-4" d="M24.25,62.34a.83.83,0,0,0,0-.15,1.92,1.92,0,0,0-1.11-1,10.37,10.37,0,0,1-1.25-.62,15.13,15.13,0,0,1-1.3-1c-.19-.15-.38-.31-.56-.48a2.08,2.08,0,0,1-.21-.21c0-.09,0-.19-.09-.28-.36-.49-.88.15-.63.59a4.46,4.46,0,0,0,1,1,10.37,10.37,0,0,0,1.11.87,13,13,0,0,0,1.8.87c.27.13.87.55.5.89-.2.19-.54.12-.8.13l-1.13.06c-.76.05-1.51.17-2.27.22s-1.52,0-2.28,0-1.43-.11-1.61-.85a3.81,3.81,0,0,1,.42-2,9.44,9.44,0,0,0,.35-1c-.2-.1-.25-.45-.48-.48-.06,0-.3.52-.33.58a5.72,5.72,0,0,0-.28.68,6.49,6.49,0,0,0-.31,1.44,2.16,2.16,0,0,0,.79,2.15,3.3,3.3,0,0,0,1.89.25c.76,0,1.51,0,2.27-.06s1.55-.17,2.33-.21a4,4,0,0,0,1.79-.22A1.08,1.08,0,0,0,24.25,62.34Z"/><polygon points="23.86 39.45 23.86 39.45 23.86 39.45 23.86 39.45"/><polygon points="23.86 39.45 23.86 39.45 23.86 39.45 23.86 39.45"/><polygon points="23.86 39.44 23.86 39.45 23.86 39.45 23.86 39.44"/><polygon points="23.86 39.44 23.86 39.44 23.86 39.44 23.86 39.44"/><path d="M28.14,49.48h0Z"/><path d="M11.7,17.4h0l0,0Z"/><path d="M11.2,17.36Z"/><polygon points="11.2 17.36 11.2 17.36 11.2 17.36 11.2 17.36"/><path d="M11.19,17.35h0Z"/><path d="M11.42,17.35h0Z"/><path d="M11.49,17.27h0Z"/><path d="M14.82,5.46Z"/><path d="M13.35,21.39Z"/><path d="M14.31,21.92Z"/><path d="M13.35,21.39Z"/><path d="M13.2,21.21Z"/><polygon points="13.21 21.21 13.21 21.21 13.21 21.21 13.21 21.21"/><polygon points="13.2 21.21 13.2 21.21 13.21 21.21 13.2 21.21"/><polygon points="13.2 21.21 13.2 21.21 13.2 21.21 13.2 21.21"/><polygon points="13.18 21.15 13.18 21.15 13.18 21.15 13.18 21.15"/><polygon points="13.17 21.15 13.17 21.15 13.18 21.15 13.18 21.15 13.17 21.15"/><path d="M13.17,21.15Z"/><polygon points="13.11 20.93 13.11 20.93 13.11 20.94 13.11 20.93"/><path d="M13.11,20.93h0Z"/><polygon points="14.32 21.92 14.32 21.92 14.32 21.92 14.32 21.92"/><polygon points="14.31 21.92 14.31 21.92 14.32 21.92 14.31 21.92"/><polygon points="14.31 21.92 14.31 21.92 14.31 21.92 14.31 21.92"/><path d="M14.31,21.92Z"/><polygon points="14.31 21.92 14.31 21.92 14.31 21.92 14.31 21.92"/><path d="M13.35,21.39Z"/><polygon points="13.35 21.39 13.35 21.39 13.35 21.39 13.35 21.39"/><polygon points="13.34 21.38 13.34 21.38 13.34 21.38 13.34 21.38 13.34 21.38"/><polygon points="13.31 21.36 13.31 21.36 13.32 21.36 13.31 21.36"/><polygon points="13.31 21.36 13.31 21.36 13.31 21.36 13.31 21.36"/><polygon points="13.31 21.36 13.31 21.36 13.31 21.36 13.31 21.36"/><path class="cls-4" d="M29.85,24.66c-.32-.42-.74.06-1,.29-.94.6-1.78,1.35-2.74,1.95a12.15,12.15,0,0,1-4.48,2c-.75.14-3.13.24-3.56.28l.13.76c.32,0,4.87-.47,6.63-1.33a40.12,40.12,0,0,0,4.82-3.28A.43.43,0,0,0,29.85,24.66Z"/><path class="cls-4" d="M19.21,24.86a.42.42,0,0,1-.08-.73c.65-.27,1.3-.52,2-.77,1.37-.51,2.79-.9,4.2-1.3.83-.2,1.71-.28,2.52-.56,1.76-.44,3.13-1.78,4.86-2.23,1.42-.3,3.64,0,3.26,1.92,0,.36-.24,1-.72.8a.37.37,0,0,1-.17-.51c.81-1.68-1.35-1.69-2.42-1.41-1.56.57-2.86,1.69-4.47,2.13s-3.15.62-4.68,1.19c-1,.32-2.06.63-3.07,1.05a7.61,7.61,0,0,1-.79.31A.38.38,0,0,1,19.21,24.86Z"/><path class="cls-4" d="M36.53,19.31a3,3,0,0,1-1.23.4.39.39,0,0,0,0,.72c.54.16,2.89-.84,2.22-1.54C37.16,18.57,36.87,19.16,36.53,19.31Z"/><path class="cls-4" d="M30.63,18.32a7.06,7.06,0,0,1,2-1.09,8.63,8.63,0,0,1,3.32,0c2,.09,3.89-1,5.49-2.16.89-.64,1.72-1.49,2.58-2.19.32-.32,1.8-1,1.32-1.53a.38.38,0,0,0-.54,0c-.4.37-.81.63-1.27,1a19.05,19.05,0,0,1-5.34,3.78,5.53,5.53,0,0,1-2.49.39,7,7,0,0,0-3.5.08,8.11,8.11,0,0,0-2.88,1.91,4.62,4.62,0,0,0-.89,2.14c-.06.38-.48,1,0,1.17a.4.4,0,0,0,.51-.3c.22-.6.3-1.25.53-1.85A3.18,3.18,0,0,1,30.63,18.32Z"/><path class="cls-4" d="M50.59,16.62c-1.43.52-2.77,1.26-4.16,1.87a38.3,38.3,0,0,0-4.77,2.34C40.25,21.61,39.33,23,38.1,24a12.17,12.17,0,0,1-1.29.88l0-.08c.36-1-.26-2.23-1.46-1.83a1.12,1.12,0,0,0-.11-.54.86.86,0,0,0-.8-.47,1.25,1.25,0,0,0-1.37-1.39.58.58,0,0,0-.54.22c-.23.13-.33.39-.53.56-.93.76-3.67,3.62-1.53,4.35a1.94,1.94,0,0,0,.54,0,1,1,0,0,0,.5,1.28A1.62,1.62,0,0,0,33,26.62a1.64,1.64,0,0,0,.74.48A2.9,2.9,0,0,0,36.13,26l.07,0c.43,0,.76-.38,1.13-.57,1.54-.81,2.6-2.28,3.92-3.37a22.9,22.9,0,0,1,4.45-2.38c1.66-.71,3.28-1.57,4.95-2.24a.94.94,0,0,0,.45-.24A.38.38,0,0,0,50.59,16.62ZM31.15,23.3c.54-.74,1.29-1.28,1.89-2a.48.48,0,0,1,.57.11c.36.5-.51,1.23-.77,1.66a3.89,3.89,0,0,1-2.1,1.8C30,24.88,31,23.58,31.15,23.3Zm.76,2.91c-.38-.08-.09-.54,0-.74a.43.43,0,0,0,0-.25,11.1,11.1,0,0,0,2-2.27l.16-.24a2.18,2.18,0,0,0,.43-.05c.36.34-.18,1-.34,1.4C33.62,24.88,33,26.15,31.91,26.21Zm2.65,0a.66.66,0,0,1-.93-.09,4.93,4.93,0,0,0,.43-.52,8.92,8.92,0,0,0,1.2-2,.35.35,0,0,0,.35.06c.71-.25.61.75.41,1.15A3.29,3.29,0,0,1,34.56,26.21Z"/><path d="M9.91,37.37v0a.09.09,0,0,1,0,0h0Z"/><path d="M23.76,39Z"/><path class="cls-4" d="M28.27,55.32a2.57,2.57,0,0,0-.59-1,7.38,7.38,0,0,1-.9-1A1.39,1.39,0,0,1,26.64,52l-.84.12a1.7,1.7,0,0,0,.26,1.52,11.05,11.05,0,0,0,1.07,1.2,1.5,1.5,0,0,1,.4.7.59.59,0,0,1-.33.67,1,1,0,0,1-.57-.06l-3.95-1.3a1.59,1.59,0,0,1-.65-.32,1.22,1.22,0,0,1-.17-1.41,3.66,3.66,0,0,1,1-1.12l-.35-.95s-.7.8-.77.9a5.83,5.83,0,0,0-.64,1.14,1.63,1.63,0,0,0,.34,2.11,4.09,4.09,0,0,0,1.38.51,17.28,17.28,0,0,1,2.63.88A2.93,2.93,0,0,0,27.4,57a1.37,1.37,0,0,0,.92-1.4A1,1,0,0,0,28.27,55.32Z"/><path class="cls-5" d="M30.14,45a5.47,5.47,0,0,0-.13-.61,4.69,4.69,0,0,0-1.78-2.44c-.92-.66-2-1.08-2.94-1.71s-.78-1.62-.73-2.58l-.76.13a3.51,3.51,0,0,0,.5,2.6C25.65,41.86,28,42,29,43.92a3.46,3.46,0,0,1,.41,1.37c0,.51-.37,1-.63,1.37-.62,1-1.05,2.11-1.65,3.14-.28.47-.6.92-.85,1.41a1.22,1.22,0,0,1-1,.67,2.15,2.15,0,0,1-1.46,0c-.52-.27-.45-.8-.36-1.28s.11-1.23.19-1.84c0-.2,0-.61.19-.76s.39,0,.57,0a.62.62,0,0,0,.56-.11.36.36,0,0,0-.08-.56c-.21-.15-.54-.09-.79-.13a8.7,8.7,0,0,1-.88-.22,7.4,7.4,0,0,1-1.63-.59c-.54-.32-.51-.64-.51-1.21,0-.29,0-.57,0-.86a.91.91,0,0,0-.1-.65.41.41,0,0,0-.49-.09c-.21.12-.21.35-.2.56a25.91,25.91,0,0,1-.12,3.63c-.12,1.25-.43,2.5-.49,3.75,0,.61.1,1.21.05,1.82a6.54,6.54,0,0,1-.36,1.56,5.48,5.48,0,0,0-.32,1.59c0,.61.18,1.2.18,1.8s-.62.79-1,.93a2.1,2.1,0,0,1-1.63-.09c-.44-.25-.31-.9-.44-1.34a12.5,12.5,0,0,0-.61-1.53,5.89,5.89,0,0,1-.48-1.58,11.42,11.42,0,0,1,0-1.85A5.11,5.11,0,0,0,14.93,51c-.17-.53-.46-1-.65-1.54a7,7,0,0,1-.37-1.75A4.49,4.49,0,0,0,13.58,46a4.37,4.37,0,0,0-.94-1.24,6.56,6.56,0,0,1-1-1.38,8.43,8.43,0,0,1-1.07-4.28L9.8,39a9.62,9.62,0,0,0,.14,1.42,10.23,10.23,0,0,0,.93,3.06,9.35,9.35,0,0,0,.89,1.36c.31.4.7.74,1,1.16a2.61,2.61,0,0,1,.38,1.45,9.18,9.18,0,0,0,.26,1.64c.27,1.08.93,1.93.94,3.07a12.45,12.45,0,0,0,.15,3.34A9.5,9.5,0,0,0,15,57.05a3.91,3.91,0,0,1,.47,1.46,1.92,1.92,0,0,0,.44,1,1.68,1.68,0,0,0,.66.38,3,3,0,0,0,1.65,0,3,3,0,0,0,1.39-.8.87.87,0,0,0,.18-.31c0-.13.09-.15.15-.25A.83.83,0,0,0,20,58a7.29,7.29,0,0,1-.18-1.61,7.13,7.13,0,0,1,.42-1.71,5.75,5.75,0,0,0,.26-1.79,10.62,10.62,0,0,1,0-1.87c.1-.71.22-1.42.29-2.13a11.58,11.58,0,0,1,.22-2c.34.14.65.37,1,.49a9.82,9.82,0,0,1,1.09.33c-.06.4-.18.79-.23,1.2s-.08.85-.14,1.27a4.14,4.14,0,0,0-.18,1.09,1.7,1.7,0,0,0,.38.8,2.53,2.53,0,0,0,2.66.54c.18,0,1-.2.88-.54.31,0,.48-.45.59-.68.19-.4.41-.78.64-1.17s.63-1,.91-1.49a4.26,4.26,0,0,0,.22-.66,4.62,4.62,0,0,1,.41-.67A9.89,9.89,0,0,0,30.06,46,2.06,2.06,0,0,0,30.14,45Z"/><path class="cls-6" d="M24.63,37c0-.24,0-.49,0-.75,0-.56,0-1.11,0-1.67a28.83,28.83,0,0,0-.33-3.34c-.07-.39-.12-2.52-.84-2.29s0,2.07.09,2.51a23.05,23.05,0,0,1,.33,3.31c0,.55,0,1.1,0,1.65a2.35,2.35,0,0,1-.06.8,2.06,2.06,0,0,1-.53.49,11.22,11.22,0,0,1-4.87,2,15,15,0,0,1-4.16.42c-1.13-.07-3-.44-3.5-1.61a2.93,2.93,0,0,1,.09-1.49c.09-.53.24-1,.32-1.57a10,10,0,0,0-.08-3.23c-.37-2.18-1-4.26-.72-6.5a12.07,12.07,0,0,1,.9-3c.24-.59,1-2.1.25-2.59-.5-.31-.52.32-.48.64a2.93,2.93,0,0,1-.39,1.43,12.63,12.63,0,0,0-1,3C9,29,11.2,32.69,10.17,36.37A7.26,7.26,0,0,0,9.81,39c.39-.06.59.44.85.67a4.87,4.87,0,0,0,1.35.8,8.25,8.25,0,0,0,3.23.46,17.18,17.18,0,0,0,6.59-1.46,9.61,9.61,0,0,0,1.51-.91c.29-.21.88-1,1.21-1A1.8,1.8,0,0,0,24.63,37Z"/><path d="M15.59,21.55Z"/><path d="M17.46,21.48h0Z"/><polygon points="17.49 21.47 17.49 21.47 17.48 21.47 17.49 21.47"/><path d="M17.49,21.47h0Z"/><polygon points="17.49 21.47 17.49 21.47 17.49 21.47 17.49 21.47"/><polygon points="17.49 21.47 17.49 21.47 17.49 21.47 17.49 21.47 17.49 21.47"/><path d="M13.34,20.68Z"/><path d="M13.31,21.35Z"/><polygon points="13.2 21.21 13.21 21.21 13.21 21.21 13.2 21.21"/><polygon points="13.2 21.2 13.2 21.21 13.2 21.21 13.2 21.2"/><polygon points="13.2 21.2 13.2 21.2 13.2 21.2 13.2 21.2"/><path d="M13.17,21.15h0Z"/><polygon points="13.11 20.93 13.11 20.93 13.11 20.93 13.11 20.93 13.11 20.93 13.11 20.93"/><path d="M13.17,20.77h0Z"/><polygon points="13.29 20.67 13.29 20.67 13.29 20.67 13.29 20.67"/><polygon points="13.29 20.67 13.28 20.67 13.29 20.67 13.29 20.67"/><path d="M13.31,21.35Z"/><polygon points="13.31 21.36 13.31 21.36 13.31 21.36 13.31 21.36"/><path d="M13.65,14.21h0Z"/><path d="M16.24,10.48Z"/><path d="M16.24,10.48Z"/><path d="M16.56,9.85h0Z"/><path d="M16.56,9.85Z"/><polygon points="13.75 14.26 13.75 14.26 13.75 14.26 13.75 14.26"/><path d="M12.48,6.86h0Z"/><path d="M8.62,6.61a6.09,6.09,0,0,1,1.27-.19h0l-.11.05-.12,0-.14.07-.13,0-.1.06s0,0,0,0l-.13.07-.16.12L8.85,7a.3.3,0,0,0-.08.08l-.06.08,0,.06h0l0,.1h0v0A.39.39,0,0,1,8.62,6.61Z"/><path d="M9.48,6.59h0Z"/><polygon points="10.35 7.17 10.36 7.17 10.36 7.17 10.35 7.17 10.35 7.17"/><path d="M16.46,9.26a.38.38,0,0,1-.23-.48.36.36,0,0,1,.17-.21l0,.09,0,.1h0a.3.3,0,0,1,0,.08h0s0,0,0,0v0l0,.07h0a1,1,0,0,1,0,.17.71.71,0,0,1,0,.14v0Z"/><path d="M18.44,9.18Z"/><path d="M19.16,11.62v0h0Z"/><path d="M16,8.81a.39.39,0,0,1,.17-.52l.05,0h0a1.34,1.34,0,0,0,.07.18l.07.11h0a1.17,1.17,0,0,0,.05.11.47.47,0,0,0,0,.1h0a.3.3,0,0,1,0,.08h0s0,0,0,0v0a.25.25,0,0,1,0,.07h0a.36.36,0,0,1,0,.1h-.13A.41.41,0,0,1,16,8.81Z"/><path d="M15.73,6l0,0a2.18,2.18,0,0,0,.09.23s0,.07,0,.1V6.4A.52.52,0,0,1,15.73,6Z"/><polygon points="18.83 9.23 18.83 9.23 18.83 9.23 18.83 9.23"/><polygon points="18.83 9.23 18.83 9.23 18.83 9.23 18.83 9.23"/><polygon points="18.83 9.23 18.83 9.23 18.83 9.23 18.83 9.23"/><path d="M18.7,8.22Z"/><polygon points="18.7 8.21 18.7 8.21 18.7 8.22 18.7 8.21"/><path d="M15.36,5.58h0Z"/><path d="M18.4,9.06a.09.09,0,0,0,0-.05.08.08,0,0,1,0,0h0a2.73,2.73,0,0,0-.23-.45l0,0a.43.43,0,0,0,0-.07V8.36a.39.39,0,0,1,.61-.12.43.43,0,0,0,0,0h0a1.6,1.6,0,0,1,.05.21v0l0,.15v.05a.7.7,0,0,1-.38.44Z"/><path d="M16.19,8.67a.41.41,0,0,1,.11-.28l0,.06.07.11h0a1.17,1.17,0,0,0,.05.11l0,.1h0a.3.3,0,0,1,0,.08h0s0,0,0,0v0l0,.07h0a.36.36,0,0,1,0,.11A.36.36,0,0,1,16.19,8.67Z"/><path d="M13.3,17h0Z"/><polygon points="16.55 9.9 16.55 9.9 16.55 9.9 16.55 9.91 16.55 9.9"/><path d="M16.56,9.85h0Z"/><polygon points="16.56 9.85 16.56 9.85 16.56 9.85 16.56 9.85"/><path d="M13.39,18.55Z"/><polygon points="16.76 20 16.76 20 16.77 20 16.76 20"/><path class="cls-6" d="M21.14,23.22,21,23.11c-.17-.14-.33-.28-.51-.41s-.45-.33-.67-.51a4.09,4.09,0,0,1-.33-.28,3.33,3.33,0,0,0-.25-.28c-.33-.27-1.12-.9-1.39-.28a1.23,1.23,0,0,0-.27,0c0,.14-.14.18-.25.21a2.12,2.12,0,0,1-.31.09,2.73,2.73,0,0,1-1.36-.06c-.22-.05-.45-.15-.68-.19a2.06,2.06,0,0,1-.73-.26c-.21-.12-.43-.23-.65-.34a1.16,1.16,0,0,0-.33-.11c-.21,0-.16.36-.11.48a1.46,1.46,0,0,0,.57.53,3.21,3.21,0,0,0,1.22.37,5.47,5.47,0,0,1,.8.19c.22.06.46.1.69.17a2.31,2.31,0,0,1,.6.32l.61.39a4.06,4.06,0,0,1,1.22,1,7,7,0,0,0-.48.6,5.32,5.32,0,0,0-.37.66,9.27,9.27,0,0,0-.52,1.45,3.78,3.78,0,0,0-.05,1.64,2.08,2.08,0,0,0,.12.51c-.79-.27-1.46-.8-2.26-1.13a3.25,3.25,0,0,0-2-.36,2.66,2.66,0,0,0-.6.32.38.38,0,0,0,.14.64.36.36,0,0,0,.29,0c.52-.42,1.19-.15,1.74.07,1,.41,1.89,1.19,3,1.37l.29,0s.36-.26.07-1.41a2.56,2.56,0,0,1-.1-.87,5.57,5.57,0,0,1,.41-1.54,4.69,4.69,0,0,1,.75-1.3c.13-.15.36-.18.39-.42,0-.07,0-.15,0-.22a1,1,0,0,0,0-.17,1.66,1.66,0,0,0-.62-.79,9.54,9.54,0,0,0-1-.73c-.07-.05-.16-.09-.23-.15a1.53,1.53,0,0,0,.65-.29,3.85,3.85,0,0,1,.69.59c.22.2.45.38.69.57l.71.54c.21.16.46.37.7.11A.38.38,0,0,0,21.14,23.22Z"/><polygon points="15.92 21.63 15.92 21.63 15.92 21.63 15.92 21.63"/><polygon points="18.83 9.23 18.83 9.23 18.83 9.23 18.83 9.23"/><polygon points="18.83 9.23 18.83 9.23 18.83 9.23 18.83 9.23 18.83 9.23"/><polygon points="9.01 15.97 9.01 15.97 9 15.97 9.01 15.97"/><polygon points="17.55 8.92 17.55 8.92 17.55 8.92 17.55 8.92"/><polygon points="17.55 8.92 17.55 8.92 17.55 8.92 17.55 8.92"/><polygon points="18.7 8.22 18.7 8.22 18.7 8.22 18.7 8.22"/><polygon points="18.7 8.22 18.7 8.22 18.7 8.22 18.7 8.22"/><polygon points="18.7 8.21 18.7 8.21 18.7 8.21 18.7 8.21"/><path d="M18.51,10h0Z"/><path d="M18.33,10h0Z"/><path class="cls-7" d="M14.34,13.79a1.74,1.74,0,0,1,1.45-1.51c.43-.16.86.31.49.66A.38.38,0,0,1,16,13a1.19,1.19,0,0,0-.61.31c-.23.2-.22.6-.53.71A.39.39,0,0,1,14.34,13.79Z"/><path class="cls-7" d="M19,12.39a1.12,1.12,0,0,0-.9-.19.39.39,0,0,1-.39-.37c0-.38.37-.41.65-.43a2,2,0,0,1,1,.32A.38.38,0,0,1,19,12.39Z"/><path class="cls-7" d="M15.5,14.3a1.69,1.69,0,0,1-.13-.31.38.38,0,0,1,.72-.24C16.39,14.17,15.89,14.7,15.5,14.3Z"/><path class="cls-7" d="M18.54,13.54a.5.5,0,0,1-.3-.27l0,.05h0a.38.38,0,0,1,.46-.58C19.17,13,19.07,13.62,18.54,13.54Z"/><path class="cls-7" d="M17.46,15.93c-.1-.34.24-.52.53-.53a.4.4,0,0,1,.53.53c-.09.18-.3.21-.48.23A.41.41,0,0,1,17.46,15.93Z"/><path class="cls-7" d="M17.37,18.31c-.62,0-.64-.88,0-.8a1.59,1.59,0,0,0,.72,0c.13-.05.27,0,.39-.08a1,1,0,0,1,.22-.13A.38.38,0,0,1,19,18,2.82,2.82,0,0,1,17.37,18.31Z"/><path class="cls-8" d="M15.38,7.92A3.53,3.53,0,0,0,16.28,9a2.25,2.25,0,0,0,.67.35c1,.3,2.37,0,1.85-.66a4.65,4.65,0,0,0-3-2.42c-2.06-.59-2.53-1.25-4.35-.66A5.14,5.14,0,0,0,9.21,6.74L8.13,6.59s-.42.22-.67-.6a25.77,25.77,0,0,0-1.4-3L5.6.65A8.54,8.54,0,0,0,2.48,3C1.29,4.56,1,7.79,1,7.79A11.7,11.7,0,0,1,3.67,6.42a7,7,0,0,1,2.91.47l.88,1s-2.14,2.27-2.23,3.73-.18,4.18.89,5.12A20.61,20.61,0,0,0,10,19.49c.88.37,1.47,1.54,1.52,1.29a1.86,1.86,0,0,0-.11-1.61c-.47-.62-1.66-.68-2-1.06S8.32,16.46,9,16s2,.35,2.54,1a8.77,8.77,0,0,0,1.3,1.55c.12,0,.27-.66,0-2a27.61,27.61,0,0,1-.4-2.79l1.18-2.08a7.64,7.64,0,0,0,1.91-1.05C17,9.33,15.38,7.92,15.38,7.92Z"/><path class="cls-7" d="M1.83,6.24a.38.38,0,0,0-.27-.72,3.64,3.64,0,0,0-1.19.69c-.17.13-.39.25-.37.5a.41.41,0,0,0,.75.17A3.47,3.47,0,0,1,1.83,6.24Z"/><path class="cls-7" d="M.73,4.72a1.84,1.84,0,0,0,1-.08,3.5,3.5,0,0,1,1.35.21.38.38,0,0,0,.44-.31C3.6,4.06,3,4.07,2.69,4A2.85,2.85,0,0,0,1.08,4C.57,3.7.23,4.48.73,4.72Z"/><path class="cls-7" d="M3.39,3.39a.38.38,0,0,0,.54-.05c.31-.42-.29-.72-.56-.95s-.43-.33-.67-.46a.38.38,0,0,0-.47.5C2.5,2.86,3.05,3,3.39,3.39Z"/><path class="cls-7" d="M5,2.15a.33.33,0,0,0-.12-.25A3,3,0,0,1,4.44.35.39.39,0,0,0,4,0c-.8.1,0,2.13.33,2.47A.39.39,0,0,0,5,2.15Z"/><path class="cls-7" d="M16.75,6.15a9.43,9.43,0,0,0-7.51-.3,3.59,3.59,0,0,1-1,.31H8a3.93,3.93,0,0,0-.45-.92A10.14,10.14,0,0,1,6.38,3a16.67,16.67,0,0,0-.47-2C5.84.66,5.72.21,5.3.35s-.22.52-.14.8c.3.68.27,1.43.5,2.13A19.57,19.57,0,0,0,7.2,6.17a.32.32,0,0,0,0,.17s0,0,0,.06A1,1,0,0,0,7,6.57c-.19-.1-.41-.16-.58-.23A5,5,0,0,0,3.87,6a5.38,5.38,0,0,0-2.3,1c-.38.32-1.84,1.21-1,1.68a.39.39,0,0,0,.46-.2A5.19,5.19,0,0,1,3.86,6.72a4.92,4.92,0,0,1,2.79.52.37.37,0,0,0,.16.09,1.21,1.21,0,0,0,.12.45c.05.09-1.3,2-1.43,2.21a7.44,7.44,0,0,0-.74,2.65,7,7,0,0,0,1.75,5.08c1.1,1.25,2.63,1.65,3.91,2.63.27.2.58.68.9.76s.56-.27.43-.61c-.25-.68-1.25-1.08-1.84-1.36a7.34,7.34,0,0,1-3.52-2.89,6.71,6.71,0,0,1,2-8.74A7.25,7.25,0,0,1,17,7.32c.36.26,1.64,1.14.85,1.56-.6.32-1.44-.69-1.92-1a7.06,7.06,0,0,0-4.49-1,5.14,5.14,0,0,0-1.1.24c1,.12,6.23.56,5.47,2.5-.34.88-1.73.94-2.37,1.6a4.36,4.36,0,0,0-1,2.45c-.16,1.36.2,2.7.13,4.05a9.1,9.1,0,0,0-2.44-2.31c-1-.62-2.12-.11-2,1.19A2.86,2.86,0,0,0,10,18.88c.3.11,1,.33,1.22,0s-.38-.56-.67-.65c-.69-.2-2-1.08-1.64-2s2.09.94,2.45,1.33,1.88,2.71,2.08,1.37a9.41,9.41,0,0,0-.11-1.9c0-.66-.07-1.33-.11-2A3.74,3.74,0,0,1,14,11.88c.9-.8,2.29-.93,2.6-2.27.67.36,2.08.64,2.24-.29a1.34,1.34,0,0,0,0-.4A3.84,3.84,0,0,0,16.75,6.15ZM7.47,7.4a.17.17,0,0,0,0-.07c.09-.17.25-.44.47-.44H8A1.24,1.24,0,0,1,7.47,7.4Z"/><path class="cls-6" d="M24,35.9l.09-.16a.26.26,0,0,0-.19-.31.47.47,0,0,0,.06-.09.25.25,0,0,0-.1-.35.63.63,0,0,0,.07-.63.2.2,0,0,0-.12-.1,7.72,7.72,0,0,0,.48-1.62.24.24,0,0,0-.39-.25l-.15-.23a3.76,3.76,0,0,0,0-.75.28.28,0,0,0-.21-.23l-.09-.35a.2.2,0,0,0-.13-.15.24.24,0,0,0,0-.27.22.22,0,0,0,0-.32.23.23,0,0,0,0-.44.21.21,0,0,0,0-.17h0c.3-.13,0-.55-.25-.43a4.5,4.5,0,0,1-.48.16s-.05,0-.09,0h-.09a5.26,5.26,0,0,0-1,.25,4.81,4.81,0,0,0-1.24.26c-.2.08-.26.44,0,.49a2.17,2.17,0,0,0,.36,0,.28.28,0,0,0,.15.08h0l-.33.15c-.26.12-.08.52.19.45a.23.23,0,0,0,.25.12l.09,0c-.25.13-.06.5.2.45l.18,0a.22.22,0,0,0,.07.2l-.33.15s0,0-.06.06l-.05,0c-.27.12-.08.52.19.45a1.66,1.66,0,0,0,.21-.06.57.57,0,0,0,0,.14l-.55.24c-.23.11-.1.44.13.45a.26.26,0,0,0,.37.19l.16-.06.26,0a2,2,0,0,0-.54.32c-.21.16,0,.48.24.42l.3-.09a.26.26,0,0,0,.09.29c-.27.12-.54.25-.82.36a.22.22,0,0,0-.09.31l-.11.06c-.25.12-.07.56.19.46l.5-.2-.51.25a.22.22,0,0,0-.07.34l-.25.13c-.28.15,0,.56.26.43l.58-.27-.06,0a.24.24,0,0,0,0,.3l-.25.12c-.21.11-.13.5.12.47l.08,0a1.67,1.67,0,0,0-.16.12c-.2.17,0,.47.24.42l0,0a.24.24,0,0,0,0,.17l-.45.2c-.32.13-.95.3-1.11.65a.33.33,0,0,0,0,.22,2.51,2.51,0,0,0-.71.51c-.16.18,0,.5.24.42l.37-.14a.25.25,0,0,0,.36.19c.48-.22,1-.43,1.45-.68,0,0,0,0,0,0a4,4,0,0,0,1.72-1.3,5.45,5.45,0,0,0,.46-.38.23.23,0,0,0,0-.32.2.2,0,0,0,0-.13,1.83,1.83,0,0,0,.3-.55A.25.25,0,0,0,24,35.9Zm-.73-1.72,0,0,0,.05S23.25,34.19,23.24,34.18ZM23.1,37a.39.39,0,0,0-.1-.08,2.2,2.2,0,0,0,.32-.21c-.07.08-.14.15-.2.23S23.11,36.93,23.1,37Zm.49-3.63s0,0,0,0l.05,0ZM22.29,38a.25.25,0,0,0,.05-.27l.26-.17a.22.22,0,0,0,0,.18,2.46,2.46,0,0,1-.44.34Z"/><path class="cls-6" d="M19.33,23.51a.25.25,0,0,0,.21.27.27.27,0,0,0,.21.12.81.81,0,0,0,.53-.24h0l.05,0a.26.26,0,0,0,0-.33s-.05,0-.07-.05a.28.28,0,0,0-.1-.09.68.68,0,0,0-.21-.27.72.72,0,0,0-.38-.13.23.23,0,0,0-.14-.27.19.19,0,0,0-.06-.18.59.59,0,0,0-.49-.14.23.23,0,0,0-.16-.17l-.16,0a.22.22,0,0,0-.29.18h-.19A.26.26,0,0,0,18,22a1.77,1.77,0,0,0-.31-.15c-.32-.07-.45.41-.14.49l.05,0h0a.25.25,0,0,0,.31.31.76.76,0,0,1,.21-.06.25.25,0,0,0,.26.17.27.27,0,0,0,.17.1.26.26,0,0,0,.28.22h0a.25.25,0,0,0,.16.17h.15A.25.25,0,0,0,19.33,23.51Z"/><path class="cls-6" d="M17.79,29.66l0,0a.25.25,0,0,0-.24-.2.57.57,0,0,0-.18,0,.2.2,0,0,0,0-.1.24.24,0,0,0-.36-.14l-.06,0a.27.27,0,0,0-.2-.11h0a.22.22,0,0,0-.15-.17.7.7,0,0,0-.33,0,.23.23,0,0,0-.18-.14c0-.05-.08-.11-.14-.12h-.11a.24.24,0,0,0-.26-.16.24.24,0,0,0-.16-.2.5.5,0,0,0-.21,0,.22.22,0,0,0-.17-.14.27.27,0,0,0-.3-.08.25.25,0,0,0-.23-.07h-.07a.28.28,0,0,0-.26-.09L14,28a.22.22,0,0,0-.14-.08.19.19,0,0,0-.08-.07l0,0c.15-.28-.28-.54-.44-.25a1.44,1.44,0,0,1-.16.33.26.26,0,0,0,.22.38h0a.25.25,0,0,0,.24.21.23.23,0,0,0,.29.05.22.22,0,0,0,.26.09.26.26,0,0,0,.25.08.25.25,0,0,0,.17.08.26.26,0,0,0,.32.11.2.2,0,0,0,.1.2.26.26,0,0,0,.21.26c0,.18.18.38.36.25l.09-.07a.25.25,0,0,0,.31.05l0,0a.27.27,0,0,0,.21.16v0a.25.25,0,0,0,.41.25.26.26,0,0,0,.3.17.27.27,0,0,0,.34.13.24.24,0,0,0,.37,0l.16-.13a.2.2,0,0,0,.26-.17.27.27,0,0,1,0-.12C18.23,29.74,18,29.59,17.79,29.66Z"/><path class="cls-5" d="M29.89,45.7a.28.28,0,0,0,0-.45s0,0,0-.07a.13.13,0,0,0,0-.06.25.25,0,0,0-.25-.31v0a.25.25,0,0,0-.23-.25s0,0,0-.06a.25.25,0,0,0-.3-.3.84.84,0,0,0,0-.17.24.24,0,0,0-.18-.3l.17-.25a.26.26,0,0,0-.28-.37.32.32,0,0,1-.09,0l0-.06c.1-.21-.12-.48-.35-.34l0,0a.25.25,0,0,0-.32-.07l-.07,0a.26.26,0,0,0-.17-.12.25.25,0,0,0-.27-.25.24.24,0,0,0-.35-.28l0,0a.21.21,0,0,0-.3-.08.23.23,0,0,0-.1-.07.25.25,0,0,0-.09-.33.24.24,0,0,0-.28-.32l-.12,0a.24.24,0,0,0-.32-.17c0-.17-.14-.35-.3-.28a1,1,0,0,0-.29.15.25.25,0,0,0-.21-.24s0,0,0,0c.15-.22-.14-.45-.34-.34l0,0a.26.26,0,0,0-.34-.25s0-.09,0-.13a.29.29,0,0,0-.09-.26.25.25,0,0,0-.22-.35.88.88,0,0,0-.29,0l.19-.28c.12-.16,0-.35-.2-.37a.25.25,0,0,0-.24-.41h0a.25.25,0,0,0-.19.07h0a3.82,3.82,0,0,0-.95.65l-.15.11-.12,0a.22.22,0,0,0-.18,0l-.06,0h0c-.54.21-1,.5-1.56.75a.25.25,0,0,0,.13.47l.38,0a.21.21,0,0,0,.21,0,6.62,6.62,0,0,0,.78-.3,1.28,1.28,0,0,0-.24.29l-.14.18a.24.24,0,0,0,0,.26,1,1,0,0,0,0,.23.27.27,0,0,0,.24.18,3.1,3.1,0,0,0,.62-.13c-.06.17.07.4.28.33a3.36,3.36,0,0,0,.47-.23h.1c-.05.07-.11.13-.15.2a.27.27,0,0,0,.07.33l0,0c-.22.2.05.52.3.39a4,4,0,0,0,.42-.26h0a.25.25,0,0,0,.35.14,1.19,1.19,0,0,0,.15-.09.22.22,0,0,0,.18,0,1.33,1.33,0,0,0,.49-.28.3.3,0,0,0,.22.11.23.23,0,0,0,.23.24l.1,0a.23.23,0,0,0,.15.26l0,.06a.26.26,0,0,0,.35.34h0a.2.2,0,0,0,.31.06l.11-.07a.25.25,0,0,0,.15.1.24.24,0,0,0,.18.16.88.88,0,0,0,0,.16.26.26,0,0,0,.38.22l.1-.06a.23.23,0,0,0,.25.08l.17-.08a.27.27,0,0,0,.34.1l.08,0a.22.22,0,0,0,.09.1,1.42,1.42,0,0,0,.16,0,1.29,1.29,0,0,0-.16.4.25.25,0,0,0,.26.3l-.06.2a.26.26,0,0,0,.24.32h0s0,0,0,.05a.25.25,0,0,0,.31.31l.07,0a.27.27,0,0,0,.11.18,4.75,4.75,0,0,1-1.7.68c-.31.1-.18.58.13.49h0l-.6.2a.25.25,0,0,0,.13.48,2.12,2.12,0,0,0,.45-.12v0a1.66,1.66,0,0,0-.32.22.25.25,0,0,0,.12.41.26.26,0,0,0,.09.09l-.17.08a.23.23,0,0,0-.12.16l0,0a.23.23,0,0,0,0,.3,1,1,0,0,0-.23.23.21.21,0,0,0,0,.16,2.92,2.92,0,0,0-.47.23,6.3,6.3,0,0,0-.75,0c-.26,0-.22.42,0,.48h0a.2.2,0,0,0,.11.11l.08,0a.24.24,0,0,0,0,.33.24.24,0,0,0-.1.21l-.09,0a.24.24,0,0,0-.11.39,1.79,1.79,0,0,1-.07.6,1.45,1.45,0,0,0-.22.09.25.25,0,0,0-.11.27h0a.26.26,0,0,0,.25.42,4.47,4.47,0,0,0,.6-.25.21.21,0,0,0,.11-.26.82.82,0,0,0,.22-.16.26.26,0,0,0,0-.31h0a.21.21,0,0,0,.11-.22l.12,0a.27.27,0,0,0,.15-.34l.2-.07a.28.28,0,0,0,.15-.33h0a.24.24,0,0,0,.08-.32h0a.22.22,0,0,0,.12-.36.19.19,0,0,0,0-.18.75.75,0,0,0,.13-.06h0l.07,0a.22.22,0,0,0,.1-.25l.14-.06a.25.25,0,0,0,.06-.36.3.3,0,0,0,.08-.28v0a1.33,1.33,0,0,0,.39-.28.26.26,0,0,0,0-.38.29.29,0,0,0,0-.22l.2-.1a.25.25,0,0,0,.06-.36,1.15,1.15,0,0,1,.31-.11c.27,0,.2-.37,0-.45.12-.09.25-.17.38-.25A3.54,3.54,0,0,0,29.89,45.7Zm-7.33-5.08a.24.24,0,0,0,.2,0l.14-.07.06,0a5.1,5.1,0,0,1-.63.2Z"/><path class="cls-5" d="M20.33,45.87a2.51,2.51,0,0,0-.55.17c.25-.18.55-.32.73-.44a.25.25,0,0,0-.11-.45.22.22,0,0,0-.16-.29l-.15,0c.14-.14.32-.26.45-.39s-.13-.58-.36-.35-.61.46-.72.85a.26.26,0,0,0,.08.24,4.74,4.74,0,0,0-.5.26c-.17.11-.17.42.06.46h.1a1.21,1.21,0,0,0-.4.73c0,.15.12.23.25.24a1.25,1.25,0,0,0-.24.27.25.25,0,0,0,.21.37,1.45,1.45,0,0,0,.29,0,3.85,3.85,0,0,0-.3.27.24.24,0,0,0,.19.41c-.06.07-.13.13-.18.2a.24.24,0,0,0,.16.41,2.37,2.37,0,0,0-.28.4.24.24,0,0,0,.15.35l-.13.17a.25.25,0,0,0,.14.37h.06a1.06,1.06,0,0,0-.12.2.33.33,0,0,0,0,.24,2,2,0,0,0-.39.43.26.26,0,0,0,.08.33.62.62,0,0,0-.1.16c0,.09,0,.2.11.26a.52.52,0,0,0-.15.64.42.42,0,0,0,.2.16s0,.06-.05.09,0,.34.15.37h.06a.87.87,0,0,0-.14.27.24.24,0,0,0,.17.31h.17a.61.61,0,0,0,0,.24.28.28,0,0,0,.09.19.29.29,0,0,0,0,.1.36.36,0,0,0,.05.23,2.7,2.7,0,0,0-.25.4.32.32,0,0,0,0,.14,1.35,1.35,0,0,0-.51.71.28.28,0,0,0,0,.13.92.92,0,0,0-.18.32.25.25,0,0,0,.18.31h.12a1,1,0,0,0,0,.24s0,0,0,.06a.82.82,0,0,0-.16.7s0,0,0,0a.83.83,0,0,0-.11.7l0,0a.73.73,0,0,0-.12.36.24.24,0,0,0-.19.11,3,3,0,0,1-.76.83c-.25.22.11.55.35.35a3.46,3.46,0,0,1,.47-.31.17.17,0,0,0,.14,0,3.77,3.77,0,0,0,.61-.29.23.23,0,0,0,.1-.22h0a1.82,1.82,0,0,0,.27-.15.25.25,0,0,0,0-.38.25.25,0,0,0-.2-.39l.23-.19c.21-.17,0-.5-.27-.4a2.13,2.13,0,0,1,.31-.26c.22-.17.06-.52-.17-.47l.28-.25a.24.24,0,0,0-.11-.41l.09-.07a.25.25,0,0,0,0-.4.26.26,0,0,0-.06-.44l.34-.25h0l.05,0a.24.24,0,0,0-.05-.38q.14-.16.3-.33a.22.22,0,0,0-.05-.36h0a.25.25,0,0,0-.09-.46l.18-.15a.26.26,0,0,0-.13-.42l0,0h0l.05,0c.24-.19-.06-.52-.3-.4l-.07,0,.19-.13c.22-.15.09-.57-.19-.46l-.06,0h0v0l-.28.14.5-.4a.22.22,0,0,0-.05-.37l.13,0c.23-.11.1-.46-.12-.46l.31-.18a.23.23,0,0,0-.13-.44l.11-.09a.24.24,0,0,0-.15-.44l.26-.2h0l.05,0c.22-.19-.06-.5-.3-.39l.43-.31c.21-.15.1-.55-.19-.45h0l.35-.25a.25.25,0,0,0-.2-.45l-.13,0,.25-.22a.26.26,0,0,0-.25-.42l-.2,0a2.73,2.73,0,0,0,.6-.46A.25.25,0,0,0,20.33,45.87Z"/></g></g></svg>