<svg xmlns="http://www.w3.org/2000/svg" viewBox="0 0 48.22 60.99"><defs><style>.cls-1{fill:#fcd4ac;}.cls-2{fill:#d09971;}.cls-3{fill:#ededed;}.cls-4{fill:#92443f;}.cls-5{fill:#6b1e1e;}.cls-6{fill:#e9a061;}.cls-7{fill:#faed62;}.cls-8{fill:#6474b7;}.cls-9{fill:#b27e4c;}.cls-10{fill:#cbc478;}.cls-11{fill:#3c58a4;}</style></defs><g id="Layer_2" data-name="Layer 2"><g id="Card"><path class="cls-1" d="M15.87,12.36s-8.06,8.29-8.78,8.88S.4,27.6.4,27.6a8.82,8.82,0,0,0,0,1.78c.12,0,1.69.07,2.23,0a3.2,3.2,0,0,0,1.19-.56s.33,7.42.4,8.43-.14,8.18-.11,9.42.23,6.18.36,6.48,0,.6.57.36.38-1.49.31-1.89-.1-7.34-.1-7.34l.15-7.73-.15-7.41L5,27.68l1.51-1.84,3.53-3.9v2c0,.91.13,6.56.15,7.1s.44,6.92.44,6.92.18,5.21.39,5.63.3.62.54.46a4.94,4.94,0,0,0,.49-1.78s-.38-8.66-.38-8.66l-.27-7-.18-6,1.91-2.39,1.23,0a14,14,0,0,1,.3,3.35C14.57,23,15,29,15,29l.3,5.52s.07,1,.5.94.64-.59.59-.62-.4-7.48-.4-7.48-.07-6-.17-6.55-.15-3.33-.15-3.33,2.87,0,2.89,0,.19,2.82.17,2.76.29,8.8.44,10,.35,3.51.86,3.38.35-2.76.23-3.19-.65-9.44-.66-10-.07-3.2-.07-3.2l2.77,1.06L22.44,23s.08,4,.17,5.08.28,3,.64,3,.72-.27.64-.9-.6-5.16-.6-5.16l-.11-4.45,2.46.39.1,4.06s0,4.18.59,4.05.51-1.95.52-2.45-.2-3.76-.2-3.76-7.28-8.26-7.59-8.31a5.76,5.76,0,0,0-1.5.42l-1.91.69.72-.83,1.4-1.29Z"/><path class="cls-2" d="M16.72,13.2S10,20.5,9.34,21.11s-6.26,6.57-6.26,6.57l-2.73.09L.4,29.38H3l3.83-4s5-5.37,5.66-6.19,4.41-4.69,4.41-4.69l.46-.5Z"/><path class="cls-3" d="M28.65,27.37c-.41.25-1.73.86-1.73.86s.07.82-.38.89a1,1,0,0,1-.76-.19l-2,1.46s0,.9-.46.88a.8.8,0,0,1-.64-.39l-2.3,1.58s.11,1.19-.42,1.27-.67-.67-.67-.67l-2.8,1.71s.06.92-.52.92a.8.8,0,0,1-.76-.44l-1.51,1.26-.18,5.18-1.34.77S12,44.22,11.6,44.1s-.67-.72-.67-.72L8.71,45.05l-.14,5.07-3,2.32s-.11,1.12-.5,1.07a.81.81,0,0,1-.57-.36L3.52,54v6.67l33.87-.6L45.14,60l-.88-24.31s5.36-9.06,3.6-10.75S36.72,21.73,34,22.72,28.65,27.37,28.65,27.37Z"/><path class="cls-4" d="M26.17,7.88a3.79,3.79,0,0,0,0-2.12c-.37-.83-.88-2.11-.88-2.11a4,4,0,0,1,1.42-.15,2.75,2.75,0,0,1,1.65.93A2.23,2.23,0,0,1,29,5.3a6.57,6.57,0,0,0,.9-1.65A4.94,4.94,0,0,0,30.15,2S29.05.25,27.81.44A6.92,6.92,0,0,0,25,1.58l-.63.52S22.5-.09,20.52.27s-3.88,1-4.65,1.79a8.06,8.06,0,0,0-1.66,3.38c0,.65,0,1.57,0,1.57a6.33,6.33,0,0,0-2.81,1A4.34,4.34,0,0,0,9.9,10.52a13.3,13.3,0,0,0,.1,2.12,1.61,1.61,0,0,0,1.46-.05c.73-.42,1.06-.59,1.06-.59a3.74,3.74,0,0,1,0-2,6.1,6.1,0,0,1,1.37-1.81.49.49,0,0,1,.43.47c.06.45,0,1.6.16,1.42a6.83,6.83,0,0,0,1.35-1.4,6.92,6.92,0,0,0,.85-2.17A2.13,2.13,0,0,0,18.16,7c.69-.12,1.94-.59,3.08-.76a2.58,2.58,0,0,1,2.54.92c.43.64,1.07,1.86,1.07,1.86a2,2,0,0,1,.66-1A1.11,1.11,0,0,1,26.17,7.88Z"/><path class="cls-5" d="M10.64,19.15Z"/><path class="cls-5" d="M12.47,16c.15,0,.29-.13.39-.23.45-.43.88-.87,1.34-1.29s1.06-1,1.55-1.51c.19-.26.76-.59.39-.92s-.63.35-.89.55c-.45.48-.94.92-1.41,1.38s-1,.94-1.46,1.4A.32.32,0,0,0,12.47,16Z"/><path class="cls-5" d="M14.61,15a2.47,2.47,0,0,0-.37.35.34.34,0,0,0,.2.54.31.31,0,0,0,.33-.22,17.55,17.55,0,0,0,2.16-2.15c.13-.17.35-.31.21-.55s-.51-.13-.64.1A17.21,17.21,0,0,1,14.61,15Z"/><path class="cls-5" d="M16.64,14.27c-.22.31-.63.51-.76.87a.31.31,0,0,0,.27.34.28.28,0,0,0,.27-.11,8.38,8.38,0,0,0,1-1.12.31.31,0,0,0-.38-.48A2.93,2.93,0,0,0,16.64,14.27Z"/><path class="cls-5" d="M25.92,23.88v0l0,0Z"/><path class="cls-5" d="M4.39,53.52c.05,0,.13.1.18.13a.91.91,0,0,0,.42.14.64.64,0,0,0,.56-.51,2.57,2.57,0,0,0,.08-.47c0-.09.07-.07.14-.11a.38.38,0,0,0,.12-.1A2.66,2.66,0,0,1,6.6,52a8.89,8.89,0,0,0,.82-.59l.77-.64.38-.31c.06,0,.08,0,.15,0l.25,0c.35,0,.7,0,1.06,0s.7,0,1.06.06.7.07,1.05.07.72,0,1.07,0c.71,0,1.42.06,2.13.09s1.42,0,2.13,0,1.43,0,2.14,0,1.43,0,2.14,0,1.41-.14,2.12-.15,1.43,0,2.14,0l2.15,0c.72,0,1.43,0,2.15-.06l2.14-.1q1.08-.06,2.16-.09c.71,0,1.43-.05,2.14-.05h1.07l.49,0a4.78,4.78,0,0,1,.53,0c.17,0,.34.05.51.06h.52l1.06,0c.71,0,1.42,0,2.14,0a9.32,9.32,0,0,1,1.06,0,3.84,3.84,0,0,0,.83,0c.21,0,.48-.13.46-.39s-.43-.23-.66-.21-.33,0-.5,0h-.53c-.35,0-.71,0-1.06,0-.71,0-1.42,0-2.12,0-.36,0-.71,0-1.06,0s-.71-.07-1.06-.08-.71,0-1.07,0l-1,0-2.14.06L32,49.76l-2.15.1c-.71,0-1.43,0-2.15.06H25.58c-.71,0-1.43,0-2.14,0s-1.41.1-2.12.13l-2.15,0c-.71,0-1.42,0-2.14,0-.35,0-.71,0-1.07,0s-.71,0-1.07,0c-.71,0-1.43-.1-2.14-.08s-1.42,0-2.13-.07l-1.06,0-.49,0c-.09,0-.16,0-.16-.09a1.94,1.94,0,0,1,0-.24c0-.35,0-.7,0-1.06s0-.71,0-1.07V45.9a4.43,4.43,0,0,1,0-.52,3.14,3.14,0,0,1,.75,0l.77,0c.25,0,.5,0,.75,0s.5,0,.76,0c.5,0,1,0,1.51-.06h1.53l1.54,0c.51,0,1,0,1.53,0s1,0,1.54,0l1.54,0c.51,0,1,0,1.53,0l1.54,0,1.53,0,1.54-.06c.51,0,1,0,1.53,0H35c.52,0,1,0,1.54,0l1.54,0c.51,0,1-.06,1.51-.08.18,0,.4,0,.52-.17a.32.32,0,0,0-.15-.43,1.63,1.63,0,0,0-.66,0l-.75.06c-.51,0-1,0-1.53,0l-1.53,0H29.34l-1.53,0-1.54,0c-.51,0-1,0-1.53.06l-1.53,0-1.54,0-1.53,0H17.06l-1.53,0H14c-.51,0-1,0-1.53.07-.25,0-.5,0-.75,0h-1.5a3.37,3.37,0,0,1-.71,0,2.92,2.92,0,0,1,.63-.46,6.17,6.17,0,0,1,.66-.48c.13.19.19.41.43.52a.6.6,0,0,0,.68-.2,1.58,1.58,0,0,0,.32-.71,2.42,2.42,0,0,0,.07-.47c0-.1,0-.25.08-.3.28-.12.54-.27.81-.41l.19-.11s.08-.08.15-.08a1.42,1.42,0,0,0,.2,0A.81.81,0,0,1,14,42c.64,0,1.28,0,1.92,0s1.28,0,1.92,0,1.27-.09,1.91-.13,1.28-.08,1.93-.1,1.27,0,1.91-.05H27.4c.32,0,.64,0,1,0l1,.05h.76c.18,0,.4,0,.49-.21s-.12-.43-.35-.43h-.94l-1.91,0H25.44l-1.92,0-1.93,0c-.64,0-1.27.05-1.91.1s-1.28.11-1.92.12-1.27,0-1.91,0h-1a7.22,7.22,0,0,1-.93,0s-.08,0-.1,0a.34.34,0,0,1,0-.1c0-.07,0-.14,0-.21s0-.31.05-.46c0-.31.05-.63.07-1,0-.64,0-1.28,0-1.92,0-.16,0-.32,0-.47A.8.8,0,0,1,14,37c0-.06.18,0,.25,0h.46c.64,0,1.28,0,1.92,0s1.28,0,1.92,0,1.28,0,1.93-.08,1.27-.07,1.91-.09l1.92,0,1.91,0,1.94,0h1c.25,0,.52,0,.77,0s.39-.13.35-.36-.39-.25-.61-.25c-.63,0-1.27,0-1.91,0l-1.92,0-1.93,0-1.92,0-1.92.1c-.64,0-1.28.06-1.92.07s-1.28,0-1.91-.06l-.92,0a6.78,6.78,0,0,1-.9,0,3.52,3.52,0,0,1,.5-.36l.26-.19.13-.09c.06,0,.07,0,.12,0a.68.68,0,0,0,1,0,1.09,1.09,0,0,0,.19-.5c0-.09,0-.15.09-.2l.27-.12c.38-.23.75-.48,1.14-.71.21-.12.41-.25.61-.38a4.77,4.77,0,0,1,.62-.36,2.48,2.48,0,0,0,.17.37.57.57,0,0,0,.34.22.59.59,0,0,0,.64-.31,1.86,1.86,0,0,0,.2-.81c0-.06,0-.22,0-.26l.1,0,.11,0c.14-.08.26-.19.39-.28.29-.21.57-.41.84-.63a2.79,2.79,0,0,1,.42-.28l.22-.13c.06,0,.08,0,.15,0s.24.18.4.19a.54.54,0,0,0,.4-.12.83.83,0,0,0,.23-.37,1.72,1.72,0,0,1,.14-.4,3.55,3.55,0,0,1,.71-.57l.87-.61a1.37,1.37,0,0,1,.2-.13.6.6,0,0,0,.75.11,1.06,1.06,0,0,0,.46-.76c0-.15.14-.2.25-.29l.42-.33a8.93,8.93,0,0,1,.91-.6l.24-.13c.05,0,.22-.1.24-.16s-.09-.22-.11-.27-.07-.2-.11-.29a.59.59,0,0,0-.32.17l-.36.21c-.23.15-.46.3-.68.46a3.18,3.18,0,0,1-.37.27,3.7,3.7,0,0,1,0-.47c0-.16,0-.32,0-.49,0-.32-.06-.64-.09-1s-.08-.64-.11-1,0-.45-.17-.56a.32.32,0,0,0-.38,0c-.16.15-.08.47-.06.66.07.63.16,1.26.2,1.9,0,.31,0,.63,0,.94a2.43,2.43,0,0,1-.11.85.42.42,0,0,1-.09.19,5.8,5.8,0,0,1-.12-1l-.09-1c-.05-.71-.09-1.42-.16-2.13,0-.17,0-.35,0-.52s0-.26-.18-.32a.31.31,0,0,0-.36.09.55.55,0,0,0-.06.4c0,.71.11,1.41.17,2.12s.06,1.4.17,2.09a1.6,1.6,0,0,1,0,.23,1.79,1.79,0,0,0-.32.13l-.28.21c-.22.17-.45.32-.68.48a2.4,2.4,0,0,1-.37.25,3.26,3.26,0,0,1,0-.45c0-.15-.07-.29-.1-.44a7,7,0,0,1-.08-.91c0-.63-.1-1.25-.14-1.87l-.12-1.88-.12-1.87,0-.47a1.4,1.4,0,0,0-.05-.41.31.31,0,0,0-.54,0c-.11.17,0,.48,0,.66l.06.94L23,24.87c0,.62.08,1.25.12,1.87,0,.31.05.62.07.94s0,.61.08.92a7.35,7.35,0,0,1,.16,1.81,1.31,1.31,0,0,1-.09.38c-.06,0-.12,0-.14-.1a1.42,1.42,0,0,1-.05-.22,5.81,5.81,0,0,1-.09-.58c0-.4-.08-.81-.1-1.21-.05-.81-.13-1.61-.19-2.42,0-.41-.05-.81-.08-1.22a11.81,11.81,0,0,1,0-1.19,21.53,21.53,0,0,0,0-2.41l-.06-.6c0-.15,0-.35-.13-.46a.31.31,0,0,0-.51.31c0,.37.08.74.1,1.12s0,.81,0,1.21,0,.81,0,1.22,0,.8,0,1.2c0,.81.12,1.62.18,2.43s.1,1.61.21,2.41c0,.09,0,.18,0,.28s0,.1-.05.14-.32.18-.47.27-.28.22-.42.33l-.48.36a2.11,2.11,0,0,1-.45.28,1.29,1.29,0,0,1,0-.34c0-.11,0-.23,0-.35s-.05-.48-.07-.72c-.06-.48-.12-1-.14-1.43s-.07-1-.11-1.44-.07-1-.1-1.45-.07-1-.1-1.44,0-1-.07-1.44-.07-1-.1-1.45l-.09-1.44c0-.48-.06-1-.1-1.45,0-.15,0-.35-.16-.44a.32.32,0,0,0-.43.11,1,1,0,0,0,0,.52q0,.34.06.69l.09,1.44c0,.48.06,1,.08,1.45l.09,1.45.09,1.44c0,.48.07,1,.11,1.45s.08,1,.12,1.44,0,1,.09,1.44.12.93.15,1.41c0,.24,0,.48,0,.72s0,.47,0,.7a1.08,1.08,0,0,1-.13.56,5.32,5.32,0,0,1-.12-.8c0-.27-.07-.54-.11-.81-.07-.54-.15-1.09-.23-1.64s-.14-1.09-.19-1.64-.09-1.1-.11-1.65,0-1.1-.05-1.66l0-1.66c0-.55,0-1.11,0-1.66s0-1.1-.06-1.66c0-.27,0-.55,0-.82s0-.27,0-.41a.45.45,0,0,0-.1-.29.3.3,0,0,0-.48.09,1.32,1.32,0,0,0,0,.71c.06.54.1,1.09.13,1.64s0,1.11,0,1.66,0,1.1,0,1.66l0,1.66c0,.55,0,1.1.08,1.65s.08,1.1.15,1.65.14,1.08.23,1.62.14,1.07.22,1.61c0,.08,0,.15,0,.2a1.56,1.56,0,0,1-.28.16l-.71.42c-.46.27-.9.56-1.36.84a.25.25,0,0,1-.14.06c-.08,0-.07,0-.08-.11l0-.4c0-.27-.05-.53-.06-.8,0-.55-.1-1.1-.13-1.64s-.05-1.11-.07-1.66-.06-1.1-.1-1.65-.06-1.1-.07-1.66,0-1.1,0-1.66,0-1.1,0-1.65a15.14,15.14,0,0,0,0-1.65c0-.55-.1-1.1-.13-1.64,0-.27,0-.55,0-.81s0-.24-.06-.36a.73.73,0,0,0-.07-.24.29.29,0,0,0-.45,0c-.16.17-.08.45-.06.65,0,.55.1,1.11.13,1.66s.08,1.1.09,1.65,0,1.11,0,1.67,0,1.1,0,1.65,0,1.1.07,1.65.07,1.1.1,1.66,0,1.09,0,1.64.07,1.1.12,1.66.06,1.09.13,1.64a6.32,6.32,0,0,1,.06.76,1.5,1.5,0,0,1-.1.66c-.2,0-.22-.36-.24-.52,0-.32-.06-.65-.1-1-.08-.73-.15-1.45-.21-2.18s-.13-1.45-.17-2.18-.08-1.46-.1-2.19S15,25.76,15,25s0-1.46,0-2.19,0-1.46,0-2.2c0-.36,0-.72,0-1.08a9.94,9.94,0,0,0-.05-1.09.31.31,0,0,0-.53-.17.42.42,0,0,0-.08.31l0,.55c0,.72,0,1.45.05,2.18s0,1.46,0,2.19,0,1.46,0,2.18,0,1.47.07,2.21.07,1.45.12,2.18.12,1.45.19,2.18.15,1.44.22,2.17c0,.17,0,.34.06.51s0,.09,0,.14l-.2.14c-.28.2-.59.39-.86.61l-.19.16a.72.72,0,0,0-.2.09.56.56,0,0,0-.15.33,6.5,6.5,0,0,0,0,1c0,.73,0,1.45,0,2.18,0,.36-.06.72-.07,1.08,0,.19,0,.37,0,.55s0,.17,0,.26,0,0-.06.07l-.11,0a5.35,5.35,0,0,1-.74.41,1.73,1.73,0,0,1-.05-.45c0-.16,0-.32,0-.48,0-.32,0-.65-.05-1,0-.66-.07-1.32-.1-2s-.05-1.32-.09-2-.09-1.32-.12-2,0-1.32-.06-2-.05-1.31-.09-2-.09-1.32-.13-2-.05-1.32-.07-2,0-1.32,0-2,0-1.31-.08-2c0-.32-.07-.64-.08-1,0-.12,0-.29,0-.39s.21-.23.32-.35c.42-.47.84-.95,1.23-1.45l.25-.32a.5.5,0,0,0,.15-.32.31.31,0,0,0-.49-.24,1.76,1.76,0,0,0-.24.3c-.09.13-.2.26-.3.38s-.41.5-.62.75c-.42.48-.86.95-1.31,1.41s-.93.92-1.38,1.39-.87.93-1.3,1.39L6.33,25.37c-.43.47-.83,1-1.25,1.44a1,1,0,0,1-.29.28c-.12.06-.14.21-.22.31s-.4.44-.59.66a3.82,3.82,0,0,1-.57.63,3.64,3.64,0,0,1-.05-.81.36.36,0,0,1,.14-.26l.24-.29c.36-.42.73-.82,1.11-1.21l1.21-1.19c.39-.39.77-.79,1.15-1.2S8,23,8.35,22.58s.77-.82,1.14-1.24.7-.84,1.08-1.23c.19-.19.36-.4.53-.6a.66.66,0,0,1,.21-.2.43.43,0,0,0,.24-.18c.16-.19.36-.34.54-.52s.27-.38.06-.55-.41,0-.55.14-.13.19-.23.21-.12,0-.17.05a.63.63,0,0,0-.11.12c-.09.1-.17.2-.26.29a.32.32,0,0,0-.17-.36c-.16-.07-.32,0-.49,0,0-.08,0-.11-.11-.12l-.34,0c-.09,0-.17,0-.25,0a2.73,2.73,0,0,0-.25.23c-.33.31-.64.65-1,1-.67.67-1.37,1.29-2.06,1.92L4.1,23.52c-.7.63-1.39,1.26-2.07,1.91-.33.33-.67.65-1,1-.17.16-.33.32-.49.49a4.69,4.69,0,0,0-.42.47A.53.53,0,0,0,0,27.6c0,.09.05.17,0,.26a1.45,1.45,0,0,0,0,.29c0,.2,0,.4,0,.6s-.06.8.26.94a1.14,1.14,0,0,0,.55,0,2.91,2.91,0,0,1,.59,0,5.46,5.46,0,0,0,1.21.06A1.83,1.83,0,0,0,3,29.67a2.51,2.51,0,0,1,.27,0c.18,0,.29-.19.43-.28a2.91,2.91,0,0,1,0,.59c0,.2,0,.41,0,.61l0,1.22q0,1.23.06,2.46c0,.82,0,1.64,0,2.46s.07,1.63.11,2.45S4,40.78,4,41.59s0,1.64,0,2.46l-.06,2.46c0,.82,0,1.64,0,2.46s0,1.63,0,2.45A6.15,6.15,0,0,0,4,52.63a.79.79,0,0,0,.06.22s0,.1,0,.14-.1.09-.14.12a.61.61,0,0,0-.16.12,1.63,1.63,0,0,0-.52.77,4.12,4.12,0,0,0-.11,1.16c0,.82,0,1.63,0,2.45s0,1.64,0,2.46c0,.16,0,.34,0,.5a.37.37,0,0,0,.07.2c0,.07.12.07.2.1s.12.09.19.11a.7.7,0,0,0,.25,0l.6,0c.41,0,.81-.06,1.22-.07s.81,0,1.22,0c.81,0,1.62-.13,2.43-.13s1.65,0,2.47,0,1.62-.08,2.43-.09,1.64,0,2.46,0,1.64,0,2.46,0l2.46-.06c.82,0,1.63,0,2.45,0,.4,0,.81,0,1.22,0s.82,0,1.23,0,.81,0,1.22,0,.81,0,1.22,0l2.46-.06c.83,0,1.65,0,2.47,0s1.6,0,2.4,0c.15,0,.3,0,.38-.16a.33.33,0,0,0,0-.38c-.13-.13-.33-.09-.49-.08h-.61l-2.47,0-2.47,0c-.81,0-1.63,0-2.45,0l-1.22,0c-.4,0-.8,0-1.2,0-.82,0-1.64,0-2.46,0L20.78,60l-2.47,0-2.46,0c-.82,0-1.63,0-2.45,0s-1.63,0-2.45,0-1.64,0-2.46,0-1.62.11-2.43.1c-.39,0-.78,0-1.17,0l-.58,0a2.51,2.51,0,0,1-.55,0,3.13,3.13,0,0,1,0-.53v-.55c0-.37,0-.73,0-1.1,0-.74,0-1.48,0-2.22v-.55c0-.09,0-.18,0-.26s0-.22,0-.26.21,0,.26,0l.26,0h.53L7,54.8c.74,0,1.49,0,2.23,0h2.22l2.2,0,2.21,0c.74,0,1.49,0,2.23,0s1.48,0,2.21,0l2.22-.07c.73,0,1.47,0,2.21,0a7.9,7.9,0,0,0,1.09,0l1.08-.11c.73-.06,1.46,0,2.19,0,.36,0,.72-.05,1.08-.07a8.22,8.22,0,0,1,1.11,0l1.1.06a7.61,7.61,0,0,0,1.07,0,9.87,9.87,0,0,1,1.09,0l1.09.1a1,1,0,0,1,.25,0l.16.08c.15,0,.31-.06.47-.07a9.79,9.79,0,0,1,1.08.07c.73,0,1.46,0,2.19.07.18,0,.36.05.54.06h1.64a20.43,20.43,0,0,0,2.21-.1l.54-.06a2,2,0,0,0,.42,0,.3.3,0,0,0,.08-.56c-.27-.14-.65,0-.92.05a9.81,9.81,0,0,1-1.08.08H42.08c-.37,0-.73,0-1.1,0-.72,0-1.44-.11-2.16-.13l-1.1,0a5.07,5.07,0,0,1-.55,0,1,1,0,0,1-.25,0,.79.79,0,0,0-.22,0,4.55,4.55,0,0,0-.53,0,3.33,3.33,0,0,1-.55,0c-.36,0-.72-.08-1.08-.1a10.28,10.28,0,0,0-1.11,0,4.61,4.61,0,0,1-.53,0c-.18,0-.36,0-.55,0a14.57,14.57,0,0,0-2.19,0c-.37,0-.74.06-1.1.06s-.74,0-1.11,0a10.11,10.11,0,0,0-1.1,0l-1.07.11c-.73.07-1.47,0-2.2,0s-1.48,0-2.22.05-1.48.07-2.21.09-1.48,0-2.21,0l-2.22,0c-.74,0-1.48,0-2.22,0l-2.2-.05H8.09l-2.22,0-1.06,0-.51,0a3,3,0,0,1-.52,0c0-.27.27-.51.46-.66C4.27,53.58,4.33,53.52,4.39,53.52Zm6.34-31.87c.11,1.77.19,3.55.18,5.32.08,1.57.18,3.11.28,4.69,0,1.88.14,3.76.25,5.63,0,1.51.14,3,.23,4.5a3.17,3.17,0,0,1-.22,2h0a8.91,8.91,0,0,1-.26-2.83c0-1-.09-1.92-.15-2.88-.18-3.22-.5-6.42-.58-9.64q-.06-3.06,0-6.1a.32.32,0,0,0-.1-.33C10.52,21.86,10.63,21.76,10.73,21.65ZM5.56,27.22a26.26,26.26,0,0,1,1.93-2.17c.78-.84,1.53-1.72,2.35-2.52l0,0c0,2.69-.11,5.38.06,8.06.13,2.91.43,5.81.57,8.73.06.92.08,1.84.08,2.77,0,.3,0,.72.09,1.12a.31.31,0,0,0-.13.06c-.61.47-1.28.86-1.84,1.38a.4.4,0,0,0-.12.22.44.44,0,0,0-.15.13,21.16,21.16,0,0,0-.09,2.76c0,.61,0,1.23,0,1.84,0,.12,0,.25,0,.39a.37.37,0,0,0-.12.07c-.63.48-1.19,1-1.86,1.45-.14.11-.46.3-.7.51,0-.19,0-.38,0-.57,0-1.46-.18-2.92-.18-4.39s.13-3,.18-4.54c.09-1.67,0-3.35,0-5a39.42,39.42,0,0,0-.22-4.34c-.1-1.83-.16-3.72-.17-5.56ZM4.28,28.65l.38-.42c0,2.05.08,4.09.25,6.14s.09,3.8.12,5.7c0,2.39-.28,4.79-.23,7.19,0,1.22.12,2.44.15,3.67a10.3,10.3,0,0,1,0,2.22h0l-.15-.07a.32.32,0,0,0-.17-.37,13.23,13.23,0,0,1-.13-2.52c0-2,.06-4.07.09-6.11.18-3.2-.22-6.38-.16-9.58,0-1.29,0-2.59-.1-3.88a17,17,0,0,0-.09-1.89h0Zm-1.49.45c-.7.14-1.41-.15-2.11,0,0-.31-.06-.64-.06-1l0-.06v0l.14,0A5.34,5.34,0,0,0,1.48,28a5.06,5.06,0,0,0,1.23,0l0,0A10.92,10.92,0,0,1,2.79,29.1ZM3,27.26l-.07.08,0,.05s0,0-.06,0l-.12-.05a1.82,1.82,0,0,0-.52,0c-.22,0-.44,0-.66,0a2.3,2.3,0,0,1-.58,0c0-.08.12-.17.18-.22L1.37,27l.48-.48,1-.94c.63-.63,1.3-1.21,2-1.81l2-1.83c.66-.61,1.31-1.23,1.95-1.85.15-.15,1.18-1.18,1.36-1.13a.54.54,0,0,0,.28,0c.09,0,.19,0,.29,0a.15.15,0,0,1,.11,0s0,.09-.06.12a2.09,2.09,0,0,0-.2.22c-.16.16-.31.33-.46.49-.31.33-.61.66-.91,1-.6.68-1.24,1.33-1.86,2l-1.9,1.95c-.31.31-.64.59-1,.9s-.61.64-.89,1l-.43.51C3.1,27.15,3.06,27.21,3,27.26Z"/><path class="cls-5" d="M35.09,36.18c.19.07.37,0,.57,0a24.24,24.24,0,0,0,2.56.12c1.66.08,3.27-.24,4.94-.24.26,0,.52,0,.78,0a.31.31,0,0,0,.32-.3c0-.53-.82-.25-1.17-.3-1.36,0-2.7.2-4.05.25-.82,0-1.66,0-2.48-.06a4.21,4.21,0,0,0-1.46,0A.33.33,0,0,0,35.09,36.18Z"/><path class="cls-5" d="M44,41.2c-1.8.07-3.6,0-5.39.09-.69,0-1.44-.07-2.13-.07-.36-.07-.7.08-.56.49a.31.31,0,0,0,.5.12c.78,0,1.55.07,2.33.07,1.2-.08,2.41,0,3.61-.07a9.62,9.62,0,0,0,1.86-.07A.31.31,0,0,0,44,41.2Z"/><path class="cls-5" d="M39.75,44.49a5,5,0,0,0-.77,0,.41.41,0,0,0-.3.1.31.31,0,0,0,.12.52c.83,0,1.68-.14,2.52-.15.35,0,.78.07,1.15.07.73,0,1.43-.17,2.17-.13a.31.31,0,0,0,.27-.34.3.3,0,0,0-.33-.27,13.21,13.21,0,0,0-2,.12A15,15,0,0,0,39.75,44.49Z"/><path class="cls-5" d="M38.68,44.63l0,0,0,0,0,0Z"/><path class="cls-5" d="M44.92,59.59a5.58,5.58,0,0,1-1.29.11c-1.12,0-2.25.11-3.37.06a30.67,30.67,0,0,0-4.18.07c-.38,0-.65.39-.28.61a.27.27,0,0,0,.26,0,25.72,25.72,0,0,1,3.51-.09A36.82,36.82,0,0,0,45,60.2.31.31,0,0,0,44.92,59.59Z"/><path class="cls-6" d="M29.3,31a8,8,0,0,0,.19,2.65c.34.86,1.28,3,1.28,3s2.61.2,3.37-.32A1.85,1.85,0,0,0,34.92,35a5,5,0,0,0-.54-1.26c-.34-.48.06-1.09.21-1.78a11.92,11.92,0,0,0,0-2.37l-3.73-1.32-1.79,2Z"/><path class="cls-6" d="M8.79,19.15s1.8.38,2-.22,1-.85,1.72-.87,3.75.57,5.2.58,3.78.16,3.78.16l.46.32.95-.7L22,14.06l2.5-1.47,1-1.18s.34-.52.56-.89.71-.83.68-1.25-.18-1.43-.83-1.43-1,1-1,1l-.18.35s-1-2.61-2.05-2.79a4.22,4.22,0,0,0-2.87.17,3.84,3.84,0,0,1-2.45.23c-.51-.09-.67-.82-.67-.82a6,6,0,0,1-1,2.73c-.76.87-1.15.83-1.15.83a16.72,16.72,0,0,0,1.15,2.11c.82,1.34,1.8,3,1.8,3l.23.35-2.94.55s-2.92.34-3.55.52-1,.34-1,.34a1.74,1.74,0,0,1-.6.85c-.46.31-.89.4-.92.89A2.59,2.59,0,0,0,8.79,19.15Z"/><path class="cls-7" d="M30.26,36.36a7.83,7.83,0,0,1,1.12,2.36,4.08,4.08,0,0,1-.16,1.64c-.13.27-.52,1-.52,1a.67.67,0,0,0,.73.12c.43-.2.88-1.63.88-1.63l.56-.08s-.65,1.5,0,1.79.81,0,1.17-.48.7-.68.52-1.11a3.11,3.11,0,0,0-.36-.66,4.82,4.82,0,0,0,.57-.68,2.8,2.8,0,0,0,.32-1l.07-2.33a5.1,5.1,0,0,1-2.42,1.37A4.85,4.85,0,0,1,30.26,36.36Z"/><path class="cls-7" d="M36.1,30.72l1.17.6-.1.6s.33.74.7.62.81-.31.66-.62a3.22,3.22,0,0,0-.47-.65s1-.49,1.07-1.27a5.21,5.21,0,0,0-.34-1.77,6.82,6.82,0,0,1-1.63,1.56,12.55,12.55,0,0,1-1.26.66Z"/><path class="cls-8" d="M30.7,41.32a.66.66,0,0,0,.73.12c.37-.23.88-1.63.88-1.63l.56-.08s-.65,1.5,0,1.79.8.24,1.05-.32a13.35,13.35,0,0,0,.49-2l.51-.65s1.5.93,1.12,2.2-4.24,3.74-4.24,3.74-1.87-.09-2.22-.89a1.87,1.87,0,0,1,.5-1.85C30.25,41.68,30.7,41.32,30.7,41.32Z"/><path class="cls-8" d="M38.06,31.27s.6.46.34.82-.32.49-.65.44-.72-.61-.72-.61-1,.68-.93,1.35.69,2,2,1.51,1.56-.47,1.86-1.57.17-1.46.59-1.94,1-1.09,1-1.64-.1-1.41-.65-1.51a4.37,4.37,0,0,0-1.56.23A3.93,3.93,0,0,1,39.13,30,1.83,1.83,0,0,1,38.06,31.27Z"/><path class="cls-8" d="M21.49,18.8l0,.12c.2.5,1,2.46,1.89,2.93a22.23,22.23,0,0,1,2.5,2A13.06,13.06,0,0,1,28,25.62a6.41,6.41,0,0,1,1,2.26,5.26,5.26,0,0,1-.19,1.79l.08,1.6a2.37,2.37,0,0,1,1.71-1.77c1.54-.5,2.86,1.28,3.91,1s3.59-.48,4.77-3.2-1.11-5.86-1.55-6.09-3.8-1.84-4.27-2.05-.8-1.22-1.18-1.53-.55-.3-.55-.3a22.62,22.62,0,0,1-1.19-2.19c-.35-.84-1.65-3.75-3.91-3.48a5.15,5.15,0,0,0-3.27,1.67,9.87,9.87,0,0,1-1.62.61,3.48,3.48,0,0,1,1.09,2.33c.14,3.25-1.35,2.55-1.35,2.55"/><polygon points="17.09 5.9 17.09 5.9 17.09 5.9 17.09 5.9 17.09 5.9"/><polygon points="17.03 5.78 17.03 5.78 17.03 5.78 17.03 5.78"/><path d="M17,5.78Z"/><polygon points="17.08 4.2 17.08 4.2 17.08 4.19 17.09 4.2 17.08 4.2"/><path d="M17.08,4h0Z"/><path d="M17.05,3.86Z"/><polygon points="17.02 3.69 17.02 3.69 17.02 3.69 17.02 3.69"/><path d="M17,3.69Z"/><path d="M24.67,2.37Z"/><polygon points="17.03 5.79 17.03 5.79 17.03 5.79 17.03 5.79"/><path d="M17,5.78h0Z"/><polygon points="17.02 5.76 17.02 5.76 17.02 5.76 17.02 5.76"/><polygon points="17.02 3.69 17.02 3.69 17.02 3.69 17.02 3.69"/><polygon points="17.02 3.68 17.01 3.68 17.02 3.68 17.02 3.68"/><polygon points="17.01 3.68 17.01 3.68 17.01 3.68 17.01 3.68"/><path class="cls-5" d="M25.4,9.8c-.22-.17,0-.44,0-.66s.24-.67.59-.54.11.48,0,.72,0,.34-.16.44A.3.3,0,0,1,25.4,9.8Z"/><path class="cls-5" d="M16.65,12c-.3-.05-.26-.42-.29-.65a2.57,2.57,0,0,1,.91-2.12,1.65,1.65,0,0,1,.36-.16.31.31,0,0,1,.18.59.7.7,0,0,0-.35.21A2.28,2.28,0,0,0,17,11.27c0,.16.05.31,0,.47A.32.32,0,0,1,16.65,12Z"/><path class="cls-5" d="M19.67,8.3a.42.42,0,0,1,.23-.39,1.08,1.08,0,0,1,.55-.33,1.89,1.89,0,0,1,1.73.13c.17.1.36.3.26.51a.31.31,0,0,1-.41.16A1.55,1.55,0,0,0,21.4,8a2.18,2.18,0,0,0-1,.21c-.15.1-.22.3-.42.33A.33.33,0,0,1,19.67,8.3Z"/><path class="cls-5" d="M17.71,11.56a.31.31,0,1,1,.3.32A.32.32,0,0,1,17.71,11.56Z"/><path class="cls-5" d="M20.93,9.56a.3.3,0,0,1,.32-.29.31.31,0,0,1,.3.31.32.32,0,0,1-.32.3A.31.31,0,0,1,20.93,9.56Z"/><path class="cls-5" d="M19.76,14a.31.31,0,0,1,0-.62,1.58,1.58,0,0,0,1.84-1.25c0-.2.11-.42.34-.41.55.09.19.79.07,1.11A2.25,2.25,0,0,1,19.76,14Z"/><path class="cls-5" d="M19.67,12.44a.31.31,0,0,1,.1-.59.35.35,0,0,0,.24-.1c.16-.14.28-.39.53-.31a.31.31,0,0,1,.2.39,1.21,1.21,0,0,1-.7.59A.4.4,0,0,1,19.67,12.44Z"/><path d="M10.18,19.06Z"/><path d="M10.11,17.33h0Z"/><polygon points="10.79 16.87 10.8 16.87 10.79 16.87 10.79 16.87"/><path d="M10.63,19h0Z"/><path class="cls-9" d="M17.43,17.73a.32.32,0,0,1,.3-.47c.25,0,.53-.28.73,0s-.08.51-.34.55S17.57,18,17.43,17.73Z"/><path d="M35.12,30.16h0Z"/><path class="cls-9" d="M30.62,36.05a23.69,23.69,0,0,1-1.14-3.74,4.24,4.24,0,0,1,.15-1.81.31.31,0,0,0-.56-.26c-.62,1.72.09,3.56.6,5.23l.2.58"/><path class="cls-9" d="M35.36,34.48a5.25,5.25,0,0,0-.67-.95,1.49,1.49,0,0,1,0-.63,9.43,9.43,0,0,0,.46-2.63.2.2,0,0,0,0-.11H35l-.1,0h-.09l-.11,0-.1,0a.79.79,0,0,0-.08.43c0,.93-.42,1.79-.49,2.7a1.28,1.28,0,0,0,.44,1,2,2,0,0,1,.44.71l.49-.36A.61.61,0,0,0,35.36,34.48Z"/><path d="M35.12,30.16h0Z"/><path class="cls-10" d="M35.41,34.6a6.33,6.33,0,0,0-.81.64,2.5,2.5,0,0,1-.34.31,2.39,2.39,0,0,1-.84.43,4.45,4.45,0,0,1-1,.13,7.62,7.62,0,0,1-1.07,0,13.27,13.27,0,0,0-1.6-.12c0,.12.13.2.19.31s.21.54.34.8A7.73,7.73,0,0,1,31,38.59a2.93,2.93,0,0,1,.14.87c.19,0,.41,0,.6,0a4.52,4.52,0,0,0-.63-2.23,6.54,6.54,0,0,1-.3-.59,6.7,6.7,0,0,0,.9.11,8.06,8.06,0,0,0,.85,0,4.53,4.53,0,0,0,1.62-.39,4.27,4.27,0,0,0,.76-.52,15.92,15.92,0,0,0-.18,2.48,2.86,2.86,0,0,0,.16.64,5.21,5.21,0,0,1,.5-.45,4.1,4.1,0,0,1,0-1.56,12.65,12.65,0,0,0,.14-1.51A2.08,2.08,0,0,0,35.41,34.6Z"/><polygon points="9.57 19.37 9.58 19.37 9.57 19.37 9.57 19.37"/><polygon points="10.19 19.06 10.19 19.06 10.18 19.06 10.19 19.06"/><polygon points="11.76 18.9 11.76 18.9 11.76 18.9 11.76 18.9"/><path class="cls-9" d="M22.13,18.06a6,6,0,0,1-1,.16,42.92,42.92,0,0,1-4.81-.06C14.7,18,13,17.6,11.45,18h0l-.2.08,0,0a.1.1,0,0,1,0,.13.66.66,0,0,1-.24.11H10.9l-.22,0-.23,0h0a.31.31,0,0,0,0,.44l.07.06.09,0h.16l.06,0a.47.47,0,0,0,.12-.09,3.79,3.79,0,0,1,2-.38,17.3,17.3,0,0,1,2.15.17,15.38,15.38,0,0,0,2.35.16,18.75,18.75,0,0,0,3.67,0,5.62,5.62,0,0,0,1.22-.18.3.3,0,0,0,.23-.37A.31.31,0,0,0,22.13,18.06Z"/><path class="cls-9" d="M11.48,16.3a4.52,4.52,0,0,0,1.12-.19,7.17,7.17,0,0,1,1.28-.18c.59,0,1.18-.14,1.77-.2a12.75,12.75,0,0,0,2.69-.61c.8-.12,1.6-.26,2.41-.33.3,0,.61-.06.91-.06a.31.31,0,0,0,.35-.26.32.32,0,0,0-.26-.35c-.44,0-.86.05-1.3.08-.8.1-1.56.2-2.35.36l0-.06c-.37-.52-.65-1.08-1-1.62a12.29,12.29,0,0,1-1.91-2.69c0-.07,0-.17-.07-.27a.31.31,0,0,0-.59.16,7.19,7.19,0,0,0,1.81,2.82c.47.55.73,1.24,1.15,1.82-.37.11-.73.24-1.13.32l-2.14.24a9.5,9.5,0,0,0-2.05.31l-.24.05a3.42,3.42,0,0,0-1.57.37,1.26,1.26,0,0,0-.51.46c-.06.09-.06.2-.13.28-.24.27-.65.37-.89.66a1.12,1.12,0,0,0-.4.88,2.29,2.29,0,0,0,0,1,.31.31,0,0,0,.6-.14,2.62,2.62,0,0,1,0-1.08c.21-.4.7-.52,1-.81a1.28,1.28,0,0,0,.29-.47A1.48,1.48,0,0,1,11.48,16.3Z"/><path class="cls-10" d="M37.37,31.72a7.13,7.13,0,0,0-1-.49c-.3-.15-1-.39-.76-.83s.65.11.93.23a8.14,8.14,0,0,1,1.33.7Z"/><path class="cls-5" d="M17,3.8Z"/><polygon class="cls-5" points="18.55 0.9 18.56 0.9 18.56 0.9 18.55 0.9"/><polygon class="cls-5" points="17.14 6 17.14 6.01 17.14 6.01 17.14 6"/><path class="cls-5" d="M10.38,12.42c0,.14,0,.28.07.41a.31.31,0,0,0,.61-.07c0-.12-.05-.25-.06-.37A.31.31,0,0,0,10.38,12.42Z"/><path class="cls-5" d="M11.51,11.85a.31.31,0,0,0-.29.32,1.48,1.48,0,0,0,.13.7.31.31,0,0,0,.54-.21C11.81,12.37,11.94,11.85,11.51,11.85Z"/><path class="cls-5" d="M29.31,3.67a.31.31,0,0,0-.4.41c.13.22.32.42.47.63a.3.3,0,0,0,.48-.37C29.67,4.12,29.55,3.83,29.31,3.67Z"/><path class="cls-5" d="M29.23,2.67a.29.29,0,0,0,.06.42,4,4,0,0,1,.46.56.31.31,0,0,0,.49-.37C30,3,29.64,2.26,29.23,2.67Z"/><path class="cls-5" d="M30.36,1.55l0,0A2.9,2.9,0,0,0,27.89.18a5,5,0,0,0-3.52,1.5A6,6,0,0,0,18.78.19,6.58,6.58,0,0,0,14.5,3.48a8.47,8.47,0,0,0-.74,3.34c-1.16.31-2.26.41-3.11,1.38a5.29,5.29,0,0,0-1.11,2.93c0,.43-.19,1.95.43,2.06s.16-1.2.16-1.52A4.23,4.23,0,0,1,11.83,8a4.12,4.12,0,0,1,1.95-.57c.13.5-1,1.08-1.24,1.55a4.62,4.62,0,0,0-.44,2.27c0,.23.06,1.86.64,1.24.2-.21,0-.7,0-.94a6.51,6.51,0,0,1,.07-1.25,2.33,2.33,0,0,1,1.15-1.87c.09.29.2.6.26.89s0,.53.16.71c.38.41.75-.11,1-.36a8.65,8.65,0,0,0,1.55-3c1.55,1.3,3.67-.59,5.42-.22a2.63,2.63,0,0,1,1.8,1.75c.14.33.47,2.26,1,1.35.2-.32.23-1.72,1-1.46.58.2.26,1.34,0,1.68s-.72.82-.73,1.45c0,.35.27.86.6.4.11-.16,0-.49.06-.68a1.58,1.58,0,0,1,.35-.53A2.14,2.14,0,0,0,27,8.91a9.34,9.34,0,0,0-.51-1.45c-.12-.61,0-1.27-.15-1.89a11.14,11.14,0,0,0-.58-1.83,2.61,2.61,0,0,1,2.13.65c.31.25.9,1.36,1.27,1.35.8,0-.26-1.23-.44-1.41a3.94,3.94,0,0,0-1.93-1.19,4.9,4.9,0,0,0-2.4.27c-.76-.61,1.17-2,1.64-2.22A3.32,3.32,0,0,1,29,1.09c.55.29.61.66,1,1.07.15.17.37.37.56.08S30.47,1.74,30.36,1.55ZM17.08,4.44Zm0,0Zm0,0ZM17,5.76Zm-2.2,3.51a6.62,6.62,0,0,1-.26-4.08,6.13,6.13,0,0,1,.71-1.74C15.52,3,16.43,2.37,16.53,2c-.36,1.39.15,2.83-.14,4.23C16.18,7.18,15.71,8.69,14.82,9.27ZM25.75,5.62a7,7,0,0,1,.14,1.93,1.58,1.58,0,0,0-1.07.85A3.67,3.67,0,0,0,22.56,6c-1.46-.4-2.65.44-4,.61-1.94.25-1.37-1.33-1.44-2.49S16.91,1.68,18.18,1a5,5,0,0,1,3.26-.3,5.34,5.34,0,0,1,1.91.91c.72.52.59.76.11,1.29s-.74.79-.17,1.35.82.13,1.23-.14c.8-.52.92.24,1.12,1C25.68,5.29,25.72,5.45,25.75,5.62ZM23.63,3.5c.2,0,.26.26.31.4a.32.32,0,0,1-.31-.21.29.29,0,0,0,0-.09A.36.36,0,0,0,23.63,3.5Z"/><path class="cls-10" d="M34.78,35.64a4.71,4.71,0,0,1-1.49.94.24.24,0,0,0-.09.34.26.26,0,0,0,.34.09l.3-.14s0,0,0,.06a.64.64,0,0,0-.2.3.26.26,0,0,0,0,.17.85.85,0,0,0-.1.14.28.28,0,0,0,.07.31.23.23,0,0,0,.16.31.33.33,0,0,0,.1,0s0,0,0,.06h0a.27.27,0,0,0,0,.31l-.16.16s0,.05,0,.07l0,0s0,0,0,0l-.06.08a.25.25,0,0,0,.36.35,1.13,1.13,0,0,0,.22-.27h0a3.7,3.7,0,0,0,.28-.28.35.35,0,0,0,.05-.13l.17-.18a.2.2,0,0,0,0-.26s0,0,.05,0a.23.23,0,0,0,0-.27l.07-.07a.23.23,0,0,0,0-.29.22.22,0,0,0,0-.35l0,0a.23.23,0,0,0,0-.32.28.28,0,0,0,0-.2.26.26,0,0,0-.11-.07,1.09,1.09,0,0,0,.17-.13.28.28,0,0,0,0-.22,1.42,1.42,0,0,0,.12-.13.24.24,0,0,0,0-.35A.25.25,0,0,0,34.78,35.64Z"/><path class="cls-10" d="M34.26,39.86a.24.24,0,0,0-.15-.09.28.28,0,0,0-.17-.07.24.24,0,0,0-.18.07l-.12.16a.26.26,0,0,0,0,.23h0a.27.27,0,0,0,0,.15v0a.3.3,0,0,0-.11.14.35.35,0,0,0,0,.2.24.24,0,0,0,.15.11h.07a.27.27,0,0,0,.12,0L34,40.7l0-.05a1,1,0,0,0,.13-.16l.14-.24a.24.24,0,0,0,0-.2h0s0,0,0,0A.32.32,0,0,0,34.26,39.86Z"/><path class="cls-10" d="M39,29.4a.19.19,0,0,0,0-.2l.15-.39a.24.24,0,0,0-.43-.21.48.48,0,0,0-.11.09l0,0s0,0,0,0l-.06.06a.76.76,0,0,1-.11.14,3,3,0,0,1-.25.25c-.16.16-.34.32-.51.47a.25.25,0,0,0,.25.42,1.65,1.65,0,0,0,.42-.21h0a.28.28,0,0,0,.12.29.26.26,0,0,0,.3,0,.47.47,0,0,0,.06-.09c.24,0,.31-.29.3-.5a.25.25,0,0,0,0-.12Z"/><path class="cls-11" d="M36.43,40.34a1.57,1.57,0,0,0-.14-.29c-.1-.16-.11-.34-.2-.49a4.33,4.33,0,0,0-.38-.47,1.37,1.37,0,0,1-.28-.5,1.64,1.64,0,0,0-.12-.41c-.11-.17-.37-.46-.6-.33s-.14.27-.19.4a1.8,1.8,0,0,1-.25.5,1.48,1.48,0,0,1-.78.52,2.12,2.12,0,0,1-1.22.07c-.34-.08-.73-.34-1,0s-.19.56-.28.84a3,3,0,0,1-.65.94,3.45,3.45,0,0,0-1.07,1.76,1.68,1.68,0,0,0,0,.89,1.74,1.74,0,0,0,.52.56,2.23,2.23,0,0,0,1,.46,3.39,3.39,0,0,0,1.23,0,4.07,4.07,0,0,0,1.08-.5c.35-.2.72-.39,1.06-.63s.61-.53.91-.79a11.12,11.12,0,0,0,.87-.81,1.86,1.86,0,0,0,.6-.89A1.7,1.7,0,0,0,36.43,40.34ZM33.23,40c.16,0,.31-.08.47-.12a2,2,0,0,0,.49-.22,1.44,1.44,0,0,1-.3,1,2.68,2.68,0,0,1-.41.53c-.1.09-.24.18-.37.11A2.24,2.24,0,0,1,33.23,40Zm-1.57-.17.39.1a.3.3,0,0,0,0,.1c-.2.38-.43,1.36-1,1.16A2.76,2.76,0,0,0,31.66,39.81Zm-1,1.86a1,1,0,0,0,1,.06,1.7,1.7,0,0,0,.64-.69c.08-.16.14-.33.22-.49a1.56,1.56,0,0,0,.17,1.08.8.8,0,0,0,.88.18,2.55,2.55,0,0,0,1.24-1.65,1.31,1.31,0,0,0,.08-.48,1.2,1.2,0,0,0-.1-.37c-.05-.09-.07-.08,0-.16a.51.51,0,0,1,.18-.14,2.65,2.65,0,0,0,.26.42c.1.1.2.21.29.32a.94.94,0,0,1,.12.83,3,3,0,0,1-.85,1.56c-.22.21-.48.39-.72.58a7.66,7.66,0,0,1-.84.56,3.21,3.21,0,0,1-1.9.57,4.29,4.29,0,0,1-1.07-.26c-.54-.26-.37-.82-.11-1.23A3.47,3.47,0,0,1,30.62,41.67Z"/><path class="cls-11" d="M31.34,17.33a.24.24,0,0,0-.29-.24l0,0a.27.27,0,0,0-.07-.3v0c.06-.14-.07-.28-.2-.31a.1.1,0,0,1,0-.05c.15-.19,0-.48-.24-.41a.22.22,0,0,0-.09-.31.21.21,0,0,0-.13-.29.24.24,0,0,0-.34-.3l0,0a2.39,2.39,0,0,0,.21-.26.24.24,0,0,0-.07-.32.24.24,0,0,0-.07-.35.19.19,0,0,0-.13,0,.26.26,0,0,0-.14-.37.24.24,0,0,0-.34-.24.25.25,0,0,0-.27-.35.24.24,0,0,0-.13-.2,1,1,0,0,0,.13-.22c.07-.23-.19-.36-.37-.28l-.14.07s0,0,0,0a.25.25,0,0,0-.22-.24.25.25,0,0,0-.37-.17l-.1.07a.25.25,0,0,0-.26-.2.24.24,0,0,0-.22-.24.29.29,0,0,0-.31-.18l-.14,0a.3.3,0,0,0-.2-.06,2.42,2.42,0,0,0-.48.13.23.23,0,0,0-.27-.06,1.76,1.76,0,0,0-.89.72c-.12.21.12.49.34.34s.27-.17.41-.25a.07.07,0,0,0,0,.06.25.25,0,0,0,.34.09l.1-.05a.23.23,0,0,0,.34.16.24.24,0,0,0,.14.26s0,.05-.05.08a.25.25,0,0,0,.28.37l.12-.06a.24.24,0,0,0,.13.13.25.25,0,0,0,.27.32l-.05.06a.25.25,0,0,0,.28.37l.09,0a.22.22,0,0,0,.28.17.25.25,0,0,0,.18.28.28.28,0,0,0,.13.35v0a.26.26,0,0,0,.09.34.32.32,0,0,0,.23,0,.29.29,0,0,1,0,.1.19.19,0,0,0,.12.2.83.83,0,0,0-.08.22.24.24,0,0,0,.3.3l.05,0a.24.24,0,0,0,.31.27.23.23,0,0,0,.12.1.61.61,0,0,0,0,.3c0,.06.06.09.11.12l-.05.07a.24.24,0,0,0,.3.34.23.23,0,0,0,.21.07.28.28,0,0,0,.13.11,1.69,1.69,0,0,0-.05.24c0,.13.1.22.22.24a.24.24,0,0,0,.34.22h0c.09.19.34.13.43,0a1.13,1.13,0,0,0,.22-.61.29.29,0,0,0,0-.1A.23.23,0,0,0,31.34,17.33Z"/><path class="cls-11" d="M39.34,27.26s0-.05,0-.08a3.74,3.74,0,0,0,.4-1.07.24.24,0,0,0-.07-.23,2.88,2.88,0,0,0-.06-1s0,0,0,0a1.07,1.07,0,0,0-.38-.77l-.07,0a9.32,9.32,0,0,0-.38-1,.2.2,0,0,0-.17-.11.08.08,0,0,0,0-.05c0-.16-.09-.32-.14-.48a1,1,0,0,0-.36-.63.25.25,0,0,0-.24,0c0-.24-.32-.4-.45-.15,0,0,0,0,0,.06a1.15,1.15,0,0,0,0-.18.23.23,0,0,0-.29-.23,1,1,0,0,0,0-.3.24.24,0,0,0-.3-.24h0a.21.21,0,0,0-.2-.16.25.25,0,0,0-.41,0v-.16a.25.25,0,0,0-.47-.12h0a.25.25,0,0,0-.45-.06.39.39,0,0,0-.06.11.76.76,0,0,0,0-.26.25.25,0,0,0-.37-.14s-.06.06-.09.09h0a.19.19,0,0,0,0-.07c0-.25-.31-.3-.44-.13a.54.54,0,0,0-.07-.19.26.26,0,0,0-.38-.06,1.36,1.36,0,0,0,0-.2.25.25,0,0,0-.35-.22.29.29,0,0,0,0-.16.25.25,0,0,0-.41,0,.24.24,0,0,0-.17-.19.24.24,0,0,0-.45,0c-.09.39-.16.79-.28,1.17a1.53,1.53,0,0,0-.28.64.25.25,0,0,0,.31.3.24.24,0,0,0,.4,0l.18-.33v0c0,.24.29.31.43.15a1.72,1.72,0,0,0,0,.32.26.26,0,0,0,.46.06l.11-.18a.25.25,0,0,0,.3.2l0,0s0,0,0,0a.26.26,0,0,0,.37.07c0,.23,0,.43.27.48a.36.36,0,0,0,.33-.09.24.24,0,0,0,.33,0,1.22,1.22,0,0,0,.24-.27v.3a.25.25,0,0,0,.37.21l0,0a.2.2,0,0,0,.11.06.26.26,0,0,0,.27.06.33.33,0,0,0,0,.14.24.24,0,0,0,.3.09.4.4,0,0,0,.19.34l.12,0a.2.2,0,0,0,.09.18,1,1,0,0,0-.06.48.2.2,0,0,0,.16.16,1.3,1.3,0,0,0,0,.21.2.2,0,0,0,.17.22,1.12,1.12,0,0,0,0,.13.26.26,0,0,0,.2.3l0,0a.26.26,0,0,0,.09.33.33.33,0,0,0,.06.1.44.44,0,0,0,0,.32.26.26,0,0,0,.23.17,2.55,2.55,0,0,0-.13.29.26.26,0,0,0,.19.31c0,.06-.08.12-.11.19a.28.28,0,0,0,.08.31c-.09.13-.19.26-.27.4a.25.25,0,0,0,.17.36c0,.19.12.37.29.31,0,0,0,.07-.05.11a.24.24,0,0,0,.21.31.25.25,0,0,0,.44.21l0-.05a.21.21,0,0,0,.14-.07A1.45,1.45,0,0,0,39.34,27.26ZM39.1,26a.28.28,0,0,0-.14-.28l.09-.14a.24.24,0,0,0,.12.14,1.5,1.5,0,0,1-.06.29Z"/><path class="cls-11" d="M26.26,18.66a.25.25,0,0,0-.26-.15.28.28,0,0,0-.36-.14s0,0-.07.05a.26.26,0,0,0-.12-.11.29.29,0,0,0-.16,0,.25.25,0,0,0-.37-.2.89.89,0,0,0-.22.16.22.22,0,0,0-.22-.15.78.78,0,0,0-.52.3h0a.23.23,0,0,0-.34,0,0,0,0,0,0,0,0,.22.22,0,0,0-.15.11,1.6,1.6,0,0,0-.12.37.24.24,0,0,0,.14.29.29.29,0,0,0,.16,0,.25.25,0,0,0,.25,0,1.63,1.63,0,0,0,.36-.38l0,0s0,.06,0,.09a.26.26,0,0,0,.4.05s0,0,0,0v0a.25.25,0,0,0,.36.21.28.28,0,0,0,.22.11.26.26,0,0,0,.19.1.27.27,0,0,0-.09.24l0,.1a.26.26,0,0,0,.42.11A3.8,3.8,0,0,0,26.4,19,.25.25,0,0,0,26.26,18.66Z"/><path class="cls-11" d="M41.43,29.36l0-.12c0-.14.1-.28.14-.43a.26.26,0,0,0-.17-.31h0v0a.25.25,0,0,0-.47-.13l-.09.19-.06-.24a.26.26,0,0,0-.49,0c0,.07-.05.13-.07.19a.24.24,0,0,0-.46,0,1.21,1.21,0,0,1-.05.18h0a.25.25,0,0,0-.31.17,7.05,7.05,0,0,0-.15.8.26.26,0,0,0,.11.28.24.24,0,0,0,.31,0,2.37,2.37,0,0,0,.32-.5.22.22,0,0,0,.3,0,1.15,1.15,0,0,0,.19-.26v0a.26.26,0,0,0,.31.18.5.5,0,0,0,.12-.08l0,.09a.74.74,0,0,0,.06.46.25.25,0,0,0,.43-.26s0,0,0,0v-.1s0,0,0,0Z"/><path class="cls-11" d="M35.63,40c0-.16-.12-.23-.25-.23l0-.08a.24.24,0,0,0-.06-.24.55.55,0,0,0-.31-.16.25.25,0,0,0-.3.18.24.24,0,0,0,.13.27.84.84,0,0,0,0,.74l0,0-.06.09a.25.25,0,0,0,.06.32s0,0,.06,0a2.21,2.21,0,0,0-.18.34.22.22,0,0,0,.09.26.21.21,0,0,0-.12,0,2.53,2.53,0,0,0-.48.55c-.1.17.06.46.28.37.63-.26.95-.94,1.35-1.45.11-.14,0-.31-.16-.36a2.12,2.12,0,0,0,.24-.37A.25.25,0,0,0,35.63,40Z"/><path class="cls-11" d="M42,28.74a.43.43,0,0,0-.09-.1c-.13-.11-.24-.11-.34-.24a2.93,2.93,0,0,0-.24-.34.93.93,0,0,0-.83-.25,6.59,6.59,0,0,1-1,.18c-.16,0-.28-.14-.44-.1a.32.32,0,0,0-.23.34c0,.07.06.13.07.19s0,.17,0,.24a3.88,3.88,0,0,0,0,.48,1.79,1.79,0,0,1-.7,1.76,1.41,1.41,0,0,1-.31.17c-.12-.05-.43.09-.62.25a.4.4,0,0,0-.36.15,5.73,5.73,0,0,0-.86,1.22,1.34,1.34,0,0,0-.14.47,1.86,1.86,0,0,0,.16,1.14,2,2,0,0,0,.86.75,2.32,2.32,0,0,0,1.64,0,3.31,3.31,0,0,0,1.87-2.22c.08-.25.12-.51.19-.76a4.24,4.24,0,0,1,.47-.86,7,7,0,0,0,.95-1.77A.77.77,0,0,0,42,28.74Zm-4.07,2.81c-.08.27.39.45.09.67s-.52-.11-.66-.32a.43.43,0,0,0,.15-.29C37.69,31.59,37.86,31.55,37.94,31.55Zm2-.46a1.85,1.85,0,0,0-.13,1,2.38,2.38,0,0,1-.5,1.35,1.62,1.62,0,0,1-1.08.67,1.44,1.44,0,0,1-1.65-.54c-.26-.39.1-.77.33-1.08a1.34,1.34,0,0,1,.11-.14l.17.21a.9.9,0,0,0,.55.27.81.81,0,0,0,.86-.75.7.7,0,0,0-.34-.6,2.67,2.67,0,0,0,.78-.75,1.74,1.74,0,0,0,.35-1c0-.39-.07-.76-.07-1.14.46.07.9-.18,1.37-.16.14,0,.19.1.26.2a.68.68,0,0,1,.17.4C41,29.8,40.27,30.34,40,31.09Z"/><path class="cls-11" d="M38.06,31.89h0Z"/><path class="cls-11" d="M37.89,32.29h0Z"/><path class="cls-7" d="M31.54,17.65s-.72,2.64-1.67,3.19-2,2-2.54,2.16a5.25,5.25,0,0,0-1.41.9s.43.57.73.58A8.25,8.25,0,0,0,29.31,23a11.57,11.57,0,0,0,2.23-2.65,9.42,9.42,0,0,0,.76-2.67l-.55-.3Z"/><path class="cls-10" d="M31.62,17.36l-.31.7a.25.25,0,0,0,.39.31,2.26,2.26,0,0,0,.35-.52.25.25,0,0,0-.43-.25,1.68,1.68,0,0,0-.25.71.25.25,0,0,0,.38.22,1.79,1.79,0,0,0,.51-.61l-.46-.19c-.05.15-.09.3-.13.45a.25.25,0,0,0,.46.2,2.38,2.38,0,0,0,.24-.51l-.48-.14q-.12.39-.27.78l.49.13,0-.19-.48-.13a2.62,2.62,0,0,1-.19.49.25.25,0,0,0,.43.26l.13-.2-.46-.2a2.36,2.36,0,0,1-.21.65l.46.2a3.32,3.32,0,0,1,.23-.51l-.46-.19a.91.91,0,0,1-.1.29l.45.19a1.87,1.87,0,0,0,.09-.67.25.25,0,0,0-.43-.17,1.13,1.13,0,0,0-.32.48l.49.13a4.43,4.43,0,0,0,.06-.51.25.25,0,0,0-.18-.24.27.27,0,0,0-.29.11,2.06,2.06,0,0,0-.21.42l.48.13a2.71,2.71,0,0,0,.09-.41.25.25,0,0,0-.14-.29.24.24,0,0,0-.31.1,1.62,1.62,0,0,0-.17.35l.49.07v-.06a.25.25,0,0,0-.25-.25.25.25,0,0,0-.25.25v.06a.25.25,0,0,0,.49.06,1.27,1.27,0,0,1,.12-.23l-.46-.19a2.71,2.71,0,0,1-.09.41.25.25,0,0,0,.17.31.26.26,0,0,0,.31-.18,1.52,1.52,0,0,1,.17-.3l-.47-.12a2.47,2.47,0,0,1-.05.38.25.25,0,0,0,.49.13.58.58,0,0,1,.19-.26l-.43-.18a1.41,1.41,0,0,1-.07.54c-.09.27.31.43.46.19a1.12,1.12,0,0,0,.15-.41.25.25,0,0,0-.14-.29.24.24,0,0,0-.31.1,3.87,3.87,0,0,0-.29.62.25.25,0,0,0,.46.2,2.8,2.8,0,0,0,.26-.77.25.25,0,0,0-.45-.2l-.13.2.43.26a3.61,3.61,0,0,0,.24-.62.25.25,0,0,0-.48-.13l-.06.19a.25.25,0,0,0,.49.13c.09-.25.18-.51.26-.77a.25.25,0,0,0-.17-.31.26.26,0,0,0-.31.17,2.09,2.09,0,0,1-.19.4l.45.19a3.5,3.5,0,0,1,.14-.46c.09-.27-.32-.43-.46-.19a1.2,1.2,0,0,1-.34.43l.38.21a1.14,1.14,0,0,1,.18-.46l-.43-.25a1.94,1.94,0,0,1-.27.41l.39.31.31-.7a.28.28,0,0,0-.09-.35.25.25,0,0,0-.34.09Z"/><path class="cls-11" d="M39.91,26a8.22,8.22,0,0,0-.33-1.91,6.6,6.6,0,0,0-1.19-2.56,6.71,6.71,0,0,0-3.23-1.9,5.47,5.47,0,0,1-2-1.17c0-.25-.22-.31-.37-.27a1,1,0,0,0-.48-.87.7.7,0,0,0-.29-.09.43.43,0,0,1,0-.05.28.28,0,0,0-.18-.2,3.42,3.42,0,0,1-.45-.73A9.46,9.46,0,0,0,29.89,13a4.27,4.27,0,0,0-4.36-1.63,4.94,4.94,0,0,0-1.73,1,3.41,3.41,0,0,1-1,.75,1.79,1.79,0,0,0-1.38.77.23.23,0,0,0,0,.21h0s0,0,0,0a.19.19,0,0,0,.05.1c.14.28.44.47.59.75a4.24,4.24,0,0,1,.52,2.32,5.79,5.79,0,0,1-.32,1.19c0,.74.92.57,1.37.36s.69-.16,1-.3a2.17,2.17,0,0,1,1.54.21.55.55,0,0,1,.14.17.31.31,0,0,0,.54-.3,1.81,1.81,0,0,0-1.45-.74,7.73,7.73,0,0,0-2.45.52,4.6,4.6,0,0,0-.16-3.4,3.7,3.7,0,0,0-.7-1,2.2,2.2,0,0,1,.28-.18,4,4,0,0,0,1.07-.36,6.28,6.28,0,0,0,.79-.66A4.18,4.18,0,0,1,25.94,12a3.75,3.75,0,0,1,3.54,1.56c1,1.1.93,2.76,1.88,3.86A3.89,3.89,0,0,1,31,18.6l-.06-.23a.32.32,0,0,0-.37-.24c-.48.15-.06.69-.11,1a.3.3,0,0,0,.1.2c-.26.39-.56.77-.84,1.13-.12.16-.26.29-.39.44l-.12-.17c-.16-.23-.33-.71-.69-.48s.23.82.38,1.11h0a8.22,8.22,0,0,1-1.05.89l-.45.24a.29.29,0,0,0-.12-.1.71.71,0,0,1-.4-.25.33.33,0,0,0-.44,0c-.19.25,0,.5.31.66l-1,.47a.36.36,0,0,0-.24,0h0c-.22-.19-.46-.36-.7-.53A8.42,8.42,0,0,1,22,19.12c-.12-.29-.07-.88-.51-.82s-.14.66-.09,1c.6,1.95,2.23,3.3,3.78,4.51a.6.6,0,0,0,.11.06.21.21,0,0,0,0,.11,2.44,2.44,0,0,0,.82.67.91.91,0,0,0,.49.06.26.26,0,0,0,.08.13c.33.38.78.6,1.06,1a8.09,8.09,0,0,1,1,2.26c.07,1-.55,2-.19,3.05.08.24.17.6.46.63h0c.42,0,.31-.48.33-.75a1.55,1.55,0,0,1,.33-.75A2.59,2.59,0,0,1,32.48,30a5.28,5.28,0,0,0,1.52.53,1.58,1.58,0,0,0,.79.18A7.78,7.78,0,0,0,36,30.69a3.84,3.84,0,0,0,1.71-1,5.85,5.85,0,0,0,1.68-1.89,7.34,7.34,0,0,0,.45-1.18C40,26.48,39.92,26.16,39.91,26ZM26.09,23.88c.36-.12.69-.36,1-.5A7.66,7.66,0,0,0,30,21.16a8.62,8.62,0,0,0,2-3.35.33.33,0,0,1,.21.28,2.5,2.5,0,0,1-.35,1.24,10.4,10.4,0,0,1-1,1.72,7.46,7.46,0,0,1-1.21,1.17,8.82,8.82,0,0,1-2.94,1.83A.65.65,0,0,1,26.09,23.88Zm13.2,2.39a6.24,6.24,0,0,1-.82,1.8,5.31,5.31,0,0,1-1,1,5,5,0,0,1-1.25.88,2,2,0,0,1-.87.17h0l-.07,0H35l-.1,0H34.8a1.32,1.32,0,0,1-.58-.15c-.36-.08-.72-.18-1.07-.29A5.73,5.73,0,0,0,32,29.18a3.08,3.08,0,0,0-2.91.82,4.26,4.26,0,0,0,0-2.73,6,6,0,0,0-1.36-2.37c-.17-.15-.35-.26-.51-.42l.17-.08a6.28,6.28,0,0,0,.59-.27,1,1,0,0,1,.11.2.32.32,0,0,0,.42.13c.27-.14.15-.44,0-.65a9.65,9.65,0,0,0,2-1.53l.08.08a.31.31,0,1,0,.4-.47l0,0,.19-.18a9.81,9.81,0,0,0,1.55-2.88A4.17,4.17,0,0,0,34.5,20a12.83,12.83,0,0,1,3,1.48,7.24,7.24,0,0,1,1.78,4.81S39.29,26.26,39.29,26.27Z"/></g></g></svg>