<svg xmlns="http://www.w3.org/2000/svg" viewBox="0 0 47.53 47.2"><defs><style>.cls-1{fill:#6fadb2;}.cls-2{fill:#3c58a4;}.cls-3{fill:#f4bdd8;}.cls-4{fill:#ed88b6;}.cls-5{fill:#e9a061;}.cls-6{fill:#b27e4c;}.cls-7{fill:#2d3687;}.cls-8{fill:#fff;}.cls-9{fill:#ededed;}.cls-10{fill:#e52823;}.cls-11{fill:#b1dde3;}.cls-12{fill:#92443f;}.cls-13{fill:#6b1e1e;}.cls-14{fill:none;}.cls-15{fill:#cecece;}</style></defs><g id="Layer_2" data-name="Layer 2"><g id="Card"><path class="cls-1" d="M39.2,41.7s-1.2,1.84-5.09,2.17S9.8,40.4,9.8,40.4a2.08,2.08,0,0,0,.11,2c.64,1.16,3,2.69,8.29,3.65a45.28,45.28,0,0,0,13.07.55c3.48-.37,7.08-1.14,8-3.86C39.64,41.58,39.2,41.7,39.2,41.7Z"/><path class="cls-2" d="M39.51,41.76s-.58-2.11-2.07-2.57-2.46-.09-3-.28a36.4,36.4,0,0,0-4.46-.83c-.9-.06-4.75-.29-6.52-.2s-7.43.21-8.51.3-3.54.08-4.08.42a2.6,2.6,0,0,0-1,1.16,2.09,2.09,0,0,0,0,.64s2.87-.48,5.11-.61,6.79-.5,8.55-.52a77.81,77.81,0,0,1,8.71.48c.94.26,3.26.26,4.12.53A32.87,32.87,0,0,1,39.51,41.76Z"/><path class="cls-3" d="M16.19,19.93a5.85,5.85,0,0,1-1,.85c-.5.31-.94.47-1.42.82s-.76,1.59-1.22,2-.55,1.2-.88,1.8-1.25,2.2-1.25,2.2a2.13,2.13,0,0,1,.75.33,3,3,0,0,1,.55.68,23.46,23.46,0,0,1,2.1-2.72,10.65,10.65,0,0,1,3.57-2.16A3,3,0,0,1,20.19,25a6,6,0,0,1,.62,2.08.63.63,0,0,1-.16.79,3.18,3.18,0,0,1-1.16.57s.27.51-.21.68a1,1,0,0,1-.84-.09.5.5,0,0,1-.18.59,1.37,1.37,0,0,1-.83.28s-.15-.15-.16.24.35.9.3,1.41a2.22,2.22,0,0,1-.37,1.1c-.23.39-.74,1.13-.47,1.69s.38,1.12.52,1.5a6,6,0,0,1,0,1.53,3.62,3.62,0,0,1-.17.67l8-.25,7.39.81s.87-3.12.93-3.93.62-2.88.71-3.49A14.44,14.44,0,0,0,34,28.66c0-.65-.11-2.09-.11-2.09s1.29-1.72,2.41-1.73a5.25,5.25,0,0,1,2.48,1,37.74,37.74,0,0,0-.72-3.71c-.35-1.18-1.34-4.29-2.46-4.67A21.8,21.8,0,0,0,31.54,17l-3-.12"/><path class="cls-4" d="M38.81,25.15l-.06-.08a.24.24,0,0,0,0-.3,1.6,1.6,0,0,1-.16-.23.26.26,0,0,0,0-.4l-.21-.09a.26.26,0,0,0,.18-.24.38.38,0,0,0-.13-.24.36.36,0,0,0,0-.1h.06c.28-.06.17-.51-.1-.49a.56.56,0,0,1-.13,0c.13-.13.14-.39-.1-.42h0a.21.21,0,0,0,.09-.24,2.5,2.5,0,0,0-.18-.48.25.25,0,0,0,0-.19c0-.13-.11-.26-.17-.39-.21-.49-.36-1-.58-1.5a.3.3,0,0,0-.17-.14.45.45,0,0,1-.09-.1.69.69,0,0,1-.1-.19s0-.05-.06-.08a.24.24,0,0,0-.07-.3.24.24,0,0,0-.08-.32.25.25,0,0,0,0-.36,1.2,1.2,0,0,0-.74-.35.32.32,0,0,0,0-.09.68.68,0,0,0-.44-.26.26.26,0,0,0-.13-.28,1.73,1.73,0,0,0-1.07-.11A.25.25,0,0,0,34,17a6.7,6.7,0,0,1-1.48.1.25.25,0,0,0-.1.49h0c-.06.15,0,.34.16.36a2.72,2.72,0,0,0,.28,0l0,0c-.11.17.07.37.25.36s.4,0,.61-.07a.19.19,0,0,0,.11.12,1.75,1.75,0,0,0,.75.1.66.66,0,0,0-.32.4c-.06.17.11.3.26.3a2.46,2.46,0,0,0,.37,0,.21.21,0,0,0,.08.31l-.06,0a.25.25,0,0,0,.09.45h0a1.54,1.54,0,0,0-.19.08c-.2.1-.1.41.09.45H35c-.07.14,0,.34.16.36s.24,0,.36,0a.24.24,0,0,0,.09.36h0a.25.25,0,0,0,.17.35h.06a.26.26,0,0,0-.05.34,1.41,1.41,0,0,0-.22.06.25.25,0,0,0,0,.48h.18c-.17.14-.14.5.14.44H36l.22,0a.24.24,0,0,0,.14.28,1.93,1.93,0,0,0-.41.12.23.23,0,0,0-.06.41c-.13.15-.05.46.19.41h.07a.36.36,0,0,0,0,.15,2.87,2.87,0,0,0-.8.14.25.25,0,0,0,0,.46c0,.15.06.34.24.31s.46-.08.69-.12A2.18,2.18,0,0,1,37,25a.92.92,0,0,0,.81,0h0a4.7,4.7,0,0,1,.56.46C38.58,25.58,38.92,25.38,38.81,25.15Zm-1.47-3.78,0,.08h-.11S37.32,21.39,37.34,21.37Z"/><path class="cls-4" d="M33.48,33.72a.32.32,0,0,0,.44-.31c.43,0,0-.2.07-.25.19-.39-.15-.7-.1-1.13a8,8,0,0,0,.19-1.46.2.2,0,0,0-.09-.16A.23.23,0,0,0,34,30a.26.26,0,0,0-.22-.4H33.6l.08,0,.14,0c.22-.05.19-.3,0-.42a.25.25,0,0,0-.21-.36.78.78,0,0,0,.26-.25.22.22,0,0,0,0-.27.41.41,0,0,0,.1-.13.22.22,0,0,0-.06-.29.4.4,0,0,0,.07-.33.44.44,0,0,0-.17-.27h0a.94.94,0,0,0,0-.55.25.25,0,0,0-.14-.33.3.3,0,0,0-.07-.15l.15,0a.25.25,0,0,0,.09-.4.25.25,0,0,0,.24-.38.83.83,0,0,0-.57-.38.25.25,0,0,0-.25-.24,2.23,2.23,0,0,0-1.44.27.26.26,0,0,0,.09.46,3.14,3.14,0,0,0,.42,0,1.62,1.62,0,0,0-.36.21A.26.26,0,0,0,32,26a.62.62,0,0,0-.1.29.19.19,0,0,0,.05.11l-.17.06a.25.25,0,0,0-.08.42l.09.06a.21.21,0,0,0,.09.25.24.24,0,0,0,.07.38,1.39,1.39,0,0,0,.19.06.22.22,0,0,0,.19.24h0a.27.27,0,0,0,0,.2c-.1,0-.2,0-.3.06a.25.25,0,0,0-.08.42l.13.07a.25.25,0,0,0,.06.36l-.63.07a.25.25,0,0,0,0,.5l.3,0h0a.2.2,0,0,0,.17.17,3.62,3.62,0,0,0,.46,0,.25.25,0,0,0,0,.12.56.56,0,0,0-.28.54.31.31,0,0,0,0,.1.5.5,0,0,0-.08.07.26.26,0,0,0,0,.36.53.53,0,0,0-.15.11.22.22,0,0,0,0,.29.82.82,0,0,0-.23.32.23.23,0,0,0,0,.12.24.24,0,0,0,.09.36l.17,0a.2.2,0,0,0,0,.11l0,0s0,0,0,.06l0,0h0a.25.25,0,0,0,.07.39.23.23,0,0,0,0,.2,1.07,1.07,0,0,0-.14.16.22.22,0,0,0,0,.08.66.66,0,0,0-.16.17h0a.63.63,0,0,0-.27.56l0,0a.28.28,0,0,0,.16.14.76.76,0,0,1,.21,0h0a1.1,1.1,0,0,0,.36,0l.24,0a0,0,0,0,0,0,0,.44.44,0,0,0,.63,0,.67.67,0,0,0,.18-.07A.23.23,0,0,0,33.48,33.72Zm0-2.13a.64.64,0,0,1,0,.07h0l0-.06Zm0-.51h0Z"/><path class="cls-4" d="M21.24,20a.36.36,0,0,1,0-.09.26.26,0,0,0-.37-.32l0,0a.25.25,0,0,0-.17,0,.15.15,0,0,0-.12-.07.71.71,0,0,0-.15,0v0a.24.24,0,0,0-.15-.2.22.22,0,0,0-.13-.15s0,0,0-.05a.25.25,0,0,0-.35,0c-.1.14-.19.28-.28.43a.16.16,0,0,0,0,.1l-.07.09a.22.22,0,0,0,0,.29l0,0-.21.08a.24.24,0,0,0-.12,0,4.29,4.29,0,0,0-1.36,1.18.25.25,0,0,0,.32.37c.15-.07.29-.17.43-.24a.2.2,0,0,0,.1-.15h0l.05,0h0l0,0a3.59,3.59,0,0,0,.4-.38h0a.2.2,0,0,0,.24,0l.4-.34a.2.2,0,0,0,.16,0l0,0a.25.25,0,0,0,.29,0,.26.26,0,0,0,.37.13,1.15,1.15,0,0,1,.25-.12.18.18,0,0,0,.13,0,.44.44,0,0,0,.31-.15A.23.23,0,0,0,21.24,20Z"/><path class="cls-4" d="M28.54,17.68a.25.25,0,0,0-.45-.22l-.2.37a.21.21,0,0,0-.31.11,4.22,4.22,0,0,1-.36.66.24.24,0,0,0-.33,0,.28.28,0,0,0-.15.08l-.34.47a.24.24,0,0,0,.23.39,1.8,1.8,0,0,0-.4.79.24.24,0,0,0,.17.28c0,.1,0,.19-.07.28-.06.27.37.43.47.16L27,20.6a1,1,0,0,0,.08.49c.09.17.37.25.46,0a9.16,9.16,0,0,0,.45-2.33c0-.07.08-.14.11-.21A3.93,3.93,0,0,0,28.54,17.68Z"/><path class="cls-4" d="M33.85,34.7c0-.09-.13-.16-.23-.23s0-.07,0-.1a.54.54,0,0,0-.32-.36v0s-.06,0-.09-.06l-.06,0,0,0a.77.77,0,0,0-.21-.14h0a.61.61,0,0,0-.79.49l-.15.1a.4.4,0,0,0-.12.49.35.35,0,0,0-.1.26,2.24,2.24,0,0,0-.45.27.46.46,0,0,0-.16.41c-.09.08-.22.12-.3.21s-.08.46.13.62a.4.4,0,0,0,.11.42.41.41,0,0,0,0,.44,1.24,1.24,0,0,0,.23.17.42.42,0,0,0,.13.49,1.63,1.63,0,0,0,1.4.19c.32-.11.55-.34.45-.64a.45.45,0,0,0-.11-.17.46.46,0,0,0-.12-.57.44.44,0,0,0,.07-.37c0-.05-.08-.09-.11-.13a.46.46,0,0,0,0-.41c.2-.12.33-.29.26-.51a.42.42,0,0,0,.18-.37C33.79,35.08,33.92,34.92,33.85,34.7Zm-.41-.52,0,0s0-.06,0-.08Zm-.54.21h0c.06,0,.06,0,0,0Z"/><path class="cls-4" d="M33.32,34l0,0c.07.07,0,0-.06,0h0Z"/><path class="cls-4" d="M39,25.69a25.55,25.55,0,0,0-1.42-5.84,4.7,4.7,0,0,0-1.69-2.45c-.36-.22-3.81-1-3.91-.46-.06.39,1.83.33,2.08.35s1.67.15,1.63.38a3.94,3.94,0,0,1,1.4,2.09,19.46,19.46,0,0,1,1.44,5.53,2.56,2.56,0,0,0-2.44-.5,4.53,4.53,0,0,0-2,1.39h0c0-.29-.05-.59-.07-.88a.19.19,0,0,0-.06-.26,1.11,1.11,0,0,0-.13-.36.87.87,0,0,0-.66-.36c-.15-.07-.4-.12-.43.11a.2.2,0,0,0,.17.2c.14.05.29.07.43.11h0c.23.11.26.38.3.61,0,0,0,0,0,0v.06c0,.34.07.68.09,1a.18.18,0,0,0,.2.17s0,0,.06,0a.23.23,0,0,0,.18,0,.51.51,0,0,0,.25-.21,3.79,3.79,0,0,1,1.92-1.28,2.11,2.11,0,0,1,2.12.67c.12.17.32.38.49.26A.36.36,0,0,0,39,25.69Z"/><path class="cls-4" d="M25.55,21.23c-.41.85-.76,1.74-1.25,2.55a14.81,14.81,0,0,1-2-2.4,14.62,14.62,0,0,0-.77-1.4,4.71,4.71,0,0,1-.45-.22c0,.16.08.34.16.47a7.61,7.61,0,0,1,.51.87A7.86,7.86,0,0,0,23,23a5.74,5.74,0,0,0,.71.77,1.55,1.55,0,0,0,.49.43c.38.09.57-.54.72-.8s.34-.69.5-1a11,11,0,0,0,.68-1.63c.12-.49.21-1,.31-1.5l-.45.33A7.73,7.73,0,0,1,25.55,21.23Z"/><path class="cls-4" d="M17,37.66a5.9,5.9,0,0,0,.17-1.5,4.7,4.7,0,0,1,0-.53.19.19,0,0,1,.24-.11c.21.09.12.38.15.57a6.5,6.5,0,0,1-.18,1.64.19.19,0,0,1-.22.15A.18.18,0,0,1,17,37.66Z"/><path class="cls-4" d="M16.1,19.86a6.73,6.73,0,0,1-1.84,1.25c-1.5,1-1.93,2.83-2.77,4.32-.34.7-.72,1.38-1.12,2a.87.87,0,0,0-.15.3h0c0,.3.35.15.54.23a.92.92,0,0,1,.54.34.87.87,0,0,1,.15.24l.11-.16a1.15,1.15,0,0,1,.14-.17,2.11,2.11,0,0,0-.36-.4,1.92,1.92,0,0,0-.61-.24l.22-.38c.55-1,1.06-1.94,1.53-2.95a6.32,6.32,0,0,1,1.95-2.84,8.05,8.05,0,0,0,1.7-1.09c.07-.2.14-.41.19-.61A.32.32,0,0,0,16.1,19.86Z"/><path class="cls-5" d="M38.62,25.53a3,3,0,0,0-2.07-.65,9,9,0,0,0-2.47,1.47,7.46,7.46,0,0,0,0,1.52,20.85,20.85,0,0,1,.17,2.82,5.87,5.87,0,0,1-.13,1.42c-.15.53-.6,2.57-.6,2.57l-.7,3.94h0l.4.05a1.47,1.47,0,0,1,.59.24,16.74,16.74,0,0,1,2,.07c.46.11,1.25.2,1.25.2s.89-2.84,1-3.43.38-3.12.44-4.08.06-4.57.21-5.1A1.75,1.75,0,0,0,38.62,25.53Z"/><path class="cls-6" d="M36.83,39.06a.15.15,0,0,1,0-.16,8.41,8.41,0,0,1,.31-1,13.07,13.07,0,0,0,.76-2.87c.09-.65.14-1.27.25-1.91.12-1,.13-2.08.15-3.1,0-1.35.16-2.69.12-4,0-.18-.11-.49.17-.49s.18.33.21.5c0,1.69-.15,3.38-.15,5.07a17.94,17.94,0,0,1-.24,2.84,14,14,0,0,1-.67,3.4c-.16.48-.34,1-.5,1.44-.05.14,0,.34-.2.4A.2.2,0,0,1,36.83,39.06Z"/><path class="cls-6" d="M34.27,28.43c0-.38,0-.72,0-1.11a2.2,2.2,0,0,1,0-.77.2.2,0,0,0-.18-.2c-.15,0-.23.15-.24.28,0,.89.06,1.79,0,2.69A12.37,12.37,0,0,1,34,31.51c-.13,1-1.24,5.41-1.44,6.92l.36.14c.12-.78.84-4.48.9-4.75a17.11,17.11,0,0,0,.58-2.55C34.44,30.31,34.18,29.4,34.27,28.43Z"/><circle class="cls-6" cx="37.76" cy="32.97" r="0.19"/><path class="cls-7" d="M0,41.08c0-.42.74-.17,1-.22,1-.07,2.1,0,3.14-.07,1.41,0,2.82-.26,4.24-.15a8.12,8.12,0,0,0,.85.07c.17,0,.42.06.35.27a.18.18,0,0,1-.26.11c-.56,0-1.11-.11-1.67-.11L6.48,41A44.22,44.22,0,0,1,2,41.19c-.59,0-1.19,0-1.78,0A.2.2,0,0,1,0,41.08Z"/><path d="M9.94,40a.19.19,0,0,1-.14-.23.32.32,0,0,1,.22-.18,1.87,1.87,0,0,0,0,.25V40h0Z"/><path class="cls-2" d="M9.86,40.64a11.23,11.23,0,0,0,3.69,2.48A58.61,58.61,0,0,0,23,44.77c1.48.08,5,.18,7.1.06a19.09,19.09,0,0,0,6.69-1.37A7,7,0,0,0,39.2,41.7a15.15,15.15,0,0,0-3.33-1.53,21.16,21.16,0,0,0-3.42-.34c-.51.05-8.43-.82-11.4-.49s-7.12.2-8.7.7A14.47,14.47,0,0,1,9.86,40.64Z"/><path d="M12.39,38.39h0Z"/><polygon points="17.68 38.29 17.68 38.29 17.68 38.29 17.67 38.29 17.68 38.29"/><polygon points="17.68 38.29 17.68 38.29 17.68 38.29 17.67 38.29 17.68 38.29"/><polygon class="cls-7" points="38.03 42.99 38.03 42.99 38.03 42.99 38.03 42.99"/><polygon class="cls-7" points="33.02 46.74 33.02 46.74 33.02 46.74 33.02 46.74"/><path class="cls-7" d="M39.46,40.94a3.61,3.61,0,0,0-2.46-2,8.28,8.28,0,0,0-2.33-.23c-1.59-.31-3.18-.59-4.8-.76-1-.1-2-.14-2.94-.2a14.69,14.69,0,0,0-2.2,0c-2,0-8.73.22-12.14.43a5.36,5.36,0,0,0-1.95.37,2,2,0,0,0-1,1.1c-.08.23,0,.46-.11.68a2.49,2.49,0,0,0-.14.72,3.49,3.49,0,0,0,1.2,2.6,8.63,8.63,0,0,0,3.53,1.65c6.71,1.89,13.91,2.75,20.67,1a8.15,8.15,0,0,0,3.6-1.69,4,4,0,0,0,1.15-1.83A2.91,2.91,0,0,0,39.46,40.94Zm-28.68-2.1a3.82,3.82,0,0,1,1.68-.32L24.88,38a48.13,48.13,0,0,1,5.09.32c.86.1,1.72.21,2.57.37.35.07.68.16,1,.24l.1.05c1.05.27,2.16.12,3.22.32s2.17.95,2.18,2a11.91,11.91,0,0,0-6.3-1.65h0c-1.81-.17-8.21-.53-8.28-.53A78.43,78.43,0,0,0,10,40.25,1.34,1.34,0,0,1,10.78,38.84Zm13.43.68c2.83,0,5.66.21,8.48.46h.08l.34,0,.06,0A11,11,0,0,1,39,41.75a9.83,9.83,0,0,1-4.37,2.31,23.43,23.43,0,0,1-5,.6,51.09,51.09,0,0,1-14.38-1.24c-1.91-.48-3.92-1.2-5-2.82A74.61,74.61,0,0,1,24.21,39.52Zm14,4.75-.19.17a6.55,6.55,0,0,1-1.93,1A29.22,29.22,0,0,1,25,46.79,52,52,0,0,1,14,44.8a8,8,0,0,1-3-1.32,3.44,3.44,0,0,1-1-1.29c-.09-.2-.44-1.44,0-1.27.21.09.46.51.63.67a8.82,8.82,0,0,0,.76.61,9.56,9.56,0,0,0,1.66.91,18.44,18.44,0,0,0,4,1.09,58.89,58.89,0,0,0,11.78.92,24.77,24.77,0,0,0,5.44-.59,11.45,11.45,0,0,0,4.87-2.41A2.4,2.4,0,0,1,38.25,44.27Z"/><polygon class="cls-7" points="37.91 44.54 37.91 44.53 37.91 44.54 37.91 44.54"/><path class="cls-8" d="M26.15,41.31a4,4,0,0,0,2.09.68,3.22,3.22,0,0,0,1.87-.45A17.09,17.09,0,0,0,30.78,39c.12-1,.22-2.52.22-2.52a4.74,4.74,0,0,0-2.83-.81c-1.57.1-2.64.08-2.67.59a1.87,1.87,0,0,0,.12.8s.35,2.6.41,3.13S26.15,41.31,26.15,41.31Z"/><path class="cls-9" d="M25.45,36.41a1.28,1.28,0,0,0,1.24,1c1.06.07,4.48-.29,4.36-.7s-2-1.13-3.34-1S25.57,35.78,25.45,36.41Z"/><path class="cls-1" d="M30.24,41.59a16.46,16.46,0,0,0,.93-5.2.15.15,0,0,0-.22-.13,3.15,3.15,0,0,0-1.42-.57,9.63,9.63,0,0,0-3-.11.08.08,0,0,0-.07,0l-.19,0-.15,0a.15.15,0,0,0-.09.06,1.05,1.05,0,0,0-.6.42.57.57,0,0,0,0,.59q.26,1.23.42,2.46c.06.44.11.87.15,1.31l.06.7c0,.16,0,.26.13.36a4,4,0,0,0,2,.62,4.43,4.43,0,0,0,1.87-.3.14.14,0,0,0,.18-.05h0A.13.13,0,0,0,30.24,41.59ZM26.3,35.91a9.06,9.06,0,0,1,2.8,0,7,7,0,0,1,1.35.34c.12,0,.23.09.26.22s-.07.24-.2.32a2.41,2.41,0,0,1-.65.24,8.45,8.45,0,0,1-2.75.16,2.21,2.21,0,0,1-1.34-.45.44.44,0,0,1-.09-.13c0-.06,0-.13,0-.19s0,0,0,0C25.66,36.16,26,36,26.3,35.91Zm0,5.36a36.63,36.63,0,0,0-.56-4.17,4.4,4.4,0,0,0,2.55.42,7.83,7.83,0,0,0,1.45-.14,2.36,2.36,0,0,0,1.07-.45A15.94,15.94,0,0,1,30,41.46a.11.11,0,0,0-.09.11A4.14,4.14,0,0,1,26.32,41.27Z"/><polygon points="33.25 46.69 33.25 46.69 33.25 46.69 33.26 46.69 33.25 46.69 33.25 46.69"/><path d="M33.27,46.68Z"/><path d="M33.53,46.63h0Z"/><polygon points="37.87 45 37.87 45 37.87 45 37.87 45"/><path class="cls-10" d="M37.44,44.81Z"/><polygon points="37.99 44.47 37.99 44.47 37.99 44.47 37.99 44.47"/><path d="M38,44.47Z"/><path class="cls-11" d="M28.24,30.06A3,3,0,0,0,26,27.39c-1.22-.41-3.27.06-4,.11a1.57,1.57,0,0,1-1.19-.59,8,8,0,0,1-.4,1.22l0,.05a1.4,1.4,0,0,1,.67.95c.07.65-1,1.25-1.8,1.32s-.94-.79-.94-.79-.11,0-.07-.19a1.11,1.11,0,0,1,.08-.21h-.05a.77.77,0,0,1-.41.47,2.15,2.15,0,0,1-.63.18,3.77,3.77,0,0,0,0,.53c0,.34.39.74.44,1.22s-.87,1.43-1,2.09A4.15,4.15,0,0,0,18,36.4a4.56,4.56,0,0,0,3.57,1.09c1.26,0,1.86-1.35,2.22-1.93a10.85,10.85,0,0,1,1.76-2.13A3.89,3.89,0,0,1,26.4,33a1.72,1.72,0,0,0-.47-.59c-.3-.22-.67-.55-.67-.55a5.43,5.43,0,0,1,1.67.14c.88.22.82.35.82.35A5.28,5.28,0,0,0,28.24,30.06Z"/><path class="cls-5" d="M10.47,27.65a16.27,16.27,0,0,0-1.33,2.88A8.41,8.41,0,0,0,9,33.94c.33.93,1,1.92,2,1.91a4.21,4.21,0,0,0,2.54-1.41,4.32,4.32,0,0,0,.94-2.12,4.7,4.7,0,0,1,.43-1.59,7.7,7.7,0,0,1,.54-.92,4.66,4.66,0,0,0,1.25.36,2,2,0,0,0,.67-.37.59.59,0,0,0,.75-.14c.42-.39.35-.62.35-.62s.4.4.67.13a1.59,1.59,0,0,0,.38-.72s1-.13,1.16-.57a2.7,2.7,0,0,0,0-2.23c-.46-.64-1.28-1.84-2.15-1.82A4.68,4.68,0,0,0,15.06,25a29.48,29.48,0,0,0-3.29,3.66,9.6,9.6,0,0,0-.72-.64A2.63,2.63,0,0,0,10.47,27.65Z"/><path class="cls-5" d="M30.7,12.49c-.48-.8-1.12,0-1.12,0s-1-.59-1.81-1-1.56-.11-2-.23-1.83-.12-2.62-.34A6.3,6.3,0,0,1,21.22,10c-.7-.45-.76-.79-1.2-1.46s-.26-1-.26-1l-.28.53-.13.65a12.25,12.25,0,0,1-1.23,2.12,14.9,14.9,0,0,1-1.33,1.53,6.21,6.21,0,0,1,.84,2A6,6,0,0,0,18.32,17a30.43,30.43,0,0,0,2.13,2.28c.55.45.7.37.7.37a13.09,13.09,0,0,0,.76,1.49,20.6,20.6,0,0,0,1.27,1.71c.26.24,1.16,1.12,1.16,1.12a8.5,8.5,0,0,0,.57-1,14.8,14.8,0,0,0,1-2.09c.18-.67.37-1.92.37-1.92l1.78-1.51.86-.7C29.58,15.26,31,13,30.7,12.49Z"/><path class="cls-12" d="M31.83,14c.05-1.15.87-5.44.28-7C31.36,5,30,2.22,28.3,1.34A5.42,5.42,0,0,0,26,.5,5.07,5.07,0,0,0,24.7.71,3.39,3.39,0,0,0,23.53.3a9.56,9.56,0,0,0-5,1.8,6.68,6.68,0,0,0-2.39,3.48,15,15,0,0,0-.3,3.59c.21.83.91,3.23.91,3.23a14.9,14.9,0,0,0,1.33-1.53,12.25,12.25,0,0,0,1.23-2.12l.13-.65.28-.53s-.18.33.26,1,.5,1,1.2,1.46a6.3,6.3,0,0,0,1.91.94c.79.22,2.15.21,2.62.34s1.2-.16,2,.23,1.81,1,1.81,1,.64-.83,1.12,0c.29.49-1.12,2.77-1.79,4.26a4.8,4.8,0,0,0-.29.77c-.35,1.28-1.39,4.26-1.39,4.26a16,16,0,0,0,1.89-1.25c.65-.54,2.7-2.19,2.7-2.19S31.77,15.4,31.83,14Z"/><path class="cls-12" d="M16.61,12a41.64,41.64,0,0,1,.4,4.5c-.05,1.11-.43,2.58-.48,3.42s-.76,1.7-.27,1.62a9.08,9.08,0,0,0,2.17-1,3.78,3.78,0,0,0,1.27-1.21,3,3,0,0,1,.24-.68A4.88,4.88,0,0,1,18.32,17a15.45,15.45,0,0,1-.77-2.25Z"/><path class="cls-7" d="M39,41.74c0-.33.49-.25.68-.16.92,0,1.84-.11,2.77-.1a17.22,17.22,0,0,0,2,0c.85-.05,1.72,0,2.56,0,.18,0,.49-.09.53.17a.2.2,0,0,1-.18.2c-1.13,0-2.26-.08-3.39,0-.82.07-1.65,0-2.47,0a13.73,13.73,0,0,1-1.7.07C39.56,41.93,39,42,39,41.74Z"/><path class="cls-13" d="M22.19,18.84a2.28,2.28,0,0,1-.83-.32c-.37-.23-.32-.54.15-.36.16.06.31.16.47.23a1.72,1.72,0,0,0,1.63-.16.74.74,0,0,1,.21-.13.22.22,0,0,1,.23.06c.09.13-.05.28-.18.36a2.42,2.42,0,0,1-1.51.35Z"/><path class="cls-13" d="M23.71,13.24a1.25,1.25,0,0,1,.29-.4,2.23,2.23,0,0,1,1.05-.47,2.19,2.19,0,0,1,1.59.36.47.47,0,0,1,.21.23.22.22,0,0,1-.11.27.35.35,0,0,1-.28-.13,1.65,1.65,0,0,0-1.08-.39,1.67,1.67,0,0,0-1.07.4,1.19,1.19,0,0,1-.34.26C23.69,13.46,23.66,13.37,23.71,13.24Z"/><path class="cls-13" d="M24,14.8c0-.24.57,0,.72,0a1.28,1.28,0,0,0,1.1-.26c.11-.09.25-.21.38-.15a.23.23,0,0,1,.06.3.85.85,0,0,1-.25.21,2.51,2.51,0,0,1-1.1.33c-.23,0-.78-.09-.88-.35A.26.26,0,0,1,24,14.8Z"/><path class="cls-13" d="M17.35,13.71a.61.61,0,0,1,0-.16c.12-.33.72-.53,1-.58a1.81,1.81,0,0,1,1.24.28c.1.07.2.2.14.3s-.24.07-.36,0a1.91,1.91,0,0,0-.8-.24.94.94,0,0,0-.77.28C17.69,13.79,17.33,14,17.35,13.71Z"/><path class="cls-13" d="M18.41,15.76l-.15-.07c-.13-.07-.51-.29-.52-.46,0-.35.35-.13.49,0a1.24,1.24,0,0,0,1.21.24c.14-.05.32-.11.4,0a.18.18,0,0,1,0,.23.48.48,0,0,1-.21.12A1.69,1.69,0,0,1,18.41,15.76Z"/><path class="cls-13" d="M21.4,16.6c0-.06,0-.13.05-.21s.67,0,.88-.09.28-.11.37,0a.2.2,0,0,1,0,.24.53.53,0,0,1-.23.13,1.77,1.77,0,0,1-.68.11A.67.67,0,0,1,21.4,16.6Z"/><path d="M37.15,43.29Z"/><polygon points="37.15 43.29 37.15 43.29 37.15 43.29 37.15 43.29"/><path class="cls-14" d="M24.74,20.32a2.38,2.38,0,0,1-1.65.3,1.74,1.74,0,0,1-.81-.21,3.11,3.11,0,0,0-.75-.43,14.62,14.62,0,0,1,.77,1.4,14.81,14.81,0,0,0,2,2.4c.49-.81.84-1.7,1.25-2.55a7.73,7.73,0,0,0,.44-1.7A14.63,14.63,0,0,1,24.74,20.32Z"/><path class="cls-6" d="M16.61,12a.74.74,0,0,0,0,.36C16.79,12.07,16.65,11.7,16.61,12Z"/><path d="M22.81,29.54h0Z"/><polygon points="22.81 29.53 22.81 29.53 22.81 29.53 22.81 29.53"/><path d="M23.5,31.21Z"/><polygon points="23.5 31.21 23.5 31.21 23.5 31.21 23.5 31.21 23.5 31.21"/><path d="M23.49,31.21h0Z"/><polygon points="23.42 31.16 23.42 31.16 23.42 31.16 23.42 31.16"/><polygon points="25.85 37.48 25.86 37.48 25.86 37.48 25.85 37.48"/><polygon points="25.77 37.46 25.77 37.46 25.77 37.46 25.76 37.46 25.77 37.46 25.77 37.46 25.77 37.46 25.77 37.46"/><path d="M25.46,37.37Z"/><path d="M26.4,35.77Z"/><path d="M28.15,32.08Z"/><polygon points="28.15 32.08 28.15 32.08 28.15 32.08 28.15 32.08"/><polygon points="37.64 43.21 37.64 43.21 37.64 43.21 37.64 43.21"/><polygon points="37.64 43.21 37.64 43.21 37.64 43.21 37.64 43.21"/><polygon points="37.77 43.13 37.77 43.13 37.77 43.13 37.77 43.13 37.77 43.13"/><polygon points="39.39 40.93 39.39 40.93 39.39 40.93 39.39 40.93"/><polygon points="39.24 41.39 39.24 41.39 39.24 41.4 39.24 41.39"/><polygon points="37.67 43.24 37.67 43.24 37.67 43.24 37.67 43.24"/><path d="M37.77,43.13Z"/><polygon points="37.77 43.13 37.77 43.13 37.77 43.13 37.77 43.13"/><polygon points="37.77 43.13 37.77 43.13 37.77 43.13 37.77 43.13 37.77 43.13 37.77 43.13"/><polygon points="37.77 43.13 37.77 43.13 37.77 43.13 37.77 43.13"/><polygon points="37.77 43.13 37.78 43.13 37.77 43.13 37.77 43.13"/><path d="M37.82,43.1Z"/><polygon points="37.82 43.1 37.82 43.1 37.82 43.1 37.82 43.1"/><path d="M37.83,43.1h0Z"/><path d="M38,43h0Z"/><polygon points="38.79 42.5 38.79 42.5 38.79 42.5 38.79 42.5"/><polygon points="38.79 42.49 38.79 42.5 38.79 42.5 38.79 42.49"/><polygon points="38.8 42.49 38.8 42.49 38.8 42.49 38.8 42.49"/><polygon points="38.8 42.49 38.8 42.48 38.8 42.49 38.8 42.49"/><path d="M39.39,41Z"/><polygon points="39.39 40.97 39.39 40.97 39.39 40.98 39.39 40.97"/><path d="M39.39,41Z"/><path d="M39.39,40.93Z"/><path d="M39.44,41.69Z"/><path d="M39.43,42.42Z"/><polygon points="39.51 41.76 39.51 41.76 39.51 41.76 39.51 41.76 39.51 41.76 39.51 41.76 39.51 41.75 39.51 41.75 39.51 41.76 39.51 41.77 39.51 41.76"/><polygon points="39.51 41.76 39.51 41.76 39.51 41.76 39.51 41.76"/><polygon points="39.44 41.69 39.44 41.69 39.44 41.69 39.44 41.69"/><path d="M39.48,41.48Z"/><polygon points="39.39 40.97 39.39 40.98 39.39 40.98 39.39 40.97"/><polygon points="39.39 40.96 39.39 40.96 39.39 40.96 39.39 40.96 39.39 40.96 39.39 40.96 39.39 40.96 39.39 40.96"/><polygon points="39.39 40.95 39.39 40.95 39.39 40.95 39.39 40.95 39.39 40.95"/><path class="cls-14" d="M18.71,17.81a4.71,4.71,0,0,1-.33-.45,8.52,8.52,0,0,1-.47-1c-.18-.52-.25-1-.43-1.56s-.33-1-.51-1.45a9.19,9.19,0,0,0,0,2,17.57,17.57,0,0,1-.73,6.2,7.91,7.91,0,0,0,3.3-2.65l.1-.11a2.58,2.58,0,0,0-.36-.31A1.9,1.9,0,0,1,18.71,17.81Z"/><path class="cls-14" d="M18.27,16.3a6.6,6.6,0,0,0,.51,1c.2.24.35.5.54.74s.28.18.4.29a5.52,5.52,0,0,0,1.68,1.19,5.78,5.78,0,0,1,.83.4,1.28,1.28,0,0,0,.87.33,2.49,2.49,0,0,0,1.12-.07c.43-.21.85-.47,1.26-.72A7.11,7.11,0,0,0,26.1,19l.24-.2c.45-.39.88-.8,1.3-1.23a12.6,12.6,0,0,0,.91-.88.23.23,0,0,1,.19-.09,20.23,20.23,0,0,1,1.56-3.08,1.34,1.34,0,0,0,.29-.84c0-.29-.43-.54-.65-.34s-.13.21-.23.27-.41,0-.57-.18a6,6,0,0,0-3.33-1.12,16,16,0,0,1-3.53-.5,3.47,3.47,0,0,1-2.44-2.37c-.75,1.17-1.51,2.34-2.26,3.52a4.53,4.53,0,0,0-.42.74c.21.68.46,1.35.67,2C18,15.25,18.09,15.79,18.27,16.3Z"/><path class="cls-14" d="M32.09,8.53a10.12,10.12,0,0,0-2.28-5.72A5.38,5.38,0,0,0,26.5.72a5,5,0,0,0-4.38,2.1,12.1,12.1,0,0,0-2,4.59c-.29,1.3,1,2.51,2.12,2.95A13.18,13.18,0,0,0,26,11a5.72,5.72,0,0,1,3.57,1.32.64.64,0,0,1,1-.27,1.07,1.07,0,0,1,.32,1.08,3.4,3.4,0,0,1-.51,1.07,32.3,32.3,0,0,0-2.92,7.35L30.87,19a2.2,2.2,0,0,0,.8-.86,2.45,2.45,0,0,0,0-1.29C31.32,14.08,32.28,11.3,32.09,8.53Z"/><path class="cls-14" d="M24.12.62a7.15,7.15,0,0,0-5,1.28,7.26,7.26,0,0,0-2.83,4.44,9.28,9.28,0,0,0-.09,2.88,11.31,11.31,0,0,0,.27,1.41c0,.13.47,1.29.45,1.3a6.73,6.73,0,0,0,1.41-1.6,12.59,12.59,0,0,0,1.09-2.17c.56-1.42,1-2.89,1.67-4.26A6.92,6.92,0,0,1,24.12.62Z"/><path class="cls-13" d="M28.81,16.6h-.07l-.3.75C28.74,17.08,29.07,16.76,28.81,16.6Z"/><path class="cls-6" d="M28.56,16.69a22.35,22.35,0,0,1-3.23,2.84,3.24,3.24,0,0,1-1.85.78A3.49,3.49,0,0,1,22,19.83a9.3,9.3,0,0,1-1.9-1.12A6.71,6.71,0,0,1,18.16,16a22,22,0,0,1-.94-3.41,1.87,1.87,0,0,0-.21.63c0,.16,0,.1.07.26.07.32.14.64.22,1a14.84,14.84,0,0,0,.56,1.83,6.81,6.81,0,0,0,1.72,2.57A10.54,10.54,0,0,0,21.5,20a4.41,4.41,0,0,0,2,.67,4,4,0,0,0,2.15-.9A19.16,19.16,0,0,0,27.8,18a2.46,2.46,0,0,0,.89-1.44Z"/><path class="cls-13" d="M32.08,16.28c-.3-3.2.84-6.46.16-9.59A8.48,8.48,0,0,0,16.41,4.58c-1.08,2.07-.58,4.64-.26,6.86.1.64.2,1.27.29,1.91a16.16,16.16,0,0,1-.12,6.39c-.05.2-.12.41-.19.61s-.11.33-.18.49c-.16.37-.28.91.09,1.06a.67.67,0,0,0,.55-.08A8.81,8.81,0,0,0,20,19.07a1.92,1.92,0,0,1-.29-.28l-.1.11a7.91,7.91,0,0,1-3.3,2.65,17.57,17.57,0,0,0,.73-6.2,9.19,9.19,0,0,1,0-2,2.51,2.51,0,0,1,.19-.7h0a4.53,4.53,0,0,1,.42-.74c.75-1.18,1.51-2.35,2.26-3.52a3.47,3.47,0,0,0,2.44,2.37,16,16,0,0,0,3.53.5,6,6,0,0,1,3.33,1.12c.16.14.39.3.57.18s.14-.19.23-.27.61.05.65.34a1.34,1.34,0,0,1-.29.84,20.23,20.23,0,0,0-1.56,3.08h.07c.26.16-.07.48-.37.74-.52,1.36-1,2.75-1.38,4.15a.43.43,0,0,0,0,.41c.13.14.36,0,.52-.08l2.87-2A3.75,3.75,0,0,0,32.06,18l0-.05A4.63,4.63,0,0,0,32.08,16.28ZM19.39,8.16a12.59,12.59,0,0,1-1.09,2.17,6.73,6.73,0,0,1-1.41,1.6s-.41-1.17-.45-1.3a11.31,11.31,0,0,1-.27-1.41,9.28,9.28,0,0,1,.09-2.88A7.26,7.26,0,0,1,19.09,1.9a7.15,7.15,0,0,1,5-1.28A6.92,6.92,0,0,0,21.06,3.9C20.37,5.27,20,6.74,19.39,8.16Zm12.28,10a2.2,2.2,0,0,1-.8.86L27.45,21.5a32.3,32.3,0,0,1,2.92-7.35,3.4,3.4,0,0,0,.51-1.07A1.07,1.07,0,0,0,30.56,12a.64.64,0,0,0-1,.27A5.72,5.72,0,0,0,26,11a13.18,13.18,0,0,1-3.81-.59c-1.1-.44-2.41-1.65-2.12-2.95a12.1,12.1,0,0,1,2-4.59A5,5,0,0,1,26.5.72a5.38,5.38,0,0,1,3.31,2.09,10.12,10.12,0,0,1,2.28,5.72c.19,2.77-.77,5.55-.4,8.3A2.45,2.45,0,0,1,31.67,18.12Z"/><polygon class="cls-14" points="24.21 31.44 24.21 31.44 24.21 31.44 24.21 31.44"/><polygon class="cls-14" points="23.5 31.21 23.5 31.21 23.5 31.21 23.5 31.21"/><path class="cls-14" d="M29.22,34.47A4.12,4.12,0,0,0,25.59,32l.4.19a3.09,3.09,0,0,1,1.15,1.28,2.38,2.38,0,0,1,.4,1.17,3.93,3.93,0,0,1-.1,1,.2.2,0,0,1-.15.17,5.51,5.51,0,0,0,1.57.54,3.13,3.13,0,0,0,.75,0,.14.14,0,0,1,0-.07A2.47,2.47,0,0,0,29.22,34.47Z"/><path class="cls-14" d="M27.18,32a3.32,3.32,0,0,0,.12-1,2.88,2.88,0,0,0-.71-1.4,5.3,5.3,0,0,0-1.25-.9,1.68,1.68,0,0,0-1.79-.1,1.38,1.38,0,0,0-.71.92l0,0h0a0,0,0,0,0,0,0v0h0s0,0,0,0,0,0,0,0a.14.14,0,0,0,0,.06s0,0,0,.06a.62.62,0,0,0,0,.13h0v.18s0,.05,0,.08a1.14,1.14,0,0,0,.69.95h0l0,0,0,0h0a.05.05,0,0,0,0,0l.05,0h0l0,0,.05,0h0l0,0h0l.06,0,.09,0h0l.06,0,.07,0h.28l.15,0,.16,0,.17,0c.57.1,1.17.07,1.73.21A2.83,2.83,0,0,1,27.18,32Z"/><polygon class="cls-14" points="28.15 32.08 28.15 32.08 28.15 32.08 28.15 32.08 28.15 32.08 28.15 32.08"/><path class="cls-14" d="M32.31,36a2,2,0,0,0-.63,1.48.9.9,0,0,0,0,.46.43.43,0,0,0,.29.27h.06a.44.44,0,0,0,.37-.21,1,1,0,0,0,.16-.41,2.64,2.64,0,0,0,0-.84A1.27,1.27,0,0,0,32.31,36Z"/><path class="cls-15" d="M27.32,32.05a2.54,2.54,0,0,0-1.08-3c-1.74-1.14-2.72-1-3.32-.15a1.56,1.56,0,0,0,.45,2.47,5.21,5.21,0,0,0,2.12.41Z"/><path class="cls-1" d="M26.69,32.79c-.21-.09-1.19.5-1.36.57a4.67,4.67,0,0,0-1.18,1.39,9.56,9.56,0,0,1-1.35,2,3.1,3.1,0,0,1-3,.51,3.7,3.7,0,0,1-2.18-1.61A2.6,2.6,0,0,1,17,33.78c.1-1,1-1.42.84-2.54,0-.39-.36-.71-.34-1.11a.19.19,0,0,0-.08-.33c-.32-.07-.32.41-.27.61a3.14,3.14,0,0,0,.22.58A1.75,1.75,0,0,1,17,32.71a2.33,2.33,0,0,0-.37,1.12,3,3,0,0,0,.71,2,4.14,4.14,0,0,0,2.85,1.87,3.41,3.41,0,0,0,2.77-.58,18.78,18.78,0,0,0,2.38-3.42A4.52,4.52,0,0,1,26.69,32.79Z"/><path class="cls-1" d="M19.26,30.67a2.05,2.05,0,0,0,2-1.25,1.2,1.2,0,0,0,.08-.59,1.12,1.12,0,0,0-.87-.88.19.19,0,0,0,0,.38.76.76,0,0,1,.51.52,1,1,0,0,1-.16.68,1.87,1.87,0,0,1-1.26.78c-.45,0-1.07-.34-1-.87.17-.19-.13-.43-.29-.25C17.86,29.88,18.62,30.56,19.26,30.67Z"/><path class="cls-6" d="M20.79,25.5a3.12,3.12,0,0,0-.43-.72,3.19,3.19,0,0,0-2.28-1.18A5,5,0,0,0,15,24.72a20.69,20.69,0,0,0-3.31,3.53c0,.05-.14.18-.18.23l-.07.1s-.8,1.13-1.17,1.68c0,.06-.1.15-.07.22a.18.18,0,0,0,.24.08.72.72,0,0,0,.2-.19,42.16,42.16,0,0,1,3-3.93,8.18,8.18,0,0,1,2.16-1.82,4.09,4.09,0,0,1,2.75-.5,2.74,2.74,0,0,1,2.09,1.73,2.1,2.1,0,0,1-.9,2.46,2.53,2.53,0,0,0-.65-1.47.3.3,0,0,0-.25-.14.22.22,0,0,0-.16.27.56.56,0,0,0,.16.29,3,3,0,0,1,.46.66.84.84,0,0,1,0,.77.5.5,0,0,1-.68.2.72.72,0,0,1-.26-.58,1.23,1.23,0,0,0-.19-.63c-.15-.16-.48-.17-.55,0a.49.49,0,0,0,.09.35,3.44,3.44,0,0,1,.44.68.62.62,0,0,1-.15.73c-.3.19-.7-.06-.88-.36a3.6,3.6,0,0,0-.52-.92c-.15-.15-.46-.19-.52,0a.34.34,0,0,0,.1.31l.94,1.33c-.52.25-1.12-.06-1.7-.17a2.34,2.34,0,0,0-2,.54.19.19,0,0,0-.09.16c0,.11.18.1.28.07l1.55-.53a12.37,12.37,0,0,0-1,2.65A5.35,5.35,0,0,1,12.73,35a2.24,2.24,0,0,1-2.63.33,2.86,2.86,0,0,1-1-2.24,8.35,8.35,0,0,1,1.57-5.38l-.3-.25s-.64,1.07-.69,1.17a8.86,8.86,0,0,0-.53,1.28,9.5,9.5,0,0,0-.47,2.69,5.45,5.45,0,0,0,.07,1.07,2.84,2.84,0,0,0,1.54,2.17A2.69,2.69,0,0,0,13,35.29a5.23,5.23,0,0,0,1.44-2.48,5.51,5.51,0,0,1,1.27-2.75,1.31,1.31,0,0,0,1.79-.14.86.86,0,0,0,1.06-.65.71.71,0,0,0,.73,0,.72.72,0,0,0,.36-.63,1.12,1.12,0,0,0,.92-.42,1.91,1.91,0,0,0,.42-.95A3.2,3.2,0,0,0,20.79,25.5Z"/><path class="cls-1" d="M29.41,37.29a.6.6,0,0,0,.09-.15c.05-.15.18-3.27-1.65-4.55a3.62,3.62,0,0,0,.49-3,3.79,3.79,0,0,0-2-2.14,4.74,4.74,0,0,0-2.95-.31,7.51,7.51,0,0,1-1.13.22A1.42,1.42,0,0,1,21.18,27a1,1,0,0,0-.29-.25c-.21-.08-.13.16-.08.32a.49.49,0,0,0,.25.31,2.06,2.06,0,0,0,1.11.3c.62,0,1.22-.2,1.83-.27a3.93,3.93,0,0,1,3.43,1.27,3,3,0,0,1,.26,3.53l-.2-.13a2.37,2.37,0,0,0-.34-2.36,3.78,3.78,0,0,0-1.79-1.52,2.47,2.47,0,0,0-2.27.25,1.85,1.85,0,0,0-.66,2.11A2.67,2.67,0,0,0,24,31.86c.65.25,1.29.53,1.94.8a4.46,4.46,0,0,1,2.91,4.28c0,.13,0,.31.09.36A.45.45,0,0,0,29.41,37.29ZM27.17,32a14.43,14.43,0,0,0-2.89-.49,2.43,2.43,0,0,1-1.18-.52,1.5,1.5,0,0,1,.07-2.07,1.53,1.53,0,0,1,.84-.5,2.23,2.23,0,0,1,1.47.37A3.87,3.87,0,0,1,27,30.05,2.1,2.1,0,0,1,27.17,32Z"/></g></g></svg>