<svg xmlns="http://www.w3.org/2000/svg" viewBox="0 0 69.98 59.04"><defs><style>.cls-1{fill:#92443f;}.cls-2{fill:#e9a061;}.cls-3{fill:#faed62;}.cls-4{fill:#6474b7;}.cls-5{fill:#3c58a4;}.cls-6{fill:#803124;}.cls-7{fill:#f0f0f0;}.cls-8{fill:#cbc478;}.cls-9{fill:none;}.cls-10{fill:#b27e4c;}</style></defs><g id="Layer_2" data-name="Layer 2"><g id="Card"><path class="cls-1" d="M40,24.23a12.27,12.27,0,0,0-.26-3.44c-.41-1.77-.34-3.16-1.84-3.9s-3.82-.07-7,0a66.81,66.81,0,0,0-7.41.76s-.3,2.42-.38,3.9a21,21,0,0,0,.07,3,3.68,3.68,0,0,0,1.91-1.65A13.25,13.25,0,0,0,26,19.77c-.05,0,2.08,2.27,3.78,2.53s4.87.21,5.83.57a14.15,14.15,0,0,1,2.76,1.84s-.23-1.61.53-1.54S40,24.23,40,24.23Z"/><path class="cls-2" d="M10.05,17.52s.27,3.55,1.63,5.12,4,4.76,4,4.76,10.14,6.78,13,7.53,5,.92,7.28-1.36,12.33-6.18,13-7.06a35.54,35.54,0,0,0,2.17-5.21l-4.9-2.37a6.08,6.08,0,0,0-1.45,2.17c-.56,1.42-1.06,2.78-1.06,2.78l-3.37,3.24-.43-.37s.35-3.27-.8-3.32c-.57,0-.7,1.28-.7,1.28a4.38,4.38,0,0,0-3.54-1.93c-2.44-.07-3.5.21-4.77-.24s-3.84-2.93-3.84-2.93S25.17,22.73,24,23.72s-.79.84-.79.84l-4-2.2-2.16-2a9.28,9.28,0,0,1-.68-1.86,7.08,7.08,0,0,0-1.22-2Z"/><path class="cls-3" d="M51.75,22.3s1.86.85,2.49.4a5.47,5.47,0,0,0,1.33-2.82A19.41,19.41,0,0,0,56,15.27a26.11,26.11,0,0,1-.31-3.13A9.25,9.25,0,0,1,56,10.69h.34a8.56,8.56,0,0,0,.88,3c.65,1,1.92,1.59,2.21,2a4.28,4.28,0,0,0,3.24.55c1-.37,3.17-1.24,3.24-3.22a7.08,7.08,0,0,0-2.2-5.42c-1.51-1.39-4.51-4.33-5-4.95S56.57.23,55,.26,51.16,1.89,50.4,2.88A28.34,28.34,0,0,0,48.34,7.4s-4.06-1.35-6.21-1.83a22.27,22.27,0,0,0-8.8-.14c-3,.69-7.06,2.22-8.25,2.33S20.89,8,19.3,7.32a11.08,11.08,0,0,1-4-3.42c-.84-1.19-.93-2.07-3.16-2.44s-4.07-.27-4.7.28-1.06,3.5-2.2,4.57S1.88,9,1.44,10A4.14,4.14,0,0,0,1.11,12l.25.77-1,2.14s0,1.66,2.27,2.22,2.87.52,3,0a13.73,13.73,0,0,1,.76-2.22,12,12,0,0,1,1.66-1.45,1.25,1.25,0,0,1,.56-.11s-.19,1.24-.25,2.19.06,1.49.37,1.81a2.79,2.79,0,0,0,2.29.1,12.22,12.22,0,0,1,4.61,0c1.41.3,2,1.83,3.59,2a9.06,9.06,0,0,0,4.6-.69c1.23-.59,2-.57,4.15-.38a11.88,11.88,0,0,0,4.47-.26c.91-.3,2.46-1.29,3.22-1.43a3.42,3.42,0,0,1,3,.69c.82.88.79,1.39,2,1.62a29.81,29.81,0,0,0,4.47.63c.38-.12.64-.66.64-.66a11,11,0,0,1,2.38,1c1,.61,3.15,1.72,3.15,1.72Z"/><path class="cls-4" d="M23,24.24l-1.19-1c-.56-.46-1.94-1.53-1.94-1.53s-.2-.51-.36-.44-.8.44-.8.44l.8,1s-.82,2.5-2.31,3.36L15.31,27.2l-1.12-1.41s-.52,1.34-.31,1.75.45.75.45.75,6,4.87,6.14,8.38.6,7.58,0,9.89a39,39,0,0,0-.64,7s2,2.92,3.65,3.57A35.07,35.07,0,0,0,33.61,58.7c3.38-.09,7-.55,9-1.43a13.38,13.38,0,0,0,4-2.35,2.29,2.29,0,0,0,.53-1s-1.78-6.28-2.06-7.25a35.8,35.8,0,0,1-.62-5.61,37.28,37.28,0,0,1,1.36-7A27,27,0,0,1,48.73,29,8.08,8.08,0,0,0,50.1,27c.3-.58.63-.6.46-1.05a2.42,2.42,0,0,0-.69-.85l-.95,1.37s-2.92-2.57-3.5-3a5,5,0,0,0-1.16-.7l.4-1.48L44.37,21a2.75,2.75,0,0,0-1.24.6c-.53.48-1.9,2-1.9,2L40,25a2.91,2.91,0,0,1-.26,2.13,3.94,3.94,0,0,1-1.64,1.15s-1.45,4.13-4.17,5.87-3.24.09-5.12-.89S25.52,30,24.91,29a11.73,11.73,0,0,1-1.39-3.61C23.62,25.07,23,24.24,23,24.24Z"/><path class="cls-5" d="M49.34,26.89l-1-.29a.28.28,0,0,0-.23.07,1.94,1.94,0,0,1-.58-.38c-.23-.22-.59.13-.35.35a4.25,4.25,0,0,0,1,.72.2.2,0,0,0,0,.19l-.19,0a.25.25,0,0,0-.21.38l-.47.09a.24.24,0,0,0-.16.32h-.06a.24.24,0,0,0-.11.4,1.77,1.77,0,0,1-.23,0,.26.26,0,0,0-.22.38,1.4,1.4,0,0,0,.13.18.56.56,0,0,0,.09.19v.15a1.37,1.37,0,0,0-1.27.31.24.24,0,0,0,0,.38l-.14,0a.25.25,0,0,0-.1.42l-.16,0a.24.24,0,0,0-.06.47.23.23,0,0,0,.11.34,3.6,3.6,0,0,0-.5.29.25.25,0,0,0,0,.45l-.47.23a.25.25,0,0,0,.06.45h0l-.09,0a.27.27,0,0,0-.07.37.81.81,0,0,0-.46.53.34.34,0,0,0,.27.4l-.47,0a.24.24,0,0,0-.23.28,3,3,0,0,0-.36.18.25.25,0,0,0,0,.43c.22.1.45.18.68.27l-.22.19a.19.19,0,0,0-.07.11l-.52.09c-.3,0-.19.46.07.49a1.2,1.2,0,0,1,.19,0,.27.27,0,0,0,.12.09h.08c-.09.05-.19.09-.28.15a.25.25,0,0,0,.13.46h0l-.19.16a.26.26,0,0,0,.11.42h0l-.19.16a.21.21,0,0,0-.06.23,4.78,4.78,0,0,0-.65.38.25.25,0,0,0,.12.46h0l-.15.1a.25.25,0,0,0,.1.45.24.24,0,0,0-.06.28c-.08.06-.16.1-.24.15s0,0,0,0a.24.24,0,0,0,0,.35.22.22,0,0,0,.29.25,2.8,2.8,0,0,1,.31-.09c-.19.09-.37.19-.56.27s-.1.47.13.47h0a.25.25,0,0,0,.12.46h.15a.25.25,0,0,0-.05.28l-.11.06a.22.22,0,0,0-.11.25,1.38,1.38,0,0,0-.24.14.25.25,0,0,0,.06.46,6.35,6.35,0,0,0,.76.13.66.66,0,0,0,0,.24l-.36.25a.25.25,0,0,0,.13.46h.15a2.7,2.7,0,0,0-.31.2.25.25,0,0,0,.19.46l.35-.08c-.13.1-.27.2-.39.31a.22.22,0,0,0,0,.37c-.09.06-.19.11-.28.18s-.09.54.19.45h0a.2.2,0,0,0,.11.11l-.34.2a.24.24,0,0,0,0,.39l-.24.14c-.23.14-.09.55.19.46l.69-.24a3.09,3.09,0,0,1-.54.29.23.23,0,0,0-.15.17l-1,.35a.25.25,0,0,0,.14.48l.43-.11s0,.06,0,.08a.25.25,0,0,0,.15.48l0,0a1.88,1.88,0,0,0-.57.41.25.25,0,0,0,0,.38c-.1.18,0,.46.26.37s.64-.21,1-.32a.24.24,0,0,0,.28.14l.42-.11-.13.08a11,11,0,0,0-1.1.26.25.25,0,0,0,0,.46l-.1.06a.25.25,0,0,0,.13.46l.17,0a.31.31,0,0,0,0,.1l-.14.07c-.25.12-.09.5.17.45a.29.29,0,0,0-.14.15l-.08.21a.25.25,0,0,0,.31.31l.29-.14-.47.29c-.22.16-.09.56.19.46l.47-.15c-.34.2-.69.38-1,.59a.25.25,0,0,0,.25.43c.29-.13.59-.23.88-.35l-1.05.59a.25.25,0,0,0,.25.44c.17-.09.35-.15.53-.23-.28.17-.56.33-.83.51a.25.25,0,0,0,.25.43c.49-.23,1-.44,1.49-.65l-1.8,1.2a.24.24,0,0,0-.09.32c-.19.09-.37.18-.57.26a.28.28,0,0,0-.07.46.26.26,0,0,0-.06.4l0,0c-.25.12-.07.56.19.46L42.59,57s.06,0,.1,0l.44-.2.88-.33h0a.25.25,0,0,0,.18-.05l1.72-1.36a.19.19,0,0,0,.06-.22,2.17,2.17,0,0,0,.81-1.66l.06-.1a.25.25,0,0,0-.1-.33.16.16,0,0,0-.07-.09v0a.28.28,0,0,0-.12-.14c0-.07,0-.14,0-.21a.2.2,0,0,0-.14-.14L46,50.57a.2.2,0,0,0-.21-.17c-.14-.47-.29-.95-.44-1.42,0-.08,0-.16-.05-.24h0l-.06-.26a.19.19,0,0,0-.16-.15l.08,0a.24.24,0,0,0-.09-.45v0a.27.27,0,0,0-.24-.19h0L44.74,47c.1-.13.22-.25.32-.39s-.14-.46-.35-.34l0,0c0-.3-.05-.6-.08-.9a.24.24,0,0,0-.19-.22c0-.09,0-.18,0-.27l0,0,.2-.1c.25-.12.06-.57-.2-.46l-.14,0h0a.18.18,0,0,0,.11-.21.22.22,0,0,0,.13-.2.15.15,0,0,1,0-.07h0l-.23-1.69s0,0-.05-.08l0-.28h0v-.07a.2.2,0,0,0-.13-.15v-.24a.65.65,0,0,0,.08-.58s0,0-.06,0v-.12a.15.15,0,0,0,0-.07s0,0,0-.08a.21.21,0,0,0,.31-.15,19.36,19.36,0,0,0,.34-2.62c0-.37.06-.74.08-1.1a.3.3,0,0,0,0-.1s0,0,0-.05c.36-1.06.71-2.12,1.07-3.19a.2.2,0,0,0-.1-.24l1.39-2.06a.2.2,0,0,0,0-.21c0-.1.09-.2.13-.3a.22.22,0,0,0,.14-.3c.06-.16.12-.33.17-.49a.58.58,0,0,0,.52-.32l.14,0c.28-.15.23-.45.13-.69l.16,0a.21.21,0,0,0,.17-.23h.05c.18,0,.21-.22.13-.36a.21.21,0,0,0,.15-.24h0a.26.26,0,0,0,.29-.36A.24.24,0,0,0,49.34,26.89Zm-3.66,5.17-.1,0,.15-.06A.35.35,0,0,0,45.68,32.06ZM43.57,40h0v0Zm.12-.68a.21.21,0,0,0-.13,0h0l.2-.17Zm.19-2s0,0-.05,0l.06,0Zm-.28,6v.09l-.2,0Zm1.16,6.58.22-.1a0,0,0,0,0,0,0Zm.14,1.49s0,.07,0,.11l-.6.19Zm-.1-2.72-.32.09v0l.28-.17h0s0,0,0,.06h0Zm.09.59-.12,0,.12-.06ZM42.5,51.49l-.1,0h-.07Zm1.64-4.9c-.07.09-.14.17-.2.26s-.06,0-.1,0h0A1.87,1.87,0,0,1,44.14,46.59Zm.57,7.7a.36.36,0,0,0,.07.1l-.46.16Z"/><path class="cls-5" d="M33,34.5l0,0a1.21,1.21,0,0,1-.19,0,1.82,1.82,0,0,1-.51.09h0l-.12.1a.22.22,0,0,0-.35,0,3.24,3.24,0,0,1-.43.4l0-.11c.1-.22-.11-.48-.34-.34l-.24.14a.75.75,0,0,1,.07-.12c.17-.24-.19-.47-.4-.3l-.13.08v0c0-.23-.24-.45-.42-.25a.94.94,0,0,1-.1.1,1.42,1.42,0,0,1,.05-.16.25.25,0,0,0-.42-.24,1.92,1.92,0,0,1-.17.13.24.24,0,0,0-.32-.25l.06-.1c.1-.2-.13-.51-.34-.35l-.16.13.06-.11a.25.25,0,0,0-.4-.3h0a.25.25,0,0,0-.4-.17l.15-.26a.24.24,0,0,0-.28-.34c0-.2-.16-.4-.35-.25l-.1.08,0-.09c.06-.2-.2-.42-.37-.29l-.06.05a.23.23,0,0,0-.29-.27h0c.13-.25-.19-.52-.39-.31l-.1.09,0-.08a.23.23,0,0,0-.14-.28c0-.08.07-.16.1-.25a.25.25,0,0,0-.37-.28l-.15.08.15-.43a.2.2,0,0,0,0-.11l0,0a.65.65,0,0,1-.17-.16h-.11a.64.64,0,0,1,0-.07h0a.75.75,0,0,1-.21-.32,1.6,1.6,0,0,1-.05-.21h0s0,0,0,.06,0,0,0-.05h0s-.05,0-.07,0l0,0c0-.06,0-.11,0-.17-.05-.23-.34-.22-.46-.06a3.43,3.43,0,0,0-.57,1.26.25.25,0,0,0,.42.24l.3-.28a.37.37,0,0,1-.05.11c-.13.25.14.43.35.32,0,.1-.07.19-.1.29s.18.38.36.28l.06,0-.06.11a.25.25,0,0,0,.2.37c0,.07-.05.14-.07.21s.14.34.32.29a.24.24,0,0,0,.35.25l0,0v0c-.08.2.12.51.35.34l.14-.11,0,.08a.25.25,0,0,0,.28.31s0,0,0,.06a.23.23,0,0,0,.21.3l-.19.34c-.11.21.13.49.34.35l0,0a.25.25,0,0,0,.38.3c0,.19.17.39.35.25l.18-.14a1.74,1.74,0,0,0-.1.19c-.14.21.12.46.34.34l.23-.16a.23.23,0,0,0,.36.17c.11-.07.2-.16.31-.24a.19.19,0,0,0,0,.08c-.06.16.12.38.3.3a1.82,1.82,0,0,0,.31-.16c0,.15.14.3.3.23l.1,0c0,.07,0,.14,0,.21a.25.25,0,0,0,.38.21l.32-.18a1,1,0,0,0,0,.24.26.26,0,0,0,.38.22,4.51,4.51,0,0,0,.55-.39.26.26,0,0,0,.33,0l1-.87a.23.23,0,0,0,.06-.12Z"/><path d="M69.91,48.6l0-.2a.19.19,0,0,1,0,.07l0,.11,0,.08Z"/><path class="cls-6" d="M25.29,26.76a3.09,3.09,0,0,1,2.22-2.12c.22-.05.52-.17.7,0a.28.28,0,0,1,0,.4c-.11.11-.26,0-.39.08a2.79,2.79,0,0,0-1.93,1.6A.29.29,0,0,1,25.29,26.76Z"/><path class="cls-6" d="M35.08,26.59a1.93,1.93,0,0,0-1.49-1.1c-.26-.11-.72,0-.76-.36a.29.29,0,0,1,.27-.3,2.8,2.8,0,0,1,2.49,1.51A.28.28,0,0,1,35.08,26.59Z"/><path class="cls-6" d="M27,28.21c-.21,0-.49-.12-.49-.38a.29.29,0,0,1,.5-.2,1.63,1.63,0,0,0,1.48-.46.29.29,0,0,1,.4.08c.19.34-.27.52-.49.69A2.07,2.07,0,0,1,27,28.21Z"/><path class="cls-6" d="M33.28,27.89c-.38,0-1.55-.36-1.12-.88a.28.28,0,0,1,.4,0,.39.39,0,0,0,.1.08,1.69,1.69,0,0,0,1.34.13.28.28,0,0,1,.36.18C34.46,28,33.62,27.88,33.28,27.89Z"/><path class="cls-6" d="M29.9,29.74c-.19-.07-.46-.18-.47-.43a.27.27,0,0,1,.26-.29.27.27,0,0,1,.25.12,1.32,1.32,0,0,0,.73.11,1.57,1.57,0,0,0,.57-.17.28.28,0,0,1,.38.09C32,29.82,30.27,29.93,29.9,29.74Z"/><path class="cls-6" d="M30.84,32.14a4,4,0,0,1-1.2-.21.41.41,0,0,1-.28-.36.28.28,0,0,1,.52-.15,2.62,2.62,0,0,0,2.4-.31.3.3,0,0,1,.36,0c.24.25,0,.49-.26.59A2.62,2.62,0,0,1,30.84,32.14Z"/><path class="cls-7" d="M53.33,23.29a.66.66,0,0,1-.38-.37.29.29,0,0,1,.45-.3c.14.11.31.24.28.43A.28.28,0,0,1,53.33,23.29Z"/><polygon class="cls-8" points="54.23 23.16 54.23 23.16 54.23 23.16 54.23 23.16"/><path class="cls-9" d="M44,16.62l-7.42-1.43A6.9,6.9,0,0,0,34.43,15a9.06,9.06,0,0,0-2.75,1.1,14.07,14.07,0,0,1-9.59,1c-1.81-.45-3.54-1.27-5.41-1.35a14.29,14.29,0,0,0-3.25.38,15.71,15.71,0,0,0-3.7,1.07,11.33,11.33,0,0,1,5.81,0c1.27.33,2.47.88,3.73,1.23a6.07,6.07,0,0,0,3.86,0c.41-.16.78-.38,1.19-.5A4.81,4.81,0,0,1,26,17.83,20.66,20.66,0,0,0,31,18c1.35-.26,2.56-1,3.88-1.34a10.72,10.72,0,0,1,4.88-.09,22.2,22.2,0,0,1,2.4.61c.52.15,1,.38,1.54.54.34.1.67.07,1,.15a7.38,7.38,0,0,1,1.47.71l1.49.75,3.06,1.54,1.49.75a8,8,0,0,1,1.41.72.7.7,0,0,0,.37.11c.45,0,.48-.58.63-1a1.56,1.56,0,0,1,.11-.26,30.13,30.13,0,0,0-6.22-3.41A29.91,29.91,0,0,0,44,16.62Z"/><path class="cls-9" d="M65.24,11.85A4.58,4.58,0,0,0,63.89,8c-1-1-2.13-1.83-3.13-2.83s-1.73-2.1-2.7-3A5.06,5.06,0,0,0,54.45.52c-2.08.12-3.55,2.09-4.41,4s-1.51,4-3.16,5.32c-.67.52-1.88.72-2.2-.07a3.06,3.06,0,0,0,3.25-2.3C43.3,6,38.38,4.73,33.61,5.68c-2.54.51-4.92,1.63-7.45,2.18-4,.87-8.74,0-10.86-3.5-.51-.84-.9-1.84-1.77-2.28A3.81,3.81,0,0,0,12,1.79L8.89,1.64A2,2,0,0,0,8,1.75a2.15,2.15,0,0,0-.89,1.39A12.67,12.67,0,0,1,3.46,8.6a8.44,8.44,0,0,0-1.71,1.72,2,2,0,0,0-.06,2.27,5.45,5.45,0,0,1,4.43,2.3,8.5,8.5,0,0,0,3.12-4.24C9.76,9.05,10,7,11.56,6.34,10,9.67,8.39,13.21,8.74,16.87c2.6-.87,5.28-1.75,8-1.58,3,.19,5.89,1.65,8.92,1.69a12.48,12.48,0,0,0,4.92-1A14,14,0,0,1,35,14.46a10.2,10.2,0,0,1,2.75.33l2.75.6.73.13a11.08,11.08,0,0,1,1.7.41,12.23,12.23,0,0,0,1.73.27,24.1,24.1,0,0,1,7.12,2.38c.29.16,3.21,1.74,3.12,2a11.73,11.73,0,0,0,.74-6.36c-.21-1.34-.57-2.95.44-3.85-.51-.74-1-1.48-1.54-2.23,1.33.05,2,1.64,2.19,3s.63,2.91,1.92,3.23l0,0A6.56,6.56,0,0,1,65.24,11.85Z"/><path class="cls-9" d="M5.59,15.25l0-.08a2.78,2.78,0,0,0-1.7-1.48,5.18,5.18,0,0,0-2.37-.55s0,.07-.06.1a4.2,4.2,0,0,1-.54,1.27,4.06,4.06,0,0,1,2.41.65,5.44,5.44,0,0,1,2.07,1.5,3.1,3.1,0,0,0,.29-1.09A.27.27,0,0,1,5.59,15.25Z"/><path class="cls-9" d="M3.06,15.68a2.9,2.9,0,0,0-2.48-.49c-.08.47.5.69.82.92a7,7,0,0,0,1.37.73A10.81,10.81,0,0,0,5,17.09H5A4.55,4.55,0,0,0,3.06,15.68Z"/><path class="cls-9" d="M62.9,12.27a7.2,7.2,0,0,0-3.58,2.05.29.29,0,0,1-.16.15l-.06,0s0,0,0,.06a.17.17,0,0,0,0,.12A4.27,4.27,0,0,0,60,15.85c.43.27,1,.1,1.47.06A7.9,7.9,0,0,0,64,15.26a2.4,2.4,0,0,0,1.26-.9,8.12,8.12,0,0,1-4.12,1.22c-1.64-.08-.65-1.21.16-1.7A7.3,7.3,0,0,1,65.67,13h0C65.69,12.19,63.48,12.19,62.9,12.27Z"/><path class="cls-9" d="M61.19,15c1.25-.06,3.26-.5,4.1-1.45-1.43-.08-3.45.29-4.4,1.42Z"/><polygon class="cls-8" points="54.24 23.16 54.24 23.16 54.24 23.16 54.24 23.16"/><path class="cls-8" d="M35.9,6.17a15.82,15.82,0,0,0-3.3.08,17.65,17.65,0,0,0-4.18,1.49,12.51,12.51,0,0,0-4.48,3.5c-.84,1.26-.4,2.83,1.28,2.81a22.57,22.57,0,0,0,4.53-.76c1.8-.3,3.6-.61,5.38-1,.58-.16,1.18-.23,1.75-.44a4,4,0,0,0,2.36-2.07C39.77,7.37,38.05,6.31,35.9,6.17Zm2.71,3.54a2.46,2.46,0,0,1-.55.74,5,5,0,0,1-2,1c-2.25.66-4.61.88-6.91,1.39a17.49,17.49,0,0,1-3.85.63,1.5,1.5,0,0,1-.86-.22,1,1,0,0,1-.3-1,2.24,2.24,0,0,1,.51-1,13.13,13.13,0,0,1,5.3-3.58,11.08,11.08,0,0,1,2.86-1,12.61,12.61,0,0,1,3.13,0A4.29,4.29,0,0,1,38,7.4a2,2,0,0,1,.76,1A1.81,1.81,0,0,1,38.61,9.71Z"/><path class="cls-8" d="M35.87,7.65a5,5,0,0,0-1.34-.11,14.86,14.86,0,0,0-3.63.57,11.08,11.08,0,0,0-2.16.76c-.78.39-4.62,3.25-2.85,4a1.77,1.77,0,0,0,.82.13,9.9,9.9,0,0,0,2.57-.54c1.4-.42,2.82-.81,4.25-1.1a11.3,11.3,0,0,0,2-.52A2.88,2.88,0,0,0,37,9.52a1.29,1.29,0,0,0,.11-.94,1.39,1.39,0,0,0-.72-.73A3.73,3.73,0,0,0,35.87,7.65Z"/><path class="cls-9" d="M19.39,22.22a2.83,2.83,0,0,0,.08-.4l-.06-.07a.5.5,0,0,0-.32,0l-.06,0A3.62,3.62,0,0,1,19.39,22.22Z"/><path class="cls-9" d="M40.29,25.91a2.75,2.75,0,0,1-1.2,2,.68.68,0,0,1-.45.15.31.31,0,0,1-.3-.31c0-.19.25-.27.44-.35a1.65,1.65,0,0,0,.85-1.09,3.76,3.76,0,0,0,0-1.42,2.16,2.16,0,0,0-.6-1.43,2,2,0,0,0-.34,1.17c0,.17,0,.37-.11.48s-.5,0-.68-.25a5.87,5.87,0,0,0-2.31-1.67c-1.43-.52-3-.23-4.52-.4a7.46,7.46,0,0,1-4.88-2.68,6.59,6.59,0,0,1-1.41,3.38A2.51,2.51,0,0,1,23,24.76l0-.52a13,13,0,0,1-2.63-1.78,1.65,1.65,0,0,0-.33-.25,8.37,8.37,0,0,1-2.17,3.51A7.93,7.93,0,0,1,14.9,28a10,10,0,0,1,1.49,1.56c.93,1.17,1.9,2.32,2.79,3.53A13.18,13.18,0,0,1,21,38.17a32.89,32.89,0,0,1-.09,7.22c-.13,1.75-.52,3.47-.73,5.21-.09.88-.07,1.76-.09,2.65a.19.19,0,0,1-.07.12v0c.08.11.16.2.23.31a8.63,8.63,0,0,0,1.12,1.57,12.57,12.57,0,0,0,2.12,1.51,15.79,15.79,0,0,0,6.24,1.45c1.22.13,2.44.15,3.65.19a19.1,19.1,0,0,0,2.93,0c.69,0,1.32-.19,2-.29a7.85,7.85,0,0,0,2.15-.51c.91-.23,1.82-.64,2.71-.86a8.08,8.08,0,0,0,2.3-1.27,4.6,4.6,0,0,0,1.11-1,.85.85,0,0,1,.17-.25.28.28,0,0,1,.09-.17c-.24-.95-.39-1.93-.64-2.87A38.32,38.32,0,0,1,44.94,47c-.16-.56-.23-1.14-.35-1.72a5.89,5.89,0,0,1-.2-2,13.49,13.49,0,0,1,0-4.57c.34-1.62.68-3.25,1.18-4.83A20.4,20.4,0,0,1,47,31,20,20,0,0,1,49.18,28c.17-.25.34-.51.5-.77a1,1,0,0,1-.28-.05,5.53,5.53,0,0,1-.88-.8c-.35-.32-.74-.56-1.11-.85-.64-.49-1.2-1.07-1.82-1.57-.79-.57-1.81-.89-2.36-1.74a.83.83,0,0,1-.11-.36c-.13.1-.25.22-.37.33a9.83,9.83,0,0,0-.69.8c-.3.34-1.14,1.85-1.77,2A4.31,4.31,0,0,1,40.29,25.91Z"/><path class="cls-9" d="M44,16.62l-7.42-1.43A6.9,6.9,0,0,0,34.43,15a9.06,9.06,0,0,0-2.75,1.1,14.07,14.07,0,0,1-9.59,1c-1.81-.45-3.54-1.27-5.41-1.35a14.29,14.29,0,0,0-3.25.38,15.71,15.71,0,0,0-3.7,1.07,11.33,11.33,0,0,1,5.81,0c1.27.33,2.47.88,3.73,1.23a6.07,6.07,0,0,0,3.86,0c.41-.16.78-.38,1.19-.5A4.81,4.81,0,0,1,26,17.83,20.66,20.66,0,0,0,31,18c1.35-.26,2.56-1,3.88-1.34a10.72,10.72,0,0,1,4.88-.09,22.2,22.2,0,0,1,2.4.61c.52.15,1,.38,1.54.54.34.1.67.07,1,.15a7.38,7.38,0,0,1,1.47.71l1.49.75,3.06,1.54,1.49.75a8,8,0,0,1,1.41.72.7.7,0,0,0,.37.11c.45,0,.48-.58.63-1a1.56,1.56,0,0,1,.11-.26,30.13,30.13,0,0,0-6.22-3.41A29.91,29.91,0,0,0,44,16.62Z"/><path class="cls-9" d="M5.59,15.25l0-.08a2.78,2.78,0,0,0-1.7-1.48,5.18,5.18,0,0,0-2.37-.55s0,.07-.06.1a4.2,4.2,0,0,1-.54,1.27,4.06,4.06,0,0,1,2.41.65,5.44,5.44,0,0,1,2.07,1.5,3.1,3.1,0,0,0,.29-1.09A.27.27,0,0,1,5.59,15.25Z"/><path class="cls-9" d="M65.24,11.85A4.58,4.58,0,0,0,63.89,8c-1-1-2.13-1.83-3.13-2.83s-1.73-2.1-2.7-3A5.06,5.06,0,0,0,54.45.52c-2.08.12-3.55,2.09-4.41,4s-1.51,4-3.16,5.32c-.67.52-1.88.72-2.2-.07a3.06,3.06,0,0,0,3.25-2.3C43.3,6,38.38,4.73,33.61,5.68c-2.54.51-4.92,1.63-7.45,2.18-4,.87-8.74,0-10.86-3.5-.51-.84-.9-1.84-1.77-2.28A3.81,3.81,0,0,0,12,1.79L8.89,1.64A2,2,0,0,0,8,1.75a2.15,2.15,0,0,0-.89,1.39A12.67,12.67,0,0,1,3.46,8.6a8.44,8.44,0,0,0-1.71,1.72,2,2,0,0,0-.06,2.27,5.45,5.45,0,0,1,4.43,2.3,8.5,8.5,0,0,0,3.12-4.24C9.76,9.05,10,7,11.56,6.34,10,9.67,8.39,13.21,8.74,16.87c2.6-.87,5.28-1.75,8-1.58,3,.19,5.89,1.65,8.92,1.69a12.48,12.48,0,0,0,4.92-1A14,14,0,0,1,35,14.46a10.2,10.2,0,0,1,2.75.33l2.75.6.73.13a11.08,11.08,0,0,1,1.7.41,12.23,12.23,0,0,0,1.73.27,24.1,24.1,0,0,1,7.12,2.38c.29.16,3.21,1.74,3.12,2a11.73,11.73,0,0,0,.74-6.36c-.21-1.34-.57-2.95.44-3.85-.51-.74-1-1.48-1.54-2.23,1.33.05,2,1.64,2.19,3s.63,2.91,1.92,3.23l0,0A6.56,6.56,0,0,1,65.24,11.85Z"/><path class="cls-9" d="M23.46,24.08a6.8,6.8,0,0,0,2.3-4.42.87.87,0,0,1,.1-.42.32.32,0,0,1,.36-.16.58.58,0,0,1,.2.21,6.45,6.45,0,0,0,4.22,2.81c1.49.27,3,0,4.52.34a5.85,5.85,0,0,1,3,1.79,1.63,1.63,0,0,1,.43-1.15c.31-.28.92-.24,1.05.16a8.46,8.46,0,0,0-1.55-5.46,1.23,1.23,0,0,1-.12-.26,4,4,0,0,0-2.45-.42c-1.47.25-2.76,1.12-4.21,1.44-2.09.47-4.25-.23-6.39-.11a2.44,2.44,0,0,0-1.1.3A15.68,15.68,0,0,0,23.46,24.08Z"/><path class="cls-9" d="M3.06,15.68a2.9,2.9,0,0,0-2.48-.49c-.08.47.5.69.82.92a7,7,0,0,0,1.37.73A10.81,10.81,0,0,0,5,17.09H5A4.55,4.55,0,0,0,3.06,15.68Z"/><path class="cls-9" d="M62.9,12.27a7.2,7.2,0,0,0-3.58,2.05.29.29,0,0,1-.16.15l-.06,0s0,0,0,.06a.17.17,0,0,0,0,.12A4.27,4.27,0,0,0,60,15.85c.43.27,1,.1,1.47.06A7.9,7.9,0,0,0,64,15.26a2.4,2.4,0,0,0,1.26-.9,8.12,8.12,0,0,1-4.12,1.22c-1.64-.08-.65-1.21.16-1.7A7.3,7.3,0,0,1,65.67,13h0C65.69,12.19,63.48,12.19,62.9,12.27Z"/><path class="cls-9" d="M61.19,15c1.25-.06,3.26-.5,4.1-1.45-1.43-.08-3.45.29-4.4,1.42Z"/><path class="cls-9" d="M40,25a.35.35,0,0,0,.34.07l0-.39a2.26,2.26,0,0,1,0-.26,3.21,3.21,0,0,0-.3.21A.29.29,0,0,0,40,25Z"/><path class="cls-9" d="M40.29,25.91a2.75,2.75,0,0,1-1.2,2,.68.68,0,0,1-.45.15.31.31,0,0,1-.3-.31c0-.19.25-.27.44-.35a1.65,1.65,0,0,0,.85-1.09,3.76,3.76,0,0,0,0-1.42,2.16,2.16,0,0,0-.6-1.43,2,2,0,0,0-.34,1.17c0,.17,0,.37-.11.48s-.5,0-.68-.25a5.87,5.87,0,0,0-2.31-1.67c-1.43-.52-3-.23-4.52-.4a7.46,7.46,0,0,1-4.88-2.68,6.59,6.59,0,0,1-1.41,3.38A2.51,2.51,0,0,1,23,24.76l0-.52a13,13,0,0,1-2.63-1.78,1.65,1.65,0,0,0-.33-.25,8.37,8.37,0,0,1-2.17,3.51A7.93,7.93,0,0,1,14.9,28a10,10,0,0,1,1.49,1.56c.93,1.17,1.9,2.32,2.79,3.53A13.18,13.18,0,0,1,21,38.17a32.89,32.89,0,0,1-.09,7.22c-.13,1.75-.52,3.47-.73,5.21-.09.88-.07,1.76-.09,2.65a.19.19,0,0,1-.07.12v0c.08.11.16.2.23.31a8.63,8.63,0,0,0,1.12,1.57,12.57,12.57,0,0,0,2.12,1.51,15.79,15.79,0,0,0,6.24,1.45c1.22.13,2.44.15,3.65.19a19.1,19.1,0,0,0,2.93,0c.69,0,1.32-.19,2-.29a7.85,7.85,0,0,0,2.15-.51c.91-.23,1.82-.64,2.71-.86a8.08,8.08,0,0,0,2.3-1.27,4.6,4.6,0,0,0,1.11-1,.85.85,0,0,1,.17-.25.28.28,0,0,1,.09-.17c-.24-.95-.39-1.93-.64-2.87A38.32,38.32,0,0,1,44.94,47c-.16-.56-.23-1.14-.35-1.72a5.89,5.89,0,0,1-.2-2,13.49,13.49,0,0,1,0-4.57c.34-1.62.68-3.25,1.18-4.83A20.4,20.4,0,0,1,47,31,20,20,0,0,1,49.18,28c.17-.25.34-.51.5-.77a1,1,0,0,1-.28-.05,5.53,5.53,0,0,1-.88-.8c-.35-.32-.74-.56-1.11-.85-.64-.49-1.2-1.07-1.82-1.57-.79-.57-1.81-.89-2.36-1.74a.83.83,0,0,1-.11-.36c-.13.1-.25.22-.37.33a9.83,9.83,0,0,0-.69.8c-.3.34-1.14,1.85-1.77,2A4.31,4.31,0,0,1,40.29,25.91Z"/><path class="cls-9" d="M14.33,26.22a.29.29,0,0,1,.05.14,2.1,2.1,0,0,0-.17,1h0a.54.54,0,0,0,.22.05.3.3,0,0,1,.23.11l.55-.28a.33.33,0,0,1,.1-.06.36.36,0,0,1-.15-.08Z"/><path class="cls-9" d="M44.07,22.12a7.42,7.42,0,0,1,.3-.83c-.26,0-.61.11-.69.4a.82.82,0,0,0,.34.61A.37.37,0,0,1,44.07,22.12Z"/><path class="cls-9" d="M49.3,26.37l.16.17a.44.44,0,0,0,.3.17A.72.72,0,0,0,50,25.56a.24.24,0,0,1-.09-.15A2.49,2.49,0,0,1,49.3,26.37Z"/><path class="cls-10" d="M14.33,26.22l.83.9a.36.36,0,0,0,.15.08l.36-.22s0-.05,0-.07a.28.28,0,0,0-.19-.25l-.64-.72a22.46,22.46,0,0,1-2.7-3.15,12.41,12.41,0,0,1-1.82-5c-.05-.24.05-.65-.29-.69a.29.29,0,0,0-.31.26,7.55,7.55,0,0,0,.36,1.94,13.67,13.67,0,0,0,.81,2.49,17.63,17.63,0,0,0,3.33,4.32A.22.22,0,0,1,14.33,26.22Z"/><path class="cls-10" d="M44.74,21.1a.28.28,0,0,1-.36.19h0a7.42,7.42,0,0,0-.3.83.37.37,0,0,0,0,.18,2.5,2.5,0,0,0,.39.3c.19-.09.21-.41.29-.6a8.62,8.62,0,0,1,.54-1.2,6.53,6.53,0,0,1,.8-1.38c.13-.21.43-.49.15-.71s-.41.06-.52.24a8.37,8.37,0,0,0-1,1.69,1,1,0,0,0-.07.15A.26.26,0,0,1,44.74,21.1Z"/><path class="cls-10" d="M26.88,32.24c.44.37.93.66,1.39,1,1.08.77,2.14,1.79,3.47,1.82s2.54-1,3.48-2.07a9.19,9.19,0,0,0,1.2-1.57.73.73,0,0,0,.13-.57c0-.19-.32-.33-.46-.19a.42.42,0,0,0-.09.19.36.36,0,0,1,0,.1,2.43,2.43,0,0,1-.66,1L34,33.35a3,3,0,0,1-3,1.06,9.78,9.78,0,0,1-2.68-1.8,13.24,13.24,0,0,1-1.23-.89,6.87,6.87,0,0,1-1.22-1.47,14.7,14.7,0,0,1-2.4-5.66l-.52.16a14.08,14.08,0,0,0,2.33,5.63A8.39,8.39,0,0,0,26.88,32.24Z"/><path class="cls-5" d="M14.24,26.12l.09.1A.22.22,0,0,0,14.24,26.12Z"/><path class="cls-5" d="M15.67,27l-.36.22A.3.3,0,0,0,15.67,27Z"/><path class="cls-5" d="M50.55,25.32a.25.25,0,0,0,0-.16c-.07-.09-.09-.22-.2-.29l-.1-.07c-.07.17-.16.39-.27.61a.24.24,0,0,0,.09.15.72.72,0,0,1-.26,1.15.44.44,0,0,1-.3-.17l-.16-.17L48.92,26a1.21,1.21,0,0,0-.16-.16c-.27-.22-.55-.41-.83-.61-.78-.56-1.42-1.32-2.21-1.86-.28-.21-.85-.47-1.31-.78a2.5,2.5,0,0,1-.39-.3.82.82,0,0,1-.34-.61c.08-.29.43-.38.69-.4.08-.17.16-.34.25-.5a.44.44,0,0,0-.3-.07,1.33,1.33,0,0,0-.83.31.31.31,0,0,0-.25.08c-1.34.72-1.9,2.24-3,3.24l0,0a2.26,2.26,0,0,0,0,.26l0,.39c.63-.17,1.47-1.68,1.77-2a9.83,9.83,0,0,1,.69-.8c.12-.11.24-.23.37-.33a.83.83,0,0,0,.11.36c.55.85,1.57,1.17,2.36,1.74.62.5,1.18,1.08,1.82,1.57.37.29.76.53,1.11.85a5.53,5.53,0,0,0,.88.8,1,1,0,0,0,.28.05c-.16.26-.33.52-.5.77A20,20,0,0,0,47,31a20.4,20.4,0,0,0-1.39,2.86c-.5,1.58-.84,3.21-1.18,4.83a13.49,13.49,0,0,0,0,4.57,5.89,5.89,0,0,0,.2,2c.12.58.19,1.16.35,1.72a38.32,38.32,0,0,0,1.27,4.2c.25.94.4,1.92.64,2.87a.28.28,0,0,0-.09.17.85.85,0,0,0-.17.25,4.6,4.6,0,0,1-1.11,1,8.08,8.08,0,0,1-2.3,1.27c-.89.22-1.8.63-2.71.86a7.85,7.85,0,0,1-2.15.51c-.67.1-1.3.24-2,.29a19.1,19.1,0,0,1-2.93,0c-1.21,0-2.43-.06-3.65-.19a15.79,15.79,0,0,1-6.24-1.45,12.57,12.57,0,0,1-2.12-1.51,8.63,8.63,0,0,1-1.12-1.57c-.07-.11-.15-.2-.23-.31v0a.19.19,0,0,0,.07-.12c0-.89,0-1.77.09-2.65.21-1.74.6-3.46.73-5.21A32.89,32.89,0,0,0,21,38.17a13.18,13.18,0,0,0-1.83-5.05c-.89-1.21-1.86-2.36-2.79-3.53A10,10,0,0,0,14.9,28a7.93,7.93,0,0,0,2.93-2.31A8.37,8.37,0,0,0,20,22.21a1.65,1.65,0,0,1,.33.25A13,13,0,0,0,23,24.24l-.06-.65A14.88,14.88,0,0,1,21,22.29c-.36-.29-.74-.57-1.11-.85a1,1,0,0,0-1.26-.07s0,0,0,0l0,0,.37.37.06,0a.5.5,0,0,1,.32,0l.06.07a2.83,2.83,0,0,1-.08.4,3.69,3.69,0,0,1-.21.64,8.88,8.88,0,0,1-1.59,2.26A10.56,10.56,0,0,1,15.67,27a.3.3,0,0,1-.36.22.33.33,0,0,0-.1.06l-.55.28a.3.3,0,0,0-.23-.11.54.54,0,0,1-.22-.05h0a2.1,2.1,0,0,1,.17-1,.29.29,0,0,0-.05-.14l-.09-.1a.29.29,0,0,0-.43.17c-.19.54-.42,1.44.29,1.65a.45.45,0,0,0,.23.35l.76.68c.44.42.79.91,1.19,1.37.83,1.12,1.78,2.15,2.56,3.31a13.12,13.12,0,0,1,1.75,6.53A45.48,45.48,0,0,1,20,48a22.24,22.24,0,0,0-.47,5.27.21.21,0,0,0-.07.15c0,.28.24.46.37.68a6.83,6.83,0,0,0,1.39,1.81,11.66,11.66,0,0,0,3,1.83,18.83,18.83,0,0,0,3.14.82,67.35,67.35,0,0,0,7.24.48,25.86,25.86,0,0,0,4.79-.49c1-.28,1.93-.57,2.87-.9a9.94,9.94,0,0,0,2.65-1.09,6.93,6.93,0,0,0,2.26-1.9h0v0a.81.81,0,0,0,.2-.43.47.47,0,0,0,0-.5c-.13-.54-.26-1.09-.36-1.64-.32-1.76-1.16-3.38-1.48-5.15-.17-.57-.25-1.15-.37-1.73a6,6,0,0,1-.2-2c0-.56-.19-1.1-.19-1.67a17.88,17.88,0,0,1,.11-1.94c.13-1.29.51-2.53.76-3.8a13.09,13.09,0,0,1,1.15-3.23A15.77,15.77,0,0,1,49,29.17a10.66,10.66,0,0,0,1.57-2.23.27.27,0,0,0,.13-.36A1.28,1.28,0,0,0,50.55,25.32Z"/><path class="cls-10" d="M50.82,21.64a.29.29,0,0,0-.3.24c-.08.36-.15.73-.25,1.08a11.82,11.82,0,0,1-1.29,3,.2.2,0,0,0-.06.09l.38.36a2.49,2.49,0,0,0,.63-1c.11-.22.2-.44.27-.61l.09-.2A12.41,12.41,0,0,0,51.08,22,.28.28,0,0,0,50.82,21.64Z"/><path class="cls-10" d="M44.37,21.29h0a.28.28,0,0,0,.36-.19.26.26,0,0,0-.12-.31C44.53,21,44.45,21.12,44.37,21.29Z"/><path class="cls-8" d="M62.46,5.87,58.16,1.6A6.83,6.83,0,0,0,56.86.5c-1.77-1-4.16-.33-5.61,1.12A14.07,14.07,0,0,0,48.34,7c-4.5-1.47-9.25-2.72-13.94-2-2.58.4-5,1.39-7.57,2a15.12,15.12,0,0,1-5.39.56A3.92,3.92,0,0,1,19.17,7a20.69,20.69,0,0,0-1.8-1.26,8.36,8.36,0,0,1-1.74-1.87C15.05,3,14.58,2,13.65,1.5A4.29,4.29,0,0,0,12,1.19L9.21,1.05a2.92,2.92,0,0,0-1.47.17C7,1.6,6.66,2.56,6.36,3.39A11.7,11.7,0,0,1,3,8.25C2.07,9.08.88,9.94.82,11.2a11.67,11.67,0,0,1,.12,2C.75,14-.15,14.63,0,15.45a1.75,1.75,0,0,0,.78,1,6.84,6.84,0,0,0,3.81,1.24,1.37,1.37,0,0,0,.93-.23A1.75,1.75,0,0,0,6,16.59a5.64,5.64,0,0,1,2.29-2.87c.21,1.16-.65,2.5.05,3.43s1.89.58,2.91.41a10,10,0,0,1,4.42.25l.69.19a1.38,1.38,0,0,0,.08.2,8.82,8.82,0,0,1,.42,1.29,2.87,2.87,0,0,0,.7.43,19.1,19.1,0,0,0,3.91,1.23A1.86,1.86,0,0,0,23,21c.06-.06.13-.09.17-.17.3-.46.06-1.1.29-1.6a1.06,1.06,0,0,1,.44-.45,2.44,2.44,0,0,1,1.1-.3c2.14-.12,4.3.58,6.39.11,1.45-.32,2.74-1.19,4.21-1.44a4,4,0,0,1,2.45.42,3.31,3.31,0,0,1,1.43,1.39c.06.12.13.24.18.37l3.19.8a4.07,4.07,0,0,0,1.86.16,1.38,1.38,0,0,0,1.14-1.3L51,21.61a2,2,0,0,0-.23,1.19,4.13,4.13,0,0,0,3,.56c1.2-.41,1.73-1.79,2-3a23.37,23.37,0,0,0,.21-9.24,7.6,7.6,0,0,0,3.83,5,5.08,5.08,0,0,0,2.45.51,4.37,4.37,0,0,0,3.85-3.25,4.63,4.63,0,0,0,.12-.9C66.25,10,64.28,7.69,62.46,5.87ZM5,17.09a10.81,10.81,0,0,1-2.19-.25,7,7,0,0,1-1.37-.73c-.32-.23-.9-.45-.82-.92a2.9,2.9,0,0,1,2.48.49A4.55,4.55,0,0,1,5,17.09Zm.41-.43a5.44,5.44,0,0,0-2.07-1.5,4.06,4.06,0,0,0-2.41-.65,4.2,4.2,0,0,0,.54-1.27s0-.07.06-.1a5.18,5.18,0,0,1,2.37.55,2.78,2.78,0,0,1,1.7,1.48l0,.08a.27.27,0,0,0,.07.32A3.1,3.1,0,0,1,5.37,16.66Zm49.28,4.76c-.15.46-.18,1-.63,1a.7.7,0,0,1-.37-.11,8,8,0,0,0-1.41-.72l-1.49-.75-3.06-1.54-1.49-.75a7.38,7.38,0,0,0-1.47-.71c-.33-.08-.66-.05-1-.15-.52-.16-1-.39-1.54-.54a22.2,22.2,0,0,0-2.4-.61,10.72,10.72,0,0,0-4.88.09C33.59,17,32.38,17.75,31,18a20.66,20.66,0,0,1-5-.18,4.81,4.81,0,0,0-1.69.14c-.41.12-.78.34-1.19.5a6.07,6.07,0,0,1-3.86,0c-1.26-.35-2.46-.9-3.73-1.23a11.33,11.33,0,0,0-5.81,0,15.71,15.71,0,0,1,3.7-1.07,14.29,14.29,0,0,1,3.25-.38c1.87.08,3.6.9,5.41,1.35a14.07,14.07,0,0,0,9.59-1A9.06,9.06,0,0,1,34.43,15a6.9,6.9,0,0,1,2.12.18L44,16.62a29.91,29.91,0,0,1,4.57,1.13,30.13,30.13,0,0,1,6.22,3.41A1.56,1.56,0,0,0,54.65,21.42Zm4-7.13C57.36,14,57,12.37,56.73,11.06s-.86-2.9-2.19-3c.51.75,1,1.49,1.54,2.23-1,.9-.65,2.51-.44,3.85a11.73,11.73,0,0,1-.74,6.36c.09-.23-2.83-1.81-3.12-2a24.1,24.1,0,0,0-7.12-2.38,12.23,12.23,0,0,1-1.73-.27,11.08,11.08,0,0,0-1.7-.41l-.73-.13-2.75-.6A10.2,10.2,0,0,0,35,14.46a14,14,0,0,0-4.41,1.48,12.48,12.48,0,0,1-4.92,1c-3,0-5.89-1.5-8.92-1.69-2.73-.17-5.41.71-8,1.58C8.39,13.21,10,9.67,11.56,6.34,10,7,9.76,9.05,9.24,10.65a8.5,8.5,0,0,1-3.12,4.24,5.45,5.45,0,0,0-4.43-2.3,2,2,0,0,1,.06-2.27A8.44,8.44,0,0,1,3.46,8.6,12.67,12.67,0,0,0,7.08,3.14,2.15,2.15,0,0,1,8,1.75a2,2,0,0,1,.92-.11L12,1.79a3.81,3.81,0,0,1,1.57.29c.87.44,1.26,1.44,1.77,2.28,2.12,3.46,6.89,4.37,10.86,3.5,2.53-.55,4.91-1.67,7.45-2.18,4.77-.95,9.69.3,14.32,1.78a3.06,3.06,0,0,1-3.25,2.3c.32.79,1.53.59,2.2.07C48.53,8.55,49.19,6.41,50,4.51s2.33-3.87,4.41-4a5.06,5.06,0,0,1,3.61,1.63c1,.94,1.74,2.08,2.7,3S62.94,7,63.89,8a4.58,4.58,0,0,1,1.35,3.83,6.56,6.56,0,0,0-6.55,2.39Zm7-1.26a7.3,7.3,0,0,0-4.37.85c-.81.49-1.8,1.62-.16,1.7a8.12,8.12,0,0,0,4.12-1.22,2.4,2.4,0,0,1-1.26.9,7.9,7.9,0,0,1-2.49.65c-.48,0-1,.21-1.47-.06a4.27,4.27,0,0,1-.89-1.16.17.17,0,0,1,0-.12s0,0,0-.06l.06,0a.29.29,0,0,0,.16-.15,7.2,7.2,0,0,1,3.58-2.05c.58-.08,2.79-.08,2.81.76Zm-.38.53c-.84.95-2.85,1.39-4.1,1.45l-.3,0C61.84,13.85,63.86,13.48,65.29,13.56Z"/><path class="cls-6" d="M40.29,25l0-.39a2.26,2.26,0,0,1,0-.26h0c0-.95,0-1.89-.08-2.83a8.6,8.6,0,0,0-.74-2.63A3.31,3.31,0,0,0,38,17.52a1.23,1.23,0,0,0,.12.26,8.46,8.46,0,0,1,1.55,5.46c-.13-.4-.74-.44-1.05-.16a1.63,1.63,0,0,0-.43,1.15,5.85,5.85,0,0,0-3-1.79c-1.48-.33-3-.07-4.52-.34a6.45,6.45,0,0,1-4.22-2.81.58.58,0,0,0-.2-.21.32.32,0,0,0-.36.16.87.87,0,0,0-.1.42,6.8,6.8,0,0,1-2.3,4.42,15.68,15.68,0,0,1,.39-5.35,1.06,1.06,0,0,0-.44.45c-.23.5,0,1.14-.29,1.6,0,.08-.11.11-.17.17l-.13,1.15a6.76,6.76,0,0,0,.06,1.27,1.64,1.64,0,0,1,0,.22l.06.65,0,.52a2.51,2.51,0,0,0,1.83-1.3,6.59,6.59,0,0,0,1.41-3.38,7.46,7.46,0,0,0,4.88,2.68c1.51.17,3.09-.12,4.52.4A5.87,5.87,0,0,1,38,24.83c.18.2.47.42.68.25s.11-.31.11-.48a2,2,0,0,1,.34-1.17,2.16,2.16,0,0,1,.6,1.43,3.76,3.76,0,0,1,0,1.42,1.65,1.65,0,0,1-.85,1.09c-.19.08-.42.16-.44.35a.31.31,0,0,0,.3.31.68.68,0,0,0,.45-.15,2.75,2.75,0,0,0,1.2-2A4.31,4.31,0,0,0,40.29,25Z"/><path class="cls-10" d="M19,21.8l-.37-.37,0,0c-.57-.52-1.07-1.09-1.68-1.59-.08-.06-.07-.19-.1-.28s0,0,0-.05a8.82,8.82,0,0,0-.42-1.29,1.38,1.38,0,0,1-.08-.2l-.69-.19c.05.14.13.27.17.38.13.39.3.78.42,1.18.05.19.07.39.13.59s.41.4.63.66a23.42,23.42,0,0,1,2.14,2.2l0,0a3.69,3.69,0,0,0,.21-.64A3.62,3.62,0,0,0,19,21.8Z"/><path class="cls-5" d="M45.69,31.16a12.11,12.11,0,0,1-3.18,1.58.25.25,0,0,0,.06.49l1.91.05-.13-.47a7.67,7.67,0,0,1-2,.84.25.25,0,0,0,.13.49c.51-.1,1-.18,1.54-.23L44,33.45a9.3,9.3,0,0,1-1.82.89c-.3.11-.17.58.14.48a6,6,0,0,1,2-.29l-.12-.47a14.22,14.22,0,0,1-2.08.72.25.25,0,0,0,.13.48,4.56,4.56,0,0,1,1.68-.13l-.12-.47-1.88,1a.25.25,0,0,0,.12.47l1.9-.12-.07-.49L41.2,36c-.28.06-.21.49.07.49l2.32,0L43.53,36a13.27,13.27,0,0,0-2.16.5c-.21.07-.26.45,0,.48a11.52,11.52,0,0,0,2.27.11v-.5c-1.22.13-2.44.3-3.65.54-.28,0-.2.49.07.49H42.9v-.5l-3.34.25a.25.25,0,0,0,0,.5h3.29v-.5A12.66,12.66,0,0,0,39,38a.25.25,0,0,0,.06.49l4.28.15-.06-.49a36.43,36.43,0,0,0-3.89.86.26.26,0,0,0,.06.5,12.47,12.47,0,0,0,3.7-.34c.27-.06.22-.52-.07-.49-.88.1-1.76.22-2.63.38-.58.11-1.36.12-1.7.68a.24.24,0,0,0,.21.37c1.5-.09,3-.24,4.48-.43.32,0,.32-.54,0-.5a22.08,22.08,0,0,0-4.38,1c-.25.09-.23.52.07.49l4-.37-.07-.49-4.2,1.26c-.26.07-.22.51.07.49l4.48-.34-.18-.43c-.4.43-1.43.42-2,.52l-2.13.41c-.27,0-.21.53.07.49l4.57-.61-.07-.49-2.81.57a6.18,6.18,0,0,0-2.18.69c-.19.13-.13.49.13.47,1.55-.11,3.09-.33,4.62-.56l-.13-.48c-1.71.3-3.4.69-5.07,1.15a.25.25,0,0,0,0,.48,5.2,5.2,0,0,0,2.25-.14l2.76-.44-.13-.48L40.29,43a4.37,4.37,0,0,0-2,.67.26.26,0,0,0,.18.43,10.54,10.54,0,0,0,2.23-.27l2.42-.44L43,42.91,38.77,44a.25.25,0,0,0-.11.42c.46.36,1.2.07,1.71,0L43.11,44,43,43.52l-4.72,1.54a.25.25,0,0,0,.07.49A12.46,12.46,0,0,0,42,45.09c.32-.08.18-.54-.13-.48a17.64,17.64,0,0,0-3.51,1c-.24.1-.24.52.06.49A20.33,20.33,0,0,0,42,45.45L41.89,45l-2.89,1c-.44.14-1.16.26-1,.88a.26.26,0,0,0,.31.17l4.08-1-.13-.49a26.25,26.25,0,0,0-2.71.93c-.44.18-1.44.38-1.36,1a.26.26,0,0,0,.32.24,30.93,30.93,0,0,0,4.33-1.12c.3-.1.18-.57-.13-.48a17.56,17.56,0,0,0-4,1.54.26.26,0,0,0,.06.46,11.71,11.71,0,0,0,4.48-.39l-.13-.48a24.88,24.88,0,0,0-3.92,1.53c-.26.13-.07.51.2.46,1.34-.26,2.67-.56,4-.91.31-.08.18-.54-.14-.48a24.07,24.07,0,0,1-3,.43l.25.25c0-.22.72-.61.9-.73l.69-.5,1.49-1.07c.18-.13.15-.49-.13-.47a9.34,9.34,0,0,0-3.46.94c-.25.12-.07.56.19.45A12.63,12.63,0,0,0,43,45.54a.26.26,0,0,0-.13-.47,8.85,8.85,0,0,0-3,.45l.19.46a12,12,0,0,0,2.06-1.31c.18-.14,0-.42-.18-.43a5.07,5.07,0,0,0-2.23.46c-.27.12-.06.51.2.46a10.37,10.37,0,0,0,2.64-.93c.27-.13.07-.5-.19-.45a7.2,7.2,0,0,0-2.24.78c-.35.19-1.09.53-.88,1.07s.92.37,1.31.34a24.65,24.65,0,0,0,2.71-.43l-.13-.48a11.39,11.39,0,0,0-4.63,2.09.24.24,0,0,0,0,.3c.34.47.86.44,1.39.4.83-.05,1.65-.15,2.47-.28l-.13-.49c-.76.29-1.51.6-2.24.94-.51.23-1.07.44-1.21,1a.25.25,0,0,0,.24.32,14.29,14.29,0,0,0,3.48-.62l-.14-.48-2.28.93a4.78,4.78,0,0,0-1.56.87.25.25,0,0,0,.24.42l3.16-.66-.13-.48-2.65,1.08a.25.25,0,0,0,.07.49A2.57,2.57,0,0,0,41,50.33c.25-.2-.1-.55-.35-.35a2.06,2.06,0,0,1-1.49.44l.06.49,2.65-1.08a.25.25,0,0,0-.13-.48L38.62,50l.24.42a5.6,5.6,0,0,1,1.8-.93l1.83-.74c.29-.12.18-.57-.14-.48a13.55,13.55,0,0,1-3.34.6l.24.31c.12-.5,1-.74,1.41-.93s1.12-.47,1.69-.68a.25.25,0,0,0-.13-.49c-.59.1-1.17.18-1.77.23-.38,0-1.27.25-1.53-.11l0,.3a11.12,11.12,0,0,1,4.41-2,.25.25,0,0,0-.13-.48c-.39.08-3.16.7-3.24.35-.05-.2.3-.32.49-.42a4.47,4.47,0,0,1,.7-.33,6.88,6.88,0,0,1,1.41-.4l-.19-.46a9.48,9.48,0,0,1-2.53.87l.2.46a4.6,4.6,0,0,1,2-.39l-.17-.42a12.14,12.14,0,0,1-2,1.23A.25.25,0,0,0,40,46a8.35,8.35,0,0,1,2.84-.44l-.12-.46a12.23,12.23,0,0,1-2.82,1.53l.19.46a8.62,8.62,0,0,1,3.21-.87l-.12-.47L41,47.33c-.43.31-1.09.59-1.15,1.17a.25.25,0,0,0,.25.25,24.73,24.73,0,0,0,3.19-.45l-.14-.48q-2,.52-4,.9l.2.46a24.21,24.21,0,0,1,3.79-1.48.25.25,0,0,0-.13-.48,11,11,0,0,1-4.22.38l.06.46a17.43,17.43,0,0,1,3.91-1.49l-.13-.48a31.07,31.07,0,0,1-4.34,1.12l.32.24c0-.29,1.59-.77,1.85-.86.61-.22,1.23-.42,1.85-.59a.25.25,0,0,0-.13-.49l-4.09,1,.31.17c0-.11,3.29-1.12,3.58-1.21a.25.25,0,0,0-.13-.49,18.14,18.14,0,0,1-3.5.65l.07.49a18.54,18.54,0,0,1,3.51-1l-.13-.48a12.25,12.25,0,0,1-3.51.44l.07.49L43.11,44a.25.25,0,0,0-.13-.48l-1.91.3-1,.15c-.2,0-.95.24-1.11.12l-.11.41,4.19-1.11c.32-.08.18-.54-.13-.48l-2.18.39a10.28,10.28,0,0,1-2.34.3l.18.42a2.3,2.3,0,0,1,1.09-.38l1.19-.27,2.37-.54c.32-.07.18-.53-.13-.48l-2.28.36a6.1,6.1,0,0,1-2.46.22v.48q2.51-.69,5.06-1.15c.32,0,.18-.53-.13-.48-1.49.22-3,.44-4.49.54l.13.47a6.28,6.28,0,0,1,2.3-.7l2.56-.52c.28,0,.22-.53-.06-.49l-4.57.61.07.49,2.59-.49a3.09,3.09,0,0,0,1.72-.56c.14-.15.05-.45-.17-.43L38.93,41l.07.49,4.19-1.26c.26-.08.23-.52-.06-.49l-4,.37.07.5a20.59,20.59,0,0,1,4.24-1v-.5c-1.49.19-3,.34-4.48.43l.22.38c.26-.44,1.42-.45,1.87-.53.67-.11,1.35-.2,2-.28L43,38.66a11.92,11.92,0,0,1-3.57.32l.07.49a34.17,34.17,0,0,1,3.89-.87c.29-.05.2-.48-.07-.49L39,38l.07.49a12.43,12.43,0,0,1,3.74-.52.25.25,0,0,0,0-.5H39.56v.5l3.34-.25c.31,0,.32-.5,0-.5H40.06l.07.49c1.16-.22,2.33-.4,3.51-.52.32,0,.33-.52,0-.5a11,11,0,0,1-2.14-.09V37a13.27,13.27,0,0,1,2.16-.5c.28,0,.21-.49-.07-.49l-2.32,0,.07.49L44,36c.27,0,.21-.51-.07-.49l-1.9.12.13.46,1.88-1c.24-.12.1-.44-.13-.46a5,5,0,0,0-1.81.15l.13.48a13.94,13.94,0,0,0,2.2-.76c.24-.11.1-.46-.13-.47a6.3,6.3,0,0,0-2.15.31l.14.48a9.31,9.31,0,0,0,1.93-.94c.19-.13.14-.49-.13-.47-.56.06-1.11.14-1.67.24l.13.49a8.73,8.73,0,0,0,2.08-.9.25.25,0,0,0-.13-.46l-1.91-.05.07.49a12.38,12.38,0,0,0,3.3-1.63c.27-.18,0-.62-.25-.43Z"/><path class="cls-5" d="M43,49.17q-1.83.75-3.57,1.65c-.26.13-.08.53.19.46l2.95-.79a.25.25,0,0,0-.13-.48,6.35,6.35,0,0,0-2.31,1,.27.27,0,0,0-.09.34.78.78,0,0,0,.9.3c.66-.12,1.32-.3,2-.45.32-.07.18-.55-.13-.48a5.52,5.52,0,0,0-2,.89.25.25,0,0,0,.12.47A5.78,5.78,0,0,0,43,51.7a.25.25,0,0,0-.13-.48,6.68,6.68,0,0,0-2.3,1c-.19.13-.15.49.12.47a11.22,11.22,0,0,0,2.92-.7c.29-.11.16-.6-.14-.48a9.92,9.92,0,0,0-2.65,1.36c-.18.14,0,.43.17.43a8.09,8.09,0,0,0,3.45-.78c.25-.12.07-.54-.2-.46a7.93,7.93,0,0,0-3.64,1.84.26.26,0,0,0,.18.43,6.14,6.14,0,0,0,3.09-.8c.26-.12.07-.53-.2-.46a4,4,0,0,0-1.92,1.14.25.25,0,0,0,.11.42,2.64,2.64,0,0,0,2.06-.56c.22-.16,0-.46-.24-.41a6.28,6.28,0,0,0-2.44,1.1c-.17.13-.15.5.13.47a8.19,8.19,0,0,0,2.61-.73c.26-.12.08-.54-.19-.46a13.7,13.7,0,0,0-3.24,1.46.25.25,0,0,0,.19.46,14.12,14.12,0,0,0,2.69-.81.25.25,0,0,0-.13-.48,7.71,7.71,0,0,0-2.84,1.21.25.25,0,0,0,.18.43,6.28,6.28,0,0,0,2.6-.78.25.25,0,0,0-.2-.45,7.46,7.46,0,0,0-2.9,1.44.25.25,0,0,0,.17.43,5.75,5.75,0,0,0,2.31-.54c.25-.12.07-.57-.2-.46-.63.25-1.27.5-1.89.77-.37.15-.75.39-.63.84a.26.26,0,0,0,.24.19,4.31,4.31,0,0,0,1.5-.34c.26-.12.07-.53-.19-.46a17.21,17.21,0,0,0-2.53.88c-.22.09-.12.49.12.46a5.26,5.26,0,0,0,2.3-.85c.17-.1.17-.42-.06-.45a6.44,6.44,0,0,0-2,0l.06.49a10.56,10.56,0,0,0,2.81-1.19.26.26,0,0,0-.13-.47,11.25,11.25,0,0,0-3.71.84c-.29.12-.18.59.13.49a42.59,42.59,0,0,0,4.49-1.82.26.26,0,0,0-.13-.47,16.6,16.6,0,0,0-3.95.68L39,56l3.58-1.15c.25-.08.22-.51-.07-.49a20.65,20.65,0,0,0-2.92.47l.13.48c.91-.23,1.8-.5,2.69-.8.25-.09.23-.52-.07-.49a10.9,10.9,0,0,0-2.45.51A.25.25,0,0,0,40,55a14.91,14.91,0,0,0,2-.68c.24-.11.11-.47-.12-.47a6.74,6.74,0,0,0-2,.31.25.25,0,0,0,.13.49,6.46,6.46,0,0,0,2.09-.75c.21-.12.13-.49-.12-.47a12.77,12.77,0,0,0-2.23.34l.14.48a15.66,15.66,0,0,0,2.5-.85c.28-.13.06-.5-.19-.46-.94.16-1.86.36-2.77.6a.25.25,0,0,0,.13.49,21,21,0,0,0,2.57-.88c.23-.1.24-.51-.07-.49a13.48,13.48,0,0,0-2.36.37l.14.49,2.54-1c.24-.1.23-.53-.07-.5a20.88,20.88,0,0,0-2.83.58l.13.48,2.54-1a.25.25,0,0,0-.07-.49,6.41,6.41,0,0,0-2,.31l.13.49,2.15-.8c.25-.09.24-.51-.06-.49a8.26,8.26,0,0,0-2.26.46c-.3.1-.18.58.13.48.75-.25,1.48-.53,2.2-.85.24-.1.1-.46-.13-.46a9.64,9.64,0,0,0-1.78.14l.14.48a7.09,7.09,0,0,0,1-.38c.22-.1.12-.39-.06-.46l0,0c-.11-.31-.59-.18-.49.13a.6.6,0,0,0,.39.4l-.06-.46a6.76,6.76,0,0,1-.89.33.25.25,0,0,0,.14.48,9,9,0,0,1,1.64-.12l-.12-.47c-.68.3-1.38.56-2.08.8l.13.48a8.16,8.16,0,0,1,2.13-.44l-.07-.49-2.15.79c-.3.12-.18.59.13.49a5.89,5.89,0,0,1,1.86-.3L42,51.61l-2.54,1c-.29.12-.18.57.13.48a19.32,19.32,0,0,1,2.7-.56l-.06-.49-2.55,1a.26.26,0,0,0,.14.49,12,12,0,0,1,2.22-.36L42,52.66a19.29,19.29,0,0,1-2.56.87l.13.49c.92-.25,1.84-.45,2.77-.61L42.13,53a14.31,14.31,0,0,1-2.39.81.25.25,0,0,0,.14.48A13.18,13.18,0,0,1,42,53.92l-.13-.47a6,6,0,0,1-2,.7l.13.49a6,6,0,0,1,1.87-.3l-.13-.47a13.16,13.16,0,0,1-1.86.64L40,55a10.31,10.31,0,0,1,2.32-.49L42.27,54c-.89.3-1.79.56-2.69.8a.25.25,0,0,0,.13.48,21.91,21.91,0,0,1,2.79-.45l-.07-.49L38.85,55.5A.25.25,0,0,0,39,56a15.37,15.37,0,0,1,3.81-.66l-.13-.46a40.12,40.12,0,0,1-4.36,1.76l.13.49A10.8,10.8,0,0,1,42,56.28l-.12-.46A10.13,10.13,0,0,1,39.21,57c-.26.06-.22.52.07.49a6.24,6.24,0,0,1,1.83,0L41.05,57a4.71,4.71,0,0,1-2,.78l.13.47a17.15,17.15,0,0,1,2.41-.83L41.35,57a3.61,3.61,0,0,1-1.25.28l.24.18c-.06-.22,2-.91,2.18-1l-.2-.46a4.85,4.85,0,0,1-2,.48l.18.43a6.78,6.78,0,0,1,2.69-1.32l-.2-.46a5.54,5.54,0,0,1-2.34.71l.18.43a6.84,6.84,0,0,1,2.61-1.09l-.13-.48a14.12,14.12,0,0,1-2.69.81l.19.45a13.25,13.25,0,0,1,3.12-1.4l-.19-.46a7.49,7.49,0,0,1-2.36.66l.13.47a5.86,5.86,0,0,1,2.31-1.06l-.24-.42a2.08,2.08,0,0,1-1.58.42l.11.42a3.6,3.6,0,0,1,1.71-1l-.2-.45a5.56,5.56,0,0,1-2.83.73l.18.42a7.44,7.44,0,0,1,3.42-1.71l-.2-.45a7.47,7.47,0,0,1-3.19.71l.18.42A9.32,9.32,0,0,1,43.57,52l-.14-.48a10.57,10.57,0,0,1-2.78.68l.13.46a6.27,6.27,0,0,1,2.18-1l-.13-.48a5.29,5.29,0,0,1-2,.4l.13.46a5.28,5.28,0,0,1,1.93-.84l-.13-.48-1.2.28c-.19,0-1,.35-1.1.1l-.09.34a6,6,0,0,1,2.18-1L42.45,50l-3,.79.19.45c1.13-.58,2.28-1.12,3.45-1.6.29-.12.16-.61-.13-.48Z"/><path class="cls-8" d="M6,15.59a1.65,1.65,0,0,0-1.27-1.22A.57.57,0,0,0,4,15c.08.32.43.38.68.53a1.74,1.74,0,0,1,.57.66V16l.09-.09a.13.13,0,0,1,.18,0l0,0-.08-.07-.17-.14-.33-.3a.27.27,0,0,0-.31,0,.24.24,0,0,0-.11.28,2.22,2.22,0,0,0,.81,1l.12-.46s0,0,0,0h0a.17.17,0,0,1-.06-.06L5,16.41a1.3,1.3,0,0,0,.46.18.26.26,0,0,0,.31-.18.25.25,0,0,0-.17-.3A1.05,1.05,0,0,1,5.23,16c-.21-.12-.48.13-.34.34a.74.74,0,0,0,.55.34.25.25,0,0,0,.24-.19.26.26,0,0,0-.11-.28,1,1,0,0,1-.17-.14,1.12,1.12,0,0,1-.18-.2A1.54,1.54,0,0,1,5,15.46l-.42.24.51.45a1,1,0,0,0,.28.2.33.33,0,0,0,.36-.14.28.28,0,0,0,0-.25,2.11,2.11,0,0,0-1-1l-.13-.07s0,0,0,0h0s0,0,0,0v0h0s0,0,0,0h0v0h0l0,0s0,0,0,0,.05,0,0,0c.18,0,.41.14.54.25a1.33,1.33,0,0,1,.36.6.25.25,0,0,0,.3.18A.26.26,0,0,0,6,15.59Z"/><path class="cls-8" d="M56,10.22a.22.22,0,0,0-.13-.12.2.2,0,0,0,0-.18.25.25,0,0,0-.07-.36,2.71,2.71,0,0,1-.25-.19.3.3,0,0,0,0-.1,4.35,4.35,0,0,1-.34-.41.25.25,0,0,0-.44.25,1.61,1.61,0,0,0,.3.45v0l-.1.06a.25.25,0,0,0,0,.44s0,.05,0,.08h-.48a.25.25,0,0,0-.06.49l.1,0-.42.07a.24.24,0,0,0-.09.42c-.17.1-.2.42,0,.45l.15,0s0,0,0,0a.26.26,0,0,0-.12.31h0a.22.22,0,0,0-.15.32h0c-.21,0-.38.35-.12.46l.2.07a.28.28,0,0,0,.18.25l.07,0s0,0,0,0l.06,0a.41.41,0,0,0-.07.11,3,3,0,0,0-.84,0c-.22,0-.38.35-.13.46l.08,0c-.17.07-.24.35,0,.44s.33.12.5.18a.2.2,0,0,0,0,.17.24.24,0,0,0,0,.39L54,15a.26.26,0,0,0-.06.25l-.21,0a.24.24,0,0,0-.05.44h-.2a.24.24,0,0,0-.2.38.25.25,0,0,0,.13.38l.23,0a.33.33,0,0,0,.1.14,2.22,2.22,0,0,0,.93.37.52.52,0,0,1,0,.11,1.56,1.56,0,0,0-.89-.27,3,3,0,0,0-.54-.12c-.16,0-.25.14-.24.29a.24.24,0,0,0,.1.3h0l-.49,0c-.31,0-.3.4-.07.5l.66.27c-.21,0-.24.33-.07.45a1.32,1.32,0,0,0,.2.12.25.25,0,0,0,0,.28,2.33,2.33,0,0,0,.26.28.18.18,0,0,0,0,.18.23.23,0,0,0,0,.4l.53.29a2.5,2.5,0,0,0-.18.37s0,.08,0,.12a2.11,2.11,0,0,0-.34-.16c-.21-.09-.38.19-.28.36a2.2,2.2,0,0,0,.17.25.27.27,0,0,0,0,.33h0a.26.26,0,0,0-.18.13,6.14,6.14,0,0,0-.59-.25c-.2-.07-.32.1-.31.27a.26.26,0,0,0,0,.3c.1.1.21.18.31.27s0,0,0,.05a1,1,0,0,1,.13.09l0,0a2.51,2.51,0,0,0,.95.44.24.24,0,0,0,.29-.32.6.6,0,0,0,.16-.34.27.27,0,0,0,.09-.21,2.43,2.43,0,0,0,.79-1.14.23.23,0,0,0-.12-.28,6.94,6.94,0,0,0,.25-.81.57.57,0,0,0,0-.14c0-.14.07-.27.09-.42h0A5.73,5.73,0,0,0,56,16a.31.31,0,0,0-.07-.14l-.21-2.52a.23.23,0,0,0-.09-.18.25.25,0,0,0-.07-.43l-.09-.15a.61.61,0,0,0-.12-.45.23.23,0,0,0,.07-.35.25.25,0,0,0,0-.42l0-.06h0a.23.23,0,0,0,.22-.3l.05,0,.1-.05a.23.23,0,0,0,.11-.18l.06,0A.25.25,0,0,0,56,10.22Zm-1.14,8.32h0l0,.1a.12.12,0,0,0,0-.05S54.86,18.56,54.87,18.54ZM55,13.4h.07a.81.81,0,0,0-.09.1l-.11,0ZM54.49,18v0l-.43-.18h0Z"/><path class="cls-8" d="M65.2,11.25l.22,0c.14,0,.24-.13.25-.25a.45.45,0,0,0-.21-.41c.07-.14,0-.35-.14-.37h0a.43.43,0,0,0,0-.44.57.57,0,0,0-.32-.25l0,0a.39.39,0,0,0-.14-.3.22.22,0,0,0-.13-.14h0l.07,0a.26.26,0,0,0-.18-.43h-.21l0-.08a.38.38,0,0,0,0-.1A.7.7,0,0,0,63.94,8l-.11,0a.2.2,0,0,0-.09-.06.56.56,0,0,0-.17-.48.68.68,0,0,0-.44-.18A.25.25,0,0,0,63,7L62.8,7h0a.24.24,0,0,0-.12-.22l-.19-.08a1.49,1.49,0,0,0,.14-.12c.21-.15.1-.55-.19-.45l-.3.1A.21.21,0,0,0,62,6.11a.28.28,0,0,0-.31-.29l-.21,0a.22.22,0,0,0-.15-.13h-.07a.22.22,0,0,0,0-.16l0,0c.26-.13.07-.53-.2-.46l-.13,0c.07-.15,0-.38-.21-.35l-.24,0a.25.25,0,0,0-.17-.29h-.16a.26.26,0,0,0,.06-.32c.15-.12,0-.4-.16-.43h-.25a.26.26,0,0,0-.24-.3h-.14a.31.31,0,0,0-.1-.13c.09-.15,0-.39-.19-.37h-.11a.27.27,0,0,0-.14-.16s0,0,0,0a.43.43,0,0,0,0-.07.26.26,0,0,0-.2-.21.48.48,0,0,0-.11-.09h0l-.18-.17-.13-.19a3,3,0,0,0-.38-.42A5.69,5.69,0,0,0,56.9,1C56.35.61,55.64.12,55,.51c-.19.12-.13.49.13.46a2.27,2.27,0,0,1,.74.07.23.23,0,0,0,.16.3l.39.07a5.91,5.91,0,0,0,.8,1.19.26.26,0,0,0,.28.11l.2,0a.48.48,0,0,0,.16.13.74.74,0,0,0-.11.32.91.91,0,0,0,.13.58,1.86,1.86,0,0,0-.26.23.24.24,0,0,0,.06.38c-.06.06-.13.11-.19.18a.26.26,0,0,0,.25.42l.07,0,0,0c-.24.2.06.5.3.39l.1,0a.24.24,0,0,0,.29.35.24.24,0,0,0,.36.26c.21-.1.43-.18.65-.26a.24.24,0,0,0,.26.37l.06,0-.16.13c-.21.2.06.5.3.39l-.13.17a.25.25,0,0,0,.34.34l.17-.09a.34.34,0,0,0,.06.06c0,.16.11.32.29.26a.21.21,0,0,0,.29.19h0c-.05.16,0,.35.21.32h.1a.18.18,0,0,0,.14,0l.14,0a.24.24,0,0,0,.29.21h0a.25.25,0,0,0,.17.1c-.07.16,0,.38.21.36l.15,0a.26.26,0,0,0,.1.24l-.39.14c-.19.08-.14.34,0,.43a.25.25,0,0,0,.29.29,5.67,5.67,0,0,1,.71-.06,5.2,5.2,0,0,0-.55.21h0l-.06,0c-.27.11-.07.53.19.46l.68-.19s0,0,0,.06c-.26.13-.07.51.2.46a.23.23,0,0,0,0,.14l-.09,0h0l-.06,0a.2.2,0,0,0-.11.24,4,4,0,0,0-1.07.19.25.25,0,0,0,.14.48l1.05-.17a3.32,3.32,0,0,1,1.78.47c.27.17.52-.26.25-.43Zm-8-9.48,0,0s0,0,0,0Zm1,1.42.1.2h0A.27.27,0,0,1,58.22,3.19Z"/><path class="cls-8" d="M47.79,7.36a.21.21,0,0,0-.18-.07s0,0,0,0a.77.77,0,0,1-.3-.11.25.25,0,0,0-.34.1l-.19,0a.25.25,0,0,0-.13.46,2.35,2.35,0,0,0,.45.22.25.25,0,0,0,0,.08H47a.25.25,0,0,0-.24.22.27.27,0,0,0-.17.24h-.06a.28.28,0,0,0-.17.3.53.53,0,0,0-.1.06.25.25,0,0,0-.06.22h0a.32.32,0,0,0-.25.23h0l-.15.06h-.17a.25.25,0,0,0-.24.22.26.26,0,0,0,.18.28h.08a.59.59,0,0,0,.37,0l.16-.07.08,0h.1a.26.26,0,0,0,.24-.22.2.2,0,0,0,.13-.12.24.24,0,0,0,.19-.27.2.2,0,0,0,.2-.18h0a.26.26,0,0,0,.3-.14v0a.25.25,0,0,0,.17-.26.26.26,0,0,0,.17-.26.47.47,0,0,0,.19-.06.33.33,0,0,0,.14-.42A1.44,1.44,0,0,0,47.79,7.36Z"/><path class="cls-8" d="M19.28,7.11a5.54,5.54,0,0,0-.8-.21.24.24,0,0,0-.16-.31h-.07A.28.28,0,0,0,18,6.25a5.89,5.89,0,0,0-.84,0A.25.25,0,0,0,17,5.84l-.35,0,.19-.13c.21-.17,0-.46-.24-.42l-.19,0A.25.25,0,0,0,16.18,5c-.12,0-.22,0-.33,0a.35.35,0,0,0,0-.2.36.36,0,0,0-.1-.15h0a.26.26,0,0,0-.22-.38h0a.25.25,0,0,0-.16-.25.25.25,0,0,0-.21-.35h-.21a.28.28,0,0,0-.2-.26.25.25,0,0,0-.15-.36l-.2,0a.26.26,0,0,0-.06-.25c.08-.16,0-.39-.2-.37H14c.12-.15.05-.45-.18-.43l-.29.06a.21.21,0,0,0-.23-.18h0l0,0A.23.23,0,0,0,13,1.7c-.15,0-.31,0-.46,0a1.89,1.89,0,0,0-1,0,.23.23,0,0,0-.18-.09h-1a.26.26,0,0,0-.18-.23,2.25,2.25,0,0,0-1,0,.26.26,0,0,0-.09,0H8.82A1.1,1.1,0,0,0,8,1.3c-.3.05-.19.46.07.49a1.61,1.61,0,0,0,.38,0,.25.25,0,0,0,.27.1.05.05,0,0,0,0,0l.63,0a.19.19,0,0,0,.12,0,.27.27,0,0,0,0,.15s0,0,0,0-.05.45.18.42l.49-.08a.4.4,0,0,0,0,.11.25.25,0,0,0,.36.14,7,7,0,0,1,.83-.37l.33,0,.5.07a.24.24,0,0,0,.24.23.21.21,0,0,0,.26.11.25.25,0,0,0,.34.14l.06,0c0,.13.1.28.24.27h.06a.24.24,0,0,0,.22.42h0c0,.12.1.22.23.2a.25.25,0,0,0,.21.39.26.26,0,0,0,.32.27h0a.22.22,0,0,0,.09.31l0,0c-.24.19.07.5.31.39h0a.27.27,0,0,0,.14.25h0c-.22.15-.09.56.19.46l.1,0-.11.06a.25.25,0,0,0,.16.46.25.25,0,0,0,.27.36l.34-.08a.25.25,0,0,0,.29.33l.33,0a2.61,2.61,0,0,0-.52.32l-.06,0h0l-.06,0c-.22.17.07.55.3.39a6.35,6.35,0,0,1,.81-.44,2.39,2.39,0,0,1,.8-.12.24.24,0,0,0,.22.3,4.32,4.32,0,0,1,1.18.28C19.45,7.71,19.58,7.23,19.28,7.11Z"/><path class="cls-8" d="M11.07,6.89a2.63,2.63,0,0,0-2,.37.24.24,0,0,0,0,.39A.41.41,0,0,0,9,7.72a.24.24,0,0,0-.1.3A4,4,0,0,0,8,8.57a.21.21,0,0,0,0,.06,2.21,2.21,0,0,0-.44.26.85.85,0,0,0-.43.48.26.26,0,0,0,.13.29,1.48,1.48,0,0,0-.37.16.24.24,0,0,0-.08.33.26.26,0,0,0-.12.42l.11.12a.27.27,0,0,0-.13.17.22.22,0,0,0-.15.33.21.21,0,0,0-.15.14.23.23,0,0,0-.38.25.29.29,0,0,0-.25.12l0,0c-.18-.23-.52.06-.4.3s.17.37.26.55a1.74,1.74,0,0,1-.12-.14.25.25,0,0,0-.43.25.27.27,0,0,0-.16.36,3.62,3.62,0,0,0,.22.32l-.18-.15-.09-.09s0,0-.07,0a.39.39,0,0,0-.1-.08c-.22-.15-.44.14-.34.34A3.45,3.45,0,0,0,5.5,14.62c.07.12.16.23.22.36a.25.25,0,0,0,.47-.13h0a.26.26,0,0,0,.15-.22v0a.14.14,0,0,0,0-.06l0,0a.29.29,0,0,0,.27-.16A.26.26,0,0,0,7,14.26a3.11,3.11,0,0,1,.29-.33.26.26,0,0,0,.21-.2c.07-.07.15-.12.22-.18a.21.21,0,0,0,.2-.17A.34.34,0,0,0,8,13.26l.16,0a.25.25,0,0,0,.24-.31.59.59,0,0,1,0-.13.22.22,0,0,0,0-.37,4,4,0,0,0,.4-.42.25.25,0,0,0,0-.26A4.75,4.75,0,0,0,9.09,11a.33.33,0,0,0,.09-.11,6.51,6.51,0,0,0,.31-1.15l.13-.07a.24.24,0,0,0,.1-.15A.37.37,0,0,0,10,9.21c0-.32-.2-.46-.46-.48a2.57,2.57,0,0,0,.67-.25.25.25,0,0,0,0-.44l.13,0a.22.22,0,0,0,.15-.32l.26,0a.22.22,0,0,0,.22-.29h0C11.25,7.44,11.38,7,11.07,6.89ZM8.25,11.21h.08c0,.05,0,.1-.05.15l0,0A.52.52,0,0,0,8.25,11.21ZM8.73,10l0,0-.25,0Zm-1.47.34v0l-.07,0Z"/><path class="cls-8" d="M4.68,16.78h0a8,8,0,0,0-1-1,2.15,2.15,0,0,0-1.23-.65l-.07,0a.79.79,0,0,0-.51-.1.39.39,0,0,0-.11.06,1.13,1.13,0,0,0-.95-.05.26.26,0,0,0-.11.17.31.31,0,0,0-.1.19c0,.32.43.64.66.8a2.86,2.86,0,0,0,1,.44.25.25,0,0,0,.12,0,2.2,2.2,0,0,0,1.36.51l.08,0,.13,0A.16.16,0,0,0,4,17.12a2.39,2.39,0,0,0,.46.12.25.25,0,0,0,.19-.45Z"/><path class="cls-8" d="M64.89,13.37l-.18.05a.68.68,0,0,0-.45,0,.19.19,0,0,0-.13,0l-.12.06a5.21,5.21,0,0,0-1.4.45h0a3.57,3.57,0,0,0-2.15.81.26.26,0,0,0,.18.43,5.63,5.63,0,0,0,.58,0,.41.41,0,0,0,.45.1,8,8,0,0,0,.9-.31h0a5,5,0,0,0,.53-.11,2.18,2.18,0,0,0,1-.28,5.19,5.19,0,0,0,.66-.35c.21-.14.4-.28.4-.55A.25.25,0,0,0,64.89,13.37Z"/></g></g></svg>