<svg xmlns="http://www.w3.org/2000/svg" viewBox="0 0 43.5 58.64"><defs><style>.cls-1{fill:#e9a061;}.cls-2{fill:#b27e4c;}.cls-3{fill:#f4bdd8;}.cls-4{fill:#ed88b6;}.cls-5{fill:#92443f;}.cls-6{fill:#803124;}.cls-7{fill:#255827;}.cls-8{fill:#558455;}.cls-9{fill:#798c67;}.cls-10{fill:#faed62;}.cls-11{fill:#cbc478;}</style></defs><g id="Layer_2" data-name="Layer 2"><g id="Card"><path class="cls-1" d="M17.67,44.25a6.36,6.36,0,0,1-2.37-.81c-.48-.38-.56-4.44-.73-6a14.37,14.37,0,0,0-1.24-3.77L9.48,36.17c.27.57.52,1.14.79,1.7a.42.42,0,0,1,0,.31,10.43,10.43,0,0,1,.67,1.74c.1.52.09,1.09.24,1.87A16,16,0,0,1,11.41,44c0,.53-.44,2.76.11,3.51S13,48,14,47.62s2.35-.27,3.77-.84,1.73-1.45,1.66-1.88S18.26,44.31,17.67,44.25Z"/><path d="M9.87,48.42v0h0Z"/><polygon points="9.88 47.8 9.88 47.79 9.88 47.79 9.88 47.8"/><path d="M9.88,47.77h0Z"/><path class="cls-2" d="M19.18,44.25c-.74-.32-1.55-.19-2.31-.45a2.93,2.93,0,0,1-1.17-.42l0,0a.66.66,0,0,1-.14-.15.31.31,0,0,0-.05-.1A3,3,0,0,1,15.29,42c0-.74,0-1.47-.15-2.21A18.29,18.29,0,0,0,14,34.31a.35.35,0,0,0-.69.11c.17.54.41,1.06.55,1.61a21.67,21.67,0,0,1,.47,3.23c.19,1.05.16,2.12.27,3.18a3.09,3.09,0,0,0,.28,1c.11.43.65.72,1.05.83a9.37,9.37,0,0,0,2.46.4c.28,0,.61,0,.75.24a.52.52,0,0,1,0,.44c-.38.87-1.92,1.21-2.75,1.37a19.13,19.13,0,0,0-2.91.65,3,3,0,0,1-1,.26c-1.57,0-.82-3.1-.83-4s-.31-1.46-.35-2.2c0-.54-.05-1.09-.1-1.63A8.66,8.66,0,0,0,11,38.31c-.1-.37-.28-.78-.35-1s-.22-.66-.58-.55-.2.54-.1.81c0,.12.08.25.11.37a.37.37,0,0,0,0,.18c.06.17.14.33.21.5l0,.07a.89.89,0,0,0,.08.17c0,.07.05.15.08.22a3.81,3.81,0,0,1,.05,1,10.29,10.29,0,0,0,.26,2.28,4.76,4.76,0,0,1,.24,1.12,5,5,0,0,1-.07.85,7.21,7.21,0,0,0,0,2.7c.16.62.7,1.35,1.43,1.32a6.24,6.24,0,0,0,1.26-.3,22.44,22.44,0,0,1,3.19-.75A6.86,6.86,0,0,0,19.36,46,1,1,0,0,0,19.18,44.25Z"/><polygon class="cls-2" points="17.33 46.51 17.34 46.51 17.33 46.51 17.33 46.51"/><path d="M17.91,44.67Z"/><path class="cls-1" d="M5.08,48.68c-.6-.3-.07-.65.19-1.63s1.27-3.66,1.8-5a20,20,0,0,0,.7-4.34l.11,0c-.06-.49-.11-1-.17-1.46L3.2,37.42A24.11,24.11,0,0,0,2.93,40c0,1-1.12,2.22-1.49,3.41A36.64,36.64,0,0,0,1,49.05c0,.49-.93,1.6-.54,2.28s5.32,1,6.22.71,1.61-.92,1.57-1.42S5.68,49,5.08,48.68Z"/><path class="cls-2" d="M5.87,48.82c-.2-.1-.7-.26-.72-.52a2.61,2.61,0,0,1,.24-1c.49-1.5,1.13-2.94,1.64-4.42a20.48,20.48,0,0,0,.66-2.32c.16-.8.21-1.6.4-2.39a1.51,1.51,0,0,0,.06-.37.37.37,0,0,0-.28-.37c-.24,0-.39.26-.45.5-.19.76-.26,1.56-.39,2.33-.43,2.48-1.59,4.77-2.41,7.15-.21.61-.33,1.39.38,1.7A12,12,0,0,0,6.68,50c.37.13,1.06.29,1.18.74.15.65-.92.9-1.34,1a18.56,18.56,0,0,1-3.8,0,5.66,5.66,0,0,1-1.82-.4c-.6-.21.34-1.67.34-2.19,0-.29.07-.58.07-.87s0-.69,0-1a11.9,11.9,0,0,1,.2-2.07,12.55,12.55,0,0,1,.71-2.48,23.33,23.33,0,0,0,1-2.35c.26-.85.12-1.78.36-2.61A.36.36,0,0,0,3,37.47c-.24.26-.19.66-.24,1a7.88,7.88,0,0,1-.47,2.45,17.29,17.29,0,0,0-1,2.28,12.94,12.94,0,0,0-.58,2.68c-.11.91,0,1.83-.09,2.74a12.42,12.42,0,0,1-.55,2,1.27,1.27,0,0,0,.11.94c.39.58,1.5.72,2.13.79.86.1,1.73.06,2.6.08A6.6,6.6,0,0,0,7.48,52a1.93,1.93,0,0,0,.86-.59,1,1,0,0,0,.08-1.17C7.82,49.4,6.69,49.38,5.87,48.82Z"/><path class="cls-3" d="M13.77,29.61s.62,2.24.81,3.14a5.31,5.31,0,0,1-.3,2.27s-1,1.58-2.17,1.75a10.05,10.05,0,0,1-2.34,0l-.66,1.09S5.68,38.74,4,38s-2-1.28-2-1.73.51-5.34.51-5.34a12.23,12.23,0,0,0,5.69.59A27.36,27.36,0,0,0,13.77,29.61Z"/><path class="cls-4" d="M14.77,33.37c.24-.26.12-.74-.72-.18,0,0,.55-.22.53-.25s0-.18,0-.19c.19-.09,0-.17-.13-.32.12-.13-.22-.22-.34-.33a.32.32,0,0,0-.08-.39.3.3,0,0,0-.11-.44.35.35,0,0,0-.1-.19.4.4,0,0,0,0-.19h0a.32.32,0,0,0,.12-.39c0-.21-.13-.44-.37-.35l-1.46.5c-.31.1-.28.64.08.61h.1l.22,0a.27.27,0,0,0,.09.23.3.3,0,0,0,.19.36.29.29,0,0,0,.05.2.35.35,0,0,1-.05.08.27.27,0,0,0,.09.39h0a.3.3,0,0,0,0,.34.28.28,0,0,0,0,.32,1.3,1.3,0,0,0-.22.19.31.31,0,0,0,0,.44.38.38,0,0,0-.05.3,4.82,4.82,0,0,0-.43.36.31.31,0,0,0,.17.52.39.39,0,0,0,.1.19l-.61.35a.26.26,0,0,0-.13.23,5,5,0,0,0-.48.32h0l-.07,0c-.29.23,0,.48.38.49,1.58,0,3.89-.75,3.64-2.15C15.19,34.14,14.55,33.6,14.77,33.37Z"/><path class="cls-4" d="M9.44,33.64a6.64,6.64,0,0,0-1.08.3.32.32,0,0,0-.19.4,3.43,3.43,0,0,0-.56,0,.32.32,0,0,0-.58.15l0,.22a.31.31,0,0,0,.39.3l.14,0,0,.06a.28.28,0,0,0-.05.26c-.19.17-.12.57.18.53l.09,0h0a.28.28,0,0,0,0,.13l-.36.11a.27.27,0,0,0-.2.37l-.11,0a.32.32,0,0,0-.21.37L6.67,37a.29.29,0,0,0-.21.34H6.38c-.22,0-.25.28-.16.45L6,37.81a.4.4,0,0,0-.19.17L5.71,38c-.31.1-.29.65.08.61l.08,0h0a4.25,4.25,0,0,0,1.56-.53.25.25,0,0,0,.23.1,1.15,1.15,0,0,0,.48-.1.37.37,0,0,0,.23-.27,2.74,2.74,0,0,1,.38-.15h0l.08,0A.28.28,0,0,0,9,37.29a5.09,5.09,0,0,1,.14-.57.24.24,0,0,0,.1-.23h0l.08,0A.29.29,0,0,0,9.49,36a.34.34,0,0,0,.08-.47.3.3,0,0,0,0-.29h0a.3.3,0,0,0-.06-.54.28.28,0,0,0,0-.28l.08,0a.41.41,0,0,0-.2-.76Z"/><path class="cls-4" d="M13.66,30.48c.37,1,.72,1.92,1,2.91.11.38.27.77.35,1.15s-.2.63-.49.84a5.9,5.9,0,0,1-4.7,1.17.26.26,0,0,0-.13.5,6.42,6.42,0,0,0,5.21-1.31,1.52,1.52,0,0,0,.64-.86,2.61,2.61,0,0,0-.25-1.16c-.34-1.14-.71-2.27-1.14-3.38-.12-.31-.62-.18-.5.14Z"/><path class="cls-1" d="M10.31,16.19s-1,1.19.14,2a11.22,11.22,0,0,0,3.7,1.2l1.06-.35.28-.88s2.81,1,3.84.61a12.32,12.32,0,0,0,2.53-1.69,11.61,11.61,0,0,0,2.4-2.69c.77-1.38.2-1.25.63-2.44a5,5,0,0,0-.08-2.51A1.48,1.48,0,0,1,25.53,8S23.91,2.72,21,1.71s-5.45-2.84-8.89,0S7.93,8,8.7,9.13a8.91,8.91,0,0,1,1.07,2.28l.87,1.3L10.75,14Z"/><path class="cls-5" d="M16,7.91a30.9,30.9,0,0,1,4.94,0A26.63,26.63,0,0,1,25,8.61a1.45,1.45,0,0,0,.34-1.23C25.24,6.58,22.85,1,17.92.5S9.7,2.07,7.91,4.68A10.36,10.36,0,0,0,5.79,10.1c0,.92-.13,2.67-.13,2.67A8,8,0,0,0,8.46,14c1.09.07,2.29,0,2.29,0s.41-.85-.11-1.31a2.51,2.51,0,0,1-.88-1.85,1.54,1.54,0,0,1,1.13-1.43,2.07,2.07,0,0,1,2,.87,12.54,12.54,0,0,1,.83,1.86,4,4,0,0,0,.9-1.56A16.75,16.75,0,0,1,16,7.91Z"/><polygon points="22.66 12.68 22.66 12.68 22.66 12.68 22.66 12.68"/><polygon points="22.66 12.68 22.66 12.68 22.66 12.68 22.66 12.68"/><polygon points="24.41 10.96 24.41 10.96 24.41 10.96 24.41 10.96"/><polygon points="24.41 10.95 24.41 10.95 24.41 10.95 24.41 10.95"/><path d="M24.41,11Z"/><polygon points="24.34 10.54 24.34 10.54 24.34 10.54 24.34 10.54"/><path d="M24.34,10.54h0Z"/><polygon points="24.34 10.53 24.34 10.54 24.34 10.54 24.34 10.53"/><polygon points="17.8 10.34 17.8 10.34 17.8 10.34 17.8 10.34"/><path d="M17.78,10.17h0Z"/><polygon points="17.78 10.17 17.78 10.17 17.78 10.18 17.78 10.17"/><polygon points="22.98 10.56 22.98 10.57 22.98 10.57 22.98 10.56"/><polygon points="22.99 10.56 22.99 10.56 22.98 10.56 22.99 10.56"/><polygon points="22.99 10.56 22.99 10.56 22.99 10.56 22.99 10.56 22.99 10.56"/><path d="M24.3,10.41Z"/><polygon points="22.53 12.62 22.53 12.62 22.53 12.62 22.53 12.62"/><path d="M19.78,14.6Z"/><path d="M19.79,14.6h0Z"/><polygon points="19.55 14.51 19.55 14.52 19.55 14.51 19.55 14.51"/><polygon points="20.44 14.64 20.44 14.64 20.44 14.64 20.44 14.64"/><path d="M20.16,15.06h0Z"/><polygon points="20.36 15.07 20.36 15.07 20.36 15.07 20.36 15.07"/><polygon points="19.28 18.21 19.28 18.21 19.28 18.21 19.28 18.21"/><path d="M19.58,18.15h0Z"/><polygon points="7.29 52.65 7.3 52.65 7.3 52.65 7.29 52.65"/><path d="M6.71,52.15Z"/><path d="M6.71,52.15Z"/><path d="M8.54,52h0Z"/><path d="M24.6,11.49h0Z"/><path d="M17.49,22.13Z"/><polygon points="7.35 52.64 7.35 52.64 7.35 52.64 7.35 52.64"/><path d="M8.59,52h0v0Z"/><path class="cls-4" d="M9.65,37.62a4.87,4.87,0,0,0,.23-.83h0c0-.1,0-.2,0-.3v0c0-.13.07-.25.1-.38H10c.08-.72.1-1.46.24-2.16a.78.78,0,0,0,0-.34.34.34,0,0,0-.63-.05c-.27,1.2-.2,2.47-.51,3.67v0s0,.05,0,.07,0,0,0,.06H9a.64.64,0,0,1,0,.07l0,.07,0,0-.05,0h0a8.53,8.53,0,0,1-4,.26c-.8-.21-1.92-.29-2.43-1a21.22,21.22,0,0,1,.35-5c0-.38.29-1.15-.3-1.18a.35.35,0,0,0-.33.4c-.09,2-.81,4.11-.32,6.11.76,1.19,3.1,1.42,4.4,1.48h.25A8,8,0,0,0,9,38.27c.3-.09.84-.22.66-.65Z"/><path class="cls-2" d="M10.86,14.63a.36.36,0,0,0-.19-.21.34.34,0,0,0-.26,0,.36.36,0,0,0-.2.18,2.21,2.21,0,0,0-.13.63c0,.19,0,.38-.06.56a.36.36,0,0,0,.06.27.35.35,0,0,0,.64-.11c0-.32,0-.66.12-1l0,0A.36.36,0,0,0,10.86,14.63Z"/><path class="cls-6" d="M25.18,10.8a5.21,5.21,0,0,1,.16-1.39,3.93,3.93,0,0,0-.07-.6c.72-.31.3-1.85.13-2.38a9.87,9.87,0,0,0-2-3.22A8.1,8.1,0,0,0,20.1.75,12.92,12.92,0,0,0,15.92,0C10.52-.13,6.31,4.61,5.45,9.67a11.69,11.69,0,0,0-.17,2.21c0,.52,0,1,.47,1.32A9.92,9.92,0,0,0,8,14c.78.24,1.58.44,2.38.61l0,0h.13c.45.06.62-.57.7-.94a1.58,1.58,0,0,0-.4-1.36,1.52,1.52,0,0,1-.62-1.72,1.69,1.69,0,0,1,2.2-.24c.28.32.53.66.82,1a7.9,7.9,0,0,1,.19,1.2.32.32,0,0,0,.61.09L15.53,9.4c.13-.3.26-.59.4-.89s.18-.35.49-.38a15,15,0,0,1,1.77,0,29.5,29.5,0,0,1,6.28.72c.1.17,0,.4,0,.58s-.05.31-.07.46a1.71,1.71,0,0,0-1.54,0c-.32.23-.1.83.3.65a1.93,1.93,0,0,1,.78-.21c.52,0,.57.92.69,1.3,0,.12.06.27,0,.36a.33.33,0,0,1-.18.08,3.46,3.46,0,0,1-1.6,0h-.08a.1.1,0,0,0,0,.05.34.34,0,0,0,.13.41.88.88,0,0,0,.43.14,3.84,3.84,0,0,0,.83,0c.33,0,.29.14.24.44a3.6,3.6,0,0,1-.51,1.33,3.9,3.9,0,0,1-2.48,2,3.29,3.29,0,0,1-2.69-.77,1.88,1.88,0,0,0-.45-.35.45.45,0,0,0-.53.08,3.51,3.51,0,0,0,3.53,1.78c-.13,0-.4.34-.53.43a4.1,4.1,0,0,1-.62.34,4.2,4.2,0,0,1-1.39.36,5.32,5.32,0,0,1-3.13-.93,3.84,3.84,0,0,1-1.46-1.45,2.06,2.06,0,0,0-.35-.55.46.46,0,0,0-.59,0c-.17.16-.1.44,0,.66a6.09,6.09,0,0,0,3.68,2.94,5.23,5.23,0,0,0,5.47-1.64C24.72,15.06,25.45,14.21,25.18,10.8Zm-.34-2.57a30.85,30.85,0,0,0-7.23-.77A6.43,6.43,0,0,0,16,7.54c-.5.15-.65.64-.85,1.08L13.93,11.4a8.68,8.68,0,0,0-.27-1,.26.26,0,0,0-.24-.18,2.31,2.31,0,0,0-1.43-1,2.6,2.6,0,0,0-2.4.81,3.89,3.89,0,0,0-.2,1.68h0a2.24,2.24,0,0,0,.14.39c.43.68,1.16.93.73,1.8-.73-.16-1.45-.34-2.16-.57a6.41,6.41,0,0,1-1.94-.69c-.56-.46-.27-1.77-.19-2.41a11.31,11.31,0,0,1,.43-2,11.45,11.45,0,0,1,5-6.5,9.91,9.91,0,0,1,8.68-.34,8.68,8.68,0,0,1,3.42,3,8.1,8.1,0,0,1,1.11,1.79A4.09,4.09,0,0,1,25,7.28c0,.1.07.65.07.85,0,0,0,0,0-.05a1.36,1.36,0,0,1-.12.12S24.85,8.22,24.84,8.23Z"/><path class="cls-6" d="M19,11.81a3.16,3.16,0,0,1-.68-.14c-.2-.07-.36-.26-.49,0-.49,1.07,2.91.88,2.54,0a.16.16,0,0,0,0-.07,2,2,0,0,1-1.14.26Z"/><path class="cls-6" d="M19,10.6a2.67,2.67,0,0,1,.68.15c.2.06.37.25.49,0,.5-1.08-2.9-.89-2.54,0l0,.08a2,2,0,0,1,1.14-.27Z"/><path class="cls-6" d="M21.24,14.57a2,2,0,0,0,1,0,.25.25,0,0,0,.09,0c.44-.36-.36-.34-.52-.33a3.52,3.52,0,0,1-1-.25h0a.25.25,0,0,0-.24.07C20.22,14.31,21.08,14.53,21.24,14.57Z"/><path class="cls-7" d="M32.08,39.41s7.2-5.21,8.75-6.4a19.36,19.36,0,0,1,1.86-1.3l.38,17.4S38,53.22,36.32,54s-6.85,4.12-6.85,4.12Z"/><path class="cls-8" d="M28.7,58.28S26.76,57,23.34,54.86a63.45,63.45,0,0,1-7.06-5.47,72.19,72.19,0,0,1-.17-7.73c.2-2.22.79-8.66.79-8.66s1.66-.92,4.28.57,8.58,3.53,9.3,4.61a4,4,0,0,0,1.46,1.44s-.45,7-.91,8.11-1.48,9.83-1.48,9.83Z"/><path class="cls-9" d="M17.59,32.18s3.49,1.52,5.55,2.36c8.38,3.46,8.46,5.13,8.46,5.13s6.63-4.77,8.21-5.88a25.94,25.94,0,0,0,2.85-2.35s-4.26-2.51-6.38-3.7-6.38-3.21-6.38-3.21-4.48,2.67-6.5,3.9S17.59,32.18,17.59,32.18Z"/><path class="cls-7" d="M17,34.72a8.8,8.8,0,0,1,1.94.63c.69.27,1.38.53,2,.86,1.24.64,2.36,1.47,3.6,2.1A33.86,33.86,0,0,1,28,40c.53.35,1,.73,1.58,1.06a5.25,5.25,0,0,0,.7.39c.22.09.77.15.91.31l.31-.4-.06-.05c-.27-.19-.53.26-.26.45l.06,0a.26.26,0,0,0,.32-.41,1.18,1.18,0,0,0-.54-.23,4.72,4.72,0,0,1-1-.45c-.55-.32-1.06-.7-1.58-1.05a34.56,34.56,0,0,0-3.77-1.84c-1.26-.66-2.42-1.52-3.7-2.15-.57-.28-1.16-.5-1.76-.73a10.54,10.54,0,0,0-2.14-.71c-.32,0-.46.45-.14.5Z"/><path class="cls-7" d="M16.85,36.55c2.5,1.35,5,2.67,7.46,4.13,1.17.69,2.33,1.41,3.5,2.09.59.34,1.18.67,1.8.95a16.79,16.79,0,0,1,1.59.6c.29.16.55-.29.26-.45a13.82,13.82,0,0,0-1.4-.52,16.7,16.7,0,0,1-1.88-1c-1.21-.7-2.4-1.43-3.61-2.15-2.44-1.45-4.95-2.78-7.46-4.13-.29-.15-.55.29-.26.45Z"/><path class="cls-7" d="M16.57,38.27c2.82.74,5.08,2.47,7.34,4.22a24.27,24.27,0,0,0,3.37,2.23c.68.36,1.37.7,2.06,1A10.2,10.2,0,0,0,31,46.5a.26.26,0,0,0,.26-.43L31.17,46c-.21-.26-.57.11-.36.36l.07.09.25-.43a13,13,0,0,1-1.86-.85q-1-.49-2-1a27.52,27.52,0,0,1-3.69-2.55,19.19,19.19,0,0,0-6.83-3.78.26.26,0,0,0-.14.5Z"/><path class="cls-7" d="M16.07,40.33a15.56,15.56,0,0,1,4,2.21c1.23.87,2.48,1.7,3.74,2.52s2.63,1.7,4,2.45c.79.43,1.85,1.2,2.79.84.31-.12.18-.62-.14-.5-.58.22-1.23-.16-1.73-.43s-1.07-.59-1.6-.89c-1.31-.77-2.58-1.6-3.85-2.44s-2.33-1.58-3.49-2.38a13.93,13.93,0,0,0-3.53-1.88c-.32-.1-.46.4-.14.5Z"/><path class="cls-7" d="M15.94,42.78c2.6.92,4.88,2.72,7.16,4.22a21.15,21.15,0,0,0,3.41,1.92c.53.23,1.07.44,1.61.64l.84.31a4.09,4.09,0,0,1,1.07.39l.36-.36-.07,0a.26.26,0,0,0-.26.45l.07,0c.2.14.5-.15.35-.35s-.81-.42-1.16-.55c-.67-.25-1.34-.48-2-.75a21.76,21.76,0,0,1-3.86-2.08c-2.36-1.55-4.7-3.39-7.38-4.34-.32-.11-.45.39-.14.5Z"/><path class="cls-7" d="M16,45a23.5,23.5,0,0,1,3.32,2.48,26.47,26.47,0,0,0,3.25,2.3,30.55,30.55,0,0,0,3.53,1.76c.63.26,1.25.52,1.85.84s1.21.78,1.87,1.08A.26.26,0,0,0,30,53l-.1-.06c-.29-.18-.55.27-.26.45l.1.06L30,53c-.63-.29-1.17-.7-1.77-1s-1.17-.56-1.77-.82a29.7,29.7,0,0,1-3.71-1.83,26.26,26.26,0,0,1-3.4-2.43,22,22,0,0,0-3.16-2.35A.26.26,0,0,0,16,45Z"/><path class="cls-7" d="M16,47.78c1.12.78,2.29,1.51,3.38,2.35s1.94,1.62,3,2.38,2,1.47,3,2.14A32.37,32.37,0,0,0,29,56.47a.27.27,0,0,0,.26,0,.45.45,0,0,0,.21-.28c.08-.33-.42-.47-.5-.14l0,0h.26a35.09,35.09,0,0,1-3.53-1.75c-1.07-.68-2.1-1.45-3.12-2.21s-1.94-1.59-2.93-2.36-2.28-1.58-3.41-2.37c-.28-.19-.54.26-.26.45Z"/><path class="cls-8" d="M31,38.54c2-1.38,4.06-2.54,6-3.91C38.61,33.52,40,32.11,41.55,31c.27-.19,0-.64-.26-.45-1.59,1.11-2.94,2.51-4.54,3.63-2,1.37-4.06,2.53-6,3.9-.27.19,0,.64.26.45Z"/><path class="cls-8" d="M29.65,37.78c2.92-3.14,6.61-5.36,10-8,.27-.2-.1-.57-.36-.36-3.35,2.62-7,4.84-10,8-.23.24.14.61.36.37Z"/><path class="cls-8" d="M27.84,36.6c1.72-1.43,3.52-2.75,5.3-4.11.8-.61,1.59-1.23,2.37-1.87a12.16,12.16,0,0,1,1.35-1A8.87,8.87,0,0,0,38,29a.27.27,0,0,0-.18-.45l-.31.05c-.33.07-.19.57.14.5l.17,0-.19-.44c-.36.29-.83.42-1.21.68s-.78.57-1.15.87c-.87.71-1.76,1.41-2.65,2.09-1.71,1.3-3.44,2.58-5.1,3.95-.25.21.11.58.37.37Z"/><path class="cls-8" d="M26.28,35.67c3.18-2.59,5.87-5.76,9.38-7.94a.27.27,0,0,0-.06-.48.56.56,0,0,0-.42,0c-.32.1-.18.6.14.5h.14l-.06-.47c-3.55,2.2-6.27,5.41-9.49,8-.26.21.11.58.37.37Z"/><path class="cls-8" d="M24.25,34.74a58.73,58.73,0,0,1,9.26-7.92.27.27,0,0,0-.13-.49h-.15c-.34,0-.34.5,0,.52h.15l-.13-.48a59,59,0,0,0-9.36,8c-.24.24.13.61.36.37Z"/><path class="cls-8" d="M21.67,33.77c1.82-1.3,3.45-2.82,5.23-4.16.84-.64,1.66-1.3,2.49-1.94q.72-.57,1.47-1.08A10.79,10.79,0,0,0,32,25.77a.26.26,0,0,0-.18-.44l-.15,0c-.33,0-.33.48,0,.52l.15,0-.19-.45a9.81,9.81,0,0,1-1.31.9c-.4.29-.8.58-1.19.88-.9.7-1.78,1.41-2.69,2.09-1.72,1.31-3.31,2.79-5.07,4.05-.27.19,0,.64.26.45Z"/><path class="cls-8" d="M19.58,32.8c1.8-1.43,3.73-2.7,5.66-4S29,26.36,31,25.21a.26.26,0,0,0-.13-.48h-.16c-.33,0-.33.5,0,.52h.16l-.14-.48c-2,1.18-3.95,2.47-5.9,3.74S21,31,19.22,32.43c-.26.21.11.58.36.37Z"/><path class="cls-7" d="M43.5,46l-.24-12.1a4.4,4.4,0,0,0-.62-2.68,4.54,4.54,0,0,0-1.52-1.14l-9.53-5.18A3.36,3.36,0,0,0,30,24.37a3.31,3.31,0,0,0-1.55.65L18.53,31.3a6,6,0,0,0-1.7,1.42,2.5,2.5,0,0,0-.21.35,4.9,4.9,0,0,0-.4,2c0,.76-.09,1.54-.14,2.3l-.14,2.33-.27,4.65-.07,1.16c0,.16,0,.31,0,.47a3.21,3.21,0,0,1-.07.43,4,4,0,0,0,.19,1.89,5.64,5.64,0,0,0,.83,1.57,13.39,13.39,0,0,0,3.13,2.72l7.8,5.48a3,3,0,0,0,1,.55c.34.07.89.07,1-.19h0c1.9-1.11,9.37-6,11.22-7.19A6.1,6.1,0,0,0,43,49.13,6.34,6.34,0,0,0,43.5,46ZM20.13,31c1.24-.75,2.48-1.47,3.71-2.22,1.68-1.07,3.24-2.29,4.86-3.43.32-.23.61-.43,1-.64a2.29,2.29,0,0,0,.24-.15c.54.29,1.07.63,1.61.92,1.21.64,2.34,1.43,3.54,2.08,1,.52,2,1,3,1.58.79.41,1.59.78,2.37,1.19a7.45,7.45,0,0,1,2.07,1.19,1,1,0,0,0-.22.23.33.33,0,0,0-.2.11c-.35.28-.72.55-1.09.81-1.65,1.09-3.18,2.36-4.83,3.47h0c-1.44,1-3,1.86-4.42,2.9l-.23-.22A16,16,0,0,0,28,36.49a48.33,48.33,0,0,0-4.65-2.23A48.9,48.9,0,0,0,18,32.16,24.1,24.1,0,0,0,20.13,31Zm8.71,27a95.47,95.47,0,0,1-9.79-6.56,7.6,7.6,0,0,1-2.54-2.78,7.72,7.72,0,0,1-.36-3.45c.21-4.25.7-8.14,1.15-12.36a61.46,61.46,0,0,1,11.9,4.9,4.44,4.44,0,0,1,2.11,1.94,4.66,4.66,0,0,1,.08,2.46Q30.21,49.85,29,57.53C28.93,57.75,28.9,58,28.84,58Zm13.8-9.29a5.39,5.39,0,0,1-2.22,2.06c-1.78,1.11-8.42,5.46-10.84,7v-.15q1.58-9,2.61-18.16l10.43-7.34q.16,7.08.34,14.14A5.46,5.46,0,0,1,42.64,48.71Z"/><path class="cls-1" d="M19.1,21s3.7-.1,5.7.89a16.39,16.39,0,0,0,4.07,1.25c.74.24,1.48,1,1.26,1.76l-.22.82a6,6,0,0,1,.89,2.09c.11.9.3,1-.55,1.37a3.12,3.12,0,0,1-1.14.33,1.28,1.28,0,0,1-1.58.24c-1.05-.47-1.3-1.15-2.67-1.3s-3.37.14-4.79-.25A49.31,49.31,0,0,1,15,26.06l2.27-3.66L18.57,21Z"/><path class="cls-2" d="M30.91,28.72a.32.32,0,0,0,.13-.27,3.09,3.09,0,0,0-.59-2.27.35.35,0,0,0,.1-.21c.31-.88-.38-1.93-.94-2.58A6.94,6.94,0,0,0,26.24,22c-2.36-.74-4.77-.74-7.09-1.56-.31-.57-1.14,0-.58.48a18,18,0,0,0,5.19,1.18c1,.21,2,.53,3,.74a3.87,3.87,0,0,1,2.71,1.5,2.13,2.13,0,0,1,.41,1.35c-.18-.12-.36-.24-.54-.34a.27.27,0,0,0,0-.09c0-.46-.32-.8-.62-1.1s-1.64-1.23-1.84-.52a.35.35,0,0,0,.25.42.74.74,0,0,1,.21.07,2.89,2.89,0,0,1,1.2.87,5.89,5.89,0,0,0-1.17-.29c-1.62-.34-3.29-.06-4.89-.56-.67,0-4.78-2.29-4.78-2.29v.43l-.14,0c.07.12-.12.3,0,.3a8.85,8.85,0,0,1,1.71.72,12.59,12.59,0,0,0,3.85,1.73c2.06.34,4.37-.06,6.23,1.13a2.1,2.1,0,0,1,1,2.11,7.26,7.26,0,0,0-1.62-1.56c-.46-.37-.95.3-.42.56h0a6.61,6.61,0,0,1,1.62,1.59l-.38.11c-.18-.19-.49-.24-.7-.41s-.51-.42-.8-.64a.35.35,0,0,0-.41.56l.49.41h0c.1.07.26.2.44.32-1.13.2-2.14-.56-3.18-.88-1.88-.71-3.95-.36-5.85-1A32.38,32.38,0,0,1,16.4,26a6.07,6.07,0,0,0-1.29-.56.34.34,0,0,0-.29.4.34.34,0,0,0,.28.28l-.09,0c2,.93,3.91,2.08,6.11,2.35.85.14,1.77.09,2.67.24,1.35.16,2.56,1,3.87,1.28.37.05,1.49.15,1.45-.41a.63.63,0,0,0,.3,0c.15.17.46.12.67,0C30.46,29.46,30.91,29.17,30.91,28.72Z"/><path class="cls-10" d="M9.75,17a51.14,51.14,0,0,0-4.27,5A52.24,52.24,0,0,0,2,29.51,6.44,6.44,0,0,0,4.6,31.89a26.2,26.2,0,0,0,6.15,1.36,9.05,9.05,0,0,0,3.49-.49,23.68,23.68,0,0,0,.28-3.11,9.17,9.17,0,0,1,1-3.67,4.09,4.09,0,0,0,2-2.25c.41-1.48.05-1.61.05-1.61s1-.08,1.12-.75.34-1-.31-1.37a10.5,10.5,0,0,0-2.73-.56c-.86-.14-.76-.28-.76-.28a3.9,3.9,0,0,1-3-.08A4.75,4.75,0,0,1,9.75,17Z"/><path class="cls-11" d="M14,31.84a1.55,1.55,0,0,0,.05-.87l0-.18a.31.31,0,0,0-.15-.35c0-.09,0-.19-.05-.25a.37.37,0,0,0,.05-.32.31.31,0,0,0,.14-.47l.21,0c.35,0,.31-.64-.05-.61h0a.35.35,0,0,0,0-.41h.08a.33.33,0,0,0,.18-.51l.14,0a.28.28,0,0,0,.17-.48.32.32,0,0,0,0-.47l0,0a.33.33,0,0,0,.2-.5.3.3,0,0,0-.15-.55,5,5,0,0,0-1.34.09.25.25,0,0,0-.14.08h0a.31.31,0,0,0-.08.61.29.29,0,0,0,0,.48,2.76,2.76,0,0,0-.27.08.29.29,0,0,0-.12.42.84.84,0,0,0-.29.27.34.34,0,0,0,0,.35c-.13.05-.26.08-.4.14s-.18.47,0,.55a.31.31,0,0,0-.11.44h0a.31.31,0,0,0,.12.59.08.08,0,0,0,0,0,.75.75,0,0,0-.56.59.28.28,0,0,0,.16.27.67.67,0,0,0-.12.06.31.31,0,0,0-.15.35l-.09,0a.3.3,0,0,0,0,.58.3.3,0,0,0,.25.4h.06a.25.25,0,0,0,.16.2.28.28,0,0,0,0,.09h0c-.34.14-.13.62.2.58a6,6,0,0,0,1.4-.36c.23-.08.2-.31.08-.46a.26.26,0,0,0,.07-.11A.84.84,0,0,0,14,31.84Z"/><path class="cls-11" d="M18.4,20.91a.31.31,0,0,0-.06-.44.43.43,0,0,0-.59-.25.26.26,0,0,0-.22-.1h-.14l-.1-.05L17,20a.27.27,0,0,0-.1-.08,13.41,13.41,0,0,0-1.4-.3h-.11c-.15,0-.23.07-.28.18H15c-.33,0-.31.49,0,.6l.55.2a.24.24,0,0,0,.25,0c.37.06.74.11,1.11.14h0a1.69,1.69,0,0,0,.8.29.42.42,0,0,0,.41.24A.3.3,0,0,0,18.4,20.91Z"/><path class="cls-11" d="M15.77,26.1a2.07,2.07,0,0,0,.71-.21c1.22-.75,2.51-4.2.9-5.05-.84-.27-1.7-.45-2.55-.65a.72.72,0,0,0,.13-.47h0l.34.1c.82.2,1.67.22,2.5.37.47.06.54.32.47.75-.12.21-.5.89-.24,1,.45.24.95-.81.95-1.16a1.1,1.1,0,0,0-.61-1.18,25.26,25.26,0,0,0-2.74-.46,1.93,1.93,0,0,1-.42-.12.34.34,0,0,0,0-.41c-.3-.27-.51-.12-.66.16a2.27,2.27,0,0,0-.5.12,3.58,3.58,0,0,1-1.49-.15,4.73,4.73,0,0,1-2-1c-.17-.19-.5-.37-.44-.66a.74.74,0,0,1,.14-.28.32.32,0,0,0,.11-.17.77.77,0,0,0,.22-.56.34.34,0,0,0-.34-.3c-.27,0-.41.27-.52.47l0,.07a13.67,13.67,0,0,0-3,3.07,29.24,29.24,0,0,0-4.4,7.94,12.92,12.92,0,0,0-.64,2.09.35.35,0,0,0-.13.18c-.11.51.52.75.81,1.05a12.25,12.25,0,0,0,3,1.88,13.68,13.68,0,0,0,5.25,1A8.43,8.43,0,0,0,14.2,33a.34.34,0,0,0,.2-.43c0-.11,0-.23.07-.32,0-.52.07-1,.15-1.52a28.57,28.57,0,0,1,1.09-4.47l0-.11Zm-4.07-.18c.26.5.81-.05,1.21-.06a6.74,6.74,0,0,1,2.13.21l0,0c-.15.49-.28,1-.43,1.49a18.64,18.64,0,0,0-.67,3c-.09.6-.07,1.19-.21,1.79l-.06,0a8.27,8.27,0,0,1-3.09.39,11.14,11.14,0,0,1-2.08-.14,12.84,12.84,0,0,1-3.56-1.08,18,18,0,0,1-2.59-1.86,10.7,10.7,0,0,1,.43-1.54,28.7,28.7,0,0,1,5-8.92,18.3,18.3,0,0,1,1.73-1.9s0,.07,0,.1A3.56,3.56,0,0,0,11.14,19a5.54,5.54,0,0,0,3.13.59l0,.06a.33.33,0,0,0,0,.17,1,1,0,0,0-.11.21c-.41-.11-.82-.22-1.22-.36a.38.38,0,0,0-.5.06c-.21.29.06.58.36.63,1.41.47,2.9.69,4.32,1.12.81.77,0,2.55-.51,3.34s-1.69.55-2.51.37a3.22,3.22,0,0,0-1.51,0C12.24,25.34,11.55,25.43,11.7,25.92Z"/></g></g></svg>