<svg xmlns="http://www.w3.org/2000/svg" viewBox="0 0 38.11 27.5"><defs><style>.cls-1{fill:#e9a061;}.cls-2{fill:#b1dde3;}.cls-3{fill:#6fadb2;}.cls-4{fill:#b27e4c;}</style></defs><g id="Layer_2" data-name="Layer 2"><g id="Card"><path class="cls-1" d="M32.61.08S29.13,5.29,27.92,6s-3.61.82-4.44,1.15a29.7,29.7,0,0,0-3.27,1,3.57,3.57,0,0,0-1.27,1.12l-1.89.94A6,6,0,0,0,14,10a49,49,0,0,1-5.56,1.21c-1.42.2-2.43-.55-3.41-1A16.92,16.92,0,0,1,2.67,8.89L0,18.91s4.25,1.85,5.81,2.47S9.54,24.61,11,25.24s3.9,2.51,4.36,2a.94.94,0,0,0,.3-.94s2.79,1,3.15.59.31,0,1.08-.19,5.79-1.83,6.81-2.86a18.54,18.54,0,0,1,1.55-1.43A1.28,1.28,0,0,0,29.83,22a22,22,0,0,0,3.09-6.79,33.13,33.13,0,0,1,1.56-5.72,22,22,0,0,1,2.46-3.92c.45-.79,1.1-1.81,1.1-1.81Z"/><path class="cls-2" d="M16.65,9.67A1.68,1.68,0,0,0,18,9.33c.64-.52.88-.7.88-.7S19,9.82,19.76,10s4.39.17,6.61,2c.87.72,1,1.82.59,3.55S25.76,18.43,25.9,19a.92.92,0,0,0,1.11.75s-.69,1.31-.28,1.79.9.39.9.39l.59.46A9.32,9.32,0,0,1,25.37,25a38.64,38.64,0,0,1-6.59,1.86s.63-.39.23-.89a5.72,5.72,0,0,0-1.73-1.28A16.9,16.9,0,0,1,15,22.86s2.5.43,3.57.71,2.4.81,2.73.13-.24-1.37-.85-1.83c-.78-.59-2.79-1.79-2.79-1.79s4,.8,4.44-.39-3.93-2.82-4.68-3.08S13.2,14.87,13.84,14s3.94-1.3,4.05-2.55A1.84,1.84,0,0,0,16.65,9.67Z"/><path class="cls-3" d="M18.94,9.27a3.31,3.31,0,0,0-1.89.94.32.32,0,0,1-.44,0c-.35-.35-.18-.37,0-.56a5.21,5.21,0,0,1,2.25-1A.32.32,0,0,1,18.94,9.27Z"/><path class="cls-3" d="M26.06,24.6A15.24,15.24,0,0,1,20.12,27a8.09,8.09,0,0,1-1,.08.32.32,0,0,1-.36-.21.33.33,0,0,1,.37-.42,8.09,8.09,0,0,0,.86-.07,10.11,10.11,0,0,0,2.82-.79,18.36,18.36,0,0,0,3.62-2c.47-.37.89-.79,1.33-1.2a.32.32,0,0,1,.41.48A13.19,13.19,0,0,1,26.06,24.6Z"/><path class="cls-4" d="M38,3.76c-.08-.15-.23-.18-.4.07-1.08,1.61-2.15,3.31-3.12,5a13.51,13.51,0,0,0-1.58,4.76A25.32,25.32,0,0,1,31.25,19a6.81,6.81,0,0,1-1.15,1.77c-.41.52-1.07,1.72-1.86,1.36a.33.33,0,0,0-.18-.41h0a8.42,8.42,0,0,0,2-2.76,6.65,6.65,0,0,0,.9-2.12c0-.21.23-.52.13-.76a.31.31,0,0,0-.58,0,8.64,8.64,0,0,1-.79,2.18c-.6.87-1.45,3.15-2.71,3.07h0a.54.54,0,0,1-.05-.11,2.51,2.51,0,0,1,.13-1.15v0a.3.3,0,0,0-.06-.39c1.15-.83,1.7-2.24,2.41-3.42.2-.4,1.42-2.88.69-3a.31.31,0,0,0-.37.24,11.79,11.79,0,0,1-1.62,3.75c-.47.72-.88,1.65-1.73,2a4.4,4.4,0,0,1,.43-2.08,9.54,9.54,0,0,0,.67-2.92,3.38,3.38,0,0,0-1.3-2.81,11.36,11.36,0,0,0-2.13-1,14.75,14.75,0,0,0-3.81-.56c-.52-.09-.93-.26-.94-.82a7,7,0,0,1,3.34-1.65c.92-.13,1.86,0,2.77-.13a6.32,6.32,0,0,0,3.37-1.75,13.63,13.63,0,0,0,2-2.41c.08-.1.15-.23.23-.32A16.35,16.35,0,0,0,32.2,1.18c.1-.16.2-.33.31-.48s.33-.43.1-.62-.52.11-.67.34c-.38.6-.74,1.17-1.17,1.74a3.67,3.67,0,0,0-.27.34c-1.11,1.44-2.12,3.09-3.8,3.8a10.59,10.59,0,0,1-3.42.52,7.93,7.93,0,0,0-2.56.62c-.58.23-1.93.68-2.06,1.37-.22,1.23,1,1.76,2,1.81a8.88,8.88,0,0,1,4,.83,2.92,2.92,0,0,1,2.17,3.41c-.17,1.29-.8,2.49-1.06,3.76a1.93,1.93,0,0,0,.07,1,.65.65,0,0,0,.65.31c-.44,1.14-.11,2.42,1.15,2h0c-.18,1,1.09,1.1,1.69.65a5.41,5.41,0,0,0,1.34-1.48,8.34,8.34,0,0,0,1.59-2.89,24.76,24.76,0,0,0,1.48-5.76c.56-3.1,3-5.4,4.34-8.15A.65.65,0,0,0,38,3.76Z"/><path class="cls-4" d="M15.23,9.56a9.8,9.8,0,0,0-1.6.14c-1.24.23-2.43.68-3.67,1a6.32,6.32,0,0,1-3.73-.12C5.8,10.36,3,8.3,2.67,8.89a.31.31,0,0,0,.07.33,8.38,8.38,0,0,0,1.89,1.25,7.61,7.61,0,0,0,2.42.94,8.36,8.36,0,0,0,3.41-.25c1.09-.28,2.26-.42,3.32-.79a4,4,0,0,1,2-.15c.45.07,1.7.35,1.81.9s-.82.75-1.19,1c-.64.31-1.28.63-1.91,1s-1.1.75-1,1.46a1,1,0,0,0,.11.28C14.3,16,16.09,16.52,17.29,17a23.87,23.87,0,0,1,3.85,1.76c.36.33,1.27.83.25,1a6,6,0,0,1-2.56-.22A29.15,29.15,0,0,1,12.88,18c-.19-.08-.45-.13-.55.05s.08.36.25.47a8.3,8.3,0,0,0,2.12.78,16.26,16.26,0,0,1,5.91,3.16,1.47,1.47,0,0,1,.45.51.55.55,0,0,1-.08.64c-.4.37-1.4,0-1.86-.12-.75-.17-1.5-.35-2.24-.57a30.82,30.82,0,0,1-4.32-1.62,1,1,0,0,0-.61-.13c-.21.05-.36.33-.22.48a.43.43,0,0,0,.23.12c1.89.58,3.2,2.29,4.94,3.2.69.35,1.56.66,1.86,1.44-2.2-.15-4.76-.7-6.45-2.2-.79-.67-1.41-1.53-2.26-2.12A.34.34,0,0,0,9.78,22c-.2.06-.13.37,0,.54a9.72,9.72,0,0,0,5.05,3.77c.27.09.6.23.63.52a6.23,6.23,0,0,1-3.57-1.27c-1.06-.74-2-1.64-3-2.44A31.23,31.23,0,0,0,.67,18.74c-.25-.1-.67-.1-.67.17s.15.25.28.32c2.3,1.24,4.88,1.95,7,3.42,1.21.83,2.26,1.88,3.41,2.81a8.62,8.62,0,0,0,3.89,2,1.85,1.85,0,0,0,1-.05.79.79,0,0,0,.51-.82,12.43,12.43,0,0,0,2.18.46c.52.06,1.19-.11,1.07-.8a1.1,1.1,0,0,0-.33-.57,10,10,0,0,0-1.77-1.24,7.64,7.64,0,0,0-1.83-1.21c1.46.38,2.93.71,4.41,1,.57.11,1.27.18,1.64-.28s0-1.45-.43-1.89a9.37,9.37,0,0,0-3.06-2,8.61,8.61,0,0,0,2.85.39c.58,0,1.53-.12,1.62-.84s-1.31-1.59-1.92-1.9c-.93-.48-1.93-.79-2.88-1.21a9.15,9.15,0,0,1-3.42-1.9.58.58,0,0,1-.18-.31c0-.73,2.3-1.56,2.84-1.78s1.62-.86,1.24-1.73S16.43,9.57,15.23,9.56Z"/></g></g></svg>