<svg xmlns="http://www.w3.org/2000/svg" viewBox="0 0 54.13 26.48"><defs><style>.cls-1{fill:#e52823;}.cls-2{fill:#fcd4ac;}.cls-3{fill:#e9a061;}.cls-4{fill:#b27e4c;}.cls-5{fill:#d09971;}.cls-6{fill:#6b1e1e;}</style></defs><g id="Layer_2" data-name="Layer 2"><g id="Card"><path class="cls-1" d="M13.43,5.72c-.18.73-.15.69.26,1.17s.29,1.55.9,1.52,2.53.3,2.5-.75-.71-2.61-1.63-2.6A5.16,5.16,0,0,0,13.43,5.72Z"/><path class="cls-2" d="M3.67,14.22,10,20s0,1-.11,2.52-.17,3.91-.17,3.91l6-.27L22.45,26,28,25.84l-.09-4.08-.24-2.47-5.48-5.07-8.47-.38Z"/><path class="cls-1" d="M37.81,11l-2,2.56s0,1.86,1.43,2.38,3.27-1.22,3.27-1.22,1.53-2.65.12-3.3A5.67,5.67,0,0,0,37.81,11Z"/><path class="cls-3" d="M53.77,8a12.16,12.16,0,0,1-4.26.79C48,8.56,43.13,6.37,41.87,6a7.33,7.33,0,0,0-4.15,0,3.92,3.92,0,0,0-2.56,1.86A4,4,0,0,0,34.55,10s-.49,1.25-.16,1.89l.34.64.4,1.41.64.33a3.86,3.86,0,0,1,1.07-2.9c1.19-1,3.17-1.13,3.84,0s-.12,3.3-.12,3.3L39.4,15.92a3,3,0,0,0,2.26,0,8.62,8.62,0,0,0,2.25-1.68l4.8-.51,4.31.33s1.25-2.93,1.1-4.18A11.7,11.7,0,0,0,53.77,8Z"/><path class="cls-4" d="M53,7.9a8.81,8.81,0,0,1-6-.15,25.33,25.33,0,0,0-4.7-2.11,8.61,8.61,0,0,0-5.45.23,6.28,6.28,0,0,0-2.4,2.37,4.08,4.08,0,0,0-.38,1.68.5.5,0,0,0,.07.34.28.28,0,0,0,.09.1c-.1.41-.16.84-.22,1.26,0,.26-.06.59.14.8a.43.43,0,0,0,.23.1,0,0,0,0,1,0,0c-.11.86.24,2,1.24,2.09h0a2.67,2.67,0,0,0,2.55,1.83,2.27,2.27,0,0,0,.59-.06,1.76,1.76,0,0,0,.39.12,5.25,5.25,0,0,0,2.42-.25c1-.4,1.61-1.53,2.74-1.74a28.64,28.64,0,0,1,7.51-.29,5.74,5.74,0,0,0,1.09.1c.6-.12.27-1-.26-.76a21.47,21.47,0,0,0-6.55,0,6.33,6.33,0,0,0-3.07.67c-.55.37-1,.91-1.55,1.23a3.62,3.62,0,0,1-1.38.32,4.13,4.13,0,0,0,1.54-3.39,2.84,2.84,0,0,0-2.39-2.19,3,3,0,0,0-2.31.76,4.48,4.48,0,0,0-1.47,2.81.65.65,0,0,1-.24-.37c-.47-1.94,1.31-3.72,3-4.4.34-.15,1-.12.89-.66a.38.38,0,0,0-.48-.25,5.12,5.12,0,0,0-1.72.72,6.15,6.15,0,0,0-2,2.13c.39-2.33,2.22-3.58,4.62-3.75a.38.38,0,1,0,0-.76,6.26,6.26,0,0,0-4.1,1.68A5.79,5.79,0,0,1,37,6.63a7.1,7.1,0,0,1,4.51-.36c1.94.27,3.54,1.51,5.31,2.26A10.5,10.5,0,0,0,52.25,9a7.55,7.55,0,0,0,1.08-.34c.2-.07.42-.14.47-.38C53.91,7.81,53.28,7.57,53,7.9ZM37.81,11.53l.21-.15a1.77,1.77,0,0,1,2.48.35c1.22,1.49-.52,3.95-2.24,4a2,2,0,0,1-2-1.83C36.17,12.84,37,12.11,37.81,11.53Z"/><path class="cls-5" d="M3.18,14.33a6.15,6.15,0,0,0-.47,2.26A19.85,19.85,0,0,0,2.94,20l2.84,2.68L9.7,26.23l0-.71S10,20,10,19.71,7.07,16.82,6.21,16A10.49,10.49,0,0,0,3.18,14.33Z"/><path class="cls-5" d="M22.54,14.27v5s5.26.05,5.1,0S22.54,14.27,22.54,14.27Z"/><path class="cls-6" d="M3.43,13.88c-1.22-.35-.9,4.79-.87,5.21a1.75,1.75,0,0,0,.32,1.23c.57.57,1.24,1.07,1.81,1.67l1.83,2c.6.65,1.21,1.28,1.86,1.88a1.94,1.94,0,0,0,1.91.63c1.82-.16,3.67-.11,5.5-.17l5.56-.19A52.42,52.42,0,0,1,26.81,26c.45,0,1,.25,1.27-.16a2.11,2.11,0,0,0,.25-1.13A22.09,22.09,0,0,0,28.2,22a10.64,10.64,0,0,1-.09-2.18,1.1,1.1,0,0,1,0-.18c.06-.58-.07-.78-.63-1.21-1.27-1-2.31-2.22-3.53-3.27a5.08,5.08,0,0,1-.85-.82,4.51,4.51,0,0,0-2-.54c-3.56,0-7.12-.13-10.69-.13m15,3.87c.49.41,1.45,1.06,1.93,1.51-1.29,0-3.39,0-4.69,0v-4.4C23.48,15.42,24.65,16.68,25.41,17.53ZM9.64,23.07c0,1,.13,2.9-.1,2.9s-2.82-2.48-3.78-3.51c-.57-.62-1.13-1.12-1.71-1.72a5.86,5.86,0,0,1-1.11-1.31,7.11,7.11,0,0,1,0-1.53,20.31,20.31,0,0,1,.35-3.37c.54,0,6.27,4.52,6.47,5.18A32.21,32.21,0,0,1,9.64,23.07Zm-5.71-8.8s11.49-.41,18.23,0v4.83c-3.25.05-6.51.09-9.77.18-.74,0-1.49.07-2.24.06h0A48.4,48.4,0,0,0,3.93,14.27ZM10,26c0-.52.27-5.87.29-6.3,4.05-.1,15.74-.13,17.38-.21,0,.2,0,4.34,0,6C25.29,25.5,11.18,26.16,10,26Z"/><path class="cls-3" d="M16.53,8.14s.78-.81.53-1.52a2.13,2.13,0,0,0-1.87-1.57c-.94,0-1.32-.45-1.67.4a1.4,1.4,0,0,0,.17,1.44L14.33,8a2.14,2.14,0,0,1-1.83-.1c-.83-.53-3-1.94-3-1.94L7.27,6,1.05,8.16A6.72,6.72,0,0,1,0,4.41a4.06,4.06,0,0,1,1.1-2.6l4.66-.08a50.29,50.29,0,0,1,7-1.45A7.41,7.41,0,0,1,17.2,1.53a6.53,6.53,0,0,1,2.4,2.59,2.19,2.19,0,0,1,.11,1.12,3.91,3.91,0,0,1-.49.72s0,.34-.21.45a.46.46,0,0,1-.29.08.68.68,0,0,1-.28.54A.9.9,0,0,1,18,7.2s-.16.88-.61,1A2.41,2.41,0,0,1,16.53,8.14Z"/><polygon class="cls-4" points="17.6 6.29 17.6 6.29 17.6 6.29 17.6 6.29"/><path class="cls-4" d="M11.51.06h0Z"/><path class="cls-4" d="M19.57,3.54l-.06-.12a8,8,0,0,0-1.14-1.56A6.82,6.82,0,0,0,15.88.39,6.11,6.11,0,0,0,14,0a10.49,10.49,0,0,0-1.12.05c-.76.05-1.53.07-2.29.18S9.41.52,8.8.65,7.34,1,6.6,1.09a19,19,0,0,1-4.44.43c-.13,0-.27,0-.41,0a1.68,1.68,0,0,1-.33-.16c-.28-.12-.56.19-.53.46a.51.51,0,0,0,.33.37,3.15,3.15,0,0,0,1.22.14h.08a21.83,21.83,0,0,0,2.29-.15,45.23,45.23,0,0,0,4.48-.82C10,1.17,10.71.91,11.44.76A13.84,13.84,0,0,1,13.66.51a7,7,0,0,1,2.16.37,5.07,5.07,0,0,1,1.75.92,5.83,5.83,0,0,1,.75.74c.23.28.41.59.62.87a2.28,2.28,0,0,1,.56,1.87,1.24,1.24,0,0,1-.23.44,3.53,3.53,0,0,0-1.16-2.3,5.1,5.1,0,0,0-.62-.61c0,.21.21.43.34.57s.34.46.51.69A2.93,2.93,0,0,1,19,5.57a1.44,1.44,0,0,1,0,.62c-.11.23-.12-.07-.13-.15a3.67,3.67,0,0,0-.66-1.68,6.92,6.92,0,0,0-.63-.8A2.32,2.32,0,0,0,16.83,3c.28.58.74,1.07,1.06,1.63a4.7,4.7,0,0,1,.62,1.66c0,.19,0,.53-.15.64s-.27-.49-.28-.63a2.68,2.68,0,0,0-.93-1.65,5.11,5.11,0,0,0-.83-.71c-.16-.11-.59-.43-.8-.26.15.24.47.35.68.52a5.43,5.43,0,0,1,.69.75,3.59,3.59,0,0,1,.8,1.68,1.29,1.29,0,0,1-.43,1.35c-.07,0-.21.12-.29,0s.07-.23.12-.31a1.27,1.27,0,0,0,.27-.82,2.45,2.45,0,0,0-2-2.11A2.09,2.09,0,0,0,13,5.61a1.38,1.38,0,0,0,.43,1.52c.11.13.53.48.26.61a1.28,1.28,0,0,1-.94,0c-1.14-.37-1.91-1.41-3-1.86A5.53,5.53,0,0,0,5.83,6c-.67.24-1.33.52-2,.78a8.13,8.13,0,0,1-2,.57,1.09,1.09,0,0,0-.77.26.39.39,0,0,0,.15.63,1.45,1.45,0,0,0,.85,0,8.44,8.44,0,0,0,1-.35c.69-.27,1.4-.49,2.09-.75a14.75,14.75,0,0,1,2-.66,4.3,4.3,0,0,1,2.08,0,4.69,4.69,0,0,1,1.66,1,4.29,4.29,0,0,0,1.65,1,5.44,5.44,0,0,0,1.06.1c.34,0,.63.25,1,.3a2,2,0,0,0,1-.08c.15-.05.29-.12.45-.16a1.48,1.48,0,0,1,.47,0c.68.07,1.26-.52,1.66-1a2.81,2.81,0,0,0,.57-.76c.06-.16.13-.12.26-.2s.17-.22.23-.35.39-.41.51-.68a1.83,1.83,0,0,0,.12-1A3,3,0,0,0,19.57,3.54ZM16.65,7a2.12,2.12,0,0,1-1.54,1l-.48,0c.4-.59-.7-1.28-.92-1.81a.31.31,0,0,1,.09-.35,1.77,1.77,0,0,1,1.12-.4,1.71,1.71,0,0,1,.59.11,3.93,3.93,0,0,1,1,.74A.67.67,0,0,1,16.65,7Z"/></g></g></svg>