<svg xmlns="http://www.w3.org/2000/svg" viewBox="0 0 42.43 36.46"><defs><style>.cls-1{fill:#6474b7;}.cls-2{fill:#fcd4ac;}.cls-3{fill:#d09971;}.cls-4{fill:#3c58a4;}.cls-5{fill:#6b1e1e;}.cls-6{fill:none;}.cls-7{fill:#798c67;}.cls-8{fill:#e52823;}.cls-9{fill:#faed62;}.cls-10{fill:#cbc478;}.cls-11{fill:#9f2224;}</style></defs><g id="Layer_2" data-name="Layer 2"><g id="Card"><path class="cls-1" d="M24.35,25.75l14.26,7.14s1.23.82,1.1,1.85A1.5,1.5,0,0,1,37.47,36c-1.14-.66-8.5-4.23-9.75-5s-4.87-2.5-4.87-2.5-.62-1.6-.3-2.11S24.35,25.75,24.35,25.75Z"/><path class="cls-2" d="M22.85,28.5,20,29.62l-2.74-1.5.16-3.37,6.65-2.83,2.42,1.51.09,3L24.3,25.27s-1.72.46-1.73,1.9S22.85,28.5,22.85,28.5Z"/><polygon class="cls-3" points="19.84 26.06 19.98 29.62 17.24 28.12 17.4 24.75 24.05 21.92 26.47 23.43 19.84 26.06"/><path class="cls-4" d="M23.14,26.5,37,34l.2,1.39-.07.55L22.85,28.5a2.81,2.81,0,0,1-.27-.79,4.16,4.16,0,0,1,.13-1Z"/><polygon class="cls-5" points="39.08 32.89 39.08 32.89 39.08 32.89 39.08 32.89"/><path class="cls-5" d="M37.55,36.45h0Z"/><polygon class="cls-5" points="39.08 35.6 39.08 35.6 39.07 35.61 39.08 35.6"/><polygon class="cls-5" points="39.04 35.65 39.04 35.65 39.03 35.65 39.03 35.65 39.04 35.65"/><polygon class="cls-5" points="39.03 35.65 39.03 35.66 39.03 35.66 39.03 35.65"/><polygon class="cls-5" points="38.03 36 38.03 36 38.03 36 38.03 36 38.03 36 38.03 36"/><polygon class="cls-5" points="38 35.98 38 35.98 38 35.98 38 35.98"/><polygon class="cls-5" points="38.94 35.73 38.94 35.73 38.94 35.73 38.94 35.73"/><polygon class="cls-5" points="39.03 35.66 39.03 35.66 39.03 35.66 39.03 35.66"/><polygon class="cls-5" points="39.03 35.66 39.03 35.66 39.03 35.66 39.03 35.66"/><polygon class="cls-5" points="38.61 33.48 38.61 33.48 38.61 33.48 38.61 33.48 38.61 33.48"/><polygon class="cls-5" points="37.97 33.59 37.97 33.59 37.97 33.59 37.97 33.59"/><polygon class="cls-5" points="39.12 33.9 39.12 33.9 39.12 33.9 39.12 33.9"/><polygon class="cls-5" points="39.1 33.87 39.1 33.87 39.1 33.87 39.1 33.87"/><polygon class="cls-5" points="38.33 33.48 38.33 33.48 38.33 33.48 38.33 33.48"/><polygon class="cls-5" points="39.21 34.03 39.21 34.03 39.21 34.03 39.21 34.03"/><polygon class="cls-5" points="39.21 34.03 39.21 34.03 39.21 34.03 39.21 34.03 39.21 34.03"/><path class="cls-5" d="M17,27.39a1.68,1.68,0,0,0,.08.74c.19.42.67.61,1.07.85a5.57,5.57,0,0,0,1.44.85c1.13.25,2.17-.9,3.32-.84a3.38,3.38,0,0,1,1.33.48L35.9,35.7a4.49,4.49,0,0,0,2.5.75,1.89,1.89,0,0,0,1-3.17,4.84,4.84,0,0,0-1.18-.88,103.14,103.14,0,0,0-11-5.7.64.64,0,0,1-.35-.25.69.69,0,0,1-.05-.38l.07-1.8a1.68,1.68,0,0,0-.08-.74,1.7,1.7,0,0,0-.6-.65,3.54,3.54,0,0,0-2.18-1,3.48,3.48,0,0,0-1.08.3l-5.39,2.12a1,1,0,0,0-.42.26.94.94,0,0,0-.13.55l0,.37Zm.12-2.46Zm7.58-2.32c.43.26.85.55,1.3.78-1.92.71-3.88,1.34-5.76,2.17-.13.05-.27.08-.4.14l-.06.05h-.05c-.52-.24-1-.49-1.55-.72a2.92,2.92,0,0,1-.34-.13c1.34-.67,2.82-1,4.19-1.6l2.08-.89.13,0ZM38,36h0Zm0,0c-.87-.35-.79-1.72-.16-2.27l0,0h0l0,0h0s0,0,0,0H38l0,0h0l0,0,0,0,.09,0,.09,0h.21l.06,0h0l.05,0h0l0,0a.1.1,0,0,1,0,0h0l0,0,0,0,.06.05.12.12h0l0,0h0s0,0,0,0a.09.09,0,0,1,0,.06h0V34h0v0a1.55,1.55,0,0,1,0,1.16,0,0,0,0,1,0,0,.43.43,0,0,1,0,0h0a.25.25,0,0,1,0,.07.36.36,0,0,1,0,.09h0s0,0,0,0h0l0,0h0l0,0v0l0,0h0s0,0,0,0h0a.08.08,0,0,1,0,0h0l0,0,0,0-.12.06h0l-.11.05-.08,0-.07,0h0l-.11,0h0l-.16,0h0A.53.53,0,0,1,38,36h0Zm-14-7.27a1.92,1.92,0,0,1-1-.9,1.52,1.52,0,0,1,.22-1.31,1.14,1.14,0,0,1,.65-.59,1.4,1.4,0,0,1,.88.19c2.58,1.22,5.17,2.44,7.72,3.73,1.29.65,2.57,1.32,3.84,2,.25.14,1.72.76,1.72,1s-.85.76-1,1.08a3.09,3.09,0,0,0-.17,1.51L24.7,29.11Zm-2.48,0c-.44.17-.89.3-1.32.48a1.34,1.34,0,0,0,0-.2,24.3,24.3,0,0,0,0-2.83c.61-.2,1.17-.51,1.78-.7.93-.37,1.81-.65,2.74-1,.43-.16.87-.31,1.3-.5a3,3,0,0,0,.4-.12,18.58,18.58,0,0,0,0,2.36l-2-1h-.11a0,0,0,0,1-.05,0H24a0,0,0,0,0,0,0,1.84,1.84,0,0,0-1.08.57,1.19,1.19,0,0,0-.33.52.61.61,0,0,1-.05.12,2.85,2.85,0,0,0-.18.71c0,.24,0,.39,0,.57a1.2,1.2,0,0,0,.2.62C22.16,28.51,21.81,28.63,21.46,28.75Zm-3.56-.56a.67.67,0,0,1-.26-.21.83.83,0,0,1-.09-.39,19.17,19.17,0,0,1,.05-2.14c.56.22,1.11.46,1.65.73a.9.9,0,0,1,.2.14c.44.46.13,2.29.1,2.88l-.66-.4Z"/><polygon class="cls-5" points="17 25.5 17 25.5 17 25.51 17 25.5"/><path class="cls-5" d="M17,25.35h0Z"/><polygon class="cls-5" points="17.24 28.5 17.24 28.5 17.24 28.5 17.24 28.5"/><path class="cls-5" d="M17.05,25.11Z"/><path class="cls-6" d="M5.07,2.27A1.63,1.63,0,0,0,5.4,2.2l.17-.05,0,.18c0,.14,0,.29-.07.44l0,.17L5.38,3A1.59,1.59,0,0,1,4.92,3a.55.55,0,0,1-.49-.21v0a1,1,0,0,1,0-.49l0-.15.14,0A1.13,1.13,0,0,0,5.07,2.27Z"/><path class="cls-6" d="M5,1.24h.1a.45.45,0,0,1,.28.17l.06.1-.09.06a.76.76,0,0,1-.43.12H4.79l-.08,0,0-.13.06-.08A.41.41,0,0,1,5,1.24Z"/><path class="cls-6" d="M21.44,8.17a1.64,1.64,0,0,1,0,.23v.15l-.15-.05-.32-.13-.39-.15h0L20.16,8,20,7.9V7.84a.66.66,0,0,0,0-.15l0-.09.08,0a1.78,1.78,0,0,1,1.44.07l.11,0,0,.11A2.55,2.55,0,0,0,21.44,8.17Z"/><path class="cls-6" d="M5.07,2.27A1.63,1.63,0,0,0,5.4,2.2l.17-.05,0,.18c0,.14,0,.29-.07.44l0,.17L5.38,3A1.59,1.59,0,0,1,4.92,3a.55.55,0,0,1-.49-.21v0a1,1,0,0,1,0-.49l0-.15.14,0A1.13,1.13,0,0,0,5.07,2.27Z"/><path class="cls-6" d="M5,1.24h.1a.45.45,0,0,1,.28.17l.06.1-.09.06a.76.76,0,0,1-.43.12H4.79l-.08,0,0-.13.06-.08A.41.41,0,0,1,5,1.24Z"/><path class="cls-6" d="M21.44,8.17a1.64,1.64,0,0,1,0,.23v.15l-.15-.05-.32-.13-.39-.15h0L20.16,8,20,7.9V7.84a.66.66,0,0,0,0-.15l0-.09.08,0a1.78,1.78,0,0,1,1.44.07l.11,0,0,.11A2.55,2.55,0,0,0,21.44,8.17Z"/><path class="cls-7" d="M16.89,3.68S16.75,2.6,17,2.34a1.48,1.48,0,0,1,1.46-.55c.88.11,1.23.36,1.38.73s.22,6.78.22,6.78l-1,.57,0-5a1.65,1.65,0,0,0-.48-.7A6.87,6.87,0,0,0,16.89,3.68Z"/><path class="cls-7" d="M23.44,4.39l.12-2a4.15,4.15,0,0,1,2-.44c.78.12,1.64.35,1.8,1.2s.07,6.56.07,6.56-.16.49-.46.5-.59.06-.59.06l.15-4.87-.11-.79a1.16,1.16,0,0,0-.63-.35,3.49,3.49,0,0,0-1.42-.11A3.09,3.09,0,0,0,23.44,4.39Z"/><path class="cls-8" d="M26.14,15.4v1a1.47,1.47,0,0,1-1.57.7A7.41,7.41,0,0,1,23,16.54s.21-5.67.21-6.67,0-5.34.48-5.56,2.27-.36,2.5.14a6.15,6.15,0,0,1,.3,2.33C26.44,7.8,26.14,15.4,26.14,15.4Z"/><path class="cls-9" d="M16.08,11.56l.21-7.11s-.15-.38.31-.47a2.55,2.55,0,0,1,1.95.18c.55.45.44,1.23.47,2.36s0,4.08,0,4.55,0,4.45,0,4.45a1.46,1.46,0,0,1-1.28,1c-1,0-1.73-.25-1.68-.45a3.62,3.62,0,0,0-.19-1Z"/><path class="cls-1" d="M33.38,15.84l-.1.94a2.15,2.15,0,0,1-1.52.63c-.85-.07-1.46-.28-1.54-.64a4.85,4.85,0,0,1,0-1.11Z"/><polygon class="cls-4" points="39.06 16.47 38.91 23.47 41.56 23.59 41.89 22.27 41.89 15.41 41.91 6.67 42.16 4.54 42.23 2.77 41.62 2.22 40.45 2.22 40.07 2.75 39.53 5.22 39.33 9.27 39.06 16.47"/><path class="cls-2" d="M2,14l.09-2h.58l2.81-4.2L10.24,8S10,10,11.72,9.58s1.86-.12,1.84-.57a7.94,7.94,0,0,1,0-.91l2.52.13v3.33A2.9,2.9,0,0,0,18,12a3.71,3.71,0,0,0,1-.42l.06-1.49s.86-.45,1-.75a2.47,2.47,0,0,0,.16-.83l3.09.19s-.45,2.94-.08,3.22a12,12,0,0,0,2.85.38l.36-1.75a1.13,1.13,0,0,0,.67-.42,2.17,2.17,0,0,0,.3-1.27l3.14.27v3.82a11.92,11.92,0,0,0,2.09.14,7.94,7.94,0,0,0,1-.19,10.21,10.21,0,0,0,.23-2.06A10,10,0,0,1,34,9.05l5.37.22-.12,4-.31.7,1.17.63v1.76Z"/><path class="cls-1" d="M6.14,14.25l.1,2.38-.5.83L5,17.65l-.89-.3.19,1.7-.19.61-1,.85-2.28.1L.66,14,.25,4.4,1,3.32H2.3l.34-2L3.47.35,4.82.66S5,2,5.08,3s.16,5,.16,5-.59.79-1.17,1.61a10.78,10.78,0,0,0-1,1.94L2.3,12l-.17.3L2,14Z"/><path class="cls-10" d="M13.11,9.72c-2.33,0-2.87-.89-2.87-.89V2.44a1.53,1.53,0,0,1,1.32-.83c.95,0,1.61,1.13,1.61,1.13S13.67,9.72,13.11,9.72Z"/><path class="cls-8" d="M30.88,5.28a1.46,1.46,0,0,1,1.8-.56A1.71,1.71,0,0,1,34,6.21c0,.53-.31,3.79-.24,4.36A21.15,21.15,0,0,1,33.65,13s-1.24.08-1.95.06a2.15,2.15,0,0,1-1.15-.34s.22-5.12.16-5.69A9.11,9.11,0,0,1,30.88,5.28Z"/><path class="cls-4" d="M4.82.66,4.16,1.94V4.28c0,.47-.35,1.48-.56,1.54l-.21.06-.33-2.2-.55.72.23,7.31L2.07,12v1.68L2,14l1.08,0v6.49a4,4,0,0,1-1.26.23,8.06,8.06,0,0,1-1-.13s0-4.52-.11-5.72S.25,4.4.25,4.4L1,3.32H2.3l.11-.67L2.64,1.3,3.47.35Z"/><polygon class="cls-4" points="5.24 15.59 5.36 17.57 4.09 17.36 4.09 16.54 5.24 15.59"/><polygon class="cls-9" points="11.5 2.87 11.5 9.58 13.17 9.32 13.67 8.29 13.26 3.39 13.07 2.4 12.05 2.87 11.5 2.87"/><path class="cls-10" d="M17.49,4.16l-.22,7.72-1-.23L16,9.87l.29-5.42s-.22-.36.31-.47A1.13,1.13,0,0,1,17.49,4.16Z"/><path class="cls-11" d="M24.86,4.16s-.23.07-.29.46a.76.76,0,0,0,.13.61l-.13,6.86a1.2,1.2,0,0,1-.93,0c-.41-.22-.19-.8-.19-.8l-.22-4.78.21-1.73.4-.76Z"/><path class="cls-11" d="M26.14,15.4v1.29a2.33,2.33,0,0,1-1.57.38A7.28,7.28,0,0,1,23,16.54l.12-1.33Z"/><path class="cls-10" d="M18.94,15v.78s-.91.86-1.4.84a3,3,0,0,1-1.25-.35,1.75,1.75,0,0,1-.4-.64v-.74Z"/><path class="cls-11" d="M33.47,16s-.07,1.29-1.21,1.31-2-.32-2.08-.81a2.32,2.32,0,0,1,0-.88Z"/><path class="cls-11" d="M32.68,4.72s-.56.12-.6.4a1.27,1.27,0,0,0,.08.6L31.7,13l-1.15-.13.19-5.27.14-2.36.55-.66Z"/><path class="cls-3" d="M40.07,14.61v1.76s-6.12-.63-6.69-.53-21.74-1.32-21.74-1.32L2,14l.09-2,27.14,1.5Z"/><polygon class="cls-5" points="3.16 0.13 3.16 0.13 3.16 0.13 3.16 0.13"/><path class="cls-5" d="M15.52,15.05a1.92,1.92,0,0,0,3.78.3l3.39.2a1.12,1.12,0,0,0,.43,1.36,2.59,2.59,0,0,0,1.48.36A2.46,2.46,0,0,0,26,16.94a1.07,1.07,0,0,0,.42-1.28l3.4.33a2,2,0,0,0,3.88.25l5,.42,0,6.53a.69.69,0,0,0,.14.55.81.81,0,0,0,.53.15l1.74,0a1.05,1.05,0,0,0,.61-.12A1,1,0,0,0,42,23L42,20.65l.25-11.53c0-1.89-.07-3.86.13-5.74A1.11,1.11,0,0,0,41.73,2a1.46,1.46,0,0,0-1.57.13A2.86,2.86,0,0,0,39.42,4a36.89,36.89,0,0,0-.37,5L34,8.75a5.69,5.69,0,0,0-.1-3.25,2,2,0,0,0-2.69-1,2.37,2.37,0,0,0-.78,2,7.84,7.84,0,0,1,0,2.27,11.26,11.26,0,0,1-2.78-.2l0-4.61a2.74,2.74,0,0,0-.29-1.45c-.53-.83-1.73-.81-2.7-.7a1.61,1.61,0,0,0-1,.38,1.61,1.61,0,0,0-.32,1.1L23,8.34l-2.64-.15,0-4.07a3.9,3.9,0,0,0-.25-1.63,2,2,0,0,0-2.26-1,1.93,1.93,0,0,0-1.27,2.1c-.5,0-.67.66-.7,1.16-.05,1.06-.07,2.12,0,3.19l-2-.06a9.16,9.16,0,0,1-.12-3A4.17,4.17,0,0,0,12.93,2a1.75,1.75,0,0,0-2.65-.13A2.59,2.59,0,0,0,10,3.39L10,7.7,5.56,7.59,5.47,2.43c0-.88-.14-1.93-.93-2.31a1.65,1.65,0,0,0-2,.75A4.9,4.9,0,0,0,2,3.11a1.55,1.55,0,0,0-1.74.67A3.08,3.08,0,0,0,0,5.46L.55,20.37a.79.79,0,0,0,.16.52.71.71,0,0,0,.46.16,3.73,3.73,0,0,0,2.67-.67,2,2,0,0,0,.52-2.52,1.53,1.53,0,0,0,2-.84,4.15,4.15,0,0,0,0-2.47l.52,0ZM4.65,17.22a.77.77,0,0,0-.29-.07c0-.14,0-.29,0-.43A1.39,1.39,0,0,0,5,16.23c0,.2,0,.72.08,1.12A2.92,2.92,0,0,1,4.65,17.22ZM3.3,20c0-1.89-.09-3.78-.13-5.66.91,0,1.81.11,2.71.15,0,.61,0,1.21,0,1.81a1.8,1.8,0,0,0,0,.52s0,0,0,0-.18.22-.26.32c-.08-.5-.07-1-.11-1.52a.63.63,0,0,0-.11-.35.29.29,0,0,0-.5.12c-.09.09-.2.17-.3.26l-.28.36c-.12.08-.28.12-.4.21a.29.29,0,0,0-.18.42A21.93,21.93,0,0,0,4,19.12.23.23,0,0,0,4,19.3L4,19.37a.79.79,0,0,0-.19.22c-.13.13-.25.19-.37.33A1.36,1.36,0,0,0,3.3,20Zm-.84.34c-.46,0-.94,0-1.41.06.05-.58,0-1.17,0-1.75,0-1.12-.13-2.24-.12-3.36,0-3.51-.28-7-.43-10.53H.76l1.39.08c0,.25,0,.54,0,.78.09,1.61.14,3.22.19,4.84,0,.32,0,.65,0,1a.55.55,0,0,0,0,.18h-.1a.31.31,0,0,0-.4.16.3.3,0,0,0-.14.35,1,1,0,0,1,0,.17A16.09,16.09,0,0,0,1.7,14h0a.28.28,0,0,0,.26.3l.09,0H2.6a.09.09,0,0,0,0,.05c0,1.57.12,3.14.1,4.71,0,.41,0,.83,0,1.25h0ZM4.29,8.91a9.2,9.2,0,0,1-.66,1c-.11.16-.67.68-.66.85L2.73,5.05a1.16,1.16,0,0,1,.2-.86L3.12,6.1a.39.39,0,0,0,.06.19c.09.11.27,0,.39,0a2.59,2.59,0,0,0,.81-2.32,4.47,4.47,0,0,1,.31-2.52c.11,1.75.44,3.62.38,5.36a2.74,2.74,0,0,1-.14.79A6.37,6.37,0,0,1,4.29,8.91ZM3.62,2.09a.13.13,0,0,1,.1,0s0,.08,0,.13a9.18,9.18,0,0,1,0,2s0,.11-.08.11a.08.08,0,0,1-.07,0c-.14-.16-.1-.39-.1-.6s-.2-.61-.48-.6c-.11,0-.25,0-.31-.05a.17.17,0,0,1,0-.12l0-.91h0A4.15,4.15,0,0,1,3.62,2.09Zm.09,2.85h0a.87.87,0,0,1-.11.18c0-.06,0-.12,0-.18ZM2.51,3.73l-.08.13a2.82,2.82,0,0,0-.23.42H2c-.35,0-.71,0-1-.06H.7A4.11,4.11,0,0,0,1,3.86a1.09,1.09,0,0,0,.13-.17A11.07,11.07,0,0,1,2.51,3.73Zm2-3-.43.56a.73.73,0,0,0-.19.2.27.27,0,0,0-.09,0c-.06,0-.12,0-.18,0a1.56,1.56,0,0,1-.43,0,1.5,1.5,0,0,1-.3,0A6.76,6.76,0,0,1,3.5.66C3.85.69,4.2.73,4.55.74ZM13.14,9.1v0a8.83,8.83,0,0,1-1.84.18,2.11,2.11,0,0,1-.54-.22A.46.46,0,0,0,10.63,9a.25.25,0,0,0,0-.08c0-.17,0-.35,0-.52,0-.89,0-1.77-.06-2.65.07-.89,0-1.78,0-2.67a3,3,0,0,0,.94.1,3.44,3.44,0,0,0,1.33-.32c.07,1.58.23,3.14.3,4.72A8.58,8.58,0,0,0,13.14,9.1Zm-.43-6.83a2.68,2.68,0,0,1-1.44.33,2,2,0,0,1-.68-.16s0-.07,0-.11,0,0,.06,0a.39.39,0,0,0,0-.14A2,2,0,0,1,12.17,2,.88.88,0,0,1,12.71,2.27Zm6,9.24a10.6,10.6,0,0,1-1.37.14,9.18,9.18,0,0,1-1-.23c.13-2.12.1-4.28.08-6.41a3.16,3.16,0,0,0,1.21.19,3.13,3.13,0,0,0,1.13-.28v.23c0,.77-.05,1.53,0,2.29,0,1.21-.07,2.4,0,3.6a2,2,0,0,1,0,.43S18.68,11.49,18.67,11.51Zm-2.18-7.2a2,2,0,0,1,1-.15,2.91,2.91,0,0,1,1.06.17,2.09,2.09,0,0,1-1.16.29C17.15,4.57,16.53,4.62,16.49,4.31Zm.69-.73c0-.18,0-.36,0-.54a4,4,0,0,0,1.6.17,3.38,3.38,0,0,0,.89-.2c0,.4,0,.79,0,1.19,0,1.69,0,3.38,0,5.07a1.05,1.05,0,0,1-.45.22c0-1,0-1.88,0-2.83.06-.68,0-1.35,0-2,0-.17,0-.39-.17-.48a.61.61,0,0,0-.22-.29,3.36,3.36,0,0,0-1.66-.28Zm2.29-1.12a2.87,2.87,0,0,1-1,.19,3.74,3.74,0,0,1-1.23-.21v0a.41.41,0,0,1,.19-.13A2.63,2.63,0,0,1,19.47,2.46ZM26,12.05l-.21,0a8.72,8.72,0,0,1-1.25,0,1.65,1.65,0,0,1-1.11-.31c0-.15,0-.34,0-.48A28.88,28.88,0,0,0,23.59,8c.09-.71,0-1.43.05-2.15V5.72a1.83,1.83,0,0,0,1.38,0,1.94,1.94,0,0,0,1.17-.52,7.75,7.75,0,0,1,0,2c.06.81-.05,1.6-.06,2.4A21.35,21.35,0,0,0,26,12.05ZM24,4.57a1.64,1.64,0,0,1,.82-.11,1.62,1.62,0,0,1,1,.18.17.17,0,0,0,0,.1h0a1.12,1.12,0,0,1-.84.39,2.55,2.55,0,0,1-.54.15h0A1.13,1.13,0,0,1,23.66,5a1.64,1.64,0,0,0,0-.23C23.71,4.68,23.89,4.63,24,4.57Zm2.53-2.09c-.18.38-1.22.41-1.61.38a3.22,3.22,0,0,1-1-.32A5.41,5.41,0,0,1,26.57,2.48Zm.18.65A.61.61,0,0,0,26.91,3c0,.38,0,.76.05,1.1C27,6,27,7.92,27,9.82a1.86,1.86,0,0,1-.28.21,24.46,24.46,0,0,0,.09-2.71,8.7,8.7,0,0,0,0-2.39c-.14-.89-1.21-1.1-2-1.06a2,2,0,0,0-.93.16c0-.2,0-.41,0-.61V3.15l.35.12a2.75,2.75,0,0,0,1.27.18A3.1,3.1,0,0,0,26.75,3.13Zm6.54,9.57a.35.35,0,0,1-.21.07,11.68,11.68,0,0,1-1.87,0,.42.42,0,0,1-.34-.14.51.51,0,0,1,0-.25l.28-6.25a4.82,4.82,0,0,0,2,.13.33.33,0,0,1,.26,0c.11.06.13.2.14.32.17,2-.16,3.95-.16,5.93a.4.4,0,0,1,0,.15A.13.13,0,0,1,33.29,12.7Zm.18-7.31v.06a2.21,2.21,0,0,1-1.31.27,1.12,1.12,0,0,1-1-.61L31.17,5A2.66,2.66,0,0,1,33.47,5.39Zm5,4.15a1.05,1.05,0,0,1,.56.13c.39.26.09,1.5.06,1.9L38.9,14Q21,12.51,3.06,11.69L4.92,9a1.87,1.87,0,0,1,.66-.68,1.82,1.82,0,0,1,.93-.11L10,8.34a1.21,1.21,0,0,0,.75,1.39,3.3,3.3,0,0,0,1.71.11,2,2,0,0,0,1-.32.73.73,0,0,0,.2-1l2.07,0,0,2.73a.8.8,0,0,0,.09.46.66.66,0,0,0,.44.25,5,5,0,0,0,2.39.07.85.85,0,0,0,.53-.27c.3-.37-.09-.94,0-1.4s.45-.51.72-.72.53-.59.35-.89L23,9l-.09,2.45a1.34,1.34,0,0,0,.11.69,1.22,1.22,0,0,0,.86.47,6.8,6.8,0,0,0,2.16.05.67.67,0,0,0,.47-.2.76.76,0,0,0,.1-.39l.06-1.33a1.41,1.41,0,0,0,.94-1.49l2.77.18-.12,3.26a.67.67,0,0,0,.08.4.63.63,0,0,0,.4.19,9.11,9.11,0,0,0,2.66.06.68.68,0,0,0,.48-.2.81.81,0,0,0,.12-.46l.08-3.28,4.25.17ZM40,4.48a.33.33,0,0,1,0-.15.3.3,0,0,1,.18-.08,2.46,2.46,0,0,1,1-.07c.43.08,1.08.88.45,1.19a.41.41,0,0,1-.19,0,9.26,9.26,0,0,1-1.58,0C39.91,5.11,40,4.79,40,4.48ZM41.47,6.8a.64.64,0,0,1-.34,0q-.71,0-1.41-.12a4.31,4.31,0,0,1,.22-.49.38.38,0,0,1,.14-.19.44.44,0,0,1,.2,0h1a.41.41,0,0,1,.16,0s0,0,0,0C41.67,6.23,41.64,6.71,41.47,6.8Zm-.95-4.25,1.18,0c0-.09.21.2.22.21a2.77,2.77,0,0,1,0,.7.23.23,0,0,1,0,.14.18.18,0,0,1-.13,0c-.52,0-1,0-1.57,0l.16-.9a.18.18,0,0,1,.06-.14s0,0,.06,0ZM39.29,23.29h-.08c0-.21,0-.43,0-.64,0-1.2,0-2.41,0-3.61.06-.71,0-1.43,0-2.16a1,1,0,0,0,0-.17c.22,0,.45,0,.68,0a.28.28,0,0,0,.39-.1,3,3,0,0,0,0-.8c0-.45.08-.88.08-1.33a.3.3,0,0,0-.41-.28,2.6,2.6,0,0,0-.62-.11h0a46.87,46.87,0,0,0,.2-5.3c0-.29.07-1,0-1.51.61.09,1.18.09,1.79.14h.08c0,.11,0,.22,0,.32,0,2,.16,3.93.1,5.89,0,2.2-.15,4.39-.2,6.58-.11.92-.1,1.84-.17,2.76,0,0,0,0,0,0a.45.45,0,0,0-.07.32h0C40.57,23.34,39.93,23.26,39.29,23.29Zm-8.86-6.5s0,0,0,0c0-.24.07-.48,0-.72l.31,0,2.28.13c0,.22-.08.43-.12.63a.13.13,0,0,0,0,.06l0,0A3.64,3.64,0,0,1,30.43,16.79Zm-7.15-1.27c.74,0,1.48,0,2.22.05.12,0,.23,0,.35,0a.64.64,0,0,0,0,.2c0,.23-.07.48-.06.71v0a7.76,7.76,0,0,1-2.45-.08l0,0s0,0,0-.06A8.29,8.29,0,0,1,23.28,15.52Zm-21-1.76.07-1.5Q20.81,13,39.2,14.62c1,.09.65.77.54,1.52q-8-.64-16-1.18Q13.05,14.26,2.3,13.76Zm13.91,1.32,1.7.11.76.07a.36.36,0,0,0,0,.27,1.75,1.75,0,0,0-.05.33h0a4.33,4.33,0,0,1-2.14.12c-.11,0-.22-.07-.33-.1A1.87,1.87,0,0,0,16.21,15.08Z"/><path class="cls-5" d="M1.7,14h0v0Z"/><path class="cls-5" d="M17.52,12.22h0Z"/><polygon class="cls-5" points="11.79 9.87 11.79 9.87 11.8 9.87 11.79 9.87"/><path class="cls-5" d="M11.11,11.88A3.28,3.28,0,0,1,9,11.44a.47.47,0,0,1,.05-.82.26.26,0,0,1,.16-.18.57.57,0,0,1,.24-.08.58.58,0,0,1,.14,0,.49.49,0,0,1,.24,0H10a2.26,2.26,0,0,1,.44,0,7.66,7.66,0,0,1,1.79.18.87.87,0,0,1,.53.43C13,11.58,11.54,11.87,11.11,11.88Z"/><path class="cls-5" d="M41.24,23.94h0Z"/><path class="cls-10" d="M12,11.25C10,11.88,9.08,11,9.08,11V4.65a1.53,1.53,0,0,1,1.32-.83C11.35,3.8,12,5,12,5S12.54,11.08,12,11.25Z"/><path class="cls-9" d="M10.34,5.08v6.34s.7.07.95.07a2,2,0,0,0,1.05-.28l.17-.71L12.1,5.6l-.19-1-1,.47Z"/><path class="cls-5" d="M9.32,10.91a19.74,19.74,0,0,0,0-3.17c0-.53,0-1,.06-1.58a5.14,5.14,0,0,1,.23-1.61c.25-.63,1.14-.35,1.6-.16a1.92,1.92,0,0,1,.35.18.6.6,0,0,1,.13.09c.06.06,0,0,0,0s-.38.13-.54.16a4.59,4.59,0,0,1-.91,0c-.1,0-.56,0-.55-.14l-.11.15.12,0c.32-.05.19-.54-.13-.48a.42.42,0,0,0-.21.75,1.45,1.45,0,0,0,1,.27c.48,0,1.64,0,1.85-.55s-1-1-1.42-1.08a1.55,1.55,0,0,0-1.31.19C9,4.29,9,5,8.9,5.53a17.7,17.7,0,0,0-.1,2.52,14.56,14.56,0,0,1,0,2.72c-.05.32.43.45.48.14Z"/><path class="cls-5" d="M11.86,4.73a5.39,5.39,0,0,0,.05,1.33c0,.6.05,1.19.07,1.79S12,9,12,9.52a11.89,11.89,0,0,1,.06,1.69.24.24,0,0,0,.12.22.34.34,0,0,0,.35,0c.29-.13,0-.56-.25-.43l-.05,0h.25l0,0,.13.21a11.24,11.24,0,0,0-.06-1.64c0-.53,0-1.07,0-1.6s-.05-1.1-.07-1.66c0-.25,0-.51-.05-.77a2.22,2.22,0,0,1,0-.68c.06-.31-.42-.45-.48-.13Z"/></g></g></svg>