<svg xmlns="http://www.w3.org/2000/svg" viewBox="0 0 26.43 14"><defs><style>.cls-1{fill:#ef051f;}.cls-2{fill:#e8501d;}.cls-3{fill:#ffac2a;}.cls-4{fill:#ddf59d;}.cls-5{fill:#00df66;}.cls-6{fill:#28b3af;}.cls-7{fill:#0093ce;}.cls-8{fill:#0255b9;}.cls-9{fill:#222d76;}.cls-10{fill:#4e273f;}.cls-11{fill:#a11f29;}.cls-12{fill:#6b1e1e;}</style></defs><g id="Layer_2" data-name="Layer 2"><g id="Card"><path class="cls-1" d="M.08,13.75S-.28.25,13,.25s13,13.5,13,13.5Z"/><path class="cls-2" d="M.89,13.75S.92,1.45,13,1.45s11.9,12.3,11.9,12.3Z"/><path class="cls-3" d="M1.82,13.75S2.25,2.48,13.19,2.48,24,13.75,24,13.75Z"/><path class="cls-4" d="M2.8,13.75S3.28,3.45,13,3.45,23.19,13.59,23.19,13.59Z"/><path class="cls-5" d="M3.64,13.74S4.38,4.56,13,4.56s9.21,9,9.21,9Z"/><path class="cls-6" d="M4.58,13.73S5.77,5.59,13,5.59s8.37,8,8.37,8Z"/><path class="cls-7" d="M5.84,13.68s.37-7.09,7.41-7.09,6.8,7.14,6.8,7.14Z"/><path class="cls-8" d="M7.17,13.69S7.55,7.6,13.22,7.6s5.53,6,5.53,6Z"/><path class="cls-9" d="M8.53,13.69S8.72,9,12.91,9s4.61,4.66,4.61,4.66Z"/><path class="cls-10" d="M9.72,13.75S9.4,9.9,13,9.9s3.34,3.85,3.34,3.85Z"/><path class="cls-11" d="M10.76,13.62s.62-2.53,2.52-2.53,2,2.56,2,2.56Z"/><path class="cls-12" d="M26.42,14H0v-.25C0,13.5-.12,7.53,3.81,3.51,6.07,1.18,9.22,0,13.17,0s7.1,1.18,9.38,3.51c3.95,4,3.88,10,3.88,10.24ZM.5,13.5H25.93c0-1.17-.37-6.22-3.74-9.65C20,1.63,17,.5,13.17.5s-6.83,1.13-9,3.35C.83,7.28.53,12.34.5,13.5Z"/></g></g></svg>