<svg xmlns="http://www.w3.org/2000/svg" viewBox="0 0 47.39 33.68"><defs><style>.cls-1{fill:#00a97c;}.cls-2{fill:#fcd4ac;}.cls-3{fill:#d09971;}.cls-4{fill:#6b1e1e;}.cls-5{fill:#ff8500;}.cls-6{fill:#e52823;}.cls-7{fill:#faed62;}.cls-8{fill:#e8501d;}.cls-9{fill:#9f2224;}.cls-10{fill:#cbc479;}.cls-11{fill:#04684c;}</style></defs><g id="Layer_2" data-name="Layer 2"><g id="Card"><path class="cls-1" d="M5.73,15.56a2.6,2.6,0,0,0,1,0,1.17,1.17,0,0,0,.36-.47s.85,0,1-.31.35-.88-.1-1.07a1.42,1.42,0,0,0-.78-.12,3.35,3.35,0,0,0-1-.32,5.84,5.84,0,0,0-.66,0s-.94-1.76-1.95-1.66S1,12.07.5,13.41s-.13,3.93,1.55,4.23,2.68-.31,2.93-.81A12.66,12.66,0,0,1,5.73,15.56Z"/><path class="cls-2" d="M41.4,31.5s.61-1.33.82-2,3.15-9.38,3.5-10.21,1.62-3.89,1.38-4.4-1.1-.71-1.71-.8-1.75-.18-1.75-.18L31,12.17l-5.55-.83-5.9-.81L14.93,12.4,8.66,22.49A16.16,16.16,0,0,0,6.9,25.07c.08.24,0,1.55,2.31,2.07S26,30.19,27.39,30.38,38,32.33,38.82,32.3s1.16.1,1.72-.18A3.3,3.3,0,0,0,41.4,31.5Z"/><path class="cls-3" d="M41.37,31.69s.11,1.22-.72,1.54A16,16,0,0,1,35.22,33c-.83-.31-15.46-2.75-15.46-2.75S9.3,28.38,8.53,28.11,6.77,27.68,6.68,27a4.1,4.1,0,0,1,.08-1.34A3.91,3.91,0,0,0,8.67,27a57.44,57.44,0,0,0,7.22,1.51L25.51,30,35,31.52s3.37,1.09,4.76.79S41.37,31.69,41.37,31.69Z"/><path class="cls-4" d="M11.27,18.45c.35.15.5-.47.68-.68.5-.85,1-1.69,1.53-2.53s1.13-1.79,1.69-2.68a.25.25,0,0,0-.38-.31c-.95,1.49-1.9,3-2.81,4.51l-.7,1.16C11.16,18.08,11,18.32,11.27,18.45Z"/><path class="cls-4" d="M21.51,11.06a.25.25,0,0,0,.2-.45c-.61-.13-1.26-.17-1.88-.29a.25.25,0,0,0-.14.46A17.71,17.71,0,0,0,21.51,11.06Z"/><path class="cls-4" d="M25.8,11.69c.42.13.86.13,1.3.22l.26,0a.24.24,0,0,0,.29-.2c0-.29-.24-.3-.46-.31-.41-.08-.84-.09-1.25-.21A.25.25,0,0,0,25.8,11.69Z"/><path class="cls-4" d="M33.3,12.73a.25.25,0,0,0,0-.49c-.56-.07-1.15-.14-1.71-.25a.25.25,0,0,0-.11.46A11.84,11.84,0,0,0,33.3,12.73Z"/><path class="cls-4" d="M38,13.35l1.95.35a.25.25,0,0,0,.26-.27.28.28,0,0,0-.25-.24c-.24,0-.48-.09-.72-.11l-1.45-.28a.28.28,0,0,0-.25,0,.26.26,0,0,0-.06.35C37.55,13.32,37.77,13.3,38,13.35Z"/><path class="cls-4" d="M46.87,14.38l-.15-.08A4.5,4.5,0,0,0,43.44,14c.83.61,2.06.2,3,.68a.76.76,0,0,1,.39.4,1,1,0,0,1-.07.6l-3.16,9.27L42,29.54A3.65,3.65,0,0,1,40.22,32a3.74,3.74,0,0,1-1.85,0l-27.6-4.67c-1.48-.25-3.2-.67-3.79-2.05L9.12,22c0-.2-.36-.09-.5.06C7.45,23.31,5.1,26.3,7.14,27.84a5,5,0,0,0,2.16.74q12.17,2.1,24.3,4.34a36.05,36.05,0,0,0,5.84.76A2.24,2.24,0,0,0,41,33.27a2.27,2.27,0,0,0,.5-1l5.75-16.73a1.25,1.25,0,0,0,.1-.57A1,1,0,0,0,46.87,14.38ZM37.78,33.07c-1.58-.2-3.15-.48-4.72-.76L9,28a3.67,3.67,0,0,1-1.49-.51,1.39,1.39,0,0,1-.5-.67.8.8,0,0,1-.07-.43c.07-.23.09-.12.23,0a4.47,4.47,0,0,0,1.63.92A57,57,0,0,0,18.86,29.2c6.24.87,12.41,2.25,18.63,3.23,1.22.19,2.6.34,3.58-.41a1.16,1.16,0,0,1-.82,1.08,3.33,3.33,0,0,1-1.44.09Z"/><path class="cls-5" d="M36.33,26.87l-.1,2.53s.2.45,1,.34,1-.46,1-.46l.11-2.19A1.5,1.5,0,0,0,40,26.37c.56-1,.53-2.95-.53-3.45s-3-.86-4,0-1.4,2.41-.68,3.14A2.75,2.75,0,0,0,36.33,26.87Z"/><path class="cls-5" d="M25.16,24.63c0,.11-.18,2.6-.18,2.6s-.91.46-1.39.23-.48-.33-.49-.38V24.76s-1.34-.2-1.48-.75a10.44,10.44,0,0,1,0-2.13,3.69,3.69,0,0,1,2.71-1.63A2.53,2.53,0,0,1,27,22.19a10.5,10.5,0,0,1,.2,1.77,3.51,3.51,0,0,1-1.48.67Z"/><path class="cls-5" d="M16.33,9.41A2.46,2.46,0,0,0,15.12,11c-.33,1.23,1,2.08,1,2.08l.3.39.29,2.37a1.08,1.08,0,0,0,1,.24c.7-.14.67-.67.67-.67l-.14-2.15s1.32-.26,1.48-.74a4.3,4.3,0,0,0-.25-2.37,2.63,2.63,0,0,0-1.07-.65s-.27,1.07-.91,1a.89.89,0,0,1-.88-.64A1.32,1.32,0,0,0,16.33,9.41Z"/><path class="cls-5" d="M28.29,11.31a2.22,2.22,0,0,0-1.22,1,6.32,6.32,0,0,0,0,2.31l1,.34.15,1.38s-.12,1.38.72,1.38,1.17-.24,1.22-.79,0-1.88,0-1.88,1.67-.15,1.76-.78a3.53,3.53,0,0,0-.41-2.21,3,3,0,0,0-1-.67l-.08,1.08a1.48,1.48,0,0,1-1.07.21,1.19,1.19,0,0,1-.73-.63l0-.64Z"/><path class="cls-5" d="M28.56,9.83s-1-.11-1.15-.58a1.79,1.79,0,0,1-.24-1.36c.13-.75,0-1,.48-1.38a5.55,5.55,0,0,1,1.28-.63s-.48.94.29,1.2,1,.2,1.24,0,.31-1,.31-1,1.05.24,1.16,1,.54,1.58.2,2a3.45,3.45,0,0,1-1.6.72c-.06,0-.2,2.53-.2,2.53a2,2,0,0,1-1,.17c-.49-.07-.75-.73-.75-.73Z"/><path class="cls-6" d="M33.41,6.91a2.28,2.28,0,0,0-.51,1.36A4.65,4.65,0,0,0,33,9.47s.57.62,1,.63h.41a9.75,9.75,0,0,0,.08,2.41c.21.41.3.64.87.55s.91.13.89-.55,0-2.42,0-2.42,1.81-.23,1.92-1a3.13,3.13,0,0,0-1.88-2.78A4.72,4.72,0,0,0,33.41,6.91Z"/><path class="cls-6" d="M34,12s-1.23.92-1.23,1.25A9.9,9.9,0,0,0,33,15a1.5,1.5,0,0,0,.65.56,4.23,4.23,0,0,0,.69.14v1.44l0,1.17a.84.84,0,0,0,.85.33A1.37,1.37,0,0,0,36,18.2l.15-2.33,1.74-.78s.14-1.78-.38-2.27a3.1,3.1,0,0,0-1.21-.65.62.62,0,0,1-.48.92c-.85.18-1,.23-1.26,0S34.15,12,34.15,12Z"/><path class="cls-6" d="M40.65,13.24a2.21,2.21,0,0,0-1.21.89,6.29,6.29,0,0,0-.37,2.41,1.21,1.21,0,0,0,.64.61,3.72,3.72,0,0,0,.77.23l0,1.87a1.07,1.07,0,0,0,1.07.41c.68-.16.83-.39.83-.39s.15-1.87.19-1.87,1.57-.68,1.57-.68.33-1.79-.17-2.46a1.94,1.94,0,0,0-1.22-.76l-.25.58a1.49,1.49,0,0,1-.94.34c-.49,0-.74-.24-.76-.51S40.65,13.24,40.65,13.24Z"/><path class="cls-6" d="M31.64,25.82l-.19,2.34a2.33,2.33,0,0,1-1.36.29c-.51-.15-.49-.24-.49-.29s.11-2.08.11-2.08S28,25.47,28,25s0-2.55,1.33-3.23,3.77-.19,4,1a6.77,6.77,0,0,1,.09,2.3,3.86,3.86,0,0,1-1.06.62Z"/><path class="cls-6" d="M22.56,14.23l-.11,2s.09.7.65.75a1.41,1.41,0,0,0,1-.35l0-2.19s1.52-.38,1.66-1.36,0-2.71-1.54-3-2.94.34-3.17,1.45-.11,2.15.48,2.36S22.56,14.23,22.56,14.23Z"/><path class="cls-1" d="M18.83,23.74a10.49,10.49,0,0,1,0,1.88c-.1.38-.71,1-1.11.89s-.65-.28-.73-1.23a12.08,12.08,0,0,1-.07-1.45s-1.59-.52-1.78-.88a3.34,3.34,0,0,1,.42-2.7,3.83,3.83,0,0,1,2.71-.79c.78.08,1.92.53,2,1.44a2.55,2.55,0,0,1-.23,2A2.73,2.73,0,0,1,18.83,23.74Z"/><path class="cls-7" d="M12.57,22.53c.07,0,1.31-.48,1.45-1s-.19-3.18-1.37-3.21-2.81-.29-3.4,1.07A3.62,3.62,0,0,0,9.12,22a1.87,1.87,0,0,0,.77.48,4.44,4.44,0,0,0,.56.08l.14,2.1a1.18,1.18,0,0,0,1.07.72.74.74,0,0,0,.78-.72Z"/><path class="cls-8" d="M20.05,11.14a2.84,2.84,0,0,0-.29-1,1.52,1.52,0,0,0-1.42-.87.29.29,0,0,0-.2.09c-.09.1,0,.26.11.33a1.72,1.72,0,0,0,.39.1,1.14,1.14,0,0,1,.74.71,3.37,3.37,0,0,1,.2,1,1.89,1.89,0,0,1,0,.75c-.21.66-1.72.82-2.31.83a2.61,2.61,0,0,1-.88-.13,1.72,1.72,0,0,1-.17-3.16,1.51,1.51,0,0,0,.35-.2.29.29,0,0,0,0-.37c-.11-.12-.3-.07-.44,0a2.45,2.45,0,0,0-1.4,2.08,2.21,2.21,0,0,0,1.31,2.09c.06,0,.13,0,.16.11a.25.25,0,0,1,0,.17c0,.52,0,1,.05,1.56a1.5,1.5,0,0,0,.22.78c.34.43,1,.35,1.52.17a1,1,0,0,0,.42-.23,1.1,1.1,0,0,0,.17-.82l-.09-1.6a.25.25,0,0,1,0-.12c0-.05.09-.07.15-.09a2,2,0,0,0,1.11-.48,1.51,1.51,0,0,0,.26-1A5.61,5.61,0,0,0,20.05,11.14Zm-2,4.52c-.39.15-.87.35-1.2,0a10.84,10.84,0,0,1-.11-1.51c0-.2,0-.41,0-.61l.21,0a3.33,3.33,0,0,0,1.09,0c0,.44.07.87.1,1.32A1.42,1.42,0,0,1,18.05,15.66Z"/><path class="cls-9" d="M26,11.47a1,1,0,0,0-.2-.53,5.9,5.9,0,0,0-.5-.73,3.91,3.91,0,0,0-2.25-.42.33.33,0,0,0-.24,0,.42.42,0,0,1-.12,0l-.32.06s0,0,0,0c-1.56.45-1.79,1.81-1.59,3.4a2,2,0,0,0,1.5,1,1.5,1.5,0,0,0,0,.29l0,1a3.09,3.09,0,0,0,.11,1.09c.1.12.23.21.33.32a1.08,1.08,0,0,0,.74.19A1.14,1.14,0,0,0,24,17c.17-.08.35-.2.35-.42a19.83,19.83,0,0,0,0-2.18,5.14,5.14,0,0,0,1.06-.5c.16-.17.53-.22.53-.5h0A6.56,6.56,0,0,0,26,11.47Zm-2.13,5.08a1,1,0,0,1-.86.14c-.11-.06-.18-.18-.28-.24a13,13,0,0,1,0-2,0,0,0,0,1,0,0l.7.11a2,2,0,0,0,.43,0A19.25,19.25,0,0,1,23.88,16.55Zm1.49-3.18-.57.36a2.77,2.77,0,0,1-1.19.34c-.62-.05-2.22-.25-2.37-1-.13-1.26,0-2.49,1.42-2.79l.15,0h0l.29,0a5.63,5.63,0,0,1,1.23.1.86.86,0,0,1,.79.45c.12.16.23.35.34.52a6,6,0,0,1,.08.94,4.26,4.26,0,0,1-.08,1h0Z"/><path class="cls-9" d="M23.66,10.62a2.39,2.39,0,0,0-1,.18c-.21.17-.07.39.11.5a1.37,1.37,0,0,0,.76.24C24.5,11.69,24.63,10.66,23.66,10.62Z"/><path class="cls-9" d="M23.55,11.54h0Z"/><path class="cls-8" d="M32.28,7.51A2.07,2.07,0,0,0,30.92,5.8a.25.25,0,1,0-.15.48,1.92,1.92,0,0,1,1.1,2,3.75,3.75,0,0,1,0,.67l0,.12-.05,0a1.79,1.79,0,0,1-.46.27,4.26,4.26,0,0,1-3.72-.25l0,0s0,0,0,0a.71.71,0,0,1-.06-.28,6.78,6.78,0,0,1,0-1.56,1.78,1.78,0,0,1,1.2-1.1.25.25,0,0,0,.11-.48,1.24,1.24,0,0,0-.76.21A2.28,2.28,0,0,0,27,7.25a11.06,11.06,0,0,0,0,1.41,2.07,2.07,0,0,0,.12.61c.05.31.74.56,1,.66l.19.06c.05.53,0,1.08,0,1.64h0v0a1.15,1.15,0,0,0,.13.75,1.54,1.54,0,0,0,1.2.49,1.23,1.23,0,0,0,.71-.23.49.49,0,0,0,.32-.45c.06-.7,0-1.41,0-2.12L31,10a2.4,2.4,0,0,0,1.22-.53.26.26,0,0,0,.13-.28A4.72,4.72,0,0,0,32.28,7.51Zm-2.1,2.72c0,.64.06,1.26,0,1.9a1,1,0,0,1-1,.14,1.16,1.16,0,0,1-.34-.24.89.89,0,0,1,0-.37v0c0-.47,0-.94,0-1.42a.92.92,0,0,0,0-.16,7.37,7.37,0,0,0,1,.07,1.86,1.86,0,0,0,.33,0Z"/><path class="cls-8" d="M32.1,13.15c-.19-.76-.56-1.79-1.41-2a.23.23,0,0,0-.34.08.25.25,0,0,0,.15.37.88.88,0,0,1,.53.31,3.44,3.44,0,0,1,.59,1.29,8,8,0,0,1,0,.85c0,.09,0,.21,0,.32a.91.91,0,0,1-.17.09,4.3,4.3,0,0,1-3.47.31,4.66,4.66,0,0,1-.66-.35h0a.76.76,0,0,1,0-.16C27,13.08,27.1,12,28.39,11.52a.25.25,0,0,0,.08-.48.52.52,0,0,0-.38.07,2.32,2.32,0,0,0-1.18,1,2.61,2.61,0,0,0-.23,1.69c.05.17.07.36.11.55a.22.22,0,0,0,0,.18c0,.16.18.27.31.36a6.06,6.06,0,0,0,.85.41,6.21,6.21,0,0,1,0,1,7,7,0,0,0,0,1.12A1.16,1.16,0,0,0,29,18a1.67,1.67,0,0,0,1.17-.38.32.32,0,0,0,.12-.29,6,6,0,0,0,0-1.12c0-.24,0-.55,0-.82a4.25,4.25,0,0,0,1.6-.66.19.19,0,0,0,.08-.19.17.17,0,0,0,0-.1A5.48,5.48,0,0,0,32.1,13.15Zm-3.72,2.27Zm1.46,1.84a1.07,1.07,0,0,1-.73.24.8.8,0,0,1-.66-.27v0c-.05-.59,0-1.19-.05-1.79a4.8,4.8,0,0,0,.85.08,4.46,4.46,0,0,0,.63,0C29.86,16.06,29.91,16.66,29.84,17.26Z"/><path class="cls-9" d="M38.28,8.93a1.29,1.29,0,0,0,0-.28c-.1-.31-.17-.63-.27-.94a2,2,0,0,0-1.63-1.55,3.81,3.81,0,0,0-1-.16,4.77,4.77,0,0,0-1.77.44A1.36,1.36,0,0,0,32.8,7.6a4.36,4.36,0,0,0-.08,1.8.25.25,0,0,0,0,.22,3.5,3.5,0,0,0,1.45.77.76.76,0,0,0,0,.21c0,.46,0,.91,0,1.37,0,.74,0,1.12.8,1.3a4,4,0,0,0,.69,0,1,1,0,0,0,.43-.21.51.51,0,0,0,.22-.17,4.27,4.27,0,0,0,.06-1.13c0-.39,0-.78,0-1.16v-.23a4.69,4.69,0,0,0,1.36-.53c.15-.11.42-.22.48-.41S38.3,9.09,38.28,8.93Zm-2.43,3.68a.64.64,0,0,1-.49.17.92.92,0,0,1-.68-.15,15.13,15.13,0,0,1,0-2s0-.08,0-.12a3.42,3.42,0,0,0,.45,0,4.51,4.51,0,0,0,.73-.07C35.83,11.18,35.89,11.89,35.85,12.61ZM33.21,9.38a.66.66,0,0,0,0-.2,3.59,3.59,0,0,1,.1-1.56c0-.43.33-.62.7-.79a4,4,0,0,1,1.36-.32,3.42,3.42,0,0,1,1.51.35,1.38,1.38,0,0,1,.65.91c.11.31.16.62.28.93,0,.15,0,.3,0,.45s0,0,0,0-.23.16-.36.22A3.86,3.86,0,0,1,33.21,9.38Z"/><polygon class="cls-9" points="37.7 9.83 37.71 9.83 37.7 9.83 37.7 9.83 37.7 9.83"/><path class="cls-9" d="M35.76,6.81a1.34,1.34,0,0,0-1.12.24c-.21.34.22.52.5.55a1.72,1.72,0,0,0,1-.11A.3.3,0,0,0,36.2,7,.8.8,0,0,0,35.76,6.81Z"/><path class="cls-9" d="M38,13.58A2.13,2.13,0,0,0,36.81,12a.68.68,0,0,0-.44-.12.26.26,0,0,0-.19,0c-.34.11-.22.49.1.52.82.07,1.23,1,1.3,1.7a4.78,4.78,0,0,1,0,.93c-.24.11-.47.25-.71.37a4.33,4.33,0,0,1-3.49-.13,2.1,2.1,0,0,1-.3-.22,2.08,2.08,0,0,1-.09-.46,2.16,2.16,0,0,1,.89-2.08c.14-.13.42-.13.5-.31a.27.27,0,0,0-.06-.28.27.27,0,0,0-.31,0,2.68,2.68,0,0,0-1.28,1.23,2.8,2.8,0,0,0-.21,1.69c.07.21,0,.53.25.63h0a3.19,3.19,0,0,0,1.29.6s0,0,0,0c0,.69,0,1.39,0,2.08a.62.62,0,0,0,.05.36,1.29,1.29,0,0,0,.75.46,1.4,1.4,0,0,0,1.28-.36c.18-.26.11-.6.14-.89,0-.47,0-.93,0-1.39a1.7,1.7,0,0,0,0-.22,3.53,3.53,0,0,0,.9-.3l.59-.32a.39.39,0,0,0,.26-.19.31.31,0,0,0,.05-.1A5.44,5.44,0,0,0,38,13.58Zm-2.27,4.65a.88.88,0,0,1-1.19,0c0-.71,0-1.42,0-2.13l.48.06a6.49,6.49,0,0,0,.76,0C35.81,16.82,35.77,17.53,35.73,18.23Z"/><path class="cls-9" d="M43.46,13.4c-.22-.17-.55-.49-.84-.34a.25.25,0,0,0,.08.44c.25.05.41.28.63.4a1.71,1.71,0,0,1,.55,1.52c0,.4-.05.8-.11,1.2a.19.19,0,0,0-.07.08,6.87,6.87,0,0,1-2.07.62,2.85,2.85,0,0,1-2.33-.91,0,0,0,0,1,0,0v0a7.11,7.11,0,0,1,0-1,2.19,2.19,0,0,1,1.38-1.9.24.24,0,0,0,.06-.48A2.23,2.23,0,0,0,39,14.58a3.42,3.42,0,0,0-.15,1.71.44.44,0,0,0,0,.2s0,0,0,.07a1.45,1.45,0,0,0,.57.61,2.47,2.47,0,0,0,.75.4v1a2.64,2.64,0,0,0,.07.89,1.84,1.84,0,0,0,1.26.45,1.11,1.11,0,0,0,.87-.3l0,0c.21-.09.19-.36.2-.55,0-.47.09-.95.1-1.42.37-.11.73-.25,1.08-.39.13-.06.32-.1.39-.25s0,0,0-.06a.28.28,0,0,0,.13-.17,10.55,10.55,0,0,0,.11-1.38A2,2,0,0,0,43.46,13.4ZM42,19.2c-.37.33-1,.16-1.37,0,0-.49,0-1,0-1.46a3.86,3.86,0,0,0,.49.09,3.28,3.28,0,0,0,1-.06C42.12,18.23,42.06,18.71,42,19.2Z"/><path class="cls-10" d="M14.3,20.9a4.25,4.25,0,0,0-.39-1.8,2.92,2.92,0,0,0-.83-.85A6.83,6.83,0,0,0,11.87,18a4.15,4.15,0,0,0-.93.05A2.44,2.44,0,0,0,8.81,19.7a4.72,4.72,0,0,0-.08,2s0,0,0,0c-.2.51,1,1,1.45,1.05l.12,0c0,.66,0,1.33.05,2a.65.65,0,0,0,.24.57,1.26,1.26,0,0,0,.77.29,2.48,2.48,0,0,0,.81-.11,1.35,1.35,0,0,0,.44-.31.33.33,0,0,0,.08-.27c0-.36,0-.71,0-1.07s0-.74-.06-1.11c0,0,0,0,0,0a3.22,3.22,0,0,0,1.72-1,.27.27,0,0,0,0-.09C14.39,21.43,14.29,21.1,14.3,20.9Zm-2.19,2.43c0,.51.07,1.06.07,1.57h0a.59.59,0,0,1-.42.19,1,1,0,0,1-.88-.14c-.1-.1,0-.29-.06-.43,0-.56,0-1.12,0-1.68a5.58,5.58,0,0,0,1.29,0C12.07,23,12.12,23.19,12.11,23.33Zm1.3-1.52a3.62,3.62,0,0,1-1.43.52A4.23,4.23,0,0,1,9.43,22a.83.83,0,0,1-.21-.16s0,0,0,0l0-.31a3.32,3.32,0,0,1,.17-1.87,2.21,2.21,0,0,1,.73-.79,2.87,2.87,0,0,1,1-.28h-.05c.09,0,.2,0,.28,0a3.05,3.05,0,0,1,.8.06,2,2,0,0,1,.8.21,3.11,3.11,0,0,1,.58.73,6.17,6.17,0,0,1,.29,2h0C13.68,21.57,13.56,21.71,13.41,21.81Z"/><path class="cls-10" d="M12,18.9a1.72,1.72,0,0,0-1.42.2.38.38,0,0,0,.31.6c.42.09,1.11.12,1.37-.29A.4.4,0,0,0,12,18.9Z"/><path class="cls-11" d="M20.39,21.65a2.46,2.46,0,0,0-.12-.85,1.39,1.39,0,0,0-.4-.84,3.56,3.56,0,0,0-2-.8l-.16,0h0a6.24,6.24,0,0,0-.77.09,2.73,2.73,0,0,0-1.79,1,3.82,3.82,0,0,0-.46,2.62.32.32,0,0,0,0,.09c0,.22.23.35.41.44a4.14,4.14,0,0,0,1.44.55,4.17,4.17,0,0,0,0,.5c0,.42,0,.85.07,1.28,0,.59.41.85.9,1a1.4,1.4,0,0,0,1.38-.53c.07-.39,0-.8.07-1.2a2.81,2.81,0,0,0-.06-.82,1.38,1.38,0,0,1,0-.35,5.76,5.76,0,0,0,.59-.18,1.29,1.29,0,0,0,.75-.47c.15-.07.16-.31.16-.49A5.91,5.91,0,0,0,20.39,21.65Zm-2,3.05c0,.43-.05.85-.05,1.28a1,1,0,0,1-.71.28,1.25,1.25,0,0,1-.55-.28c-.1-.1-.05-.29-.08-.42C17,25,17,24.52,17,24a4.69,4.69,0,0,0,1.4-.05A2.48,2.48,0,0,0,18.43,24.7Zm.12-1.3h0a4.39,4.39,0,0,1-3.16-.4l-.23-.14c0-.13,0-.27,0-.37-.21-2,.72-2.78,2.64-2.85a3.06,3.06,0,0,1,1.51.51,1,1,0,0,1,.5.82,5.1,5.1,0,0,1,.11,1.35c0,.17,0,.35,0,.53,0,0,0,0,0,0a2.2,2.2,0,0,0-.25.17A5.46,5.46,0,0,1,18.55,23.4Z"/><path class="cls-11" d="M17.94,20a1.26,1.26,0,0,0-1.1.23c-.19.27.11.57.38.6a1.5,1.5,0,0,0,1-.09C18.65,20.53,18.33,20.1,17.94,20Z"/><path class="cls-8" d="M27.38,23.28a3,3,0,0,0-.1-.72,3.4,3.4,0,0,0-1.76-2.39,2.38,2.38,0,0,0-.94-.24c-.17.05-.35,0-.51.07l0,0c-.14,0-.27.09-.41.11a2.75,2.75,0,0,0-2.22,1.65,5.55,5.55,0,0,0-.09,2.15.23.23,0,0,0,.11.18c.09.22.35.38.53.52A2.39,2.39,0,0,0,23,25c-.06.66,0,1.33,0,2s.52.72,1,.73c.21,0,.36,0,.58-.05a1.17,1.17,0,0,0,.67-.36,2.7,2.7,0,0,0,.15-.8,12.85,12.85,0,0,0,0-1.52s0-.07,0-.1a6.87,6.87,0,0,0,1.29-.53,4.89,4.89,0,0,0,.55-.41.28.28,0,0,0,.14-.34A.64.64,0,0,0,27.38,23.28Zm-2.49,2.23a5.69,5.69,0,0,1-.11,1.54,1,1,0,0,1-.6.17,1.67,1.67,0,0,1-.63,0c-.17-.1-.09-.34-.11-.51,0-.5,0-1,0-1.51a.16.16,0,0,0,0-.07h.11A4.24,4.24,0,0,0,24.89,25,4,4,0,0,0,24.89,25.51Zm1.64-1.64a5.07,5.07,0,0,1-2.58.76,2.89,2.89,0,0,1-2.09-.72.12.12,0,0,0-.05-.05c0-.29-.07-.71,0-.91-.15-1.45.79-2.11,2.11-2.37l.17,0h.11a.2.2,0,0,1,.13-.05l.08,0h.13a.89.89,0,0,1,.51,0,2.68,2.68,0,0,1,1.53,1.37,3.87,3.87,0,0,1,.35,1.29,2.06,2.06,0,0,0,0,.42l-.07.06A3.81,3.81,0,0,1,26.53,23.87Z"/><path class="cls-8" d="M24.58,21c-.28-.08-1.49-.17-1.43.29-.21.41.34.59.66.62a1.69,1.69,0,0,0,1.11-.15C25.31,21.35,25,21,24.58,21Zm-.53.43h.2A.67.67,0,0,1,24.05,21.38Z"/><path class="cls-9" d="M33.23,22a3.15,3.15,0,0,0-2.16-.86s0,0-.06,0l-.28,0h0a5.16,5.16,0,0,0-1.66.39c-1.15.63-1.39,2.08-1.3,3.28a.23.23,0,0,0,0,.25,1.52,1.52,0,0,0,.8.65,3.6,3.6,0,0,0,.91.36l0,.19c0,.36,0,.72-.05,1.08s-.25,1.08.31,1.21a1.17,1.17,0,0,0,.52.16,1.49,1.49,0,0,0,1.53-.63c.07-.42,0-.86.06-1.29a2.69,2.69,0,0,0,0-.5,1.17,1.17,0,0,0,0-.32l.52-.17a4.12,4.12,0,0,0,1.07-.48.25.25,0,0,0,.27-.21,3.15,3.15,0,0,0,0-.44,6.25,6.25,0,0,0,0-1A2.35,2.35,0,0,0,33.23,22Zm-1.87,4.19c0,.57-.06,1.14-.07,1.72a.94.94,0,0,1-.79.31,1.06,1.06,0,0,1-.65-.15c.06-.63.06-1.27.11-1.91,0,0,0,0,0,0l.24,0a3.42,3.42,0,0,0,1.15-.07Zm.61-.77a4.45,4.45,0,0,1-2.26.2,3.71,3.71,0,0,1-1-.39,1.15,1.15,0,0,1-.47-.4s0,0,0,0a4,4,0,0,1,.43-2.26,2.64,2.64,0,0,1,2.12-.93s.05,0,.09,0c1.08-.08,2.44.57,2.41,1.81a8.85,8.85,0,0,1,0,1.36s0,.05,0,.08A5.66,5.66,0,0,1,32,25.46Z"/><polygon class="cls-9" points="30.21 26.2 30.21 26.2 30.2 26.2 30.21 26.2"/><path class="cls-9" d="M30.79,22.21c-1.17.08-.9.91.12.92a2.72,2.72,0,0,0,.63-.08.46.46,0,0,0,.39-.34C32,22.23,31.13,22.14,30.79,22.21Z"/><path class="cls-8" d="M40.12,23.19a2.78,2.78,0,0,0-.9-.6,6.21,6.21,0,0,0-1.63-.47,3.27,3.27,0,0,0-2.89,1.41,3.16,3.16,0,0,0-.34,2,1.47,1.47,0,0,0,.19.58c.28.45.87.58,1.36.79a.43.43,0,0,1,.17.13.37.37,0,0,1,0,.18L36,29a.94.94,0,0,0,0,.41.72.72,0,0,0,.33.34,1.87,1.87,0,0,0,1.61.15.8.8,0,0,0,.42-.32,1.12,1.12,0,0,0,.09-.37,15.07,15.07,0,0,0,0-1.9,2,2,0,0,0,1.85-1.15,3.62,3.62,0,0,0,.2-1.5,2.59,2.59,0,0,0-.22-1.18A2.11,2.11,0,0,0,40.12,23.19ZM38,27.77a9.17,9.17,0,0,1-.07,1.57,1.28,1.28,0,0,1-1.47-.1c0-.41.06-.82.07-1.24,0-.27,0-.54.07-.81.34.08.69.13,1,.18H38A2.89,2.89,0,0,1,38,27.77Zm1.75-1.56a1.61,1.61,0,0,1-.72.51,3.08,3.08,0,0,1-1.21.14,6,6,0,0,1-2.36-.61,1.13,1.13,0,0,1-.4-.27A2.1,2.1,0,0,1,35,24.1a2.36,2.36,0,0,1,1.35-1.28A3.6,3.6,0,0,1,38.9,23a1.77,1.77,0,0,1,1,.89,2.52,2.52,0,0,1,.09.95,3,3,0,0,1-.11,1.11A1.22,1.22,0,0,1,39.75,26.21Z"/><path class="cls-8" d="M36.93,23.37c-.47.12-.35.58,0,.72a3.37,3.37,0,0,0,.34.09c.34.11,1.38,0,1.19-.56C38.55,23.11,37.24,23.23,36.93,23.37Z"/><path class="cls-11" d="M1.83,13.61c-.36-.06-.5.45-.54.73a.9.9,0,0,0,.51,1,.85.85,0,0,0,1-.94C2.79,14,2.35,13.31,1.83,13.61Z"/><polygon class="cls-11" points="6.76 13.14 6.75 13.14 6.76 13.15 6.77 13.15 6.76 13.14"/><path class="cls-11" d="M7.22,13.38a.55.55,0,0,0-.46-.23,3.55,3.55,0,0,0-1,0,2.67,2.67,0,0,0-1.46-1.64.3.3,0,0,0-.32-.1c-.13,0-.26,0-.4,0A3.82,3.82,0,0,0,.78,12.51,3.93,3.93,0,0,0,.14,16a2.81,2.81,0,0,0,2.92,2,2.69,2.69,0,0,0,2.71-2.13H6A1.7,1.7,0,0,0,7,15.67a1.38,1.38,0,0,0,.2-.33,1,1,0,0,0,.54-.06,1.11,1.11,0,0,0,.63-1.15C8.38,13.54,7.72,13.36,7.22,13.38Zm-3.93,4.1C2,17.54.73,17,.56,15.61a3.39,3.39,0,0,1,.58-2.76,2.84,2.84,0,0,1,2-.9,1.48,1.48,0,0,1,1.67.48,3.63,3.63,0,0,1,.67,2.62c0,.12,0,.24-.07.36a.26.26,0,0,0-.07.1c0,.05,0,.08,0,.12A2.29,2.29,0,0,1,3.29,17.48Zm3.39-2.17a3.46,3.46,0,0,1-.79,0,4.39,4.39,0,0,0,0-1.77,4.62,4.62,0,0,1,1,.07,1,1,0,0,1,.09.55A1.66,1.66,0,0,1,6.68,15.31Zm.92-.5a.36.36,0,0,1-.21,0,1.66,1.66,0,0,0,.05-.66,1.72,1.72,0,0,0,0-.32c.18,0,.41,0,.47.23S7.88,14.71,7.6,14.81Z"/><path class="cls-7" d="M18.54,8s1.2,0,1.45-.84S20.45,4,18.28,3.87s-3,.37-3.21,1.7.09,1.89.59,2a2.44,2.44,0,0,1,.79.24l.2,2.12s.36.88.88.64.72-.29.91-1A5,5,0,0,0,18.54,8Z"/><path class="cls-10" d="M19.81,4.3a3.89,3.89,0,0,0-.4-.25,1.83,1.83,0,0,0-.5-.31,2,2,0,0,0-.75-.17,3.58,3.58,0,0,0-1.56.05,1.82,1.82,0,0,0-.72.25c-.12.11-.33.15-.35.34a3.25,3.25,0,0,0-.7,2.7c.15.59.81.91,1.5,1.09a4.18,4.18,0,0,0,0,.79c.1.85-.14,1.82,1,2a1.72,1.72,0,0,0,.83-.17c.31-.13.37-.53.43-.86a7.37,7.37,0,0,0,0-.94,2.54,2.54,0,0,0,0-.67,2,2,0,0,0,1.52-.75A3,3,0,0,0,19.81,4.3Zm-1.7,3.91a1.42,1.42,0,0,1,0,.41,4.28,4.28,0,0,1-.09,1.43c0,.12-.17.14-.27.18A.85.85,0,0,1,17,10.1a1.08,1.08,0,0,1-.12-.6c0-.45-.07-.94-.08-1.4.29,0,.57.07.79.08l.49,0A.07.07,0,0,1,18.11,8.21ZM19.8,6.79c-.2,1-1.57.86-2.34.89-.57,0-2.19-.27-2.16-1a2.9,2.9,0,0,1,.49-2c.13-.14.35-.25.46-.42s.34-.06.5-.13A3.05,3.05,0,0,1,18,4a1.77,1.77,0,0,1,1.11.4,1,1,0,0,1,.61.63A2.73,2.73,0,0,1,19.8,6.79Z"/><path class="cls-10" d="M16.85,4.67c0,.32.35.46.6.5a1.48,1.48,0,0,0,.55,0,.43.43,0,0,0,.15-.71C17.86,4.15,16.75,4.1,16.85,4.67Z"/><path class="cls-1" d="M28.86,4.21,29,6.66a1.16,1.16,0,0,0,.92.47c.54,0,.69-.07.77-.57s.21-2.1.21-2.1,1.5-.63,1.6-1.07.19-3-2-3.08S27.76,1.14,27.47,2a2.57,2.57,0,0,0,0,1.75C27.52,3.69,28.86,4.21,28.86,4.21Z"/><path class="cls-11" d="M32.76,2.57a10,10,0,0,1-.08-1.09s0-.05,0-.07a1.57,1.57,0,0,0-.15-.29c-.1-.13-.25-.24-.35-.39a2.66,2.66,0,0,0-.85-.49A3.26,3.26,0,0,0,29.83,0h0a1.08,1.08,0,0,0-.56.07,2.79,2.79,0,0,0-1.77,1.07A2.93,2.93,0,0,0,27.06,3a2,2,0,0,0,0,.64,1.25,1.25,0,0,0,.62.49,1.9,1.9,0,0,0,.92.39h0c0,.7,0,1.38,0,2.08a1.61,1.61,0,0,0,.06.35,1.17,1.17,0,0,0,.76.45c.47,0,1.06.05,1.38-.36A.31.31,0,0,0,31,6.85,8,8,0,0,0,31,6c-.05-.22,0-.94-.07-1.36A3.3,3.3,0,0,0,32.48,4c.3-.08.31-.33.31-.59S32.81,2.86,32.76,2.57ZM30.52,6.75a.86.86,0,0,1-.59.15.93.93,0,0,1-.7-.17,17,17,0,0,1-.05-2.14,10,10,0,0,0,1.23.11h.05A15.5,15.5,0,0,1,30.52,6.75Zm1.77-3.24a5.35,5.35,0,0,1-.64.41,3.38,3.38,0,0,1-1.77.26A3.69,3.69,0,0,1,28,3.7c-.43-.21-.45-.22-.42-.7A2.36,2.36,0,0,1,28,1.29,2.7,2.7,0,0,1,29.49.54s0,0,0,0a.23.23,0,0,0,.23,0,2.45,2.45,0,0,1,.81,0,2.13,2.13,0,0,1,1.36.69.77.77,0,0,1,.28.42,0,0,0,0,1,0,0C32.2,2.28,32.33,2.89,32.29,3.51Z"/><path class="cls-11" d="M30.08.86c-.15-.11-.33,0-.47.06s-.6.38-.32.68a1.23,1.23,0,0,0,.77.21C31.19,1.84,31.17.88,30.08.86Z"/><path class="cls-1" d="M41.07,10.54l-.32,3.37s0,.26.64.34.92.14,1.06-.17.47-3.06.47-3.06,1.84,0,2.11-.31.64-2.94-.66-3.41-3.41-.6-3.94.32a6.38,6.38,0,0,0-.66,2Z"/><path class="cls-11" d="M45.55,8.59a4.57,4.57,0,0,0-.43-1,2.89,2.89,0,0,0-1.8-1h0l-.12,0h0A3.67,3.67,0,0,0,40,7.77a3.27,3.27,0,0,0-.54,1.47,1.09,1.09,0,0,0,0,.26h0a.43.43,0,0,0,.05.16,2.12,2.12,0,0,0,.38.47,2.84,2.84,0,0,0,1,.63,24.47,24.47,0,0,0-.36,3.07c-.08.43.4.6.73.7a2.41,2.41,0,0,0,1.22-.12c.31-.11.38-.47.44-.76a20.42,20.42,0,0,0,.22-2.47,7.88,7.88,0,0,0,1.61-.2c.2-.08.53-.12.64-.32a.19.19,0,0,0,.09-.14c0-.25.12-.54.14-.81A4.74,4.74,0,0,0,45.55,8.59Zm-5.62.9v0Zm2.36,4.45a1.45,1.45,0,0,1-1.3,0,22.91,22.91,0,0,1,.33-3,6.35,6.35,0,0,0,1.29.23,6.89,6.89,0,0,1-.09,1.28A6.71,6.71,0,0,1,42.29,13.94Zm-2.35-4.5,0-.18a3.22,3.22,0,0,1,.37-1.12A3.25,3.25,0,0,1,43.13,7h.09a2.51,2.51,0,0,1,1.49.85,2.57,2.57,0,0,1,.4,1.42A4.78,4.78,0,0,1,45,10c0,.11-.05.22-.07.34h0C43.45,10.93,40.9,10.88,39.94,9.44Z"/><path class="cls-11" d="M43.06,7.38a.92.92,0,0,0-1,.12.43.43,0,0,0,.19.69.24.24,0,0,0,.26,0C43.15,8.37,43.91,7.71,43.06,7.38Z"/></g></g></svg>