<svg xmlns="http://www.w3.org/2000/svg" viewBox="0 0 25.96 31.95"><defs><style>.cls-1{fill:#6b1e1e;}.cls-2{fill:#3c58a4;}.cls-3{fill:#2d3687;}.cls-4{fill:#00a97c;}.cls-5{fill:#59c1d7;}.cls-6{fill:#faed62;}.cls-7{fill:#e52823;}.cls-8{fill:#04684c;}.cls-9{fill:#3b818f;}.cls-10{fill:#cbc479;}.cls-11{fill:#9f2224;}</style></defs><g id="Layer_2" data-name="Layer 2"><g id="Card"><path class="cls-1" d="M.59,32l-.11,0,0-.12A2.88,2.88,0,0,1,0,32Z"/><path class="cls-2" d="M9.59.14A6.24,6.24,0,0,0,6,3.58c-.52,1.75-1.3,5,0,6.46s3.39,2.79,5.71.47S13.43,6.13,13,5.18,11.66,0,9.59.14Z"/><path class="cls-3" d="M5.35,6.17A10.06,10.06,0,0,0,9.67,7a8.79,8.79,0,0,0,3.68-1s-.3,5.38-4.08,5.63C4.64,11.88,5.35,6.17,5.35,6.17Z"/><path class="cls-4" d="M18.12,2a6.39,6.39,0,0,0-2.81,4.12c0,1.33-.45,6.31,2.81,7.14A4.5,4.5,0,0,0,23.6,8.64C23.38,6.25,20.86,1.11,18.12,2Z"/><path class="cls-5" d="M3.42,12.85C2.45,13.2.79,15.09.5,17.74s.22,5.56,1.89,5.9,4.39,1.2,5.79-2.94C9.28,17.42,5.15,12.23,3.42,12.85Z"/><path class="cls-6" d="M13.12,11.38a5.12,5.12,0,0,0-2.83,3.29c-.55,1.82-1,4.24-.15,5.88.95,1.91,3.82,3.27,5.41,1.92a6.33,6.33,0,0,0,1.57-6.28C16.46,14.08,14.63,10.93,13.12,11.38Z"/><path class="cls-7" d="M21.63,14.33a8,8,0,0,0-3.73,6c-.12,2.26,1.47,6.13,4.28,5.61s4.07-4.44,3.73-5.91C25.32,17.45,23.58,13.33,21.63,14.33Z"/><path class="cls-1" d="M9.29,11.55a2.81,2.81,0,0,0,1.77-.6,5.48,5.48,0,0,0,1.6-2.15,6.6,6.6,0,0,0-.32-5.51A6.87,6.87,0,0,0,11.66,2C11.23,1.16,10.6.22,9.56.36A2.54,2.54,0,0,0,8.34,1a6.33,6.33,0,0,0-1.4,1.43A8.34,8.34,0,0,0,6,4.35a6.87,6.87,0,0,0-.4,3.42v0a5.44,5.44,0,0,0,.81,2.5A3.79,3.79,0,0,0,9.29,11.55Zm-.47.3a3.73,3.73,0,0,1-2.67-1.37C4.78,8.85,5,5.77,5.74,3.94,6.32,2.5,7.61.5,9.22.07c2.3-.61,3.6,3,4,4.71a6.64,6.64,0,0,1-.5,4.72A4.3,4.3,0,0,1,8.82,11.85Z"/><path class="cls-8" d="M15.29,8.07a6.51,6.51,0,0,0,4.16.68,15.76,15.76,0,0,0,3.91-1.33s1,5.24-3.37,6S15.29,8.07,15.29,8.07Z"/><path class="cls-9" d="M.14,19.51a8.15,8.15,0,0,0,4.8-.23c2.29-.94,3.43-1.51,3.43-1.51s.54,5.37-3.22,6.13A3.69,3.69,0,0,1,.42,21.15,10.17,10.17,0,0,1,.14,19.51Z"/><path class="cls-10" d="M9.69,17.15a23.63,23.63,0,0,0,4.12.92,5.53,5.53,0,0,0,3.31-.89S18,22.66,14,22.82C9.29,23,9.69,17.15,9.69,17.15Z"/><path class="cls-11" d="M17.9,20.38a8.45,8.45,0,0,0,4.68.77,9.71,9.71,0,0,0,3.33-1.07S25.82,26,22.18,26C17.9,26,17.9,20.38,17.9,20.38Z"/><path class="cls-1" d="M19.4,13.26a4.18,4.18,0,0,0,3.88-3.48,7.5,7.5,0,0,0-1.14-4.94C21.18,3.18,19,.72,17.2,2.78a7.54,7.54,0,0,0-1.88,4.67c-.09,2,.78,4.44,2.61,5.42A3.08,3.08,0,0,0,19.4,13.26Zm0,.29a3.76,3.76,0,0,1-2-.59,3.41,3.41,0,0,1-1.47-1.37,8.14,8.14,0,0,1,.88-8.92,3.42,3.42,0,0,1,.89-.85,2.33,2.33,0,0,1,1.95,0,6,6,0,0,1,2,1.65,9.21,9.21,0,0,1,2.06,6C23.4,11.69,21.77,13.71,19.37,13.55Z"/><path class="cls-1" d="M14,22.82a3,3,0,0,0,2.43-1.52,5.86,5.86,0,0,0,.69-3.69,10.48,10.48,0,0,0-1.2-3.91c-.73-1.36-2.35-3.12-3.82-1.57a9,9,0,0,0-2.13,7A4.23,4.23,0,0,0,14,22.82Zm-.2.34a4.56,4.56,0,0,1-1.67-.41,4.24,4.24,0,0,1-.84-.38A4.57,4.57,0,0,1,9.51,18.7a10.84,10.84,0,0,1,1.15-5.22,5.31,5.31,0,0,1,1.8-2.12h0c.05-.09.18-.11.28-.15a2.16,2.16,0,0,1,1.13,0c1.25.36,2,1.78,2.55,2.86a8.38,8.38,0,0,1,.81,2.43,7.3,7.3,0,0,1,.15,2.55C17.19,21.1,16.12,23.3,13.76,23.16Z"/><path class="cls-1" d="M22.15,25.79c1.3.06,2.22-1.05,2.81-2.08a5.49,5.49,0,0,0,.6-3.42A10.32,10.32,0,0,0,25,18a9.6,9.6,0,0,0-1.47-2.75A2.1,2.1,0,0,0,22,14.4c-.9,0-1.86,1.23-2.39,1.88a7.45,7.45,0,0,0-1.51,5.5c.33,2,1.86,4.12,4.07,4Zm-.35.34c-3.13-.11-4.46-3.92-4-6.53A8.73,8.73,0,0,1,20,15.24c.78-.86,2-1.55,3.14-.85a4.2,4.2,0,0,1,1.26,1.48,10.69,10.69,0,0,1,1.49,4.21c.24,2.16-.49,4.7-2.53,5.79A2.94,2.94,0,0,1,21.8,26.13Z"/><path class="cls-1" d="M4.67,23.85a3.82,3.82,0,0,0,2.08-1A4.21,4.21,0,0,0,8.25,20a5.66,5.66,0,0,0-.44-2.72,6.63,6.63,0,0,0-1.9-2.94c-.57-.63-2.29-1.71-3.06-1A7.87,7.87,0,0,0,1,16.38a8.13,8.13,0,0,0,.23,6c.66,1,2.36,1.43,3.51,1.47Zm-.5.36a3.65,3.65,0,0,1-3-1.38,5.77,5.77,0,0,1-1-3.32A8.83,8.83,0,0,1,2.66,13c1-1,2.76.4,3.5,1.09a7.69,7.69,0,0,1,2.21,3.67C9.15,20.74,7.57,24.16,4.17,24.21Z"/></g></g></svg>