<svg xmlns="http://www.w3.org/2000/svg" viewBox="0 0 35.04 35.06"><defs><style>.cls-1{fill:#fcd4ac;}.cls-2{fill:#1c1917;}.cls-3{fill:#e9a061;}.cls-4{fill:#6b1e1e;}.cls-5{fill:#59c1d7;}</style></defs><g id="Layer_2" data-name="Layer 2"><g id="Card"><path class="cls-1" d="M1.19,31.91c.1.21,29.75-.09,29.75-.09s-16.6-.16-18,0-11.72.09-11.72.09"/><path class="cls-1" d="M2.12,32.75S17,33,23.75,33h6.33c1.9,0,1.94-.09,2-.12s-18.52,0-20.36.12-9.62-.21-9.62-.21"/><path class="cls-1" d="M2.48,33.28c.1,0,13.32,0,16.57.2S33,33.63,33,33.63s-.12.25-6.42.17c-1.83,0-18-.38-20-.26a38.08,38.08,0,0,1-3.86,0l-.18-.26"/><path class="cls-1" d="M2.34,33.75c.09,0,13.32,0,16.57.2s13.94.15,13.94.15-.12.25-6.42.17c-1.84,0-18-.38-20-.26a34.92,34.92,0,0,1-3.86,0l-.18-.26"/><path class="cls-1" d="M1.55,32.13c.1,0,13.33,0,16.58.2s13.94.15,13.94.15l-15.79.06c-2.4,0-8.63-.27-10.68-.15a38.32,38.32,0,0,1-3.87,0l-.18-.26"/><path class="cls-1" d="M33.37,34c-.22-.2,1.33-29.27,1.33-29.27S34.16,21.1,34,22.44,33.37,34,33.37,34"/><path class="cls-1" d="M32.56,32.68S33,18,33.24,11.3c0-1.21.24-6,.26-6.24.1-1.87.17-1.87.2-1.94s-.75,18.24-1,20-.18,9.57-.18,9.57"/><path class="cls-1" d="M32,32.11c0-.11.51-13.14.49-16.41s.42-13.79.42-13.79-.26,0-.44,6.25c0,1.82-.36,17.89-.56,19.85a33.77,33.77,0,0,0-.17,3.81l.26.29"/><path class="cls-1" d="M31.54,32.05c0-.11.51-13.14.49-16.4s.42-13.79.42-13.79-.25,0-.44,6.25C32,9.92,31.65,26,31.45,28a34.93,34.93,0,0,0-.16,3.8l.25.29"/><path class="cls-1" d="M33.16,33.5c0-.12.51-13.14.49-16.41s.42-13.79.42-13.79S33.43,17,33.35,18.83c-.1,2.36-.08,8.61-.28,10.57a33.77,33.77,0,0,0-.17,3.81l.26.29"/><path class="cls-2" d="M25.77.54C22.46.44.9,0,.9,0S.59,4,.53,5.64.28,16.27.26,18.4s.46,7.74.38,9.82a11.89,11.89,0,0,0,.14,3s12.47.22,14.61.11,10.93.36,12.43.19a17.72,17.72,0,0,1,3.52.12s0-1,0-1.62-.22-2.91-.27-3.87.18-4.57.27-5.67.08-4.2,0-6.49,0-5,.13-6.92.17-3.89.24-4.7.15-1.5.15-1.5S29.09.64,25.77.54ZM19.14,24.28a2.88,2.88,0,0,1-1.56.34A5.57,5.57,0,0,1,16,24.39a.5.5,0,0,1-.26-.21.41.41,0,0,1-.15-.24l-.23,0a2.78,2.78,0,0,1-.58.05.47.47,0,0,1,0-.94,3.4,3.4,0,0,0,.45,0,.42.42,0,0,1,.11-.16,1.62,1.62,0,0,1,1.11-.35,2.74,2.74,0,0,1,1.06.17l.13.07a1.71,1.71,0,0,1,1.13.54l.06.1A.47.47,0,0,1,19.14,24.28Z"/><path class="cls-3" d="M25.52,16.25c-.4-1.51-.43-3.06-.74-3.34s-.9-.92-.9-.92l-1.4-1.29s-.29,1.11-.29,1.16-2.87-1.67-2.87-1.67l-.68,2.49L17.9,12l-.52,1.18a4.14,4.14,0,0,1-.77-1c-.17-.43-.65-1.41-.65-1.41a1.66,1.66,0,0,0-.4,1.07,3.68,3.68,0,0,1-.13,1,13.82,13.82,0,0,0-1.12-2.3c-.31-.28-.28-.44-.56-.34a1.08,1.08,0,0,0-.63.79,3.4,3.4,0,0,1-.39.86,4.66,4.66,0,0,1-.48-.88,4.29,4.29,0,0,0-.36-.74s-.51.68-.76,1.06a7,7,0,0,1-.51.7,6.49,6.49,0,0,0,0-1.08,6.62,6.62,0,0,1,0-.78s-1-.93-1.55-.33a2.41,2.41,0,0,0-1,1.65c-.1.82-.38,2.7-.38,2.7l-.39.09L6.91,13s-.53.27-.66,1.52S6,16.82,6,16.82s-.26-.56-.36-.38a.81.81,0,0,0-.14.72,1.37,1.37,0,0,1,0,.65l.09.51.13.61.07.39,0,.56L3.35,16.25c-.1,0-.56.37-.79.9a1.51,1.51,0,0,0,.62,1.71c.56.36.81.26,1.33,1.25A8.43,8.43,0,0,1,5,21.9l.14.05.18.09a1.68,1.68,0,0,0,.32.09c.1,0,.2,0,.3,0a.63.63,0,0,0,.24-.6A17.66,17.66,0,0,0,8.4,25a27.07,27.07,0,0,0,4.94,3.46,8.66,8.66,0,0,1,1.29.66l0,0a.3.3,0,0,1,.12-.13.32.32,0,0,1,.16-.09h0l.05,0h0l.13,0,.13,0h0l.11.05h0l.09.08h0a.41.41,0,0,1,.16.16l0,.12s0,.05,0,.07a5.2,5.2,0,0,0,1.53-.09,3.89,3.89,0,0,0,1.68-1.08s2.47-1.2,3.43-1.85,3.19-2.76,3.31-4.1A24.2,24.2,0,0,0,25.52,16.25ZM19,24.4a2,2,0,0,1-1.74.24l-.13,0a.42.42,0,0,1-.21.06,3,3,0,0,1-1.15-.25.41.41,0,0,1-.2-.12l-.08-.09a.64.64,0,0,1-.06-.18.14.14,0,0,1,0-.06l-.19,0a1.19,1.19,0,0,1-1-.37.46.46,0,0,1,.66-.62L15,23l.1,0h.25a3.9,3.9,0,0,1,2.5-.38.46.46,0,0,1,.37.73,2.8,2.8,0,0,1,.69.29A.46.46,0,0,1,19,24.4Z"/><path class="cls-4" d="M34.55.93h0l0-.05V.93Z"/><path class="cls-4" d="M12.59,16.37h0a7.4,7.4,0,0,1,2.05.13c.18-.31-.23-.45-.46-.48a3.78,3.78,0,0,0-.94-.16,12.28,12.28,0,0,0-2.24.35.28.28,0,0,0-.24.43s.78-.16.85-.18C12,16.42,12.27,16.38,12.59,16.37Z"/><path class="cls-4" d="M21.32,16.39h0Z"/><path class="cls-4" d="M19.5,16.9a3.5,3.5,0,0,0,.83-.31,6,6,0,0,1,1.1-.23,6.54,6.54,0,0,1,1.4,0c.24,0,.47.11.72.16s.13.07.18,0a.25.25,0,0,0-.09-.26,1.56,1.56,0,0,0-.7-.26,6.79,6.79,0,0,0-3,.29c-.26.08-.78.2-.57.57C19.39,16.89,19.44,16.9,19.5,16.9Z"/><path class="cls-4" d="M10,14a.27.27,0,0,1,.13,0l.2,0,.23,0,.25-.05.26,0h0l.32,0c.19,0,.37-.07.56-.09h.48l.52,0a4,4,0,0,1,.5.06l.28.05.11,0,.12,0,.32.1.3.13h0l.22.09.22.1.22.1.19.11.27.17h0a.28.28,0,0,0,.24-.13c.17-.29-.19-.45-.41-.54a5.67,5.67,0,0,0-1.15-.43,8.21,8.21,0,0,0-4.37.19.25.25,0,0,0-.15.25Z"/><path class="cls-4" d="M15.76,20.61l-.15,0c.05,0,.36.17.44.19a2.76,2.76,0,0,0,.64.05l1.6.05a1.82,1.82,0,0,0,1.15-.23c.93-.69,1.17,1.84.9,2.33a10.76,10.76,0,0,0-1.25-.55A6.16,6.16,0,0,0,16,22.29c-.92.22-1.84.4-2.77.54,0,0,.53-1.45.62-1.61s1.1-1.06,1-1.35a4.64,4.64,0,0,0-1.76,2.28A13.83,13.83,0,0,0,12.39,25a.52.52,0,0,0,0,.35c.18.4.41-.07.46-.23.18-.5-.14-1.76.51-1.62a6.46,6.46,0,0,1,1,.56,11.07,11.07,0,0,0,1.1.39,8,8,0,0,0,2.62.29c.49,0,1-.19,1.48-.25.16,0,.48-.1.63,0s.15.58.56.69a7.62,7.62,0,0,1-.12-1.78,7.12,7.12,0,0,0,.15-1.52,5.18,5.18,0,0,0-.58-1.47c-.14-.29-.18-.62-.33-.9s-.33-.39-.37-.68c0-.14,0-.32-.18-.34s-.17.08-.18.18a.43.43,0,0,0,.06.27c.25.56.71,1.25-.09,1.6a1.89,1.89,0,0,1-.82.1A14.82,14.82,0,0,0,15.76,20.61Zm-1.89,2.67h0Zm.83.31a.27.27,0,0,0,0,.12l-.19-.1Zm4.52-.47s0,0,0,0l.07,0Zm-1.48-.36a.45.45,0,0,1,.15.06c.08.08.06.26.06.36a.29.29,0,0,1-.11.21l-.14,0-.46.05h-.13c-.18-.05,0-.77-.15-.75a2.68,2.68,0,0,1,.49,0A2.21,2.21,0,0,1,17.74,22.76Zm-1.4,0c.11,0,.22-.05.28,0s.07.52-.07.6a.39.39,0,0,1-.18,0l-.33,0a1.13,1.13,0,0,1-.26,0,.3.3,0,0,1-.21-.15c0-.07,0-.4-.13-.36h0C15.7,22.9,16,22.84,16.34,22.78Zm.47,1.66,0,0a1.37,1.37,0,0,1-.91-.16.26.26,0,0,1-.11-.24L15.61,24a.22.22,0,0,0,.18,0,.46.46,0,0,0,.07-.07c.18-.12.63,0,.82.05s.19,0,.24.15A.26.26,0,0,1,16.81,24.44Zm1.77-.09,0,.06a.3.3,0,0,1-.22.1,5.68,5.68,0,0,1-.59,0,.76.76,0,0,1-.3-.05l0,0v-.05l0-.23a.17.17,0,0,1,0-.12.23.23,0,0,1,.1,0,2.74,2.74,0,0,1,.64,0c.27,0,.29.13.45.31C18.62,24.3,18.6,24.32,18.58,24.35Zm1.67-.51s0,0,0-.06h0v0Z"/><polygon class="cls-4" points="19.2 20.83 19.2 20.83 19.19 20.84 19.2 20.83"/><polygon class="cls-4" points="18.84 20.92 18.83 20.92 18.83 20.92 18.84 20.92"/><polygon class="cls-4" points="20.83 22.05 20.83 22.06 20.83 22.06 20.83 22.05"/><path class="cls-4" d="M17.6,24.34h0Z"/><polygon class="cls-4" points="17.34 23.46 17.35 23.46 17.36 23.46 17.34 23.46"/><polygon class="cls-4" points="17.01 23.07 17.01 23.07 17.01 23.08 17.01 23.07"/><polygon class="cls-4" points="17.78 24.01 17.77 24.01 17.77 24.01 17.78 24.01"/><polygon class="cls-4" points="19.39 20.75 19.39 20.75 19.38 20.76 19.39 20.75"/><polygon class="cls-4" points="14.04 29.99 14.04 29.98 14.04 29.98 14.04 29.99"/><path class="cls-4" d="M13.76,30.06l.08,0-.07,0h0l-.09,0Z"/><path class="cls-4" d="M14.84,28.27l0,0h0v0Z"/><polygon class="cls-4" points="15.79 4.66 15.79 4.65 15.79 4.65 15.79 4.66"/><polygon class="cls-4" points="16.64 7.19 16.64 7.19 16.64 7.2 16.64 7.19"/><polygon class="cls-4" points="21.19 6.98 21.19 6.98 21.19 6.98 21.19 6.98"/><polygon class="cls-4" points="22.09 6.76 22.1 6.77 22.1 6.77 22.09 6.76"/><path class="cls-4" d="M21.92,7.26a.4.4,0,0,0,.32-.17.08.08,0,0,1,0,0s0,0,0,0V7h0l-.06-.09a.41.41,0,0,0,0-.09l0,0h0l-.06,0-.08-.07h0l0,0h-.18a.23.23,0,0,0-.11,0h0l-.1,0h0l-.1.06,0,0h0l-.1.1h0l0,.05,0,.08a.69.69,0,0,0-.05.13l0,0a.62.62,0,0,0,.43.14A2.58,2.58,0,0,0,21.92,7.26Z"/><polygon class="cls-4" points="21.23 6.91 21.24 6.9 21.24 6.9 21.23 6.91"/><polygon class="cls-4" points="25.06 5.32 25.06 5.32 25.06 5.32 25.06 5.32"/><polygon class="cls-4" points="24.22 7.21 24.22 7.2 24.22 7.2 24.22 7.21"/><path class="cls-4" d="M24.22,7.2h0l0,0a.08.08,0,0,1,0,0v0Z"/><path class="cls-3" d="M30.36,30.72a1.9,1.9,0,0,0-.39-.23,3.66,3.66,0,0,0-1.25-1.19c-.62-.45-1.25-.89-1.91-1.29a16.23,16.23,0,0,0-1.91-1A9.15,9.15,0,0,0,23,26.28a2.75,2.75,0,0,0-1.62.49,10.32,10.32,0,0,0-1.87,1c-.51.38-.77,1-1.37,1.25s-1.28.46-1.92.68c-1.09-.57-2.32-.79-3.43-1.32A11.92,11.92,0,0,1,9.69,26.2a.44.44,0,0,0-.5-.09.52.52,0,0,0-.4-.45.38.38,0,0,0-.41-.08l-.11.05h0l-.12.05A3.46,3.46,0,0,0,7,26c-.73.27-1.45.59-2.15.93a24.39,24.39,0,0,0-4,2.43.48.48,0,0,0-.11.7.66.66,0,0,0-.28.76c.06.17.25.37.45.34L2.59,31l4.09.2,2.21.1h.16a.42.42,0,0,0,.4.24l.58,0a.45.45,0,0,0,.16,0l.13,0a.15.15,0,0,0,.07,0c2-.08,4.08-.13,6.12-.17a.41.41,0,0,0,.39.22c.53-.06,1.06-.14,1.58-.25,1.81,0,3.61,0,5.41,0h1.82l.11,0h.07a.38.38,0,0,0,.41.26,18.76,18.76,0,0,1,3.82,0C30.64,31.65,30.68,31,30.36,30.72Z"/><path class="cls-5" d="M8,6.15c-.1-.07-.35-.21-.37-.34l0,0s.13-.07.16-.07a.39.39,0,0,1,.31.15,1.45,1.45,0,0,0,.58.46.75.75,0,0,0,1-.82,1.32,1.32,0,0,0-1-1.08,1.65,1.65,0,0,0-.44,0l-.22,0a1.65,1.65,0,0,0-1.66.8,1.25,1.25,0,0,0-.08,1,1.26,1.26,0,0,0,.77.71A1.66,1.66,0,0,1,8,8.14V8.3a1.09,1.09,0,0,1,0,.14s0,0,0,0a.22.22,0,0,1-.14,0,2.09,2.09,0,0,1-.46-.26,1.91,1.91,0,0,0-.56-.26c-.32-.09-.71.23-.58.57a1.73,1.73,0,0,0,2.44.87,1.55,1.55,0,0,0,.73-1.05A1.58,1.58,0,0,0,9,7,6.26,6.26,0,0,0,8,6.15Z"/><path class="cls-5" d="M15.21,7.05A1.58,1.58,0,0,0,14.15,6a1.28,1.28,0,0,0-1.47.33,1,1,0,0,0-1.12-.6,1.23,1.23,0,0,0-.67.34.46.46,0,0,0-.59.44l-.12,2.38a.47.47,0,0,0,.46.46.5.5,0,0,0,.26.08.47.47,0,0,0,.46-.47,8.22,8.22,0,0,0,.07-1.49c0-.15,0-.3,0-.45l0-.14a.37.37,0,0,1,.28-.23h.09a.13.13,0,0,1,0,0,1.11,1.11,0,0,1,.09.46c.07.54.13,1.08.19,1.62a.47.47,0,0,0,.94,0,7.71,7.71,0,0,1,.13-1.44.88.88,0,0,1,.21-.42l.11-.06a.42.42,0,0,0,.4.07h0a1.05,1.05,0,0,1,.33.6,5.12,5.12,0,0,1,0,1.41.47.47,0,0,0,.92.13A2.87,2.87,0,0,0,15.21,7.05Z"/><path class="cls-5" d="M17.56,6.72a2,2,0,0,0-.22-.44.74.74,0,0,0-.68-.41,1.19,1.19,0,0,0-.42,0,.46.46,0,0,0-.33.52.45.45,0,0,0,.46.4h.17a.36.36,0,0,1,0,.1.64.64,0,0,0,0,.07h0V7a5,5,0,0,1,0,.67c0,.24,0,.47,0,.71s0,.65.27.84a.58.58,0,0,0,.53,0,.65.65,0,0,0,.36-.4,3.1,3.1,0,0,0,.13-.74A3.06,3.06,0,0,0,17.56,6.72Z"/><path class="cls-5" d="M17.29,4.72h0l-.05-.12h0l-.08-.09h0l-.05,0L17,4.4h0l-.11,0h0l-.13,0H16.6l-.12,0-.06,0s0,0-.05.05h0l0,0-.06.07h0l-.05.11h0a.59.59,0,0,0,0,.13h0a.6.6,0,0,0,0,.12h0a.22.22,0,0,0,.05.11h0l0,0,0,0,.1.07a.4.4,0,0,0,.13.06h0l.13,0h0l.13,0h0l.12,0,0,0,.05,0a.37.37,0,0,0,.12-.13l0-.06a.2.2,0,0,0,0-.11A.34.34,0,0,0,17.29,4.72Z"/><path class="cls-5" d="M16.27,5.12Z"/><path class="cls-5" d="M19.41,5.23a1.33,1.33,0,0,0-.18-.45h0a.55.55,0,0,0-.13-.34.6.6,0,0,0-.77-.11.47.47,0,0,0-.1.73c.08.1.18.16.22.25a1.11,1.11,0,0,1,.07.26c0,.31,0,.63,0,.94a19.92,19.92,0,0,1-.11,2,.48.48,0,0,0,.47.47.48.48,0,0,0,.47-.47c.07-.75.11-1.51.11-2.26A6.17,6.17,0,0,0,19.41,5.23Z"/><path class="cls-5" d="M22.11,5.9a1.46,1.46,0,0,0-1.67.76,2.26,2.26,0,0,0,.11,1.8,1.49,1.49,0,0,0,.7.68,2.34,2.34,0,0,0,1.05.16.47.47,0,1,0,0-.93H22l-.14,0h0l-.1,0h-.06l-.05,0h0l-.07,0,0,0h0l-.1-.1,0-.05L21.35,8V7.9l.9,0a1.4,1.4,0,0,0,.41-.06.72.72,0,0,0,.45-.48A1.26,1.26,0,0,0,22.11,5.9ZM21.34,7l0,0s0,0,0,0h0l.12-.07h0l.06,0,.08,0h.2l.08,0h0l.07,0,0,0,0,0h0Z"/><path class="cls-5" d="M22,6.83h0Z"/><path class="cls-5" d="M24.82,8.66l-.07-.09a.45.45,0,0,0-.21-.12l-.09,0-.2,0-.16,0a.51.51,0,0,0-.24.13l-.09.12,0,.11h0a.68.68,0,0,0,0,.15c0,.05,0,.1,0,.15a.64.64,0,0,0,.15.25l.11.08a.41.41,0,0,0,.26.07.38.38,0,0,0,.15,0l.07,0,.07,0a.58.58,0,0,0,.12-.1l0-.06a.22.22,0,0,0,.1-.09A.32.32,0,0,0,24.87,9l0-.12A.67.67,0,0,0,24.82,8.66Z"/><path class="cls-4" d="M35,4.55A1.08,1.08,0,0,0,35,4.22a2,2,0,0,0-.36-.51C34,3,33.45,2.24,32.9,1.49a3.69,3.69,0,0,0-.65-.77c-.07,0-.9-.41-.9-.29S25.79.27,25.25.24C18.14-.17,11,.11,3.85.05c-1,0-2-.09-2.95,0-.76.05-.49.4-.49,1C.41,3.37.24,5.67.18,8,.09,10.93,0,13.86,0,16.82c.08,2.46-.06,4.94.11,7.4.09,1.23.11,2.47.16,3.7,0,.66.07,1.32,0,2a3.3,3.3,0,0,0,0,1.5,2.14,2.14,0,0,0,.3.44l2.05,2.5c.21.25.46.49.8.38,0,0,0,0,0,0a45,45,0,0,1,7.06-.12c4.48,0,9,.19,13.43.32,1.85.07,3.7.08,5.56.06.67,0,4.2.34,4.26-.5.28-3.77.43-7.56.43-11.34.11-3.13.2-6.26.31-9.38.06-1.6.13-3.2.2-4.8S35.07,6,35,4.55ZM1.09.55c.62,0,1.23.06,1.85,0A13.25,13.25,0,0,0,5,.59c1.29,0,2.59,0,3.9.09,2.58-.12,5.17,0,7.76-.13,5,.11,9.94.27,14.91.44,0,.13,0,.26,0,.38,0,.85-.09,1.69-.11,2.54s-.17,1.49-.17,2.24c0,1.16-.25,2.31-.21,3.48-.13,2.56.1,5.12.06,7.69.06,1.71-.2,3.4-.27,5.11-.06,2-.11,4.07,0,6.11.08.91.21,1.78.27,2.69h-.05a6.05,6.05,0,0,0-.5-.66c-.28-.29-.57-.56-.86-.83a20.46,20.46,0,0,0-1.86-1.48,20.19,20.19,0,0,0-4.56-2.32c.32-.77,1.25-1.18,1.73-1.84a5.62,5.62,0,0,0,.88-2.73A14.62,14.62,0,0,0,26,18.49c0-.48-.16-.95-.18-1.43-.11-1.14-.45-2.25-.64-3.38-.09-.62-.26-1.23-.38-1.84,0-.22,0-1.48-.53-1.22a.42.42,0,0,0-.18.36,1.49,1.49,0,0,0,.08.41,1.76,1.76,0,0,1,.06.88c-.21-.15-.3-.43-.46-.65a7.12,7.12,0,0,0-.73-.82c-.22-.25-.65-.8-1-.38A4.06,4.06,0,0,0,22,11.57,14.91,14.91,0,0,1,19.63,10c-.2-.21-.55-.43-.74-.21a.48.48,0,0,0-.08.27l-.29,2.28-.33-.86c-.1-.25-.3-.55-.55-.46s-.22.28-.25.47L17.2,13c-.28-.82-.57-1.64-.86-2.46-.06-.18-.2-.41-.39-.35a.37.37,0,0,0-.19.16A2.65,2.65,0,0,0,15.32,12l-.86-1.84a.84.84,0,0,0-.22-.3.59.59,0,0,0-.58.08,2.09,2.09,0,0,0-1,1.44,5.65,5.65,0,0,1-.24-.92c-.1-.31-.41-.6-.71-.47a.73.73,0,0,0-.32.35l-.54.92,0-1c0-.12,0-.25-.1-.31s-.38.16-.42.39a9,9,0,0,0-.08,1.87.46.46,0,0,0,.14.34c.2.14.44-.11.55-.32l.91-1.68c.08.38.18.75.29,1.11a.71.71,0,0,0,.24.4.5.5,0,0,0,.66-.2,2.34,2.34,0,0,0,.25-.73.86.86,0,0,1,.42-.62.28.28,0,0,1,.22,0,.42.42,0,0,1,.16.21l1,2.38c.08.17.21.38.4.35s.25-.26.27-.45c.06-.63.1-1.26.14-1.89a6.43,6.43,0,0,0,.87,2.18c.13.2.35.42.57.32a.51.51,0,0,0,.23-.29,4.26,4.26,0,0,0,.25-.93l.51.78a.45.45,0,0,0,.22.21c.26.1.44-.26.48-.54a17.49,17.49,0,0,0,.16-2.4,13.58,13.58,0,0,0,2.52,1.63.62.62,0,0,0,.54.08c.37-.18.08-.78.26-1.14.32.37.69.69,1,1.06s.31.63.52.9.74.43.54.88-.86-.09-1.09-.14a7,7,0,0,0-2.41-.17c-.18,0-2.1.25-1.6.78.12.13.34.06.51,0a6.09,6.09,0,0,1,2.37-.24c.64,0,2.29,0,2.47.81a20.36,20.36,0,0,1,.59,5.71,6.53,6.53,0,0,1-.9,3.06,7.56,7.56,0,0,1-1.23,1.42,11,11,0,0,1-2.25,1.63c-.7.37-1.93.49-2.41,1.13a4.83,4.83,0,0,1-.54.74,2.58,2.58,0,0,1-2,.38,1.94,1.94,0,0,1-1.53-.84.37.37,0,0,0-.3.41,8.51,8.51,0,0,1-1.67-.72,10.85,10.85,0,0,1-3.37-2.76c-.56-.69-1.19-1.34-1.74-2a6.32,6.32,0,0,1-1-2.46c-.17-.71-.31-1.42-.42-2.14a1.19,1.19,0,0,1,.06-.75c.11-.26.36-.41.39-.71a5.22,5.22,0,0,0,0-1,5.09,5.09,0,0,1,.31-2.25l.3,1c.09.28.36.53.62.22a.8.8,0,0,0,.16-.41c.13-.66.13-1.32.22-2a3.51,3.51,0,0,1,.72-1.83c.11-.12.8-.83.25-.9A2.18,2.18,0,0,0,9.85,8a2.45,2.45,0,0,0-1-1.64.7.7,0,0,0,.68-.25,1.06,1.06,0,0,0,.17-.83,1.47,1.47,0,0,0-.51-.94A2,2,0,0,0,7.81,4a2.71,2.71,0,0,0-1.73.68,1.48,1.48,0,0,0-.32,1.73,2.54,2.54,0,0,0,1.16.9,1.83,1.83,0,0,1,1,1,8.3,8.3,0,0,1-.85-.59.71.71,0,0,0-.92.13A1.07,1.07,0,0,0,6,8.94a1.73,1.73,0,0,0,.74.82,3.13,3.13,0,0,0,1.83.32,7.32,7.32,0,0,0-.83,1.73,5.37,5.37,0,0,0-.3,2.06l-.26-.95A.47.47,0,0,0,7,12.66c-.19-.13-.42.11-.52.32a6.18,6.18,0,0,0-.61,2.87c0-.24-.35-.35-.52-.16a.85.85,0,0,0-.11.7l.44,3.22-2.52-4a.41.41,0,0,0-.23-.2c-.15,0-.28.15-.26.31a.86.86,0,0,0,.21.4,2,2,0,0,0-.6,1.6,2.47,2.47,0,0,0,.86,1.53c.45.39,1,.7,1.23,1.27.13.39,0,.83.18,1.22a1.1,1.1,0,0,0,1.72.37c.36.6.76,1.2,1.17,1.77A8.37,8.37,0,0,0,8.4,25a.46.46,0,0,0-.13.27A23.83,23.83,0,0,0,.86,28.77c0-.4,0-.81-.08-1.21,0-1.6-.14-3.19-.2-4.79,0-2.48,0-4.92,0-7.41C.62,11.91.65,8.45.87,5c.06-1,0-2,.06-2.94,0-.5,0-1,0-1.51ZM.83,31h0c0-.14,0-.28,0-.41a8.69,8.69,0,0,0,0-1.14.31.31,0,0,0,.22-.16,14.74,14.74,0,0,1,1.42-1,24.06,24.06,0,0,1,5.75-2.49.3.3,0,0,0,.24-.09c.16.2.36.38.52.57.4.43.79.85,1.21,1.26a13.85,13.85,0,0,0,1.22,1.08l.12.09L12,29c.14.07.28.16.43.23l.38.2.37.19.11.06h0l.15.08.11,0,.25.1h0L14,30l.19.05.11,0H15a0,0,0,0,0,0,0c0-.42-.52-.23-.77-.36A19.3,19.3,0,0,1,12,28.42C11.43,28,10.9,27.5,10.4,27a8.63,8.63,0,0,0,1.31.93,9,9,0,0,0,3.08,1.33h.05a.24.24,0,0,0,.17-.06,3.63,3.63,0,0,0,1.61.41h.14a3,3,0,0,0,2.09-.85,1.22,1.22,0,0,0,.24-.45c.45-.16.85-.43,1.28-.63s.78-.34,1.16-.52a7.37,7.37,0,0,0,1.26-.86c.86.34,1.73.63,2.55,1.05a19,19,0,0,1,5.08,3.82l-.57-.05c-.57.07-1.14,0-1.7.07-.82,0-1.64-.08-2.47,0-.38,0-.77,0-1.15,0-1,0-2,0-2.92,0-2.15-.06-4.3-.19-6.45-.17l-4.92,0C9.12,31,8,31.06,6.88,31c-.63,0-1.25.1-1.88.07s-1.4,0-2.09,0A9.66,9.66,0,0,0,.83,31Zm5.34-9.48a.2.2,0,0,0-.14,0,1.42,1.42,0,0,1-.38.26,1.36,1.36,0,0,1-.53-.22c-.17-.24-.06-.57-.08-.86a1.54,1.54,0,0,0-.36-1,12.13,12.13,0,0,1-.94-.83A2.27,2.27,0,0,1,3,18a1.21,1.21,0,0,1,.23-1.39l0,0a18.35,18.35,0,0,0,2,3.22c.35.44.59,1,.91,1.42A.35.35,0,0,0,6.17,21.53ZM8.35,7.8a7.15,7.15,0,0,0-1.45-1,1.75,1.75,0,0,1-.67-.57,1,1,0,0,1,0-.77c.07-.15.25-.24.27-.41a2.07,2.07,0,0,1,1.71-.38c.59,0,.65.07.9.59.18,1.29-.49.23-1,0a.53.53,0,0,0-.82.45,1.14,1.14,0,0,0,.77.94,5.76,5.76,0,0,1,.91.72,1.78,1.78,0,0,1,.23,1.2A1.25,1.25,0,0,1,8,9.61a1.21,1.21,0,0,1-.46-.12,2.09,2.09,0,0,1-.6-.24c-.24-.23-.55-.54-.46-.9.06-.09.21-.26.32-.19s.22.31.36.44a1,1,0,0,0,.79.31C8.47,8.89,8.65,8.17,8.35,7.8Zm.23-1.61-.07,0C8.29,6,8,5.93,7.93,5.64,8.16,5.8,8.34,6,8.58,6.19ZM31.33,34.38l-3.41,0-5.5-.1-11-.18c-.69,0-8.1-.27-8.1.09h0c-.77-.86-1.45-1.78-2.21-2.67a4.69,4.69,0,0,0,.92,0H3.46l2.74,0,5.48,0,11,.08,4.28,0,2.19,0a6.55,6.55,0,0,1,1.93.05c.29.11.31.22.52.52A9.29,9.29,0,0,1,33,34.38Zm3-28.67c0,.15,0,.3,0,.45L34.18,9c-.11,2.29-.36,4.62-.31,6.91s-.2,4.82-.18,7.24a102.65,102.65,0,0,1-.39,10.66,7,7,0,0,1-1.69-3.26c0-1-.22-2-.25-3.05s0-1.92,0-2.88.05-1.87.1-2.8c.06-1.12.21-2.21.24-3.33.08-2.86,0-5.8,0-8.68,0-1.49.08-3,.19-4.45,0-.65.13-1.3.14-2a6.91,6.91,0,0,1,.12-2c.67.77,1.2,1.67,1.86,2.46A2.26,2.26,0,0,1,34.36,5.71Z"/><path class="cls-4" d="M9.9,6.73a13.15,13.15,0,0,0,.21,2.43.74.74,0,0,0,1.31.23,3.35,3.35,0,0,0,.3-2.31,4,4,0,0,1,.18,1.34c0,.33-.09.71.12,1,.36.57,1.21.19,1.33-.38.26-.34-.29-2.18.43-1.85.31.39.12,1,.13,1.41a2.08,2.08,0,0,0,.26,1c.47.56,1.24,0,1.41-.56.47-1.54-.66-4.5-2.58-3a1.6,1.6,0,0,0-.84-.63,1.65,1.65,0,0,0-1.3.27A.62.62,0,0,0,10,5.9a.29.29,0,0,0-.14.31C9.91,6.38,9.89,6.56,9.9,6.73Zm.72-.63h0a.29.29,0,0,0,.35.13c.13-.08.21-.21.36-.28a1,1,0,0,1,1.37.56c.23.3.47,0,.68-.15.92-.69,1.5.31,1.69,1.13,0,.57.25,1.46-.39,1.76-.22,0-.22-.66-.22-.85a2.07,2.07,0,0,0-.26-1.58A.77.77,0,0,0,13,7c-.33.65.11,1.41-.22,2a.39.39,0,0,1-.25.12c-.15-.15-.06-.39-.07-.58a9.76,9.76,0,0,0,0-1.08c-.06-.48-.33-1.5-1-1a.94.94,0,0,0-.22.92,2.8,2.8,0,0,1-.12,1.46c-.33.62-.55-.09-.53-.45a21.56,21.56,0,0,1-.11-2.27C10.5,6.16,10.54,6.07,10.62,6.1Z"/><path class="cls-4" d="M16.59,5.6h.07a.85.85,0,0,0,.94-.81c0-.44-.34-.87-1.05-.8a1.19,1.19,0,0,0-.51.16h0l0,.06-.08.12h0a3,3,0,0,0-.15.31s0,0,0,.06,0,.11,0,.16h0l.05,0A.92.92,0,0,0,16.59,5.6Zm.1-1.08a.48.48,0,0,1,.29.09c.22.21,0,.44-.28.45a.43.43,0,0,1-.36-.23V4.75a.51.51,0,0,0,0-.13A.76.76,0,0,1,16.69,4.52Z"/><path class="cls-4" d="M16.27,7s0,0,0,.06c0,.22,0,.44,0,.69a3.18,3.18,0,0,1,0,.61c-.12.48-.26,1.12.38,1.25l.15,0a1.51,1.51,0,0,0,.37-.07.7.7,0,0,0,.55-.2c.5-.59,0-2.24-.07-3a.83.83,0,0,0-.76-.72c-.28,0-1.14-.09-1.08.35a.56.56,0,0,0-.08.71C15.87,6.87,16.12,6.85,16.27,7Zm-.1-.65a.5.5,0,0,1,.08-.12.19.19,0,0,1,.12-.07.08.08,0,0,1,.07,0c.45-.07.61,0,.69.23a.15.15,0,0,1,.06.09.2.2,0,0,1,0,.11s0,.07,0,.1a.43.43,0,0,1,0,.11l.06.28.06.39v0c0,.17.07.33.11.49a2,2,0,0,1,0,.24,1.9,1.9,0,0,1,0,.25.34.34,0,0,1,0,.1v.13a1,1,0,0,1,0,.16s0,0,0,.05l0,.05-.05,0-.11,0h-.14l0,0h0l-.13.05-.11,0h-.08l-.12,0A.24.24,0,0,1,16.65,9a.37.37,0,0,1,0-.11s0-.08,0-.12,0-.26,0-.38,0-.2,0-.3a2.43,2.43,0,0,0,0-.27h0V7.5l0-.31h0V6.93h0a.28.28,0,0,0,0-.09h0a.11.11,0,0,0,0,0h0a.41.41,0,0,0,0-.08l0,0,0,0h0l0,0,0,0h0l0,0-.05,0h0l-.15,0-.08,0a.08.08,0,0,1,0-.07A.09.09,0,0,1,16.17,6.33Z"/><path class="cls-4" d="M18.45,5.57c0,.83-.14,1.69-.14,2.54,0,.43-.17,1.15.41,1.26,1,.15,1.11-.93,1.1-1.64a11.36,11.36,0,0,0,0-1.65,3.81,3.81,0,0,0-.4-1.89A.7.7,0,0,0,18.74,4c-.33,0-1.33.19-.95.69C17.7,5.18,17.86,5.55,18.45,5.57Zm-.08-1c.2,0,.48-.17.65,0A4,4,0,0,1,19.29,6a12.07,12.07,0,0,1,0,1.7c-.06.38.08,1-.34,1.18h-.09A23.06,23.06,0,0,1,19,6.34C19,5.75,19.16,5,18.32,5h0A1,1,0,0,1,18.37,4.57Z"/><path class="cls-4" d="M20.41,8.93a1.94,1.94,0,0,0,1.32.85h0c.71.22,2-.64,1.29-1.37-.28-.25-.67-.11-1-.19-.16,0-.39,0-.45-.14.24-.11.49,0,.74,0A5.68,5.68,0,0,0,23,7.93c.68-.33.43-1.37,0-1.78a1.62,1.62,0,0,0-1-.49,1.86,1.86,0,0,0-1,.17c-.15,0-.26.11-.36.21s-.64.4-.49.72A2.17,2.17,0,0,0,20.41,8.93ZM21,6.43A1.28,1.28,0,0,1,22,6.22a3.08,3.08,0,0,1,.42.15.94.94,0,0,1,.42,1c-.16.06-.32,0-.5.08a4.8,4.8,0,0,0-.85,0,.61.61,0,0,0-.09,1.15,2.64,2.64,0,0,0,1,.12c.07,0,.24,0,.3.05s0,.06,0,.08a1,1,0,0,1-.67.35l-.43-.06a2.35,2.35,0,0,1-.88-.89A1.67,1.67,0,0,1,21,6.43Z"/><path class="cls-4" d="M24,7.88l.17,0c.39,0,.55-.55.65-.88a11.81,11.81,0,0,0,.5-1.41,1.78,1.78,0,0,0,0-1.07.86.86,0,0,0-.92-.31c-.87.1-.67,1.26-.74,1.89,0,.45,0,.9,0,1.35A.28.28,0,0,0,24,7.88Zm.08-1c0-.07,0-.14,0-.22h0c0-.17,0-.34.08-.51s.05-.3.06-.45a3.87,3.87,0,0,1,0-.48s0,0,0-.08A.6.6,0,0,1,24.34,5v0l.06-.15h.07a.19.19,0,0,1,.07-.06.34.34,0,0,1,.14-.05.32.32,0,0,1,.14,0l.09,0a.59.59,0,0,1,.14.06.13.13,0,0,1,.06.07.38.38,0,0,1,0,.1.47.47,0,0,1,0,.17,2.25,2.25,0,0,1-.05.22h0c0,.13-.07.26-.1.39h0l-.06.21h0c0,.07,0,.13,0,.2a2.25,2.25,0,0,1-.08.24c0,.07-.05.15-.07.23a2.41,2.41,0,0,1-.08.25,1.84,1.84,0,0,1-.09.25.91.91,0,0,0-.07.14v0s0,0,0,0l-.05,0h0l-.08.06-.07,0h0a.18.18,0,0,1-.09,0,.28.28,0,0,1-.08-.11.57.57,0,0,1,0-.13A1.43,1.43,0,0,1,24.09,6.93Z"/><path class="cls-4" d="M23.78,9.63a.8.8,0,0,0,.44.13,1.08,1.08,0,0,0,1.05-1c0-.41-.44-.64-.81-.7a.88.88,0,0,0-.76.34C23.16,8.57,23.36,9.38,23.78,9.63Zm.1-.63a.36.36,0,0,1,0-.11A.45.45,0,0,1,24,8.77a.51.51,0,0,1,.13-.16.56.56,0,0,1,.25-.14h.19a.53.53,0,0,1,.15.08.35.35,0,0,1,.11.1.39.39,0,0,1,.06.15.31.31,0,0,1,0,.19h0a.55.55,0,0,1-.19.21l0,0a.23.23,0,0,1-.07.07l-.07.06a.35.35,0,0,1-.14.06h-.11l-.1,0a.55.55,0,0,1-.19-.15.36.36,0,0,1,0-.11.2.2,0,0,1,0-.11Z"/><path class="cls-5" d="M25.09,4.78a.53.53,0,0,0-.45-.27.62.62,0,0,0-.49.29,1.08,1.08,0,0,0-.17.61c0,.19,0,.38,0,.58a.17.17,0,0,1,0,.07c0,.11-.07.23-.12.35a.43.43,0,0,0,0,.33l-.06.36a.47.47,0,0,0,.9.25c.07-.35.12-.7.16-1a6.82,6.82,0,0,0,.23-.77A1,1,0,0,0,25.09,4.78Z"/></g></g></svg>