<svg xmlns="http://www.w3.org/2000/svg" viewBox="0 0 21.31 36.67"><defs><style>.cls-1{fill:#fcd4ac;}.cls-2{fill:#d09971;}.cls-3{fill:#6b1e1e;}</style></defs><g id="Layer_2" data-name="Layer 2"><g id="Card"><path class="cls-1" d="M18.94,9.8S16.18.08,11.26.07,3,8.1,3,8.1A16.5,16.5,0,0,0,.35,11.15c-.75,1.34,0,3.7,0,3.7s.28,3.86,1.08,5.46a33.58,33.58,0,0,0,2.73,4.14,7.91,7.91,0,0,0-2.12,3.81,15.71,15.71,0,0,0,.39,5.15s5.14,4,9.65,3C17.7,35.17,19,31.7,19,31.7a16.29,16.29,0,0,0-.36-3.88,10.46,10.46,0,0,0-1.58-3.35s2.14-4.56,2.77-5.52a17,17,0,0,0,1.43-6.28,5.23,5.23,0,0,0-1.8-3L18.6,9Z"/><path class="cls-2" d="M11.26.07s2.17,5.67,2.29,8.33-.16,9.92-.16,9.92a13.55,13.55,0,0,1-7.67-.52c-3.92-1.53-2.95-2.26-2.95-2.26l-.29-5.27L3,8.34a4,4,0,0,0-1.86,1.75c-.6,1.22-1.13,2.2-1,3.21S1.07,16.4,2.26,17s3.87,2.58,6.88,2.64,4.13,0,4.13,0a22.84,22.84,0,0,1,.07,4.74,24.73,24.73,0,0,1-1,4s2.17,2.36,2.33,4.14a22.47,22.47,0,0,1,.11,2.8s2.74-.9,3.63-2.4a6.21,6.21,0,0,0,.3-5.36,15.82,15.82,0,0,0-1.94-2.87s1.89-3,2.17-3.58a32.55,32.55,0,0,0,1.87-5,10.37,10.37,0,0,0,0-4.68,3.24,3.24,0,0,0-1.37-2,8.49,8.49,0,0,1-1.05-.64s-1.63-4.9-3-6.2A18.44,18.44,0,0,0,11.26.07Z"/><path class="cls-3" d="M2.39,15.7a19.28,19.28,0,0,1-.15-2.29,19.84,19.84,0,0,1,.09-3.53A14.49,14.49,0,0,1,5.7,3.34,10,10,0,0,1,6.86,2.16a7.13,7.13,0,0,1,2-1.42A10.45,10.45,0,0,1,10.37.09a4.26,4.26,0,0,1,.8-.09h.72l0,0h.15a.19.19,0,0,1-.31.18l-.47,0h-.13s0,0-.06,0h0L11,.4l-.44,0A10,10,0,0,0,8.07,1.63a15.19,15.19,0,0,0-4,4.8A12.51,12.51,0,0,0,2.74,9.74c-.1.54-.09,1.09-.15,1.63,0,1.12.05,2.24.09,3.35a3.75,3.75,0,0,0,.09.82.23.23,0,0,1-.21.26A.21.21,0,0,1,2.39,15.7Z"/><path class="cls-3" d="M12,.16Z"/><path class="cls-3" d="M12.06.17Z"/><path class="cls-3" d="M11.76.09Z"/><polygon class="cls-3" points="11.58 0.07 11.58 0.07 11.58 0.07 11.58 0.07"/><path class="cls-3" d="M18.81,15.47a.22.22,0,0,1-.08-.24,1.63,1.63,0,0,1,0-.31c.09-.72,0-1.42.08-2.14a17.49,17.49,0,0,0-1.07-5.59,25,25,0,0,0-2.4-4.28,11.13,11.13,0,0,0-1.73-1.63A5.88,5.88,0,0,0,11.88.53l-.11,0-.08,0-.06,0-.06,0h-.08l-.08,0h-.23a.19.19,0,0,1,.08-.31.44.44,0,0,1,.2,0h.19a5.46,5.46,0,0,1,1.13.34,6.56,6.56,0,0,1,2.58,1.94,6.51,6.51,0,0,1,1,1.41c.41.69.82,1.36,1.16,2.08a9.74,9.74,0,0,1,.92,2.27,9.26,9.26,0,0,1,.41,1.63,15.19,15.19,0,0,1,.32,3.42,15.32,15.32,0,0,1-.06,1.8c0,.14,0,.3-.05.43a.2.2,0,0,1-.17.09Z"/><path class="cls-3" d="M3.29,16.52a3.91,3.91,0,0,1-1.45-1.46,4.68,4.68,0,0,1-.73-1.79,4.21,4.21,0,0,1,.66-2.92c.16-.26.35-.5.52-.75s.19-.21.31-.14a.24.24,0,0,1,0,.42,4,4,0,0,0-.93,3.89A4.91,4.91,0,0,0,3,15.82c.14.11.29.2.44.31s.26.19.16.34A.2.2,0,0,1,3.29,16.52Z"/><path class="cls-3" d="M2,17c-.2-.19-.33-.41-.52-.58A1.81,1.81,0,0,1,1,15.84a3.94,3.94,0,0,1-.65-1A5.67,5.67,0,0,1,1.88,8.78a7.79,7.79,0,0,1,.63-.51c.14-.1.32-.31.49-.17s-.13.37-.28.5a4.73,4.73,0,0,0-.91.82A5.51,5.51,0,0,0,.46,13.85,5.08,5.08,0,0,0,.83,15L.89,15l0,.07,0,.07H1l0,.06,0,0,.06.12h0v0h0a.47.47,0,0,0,0,.1.76.76,0,0,1,.08.11h0a.35.35,0,0,1,.05.08l.07.09,0,.06a.18.18,0,0,0,.05.07h0l.08.09h0v0h0l.13.15h0l0,0h0l.08.08.08.07.13.11H2l0,0,0,.05,0,0,0,0c.11.13.29.27.12.44a.17.17,0,0,1-.12,0A.2.2,0,0,1,2,17Z"/><polygon class="cls-3" points="1.54 15.99 1.54 15.99 1.54 15.99 1.54 15.99"/><polygon class="cls-3" points="1.53 15.99 1.53 15.99 1.54 15.99 1.53 15.99"/><path class="cls-3" d="M1.53,16Z"/><path class="cls-3" d="M1.53,16Z"/><path class="cls-3" d="M10.93,18.92h-.06a3.51,3.51,0,0,1-.57,0,13.74,13.74,0,0,1-1.44-.09,13.21,13.21,0,0,1-2.76-.66h0a10.72,10.72,0,0,1-2-1c-.32-.28-.69-.47-1-.74a.2.2,0,0,1,.25-.3l.28.22a5.49,5.49,0,0,1,.69.5c.34.16.61.38.94.53a13.17,13.17,0,0,0,2.7.9,10.68,10.68,0,0,0,2.18.22,6.33,6.33,0,0,0,.87,0h.1a.2.2,0,0,1,.1.34.36.36,0,0,1-.25.06Z"/><path class="cls-3" d="M10.76,18.73a.2.2,0,0,1,.19-.19,8.38,8.38,0,0,0,2-.13,6.74,6.74,0,0,0,1.62-.5,16.15,16.15,0,0,0,1.89-.75A15.92,15.92,0,0,0,18.18,16a11.4,11.4,0,0,0,1.14-1.36c.06-.09.15-.19.2-.27a.19.19,0,0,1,.27,0,.19.19,0,0,1,.07.19l0,0,0,.07h0l0,.06h0l0,0a10.88,10.88,0,0,1-1.47,1.7c-.46.31-.87.63-1.32.93a15.47,15.47,0,0,1-1.43.67c-.64.19-1.25.47-1.89.65A9.58,9.58,0,0,1,11.3,19C11.11,18.92,10.78,19,10.76,18.73Z"/><path class="cls-3" d="M10.38,19.94c-.77,0-1.53-.13-2.28-.23a19.66,19.66,0,0,1-2.16-.59,12,12,0,0,1-3.45-1.71,2.64,2.64,0,0,1-.61-.64.19.19,0,0,1,.18-.27l0,0,.08.07h0l.09.07h0l.05,0a9.63,9.63,0,0,0,3.74,2,15.28,15.28,0,0,0,2.48.63,15,15,0,0,0,2.68.16,1.21,1.21,0,0,0,.31,0c.28,0,.61-.06.62.19s-.21.2-.36.19c-.4,0-.8,0-1.2,0Z"/><path class="cls-3" d="M11.51,19.78c0-.28.3-.25.48-.26a12.1,12.1,0,0,0,1.21-.14,10.61,10.61,0,0,0,7.05-4.61,5.3,5.3,0,0,0,.48-.87c.06-.17.14-.48.38-.39s.09.28,0,.43a3.13,3.13,0,0,1-.35.71,10.16,10.16,0,0,1-1.1,1.44,12.39,12.39,0,0,1-1.24,1.27,10.38,10.38,0,0,1-4.18,2.16,8.43,8.43,0,0,1-1.92.35c-.2,0-.41,0-.61.06A.21.21,0,0,1,11.51,19.78Z"/><path class="cls-3" d="M19.34,14.93c-.14-.16.06-.3.12-.44a4.79,4.79,0,0,0,.31-.9,3.54,3.54,0,0,0-.12-2.36,5.35,5.35,0,0,0-.47-.76,3,3,0,0,0-.39-.31.2.2,0,1,1,.15-.36,3,3,0,0,1,1.18,1.52A4.55,4.55,0,0,1,20,14.1l0,.1-.06.13-.06.13h0a.59.59,0,0,1,0,.08l0,.07h0l0,.06h0l0,0,0,0h0l0,0h0v0h0l0,.06,0,0h0l0,.05v0h0A.24.24,0,0,1,19.34,14.93Z"/><path class="cls-3" d="M19.76,14.68Z"/><path class="cls-3" d="M20.85,14.2c-.2-.08-.11-.29-.05-.43,0-.33.07-.68.09-1a5.08,5.08,0,0,0-.45-1.83A4.43,4.43,0,0,0,18.6,9c-.07-.06-.15-.11-.17-.21a.19.19,0,0,1,.33-.17,13.84,13.84,0,0,1,1.14.88,5.57,5.57,0,0,1,.51.58,5.4,5.4,0,0,1,.87,2.58c0,.34-.05.69-.08,1C21.18,13.89,21.11,14.28,20.85,14.2Z"/><path class="cls-3" d="M16.06,25.5c-.18-.17.05-.34.15-.48.5-.71,1-1.4,1.47-2.16a25.64,25.64,0,0,0,2.49-5.17,22.41,22.41,0,0,0,.78-4c0-.15,0-.37.22-.36l.09,0v0h0v0h0v0h0v0h0v.11h0v.24h0V14a.53.53,0,0,1,0,.13.76.76,0,0,1,0,.15s0,.11,0,.17v.21a19.43,19.43,0,0,1-.73,3.3,26.2,26.2,0,0,1-2.1,4.45A21.82,21.82,0,0,1,16.73,25c-.14.14-.33.58-.55.58A.19.19,0,0,1,16.06,25.5Z"/><path class="cls-3" d="M21.25,13.41h0Z"/><path class="cls-3" d="M6,27.46a1,1,0,0,1-.26-.36,1.46,1.46,0,0,1-.27-.38,3.68,3.68,0,0,0-.3-.39C5.08,26.22,5,26.09,5,26a26,26,0,0,1-2.22-3.12c-.45-.85-.9-1.67-1.29-2.55A24.49,24.49,0,0,1,.11,13.92c0-.37-.11-.71-.1-1.08a.2.2,0,0,1,.28-.22.21.21,0,0,1,.11.23c0,.54.13,1.09.15,1.63a25.43,25.43,0,0,0,.69,3.88,10,10,0,0,0,1,2.77c.38.77.75,1.49,1.19,2.21.62.91,1.33,1.74,1.94,2.65a1.82,1.82,0,0,0,.29.38c.15.25.32.47.47.72.07.08.18.13.17.24A.2.2,0,0,1,6,27.46Z"/><path class="cls-3" d="M14.25,28.2c-.14-.14,0-.3.11-.42.58-.86,1.19-1.71,1.75-2.59a.21.21,0,0,1,.39.13c-.1.17-.23.35-.34.52-.32.49-.68.95-1,1.44a9.13,9.13,0,0,1-.54.79C14.55,28.21,14.4,28.34,14.25,28.2Z"/><path class="cls-3" d="M2.44,33.41a8.11,8.11,0,0,1,1.26-8.8c.11-.12.31-.32.47-.16a.21.21,0,0,1-.11.35,7.63,7.63,0,0,0-1.82,6.82,8.15,8.15,0,0,0,.54,1.6C2.91,33.43,2.58,33.63,2.44,33.41Z"/><path class="cls-3" d="M19,31.7c-.26-.06-.1-.39-.09-.55a6.64,6.64,0,0,0,0-1.18,9.39,9.39,0,0,0-.78-3.22A6.07,6.07,0,0,0,17,24.88c-.07-.05-.17-.11-.17-.22a.2.2,0,0,1,.3-.19,6.12,6.12,0,0,1,1.54,2.42,9.35,9.35,0,0,1,.73,3.41C19.33,30.57,19.42,31.79,19,31.7Z"/><path class="cls-3" d="M10.55,36.67a12.45,12.45,0,0,1-7.23-2.53c-.29-.2-1-.77-.91-1.15a.19.19,0,0,1,.26-.08.18.18,0,0,1,.1.16,2.17,2.17,0,0,0,.56.61,12.21,12.21,0,0,0,8,2.59,8.36,8.36,0,0,0,2.42-.51.2.2,0,0,1,.22.16.2.2,0,0,1-.15.23c-.27.06-.52.17-.79.23a8.2,8.2,0,0,1-2.47.29Z"/><path class="cls-3" d="M13.34,36a.21.21,0,0,1,.19-.25,6.09,6.09,0,0,0,.75-.28,13.6,13.6,0,0,0,2.35-1.26,6.31,6.31,0,0,0,1.6-1.49,4.49,4.49,0,0,0,.71-1.46.19.19,0,1,1,.37.1.75.75,0,0,0,0,.16,3,3,0,0,1-.51,1.07,7.81,7.81,0,0,1-3.26,2.75,11.89,11.89,0,0,1-1.77.75C13.6,36.18,13.39,36.21,13.34,36Z"/><path class="cls-2" d="M8.49,2.16S5.37,6.94,4.89,9.44a42.34,42.34,0,0,0-.35,7.06A48.25,48.25,0,0,1,5.2,9.09,49.25,49.25,0,0,1,8.49,2.16Z"/><path class="cls-2" d="M7.68,5.19s-1.39,4-1.55,4.91-.36,7-.36,7,.4-6.05.65-7.11S7.68,5.19,7.68,5.19Z"/><path class="cls-2" d="M9.18,5.66A49.35,49.35,0,0,1,9,11.12c-.26,1.85-.74,6.77-.74,6.77s1-6.5,1.07-8.45A33.18,33.18,0,0,0,9.18,5.66Z"/></g></g></svg>