<svg xmlns="http://www.w3.org/2000/svg" viewBox="0 0 49.56 26.69"><defs><style>.cls-1{fill:#fcd4ac;}.cls-2{fill:#3c58a4;}.cls-3{fill:#e52823;}.cls-4{fill:#faed62;}.cls-5{fill:#d09971;}.cls-6{fill:#6b1e1e;}</style></defs><g id="Layer_2" data-name="Layer 2"><g id="Card"><path class="cls-1" d="M.46,16.69C.62,14.7.77,6.35.77,6.35L2.49.08l1.44,0,.7,2.11,17.85,0,14.85.22h8L45.57.45l1.55.07,2.39,7.22L45.79,26.6l-2.12-.5.13-1.17s-22.89-1.55-24.31-1.6S2,23.27,2,23.27l-.35.89L0,23.89S.31,18.69.46,16.69Z"/><path class="cls-2" d="M30.67,8.57a24.4,24.4,0,0,0,0,3.66C30.83,14,29.79,22,29.79,22s6.91.37,7.9.5,6.5.54,6.5.54l1.72-7C46.19,14.84,47,9.22,47,9.22s-5.48-.41-7-.44Z"/><path class="cls-3" d="M30,8.57a29.72,29.72,0,0,0-5.14-.16c-1.81,0-7.29.05-7.37.07l-1.29.09s.05,4.9,0,6.15-.26,6.57-.26,6.57,9,.32,10.09.44,3.8.23,3.8.23.73-7.74.88-8.61a14.45,14.45,0,0,0,.17-3.82A2,2,0,0,0,30,8.57Z"/><path class="cls-4" d="M15.64,8.57c-.79-.06-3.87,0-4.93,0s-3.22-.1-4.65,0-3.55,0-3.55,0-.16,2.37-.14,3.31S2,18.19,2,18.94a15.22,15.22,0,0,1-.1,1.87s6.58.06,7.52.3,6.44.18,6.44.18.35-7.76.41-9,.09-3.77.09-3.77Z"/><path class="cls-1" d="M40.21,14.38c-.44.75-.63,2.19-2.15,1.81s-1.07-3.44,0-3.64,1,.07,1.52.33S40.21,14.38,40.21,14.38Z"/><path class="cls-1" d="M25.41,14.53c-.18.6-.66,1.93-2,1.64s-2.28-2.81-1.28-4a1.69,1.69,0,0,1,2.69.2A6.29,6.29,0,0,1,25.41,14.53Z"/><path class="cls-1" d="M10.44,15.4A1.73,1.73,0,0,1,8,14.93c-.51-.83-.46-3.38,1.4-3a1.77,1.77,0,0,1,1.65,2.19A10.17,10.17,0,0,1,10.44,15.4Z"/><path class="cls-5" d="M4.63,2.16s19.53.29,24.5.24l16-.22L45.57.45l1.55.07,2.36,6.71a1.86,1.86,0,0,0-1.18.4l-.59.45L46,7.48S32.46,7,29.48,7.21s-13.69.17-16.3,0-10.54.31-10.54.31Z"/><polygon class="cls-5" points="3.88 0.45 2.64 0.34 1.11 5.5 1.02 6.67 2.37 6.56 3.88 0.45"/><path class="cls-6" d="M0,23.89c0,.38.31.34.56.39s.42,0,.63.1a1.1,1.1,0,0,0,.36,0l.11,0c.34-.08.24-.56.3-.85a2.11,2.11,0,0,1,0-.26c.51.09,1,.11,1.56.18a44.4,44.4,0,0,0,4.47.1,22.79,22.79,0,0,1,2.48,0c1.74.13,3.49.19,5.24.22a28.86,28.86,0,0,0,3.48,0,25.92,25.92,0,0,0,3.63.05c.32-.07.65.06.95,0h0c1.29.1,2.57.2,3.86.35,1.88.17,3.76.39,5.64.52a16.36,16.36,0,0,1,2,0,9.43,9.43,0,0,0,1.3.06c1.29.06,2.58.11,3.86.23,1.1,0,2.19,0,3.28,0a.15.15,0,0,0,.07,0c0,.3-.12.61-.17.92a.26.26,0,0,0,0,.23s0,0,0,0c0,.28.24.31.42.31.34.05.67.14,1,.2s.5.19.69,0a.37.37,0,0,0,.06-.22h0c.72-3.19,1.26-6.44,2-9.62.22-1,.41-2.07.56-3.08s.34-1.85.51-2.78A4.08,4.08,0,0,1,49,10.2l0-.13a2.09,2.09,0,0,1,.08-.23s0,0,0-.05c.12-.68.24-1.36.35-2a.13.13,0,0,0,0-.06.46.46,0,0,0,0-.45c-.44-1.31-.83-2.64-1.24-4-.3-.94-.56-1.9-.86-2.84a.36.36,0,0,0,0-.17A.22.22,0,0,0,47,.18c-.25,0-.49,0-.73.06s-.5,0-.64.13h0a.46.46,0,0,0-.07.07.26.26,0,0,0-.25.38c0,.45-.14.9-.18,1.35-1-.05-2,0-3-.06C40.2,2,38.27,1.91,36.35,2c-2.87.07-5.74.3-8.6.18A22.19,22.19,0,0,0,25.44,2c-1.91,0-3.88-.12-5.79,0C18,2,16.28,2,14.59,1.92c-1,0-2.08,0-3.12-.06-.86,0-1.72,0-2.58,0-1.46,0-2.94.15-4.35,0v0C4.45,1.27,4.37.71,4.23.17a.21.21,0,0,0-.3-.12.25.25,0,0,0-.21,0C3.31,0,2.9,0,2.49.08h0l0,.1h0v0h0s0,0,0,0l0,.09c0,.05,0,.1-.05.16l0,.08a.17.17,0,0,1,0,.05s0,0,0,0a.88.88,0,0,1,0,.15s0,.07,0,.11a.42.42,0,0,1,0,.1h0c-.38,1.3-.64,2.63-1,3.93C1,5.34.9,5.73.8,6.11c0,0,0,0,0,.07a1.11,1.11,0,0,1,0,.17,1,1,0,0,1,0,.17.22.22,0,0,1,0,.08v0s0,0,0,0h0v.6h0v.22a.05.05,0,0,1,0,0c0,.18,0,.37,0,.55C.6,8.94.58,9.82.56,10.71h0v0a2.3,2.3,0,0,1,0,.37v0a2.4,2.4,0,0,1-.06.6c0,.39,0,.78-.05,1.17-.07.65,0,1.3-.08,1.95C.24,16,.21,17.1.13,18.23,0,19.62.15,21,0,22.4,0,22.89,0,23.39,0,23.89ZM3.47.55C3.09,2.4,2.59,4.27,2.26,6.13h0c-.32,0-.65,0-1,0,.15-.55.32-1.11.47-1.67.33-1.31.62-2.62,1-3.9C3,.57,3.23.55,3.47.55ZM29.52,21.73c-.64-.05-1.27-.11-1.91-.15q-5.71-.45-11.45-.43.36-6.18.4-12.36L29,8.57c2.43-.05,1.47,3.29,1.33,5.1C30.18,16.37,29.89,19.06,29.52,21.73Zm.95-3.95A71.53,71.53,0,0,0,31,10c0-.42.07-.84.06-1.25h.46c1.47.12,2.94.17,4.41.26,1.69,0,3.34,0,5,0s3.47.26,5.21.36l.63.06c-.27,1.65-.44,3.33-.79,5-.65,2.69-1.28,5.39-1.75,8.13a5,5,0,0,0-.67,0c-.73-.05-1.47-.06-2.21-.09a15.18,15.18,0,0,1-1.65-.21c-.77-.09-1.54-.05-2.31-.16-1.75-.2-3.51-.41-5.27-.44l-2.12,0C30.23,20.43,30.32,19.1,30.47,17.78ZM15.3,8.24c-2.17-.06-4.36.15-6.53.07-1.53-.09-3.08,0-4.61-.05a9.68,9.68,0,0,0-1.52,0V7.52c.42,0,.84,0,1.27.11,2.34.16,4.72-.07,7.05-.12,1.27,0,2.52,0,3.78-.06h1l.09,0c1.22-.06,2.43,0,3.65-.1,2,0,3.93,0,5.88.09a3.13,3.13,0,0,1,.53,0l.11,0h.12l.18,0a.2.2,0,0,0,.17,0,11.76,11.76,0,0,0,1.19,0c1.54-.11,3.1-.09,4.65-.14,1.23,0,2.46,0,3.69,0,1.41,0,2.8.1,4.2.18,1.2,0,2.36.12,3.54.22A15.63,15.63,0,0,1,46.4,8a.21.21,0,0,0,.17.06.16.16,0,0,0,.09,0l.34.05c0,.31-.08.62-.13.92h-.08a17.29,17.29,0,0,0-2-.13c-1.63-.08-3.25-.29-4.89-.33q-3.49,0-7-.17c-.81-.06-1.62-.09-2.43-.16a.6.6,0,0,0-.23,0h-.08c-.63,0-1.26,0-1.89,0-1.25-.07-2.5-.15-3.75-.1-2,.12-4,.18-6.07.24-.22,0-.44,0-.66-.05a.2.2,0,0,0-.2,0C16.81,8.17,16.06,8.25,15.3,8.24Zm.76,3.42c0,2.25-.13,4.5-.22,6.74-.06.82-.11,1.64-.18,2.46,0,.08,0,.16,0,.25-1.67-.09-3.34-.18-5-.31a15.28,15.28,0,0,1-2.14,0,42.32,42.32,0,0,0-5.4-.2,4.5,4.5,0,0,0-.63-.07.21.21,0,0,0-.25.05c.27-3.05.3-6.11.41-9.16,0-.86,0-1.72,0-2.57a11.48,11.48,0,0,1,1.17-.07c2.14.07,4.28,0,6.42.1,1.46,0,2.93-.1,4.4-.12.46,0,.93,0,1.4,0A23.37,23.37,0,0,1,16.06,11.66ZM4.16,2a.18.18,0,0,0,0,.1C3.74,3.42,3.39,4.71,3,6c-.11.31-.23.62-.35.93V6.75a.86.86,0,0,0,0-.16.3.3,0,0,0,.06-.14C3,4.78,3.39,3.15,3.75,1.5c.06-.22.09-.45.14-.67L4,1.68A.7.7,0,0,0,4.16,2ZM44.81,7.21Q24,6.4,3.17,7.19L4.34,3a1.11,1.11,0,0,1,.26-.52.82.82,0,0,1,.53-.12l31.34.2,8.66.06C45.49,4.21,47.05,7.3,44.81,7.21Zm.89-5.69c-.14.55.82,2.55,1,3.18s.71,2.24.31,2.78c-.21,0-.27-.16-.32-.37-.29-1.17-.58-2.34-.84-3.52A4.55,4.55,0,0,1,45.7,1.52Zm2.13,5.63A2.15,2.15,0,0,1,47.32,6L46.2,1.21a.57.57,0,0,1,0-.34A.35.35,0,0,1,46.7.71a1,1,0,0,1,.15.14,1.71,1.71,0,0,1,.22.4,27.62,27.62,0,0,1,1.43,4.1C48.62,5.81,49.09,8.24,47.83,7.15ZM44,25.81q1.95-8,3.2-16.14a3.53,3.53,0,0,1,.49-1.59c.25-.35,1-.76,1.3-.33.21.26-.28,1.78-.35,2.12-.31,1.62-.62,3.24-.92,4.86q-.91,4.72-1.81,9.44a3.34,3.34,0,0,1-.58,1.55.57.57,0,0,1-.11.11A.83.83,0,0,1,44,25.81ZM2,22.89c0-.6.08-1.2.13-1.81q11.06.32,22.1.86c3.68.18,7.36.39,11,.61l5.4.35a11.58,11.58,0,0,1,2.7.19c.63.21.53-.13.64.56a9.75,9.75,0,0,1-.18,1Q25.33,23.35,6.74,23Zm-1.58.84c0-1.1.14-2.19.09-3.29,0-1.93.15-3.88.32-5.79,0-1.43.13-2.86.18-4.29,0-1,0-2,.13-3,0-.23,0-.46.06-.69l.91,0c0,.15,0,.31,0,.47h0a.76.76,0,0,1,0,.15v.06h0c0,.31,0,.61,0,.92h0v.1a.57.57,0,0,1,0,.13v.17a.49.49,0,0,0,0,.12h0V9c0,2.57-.12,5.15-.19,7.72-.08,2.4-.37,4.81-.53,7.2C1.12,23.84.79,23.8.46,23.73Z"/><polygon class="cls-6" points="45.13 2.68 45.13 2.68 45.13 2.68 45.13 2.68"/><path class="cls-6" d="M40.33,15.29a2.33,2.33,0,0,0-.24-2.14c-.21-.27-.6-1-1-.8a1.83,1.83,0,0,0-2.39,1.06,2.81,2.81,0,0,0,0,1.6A1.78,1.78,0,0,0,39,16.45,2.69,2.69,0,0,0,40.33,15.29ZM38.66,16a1.55,1.55,0,0,1-1.58-1.45,1.65,1.65,0,0,1,1.29-1.77,1.34,1.34,0,0,1,1.48,1.16A1.57,1.57,0,0,1,38.66,16Z"/><path class="cls-6" d="M25.25,15.54a3.36,3.36,0,0,0,.37-1.24,4.82,4.82,0,0,0-.39-1.87,2,2,0,0,0-3.73.69c-.53,2,1,3.72,2.78,3.21A1.44,1.44,0,0,0,25.25,15.54ZM24,15.86a1.75,1.75,0,0,1-1.88-1,2.39,2.39,0,0,1-.08-2.07,1.57,1.57,0,0,1,1.6-.94,1.71,1.71,0,0,1,1.2,1.06C25.35,14,25.19,15.55,24,15.86Z"/><path class="cls-6" d="M9.83,16c1.82-.51,1.84-3.54.26-4.41A1.66,1.66,0,0,0,8,12a2.69,2.69,0,0,0-.45,1.25,3,3,0,0,0,.11,1.44A2,2,0,0,0,8.74,15.9,1.58,1.58,0,0,0,9.83,16Zm1-2a2,2,0,0,1-1.15,1.56A2.07,2.07,0,0,1,8.4,15a1.85,1.85,0,0,1-.33-2,1,1,0,0,1,.34-.74,1.29,1.29,0,0,1,1-.38,1.62,1.62,0,0,1,.89.55c.1.1.12.31.26.37A2.86,2.86,0,0,1,10.81,14Z"/><polygon class="cls-6" points="2.29 0.57 2.29 0.57 2.29 0.58 2.29 0.57"/><path class="cls-6" d="M32.41,6.79Z"/><path class="cls-6" d="M32.41,6.79Z"/></g></g></svg>