<svg xmlns="http://www.w3.org/2000/svg" viewBox="0 0 64.88 39.55"><defs><style>.cls-1{fill:#fcd4ac;}.cls-2{fill:#d09971;}.cls-3{fill:#faed62;}.cls-4{fill:#cbc479;}.cls-5{fill:#3b818f;}.cls-6{fill:#6b1e1e;}.cls-7{fill:#f4f4f4;}.cls-8{fill:#d4d4d6;}.cls-9{fill:#00a97c;}.cls-10{fill:#04684c;}.cls-11{fill:#59c1d7;}.cls-12{fill:#3c58a4;}.cls-13{fill:#2d3687;}.cls-14{fill:#e52823;}.cls-15{fill:#9f2224;}</style></defs><g id="Layer_2" data-name="Layer 2"><g id="Card"><path class="cls-1" d="M63.24,11.7c-.32-1-1.13-4.26-1.37-5.11S61.81,3,61.41,2.9,59,2.7,58,2.62s-9.18-.06-12.4-.15-10.14-.12-12.27-.12S28,2.4,28,2.4s-6.1,0-8.37,0-11.83,0-11.83,0a10.74,10.74,0,0,1,0,1.83A27.27,27.27,0,0,0,7.51,7.4c0,1.13,0,2.45,0,2.45S5.54,20.75,5.37,21.94a45.43,45.43,0,0,0-.21,5.24c0,.72.22,3,.32,3.63s.67.79.6,2.42S6.17,39,6.17,39s3.34.14,4.86,0,12.16-.07,14.11-.19,10.49.07,12.56.16,6.67-.27,8.29-.18,9.06.26,10.28.32,6.3.12,6.3.12a18.25,18.25,0,0,1,0-3.41c.19-1.5.23-2.8.46-3.66s.61-3.15.91-4.83a79.34,79.34,0,0,0,.74-8.46A47.11,47.11,0,0,0,63.24,11.7Zm-56,8.09C7.17,21,7,26.43,7,26.43a15.18,15.18,0,0,0,0,1.95c.09.36-.57,1.49-.57,1.49s-.19-6.26-.14-7.53S6.88,18,6.88,18A3.12,3.12,0,0,1,7.24,19.79Zm54.75,4a21.92,21.92,0,0,0-.54,3.13,6,6,0,0,0-.16-2c-.27-1.16-.46-6.41-.47-7.18s.33-4.13.33-4.13.33.59.6,1.15a8,8,0,0,1,0,3.61C61.45,19.32,62.25,23.16,62,23.78Z"/><path class="cls-2" d="M62.85,15.37c-.4-1.9-.92-4-1.23-5.67S60.37,6,60.41,5.45A4.84,4.84,0,0,0,60.14,4L58.55,5.64a15,15,0,0,0-.12,1.9c0,1,.54,14,.54,14l.43,10,0,4.5S51.68,36,50.5,36s-12.41,0-13.68.12-9.48.26-10.74.24-10-.1-10.94-.14-7.76.19-7.76.19l.51,1.69a47.13,47.13,0,0,1,5.68-.31c1.48.14,7,0,8.75,0s7.74.13,11.09-.09,12.85.14,14.65,0,9,0,9.93,0,3.09,0,3.09,0,.82-5.26,1-6.08.92-6,1.11-8A39,39,0,0,0,62.85,15.37Zm-1.4,11.54s-.27-2.67-.3-3.39-.18-4.6-.33-5.75a15.54,15.54,0,0,1,.47-3.69,8.1,8.1,0,0,1,.46,2.35c-.12.63.3,6.15.27,6.85S61.45,26.91,61.45,26.91Z"/><path class="cls-2" d="M29.07,26.59l-.27,8.1a.89.89,0,0,1-.8.4c-.61,0-10.34.57-11.45.33s-8.31-.52-8.31-.52A6.73,6.73,0,0,1,8,33c.07-.68.45-11.41.45-11.41L9,5a27,27,0,0,1,4,.14,42.57,42.57,0,0,0,4.79.23l10.66.43Z"/><path class="cls-3" d="M28.36,5.81A6.45,6.45,0,0,0,28.46,4,14.67,14.67,0,0,0,27.8.74,8.91,8.91,0,0,0,25.43.31a3.39,3.39,0,0,0-2,.12c-.53.31-.42.6-.54,1S22.58,3.56,22.37,4s-.49,1.31-.49,1.31l3.68.41C26.09,5.78,28.36,5.81,28.36,5.81Z"/><path class="cls-4" d="M28.18.92A.23.23,0,0,0,28,.67C27.87.45,27.59.4,27.36.3A7.85,7.85,0,0,0,25.25.08C24.5,0,23.56-.18,23,.49c-.46.47-.41,1.17-.51,1.78s-.33,1.46-.56,2.17c-.18.14-.3.54,0,.65.51.15.63-1.08.77-1.41a9.9,9.9,0,0,0,.23-1,1.71,1.71,0,0,1,.27.09h0a.25.25,0,0,0,.27-.43c-.14-.08-.29-.11-.43-.18.05-.32.1-.63.16-1,.3.63,1.12.64,1.73.74a6.76,6.76,0,0,0,2.37-.17,1.64,1.64,0,0,0,.51-.23c.06.29.13.59.18.88a1.39,1.39,0,0,0-.33.07c-.23,0-.46.22-.29.46a.26.26,0,0,0,.32.06A2.47,2.47,0,0,0,28,2.88s0,.06,0,.09a16,16,0,0,1,.07,2.4.26.26,0,0,0,.51,0c0-.18,0-.35,0-.53A14.28,14.28,0,0,0,28.18.92Zm-1.66.44a4.46,4.46,0,0,1-1.82,0,2.58,2.58,0,0,1-.95-.26C23.63,1,23.6.84,23.5.72c.58-.43,1.36-.09,2-.13.28,0,.64,0,.93,0a6.5,6.5,0,0,1,1.13.3l0,.07A1.9,1.9,0,0,1,26.52,1.36Z"/><path class="cls-4" d="M23.91,2.46a.25.25,0,0,0,.16.45l.26,0a.25.25,0,1,0,.17-.48C24.32,2.44,24.07,2.33,23.91,2.46Z"/><path class="cls-4" d="M25.68,2.54a3.12,3.12,0,0,1-.44,0h0a.25.25,0,0,0-.2.45,1.75,1.75,0,0,0,.57.1A.26.26,0,0,0,25.68,2.54Z"/><path class="cls-4" d="M26.54,2.53c-.2,0-.42.12-.36.35a.27.27,0,0,0,.33.17c.2,0,.52,0,.51-.29S26.73,2.5,26.54,2.53Z"/><path class="cls-5" d="M24.71,34.12a.24.24,0,0,0-.26,0,.48.48,0,0,0-.19.23,6.17,6.17,0,0,0-1.7-1.48.73.73,0,0,0-.35-.12.24.24,0,0,0-.27.2c0,.17.16.29.32.37a4,4,0,0,1,1.31,1c.13.15.27.33.47.33L23.57,36a4.61,4.61,0,0,0-2.76-1.07,4.33,4.33,0,0,0-2.29.18l.6-1.44c0-.11.09-.23,0-.33a.26.26,0,0,0-.38,0,.71.71,0,0,0-.22.36L18,35.11a2.21,2.21,0,0,0-.27,1.24c.14.39.77.64,1.11.75a9.51,9.51,0,0,0,3,.33,2.72,2.72,0,0,0,1.41-.26A2.27,2.27,0,0,0,24.09,36a9.07,9.07,0,0,1,.57-1.36c.1-.16.22-.38.08-.51ZM22,36.9c-1.27,0-2.7.1-3.78-.69.06-.14.05-.3.1-.44a3,3,0,0,1,2.29-.4,5.79,5.79,0,0,1,2,.51c.26.13.59.28.64.59A1.36,1.36,0,0,1,22,36.9Z"/><path class="cls-6" d="M8,24.6c0-.81,0-1.62.07-2.42a7.61,7.61,0,0,1,.11-1.35c.13-.21.6-.08.48.13-.09.44,0,.9-.08,1.34,0,.6-.11,1.19-.08,1.79,0,.17,0,.34,0,.51s-.12.18-.25.18A.24.24,0,0,1,8,24.6Z"/><path class="cls-6" d="M7.05,18.93A6.05,6.05,0,0,0,7,20.14c0,.63-.06,1.3-.09,1.94-.14,2.1-.14,4.22-.15,6.32a.26.26,0,0,0,.51-.07c0-1,0-1.95,0-2.93,0-2.07.19-4.13.26-6.19A.27.27,0,1,0,7.05,18.93Z"/><path class="cls-6" d="M5.25,25.94c0-1.34,0-2.67.12-4a.25.25,0,0,0-.47-.18,3.21,3.21,0,0,0-.07.76c0,.61,0,1.3-.06,1.93a35.33,35.33,0,0,0,.06,3.71c0,.72.06,1.44.11,2.16,0,.22,0,.49.11.67a.25.25,0,0,0,.43-.18c0-.23,0-.47-.05-.71C5.39,28.73,5.27,27.32,5.25,25.94Z"/><path class="cls-6" d="M6.11,20.17a3.74,3.74,0,0,0-.07.89,13.48,13.48,0,0,0-.12,2.46c.06.79,0,1.58,0,2.38.07,1.27.09,2.54.14,3.82a.25.25,0,0,0,.5-.06c0-1.06-.06-2.12-.1-3.17s0-2.11-.07-3.17.15-2,.17-2.95A.26.26,0,1,0,6.11,20.17Z"/><path class="cls-6" d="M15.76,5.47a13.57,13.57,0,0,0,1.56-.07.26.26,0,0,0,0-.51l-.22,0c-2.59.18-5.18-.21-7.77-.22-.19,0-.34-.06-.49.06l0,0,0,0h0c-.15.16-.13.54-.12.75,0,.41,0,.82.06,1.22A.31.31,0,0,0,8.86,7a.26.26,0,0,0,.4-.24c0-.31,0-.62,0-.93s0-.44,0-.67h0C11.4,5.21,13.58,5.45,15.76,5.47Z"/><path class="cls-6" d="M7.35,9.68v0a.28.28,0,0,0,.23.34c.45,0,.23-.64.24-.93,0-.81,0-1.64,0-2.46S8,4.92,8,4.07l.07,0c1.15,0,2.3,0,3.44,0a18.49,18.49,0,0,1,2.23-.1c.94-.1,1.87,0,2.81-.06,1.84-.13,3.7,0,5.55,0a.25.25,0,0,0,0-.5c-1.61-.05-3.23-.08-4.84,0-.82.06-1.64,0-2.47,0-.54,0-1.08.09-1.63.08-1,0-2,.17-3,.15-.63,0-1.25,0-1.88,0H8.05c0-.28-.07-.62-.07-.79a.57.57,0,0,1,0-.13l.6-.06a15,15,0,0,1,2.12.08,14.8,14.8,0,0,1,1.62.06c.6,0,1.22-.06,1.83,0,1.25,0,2.5-.12,3.75-.07,1.47,0,2.94,0,4.4,0,.25,0,.71.1.71-.27,0-.2-.21-.26-.38-.24a8.06,8.06,0,0,0-1,0c-1.57,0-3.16-.07-4.74-.06-1.09,0-2.18.11-3.26.05s-2-.06-3,0A11.52,11.52,0,0,0,8,2.11a.45.45,0,0,0-.4.13h0a.28.28,0,0,0-.08.3c0,.27.07.51.07.8a2.36,2.36,0,0,0,0,.25.41.41,0,0,0,0,.22.41.41,0,0,0,0,.16c0,.38,0,.75-.09,1.13a27.89,27.89,0,0,0-.07,4.57Z"/><path class="cls-6" d="M7.75,35.26a2.6,2.6,0,0,0,1.39.21c1.28.07,2.57,0,3.85.08s2.38,0,3.56-.13a5.4,5.4,0,0,0,1.45-.1l.18,0a.25.25,0,0,0,0-.5.67.67,0,0,0-.28,0,10,10,0,0,1-1.74.1,35.83,35.83,0,0,1-4.52.07c-.83,0-1.66,0-2.49,0a4.3,4.3,0,0,1-.95-.06,6.4,6.4,0,0,1,0-1.16c0-.32-.06-.63-.07-1,.16-.32-.32-.53-.49-.2a.46.46,0,0,0,0,.26,7.91,7.91,0,0,0,.06.84,8,8,0,0,0,0,1.3A.24.24,0,0,0,7.75,35.26Z"/><polygon class="cls-6" points="8.99 36.53 8.99 36.53 8.99 36.53 8.99 36.53"/><path class="cls-6" d="M24.26,35.3c.29,0,.6,0,.9,0a23.55,23.55,0,0,0,3.14-.12h0a.65.65,0,0,0,.34,0,.31.31,0,0,0,.37-.23c0-.88,0-1.77,0-2.66,0-1.6,0-3.22,0-4.82,0-.28,0-.57,0-.85a.26.26,0,0,0-.49,0c0,2.68-.08,5.34,0,8l-.17,0s0,0-.08,0c-.59.08-1.2.11-1.79.13s-1.29,0-1.94,0a2.19,2.19,0,0,0-.36,0,.26.26,0,0,0-.15.38A.27.27,0,0,0,24.26,35.3Z"/><path class="cls-6" d="M28.9,18.43c-.19.12-.14.38-.14.57,0,.65,0,1.3.06,1.95a.26.26,0,0,0,.51,0,18.44,18.44,0,0,1,0-2.35A.27.27,0,0,0,28.9,18.43Z"/><path class="cls-6" d="M29.93,18.63c-.09,1.34.15,2.69.15,4a.26.26,0,0,0,.51,0c0-1.27-.2-2.53-.17-3.8C30.56,18.5,30.07,18.23,29.93,18.63Z"/><polygon class="cls-6" points="60.15 3.69 60.15 3.69 60.15 3.69 60.15 3.69"/><polygon class="cls-6" points="60.41 3.83 60.41 3.83 60.41 3.83 60.41 3.83"/><path class="cls-6" d="M6.65,36.2s0,0,0,.07c.08.19.32.15.49.17h.24a5.5,5.5,0,0,1,0,.91.92.92,0,0,1,0,.23h0a.25.25,0,0,0,0,.37.23.23,0,0,0,.24.18.15.15,0,0,0,.07,0,.43.43,0,0,0,.19,0c.26,0,.52,0,.78,0A11.63,11.63,0,0,0,11,38c.7.07,1.37,0,2.08,0,1.24.08,2.49,0,3.73,0a12.18,12.18,0,0,0,1.6.12c2.54,0,5.09-.15,7.64-.21,0,0,0,0,0,0,.43,0,.87.07,1.31.06,1.4,0,2.81.05,4.21,0,1.6.06,3.19,0,4.79,0,.39,0,.78,0,1.17,0a.24.24,0,0,0,.23,0H38c.51,0,1,.05,1.53.07,2.74,0,5.48-.25,8.22-.13a2.79,2.79,0,0,0,.7,0c.55,0,1.1.08,1.65.09,3,0,5.92-.07,8.91.1a14.38,14.38,0,0,0,1.47,0c.22,0,.45,0,.67,0a.25.25,0,0,0,.19-.37,13.27,13.27,0,0,0,.22-1.55,34,34,0,0,1,.53-3.76c.09-.55.21-1.13.31-1.7,0,0,0,0,0-.05a13.25,13.25,0,0,0,.44-2.17,40.66,40.66,0,0,0,.47-5.94c0-.45,0-.9,0-1.36,0-.05,0-.1,0-.16a.41.41,0,0,0,0-.11h0c0-.05,0-.09,0-.14v-.13h0c0-.08,0-.17,0-.26s0-.08,0-.12v-.06a.28.28,0,0,0,0-.09h0v-.21a.38.38,0,0,1,0-.1,0,0,0,0,1,0,0c0-.54,0-1.08-.05-1.62a10.61,10.61,0,0,0-.24-2.52,24.13,24.13,0,0,0-.58-3.05c-.16-.78-.36-1.55-.58-2.3-.24-1-.67-1.89-.87-2.87s-.26-2-.38-2.95a2.33,2.33,0,0,1,0-.3h0a.1.1,0,0,0,0,0s0,0,0,0h0l-.14-.16h-.05l0,0,0,0h0l0,0-.09,0h0l0,0H60l0,0h-.6c-.86,0-1.72,0-2.58,0a39.11,39.11,0,0,0-5.19.11c-.85.08-1.71.06-2.57.06-.66,0-1.33,0-2,0s-1.22,0-1.84,0c-.44,0-.88,0-1.32,0a16.44,16.44,0,0,1-2.21-.11,15.56,15.56,0,0,1-1.67-.08.87.87,0,0,0-.45,0l0,0q-.7,0-1.41,0c-.62,0-1.29-.08-1.92-.08-.81,0-1.62,0-2.43,0-.54,0-1.08.07-1.61.05s-1.23.1-1.83,0A.44.44,0,0,0,30,3.5c-.48,0-.93,0-1.4,0-.19-.06-.39-.06-.46.17-.06.42.49.32.76.35s.57,0,.86,0a4.39,4.39,0,0,0,0,.63c0,.52,0,1,0,1.56a32.07,32.07,0,0,0,.16,3.53c.05,1.91,0,3.82.15,5.72a.25.25,0,0,0,.5-.08,3.8,3.8,0,0,1-.06-.59c-.07-1.81,0-3.63-.1-5.44a19.84,19.84,0,0,1-.14-2.78c0-.26,0-.52,0-.78.64,0,1.32,0,2,0h0c2.7,0,5.4,0,8.1,0a17.91,17.91,0,0,1,2.07-.08h.13c.48,0,1,0,1.46.07,2.87,0,5.75-.11,8.62,0,1.19,0,2.38-.11,3.57-.14a5.78,5.78,0,0,0,.93,0,8.07,8.07,0,0,0,1,.07.64.64,0,0,1,0,.07c0,1.34.16,2.69.1,4,0,.89.11,1.78.11,2.67.06,1.63.12,3.15.22,4.79s.17,3.58.19,5.37a.28.28,0,0,0,0,.18c0,.13,0,.27,0,.4s0,0,0,.05c0,1.24-.06,2.52.07,3.77a16.62,16.62,0,0,1,0,1.73c0,1.25.11,2.5.15,3.75,0,.83-.05,1.68,0,2.52a1.82,1.82,0,0,0,0,.76l-.1,0s-.07,0-.11,0h0a23.23,23.23,0,0,0-2.89.05,19.88,19.88,0,0,0-2.18-.1c-1.44-.06-2.9-.06-4.36-.07s-3.16.14-4.74.14c-1.14,0-2.27,0-3.4.08l-.84,0a2.37,2.37,0,0,0-.84,0c-.39,0-.79,0-1.19,0-2,0-3.93,0-5.88.07-.71,0-1.42,0-2.13,0a.22.22,0,0,1,0-.08c0-1,0-1.92,0-2.89,0-1.3,0-2.61.06-3.93,0-.73.05-1.47,0-2.21a.26.26,0,0,0-.5.16c-.06,3-.08,6-.06,9h-.05s0,0-.06,0c-.48,0-1,.07-1.43.08a27.73,27.73,0,0,0-3.16.08H24c-.26,0-.64,0-.53.37s.52.1.76.14a11.69,11.69,0,0,0,1.87-.06c1.09-.07,2.18,0,3.28-.08h.33s0,0,0,0a.31.31,0,0,0,.32,0c2,0,4-.08,6-.1,1,0,2.09,0,3.13,0a5.44,5.44,0,0,1,.9,0s0,0,.08,0c.61,0,1.23,0,1.85-.05,2,0,4.09,0,6.13-.15,1.72-.06,3.45,0,5.18,0a19.61,19.61,0,0,1,2.16.09c1,0,2.07-.13,3.13,0a.26.26,0,0,0,.24,0c.25.16.48.37.74.52a4.36,4.36,0,0,1,.93.66c-.42,0-.83.07-1.26,0-1.62-.08-3.28-.15-4.92-.14-2.06,0-4.11.09-6.17-.08l-.19,0a.24.24,0,0,0-.17.07c-.94,0-1.87,0-2.81,0-1.57,0-3.15.14-4.73.15a18.18,18.18,0,0,1-1.95-.09c-.13,0-.25,0-.37,0-4,.07-8,.1-12-.07a.35.35,0,0,0-.3.06c-1.73.06-3.48.09-5.21.16a26.71,26.71,0,0,1-3.9-.09c-1.24,0-2.47.07-3.7,0a8.24,8.24,0,0,1-1.49,0,9.55,9.55,0,0,0-1.2.1c-.73,0-1.45,0-2.18,0a.08.08,0,0,0,0,0,4.19,4.19,0,0,0,0-1.06.08.08,0,0,0,0,0l1.1.05c1.31,0,2.61,0,3.92,0s2.62-.11,3.93-.08a4.92,4.92,0,0,0,.94,0,.26.26,0,0,0,.13-.34.26.26,0,0,0-.26-.14H16.9c-1.56,0-3.12.08-4.67.08-1.32,0-2.64,0-4,0-.39,0-.78-.06-1.17-.07v0c0-.24,0-.53,0-.77-.06-.93,0-1.84,0-2.78a1.37,1.37,0,0,1,0-.19.25.25,0,0,0-.49-.11,29.38,29.38,0,0,0,0,4.09ZM60.39,3.82Zm-2,1.35a.17.17,0,0,0-.08.06,8.49,8.49,0,0,1-.88-.05,4.18,4.18,0,0,0-1,0c-.71-.06-1.42.07-2.13.06s-1.24.08-1.86,0c-1.52,0-3-.09-4.56,0-1.83,0-3.66.1-5.49,0a.23.23,0,0,0-.29,0,11,11,0,0,0-1.52.07c-.83,0-1.68,0-2.52,0-1.34,0-2.68,0-4,0-.76,0-1.51.08-2.27,0-.51,0-1,0-1.53,0,0-.39,0-.79,0-1.18l.25,0c2.54,0,5.08-.21,7.62-.05.58,0,1.18,0,1.76,0h0a7.3,7.3,0,0,0,.94.07A21.25,21.25,0,0,1,43,4.31c1.26,0,2.52-.08,3.78-.07.63,0,1.27,0,1.91,0h1.33c.65,0,1.3,0,2-.1a22.31,22.31,0,0,1,2.31-.1c.33,0,.66,0,1,0,.7,0,1.4,0,2.09.05.44,0,.88,0,1.32,0h.81l-.1.1C59.06,4.5,58.74,4.89,58.37,5.17Zm1.07,31s0,0-.08-.06a1.08,1.08,0,0,0,0-.51c.16-.22,0-.71,0-1,.13-2-.07-4-.11-6,.07-1-.06-2-.07-3s.06-1.81,0-2.73a.79.79,0,0,0,0-.2c0-1.35-.09-2.7-.15-4.06,0-1.56-.13-3.12-.22-4.68,0-1.2-.09-2.4-.14-3.59,0-1.58,0-3.11-.12-4.68,0,0,0,0,0-.07.32-.12.73-.65,1-.82s.41-.36.61-.55a2.14,2.14,0,0,1,0,.32c.12,1,.17,1.9.36,2.85a13.75,13.75,0,0,0,.58,1.89c.22.56.33,1.16.52,1.74.26,1.08.5,2.12.74,3.23.1.56.13,1.15.28,1.71a11.73,11.73,0,0,1,.16,2.07c0,.59.05,1.18,0,1.77v.36a1.34,1.34,0,0,0,0,.2v.1c0,.06,0,.12,0,.18h0v.16a55.94,55.94,0,0,1-.39,7c-.13.66-.21,1.33-.33,2v.06s0,.06,0,.1,0,0,0,.05l0,.1a2.07,2.07,0,0,0,0,.22h0l0,.1,0,.14a2.8,2.8,0,0,1-.06.28c0,.12,0,.23-.07.35s0,.11,0,.17a1.46,1.46,0,0,1-.05.2,1.09,1.09,0,0,1,0,.17c-.15.8-.31,1.61-.42,2.41-.13,1-.22,2-.34,3.06l0,0A10.82,10.82,0,0,0,59.44,36.17Z"/><polygon class="cls-6" points="60.58 4.03 60.59 4.04 60.59 4.04 60.58 4.03"/><polygon class="cls-6" points="61.84 2.81 61.84 2.81 61.85 2.81 61.84 2.81"/><path class="cls-6" d="M64.62,16.38c-.24-1.09-.5-2.18-.79-3.27a28.07,28.07,0,0,0-.89-3.32,8,8,0,0,1-.34-1.28A12.3,12.3,0,0,1,62.19,7V7s0,0,0,0a2.76,2.76,0,0,1-.06-.57c0-.9,0-1.83,0-2.74v0h0v0h0v0h0s0-.06,0-.09V3.33h0l0-.16h0l0-.08h0S62,3,62,3l0-.07h0l-.08-.1v0h0a.3.3,0,0,0-.08-.08h0l0,0-.05,0-.06,0h0l-.07,0h0l-.43-.05H60.9a.08.08,0,0,1-.06,0c-.58,0-1.17,0-1.75-.11-.4,0-.79,0-1.19,0a12.2,12.2,0,0,1-1.35,0c-1.27,0-2.52,0-3.8,0-1.63-.15-3.29-.09-4.94-.12s-3.47,0-5.18,0a5.32,5.32,0,0,0-1.49,0h0c-3.15,0-6.3-.2-9.44-.06-1.13.09-2.25,0-3.37,0a.25.25,0,0,0-.16.32c.09.26.41.15.62.18.63,0,1.25.08,1.88.06,1.08,0,2.16-.11,3.25-.09.89,0,1.81,0,2.72,0,1.2,0,2.48.08,3.7.07.41,0,.82,0,1.23,0a.28.28,0,0,0,.18-.06h0a42,42,0,0,0,4.35.09l1.69,0c1.14,0,2.29,0,3.44,0,.81,0,1.62.13,2.43.1s1.57,0,2.35,0,1.47,0,2.21,0A9.8,9.8,0,0,1,59.77,3a11.74,11.74,0,0,1,1.78.12,5.63,5.63,0,0,1,.05.59c0,.68,0,1.37,0,2.05,0,.3,0,.67,0,1a4.38,4.38,0,0,0,.18,1A10.91,10.91,0,0,1,62.16,9c.24.8.53,1.59.73,2.4.23.6.29,1.25.46,1.87.24.89.44,1.83.66,2.73a21.28,21.28,0,0,1,.31,5.47v0c0,.12,0,.23,0,.34a1.21,1.21,0,0,0,0,.19v.18a.28.28,0,0,0,0,.09h0v.13l0,.21s0,.05,0,.07,0,.15,0,.23a.13.13,0,0,1,0,.06,34.29,34.29,0,0,1-.46,3.63c0,.86-.41,1.72-.46,2.54h0c-.27,1.18-.45,2.43-.73,3.62A4.92,4.92,0,0,0,62.49,34c0,.59-.09,1.19-.15,1.78a14.92,14.92,0,0,0-.09,3.06.67.67,0,0,1,0,.2c-2,0-3.9-.08-5.86-.07-.79,0-1.58.06-2.37,0s-1.46-.11-2.2,0a.27.27,0,0,0-.24,0c-.34,0-.67-.05-1-.06-1.9-.08-3.8-.21-5.7-.27-1.65,0-3.3.17-4.95.26-.71-.05-1.44,0-2.14-.07a.18.18,0,0,0-.16,0l-.72,0c-1.6,0-3.19-.06-4.79,0a41.51,41.51,0,0,1-5.35-.1,9,9,0,0,0-1.64,0c-.5,0-1,0-1.49,0-1.48,0-3,.1-4.43.14s-3.19,0-4.78.06c-.78,0-1.57,0-2.36,0-.38,0-.76-.08-1.14-.08a14.78,14.78,0,0,1-1.63,0,18.21,18.21,0,0,1-2.56,0c-.14,0-.29,0-.43,0h0s0,0,0-.06,0-.35,0-.52c0-.91,0-1.82,0-2.73s.07-1.62.06-2.42a4.5,4.5,0,0,1,0-1,.25.25,0,0,0-.14-.33.26.26,0,0,0-.33.14,3.34,3.34,0,0,0-.06,1c0,.9-.06,1.8-.06,2.7,0,.54,0,1.08,0,1.62a8.11,8.11,0,0,0,0,1.63h0a.27.27,0,0,0,0,.23c.06.08.16.09.25.13a1.47,1.47,0,0,0,.59,0c.38,0,.77,0,1.15,0a6.26,6.26,0,0,0,1.3,0c.34,0,.71,0,1.06,0a8.08,8.08,0,0,1,1.63,0c.56,0,1.12,0,1.68,0a16.07,16.07,0,0,0,1.7,0c1.24,0,2.48,0,3.72,0,.77-.06,1.56-.07,2.33-.09a18.77,18.77,0,0,1,2.37-.07c.63,0,1.26.06,1.89,0a.19.19,0,0,0,.11,0,8.87,8.87,0,0,0,.89.06c1.29,0,2.57.14,3.85.18,2.46-.13,4.92-.1,7.38-.05h.11c.85,0,1.71.08,2.56,0,1.38-.09,2.76-.16,4.15-.23,2.22,0,4.44.21,6.66.31h0a3.3,3.3,0,0,0,1,0h0c1.19,0,2.39.14,3.59.06,1.91,0,3.82.11,5.74.1.29,0,.58,0,.87,0s.26-.14.25-.29a.81.81,0,0,0,0-.22c0-.47,0-.93,0-1.4,0-1.38.3-2.75.29-4.13.2-1.31.54-2.6.75-3.92.06-.27.1-.54.18-.8a.17.17,0,0,0,0-.17,3.45,3.45,0,0,0,.12-.46c.22-1,.31-1.92.49-2.9a18.52,18.52,0,0,0,.23-2.68c0-.09,0-.18,0-.26,0-.38,0-.77,0-1.15A22.22,22.22,0,0,0,64.62,16.38Z"/><polygon class="cls-6" points="61.83 2.8 61.83 2.8 61.83 2.8 61.83 2.8"/><polygon class="cls-6" points="61.87 2.83 61.87 2.84 61.87 2.84 61.87 2.83"/><polygon class="cls-6" points="62.1 3.56 62.1 3.56 62.1 3.57 62.1 3.56"/><polygon class="cls-6" points="62.05 3.16 62.05 3.16 62.05 3.16 62.05 3.16"/><polygon class="cls-6" points="60.93 12.15 60.93 12.16 60.94 12.16 60.93 12.15"/><polygon class="cls-6" points="60.82 12.03 60.83 12.03 60.83 12.03 60.82 12.03"/><polygon class="cls-6" points="61.51 13.19 61.51 13.19 61.52 13.19 61.51 13.19"/><path class="cls-6" d="M62.25,23.16a23.3,23.3,0,0,0-.1-2.51c-.06-.79,0-1.58-.08-2.38a14.08,14.08,0,0,1,0-1.72A10.49,10.49,0,0,0,61.74,14a3.9,3.9,0,0,1-.18-.67.69.69,0,0,0-.05-.13s0-.07,0-.11a.61.61,0,0,1,0-.12l-.07-.11s0-.08,0-.11l-.07-.11-.08-.13h0l-.07-.1h0l0,0,0-.06a.18.18,0,0,0-.05-.07.16.16,0,0,0,0-.07l0-.06,0,0,0,0,0,0,0,0h-.25l-.06,0h0l0,0h0c-1,.91-.68,2.39-.74,3.59-.08,2,.16,4,.22,6,.07,1.6.12,3.21.24,4.81.08.56.06,2.62.68,2.74l.11,0C62.18,29.2,62.2,24.1,62.25,23.16Zm-.93-8.7a10.72,10.72,0,0,1,.2,2.83c0,.64.06,1.29.07,1.93a41,41,0,0,1,.06,5.65c0,.41,0,.83-.09,1.23,0-.19,0-.39,0-.58-.05-1.33-.07-2.67-.16-4-.06-1.1-.19-2.19-.21-3.3S61.22,15.71,61.32,14.46ZM60.64,26.4h0v0c-.16-2.73-.27-5.45-.4-8.18a19.74,19.74,0,0,1-.05-2.55c.07-1-.2-2.23.47-3.12.09.17.19.35.3.52l0,.14a1,1,0,0,0-.14.56c0,.6-.11,1.28-.13,1.9,0,.79-.08,1.64-.08,2.45,0,1,.12,2,.19,3s.12,2.28.15,3.43a18.3,18.3,0,0,0,.28,3.23l0,0a2.61,2.61,0,0,1-.33.81A10.62,10.62,0,0,1,60.64,26.4Z"/><polygon class="cls-6" points="61.74 2.71 61.74 2.71 61.74 2.71 61.74 2.71"/><path class="cls-6" d="M41.12,2.22h0Z"/><polygon class="cls-6" points="61.75 2.72 61.75 2.72 61.75 2.72 61.75 2.72"/><polygon class="cls-6" points="61.74 2.71 61.74 2.71 61.74 2.71 61.74 2.71"/><polygon class="cls-6" points="52.28 39.4 52.28 39.4 52.28 39.4 52.28 39.4"/><polygon points="43.04 4.31 43.04 4.31 43.04 4.31 43.04 4.31"/><path d="M41.16,2.2h0Z"/><path class="cls-7" d="M52.29,13.53s-10.28-.1-11-.13-4.88.07-4.88.07-.16,2.35-.16,3,0,7,0,7.84A22.09,22.09,0,0,0,36.4,27a16.9,16.9,0,0,0,2.24.29c.6,0,3.32-.21,4.06-.15s6.76.31,7.76.3,2.44-.15,2.44-.15-.12-3.86-.06-4.62.15-3.07.1-3.56.07-2.74,0-3.77A4.62,4.62,0,0,0,52.29,13.53Z"/><path class="cls-8" d="M53.13,22.46a31.41,31.41,0,0,0,0-3.63c-.05-1.31,0-2.63-.11-3.94a2.82,2.82,0,0,0-.24-1,1.25,1.25,0,0,0-.28-.47.24.24,0,0,0-.36-.18.4.4,0,0,1-.24,0c-.32,0-.65,0-1,0-.88,0-1.76,0-2.63,0-1.06,0-2.12-.12-3.19-.1-.91,0-1.82-.06-2.72-.05-.48,0-1,0-1.43,0a5.86,5.86,0,0,0-.94-.08c-.83.09-1.67.05-2.5.07-.31,0-1.62,0-1.54.43a.33.33,0,0,0,.06.1,5.36,5.36,0,0,0,0,1c0,1.06,0,2.12,0,3.18-.07,2-.1,4-.11,6A18,18,0,0,0,36,26.48c0,.14,0,.33,0,.48a.26.26,0,0,0,0,.27.39.39,0,0,0,.31.1c.78.07,1.55.12,2.34.13a13.74,13.74,0,0,0,3.51,0,22.37,22.37,0,0,0,3.37.15c1.55,0,3.1.09,4.65.07.87,0,1.73,0,2.6-.06a.24.24,0,0,0,.15-.08h0c.29-.12.05-.8.08-1.08C53.16,25.14,53,23.8,53.13,22.46Zm-3.41,4.75c-1.6,0-3.2-.13-4.79-.05-.89.06-1.8-.16-2.68-.18a16.39,16.39,0,0,1-2.62.07c-.91-.16-1.85-.08-2.77-.2l-.32,0a.49.49,0,0,0,0-.12c0-.28,0-.56-.07-.85a13.52,13.52,0,0,1,0-2.11c0-2.8.12-5.62.12-8.42,0-.54,0-1.06,0-1.6,0,0,0,0,0-.05a5.62,5.62,0,0,1,1.3-.08c.49,0,1,0,1.46,0a8,8,0,0,1,1.9,0c2.51,0,5,.07,7.52.16.89,0,1.79,0,2.69,0a5.62,5.62,0,0,1,.71,0s0,0,0,0a1.61,1.61,0,0,1,.35.85A8.24,8.24,0,0,1,52.61,16c0,.93,0,1.92,0,2.86s.09,2.13,0,3.18a23.05,23.05,0,0,0-.06,3.22c0,.64,0,1.28.07,1.93C51.69,27.2,50.71,27.23,49.72,27.21Z"/><path class="cls-9" d="M46.67,20.42l2,1.45.77-.92a17.9,17.9,0,0,1-1.91-1.61c-.32-.41-.52-1.07-.89-1.35a1.57,1.57,0,0,0-.72-.31s.18-.42-.16-.52-1.83-.25-1.87,0a.6.6,0,0,0,0,.37,1.87,1.87,0,0,1-.51.37,2.07,2.07,0,0,0-1.19.52A10.07,10.07,0,0,1,41,19.91a6.54,6.54,0,0,0-.81.67,1.56,1.56,0,0,0,.22.61,1.33,1.33,0,0,0,.33.33,2.29,2.29,0,0,0,1.11-.5,6.23,6.23,0,0,1,1-.75s.18.11.06.75S42.77,24,42.77,24a5.86,5.86,0,0,0,1.63.48,4.58,4.58,0,0,0,1.88-.11,2.57,2.57,0,0,0,.53-.44s-.31-2.11-.3-2.58A2.92,2.92,0,0,1,46.67,20.42Z"/><path class="cls-10" d="M49.69,20.94c-.08-.21-.29-.33-.45-.47l-.65-.53a10,10,0,0,1-1.17-1.18c-.25-.34-.38-.77-.77-1a1.93,1.93,0,0,0-.5-.23.45.45,0,0,0-.36-.51,5.53,5.53,0,0,0-.71,0,2.84,2.84,0,0,0-.77,0,.78.78,0,0,0-.37-.05.37.37,0,0,0-.29.05c-.17.13-.17.36-.24.54a.47.47,0,0,0-.06.09l-.18,0c-1,.18-1.52,1.1-2.11,1.84a4.56,4.56,0,0,1-.86.84.31.31,0,0,0-.22.21.16.16,0,0,0-.09.12.28.28,0,0,0,0,.29,1.56,1.56,0,0,0,.52.72c.34.23.75-.07,1.08-.19s.75-.59,1.17-.8c0,.59-.09,1.15-.14,1.75a10,10,0,0,0-.08,1.46h0a.31.31,0,0,0-.06.13c0,.19.15.31.31.35a6.55,6.55,0,0,0,1.3.34c.3.09.61-.06.9.05a1.24,1.24,0,0,0,.47,0,2.35,2.35,0,0,0,1.13-.27c.2-.13.61-.22.51-.53a0,0,0,0,0,0,0,2.89,2.89,0,0,0,0-.66c-.09-.51-.1-1-.16-1.52,0-.3-.06-.61-.06-.91.4.29.82.57,1.21.87.25.13.44.39.72.43A.28.28,0,0,0,49,22c.14-.16.29-.3.42-.47S49.77,21.18,49.69,20.94Zm-5-3.46c.15,0,.29,0,.44,0h.15c-.06,0-.11.06-.16.07s-.22,0-.32,0a1.57,1.57,0,0,1-.35-.11A1.92,1.92,0,0,1,44.7,17.48Zm4,4.1c-.6-.45-1.22-.88-1.84-1.31a.25.25,0,0,0-.42,0,.35.35,0,0,0-.11.1,9.71,9.71,0,0,0,.09,2.15c0,.44.13.87.15,1.31a0,0,0,0,0,0,0,2.25,2.25,0,0,1-.92.35,5.25,5.25,0,0,0-.56,0,1.24,1.24,0,0,0-.43-.06A3.82,3.82,0,0,1,43,23.9s0,0,0,0A8.55,8.55,0,0,1,43,23c.07-.83.18-1.65.2-2.5a.33.33,0,0,0-.29-.34c-.46-.15-.84.31-1.16.58a4.35,4.35,0,0,1-1,.49,1,1,0,0,1-.32-.46l.2-.13a6,6,0,0,0,1-1.1c.46-.6.93-1.4,1.78-1.42a.4.4,0,0,0,.24-.1.44.44,0,0,0,.18-.25l.14.06a1.74,1.74,0,0,0,1,.26,1,1,0,0,0,.72-.2.23.23,0,0,0,.22.14h0l.23.07a1.41,1.41,0,0,1,.69.75A10.67,10.67,0,0,0,49.12,21,4.7,4.7,0,0,1,48.67,21.58Z"/><path class="cls-11" d="M16.2,7.5s.37-.76.61-1.23A12.56,12.56,0,0,1,17.58,5S19.67,5,20.49,5s3.09.32,3.75.39,4.35.13,4.61.76a2.54,2.54,0,0,1,0,1.52c-.05.52.3,4.15.3,5.12a33.15,33.15,0,0,1,0,3.73c-.14.91-.11,4-.11,4s-1.89,6.66-2.26,7.49-2.68,7.44-3,7.67-.15,1.18-.89,1.35-4.88-.21-5-.76A3.63,3.63,0,0,1,18.22,35l1-2.43L23.45,10.4a36.24,36.24,0,0,0-3.78-1.78C18.71,8.33,16.2,7.5,16.2,7.5Z"/><path class="cls-5" d="M29.61,14.54c0-.28-.06-.56-.08-.85-.1-2.3-.49-4.58-.42-6.89a.22.22,0,0,0,0-.25.36.36,0,0,0,.12-.18c.07-.22-.13-.37-.28-.5a2,2,0,0,0-1.38-.51,32.22,32.22,0,0,1-6-.53c-1.24-.17-2.51-.1-3.75-.2-.18,0-.25.15-.36.26a6.83,6.83,0,0,0-1,1.65c-.09.28-.62.75-.16,1a.26.26,0,0,0,.31-.19c.33-.49.49-1,.84-1.51a1.21,1.21,0,0,0,.63.59,1.9,1.9,0,0,0,.69.28A4.52,4.52,0,0,0,20.41,7a11.84,11.84,0,0,0,2.91.18c1,0,1.92,0,2.88,0a.29.29,0,0,0,0,.16A17.72,17.72,0,0,0,27.33,10c.3.45.58.92.88,1.36a8.2,8.2,0,0,1,.57.72v0a.22.22,0,0,0,.14.17c.06.92.11,1.85.22,2.76a.26.26,0,0,0,.32.17C29.74,15.08,29.61,14.76,29.61,14.54Zm-4-7.85c-1,0-2,0-3.06,0a14.63,14.63,0,0,1-2.19-.21,4.14,4.14,0,0,1-1.55-.33,2.59,2.59,0,0,1-.89-.42c-.12-.1-.16-.27-.24-.39s.13-.18.23-.23c.91.08,1.83,0,2.75.11,1.35.14,2.71.4,4.07.51.54,0,1.12.1,1.69.11.73,0,1.61-.17,2.17.4-.28.3-.73.23-1.1.32A9.83,9.83,0,0,1,25.63,6.69ZM28.58,11c-.31-.52-.67-1-1-1.54a20.4,20.4,0,0,1-.9-2.1.31.31,0,0,0,0-.14A9.24,9.24,0,0,0,28.08,7a1.53,1.53,0,0,0,.52-.13,10.59,10.59,0,0,0,0,1.26c.06,1.05.12,2.09.24,3.12Z"/><path class="cls-12" d="M23.37,16.34s2.28,1.74,2.71,2.09S28.31,21,28.82,21s.52,1.07.89,1.39a9.34,9.34,0,0,0,1.94,1.2c.53.19,1.46.38,1.46.68a2.9,2.9,0,0,1-1,1.91c-.67.38-.81.65-1.34.72s-2.47-.62-2.88-.62-1,1.71-1.45,2.64-1,4.23-1.48,4.82-.58,1-1,1a29.83,29.83,0,0,1-3.09-1c-.05,0-.4-.51-.4-.51a5.21,5.21,0,0,0,2.22-.25,9.9,9.9,0,0,0,1.88-1,19.89,19.89,0,0,0-.49-3c-.09-.65-.32-4.45-.39-5.12a36.87,36.87,0,0,0-1.75-4.26,12.17,12.17,0,0,1-.09-2.08c.08-.72.22-2.3.22-2.3Z"/><path class="cls-13" d="M32.25,23.42a9.86,9.86,0,0,1-1.64-.78,2.79,2.79,0,0,1-.72-.56,5.66,5.66,0,0,1-.47-.73,8.63,8.63,0,0,0-1.75-1.87,23.39,23.39,0,0,0-2.27-1.81c-1.13-.75-2.5-1.4-3-2.68a.68.68,0,0,0-.15-.26.35.35,0,0,0-.47.1.89.89,0,0,0-.14.51,5,5,0,0,0,1.75,4,1.73,1.73,0,0,0,1.11.49c.63,0,1.08-.61,1.43-1.13.92.76,1.81,1.54,2.68,2.35a3.37,3.37,0,0,0-1.17,5.17C25.59,28.53,25.84,32,24,34.35a6.82,6.82,0,0,1-3.36-1.22A.94.94,0,0,0,20.3,33a.28.28,0,0,0-.32.19c0,.16.13.28.27.37.57.34,1.16.65,1.76.94a7.28,7.28,0,0,0,1.75.38,1,1,0,0,0,.38,0,.88.88,0,0,0,.43-.36c1.62-2.27,1.55-5.4,3.09-7.72a.7.7,0,0,1,.3-.29.67.67,0,0,1,.37,0c1,.19,1.9.77,2.82.48a2.52,2.52,0,0,0,.93-.58,5.31,5.31,0,0,0,1.15-1.51,1,1,0,0,0,.13-.84c-.13-.27-.45-.37-.74-.47Zm-7.72-4.08a.81.81,0,0,1-.56-.25,1.41,1.41,0,0,1-.65-.47c-.14-.31-.41-.51-.56-.8a4.6,4.6,0,0,1-.61-2.2,13.65,13.65,0,0,0,.94,1.19c.31.26.7.38,1,.65a6.08,6.08,0,0,1,.61.33c.24.17.66.28.78.56S24.85,19.25,24.53,19.34Zm6,7.2-.22,0c-.47-.14-.94-.27-1.42-.37a1.71,1.71,0,0,0-1-.19,4.63,4.63,0,0,1-.56-.85,2.77,2.77,0,0,1,.23-2.31,2.34,2.34,0,0,1,1.16-1.22h0a.24.24,0,0,0,.19-.06c.05.08.1.16.14.24.15.75.94,1.2,1.57,1.51a5.67,5.67,0,0,0,1.57.7A4.53,4.53,0,0,0,30.53,26.54Zm2.29-1.94a5,5,0,0,1-.53.77A3.22,3.22,0,0,1,31,26.47a5.1,5.1,0,0,1,.64-1.25,2.48,2.48,0,0,1,.79-.82c.09-.06.29-.1.4-.18C33,24.34,32.83,24.48,32.82,24.6Z"/><path class="cls-14" d="M22.15,19.68s.65,1.55,1,2.22a11.54,11.54,0,0,1,.71,2.54c.15.81.07,2.48.17,3.29a10.43,10.43,0,0,0,.38,2.51,5,5,0,0,1,.32,1.52A7.19,7.19,0,0,1,22.9,33c-.72.26-4.73.48-5.21.59s-1,.3-1.3.1a5.31,5.31,0,0,1-.6-.51s.11.55-.36.69a5.31,5.31,0,0,1-2.19-.18c-1-.21-4.6-.7-5.08-.91s-2.87-1.35-2.87-1.35-.3-.27,0-.82.42-.93.6-.91a2.32,2.32,0,0,0,.51,0A4.8,4.8,0,0,1,7,28.38c.39-.6.83-.92.86-1.34a9.39,9.39,0,0,1,.34-2.26C8.37,24.47,9.23,23,9.23,23l-.49-1.46s-.07-.14.75-.14a20.17,20.17,0,0,0,4.16-.6c.86-.3,2.85-.53,4.1-.95a8.33,8.33,0,0,1,2.6-.52A6.82,6.82,0,0,1,22.15,19.68Z"/><path class="cls-9" d="M21.84,19.16s0-.95,0-1.68,0-2.3,0-2.3.78.8,1,1a2.48,2.48,0,0,0,1.36.75c1,.28,4.42,1.62,5.07,1.66s.62.06.85-.19a8.07,8.07,0,0,0,.45-2.66c-.05-.36-1.47-1-2-1.24s-4.06-2.86-4.66-3.32a26,26,0,0,0-4.8-3c-1.55-.58-3.25-.95-3.67-1.23s-1.87-1.54-1.87-1.54L9.26,6.8a.31.31,0,0,0-.4.24A7.12,7.12,0,0,1,7.49,9.85a11.18,11.18,0,0,0-2.41,2.58c-.46.87-1.89,4.74-2.29,5.48S.51,23.4.51,23.4a1.06,1.06,0,0,0-.22.9c.16.42,1.08,1.89,1.69,1.83s.58-.46.58-.46l2.08-3.13,3-3.82A4.26,4.26,0,0,0,8,19.9c.24.58.59,1.58.59,1.58a9.8,9.8,0,0,0,3.28,0c1-.35,3.24-.77,4.12-1a26.34,26.34,0,0,1,3.69-.93,8.78,8.78,0,0,1,2.3,0Z"/><path class="cls-10" d="M30.9,16.11a.82.82,0,0,0-.14-.58.23.23,0,0,0-.13-.18h-.07A18.35,18.35,0,0,0,28.11,14a27.14,27.14,0,0,1-4.19-3.12,17,17,0,0,0-5.57-3.17,7.62,7.62,0,0,1-4.1-2c-.14-.11-.23-.35-.44-.33-.19-.16-.53,0-.75,0a16.15,16.15,0,0,0-1.9.61,10.16,10.16,0,0,0-2,.65.25.25,0,0,0-.36,0,2.12,2.12,0,0,0-.25.62,10,10,0,0,1-.92,2.06c-.88,1-2.14,1.73-2.74,3-1.14,2-1.7,4.27-2.76,6.31-.55,1-.74,2.1-1.27,3.11a11.2,11.2,0,0,0-.43,1.35l-.07.14a.2.2,0,0,0-.17.13A1.87,1.87,0,0,0,0,24.52a2.43,2.43,0,0,0,.34.66,4.5,4.5,0,0,0,1.53,1.17c.26.08.73.09.69-.29,0,0,0,0,0,0s.16-.2.24-.28c.42-.53.79-1.11,1.17-1.67.77-1.21,1.46-2.46,2.32-3.62a15.17,15.17,0,0,1,1.26-1.4,14.27,14.27,0,0,0,.84,2.54l.41-.34-.45-1.13A8.26,8.26,0,0,1,8,18.56a.27.27,0,0,0-.06-.19.24.24,0,0,0-.4-.07,3.37,3.37,0,0,1-.42.5,17.29,17.29,0,0,0-2.87,3.91c-.55.88-1.09,1.76-1.71,2.58,0,0,0,0,0,0a3.49,3.49,0,0,0-.66-1.19,2.2,2.2,0,0,0-1-.69c.15-.33.22-.82.3-1,.24-.69.64-1.33.82-2.06.38-1.19,1-2.28,1.52-3.45A33.69,33.69,0,0,1,5.22,12.8a6,6,0,0,1,.94-1.36c.59-.53,1.19-1,1.74-1.62A8.29,8.29,0,0,0,9,7.46a2.13,2.13,0,0,0,.08-.27,6.29,6.29,0,0,0,1.76.28A5.89,5.89,0,0,0,12.79,7a2.2,2.2,0,0,0,1.07-1,8.09,8.09,0,0,0,1.08.94,8.27,8.27,0,0,0,2.37,1A14.43,14.43,0,0,1,23,10.72c1,.75,1.89,1.65,2.92,2.37a8.62,8.62,0,0,0,1.21.83,13.37,13.37,0,0,0,1.55.91,7.75,7.75,0,0,1,1.4.73,2.32,2.32,0,0,0-.63.79,2.47,2.47,0,0,0-.14,1.87,13.23,13.23,0,0,1-1.92-.5c-1-.36-3.2-1-3.33-1.07a3.51,3.51,0,0,1-.65-.31,2.94,2.94,0,0,1-.66-.61L22,14.89a.16.16,0,0,0-.21,0c-.2,0-.27.24-.27.43,0,.35,0,.7,0,1.06,0,.85,0,1.69,0,2.54,0,.21-.1.4-.06.61a.26.26,0,0,0,.46.07.6.6,0,0,0,.08-.29,9.45,9.45,0,0,0,0-1.19c.05-.54,0-1.09,0-1.63,0-.3,0-.6,0-.91l.4.47a3.32,3.32,0,0,0,.7.65,17.27,17.27,0,0,0,1.81.76,22.68,22.68,0,0,0,4.61,1.33l0,.06a.24.24,0,0,0,.35,0,.49.49,0,0,0,.41-.22,2.71,2.71,0,0,0,.38-.91A3.77,3.77,0,0,0,30.9,16.11ZM.86,24a2.92,2.92,0,0,1,1.25,1.76s0,0,0,.05a.44.44,0,0,0,0,.1,1.14,1.14,0,0,1-.34-.19c-.56-.3-1.28-.87-1.27-1.56,0-.08,0-.15.05-.22A.8.8,0,0,1,.86,24ZM12.36,6.57A6.21,6.21,0,0,1,11,7a6.9,6.9,0,0,1-1.11-.07c.56-.22,1.15-.31,1.71-.5a10.11,10.11,0,0,1,1.72-.54A1.82,1.82,0,0,1,12.36,6.57ZM29.92,18.26h-.08a1.08,1.08,0,0,1-.13-.33A1.93,1.93,0,0,1,30.39,16,3.91,3.91,0,0,1,29.92,18.26Z"/><path class="cls-15" d="M24.93,31.7s0-.08,0-.13c-.19-1-.5-1.89-.62-2.89-.13-1.27,0-2.55-.11-3.82a17.5,17.5,0,0,0-.35-1.78,27.08,27.08,0,0,0-1.42-3.33A.27.27,0,0,0,22,19.4a.27.27,0,0,0-.2-.24,12.45,12.45,0,0,0-4.46.53c-.56.2-1.13.33-1.7.48a15.84,15.84,0,0,1-2.72.65,20.87,20.87,0,0,1-2.48.36c-.48,0-1-.1-1.43-.08-.32-.13-.65.49-.65.49.19.49.38,1,.54,1.49l-.06.08a3.62,3.62,0,0,0-.48.63,5.88,5.88,0,0,0-.75,1.88,3.25,3.25,0,0,1-.12,1.39c-.16.35-.46.62-.65,1a9.1,9.1,0,0,0-.48.93,4,4,0,0,0-.13.46h0A.25.25,0,0,0,6,29.35c-.62.14-1,1.11-1.11,1.69a.26.26,0,0,0,.1.5,3.92,3.92,0,0,0,1.42.73,16,16,0,0,0,3.65,1.11c.79.16,1.6.23,2.38.4s1.52.35,2.3.41a1.45,1.45,0,0,0,1-.38.46.46,0,0,0,.08-.19,1.57,1.57,0,0,0,.82.29,28.66,28.66,0,0,0,3.68-.55,9.12,9.12,0,0,0,3.69-.67,1.68,1.68,0,0,0,.72-.57A.6.6,0,0,0,24.93,31.7ZM7.26,28.35A4.39,4.39,0,0,0,8.09,27c.18-.65-.06-1.35.29-2a5.58,5.58,0,0,1,.73-1.33,27.45,27.45,0,0,1,.66,3.12c-.38.31.31.83.49.35A8.17,8.17,0,0,0,10,25.24a14.12,14.12,0,0,0-.5-2,.25.25,0,0,0-.11-.34h0c-.14-.41-.29-.82-.44-1.22a12.16,12.16,0,0,0,2.1.07,40.59,40.59,0,0,0,4.1-.78,19.39,19.39,0,0,1,6.52-1.24.37.37,0,0,0,.21,0,1.26,1.26,0,0,0,.1.38c.32.84.77,1.6,1.14,2.4a11.19,11.19,0,0,1,.32,1.17,2.67,2.67,0,0,0-.34-.15c-.25-.14-.5-.22-.78-.35a1.79,1.79,0,0,0-.47-.44,4.17,4.17,0,0,1-.57-.26c-.18-.18-.27-.43-.46-.61a.25.25,0,0,0-.15-.29c-.21-.18-.5.07-.41.32a1.19,1.19,0,0,0,.3.44,2.48,2.48,0,0,0,.38.52,3.52,3.52,0,0,0,.7.35c.19.14.3.38.53.47s.64.31,1,.4a.24.24,0,0,0,.36-.05c.06.28.11.56.16.84.12,1.32,0,2.67.13,4a.51.51,0,0,1,0,.13.27.27,0,0,0-.28,0c-1.09.28-2.2.45-3.32.63a25.52,25.52,0,0,0-4.59.66s-.06,0-.09.05a4.17,4.17,0,0,1-.05-.71,6.26,6.26,0,0,1,.09-1.72,1.59,1.59,0,0,1,.12-.27.26.26,0,0,0-.46-.22A3.52,3.52,0,0,0,15,28.89,12.48,12.48,0,0,0,15,30.38a3.24,3.24,0,0,0,.13.41l0,0c-1-.15-2-.18-3.08-.37s-1.85-.23-2.77-.4-1.67-.33-2.51-.49c0-.07,0-.14,0-.2A5.23,5.23,0,0,1,7.26,28.35Zm-1.2,1.52h0a6,6,0,0,0,.88.18,33.23,33.23,0,0,0,3.56.65c1.51.22,3,.41,4.52.58a.23.23,0,0,0,.22-.09.32.32,0,0,1,0,.09c.07.42.1.84.13,1.27a.31.31,0,0,0-.11.29.48.48,0,0,0,.08.16c-.38-.19-.8-.31-1.19-.48a21.93,21.93,0,0,0-2.2-.75,15,15,0,0,0-2.21-.38A30.48,30.48,0,0,0,5.44,31,2.09,2.09,0,0,1,6.06,29.87Zm8.79,3.82c-1.24-.13-2.44-.5-3.68-.65a18.86,18.86,0,0,1-5.3-1.54,43.29,43.29,0,0,1,5.55.65,22.7,22.7,0,0,1,3.91,1.38A1.7,1.7,0,0,1,14.85,33.69Zm1.07-.79a.27.27,0,0,0,0-.18,7.57,7.57,0,0,0-.29-2,.22.22,0,0,0,.24-.09,26.22,26.22,0,0,1,4-.56,31.17,31.17,0,0,0,3.84-.68.27.27,0,0,0,.18-.11c.13.74.32,1.46.49,2.18h-.15c-.58,0-1.16.1-1.75.13a30.9,30.9,0,0,0-4.07.57,9.39,9.39,0,0,0-2.48.77Zm4.42,0a36.12,36.12,0,0,1-3.61.55,1,1,0,0,1-.43-.09,12.57,12.57,0,0,1,2.43-.71A46.58,46.58,0,0,1,24.26,32C23.14,32.81,21.68,32.75,20.34,32.85Z"/></g></g></svg>