<svg xmlns="http://www.w3.org/2000/svg" viewBox="0 0 29.76 15.55"><defs><style>.cls-1{fill:#803124;}.cls-2{fill:#fcd4ac;}.cls-3{fill:#6b1e1e;}.cls-4{fill:#d09971;}.cls-5{fill:none;}</style></defs><g id="Layer_2" data-name="Layer 2"><g id="Card"><path class="cls-1" d="M10.77,11.94a2.29,2.29,0,0,0-.77-.19H9.88a.83.83,0,0,0-.22,0,.49.49,0,0,0-.32.29.31.31,0,0,0,0,.19.58.58,0,0,0,.06.26s0,0,0,0a.58.58,0,0,0,.1.12.44.44,0,0,0,.15.12.78.78,0,0,0,.3.07.76.76,0,0,0,.26-.06l.09,0s0,0,0,.06a.69.69,0,0,0,.11.13l-.48-.14a3,3,0,0,0-.66-.09.53.53,0,0,0-.36.15.52.52,0,0,0-.14.35.53.53,0,0,0,.32.47.53.53,0,0,0-.1.06,2,2,0,0,1-1.46.51A3,3,0,0,1,6,13.62a4.75,4.75,0,0,1-1.27-1.18,2.9,2.9,0,0,1-.36-.85,10.52,10.52,0,0,0-.39-1,.48.48,0,0,0-.22-.26.64.64,0,0,1,0-.07c-.26-.49-.42-1-.64-1.54A11.43,11.43,0,0,1,2.46,7.3a2.64,2.64,0,0,0-.65-1.18l-.34-.34-.1-.1,0,0,0-.07a.46.46,0,0,0-.23-.39.49.49,0,0,0-.68.18c-.21.46.1.84.41,1.17.11.12.24.23.36.35a1.29,1.29,0,0,1,.29.54,11.67,11.67,0,0,0,.68,1.63c.28.57.45,1.18.74,1.74a.44.44,0,0,0,.18.18,4.25,4.25,0,0,0,.21.49,4.06,4.06,0,0,1,.19.59,3.47,3.47,0,0,0,.48,1,7.05,7.05,0,0,0,1.7,1.52,3.48,3.48,0,0,0,2,.74,3,3,0,0,0,2-.81.45.45,0,0,0,0-.66l.47.14a.5.5,0,0,0,.44-.87.47.47,0,0,0,.35-.06.5.5,0,0,0,.23-.29.69.69,0,0,0,0-.35.81.81,0,0,0-.17-.28A.69.69,0,0,0,10.77,11.94Zm-1,0,.09,0,.1,0h0A.42.42,0,0,0,9.73,11.92ZM1.25,5.86a.54.54,0,0,0,.05-.21A.28.28,0,0,1,1.25,5.86Z"/><path class="cls-1" d="M29.51,5.64a1.9,1.9,0,0,0-.71-1.06,2.12,2.12,0,0,0,.36-.3.51.51,0,0,0-.48-.84l-.46.11a.53.53,0,0,0-.86-.33,5.46,5.46,0,0,0-.77.75.51.51,0,0,0,.22.84,1.63,1.63,0,0,0,.82-.07.8.8,0,0,0,.45.56.86.86,0,0,1,.32,1.24c-.12.23-.31.43-.45.65a6.48,6.48,0,0,1-.53.76,16,16,0,0,1-2.57,2.44c-.8.56-1.81,1-2.25,1.89-.23.47.4,1.08.78.6l.1-.12a.35.35,0,0,0,.05-.08c.46-.8,1.53-1.18,2.24-1.73A11,11,0,0,0,27.1,9.73c.39-.41.81-.81,1.17-1.24a15.77,15.77,0,0,0,.93-1.33A2,2,0,0,0,29.51,5.64Z"/><path class="cls-1" d="M14.22,8.49l0-.09-.06-.15A.32.32,0,0,0,14,8.08.37.37,0,0,0,13.9,8l-.05-.06a.55.55,0,0,0-.2-.11.48.48,0,0,0-.33-.15.45.45,0,0,0-.25.07.43.43,0,0,0-.1.09l0,0,0,0,0,0a.2.2,0,0,0,0,.08h0a.14.14,0,0,1,0,.06h0a.33.33,0,0,0,0,.14.51.51,0,0,0,.15.35l.1.08h0l.11.06.05.06,0,0h0a.51.51,0,0,0,.15.35l.1.08a.45.45,0,0,0,.25.07A.6.6,0,0,0,14,9.17.35.35,0,0,0,14.18,9a.46.46,0,0,0,.09-.17.59.59,0,0,1,0-.13A.72.72,0,0,0,14.22,8.49Zm-.92-.82Zm-.12,0h.05Z"/><path class="cls-2" d="M16.48,5.89a5,5,0,0,0-.1-.76A.19.19,0,0,0,16.21,5a1,1,0,0,0-.12-.23.23.23,0,0,0,.08-.38A1.57,1.57,0,0,0,15.56,4V4a.25.25,0,0,0-.4-.11l-.05.06a2.92,2.92,0,0,0-.66,0,.63.63,0,0,0-.67-.08,1.67,1.67,0,0,0-.74.87l0,.07a1.58,1.58,0,0,0-.33.8,1.16,1.16,0,0,0-.09.84,1.88,1.88,0,0,0,.49,1,.22.22,0,0,0,.31,0l.07.05h0l.12.06,0,0,.12,0a.32.32,0,0,0,.37.26.67.67,0,0,0,.2,0,.22.22,0,0,0,.3.07l.18-.09a1.35,1.35,0,0,0,.46-.11.22.22,0,0,0,.3,0A2.83,2.83,0,0,0,16,7.15.17.17,0,0,0,16.09,7V7a2.14,2.14,0,0,0,.3-.39A1.27,1.27,0,0,0,16.48,5.89Z"/><path class="cls-2" d="M21,3.33c0-.12,0-.24,0-.37v0h0a.15.15,0,0,1,0-.07.14.14,0,0,0-.07-.11v0s0,0,0-.06a6.81,6.81,0,0,0-.53-1.24A.22.22,0,0,0,20,1.36,1.5,1.5,0,0,0,18.92.9a2.18,2.18,0,0,0-.79.19.67.67,0,0,0-.3.16,1.15,1.15,0,0,0-.58.61A1,1,0,0,0,17,3.13a1.42,1.42,0,0,0,0,.36,1.36,1.36,0,0,0,0,.2.71.71,0,0,0,.27.69.33.33,0,0,0,.33,0l0,0a.7.7,0,0,0,.35.22h0l0,0h0a2.12,2.12,0,0,0,.51.13.24.24,0,0,0,.27.33l.25,0a.2.2,0,0,0,.14,0A.92.92,0,0,0,19.58,5a.23.23,0,0,0,.17,0l.14-.1.07,0,.44-.36.05-.06a.21.21,0,0,0,.13-.07l.16-.21A.25.25,0,0,0,20.86,4a1.19,1.19,0,0,0,.1-.32A.6.6,0,0,0,21,3.49.22.22,0,0,0,21,3.33Z"/><path class="cls-2" d="M26.87,1.71a1.63,1.63,0,0,0-1-1.07A1.87,1.87,0,0,0,25,.56a.15.15,0,0,0-.13,0h-.1a.17.17,0,0,0-.12,0,.94.94,0,0,0-.15.06,1,1,0,0,0-.21.1l-.11.05s0,0,0,0h0L24,.82a.65.65,0,0,0-.5.3,1.59,1.59,0,0,0-.32,1,.62.62,0,0,0-.18.77.56.56,0,0,0,.23.45.56.56,0,0,1,.05.08.22.22,0,0,0,.14.31l.21.08a.7.7,0,0,0,.37.33c-.1.15-.05.39.17.37l.52,0a.22.22,0,0,0,.17.09,2.22,2.22,0,0,0,1.22-.38l0,0a.22.22,0,0,0,.26-.1A3.62,3.62,0,0,0,27,2.73,1.63,1.63,0,0,0,26.87,1.71Z"/><path class="cls-3" d="M14.27,8.22h0Z"/><path class="cls-1" d="M22.39,2.66v0h0l0-.08.05-.07,0,0h0A.37.37,0,0,0,23,2.08a.24.24,0,0,0-.14-.21.22.22,0,0,0-.24-.08l-.05,0h0l-.05,0-.07,0a1.36,1.36,0,0,0-.28.31A.18.18,0,0,0,22,2.15l-.6-.31a.25.25,0,0,0-.32.08.25.25,0,0,0,.09.33c.27.19.56.38.85.55A.23.23,0,0,0,22.39,2.66Z"/><path class="cls-1" d="M17.25,3.79a.18.18,0,0,0-.05-.07l-.05,0a.2.2,0,0,0-.11,0h-.11l-.09,0,0,0h0l0,0a.4.4,0,0,0-.3,0,.36.36,0,0,0-.09.05h-.06a.24.24,0,0,0-.24.23.49.49,0,0,0,.13.33.43.43,0,0,0,.1.09s0,0,0,0a.47.47,0,0,0,.06.09l.08,0,.07,0a.28.28,0,0,0,.18,0,.44.44,0,0,0,.14-.13l0-.06v0H17l.09,0,.07,0,0,0,.06-.08a.36.36,0,0,0,0-.09s0,0,0,0,0-.06,0-.1A.29.29,0,0,0,17.25,3.79Z"/><path class="cls-4" d="M16.47,5.24a.25.25,0,0,0-.11-.12,2.37,2.37,0,0,0-.11-.46c-.06-.17-.11-.28-.22-.2.12-.11-.05-.09-.05-.1s-.11-.08-.18-.1-.09-.16-.11-.3a.24.24,0,0,0-.29-.16.24.24,0,0,0-.16.29,3,3,0,0,1-1.63,3.06.24.24,0,0,0,0,.41.22.22,0,0,0,.17.2.58.58,0,0,0,.19,0,.47.47,0,0,0,.29.11A1.43,1.43,0,0,0,15,7.65h.09a.24.24,0,0,0,.2,0l.11-.07a.25.25,0,0,0,.12,0,1,1,0,0,0,.33-.25l.07,0a2.14,2.14,0,0,0,.28-.39.22.22,0,0,0,.24-.16A2.25,2.25,0,0,0,16.47,5.24Z"/><path class="cls-4" d="M21,3.28A2.18,2.18,0,0,0,20.56,2a6.4,6.4,0,0,0-.42-.49,1.59,1.59,0,0,0-.56-.44A1.37,1.37,0,0,0,19.23,1a2.56,2.56,0,0,0-1.2,0H18a.19.19,0,0,0-.17.2c-.21.14-.09.52.17.42.64-.22,1.16.33,1.53.77a3.43,3.43,0,0,1,.57.8,3,3,0,0,1,.18,1,.25.25,0,0,0,.36.2A1.15,1.15,0,0,0,21,3.28Z"/><path class="cls-4" d="M27.05,1.58a3.13,3.13,0,0,0-1-1.11h0L26,.43a.27.27,0,0,0-.12,0v0c-.14-.27-.54,0-.41.24a2.88,2.88,0,0,1-.61,3.6c-.16.12-.14.46.12.43A2.46,2.46,0,0,0,27.12,3,2,2,0,0,0,27.05,1.58Z"/><path class="cls-5" d="M19.68,1.22a1.74,1.74,0,0,0-2.08.3,2,2,0,0,0-.52,1.92c.33.2.32.44.49.72a1.31,1.31,0,0,0,.67.48,2.51,2.51,0,0,0,1.29.23,1.46,1.46,0,0,0,.39-.12c.66-.3,1.32-1.08,1-1.77S20.45,1.6,19.68,1.22Z"/><path class="cls-5" d="M16.17,4h0c.11.09.21.2.31.3l.12.18a1,1,0,0,1,.18-.07.35.35,0,0,0,.2-.34c-.1-.08-.13-.15-.25-.19S16.33,3.89,16.17,4Z"/><path class="cls-5" d="M15,4.05a1.84,1.84,0,0,0-1.81.65,2.58,2.58,0,0,0-.39,1.16,1.56,1.56,0,0,0,.1.88,2,2,0,0,0,.34.49l.08.07h.14a.56.56,0,0,1,.47.18c.51.54,1.65.1,2.08-.36a2.19,2.19,0,0,0,.31-2A1.52,1.52,0,0,0,15,4.05Z"/><path class="cls-5" d="M22.21,2.71a.7.7,0,0,0-.36-.51.5.5,0,0,0-.43-.11C21.61,2.37,21.82,2.74,22.21,2.71Z"/><path class="cls-5" d="M24.26,4.16a1.8,1.8,0,0,0,2.25-.49A1.91,1.91,0,0,0,25.2.53a2,2,0,0,0-1.44.57,1.73,1.73,0,0,0-.43.63c-.07.23.05.5-.08.7a1,1,0,0,1-.17.19,1.63,1.63,0,0,0,.38,1A2.16,2.16,0,0,0,24.26,4.16Z"/><path class="cls-5" d="M22.77,2.17A.56.56,0,0,0,22.7,2l-.1,0a.19.19,0,0,1-.05.1l.08.13A.67.67,0,0,0,22.77,2.17Z"/><path class="cls-5" d="M28.3,2.94c-.26-.38-.47.72-.46.86a.63.63,0,0,0,.38.57.12.12,0,0,0,.1,0,.07.07,0,0,0,.05,0,.24.24,0,0,0,0-.09c0-.23-.15-.43-.17-.66S28.38,3.07,28.3,2.94Z"/><path class="cls-3" d="M22.47,3.2c.2.06.35.49.51.68a2.88,2.88,0,0,0,1.54.94,2.33,2.33,0,0,0,1.17,0c.76-.18,1.11-.79,1.59-1.31l.27-.85A2.72,2.72,0,0,0,26.77.65,2,2,0,0,0,25.39,0,2.39,2.39,0,0,0,23,1.28l-.12.21a.76.76,0,0,0-.73.22L22,1.65c-.24-.14-.85-.18-1,.05a2.53,2.53,0,0,0-3.19-1A2.5,2.5,0,0,0,16.65,2a3.34,3.34,0,0,0-.19.94c0,.43-.26.42-.67.61-.26.12-.63,0-.9-.07a2.24,2.24,0,0,0-1.09.1,2.31,2.31,0,0,0-1.46,1.74,2.1,2.1,0,0,0,.53,2.33c0,.09,1.16.53,1.16.53s.07,0,.05,0a2.57,2.57,0,0,0,2.32-.76A2.4,2.4,0,0,0,17,5.76c0-.22-.2-.64-.11-.81a.55.55,0,0,1,.69-.09,2.72,2.72,0,0,0,2.53.41,2.27,2.27,0,0,0,1.45-2.2C21.52,3.31,22.39,3.17,22.47,3.2Zm.78-.77c.13-.2,0-.47.08-.7a1.73,1.73,0,0,1,.43-.63A2,2,0,0,1,25.2.53a1.91,1.91,0,0,1,1.31,3.14,1.8,1.8,0,0,1-2.25.49,2.16,2.16,0,0,1-.8-.5,1.63,1.63,0,0,1-.38-1A1,1,0,0,0,23.25,2.43ZM22.6,2l.1,0a.56.56,0,0,1,.07.16.67.67,0,0,1-.14.09l-.08-.13A.19.19,0,0,0,22.6,2ZM16,7.12c-.43.46-1.57.9-2.08.36a.56.56,0,0,0-.47-.18H13.3l-.08-.07a2,2,0,0,1-.34-.49,1.56,1.56,0,0,1-.1-.88,2.58,2.58,0,0,1,.39-1.16A1.84,1.84,0,0,1,15,4.05,1.52,1.52,0,0,1,16.3,5.11,2.19,2.19,0,0,1,16,7.12Zm.78-2.73a1,1,0,0,0-.18.07l-.12-.18c-.1-.1-.2-.21-.31-.3h0c.16-.08.36-.2.55-.11s.15.11.25.19A.35.35,0,0,1,16.77,4.39Zm3.15.36a1.46,1.46,0,0,1-.39.12,2.51,2.51,0,0,1-1.29-.23,1.31,1.31,0,0,1-.67-.48c-.17-.28-.16-.52-.49-.72a2,2,0,0,1,.52-1.92,1.74,1.74,0,0,1,2.08-.3c.77.38.92,1.05,1.24,1.76S20.58,4.45,19.92,4.75ZM21.85,2.2a.7.7,0,0,1,.36.51c-.39,0-.6-.34-.79-.62A.5.5,0,0,1,21.85,2.2Z"/><path class="cls-2" d="M14,10.62a1,1,0,0,0-.14-1.07c0-.11,0-.21,0-.32a.23.23,0,0,0-.28-.18,0,0,0,0,0,0,0A2.34,2.34,0,0,0,13,8.55a.26.26,0,0,0-.14-.13l-.29-.08a2.24,2.24,0,0,0-.67-.15.24.24,0,0,0-.13,0h-.23a2,2,0,0,0-.77.13,1.15,1.15,0,0,0-.5.42.25.25,0,0,0-.2,0L10,8.85a.26.26,0,0,0-.2.1,2.11,2.11,0,0,0-.37.75l0,.09a.13.13,0,0,0,0,.06s0,.05,0,.08a1.64,1.64,0,0,0,0,1.07.61.61,0,0,0,.29.26.54.54,0,0,0,.36.18,1.68,1.68,0,0,0,.38.23,2.53,2.53,0,0,0,.37.18l.43.31a1.42,1.42,0,0,0,.72.32.71.71,0,0,0,.37-.12.26.26,0,0,0,.14.15.23.23,0,0,0,.37.09l.08-.07s.06,0,.09,0A2.08,2.08,0,0,0,14,11.38a1.16,1.16,0,0,0,0-.69Z"/><path class="cls-4" d="M14.26,10.48a2.9,2.9,0,0,0-.48-1.06l0-.23c0-.11-.1-.16-.2-.18a.68.68,0,0,0-.47-.62.23.23,0,0,0-.15.44c.27.08.18.59.16.79a2,2,0,0,1-.36,1,3.27,3.27,0,0,1-1.8,1,.24.24,0,0,0,0,.45,2.09,2.09,0,0,0,.34.08.26.26,0,0,0,.28.21l.06,0,.08.05a.34.34,0,0,0,.14,0,.21.21,0,0,0,.12,0,1.67,1.67,0,0,0,1.4-.6,1.55,1.55,0,0,0,.24-.19.25.25,0,0,0,.19,0A1,1,0,0,0,14.26,10.48Z"/><path class="cls-3" d="M14.42,9.74a.93.93,0,0,1-.1-.26c0-.17.1-.3.19-.45a1.42,1.42,0,0,0-.57-1.53,1.12,1.12,0,0,0-.56-.22,1.14,1.14,0,0,0-.89.44,3.26,3.26,0,0,0-3,.92,2.58,2.58,0,0,0-.61,2c0,.29.36.73.33,1,0,.07-.2.22-.24.32a1.09,1.09,0,0,0,0,.44l.19.2.21.11c.23.1.46.18.69.29l.45.22.12,0h-.07a1.09,1.09,0,0,1,.36.12.78.78,0,0,0,.51-.41,1.23,1.23,0,0,0,.27,0C13.23,13.19,15.17,11.2,14.42,9.74Zm-3.85,3c-.32-.21-.72-.24-1.05-.44-.08-.43.51-.34.78-.31a1.57,1.57,0,0,1,.67.44c0,.09,0,.18,0,.27S10.72,12.91,10.57,12.77Zm1.19-.31a.31.31,0,0,1-.12-.05.5.5,0,0,1-.12-.13,1.9,1.9,0,0,0-.83-.68c-.32-.14-.77,0-1-.32a1,1,0,0,1-.22-.52,2.19,2.19,0,0,1,3.55-2,3.05,3.05,0,0,1,.64.74,2.12,2.12,0,0,1,.31.62s0,0,0,.06A2.2,2.2,0,0,1,11.76,12.46ZM14,9l0,0a2.55,2.55,0,0,0-.65-.7c-.11-.1-.23-.19-.35-.28a.61.61,0,0,1,.88.06A.89.89,0,0,1,14,9Z"/><path class="cls-3" d="M28.57,5a1.87,1.87,0,0,1-.08,2.25c-.13.19-.27.38-.43.58a12.42,12.42,0,0,1-2.33,2.25,18.76,18.76,0,0,0-2.69,2c-.15.15-.29.38-.16.55s.46.05.65-.11c1-.86,2.06-1.8,3-2.75A12.73,12.73,0,0,0,29.1,6.64,1.57,1.57,0,0,0,28.76,5a.74.74,0,0,0-.12-.13L29,4.39a2.34,2.34,0,0,1,.81,1.8,4.26,4.26,0,0,1-1.27,2.36c-.7.8-1.53,1.48-2.24,2.25A15.87,15.87,0,0,1,23.78,13c-.45.31-1.19.56-1.43-.12-.37-1.06,1-1.8,1.74-2.26A14.45,14.45,0,0,0,27.92,7.1a1.42,1.42,0,0,0,.3-1.65L28.55,5Z"/><path class="cls-3" d="M7,15.49a2.84,2.84,0,0,0,1,0A3.55,3.55,0,0,0,9.2,15a1,1,0,0,0,.36-.19,1.53,1.53,0,0,0,.51-.71.68.68,0,0,0,.92-.67c0-.16-.12-.29-.21-.41a.93.93,0,0,0-.15-.13l-.14,0L10,12.61H9.9a1.5,1.5,0,0,1-.34-.11.9.9,0,0,0-1,.37.68.68,0,0,0,.06,1,.3.3,0,0,0,0,.1,2.11,2.11,0,0,1-1.81-.19,5.79,5.79,0,0,1-2.1-2.21C3.6,9.71,3.22,7.46,1.91,5.67c-.3-.3-.54-.85-1-.82a1.54,1.54,0,0,0-.82.42c-.29.51.36,1,.58,1.4A11.85,11.85,0,0,1,1.58,8.3C2.66,11.1,3.63,14.75,7,15.49Zm1.89-2a.1.1,0,0,1,0,0,.19.19,0,0,1,0-.1A.63.63,0,0,1,9.55,13c.13,0,1.18.42.76.6-.14.06-.46-.17-.61-.19s-.46.11-.69.06ZM2.25,8.52A13.92,13.92,0,0,0,.56,5.57a1.11,1.11,0,0,1,.38-.18,7.91,7.91,0,0,1,1.76,3,31.32,31.32,0,0,0,1.43,3.32,5.42,5.42,0,0,0,3.31,2.91,1.77,1.77,0,0,0,1.64-.31c.13-.13.23-.28.42-.32a.47.47,0,0,1-.14.31,1.18,1.18,0,0,1-.45.28,2.63,2.63,0,0,1-2,.33C4.1,14.17,3.12,10.94,2.25,8.52Z"/><path class="cls-3" d="M26.16,4.26c-.06.36.16.72.69.78a.9.9,0,0,0,1-.44,10.94,10.94,0,0,0,.47-1.26c0-.15,0-.34-.14-.44a.71.71,0,0,0-.83-.14c-.06,0-.24.46-.4.62A11.56,11.56,0,0,0,26.16,4.26Zm1.39-1c.42-.17,0,.86-.11,1a.64.64,0,0,1-.64.25.15.15,0,0,1-.09-.06.11.11,0,0,1,0-.06.36.36,0,0,1,0-.09c.12-.19.37-.27.52-.44S27.4,3.32,27.55,3.27Z"/><path class="cls-3" d="M29.53,4.11c.06-.36-.15-.72-.69-.78a.89.89,0,0,0-1,.44c-.05.1-.47,1.19-.47,1.26s0,.34.15.44a.69.69,0,0,0,.82.14c.06,0,.25-.46.41-.62A11.19,11.19,0,0,0,29.53,4.11Zm-1.38,1c-.42.17,0-.86.11-1a.62.62,0,0,1,.64-.25.18.18,0,0,1,.09.06A.07.07,0,0,1,29,4a.29.29,0,0,1,0,.1c-.12.19-.38.26-.52.44S28.29,5.05,28.15,5.1Z"/></g></g></svg>