<svg xmlns="http://www.w3.org/2000/svg" viewBox="0 0 62.95 67.7"><defs><style>.cls-1{fill:#ff8500;}.cls-2{fill:#b1dde3;}.cls-3{fill:#fcd4ac;}.cls-4{fill:#00a97c;}.cls-5{fill:#faed62;}.cls-6{fill:#e52823;}.cls-7{fill:#ad5404;}.cls-8{fill:#d09971;}.cls-9{fill:#6b1e1e;}</style></defs><g id="Layer_2" data-name="Layer 2"><g id="Card"><path class="cls-1" d="M27.1,45.33l-2.29,1.45s-6.5-2.87-6.91-3.61.52-2.17.52-2.17l2.33-1.09,4.75,2.3Z"/><path class="cls-2" d="M38,46.6c-.11,0-3,2-3,2l2,1.68,3.76-1.48Z"/><path class="cls-3" d="M22.3,43.08a34.6,34.6,0,0,0,4,2c1.58.53,5.44,2,5.44,2L35,48.58a23.83,23.83,0,0,1,3.4-2.24c1.13-.48,2.83-1.13,2.83-1.13l-3.48-1.87,4-2.9-5.06-2.68-1.91,1.81-4.25,3.28-4-1.45Z"/><path class="cls-2" d="M32.25,37.14s-3.93-.29-4.88.24a2.07,2.07,0,0,0-1.09,1.31l1.92,1.22s5.31-2.43,4.95-2.52S32.25,37.14,32.25,37.14Z"/><path class="cls-2" d="M41.25,45.21l-2.9,1.54-.54.27a11,11,0,0,1,2.08.68,11.5,11.5,0,0,1,.92,1.08l4.12-1.88Z"/><path class="cls-2" d="M32.9,37a23.52,23.52,0,0,1-2.56,2.23c-.79.49-3.27,1.93-3.27,1.93a2.74,2.74,0,0,0,1.71.88,7.4,7.4,0,0,1,2,.41l5.65-3.87Z"/><path class="cls-1" d="M41.74,40.44s-4.41,3.21-4,2.9,5.28,2.51,5.5,2.79a6.83,6.83,0,0,0,1.66.77l5.54-2.66Z"/><path class="cls-4" d="M25.24,46.91c0,.1,1.85-1.29,1.85-1.29s5.26,1.89,7,2.69a9.16,9.16,0,0,1,3.18,3.06l-4.93,1.36Z"/><path class="cls-5" d="M32.89,41.22c.49-.37,3.06.22,3.79,1s1.09,1.13,1.09,1.13L35,44.42l-4.17-2Z"/><path class="cls-5" d="M21.35,40.23c.13.11,2.68,1.38,2.68,1.38s.74.92.59.6S28.54,40,28.54,40l-2.61-1.78Z"/><path class="cls-6" d="M62.17,50.75C60.82,48,60,46.83,59.38,46.69a4.61,4.61,0,0,0-1-.15s-3.24-3.79-5.84-4.95S40.26,36,40.26,36s-.36-1.6-.59-2.68-6-17.65-6-17.65S28.72,3,28.22,2.24s-.77-2-1.56-1.92-1.07-.27-1.33,0-.52.5-.57.57,0,1.62,0,1.62-7.27,1.59-8.92,2.18S8.82,7,7.78,7.25,4.41,8.3,3.9,8.36A2.05,2.05,0,0,0,3,8.73L2.15,7.48a8.14,8.14,0,0,0-1.57.44c-.17.16-.5.46-.28,1.42s3.25,7.91,4.2,10.24,2.15,7,2.51,7.88,4.18,10.77,4.18,10.77l.75,2.31A5.71,5.71,0,0,0,10,40a4.68,4.68,0,0,0-1.91.71,3.16,3.16,0,0,0-1,1.61,1.9,1.9,0,0,1-.24.92,5,5,0,0,0-1.55,2.15c-.3,1.14,0,4.8,1.47,6.23s2.63,2,3.18,1.85a1.92,1.92,0,0,0,1.32-1c.23-.54.49-1.43.49-1.43l3.37,1.76s.69,1.65,1.46,1.77a1.65,1.65,0,0,0,1.25-.27l10.81,5.84s.67,4.75,2.59,6,2.35,1.45,3,1.28a2,2,0,0,0,1.39-.94c.23-.45.85-1.79.85-1.79a1.49,1.49,0,0,0,1.09.24c.48-.16,1.16,0,1-1.08A18.43,18.43,0,0,0,38,61s3.61-1.5,4.55-2,12.36-5.17,12.36-5.17a20,20,0,0,0,2.34,1.28,8.05,8.05,0,0,0,1.06.27s0,1.16.93,1.25A3.34,3.34,0,0,0,61.72,56C62.43,55.39,63.52,53.48,62.17,50.75ZM14.92,39.57s-.66-1.48-.8-1.92-1.8-4.88-2-5.44-3.13-9-3.45-9.88S5.28,13.26,5,12.52a10.65,10.65,0,0,1-.54-2s13-4.19,13.66-4.36S25.5,4,25.5,4a41,41,0,0,0,2.09,4.19c.53.69,5.8,15.14,5.91,15.4S35.9,31.06,36,31.7a25.8,25.8,0,0,0,.72,2.79,11,11,0,0,0-2.36-1.32,19,19,0,0,0-3-.63,5.72,5.72,0,0,0-2.12.86c-1.19.63-.76,1.5-.76,1.5s-2.57.79-3.44,1.19-4.55,1.68-5.68,2S14.92,39.57,14.92,39.57ZM48.64,45l-.12,0-13,5.37a5.75,5.75,0,0,1-2.82.65,5.88,5.88,0,0,1-2.2-.91c0-.16-1.39-.82-1.57-.93l-1.65-1-3.28-1.92-3.28-1.93-1.64-1c-.34-.21-.71-.47-.63-.93s1-.76,1.41-1l2.15-1,4.22-1.91c1.9-.85,3.9-1.73,6-1.55a12.44,12.44,0,0,1,4.18,1.4l12.1,5.77c.17.08.37.2.36.39A.4.4,0,0,1,48.64,45Z"/><path class="cls-3" d="M28.82,59.46a16.47,16.47,0,0,0,.8,4.27c.57,1.18,2.07,3.45,2.88,3.5s1.83.45,2.66-.06A3.28,3.28,0,0,0,36.51,64c-.17-1.56-.89-4.46-2.45-5.76s-2.68-2.25-3.7-1.64A3.11,3.11,0,0,0,28.82,59.46Z"/><path class="cls-3" d="M10.1,53.15c.77,0,2.36-1.18,1.94-3.48a10.85,10.85,0,0,0-2.15-5.09,3,3,0,0,0-3.11-1,1.89,1.89,0,0,0-1.45,1.79c-.2.92-.22,3.91,1,5.56A5,5,0,0,0,10.1,53.15Z"/><path class="cls-3" d="M14.92,39.57S24,36.27,25,36.09s4.19-1.69,4.82-1.74,1.74,0,1.95.43a7,7,0,0,1,.24,1.89s-8.06,2.6-8.88,3.09A18.76,18.76,0,0,1,21,41.07c-.42.1-3.51,1.78-3.51,1.78l-1.56-.61Z"/><path class="cls-3" d="M32.89,51.49a17.93,17.93,0,0,1,2.28,2.74,46.88,46.88,0,0,1,2.37,5c.13.49.42,1.86.42,1.86s7.17-3.2,8.46-3.72,4.57-1.8,5.21-2.14,3.24-1.33,3.24-1.33-.54-3-.66-3.86-.34-5-.46-5.36-.74-1-1.24-.91S32.89,51.49,32.89,51.49Z"/><path class="cls-7" d="M58.34,46.54s2.37.52,3.08,2.16,1.89,3.8,1.26,5.51-.53,1.91-1.52,2.14a9.9,9.9,0,0,1-2,.3c-.29,0-.9-.72-.9-.72A7.66,7.66,0,0,1,60,55.5c.61,0,.69-.45.58-.84a17.72,17.72,0,0,0-.48-3.79A44.92,44.92,0,0,0,58.34,46.54Z"/><path class="cls-8" d="M17.4,54.68a11.4,11.4,0,0,0-.25-3.74c-.49-1.85-3.65-11-3.65-11l-1.87-5.83L5.7,18s-2.21-5.54-2.37-6S1.11,7.75,1.11,7.75l1-.27L3,8.73S7,7.4,7.78,7.25,14,5.35,14.69,5.09,18.93,4,19.48,3.74s4.78-1.2,4.78-1.2l.36-.17,1.54-.25.37,0L25.88.49s.07-.34.78-.17S28,2.07,28.26,2.74a64.55,64.55,0,0,0,2.72,6c.64,1,2.42,6.58,2.8,7.24s3.94,10.9,4.3,12.12,2,7.16,2,7.16l.14.74s7.83,3.46,8.39,3.72,5.69,2.71,6.64,3.7,3.28,3.3,4.06,5.37a31.66,31.66,0,0,1,1.48,5.6,5,5,0,0,1-.66,1.46l-.29,0a31.23,31.23,0,0,0-1.78-7,18.21,18.21,0,0,0-4.47-5.64c-.78-.45-3.64-1.74-4.38-2.14s-9.09-4-9.09-4l-2-.5-6.47-3.19L30.33,33s-.15-.1.27-.19.54-.34.76-.31,1.52.29,2,.34a20.75,20.75,0,0,1,3,1.48l2.49,1.16.3.07S38.35,31.94,38,31.2s-3.38-10.42-3.61-10.8-3.05-8.07-3.25-8.24-3.47-8.35-3.47-8.35l-.76-1.2s-.67.53-.61.78-.55.6-.88.85-8.06,2.06-8.9,2.24S6.5,9.75,5.89,9.91a16.91,16.91,0,0,0-1.77.67s1.3,2.83,1.63,4,3.39,8.48,3.61,9.29,4.06,11.72,4.27,12.45a35,35,0,0,0,1.71,5.09,15,15,0,0,1,1.44,3.67c.17.82,1.29,3.79,1.4,4.83a23.68,23.68,0,0,1,.47,3.47c-.14.46-.19.68-.49.8A3.85,3.85,0,0,0,17.4,54.68Z"/><path class="cls-8" d="M8,41a4.09,4.09,0,0,1,2.2,0c.85.38,2.15.93,2.15.93l-.9-1.25L10,40l-.59.33Z"/><path class="cls-8" d="M15.47,42.21s4.58,2.25,6.27,2.88,9,5.29,10.07,5.85,2.24,2.05,3.36,3.29a11.32,11.32,0,0,1,2.37,5c.42,1.86,1.14,4.88,1.14,4.88l-1,.9a43.5,43.5,0,0,0-1.41-6.53c-.78-2.15-2.83-5.07-3.85-5.7s-8.12-5.13-9-5.43-6.88-3.65-6.88-3.65Z"/><path class="cls-7" d="M30.34,34.32a8.84,8.84,0,0,0-2.41.93c-.55.35-4,1.39-4.6,1.64s-8.64,2.6-8.64,2.6l.32.95A10.4,10.4,0,0,1,16.67,40c.43,0,3.87-1.27,4.62-1.4s10.07-3.89,10.07-3.89A2.08,2.08,0,0,0,30.34,34.32Z"/><path class="cls-7" d="M52.51,43.72s-10.42,4.22-11.65,4.42-4.44,2.58-5,2.56a22,22,0,0,0-3,.79l.87,1.06,13-5.14,6.91-3-.47-.4Z"/><path class="cls-7" d="M32.41,56.8a15.77,15.77,0,0,0-2-.24l-.8,1a4.2,4.2,0,0,1,2.3,1.57c1.06,1.34,2.61,3.07,2.61,4.29s.43,2,.27,2.56-.44,1.42-.44,1.42,1.77-.58,2.07-1.48a8,8,0,0,0-.43-4.62C35.26,59.7,33.58,57,32.41,56.8Z"/><path class="cls-3" d="M60.53,47.8a9.51,9.51,0,0,0-1.46-1.18l-.09.55s2.29,2.47,2.47,4.09a19.7,19.7,0,0,0,.32,3A4.39,4.39,0,0,1,61.72,56s1.18-.85.82-3.49A8.54,8.54,0,0,0,60.53,47.8Z"/><path class="cls-7" d="M9.89,44.58c-1.58-1-2.57-1.27-3.11-1a6.78,6.78,0,0,0-1.24,1s2.57.67,3.21,2.16,2.06,6.13,2.06,6.13,1.39-1.5,1.29-2.68S11.47,45.6,9.89,44.58Z"/><path class="cls-3" d="M.3,9.34s2.56,7,3,7.81S7.88,29.39,8.74,31.54c.36.88,2.55,7.63,3.61,11.52.21.8,1.94,6.55,2.13,7.13.36,1.06,1.43,4.79,2.32,4.39s.84-2.49.59-3.07-2.1-6.26-2.34-7-3.36-10.36-3.68-11.16S8,23.88,7.64,23.23s-3.42-9.16-3.74-10-2.49-5-2.49-5S.89,7.69.58,7.92A1.74,1.74,0,0,0,.3,9.34Z"/><path class="cls-3" d="M37,27.72c-.27-.76-3.93-11-4.33-11.94S28,4.64,27.67,3.81,26.13.55,25.25.85c-.44.15-.47.93-.35,1.71L25,2.49h0a.68.68,0,0,1,.2-.07h0l.07,0h0a.53.53,0,0,1,.37,0l.15,0a.5.5,0,0,1,.49.13.61.61,0,0,1,.13.22.62.62,0,0,1,0,.27c-.07.15-.13.31-.21.46a1.25,1.25,0,0,1-.49.53,1.73,1.73,0,0,1-.44.14.84.84,0,0,0,.11.2c.3.33,4.33,9.65,4.82,10.6S34.79,26,35,27.63s1.32,5.64,1.5,6.25l.18.61,3,1.16S37.22,28.49,37,27.72Z"/><path class="cls-9" d="M15.52,50.82c-.57.07-.16,1.08.09,1.34s.75-.07.7-.46S16,50.45,15.52,50.82Z"/><path class="cls-9" d="M14.61,46.38c-.42-.2-.49.35-.43.64a1.35,1.35,0,0,0,.47.87C15.5,48.29,15.37,46.18,14.61,46.38Z"/><path class="cls-9" d="M7,48c-.55-.05-.29.9-.25,1.22a1.2,1.2,0,0,0,.39.72c.51.28.8-.45.8-.84S7.58,47.56,7,48Zm.34,1.35a2.56,2.56,0,0,1-.13-.82l0,0A1.08,1.08,0,0,1,7.31,49.37Z"/><path class="cls-9" d="M31.06,61.19c-.64-.27-.54,1.25-.4,1.58a1,1,0,0,0,.83.82c.85,0,.83-1.17.59-1.75A1,1,0,0,0,31.06,61.19Zm.47,1.87c-.38-.06-.61-1.17-.31-1.35C31.68,61.83,31.84,62.77,31.53,63.06Z"/><polygon class="cls-9" points="30.73 34.02 30.73 34.02 30.73 34.02 30.73 34.02"/><polygon class="cls-9" points="30.8 34.05 30.81 34.05 30.81 34.05 30.8 34.05"/><path class="cls-9" d="M34.75,35.15h0Z"/><polygon class="cls-9" points="28.39 34.02 28.39 34.01 28.39 34.01 28.39 34.02"/><polygon class="cls-9" points="28.47 33.88 28.47 33.88 28.47 33.88 28.47 33.88"/><polygon class="cls-9" points="28.39 34.02 28.39 34.02 28.39 34.02 28.39 34.02"/><polygon class="cls-9" points="28.54 33.8 28.54 33.79 28.54 33.79 28.54 33.8"/><polygon class="cls-9" points="28.47 33.88 28.48 33.87 28.48 33.87 28.47 33.88"/><polygon class="cls-9" points="29.85 32.76 29.85 32.76 29.86 32.76 29.85 32.76"/><polygon class="cls-9" points="32.13 32.31 32.13 32.32 32.13 32.32 32.13 32.31"/><path class="cls-9" d="M60.18,47A2.21,2.21,0,0,0,59,46.32c-.16,0-.41-.06-.62-.06a7.94,7.94,0,0,0-.81-.93,6.13,6.13,0,0,0-.79-.82,12,12,0,0,0-1.87-1.76A14.84,14.84,0,0,0,51.79,41c-1-.37-1.9-.83-2.85-1.26a.87.87,0,0,0-.31-.18c-.3-.12-.59-.24-.88-.38a30.56,30.56,0,0,0-3.13-1.45c-.67-.27-1.34-.69-2-1a22.3,22.3,0,0,0-2.12-.93c.11-.29-.15-.86-.18-1.11A71.63,71.63,0,0,0,38,27.21a2.38,2.38,0,0,0-.16-.58c-.18-.51-.3-1-.48-1.54-.42-1.4-1-2.75-1.44-4.14-.29-.74-.52-1.51-.83-2.24a.24.24,0,0,0,0-.18c-.34-1-.72-2-1.06-3-.63-1.82-1.44-3.57-2.18-5.35-.28-.79-.69-1.5-1-2.3-.35-1-.92-2-1.33-3.06h0v0c0-.09-.06-.2-.12-.3a1,1,0,0,0-.14-.21.23.23,0,0,0,0-.16c-.34-.71-.6-1.45-.92-2.16A4,4,0,0,0,26.82.07h0l-.07,0h-.36l-.11,0-.15,0h0l-.16,0-.18,0h0a.52.52,0,0,0-.16.06l-.18.06h0l-.08,0h0l-.07,0-.16,0h0L25,.42l-.13,0-.15.09c-.48.39-.31,1.11-.2,1.64v0c-.45.09-.91.19-1.36.31-1.62.33-3.19.73-4.8,1.17a36.53,36.53,0,0,0-4.84,1.47A78.17,78.17,0,0,1,5.69,7.62c-.56.16-1.21.29-1.79.43a7.29,7.29,0,0,0-.83.26.18.18,0,0,0-.07,0c-.2-.31-.4-.62-.62-.93A.28.28,0,0,0,2,7.31a.25.25,0,0,0-.12,0A10.61,10.61,0,0,0,.5,7.61a.25.25,0,0,0-.19.18c-1,.94.75,4.15,1,5.23.53,1.2.9,2.42,1.38,3.63.27.8.68,1.54,1,2.33v0c.43,1.11.85,2.22,1.23,3.34.62,1.46,1.21,2.93,1.85,4.38,0,.08.06.16.08.24.35,1,.74,2,1.1,3q1.21,3.9,2.64,7.72a.09.09,0,0,0,0,0c.24.78.45,1.57.66,2.35l0,0a2.42,2.42,0,0,0-2.4,0,4.14,4.14,0,0,0-1.18.77c-.15.13-.47.31-.39.56h0a2.83,2.83,0,0,0-.36,1.8.64.64,0,0,0,0,.07v0a3.58,3.58,0,0,0-.66.37,3.26,3.26,0,0,0-1.37,3.24A10.71,10.71,0,0,0,5.62,50,5.56,5.56,0,0,0,7.48,52.6a4.85,4.85,0,0,0,2.5.87,2.14,2.14,0,0,0,.55-.15.26.26,0,0,0,.35-.16l.09,0a3.33,3.33,0,0,0,.63-.71h0a.26.26,0,0,0,.26-.26v-.22a2.56,2.56,0,0,0,.11-.24.25.25,0,0,0,0-.07c.27.12.52.26.78.39.77.33,1.48.78,2.26,1.1a.34.34,0,0,0,.14,0,3,3,0,0,0,1.4,1.66,1.39,1.39,0,0,0,.73,0,.31.31,0,0,0,.09-.07l.12,0,0,0a28.54,28.54,0,0,1,2.81,1.43c2.52,1.26,4.95,2.62,7.47,3.89a1.5,1.5,0,0,0,.25.19c.14.08.28.18.43.25s0,.26.05.4a9.64,9.64,0,0,0,1,3.21,5.41,5.41,0,0,0,1.39,2.07,4.23,4.23,0,0,0,1.58,1.12,3.56,3.56,0,0,0,1.15.46,2.66,2.66,0,0,0,1.87-.53l0,0c.34.09.38-.27.43-.53a4.47,4.47,0,0,0,.69-1.6,2.8,2.8,0,0,0,.77.1,1.29,1.29,0,0,0,.35,0c.36,0,.53-.38.77-.59s.31-.27.3-.45a.24.24,0,0,0,0-.27.68.68,0,0,1-.07-.28c-.17-.81-.4-1.61-.53-2.44v0a.21.21,0,0,0,.18-.08c1.1-.54,2.21-1.08,3.34-1.56,1.92-.75,3.77-1.65,5.71-2.38,1-.44,2-.81,3-1.32.45-.19.92-.34,1.36-.55a12.52,12.52,0,0,1,1.47-.46c.32-.12.62-.27,1-.37a4.49,4.49,0,0,1,.44-.21l.1-.06.1.06c.48.28.95.58,1.46.82l1.13.57c0,.32.66.73.85.91A2.39,2.39,0,0,0,60,57a2.19,2.19,0,0,0,2-1,2.08,2.08,0,0,0,.39-.53C63.83,53.39,62.15,48.35,60.18,47ZM44.33,38.14l4.34,2c2.86,1.28,5.8,2.62,7.95,4.88a15.72,15.72,0,0,1,3.87,9.31c0,.47,0,1.09-.47,1.22-.59-3.77-1.49-7.73-4.17-10.55-2-2.09-4.74-3.29-7.41-4.43l-15.58-6.7c-.26-.11-1.13-.41-1.19-.73-.12-.55.72-.3,1-.16Zm2.89,5.8,1.68.79L35.76,50.17a6.64,6.64,0,0,1-2.48.67,6.65,6.65,0,0,1-3.19-1.16l-6.6-3.79L20.2,44a8,8,0,0,1-1.63-.94c-.46-.45.24-.71.59-.89a77.46,77.46,0,0,1,9-3.95,10.13,10.13,0,0,1,3.48-.87A10.43,10.43,0,0,1,36,38.66ZM33.78,52.05h-.09s0,0,0,0h0l-.4-.37a6.85,6.85,0,0,0,2-.67c.6-.26,1.24-.46,1.84-.72,1.69-.79,3.45-1.46,5.13-2.29.4-.16.83-.32,1.22-.51s1-.3,1.43-.52h0l.07,0c1.14-.43,2.25-.84,3.37-1.32,1-.31,2-.74,3-1.1.26-.11.53-.2.79-.3s.45-.21.68-.16l.44.21-.39.19a3.65,3.65,0,0,0-.85.39,11.49,11.49,0,0,0-1.64.61c-.42.17-.86.39-1.28.58s-1,.4-1.54.65c-1.88.76-3.83,1.39-5.71,2.16-1,.4-2,.84-3,1.32A42,42,0,0,1,34,52l0,0h0l-.08,0h0ZM30.49,37a6.59,6.59,0,0,1-.75.25A42.34,42.34,0,0,0,18.85,41.8a2.78,2.78,0,0,1-1.93.64c-.54-.11-1.88-1.37-1.15-1.85a7.9,7.9,0,0,1,1.75-.54l1.76-.56c2.34-.77,4.67-1.58,7-2.44.88-.33,1.75-.66,2.62-1a20.69,20.69,0,0,1,2.54-1,1.15,1.15,0,0,1-.16,1.53A2.23,2.23,0,0,1,30.49,37Zm-4-.64c-1.61.55-3.18,1.2-4.81,1.68A37.09,37.09,0,0,1,18,39.35c-.76.24-1.52.41-2.29.65l-.4.17-.12-.32.08-.05c.77-.32,1.57-.55,2.36-.81s1.56-.59,2.35-.86c2.31-.8,4.65-1.5,7-2.32a28.36,28.36,0,0,1,2.77-1c.4-.15.88-.41,1.31-.24C29.5,35.2,28,35.81,26.51,36.39Zm1.22-1.58a3.81,3.81,0,0,1-1.17.55l-11.64,4Q11,27.63,6.58,16.11C6.17,15,5.76,14,5.34,12.89a10.37,10.37,0,0,1-.64-1.61c0-.25-.12-.32,0-.54a4.78,4.78,0,0,1,.42-.23Q15.17,7,25.42,4.24C29.77,13.88,34,23.66,36.2,33.92a12.38,12.38,0,0,0-3.77-1.45,4.6,4.6,0,0,0-2.75.36,3.16,3.16,0,0,0-.92.7A9.16,9.16,0,0,1,27.73,34.81ZM26.65,2.63,26.8,3c4.59,10.47,9.18,21,12,32-.61-.33-1.46-.26-1.9-.79a1.86,1.86,0,0,1-.34-1,55.81,55.81,0,0,0-2.4-8.72c-1.3-3.78-2.71-7.54-4.24-11.25-.77-1.87-1.56-3.73-2.39-5.59-.41-.92-.91-1.83-1.26-2.77-.29-.78.46-1.15.4-2A2.36,2.36,0,0,0,26.65,2.63ZM26.44.49c.65.16,1.11,1.07,1.33,1.6A228.53,228.53,0,0,1,39.92,35.65,8.89,8.89,0,0,1,39,33.43a227.08,227.08,0,0,0-8.19-22.62c-.74-1.74-1.49-3.47-2.27-5.19-.4-.88-.8-1.76-1.21-2.63A11.36,11.36,0,0,1,26.21.47.6.6,0,0,1,26.44.49ZM25,1a1.34,1.34,0,0,1,.23-.13.75.75,0,0,1,.39,0c.31.13.46.45.64.72a3.2,3.2,0,0,1,.34.63.38.38,0,0,0-.09-.13c-.12-.17-.35-.33-.52-.21,0,0,0,0,0,0L25,2.1a2.69,2.69,0,0,1-.1-.74C24.92,1.24,24.9,1.06,25,1ZM3.37,8.76C5,8.3,6.59,8,8.16,7.51c2.45-.73,4.85-1.6,7.25-2.46,3.5-1,7.1-1.86,10.69-2.65h0c.27.36,0,.87-.13,1.23l-.19,0a4.25,4.25,0,0,1-.92.22A42.43,42.43,0,0,0,20,5.17h0C16.05,6.3,12.14,7.65,8.24,9c-.55.13-1.15.39-1.71.54A11.79,11.79,0,0,0,4.75,10a.86.86,0,0,0-.59.34c-.27-.52-.56-1-.86-1.54C3.33,8.81,3.35,8.78,3.37,8.76Zm6,31.57a1.72,1.72,0,0,1,1,0c.27.07.51.22.78.31a1.48,1.48,0,0,0,.25.14c.06.23.13.46.19.68a5,5,0,0,0-1.76-.64,3.28,3.28,0,0,0-1.13-.14Zm1,12.41a.6.6,0,0,1-.49.16,4.24,4.24,0,0,1-3.32-2.07,7.38,7.38,0,0,1-1-5.71.36.36,0,0,1,.13-.21.36.36,0,0,1,.25,0,4,4,0,0,1,2.24,1.53,9,9,0,0,1,1.23,2.43,27.77,27.77,0,0,1,1,3.34,1,1,0,0,1,0,.34A.33.33,0,0,1,10.39,52.74Zm.89-1a.77.77,0,0,1-.28.53,29.3,29.3,0,0,0-1-3.41,10,10,0,0,0-1.38-2.77,5.32,5.32,0,0,0-1.1-1.07,4.82,4.82,0,0,0-.69-.41,3.21,3.21,0,0,1-.68-.27A1.71,1.71,0,0,1,6.66,44c.25-.11.54.06.77.23A9.3,9.3,0,0,1,9.94,47.3,14.16,14.16,0,0,1,11.23,51,2.37,2.37,0,0,1,11.28,51.77Zm.36-1.36a12.52,12.52,0,0,0-.83-2.51,9.29,9.29,0,0,0-1.69-2.77A9.13,9.13,0,0,0,7.74,43.8H8a9.33,9.33,0,0,1,.83.43,4,4,0,0,1,1.52,1.52c.22.54.54,1,.72,1.59a8.06,8.06,0,0,1,.42,1.57,4.28,4.28,0,0,1,.2,1.62ZM13,51.51l-.67-.33a.32.32,0,0,1-.13-.1.33.33,0,0,1,0-.24A5.22,5.22,0,0,0,12,48.56a10.28,10.28,0,0,0-1.32-3.28,4.53,4.53,0,0,0-2.88-2c-.49-.08-.36-.47-.3-.88a1.46,1.46,0,0,1,.5-1,1.91,1.91,0,0,1,1.38-.21,6.43,6.43,0,0,1,2.09.69.9.9,0,0,1,.31.23,1,1,0,0,1,.14.28c.77,2.21,1.45,4.45,2,6.71a27,27,0,0,0,.94,3.3Zm4.1,2.71-.18,0h-.06c-.77-.08-1.25-1.6-1.56-2.18-.67-1.83-1-3.74-1.53-5.6-.39-1.3-.86-2.59-1.25-3.9-.43-1.52-.79-3-1.25-4.55l-.06-.2a.17.17,0,0,0,0-.12,1.46,1.46,0,0,0-.07-.19h0c-.43-1.19-.88-2.38-1.29-3.58S9,31.46,8.62,30.21,7.8,28,7.41,26.92a.2.2,0,0,0,0-.11l-.06-.13,0-.09a.23.23,0,0,0-.09-.2c-.34-.81-.69-1.61-1-2.42-.67-1.51-1.19-3.1-1.79-4.63v0c-.25-1-.84-1.84-1.15-2.8-.27-.62-.47-1.27-.68-1.92-.36-.85-.7-1.71-1-2.58C1.3,11.33,0,8.55.77,8.12c.13.06.28,0,.38.15a5,5,0,0,1,.52.8c.34.67.64,1.36,1,2,.49,1.06.92,2.14,1.41,3.2C4.7,16,5.3,17.67,5.92,19.35a4.23,4.23,0,0,0,.34,1c.38,1.09.74,2.17,1.22,3.22.52,1.3,1,2.61,1.52,3.9a20.57,20.57,0,0,0,.62,2c.17.58.35,1.16.57,1.73s.47,1,.65,1.57c.5,1.4,1.05,2.79,1.51,4.2a.19.19,0,0,0,.05.09c0,.09,0,.18.07.26.08.26.17.55.26.82.25.94.52,1.88.81,2.81.71,2.19,1.53,4.34,2.21,6.54C16.26,49,17.71,52.68,17.09,54.22Zm.65-.24a5.81,5.81,0,0,0,0-.83,24.56,24.56,0,0,0-1.54-6c-.88-2.76-2-5.46-2.72-8.26-.21-.66-.38-1.32-.59-2a.51.51,0,0,0-.12-.31c-.45-1.37-1-2.71-1.46-4.07a20.9,20.9,0,0,1-1.05-2.76c-.22-.74-.53-1.47-.71-2.22a.29.29,0,0,0,0-.15.61.61,0,0,0-.05-.12h0C9.23,26.61,9,26,8.73,25.32c-.54-1.59-1.31-3.12-1.8-4.74-.12-.41-.35-.8-.45-1.22a.17.17,0,0,0,0-.07v-.05l0-.1A.22.22,0,0,0,6.36,19l-.22-.6c-.66-1.7-1.18-3.46-1.95-5.11C3.65,12,3.06,10.67,2.43,9.41a6.77,6.77,0,0,0-.59-1.09,3,3,0,0,0-.31-.4c.15,0,.29,0,.43-.09l0,0A13.74,13.74,0,0,1,3,9.39a20.91,20.91,0,0,1,1.56,3.1c.94,2,1.7,4.06,2.51,6.11.2.52.4,1,.61,1.57a.3.3,0,0,0,.06.26c.36.89.58,1.84.9,2.75.46,1.07.77,2.17,1.21,3.26.54,1.44.92,3,1.47,4.41a3.66,3.66,0,0,0,.17.59c.26.84.55,1.66.88,2.48s.59,1.66.94,2.47.63,1.79,1,2.66c.49,1.38,1.07,2.79,1.51,4.19.39.75.57,1.56.88,2.33.39,1.29.83,2.57,1.12,3.88.12.41.21.78.32,1.21.08.62.13,1.26.18,1.89a3.22,3.22,0,0,1,0,.82c0,.14-.11.27-.12.4C18.05,53.83,17.9,53.91,17.74,54ZM34,67a.48.48,0,0,0-.08.16,2.32,2.32,0,0,1-1.24-.41,6.26,6.26,0,0,1-.77-.4c-.43-.36-.82-.77-1.23-1.19a7.85,7.85,0,0,1-.51-1A9.43,9.43,0,0,1,29,59.82a3.18,3.18,0,0,1,.57-2h.18a2.06,2.06,0,0,1,.74.34,7.37,7.37,0,0,1,2.09,2.38c.9,1.42,1.9,2.92,1.89,4.64A3,3,0,0,1,34,67Zm1.48-.72a.35.35,0,0,1,0,.13,1.83,1.83,0,0,1-.51.49.86.86,0,0,1-.32.15A4.55,4.55,0,0,0,35,64.42a11.25,11.25,0,0,0-1.92-4.12,8.81,8.81,0,0,0-2-2.41A4,4,0,0,0,30,57.37a1.71,1.71,0,0,1,.49-.51l0,0a.27.27,0,0,0,.24.16,2.54,2.54,0,0,0,.47.14,5,5,0,0,1,.56.38,9,9,0,0,1,2.44,2.66,13.31,13.31,0,0,1,1.34,4.93A7.63,7.63,0,0,1,35.52,66.28Zm.56-1.09c0-.37-.08-.74-.11-1.1A15.33,15.33,0,0,0,34.72,60a9.72,9.72,0,0,0-3.17-3.3l-.08-.05a3.56,3.56,0,0,1,1.78,1.09,7.24,7.24,0,0,1,1.61,1.88,7.36,7.36,0,0,1,1.27,3.51A5.27,5.27,0,0,1,36.08,65.19Zm.85-.63a.27.27,0,0,1-.07-.08,1.09,1.09,0,0,1-.13-.59,9.5,9.5,0,0,0-3.15-6.59,3.48,3.48,0,0,0-2.82-1.1,2.53,2.53,0,0,0-1.69,1.39,7.51,7.51,0,0,0-.63,2.15l-10.2-5.37c.61-.17.7-1,.65-1.61a26.67,26.67,0,0,0-.77-4.43c-.2-.77-.44-1.53-.71-2.28-.1-.26-.9-1.84-.51-1.9a.54.54,0,0,1,.32.09l10,5.53a22,22,0,0,1,6,4.3,16.37,16.37,0,0,1,3.07,5.78,18.61,18.61,0,0,1,1,4.74A.34.34,0,0,1,36.93,64.56Zm1.14-.2-.08.07c-.57-3.58-1.55-7.24-3.87-10.11s-5.5-4.53-8.67-6.21l-7.54-4a4.67,4.67,0,0,1-1.43-.92c-.62-.74.32-.32.73-.12,1.24.62,2.48,1.27,3.71,1.93,2.45,1.32,4.87,2.7,7.29,4.07a22,22,0,0,1,6,4.35c2.41,2.75,3.22,6.43,4,9.94A1.13,1.13,0,0,1,38.07,64.36ZM54.41,53.77v0h0v0c-1.1.53-2.32.75-3.43,1.27-.83.27-1.57.74-2.39,1-1.79.74-3.59,1.46-5.36,2.25-1.28.52-2.54,1-3.78,1.66-.45.18-.88.41-1.31.62a21.24,21.24,0,0,0-2.55-6.31.67.67,0,0,0-.1-.23A3.3,3.3,0,0,0,35,53.4c-.28-.31-.57-.62-.86-.91,1.08-.3,2.12-.74,3.18-1.12,1.31-.57,2.62-1.21,4-1.76,2.44-1,5-1.82,7.43-2.87.71-.28,1.37-.62,2.07-.93.52-.25,1.12-.34,1.61-.62.23-.14.49-.19.74-.31s.26-.14.4-.19c.07.64.1,1.28.16,1.92.15,1.48.23,3,.45,4.44.09.81.15,1.63.28,2.46v0a1.9,1.9,0,0,1,0,.25h0v0ZM55.7,54l-.34-.22a2,2,0,0,1-.35-.37,2.29,2.29,0,0,1-.26-1q-.3-3.53-.62-7a2.23,2.23,0,0,0-.6-1.59,1.87,1.87,0,0,0-1.89-.08,6.54,6.54,0,0,1-1.84.66,5,5,0,0,1-2.72-1.07,27.16,27.16,0,0,0-3.22-1.54q-5.69-2.45-11.2-5.27a1,1,0,0,1-.41-.31,1.41,1.41,0,0,1-.14-.71,1.77,1.77,0,0,0-2.26-1.37c-.28.1-1.26.69-1,0,.14-.46,1.08-.62,1.48-.6a5.34,5.34,0,0,1,1.94.56L48,40.91c3.1,1.34,6.34,2.8,8.41,5.44s2.63,6.07,3,9.34A14.29,14.29,0,0,1,55.7,54Zm5.74.86c0,.16,0,.31,0,.47a1.29,1.29,0,0,1-.22.64,1.07,1.07,0,0,1-.56.33,2,2,0,0,1-1.53-.11c.67-.19,1.56-.11,1.9-.87a1.91,1.91,0,0,0,.08-.92,18.61,18.61,0,0,0-1.73-6.55A10.34,10.34,0,0,1,61.44,54.9Zm.63.05a1.63,1.63,0,0,1-.11.17c0-.09,0-.17,0-.22a9.53,9.53,0,0,0-.88-5,8.17,8.17,0,0,0-2-3,1.44,1.44,0,0,1,.7.44,7.93,7.93,0,0,1,2.44,4.48,5.2,5.2,0,0,1,.14,1.53A2.85,2.85,0,0,1,62.07,55Z"/><polygon class="cls-9" points="23.31 47.58 23.31 47.59 23.31 47.59 23.31 47.58"/><polygon class="cls-9" points="28.79 4.65 28.79 4.64 28.79 4.64 28.79 4.65"/><path class="cls-9" d="M28.14,3.14v0h0Z"/><polygon class="cls-9" points="19.99 5.17 20 5.17 19.99 5.17 19.99 5.17"/><polygon class="cls-9" points="26.63 0.03 26.63 0.03 26.63 0.03 26.63 0.03"/><polygon class="cls-9" points="28.1 2.86 28.1 2.86 28.09 2.86 28.1 2.86"/><polygon class="cls-9" points="26.49 0.01 26.49 0.01 26.5 0.01 26.49 0.01"/><polygon class="cls-9" points="28.75 4.21 28.75 4.21 28.75 4.21 28.75 4.21"/><path class="cls-9" d="M1.49,10.19c-.46.15-.07.74.3.72s.41-.62.14-.83A.28.28,0,0,0,1.49,10.19Z"/><path class="cls-9" d="M44.59,46.43,38.22,43l2.94-1.81a.25.25,0,0,0-.26-.43l-3,1.85s0,0,0,.07a5.6,5.6,0,0,0-2-1.12c-.81-.29-1.65-.53-2.49-.74.95-.71,1.9-1.4,2.84-2.13.25-.19-.1-.54-.36-.35-1.64,1.27-3.31,2.52-5,3.74a.25.25,0,0,0-.09.3c-1.22-.47-2.47-.88-3.71-1.29,2.08-1.14,4.09-2.43,6.08-3.73.27-.17,0-.6-.25-.43-1.38.9-2.78,1.8-4.2,2.65l-2.07-1.08c-.29-.15-.54.29-.26.43l1.83.95c-1.22.71-2.46,1.37-3.73,2a12.38,12.38,0,0,0-2.55-1.27.25.25,0,0,0-.31.18.26.26,0,0,0,.17.31,11,11,0,0,1,2.13,1,28,28,0,0,1-4.2,1.52.25.25,0,0,0,.13.48,31.39,31.39,0,0,0,6.71-2.73.24.24,0,0,0,.14.12,40.23,40.23,0,0,1,7.78,3.18c-1,.64-2.06,1.28-3.07,1.94a.26.26,0,0,0-.11.22l-.9-.38-7.58-3.22c-.29-.12-.55.31-.25.43l4.06,1.73-.74.56c-.14.1-.28.2-.43.29a1.88,1.88,0,0,1-.23.16l-.1.07a.27.27,0,0,0-.31.28.28.28,0,0,0,.41.23,1.44,1.44,0,0,0,.31-.19l.32-.21q.62-.42,1.2-.9s0-.06,0-.09l2.82,1.2c.7.3,1.42.58,2.14.88l-2.41,1.46a.18.18,0,0,0-.18.08l-.08.09c-.18.2.05.54.3.39L32.53,48s0,0,0-.07a15.49,15.49,0,0,1,3.94,2.25c.24.21.6-.14.35-.35A12.25,12.25,0,0,0,35,48.58q1.38-.81,2.79-1.56l.06,0a7.12,7.12,0,0,1,1.38.76,6.86,6.86,0,0,1,.59.48c.2.18.48.41.73.16a.24.24,0,0,0-.25-.4h0a.86.86,0,0,0-.14-.13l-.27-.23a6,6,0,0,0-.59-.44,6.66,6.66,0,0,0-.95-.51c.92-.47,1.84-.94,2.78-1.37a.21.21,0,0,0,.12-.17l3.09,1.65C44.62,47,44.87,46.58,44.59,46.43Zm-19.34.47h0Zm9.67-2.52a25.54,25.54,0,0,0-3.8-1.83h0c.6-.43,1.18-.88,1.77-1.32,0,0,0,0,.06,0a27.42,27.42,0,0,1,2.64.77,5.68,5.68,0,0,1,1.82,1q-1.24.71-2.46,1.44S34.94,44.39,34.92,44.38Zm-.36,3.89s0,0,0,0c-.91-.48-1.86-.88-2.81-1.27,2-1.3,4-2.53,6.05-3.7l0,0,3,1.61A67.67,67.67,0,0,0,34.56,48.27Z"/></g></g></svg>