<svg xmlns="http://www.w3.org/2000/svg" viewBox="0 0 49.26 40.08"><defs><style>.cls-1{fill:#fcd4ac;}.cls-2{fill:#171e17;}.cls-3{fill:#3c58a4;}.cls-4{fill:#d09971;}.cls-5{fill:#faed62;}.cls-6{fill:#e52823;}.cls-7{fill:#00a97c;}.cls-8{fill:#6b1e1e;}.cls-9{fill:#59c1d7;}.cls-10{fill:#cbc479;}.cls-11{fill:#fff;}</style></defs><g id="Layer_2" data-name="Layer 2"><g id="Card"><path class="cls-1" d="M1.33,36.59c.15.25,44.13-.11,44.13-.11s-24.63-.19-26.75,0-17.38.11-17.38.11"/><path class="cls-1" d="M2.7,37.58s22.06.25,32.08.25c1.82,0,9,0,9.39,0,2.83,0,2.88-.1,3-.14s-27.47,0-30.2.14S2.7,37.58,2.7,37.58"/><path class="cls-1" d="M3.24,38.21c.14,0,19.76,0,24.58.24s20.67.18,20.67.18-.17.29-9.51.2c-2.73,0-26.71-.45-29.74-.31s-5.74,0-5.74,0l-.26-.31"/><path class="cls-1" d="M3,38.77c.14,0,19.76.06,24.58.24s20.68.18,20.68.18-.18.29-9.52.2c-2.73,0-26.71-.45-29.74-.31s-5.74,0-5.74,0L3,38.77"/><path class="cls-1" d="M1.87,36.85c.14,0,19.76,0,24.58.23s20.68.18,20.68.18l-23.43.08c-3.55,0-12.8-.32-15.83-.19s-5.74,0-5.74,0l-.26-.31"/><path class="cls-1" d="M47.92,39.1c-.17-.21.91-33.85.91-33.85s-.35,19-.51,20.54-.4,13.31-.4,13.31"/><path class="cls-1" d="M47.3,37.67s.26-17,.44-24.74c0-1.4.17-6.88.18-7.21a9,9,0,0,1,.15-2.25c0-.09-.51,21.1-.67,23.13s-.1,11.07-.1,11.07"/><path class="cls-1" d="M46.9,37c0-.13.34-15.2.31-19s.28-15.95.28-15.95-.2,0-.32,7.23c0,2.11-.21,20.68-.36,23s-.11,4.4-.11,4.4l.2.33"/><path class="cls-1" d="M46.53,37c0-.12.34-15.19.31-19s.28-15.94.28-15.94-.2,0-.31,7.23c0,2.1-.22,20.68-.37,23s-.11,4.4-.11,4.4l.2.32"/><path class="cls-1" d="M47.76,38.59c0-.13.34-15.2.31-19s.28-15.95.28-15.95-.44,15.87-.5,18c-.07,2.73,0,10-.18,12.23s-.11,4.41-.11,4.41l.2.32"/><path class="cls-2" d="M2.84,1.31S1.26,1,1,1.38A22.64,22.64,0,0,0,.81,5.63c0,1.08-.09,6.57-.09,7.29S.55,20.36.61,21s-.06,5-.15,6.23,0,5.37,0,6-.16,3-.06,3,4.44,0,5.15,0,5.52,0,5.81,0,3.41.15,3.76.11,4,0,5.16.06,6.7.33,7.41.29,6.65.09,7.63,0,11,0,11,0a5.82,5.82,0,0,1-.11-1.92c.18-.58,0-11.44,0-11.44V11.54L46.37,1S42.55.83,42,.85s-9.68,0-10.46,0-11.4-.17-12.2,0-12,.26-12.39.26"/><path class="cls-3" d="M14.42,6.92A4.31,4.31,0,0,1,14.27,8a17.73,17.73,0,0,0-.82,2.58,16.66,16.66,0,0,0-.65,3.26A6.43,6.43,0,0,0,13,16.17c.24.38.35,1.92,2.11,2.08a2.55,2.55,0,0,0,2.7-1.3c.31-.5.17-1.63.29-1.95a12,12,0,0,0,.19-2.75,12,12,0,0,1-.06-3.41,4.19,4.19,0,0,0,.37-2.31c-.17-.6-1.47-1.17-1.47-1.17A4.2,4.2,0,0,1,17,6.94a1.16,1.16,0,0,1-.89.78c-.5.13-1,.06-1.14-.21A2.26,2.26,0,0,0,14.42,6.92Z"/><path class="cls-4" d="M8.57,6.16a28.46,28.46,0,0,0-1.24,3,11,11,0,0,0-.14,3.19A33.7,33.7,0,0,1,8,15.75c.11.65.43,3.28-1.72,4s-2.57-1-2.76-1.9a9.7,9.7,0,0,1,0-2.66,14.24,14.24,0,0,0,.38-2.93,27.69,27.69,0,0,1,.45-4,.93.93,0,0,0,.72-.87c.07-.76.19-2.56.19-2.56a12,12,0,0,1,2.1.4A4.91,4.91,0,0,1,8.57,6.16Z"/><path class="cls-5" d="M4.75,18.51a4.49,4.49,0,0,1-.44.25l-.21.11s-.27.08,0,.43a1.77,1.77,0,0,0,2.06.51A2.91,2.91,0,0,0,8,17.62a4.55,4.55,0,0,0,.07-2,11.83,11.83,0,0,0-.51-2,10,10,0,0,0-.5-1,4.53,4.53,0,0,0-.27,1.6,16.25,16.25,0,0,1,.56,2.07c0,.39-.29.39-.29.39l-.17,0a.76.76,0,0,1-.13.74c-.29.33-.39.14-.39.14s-.07.49-.31.58a.58.58,0,0,1-.46,0s.15.44-.26.51A.91.91,0,0,1,4.75,18.51Z"/><path class="cls-6" d="M22.28,6.32a9.38,9.38,0,0,1,.78,1.29c.24.55.14.78.4,1.29s0,1.64.2,2.56a11.07,11.07,0,0,1,.61,3.11c-.06,1,0,2.44-.73,3.07a4.87,4.87,0,0,1-2.88.68,3.32,3.32,0,0,1-2.33-2c-.34-1.2.11-2.37,0-3.2s-.25-2.9-.25-3.58A4.43,4.43,0,0,1,19,7.23c.4-.36.24-.44.92-.59S22.28,6.32,22.28,6.32Z"/><path class="cls-5" d="M25,4.21a2.86,2.86,0,0,0-1,1,3.42,3.42,0,0,0-.29,1.62,4.21,4.21,0,0,1,.14.43.84.84,0,0,0-.34.55,1.6,1.6,0,0,0,.28,1c.22.22.61,1.58.89,2.11a2.92,2.92,0,0,1,.21,1.29,1.77,1.77,0,0,0-.42,1.09,13.54,13.54,0,0,1-.21,2.16c-.15.74-.88,2.86.09,3.59a3.25,3.25,0,0,0,4.54-1.09c1.4-2,1-3.9,1.22-4.31a4,4,0,0,0,.64-2.07c-.1-.62-.36-1-.4-1.28a8.79,8.79,0,0,1,.31-2.33c.21-.58.66-1.94.35-2.54a2.39,2.39,0,0,0-1.34-1.24C29.2,4.23,25,4.21,25,4.21Z"/><path class="cls-6" d="M33.18,10.1a3.28,3.28,0,0,0-1.4.91,15,15,0,0,0-1.28,2.77s-.16,2.39-.14,2.66-.52.79-.22,1a5,5,0,0,0,2.65.65,3.63,3.63,0,0,0,2.4-.8,2.13,2.13,0,0,0,0-1.31,1.92,1.92,0,0,0,.9-1.63c-.13-1-.51-1.2-.41-1.56s.07-.41.21-.54l.31-.28a3.69,3.69,0,0,0-.11-1.12,5.93,5.93,0,0,0-.32-.6s-.91.08-1.5.11A2,2,0,0,1,33.18,10.1Z"/><path class="cls-7" d="M36.31,12.14c-.6,0-.61.13-.56.35a3.92,3.92,0,0,1,.18.94,5.88,5.88,0,0,1-.37,1.7,2.73,2.73,0,0,0-.37,1.51,6,6,0,0,0,.36.92l-.12.2a2.62,2.62,0,0,0,1.48.46c.8,0,2.6.19,3.22-.43a1.86,1.86,0,0,0,.71-1.95,8.55,8.55,0,0,1-.35-2.22c0-.3.4-.5.41-.75a1,1,0,0,0-.08-.66c-.12-.15-1.39-1.43-1.39-1.43a1.94,1.94,0,0,1-.1.84,2.84,2.84,0,0,1-.4.52,3.29,3.29,0,0,0-1.57-.28Z"/><path class="cls-4" d="M39.25.82s.43,2.26.53,3.27a19.88,19.88,0,0,1,0,3.1c0,.88-.64,1.83-.5,2.4a5.72,5.72,0,0,1,.18,1.63,3.09,3.09,0,0,1-.26.92,7.69,7.69,0,0,0-2-.26l-.86.26s-.15-.88-.19-1.36.24-2.63.24-2.63c-.23-.84-1.14-3.14-1.17-3.32a5.64,5.64,0,0,0-.29,2.08,5,5,0,0,0,.29,1.84,12.84,12.84,0,0,1,.55,1.55,9.62,9.62,0,0,1-1.5.11,4.08,4.08,0,0,1-1.06-.31s.09-.23-.26-.53-1.3-3.75-1.48-4.28S31,3.91,31,3.91a3.88,3.88,0,0,0,1.17-1.38,4.6,4.6,0,0,0,.18-1.8Z"/><path class="cls-4" d="M22.84,2.06a17.56,17.56,0,0,0-.49,2.43C22.37,5,22,7.74,22,8s0,.78,0,.78A10.87,10.87,0,0,1,20.56,9a5.35,5.35,0,0,1-1-.2,16.33,16.33,0,0,0,.28-2.4c0-.58-.5-4.44-.5-4.44A3,3,0,0,0,21,2.31,13.68,13.68,0,0,1,22.84,2.06Z"/><path class="cls-4" d="M17.11,1.78a19,19,0,0,0,0,3.08A11.67,11.67,0,0,1,17,7.47s-.74,0-.92.25-.94-.15-1.3-.25-.44-2.25-.55-2.61S14,2.31,14,2.31a4,4,0,0,0,1.7.16c.72-.16.72-.09.79-.16S17.11,1.78,17.11,1.78Z"/><path class="cls-8" d="M17.71.29h0Z"/><polygon class="cls-8" points="19.04 0.42 19.04 0.42 19.04 0.42 19.04 0.42"/><path class="cls-8" d="M23.16.36h0Z"/><path class="cls-8" d="M23.44,0Z"/><path class="cls-9" d="M16.46,24.41V21.22a.77.77,0,0,1-.57.17c-.39,0-.79-.8-1.57-.53s-1.4,3-.9,4.36,3.23,5.49,2,6-1.85-2.44-1.85-2.44l-.07,3.8a2.35,2.35,0,0,1,1.32-.14c.63.16,2,.45,2.09-1.31S15,25.36,14.7,24.52s-.25-1.89.29-2S16.46,24.41,16.46,24.41Z"/><path class="cls-9" d="M17.41,21.22a2.56,2.56,0,0,1,.52,1.63c0,1.11-.54,9.35-.54,9.35l1.78.11a25.74,25.74,0,0,1-.65-4c0-1.06.32-3.26.79-3.28s.59,2.72.57,3.84a29.8,29.8,0,0,1-.4,3.39s1.21,0,1.55,0a.71.71,0,0,0,.45-.17s-.29-3.63-.29-4.23,0-4.15-1.05-4.2-1.37.39-1.37.39L19,21.22S18,20.87,17.68,21Z"/><path class="cls-9" d="M32.73,24.23s-1.36-.47-2,.28a2.56,2.56,0,0,0-.09,2.81c.49,1,1.41,1.37,1.58,2.48s.23,1.77-.29,1.79-1.66-2.1-1.66-2.1-.05,1.38,0,2.23a2.29,2.29,0,0,0,.27,1.17,2.07,2.07,0,0,1,.94-.26c.42,0,2.31-.64,2.12-2s-2-3.44-2.18-4-.39-1.34.07-1.41,1.19,2.35,1.19,2.35A16.82,16.82,0,0,0,33,25.29,2.49,2.49,0,0,0,32.73,24.23Z"/><path class="cls-9" d="M25.73,27.41c-.4-1.6-.52-3.9-2.49-3.31-.88.26-1.34,4-1.15,5.21s.6,3.22,2,3.13S26.14,29,25.73,27.41Zm-1.86,3.48c-.24.09-.42-1-.55-1.81s-.08-2.92.25-3,.72.35.89,1.43A6.62,6.62,0,0,1,23.87,30.89Z"/><path class="cls-9" d="M28.18,31.29a2.5,2.5,0,0,1-.5-1.86A3.32,3.32,0,0,1,28,28.22l1.67.25s-.09-4.23-1.89-4.24c-.92,0-1.23,1.26-1.39,3.51s.5,4.89,1.61,4.89,1.48-1.31,1.48-1.31S28.48,31.51,28.18,31.29Zm-.33-5.39c.66-.06.8,1.34.8,1.34H27.49S27.67,25.92,27.85,25.9Z"/><path class="cls-4" d="M31.54,11.54c-.21.56-.73,1.65-.24,1.72s1.11.18,1.24,0l.13-.18s.41.65.77.73a1.07,1.07,0,0,0,1.19-1A4.3,4.3,0,0,0,34,10.7a2.39,2.39,0,0,0-.79-.6S31.75,11,31.54,11.54Z"/><path class="cls-10" d="M23.66,18.45s.29,1.76,1.57,1.87a5.16,5.16,0,0,0,3.83-1.7,4.79,4.79,0,0,0,1.17-2.34,11.68,11.68,0,0,0,0-2.38,12.27,12.27,0,0,1-.56,2.42,4.05,4.05,0,0,1-2.17,2.82c-1.53.74-2.58.77-2.88.39S23.66,18.45,23.66,18.45Z"/><path class="cls-10" d="M25.18,5a1.75,1.75,0,0,0-.79,1,3.79,3.79,0,0,0-.11,1.34s2.17.22,2.76.23a4.55,4.55,0,0,1,1.65.2,2.6,2.6,0,0,0,.49.26s1.09-1.45,1-2.18a2,2,0,0,0-1.71-1.55A12.36,12.36,0,0,0,25.18,5Z"/><path class="cls-4" d="M28.31,4.17,28,7.47s-1.59,0-2,0a2.84,2.84,0,0,1-.81-.16V5c0-.56-.19-2.83-.19-2.83A10.06,10.06,0,0,0,26.18,3c.41.21,1.34,1.07,1.64,1.09A1.71,1.71,0,0,1,28.31,4.17Z"/><path class="cls-11" d="M2.91,1s-.58,4.45-.54,5.68.73,2,1.3,2.05A1.36,1.36,0,0,0,5.11,7.42c.13-1,.19-2.56.19-2.56a4.45,4.45,0,0,1,2.1.4c1.06.49,2.29,2.13,3.36,2.05s2.06.23,2.92-.56.77-1.39.77-1.39L14,2.31a7.49,7.49,0,0,0,2,0c1-.15,1.19-.53,1.19-.53l.5-.79,1-.21s.9,1.72,2.4,1.53,1.81-.25,1.81-.25a3.7,3.7,0,0,1,2.38.25c1.16.58,2,2.12,3.84,1.95s2.66-.78,3-1.58A4.6,4.6,0,0,0,32.31.73L9.79,1Z"/><path class="cls-8" d="M49.08,12.91c.13-2.68.07-5.37.1-8l.08.08V4.53h0v-.1h0V4.35l-.05-.06V4.22l0,0h0l-.08-.1L49,4l-.07-.09-.07-.09,0,0h0v.09C48,2.94,47.23,2,46.44,1.09a0,0,0,0,0,0,0L46.37,1A.18.18,0,0,0,46.19.8C45,.78,43.78.72,42.57.7c-2,0-4.08-.12-6.12-.15s-3.8,0-5.69,0a.15.15,0,0,0-.12.08c-.5,0-1,0-1.48,0C26,.77,22.88.56,19.74.61,15.89.57,12,.75,8.17.82L1.1,1H.9V.94A.2.2,0,0,0,.73.73c-.36,0-.17.43-.18.67s0,.74,0,1.11c0,.88.07,1.81.07,2.7C.64,6.47.55,7.72.56,9c0,1.43,0,2.9,0,4.33,0,1.06,0,2.08,0,3.15C.49,18.62.49,20.79.4,23,.33,24.38.24,25.8.24,27.23c0,2.95,0,5.88,0,8.83H.18a.18.18,0,0,0-.18.2.19.19,0,0,0,.1.14c0,.1.16.17.23.26,1.07,1.06,2,2.24,3,3.35a.19.19,0,0,0,.27,0,.19.19,0,0,0,.05-.14h0A9.76,9.76,0,0,1,5,39.8c1.66-.09,3.37-.14,5-.16,6.61,0,13.22-.14,19.82-.5,3.17-.09,6.34.06,9.5.2,1.08,0,2.16,0,3.24.08s2.22.1,3.33.09c.78,0,1.55,0,2.32-.08v-.06h0a.09.09,0,0,0,0,0,.43.43,0,0,1,0-.11v-.1h0v-.05h0c0-.24,0-.48,0-.73,0-1.1.12-2.2.16-3.31.09-3.47-.07-6.95,0-10.43C48.62,20.69,48.91,16.8,49.08,12.91ZM38,1c.35,0,.71,0,1.06,0a.16.16,0,0,0,0,.07h0a1.28,1.28,0,0,1,.07.39l.06.4c.05.28.09.57.13.85l.21,1.64a.24.24,0,0,0,0,.23c0,.4.06.79.1,1.18a26,26,0,0,1-.56,3.5,3.28,3.28,0,0,0,0,1.36.21.21,0,0,0,0,.2,1.23,1.23,0,0,1-.1,1.06,3.56,3.56,0,0,0-.49-.09,2.62,2.62,0,0,0-.79-.14,4.73,4.73,0,0,0-1.36.13.29.29,0,0,1,0-.09A5.9,5.9,0,0,1,36.52,10a4.42,4.42,0,0,0-.07-2,6.62,6.62,0,0,0-.31-1.16,14.87,14.87,0,0,1-.88-3.11.25.25,0,0,0,0-.07h0c0-.55,0-1.1,0-1.65,0-.3,0-.59,0-.88V.94C36.12.94,37.06.94,38,1Zm2.74,11.54a.34.34,0,0,1,0,.22.85.85,0,0,1-.64.42,2.92,2.92,0,0,1-.78,0A26.13,26.13,0,0,0,36,12.9c-.12,0,0-.39.05-.43a1.1,1.1,0,0,1,.54-.32,2.73,2.73,0,0,1,1.3-.1,10.66,10.66,0,0,0,2.09.31.73.73,0,0,1,.33,0,1.07,1.07,0,0,0,.19.07c.07,0,.15,0,.16-.09A.18.18,0,0,1,40.74,12.51Zm-12,6.2a4.36,4.36,0,0,1-3.82,1.34,1.13,1.13,0,0,1-.84-.82,2.2,2.2,0,0,0,2.07.65A4.53,4.53,0,0,0,29.09,18a6.17,6.17,0,0,0,1.08-3.34,4.88,4.88,0,0,1-.92,3.47A4.28,4.28,0,0,1,28.75,18.71Zm-4.68-1.87c.1-.49.24-1,.29-1.38a9.25,9.25,0,0,1,.54-2.88,5.13,5.13,0,0,0,3.65.38,2.41,2.41,0,0,0,1.16-.66,3.06,3.06,0,0,0,.53-1.39,1.46,1.46,0,0,1,.24,1.1,8.76,8.76,0,0,1-.32,1.11c-.44,1.42-.41,3-1.14,4.32a4.15,4.15,0,0,1-2.84,2,2.07,2.07,0,0,1-1.43-.17C23.81,18.74,23.87,17.77,24.07,16.84ZM23,7.15a1.2,1.2,0,0,0-.45-.62,2.11,2.11,0,0,0-.31-.21c.06-1,.46-2,.45-3a10.71,10.71,0,0,0,.11-1.26s.05,0,.09,0a1.43,1.43,0,0,0,.4,0,6.86,6.86,0,0,1,.9.09,1.73,1.73,0,0,1,.62.2c0,.52.07,1.22.1,1.85a.18.18,0,0,0-.14,0,4,4,0,0,0-.81.67,2,2,0,0,0-.51,1.38,2.84,2.84,0,0,0,.08,1,.87.87,0,0,0-.24.4,1.86,1.86,0,0,1-.2-.43A.18.18,0,0,0,23,7.15Zm-3.57,1.4-.09-.06A3.67,3.67,0,0,1,19.12,8a1.2,1.2,0,0,1,.39-1,6.56,6.56,0,0,1-.09,1.41A.16.16,0,0,0,19.47,8.55Zm.15.07c.13,0,.2-.23.22-.38a21.79,21.79,0,0,0,.07-3c0-.49-.05-1-.11-1.47a6,6,0,0,1-.16-1.44,3.83,3.83,0,0,0,1.46.28c.24,0,1.37-.17,1.43-.47a37.54,37.54,0,0,0-.72,6.34.28.28,0,0,1,0,.18.29.29,0,0,1-.18.1,3.54,3.54,0,0,1-2.06-.12A.14.14,0,0,0,19.62,8.62Zm2.63-1.87.27.22a.93.93,0,0,1,0,1.11,2.79,2.79,0,0,1-.31.39c0-.12,0-.23,0-.35C22.24,7.66,22.23,7.22,22.25,6.75ZM32.31,2.63A3.56,3.56,0,0,0,32.7,1h2.08a28,28,0,0,1,.08,4.19,16.83,16.83,0,0,0-.13,2.24,10.09,10.09,0,0,0,.69,2.75,4.32,4.32,0,0,1-2.11-.21c-.36-.14-.83-1.91-1-2.28A24.44,24.44,0,0,1,31.56,5a3.21,3.21,0,0,1-.24-1.16c.07-.24.51-.52.68-.74A3.3,3.3,0,0,0,32.31,2.63Zm3.77,7.67a.64.64,0,0,0-.19-.21s0,0-.07,0-.09-.16-.11-.24c-.19-.53-.32-1.09-.49-1.63a7.19,7.19,0,0,1,0-2.81,18,18,0,0,1,.94,3.35A4.84,4.84,0,0,1,36.08,10.3Zm-1.77,2h0a2.33,2.33,0,0,0,.07.25.49.49,0,0,1,0,.12,4.15,4.15,0,0,1-.1.58.67.67,0,0,1-.55.36,1.24,1.24,0,0,1-.82-.44,3.29,3.29,0,0,1,.08-.63v0c.09-.34.17-.68.23-1,0-.06,0-.12,0-.19a1.74,1.74,0,0,1,0,.22c.06.36,0,.88.4,1.08S34.21,12.6,34.31,12.33Zm-2.5-.93h0a2.22,2.22,0,0,1,.36-.59,3.11,3.11,0,0,1,.65-.41C32.44,10.71,32.14,11.07,31.81,11.4Zm-.16.6h0a7,7,0,0,0,1.29-1.21c0,.24-.06.49-.1.73a9.54,9.54,0,0,1-.4,1.55,1,1,0,0,1-.66,0,.85.85,0,0,1-.5-.09A7.3,7.3,0,0,1,31.65,12Zm2.25.3c-.27-.17-.14-.57-.22-.84a3.92,3.92,0,0,0-.16-.56c-.05-.16,0-.33-.08-.49a1.67,1.67,0,0,1,.49,1.06A1.46,1.46,0,0,1,33.9,12.3Zm-3-8.21a26.4,26.4,0,0,0,1.93,5.85,2.21,2.21,0,0,0-1.36,1.15A6.42,6.42,0,0,0,31,12.83a.6.6,0,0,0,0,.42.52.52,0,0,0,.37.21,2.52,2.52,0,0,0,1.25,0,1.42,1.42,0,0,0,1.53.52,1.18,1.18,0,0,0,.64-.91,2.5,2.5,0,0,0-.14-1.15A6,6,0,0,0,34,10.53a3.72,3.72,0,0,0,1.69-.08,2.26,2.26,0,0,1,.28,1.3.43.43,0,0,1-.08.24c-.05.07-.14.1-.21.16-.3.25-.09.72,0,1.1a2.84,2.84,0,0,1-.13,1.19,3.89,3.89,0,0,1-1,2.09,2.74,2.74,0,0,1-1.27.55,4.77,4.77,0,0,1-2.88-.37l.41-4a4.68,4.68,0,0,0,0-1.54c-.06-.25-.15-.49-.21-.73a4.34,4.34,0,0,1,.18-2.11,7.85,7.85,0,0,0,.42-2.08,2.4,2.4,0,0,0-.81-1.82A1.46,1.46,0,0,1,30.94,4.09Zm-.89,6c0,.19-.08.38-.12.56l-.23.89a1.38,1.38,0,0,1-.12.34,1.06,1.06,0,0,1-.28.32,4.05,4.05,0,0,1-3.25.44,1.41,1.41,0,0,1-.95-.43,1.67,1.67,0,0,1-.2-.62,7.12,7.12,0,0,0-.7-2c-.23-.43-1-1.61-.31-2a1.22,1.22,0,0,1,.63-.07l2.84.2a4.13,4.13,0,0,1,1.16.18,2.49,2.49,0,0,1,1.05.74,1.89,1.89,0,0,1,.49,1.07A2.41,2.41,0,0,1,30.05,10.05Zm-6.14-3A2.13,2.13,0,0,1,25,4.59c0,.06,0,.13,0,.19a2.43,2.43,0,0,0-.72.82,3.08,3.08,0,0,0-.26.83c0,.22,0,.43,0,.65H24Zm.5,0a2.71,2.71,0,0,1,0-.29h0A1.91,1.91,0,0,1,25,5.26c0,.61,0,1.22,0,1.84Zm5.45-2.56a1.85,1.85,0,0,0,.14.14,1.87,1.87,0,0,1,.63.88,1.51,1.51,0,0,1,.18,1c-.16.81-.47,1.59-.58,2.41A3.58,3.58,0,0,0,30,8.53a2.66,2.66,0,0,0-.51-.6A1.94,1.94,0,0,0,30,7.07a2.18,2.18,0,0,0,0-2.22,1.21,1.21,0,0,0-.24-.35Zm-.84,0a2.22,2.22,0,0,1,.35.2,1.49,1.49,0,0,1,.51.81,2.53,2.53,0,0,1-.59,2,.25.25,0,0,1-.14.11.16.16,0,0,1-.12,0l-.83-.36a18.94,18.94,0,0,1,.33-2.9C28.54,4.32,28.8,4.42,29,4.53ZM28,5.41l-.15,1.74a.17.17,0,0,1,0,.12.2.2,0,0,1-.11,0,10.74,10.74,0,0,1-2.12-.12s-.09,0-.12,0a.25.25,0,0,1,0-.15,33.14,33.14,0,0,0-.11-3.45c0-.16-.16-.74-.08-.86s.29,0,.47.18c.43.34.86.67,1.3,1a1.73,1.73,0,0,0,1.09.45Zm-4.26,4,.13.23a6.63,6.63,0,0,1,.76,2.54h0a.18.18,0,0,0,0,.19.42.42,0,0,0-.09.14,7.1,7.1,0,0,0-.22.79,3.82,3.82,0,0,1-.11-.57c-.06-.3-.21-.56-.25-.86a9.42,9.42,0,0,1-.25-2C23.67,9.74,23.69,9.58,23.71,9.42Zm6.58,7.68A4.87,4.87,0,0,0,35,16.64a.41.41,0,0,1,0,.44,1,1,0,0,1-.36.31,5.53,5.53,0,0,1-3.73.26C30.72,17.62,30,17.43,30.29,17.1Zm5.58-2.34a2.8,2.8,0,0,0,.24-1.13c0-.11,0-.24.06-.31a.3.3,0,0,1,.26-.05l3.6.28c-.15.08-.05.36.12.33s.16-.32,0-.36c0,0,.09,0,.1.06l.38,2.1a2.61,2.61,0,0,1,.06,1A1.86,1.86,0,0,1,39.28,18a8.58,8.58,0,0,1-3.42-.17.4.4,0,0,1-.21-.07.38.38,0,0,1-.1-.21,3.77,3.77,0,0,1,.05-2.08A7,7,0,0,1,35.87,14.76ZM40.18,12c-.25,0-.5,0-.75,0a1.42,1.42,0,0,0,.14-.86,1.55,1.55,0,0,1,.41.25,1.11,1.11,0,0,1,.28.61ZM29.11,1.08c1,0,2-.05,3-.1a2.69,2.69,0,0,1-.42,2A2.66,2.66,0,0,1,30,4a5.14,5.14,0,0,1-1.83-.11,3.44,3.44,0,0,1-.55-.15,2.83,2.83,0,0,1-.51-.34,13.18,13.18,0,0,0-1.9-1.36,3,3,0,0,0-2.26-.28.73.73,0,0,1-.2.05,3.79,3.79,0,0,1,.42-.65.93.93,0,0,1,.13-.15.57.57,0,0,1,.29,0C25.41,1.09,27.26,1.11,29.11,1.08ZM23.22,1h0l0,.07Zm-.48,0a.59.59,0,0,1-.23.57A1.89,1.89,0,0,1,21.42,2a3.92,3.92,0,0,1-2.06-.41.7.7,0,0,1-.43-.6C20.2,1,21.47,1,22.74,1ZM18.51,1a1.12,1.12,0,0,0,.33.83,1.72,1.72,0,0,1,.27.27,1.12,1.12,0,0,1,.14.4,19.37,19.37,0,0,1,.27,4.17,1.28,1.28,0,0,0-.76.9,1.26,1.26,0,0,0,.31,1.13,2.22,2.22,0,0,0,1.7.53A3.45,3.45,0,0,0,22.13,9,1.53,1.53,0,0,0,23,8a4.42,4.42,0,0,1,.29,2.12A33.53,33.53,0,0,0,24,13.9a4.49,4.49,0,0,1-.78,3.67c-.1.11-.25.22-.38.16a.33.33,0,0,1-.17-.18,2.1,2.1,0,0,1-.23-.65c0-.11,0-.23-.13-.28a.34.34,0,0,0-.2,0H20.93a.55.55,0,0,0-.25,0c-.13.06-.19.21-.26.34a1.68,1.68,0,0,1-.61.66.55.55,0,0,1-.36.11.62.62,0,0,1-.38-.38A6,6,0,0,1,18.46,16a8.91,8.91,0,0,1,0-2.68c.07-1.64-.31-3.3,0-4.91a10.55,10.55,0,0,0,.27-1.36c.07-1-.48-1.38-1.23-1.87A.36.36,0,0,1,17.34,5a.38.38,0,0,1,0-.21V2.48a3,3,0,0,1,.06-.74A5.08,5.08,0,0,0,17.61,1Zm4,17.05a3.74,3.74,0,0,1-1.6.06l-1-.1a2.18,2.18,0,0,0,.59-.5c.11-.14.22-.44.38-.51a.75.75,0,0,1,.3,0l.73,0A.15.15,0,0,1,22,17a.14.14,0,0,1,0,.09A1.69,1.69,0,0,0,22.56,18ZM17.24,7.41a5.53,5.53,0,0,0,0-.56c0-.42,0-.86,0-1.29l.11,0a2.44,2.44,0,0,1,.39.52,1.33,1.33,0,0,1-.05.88c-.08.25-.17.49-.26.73A1,1,0,0,0,17.24,7.41Zm-.31-5.75a1.84,1.84,0,0,1-.48.3A10.18,10.18,0,0,1,15,2.27a.14.14,0,0,1-.09,0c-.64.07-1.74-.45-1.72-1.2A32.45,32.45,0,0,1,17.22,1a.8.8,0,0,1-.23.6Zm-2.48,3.7c-.09-1.08-.36-1.78-.33-2.49a.3.3,0,0,1,.11-.24.49.49,0,0,1,.16,0,6.67,6.67,0,0,0,2.5-.42,25.64,25.64,0,0,1,0,2.63,9.9,9.9,0,0,1,0,2.45,3.36,3.36,0,0,1-1,.32,1.18,1.18,0,0,1-1-.32,1.26,1.26,0,0,1-.27-1C14.59,6.09,14.46,5.51,14.45,5.36Zm0,3c.1-.43.15-.85,0-1a1.75,1.75,0,0,0,1.47.6c.22-.06.41-.19.62-.26a.53.53,0,0,1,.6.16c.1.18,0,.4,0,.6s.29.4.41.24a.19.19,0,0,0,0-.1l.64-2.34A6.06,6.06,0,0,1,18,8.62c-.27,1.6.09,3.24,0,4.87a4.25,4.25,0,0,1-.34,1.66,2.66,2.66,0,0,1-1.81,1.44,2.36,2.36,0,0,1-2.18-.69c-1-1.08-.84-2.91-.45-4.2.23-.74.55-1.44.81-2.17C14.14,9.35,14.33,8.85,14.45,8.36Zm-.87,8a2.77,2.77,0,0,0,1.9.69,3.21,3.21,0,0,0,2.45-1.36l-.06.37a2.73,2.73,0,0,1-.47,1.31,1.81,1.81,0,0,1-1.09.61A4.5,4.5,0,0,1,15,18a2.37,2.37,0,0,1-1.12-.3,2.36,2.36,0,0,1-.81-1.9A2.54,2.54,0,0,0,13.58,16.32Zm-1-15.22a1.92,1.92,0,0,0,.94,1.23.69.69,0,0,1,.25.2.65.65,0,0,1,.05.2l.27,2.5a1.88,1.88,0,0,1,0,.53,2.46,2.46,0,0,1-2,1.45,4.4,4.4,0,0,1-2.36-.5A24.68,24.68,0,0,0,7.34,5.05a4.44,4.44,0,0,0-1.88-.28l.31-3.5ZM7.32,13.67c.15.45.34.88.48,1.33a4.63,4.63,0,0,1,.13,2.5,2.93,2.93,0,0,1-1.51,1.93,2.21,2.21,0,0,1-1.62.11c-.15,0-.68-.22-.65-.42s.53-.33.6-.61a.53.53,0,0,0,.53.28.52.52,0,0,0,.42-.42.7.7,0,0,0,.81-.63.78.78,0,0,0,.6-.86.81.81,0,0,0,.39-.78,3.61,3.61,0,0,0-.23-.9,4.52,4.52,0,0,1-.12-2.1C7.2,13.3,7.26,13.49,7.32,13.67Zm-.61.64c-.11.18.15.88.21,1.08a1.57,1.57,0,0,1,.14,1c0-.13-.18-.19-.28-.12a.35.35,0,0,0-.11.34c0,.12.06.24.06.36a.29.29,0,0,1-.16.31l-.1-.43c0-.14-.12-.31-.27-.29s-.16.24-.13.38a2.8,2.8,0,0,1,.09.58.64.64,0,0,1-.25.5,1.78,1.78,0,0,1-.2-.68c0-.16,0-.39-.22-.4s-.19.1-.21.2a.88.88,0,0,0,0,.32,2.11,2.11,0,0,1,0,.71.2.2,0,0,1-.08.19.17.17,0,0,1-.22-.05A.49.49,0,0,1,5,18.07a9.85,9.85,0,0,1-.12-1.88A5.73,5.73,0,0,0,6.71,14.31ZM4.52,16.07a3.17,3.17,0,0,0,0,1.23,2,2,0,0,1-.17,1.23.35.35,0,0,1-.16.16.26.26,0,0,1-.26-.08.75.75,0,0,1-.13-.25,4.29,4.29,0,0,1-.2-1.67,6.52,6.52,0,0,0,.2-1.49C4,15.5,4.26,15.78,4.52,16.07ZM6.9,10.22a6.93,6.93,0,0,0-.1.78,13,13,0,0,1-.06,2.25A4.81,4.81,0,0,1,5,15.67s-.11.09-.17.08a.28.28,0,0,1-.14-.1l-.39-.46a.83.83,0,0,1-.22-.34,1.22,1.22,0,0,1,0-.33,31.31,31.31,0,0,1,.55-5.19,4.71,4.71,0,0,1,.22-.7c.08-.19.18-.38.26-.57a7,7,0,0,0,.36-2.88A3.71,3.71,0,0,1,8.12,6a.43.43,0,0,1,.16.2.45.45,0,0,1,0,.28A31.59,31.59,0,0,0,6.9,10.22Zm-6.27,24,.2-16L.94,9.33,1,4.9c0-.72,0-1.44,0-2.16a1.52,1.52,0,0,1,.29-1.08c.4-.39,1.24-.31,1.75-.34a23,23,0,0,1,2.35,0L4.9,7a1.69,1.69,0,0,1-.51,1.28,1.14,1.14,0,0,1-1.54-.51A3.3,3.3,0,0,1,2.6,6l.24-4.68a18.34,18.34,0,0,0-.66,5.05,3.34,3.34,0,0,0,.4,1.85,1.3,1.3,0,0,0,1.66.51c-.38,2.37-.67,4.75-.9,7.13-.14,1.53,0,3.45,1.35,4.1a2.5,2.5,0,0,0,3-1.12,5.05,5.05,0,0,0,.45-3.41C8,14.27,7.58,13.15,7.44,12A8.54,8.54,0,0,1,8.69,6.45a4.42,4.42,0,0,0,5.63,0c-.37,2.77-1.75,5.39-1.74,8.19A4.08,4.08,0,0,0,14,18a2.78,2.78,0,0,0,4.15-1.57,3.81,3.81,0,0,0,5.36,1.48,2.15,2.15,0,0,0,1.44,2.41,3.53,3.53,0,0,0,3-.47,10.23,10.23,0,0,0,2.25-2.11,6.06,6.06,0,0,0,4.95-.11,5.35,5.35,0,0,0,3.44.88,2.73,2.73,0,0,0,2.59-1.87c.2-1.05-.55-2.12-.29-3.15a4.33,4.33,0,0,0,.25-.92c0-.85-1-1.29-1.4-2a3.21,3.21,0,0,1,0-2.12A16.85,16.85,0,0,0,39.48,1l6.59.17,0,35.32q-22.72,0-45.44-.6ZM3.16,39a12.82,12.82,0,0,1-2-2.17A5.23,5.23,0,0,1,3.22,39Zm42,.17c-2.12,0-4.24-.17-6.36-.18-2.34-.14-4.67-.19-7-.21-1.9,0-3.8.14-5.69.22-3.32.09-6.65.22-10,.28s-6.46,0-9.68.11l-1.55.07c-.37,0-.76,0-1.13.08a4.9,4.9,0,0,0-.89-1.69,5.18,5.18,0,0,0-1.55-1.36l-.07,0c1.77,0,3.53.05,5.3.09,2.19,0,4.35,0,6.55-.08h1.71c.79,0,1.59,0,2.39,0,.44,0,.88,0,1.32,0h0c.29,0,.59,0,.89,0,4.56.38,9.14.39,13.71.52,3.49,0,7-.09,10.46-.19l2.38,0,1.56,2.31C46.78,39.11,46,39.13,45.2,39.12Zm3-13.76c-.1,4.48-.11,9-.13,13.46a3.38,3.38,0,0,1-1.39-2.07,10.3,10.3,0,0,1-.21-2.54l0-16.25V9.84a79.43,79.43,0,0,1,0-8,14.14,14.14,0,0,1,1.69,1.84,2.31,2.31,0,0,1,.49.71,2.6,2.6,0,0,1,.11.79c.13,5-.24,10-.45,15C48.26,21.91,48.21,23.63,48.16,25.36Z"/><path class="cls-8" d="M37.76,17.1a.41.41,0,0,1-.16,0s-.06-.06-.11-.07a.18.18,0,0,0-.24.12c-.06.24.24.35.43.36A.19.19,0,0,0,37.76,17.1Z"/><path class="cls-8" d="M39.06,17c-.19-.11-.38.18-.21.32s.54.06.47-.2A.2.2,0,0,0,39.06,17Z"/><path class="cls-8" d="M40.14,16.64a.19.19,0,0,0-.2.18.19.19,0,1,0,.2-.18Z"/><path class="cls-8" d="M38.34,15.8c-.1,0-.19.08-.2.18a.19.19,0,1,0,.38,0A.18.18,0,0,0,38.34,15.8Z"/><path class="cls-8" d="M37,15.64a.2.2,0,0,0-.21.18A.21.21,0,0,0,37,16a.2.2,0,0,0,.21-.18A.21.21,0,0,0,37,15.64Z"/><path class="cls-8" d="M36.11,15.88a.18.18,0,0,0,.2-.18.19.19,0,0,0-.38,0A.18.18,0,0,0,36.11,15.88Z"/><path class="cls-8" d="M37.22,14.29c-.22,0-.42.2-.23.37S37.64,14.42,37.22,14.29Z"/><path class="cls-8" d="M36.59,15.06a.21.21,0,0,0,.18.21.2.2,0,0,0,.21-.18.21.21,0,0,0-.18-.21A.2.2,0,0,0,36.59,15.06Z"/><path class="cls-8" d="M37.85,15.46a.18.18,0,0,0,.18.2c.1,0,.19-.08.2-.18a.19.19,0,0,0-.38,0Z"/><path class="cls-8" d="M37.77,15.23c.1,0,.19-.08.2-.18a.18.18,0,0,0-.18-.2.19.19,0,0,0-.2.18A.18.18,0,0,0,37.77,15.23Z"/><path class="cls-8" d="M38.36,14.74a.2.2,0,0,0,.21-.18.2.2,0,0,0-.18-.2.19.19,0,0,0-.21.18A.2.2,0,0,0,38.36,14.74Z"/><path class="cls-8" d="M38.87,15.15a.19.19,0,0,0-.18-.21.19.19,0,0,0-.2.18.19.19,0,1,0,.38,0Z"/><path class="cls-8" d="M39,14.59a.2.2,0,0,0,.18.2.2.2,0,0,0,.21-.18.19.19,0,0,0-.18-.2A.19.19,0,0,0,39,14.59Z"/><path class="cls-8" d="M38.81,14.07A.23.23,0,0,0,39,14a.2.2,0,0,0,.13-.14.2.2,0,0,0-.16-.23C38.78,13.59,38.52,13.94,38.81,14.07Z"/><path class="cls-8" d="M37.41,14.17a.19.19,0,0,0,.2-.18.19.19,0,0,0-.38,0A.19.19,0,0,0,37.41,14.17Z"/><path class="cls-8" d="M36.54,13.81a.19.19,0,1,0,0-.38.2.2,0,0,0-.2.18A.19.19,0,0,0,36.54,13.81Z"/><path class="cls-8" d="M36.24,14.6a.19.19,0,0,0,.21-.18.2.2,0,0,0-.18-.2.2.2,0,0,0-.21.18A.19.19,0,0,0,36.24,14.6Z"/><path class="cls-8" d="M36.27,15.13a.19.19,0,0,0-.05-.38c-.17,0-.36.16-.27.34A.19.19,0,0,0,36.27,15.13Z"/><path class="cls-8" d="M39,16a.2.2,0,0,0,.21-.18.21.21,0,0,0-.18-.21.2.2,0,0,0-.21.18A.21.21,0,0,0,39,16Z"/><path class="cls-8" d="M39.55,15.64c.1,0,.19-.08.2-.18a.19.19,0,0,0-.38,0A.18.18,0,0,0,39.55,15.64Z"/><path class="cls-8" d="M40.23,15a.2.2,0,0,0,.2-.18.2.2,0,0,0-.18-.21.19.19,0,0,0-.2.18A.2.2,0,0,0,40.23,15Z"/><path class="cls-8" d="M39.84,14.38a.19.19,0,0,0,.2-.18.19.19,0,1,0-.38,0A.19.19,0,0,0,39.84,14.38Z"/><path class="cls-8" d="M14.7,12.61a3.45,3.45,0,0,1,.74.38l-.52.28-.42.24a.19.19,0,0,0,.07.35c.14,0,.25-.11.37-.17.31-.15.61-.32.9-.49a4.05,4.05,0,0,1,1,.57c.19.11.42-.11.28-.29a6.17,6.17,0,0,0-.77-.48l0,0a4.06,4.06,0,0,0,1-.57.57.57,0,0,1,.13-.08.19.19,0,0,0,.05-.27c-.15-.21-.37,0-.51.12a4.4,4.4,0,0,1-.39.26c-.23.1-.45.21-.68.33-.24-.13-.48-.26-.71-.4s-.36-.12-.53-.21a.19.19,0,0,0-.24.22C14.41,12.53,14.57,12.57,14.7,12.61Z"/><path class="cls-8" d="M14.57,12.07c.4,0,.71-.35,1-.52l.42-.27c.17.08.34.15.5.24a1.82,1.82,0,0,0,.6.35c.21,0,.33-.27.13-.36s-.44-.29-.68-.4L16.44,11l.81-.51c.21-.23-.21-.5-.35-.23q-.45.26-.87.54c-.26-.12-.53-.24-.78-.38-.1-.27-.62-.13-.45.16a3.25,3.25,0,0,0,.65.38,1.11,1.11,0,0,0,.19.09,10.74,10.74,0,0,1-.92.56C14.46,11.55,14.28,12,14.57,12.07Z"/><path class="cls-8" d="M15.44,9.68l.33-.22.07.08c.24.25.61.36.82.64A.19.19,0,0,0,17,10c-.19-.3-.53-.43-.8-.65l-.09-.09a5.45,5.45,0,0,0,.46-.38c.06-.06.15-.14.16-.23a.21.21,0,1,0-.42,0A4.66,4.66,0,0,1,15.8,9a1.09,1.09,0,0,0-.45-.24c-.06-.21-.42-.19-.43,0s.28.31.46.38l.09,0c-.19.14-.39.27-.57.43a.22.22,0,0,0-.12.31C15,10.18,15.25,9.79,15.44,9.68Z"/><path class="cls-8" d="M19.6,10.79a3.11,3.11,0,0,1,.67-.16l.41-.1a4.56,4.56,0,0,1,1.16.4.2.2,0,0,0,.26-.08c.1-.21-.14-.29-.29-.35l-.37-.17a2,2,0,0,0,.68-.24.19.19,0,0,0-.18-.32c-.15.05-.3.12-.45.16s-.54.12-.8.19a1,1,0,0,1-.16-.06,1.83,1.83,0,0,0-.44-.28c-.12,0-.23,0-.36-.07a.2.2,0,0,0-.17-.25c-.18,0-.29.22-.23.37s.42.26.65.31l.17.12a2,2,0,0,0-.55.13.19.19,0,0,0-.35.06.4.4,0,0,0,.06.28A.26.26,0,0,0,19.6,10.79Z"/><path class="cls-8" d="M19.7,12.46c.28-.17.6-.26.89-.4l.2-.11a3,3,0,0,0,.58.25,3.19,3.19,0,0,1,.59.21c.27.24.57-.13.26-.3a7.35,7.35,0,0,0-1-.38,6.81,6.81,0,0,0,.63-.41.19.19,0,0,0,0-.26c-.11-.09-.23,0-.33.06l-.62.38h0l-.17-.1a7.46,7.46,0,0,0-.8-.26l0,0h0c-.16-.27-.53,0-.3.25s.59.22.88.34h0c-.29.13-.6.25-.88.41-.22-.18-.49.23-.3.41S19.55,12.54,19.7,12.46Z"/><path class="cls-8" d="M21.21,13.55c.36-.26.67-.48.8-.55.29-.16,0-.56-.24-.31l-.93.64-.53-.3c0-.3-.46-.22-.48,0s.11.2.21.26l.42.25h0l-.56.35a1.75,1.75,0,0,1-.42.19.2.2,0,0,0-.14.32c.17.21.86-.2,1.51-.64l.46.26a3.14,3.14,0,0,0,.79.46.19.19,0,0,0,.31-.21c-.06-.13-.2-.16-.32-.2C21.81,13.9,21.51,13.72,21.21,13.55Z"/></g></g></svg>