<svg xmlns="http://www.w3.org/2000/svg" viewBox="0 0 24.66 20.16"><defs><style>.cls-1{fill:#fcd4ac;}.cls-2{fill:#d09971;}.cls-3{fill:#6b1e1e;}.cls-4{fill:#e52823;}.cls-5{fill:#9f2224;}</style></defs><g id="Layer_2" data-name="Layer 2"><g id="Card"><path class="cls-1" d="M24.1,9.15s.24.95.38,1.38-.43,1.3-.83,1.56-4.46,6.19-4.46,6.19L17.72,20l-9-1.47L.49,17.22l-.25-.38a7.67,7.67,0,0,1,.16-1A3.35,3.35,0,0,1,.85,15l3.39-3.61A52.7,52.7,0,0,1,8.59,7.17c.39-.1,6.22.68,6.22.68l-.05-1.8s-2.2-.2-2.68-.21-1.91-.16-2.33-.21a11.91,11.91,0,0,1-1.33-.32,2.42,2.42,0,0,1-.55-.94,7.61,7.61,0,0,1-.18-1.08S5.51,3.13,5,3.11s-1.52-.2-1.56-.67A.74.74,0,0,1,4,1.54c.42-.08,3.94.31,3.94.31A12.75,12.75,0,0,1,8.85.4,3.29,3.29,0,0,1,10.22.23c.39,0,3.66,0,4.09.11l.58.16s.75-.3,1-.16.7.61.8,1.81.9,5.84.9,5.84v.28Z"/><path class="cls-2" d="M3.43,2.44l4.33.11-.07.74a21.58,21.58,0,0,0-3.08-.22C4.11,3.18,3.43,2.44,3.43,2.44Z"/><path class="cls-3" d="M7.91,1.63c-.7-.07-1.4-.09-2.1-.16s-1.65-.23-2.14.16C3,2.38,3.39,3,4.26,3.24a25.08,25.08,0,0,0,3.47.24h0c.23,0,.4-.24.18-.38L6.33,3a8.19,8.19,0,0,1-2.15-.23c-.5-.21-.57-.44-.26-.89A2.07,2.07,0,0,1,5,1.8c.74,0,1.48.12,2.22.16l.56,0a.25.25,0,0,0,.31-.09A.2.2,0,0,0,7.91,1.63Z"/><path class="cls-4" d="M8.85.4A7.94,7.94,0,0,0,7.76,2.55a6.7,6.7,0,0,0,.66,2.76s1.28.27,2,.35,2.92.3,3.38.33l.92.06V1.12L14.89.5S12.27.33,11.67.23A19,19,0,0,0,8.85.4Z"/><path class="cls-5" d="M14.74.74c.15-.09.32-.23.25-.38S14.8.21,14.67.2A32,32,0,0,0,9.4,0a1.62,1.62,0,0,0-.58.11,1.32,1.32,0,0,0-.5.52,4.7,4.7,0,0,0-.52,4,1.59,1.59,0,0,0,1,1c.27.06.56,0,.83.1a2.15,2.15,0,0,0,.36.11,1.82,1.82,0,0,0,.33,0A6.06,6.06,0,0,1,11.88,6a20.37,20.37,0,0,0,2.7.15c.14,0,.33,0,.32-.19s-.21-.17-.35-.18a1.28,1.28,0,0,1-1-.82,3,3,0,0,1-.15-1.37A5,5,0,0,1,13.68,2a2.55,2.55,0,0,1,1-1.23ZM8.63,5.26l0,0a2.45,2.45,0,0,1-.46-.76,4.07,4.07,0,0,1,.92-4,5.14,5.14,0,0,0,1,0h.33a4.07,4.07,0,0,0-.83,1.21,4.33,4.33,0,0,0,.1,3.78C9.28,5.36,9,5.32,8.63,5.26Zm1.46.14A.43.43,0,0,1,10,5.23,4.11,4.11,0,0,1,10.3,1a1.75,1.75,0,0,1,.48-.46A2.31,2.31,0,0,1,12.32.4a5.37,5.37,0,0,0-1.4,2.47,3.07,3.07,0,0,0,.6,2.7l-1.23-.12A.35.35,0,0,1,10.09,5.4ZM13.17,5a4,4,0,0,0,.34.76c-.48-.14-1,.06-1.45-.21a1,1,0,0,1-.32-.33,3.46,3.46,0,0,1,.33-4,2,2,0,0,1,.64-.6,2.63,2.63,0,0,1,1.6-.12A4.25,4.25,0,0,0,13,3,4.33,4.33,0,0,0,13.17,5Z"/><path class="cls-2" d="M24.1,9.15l-6.47,8.68V19l.09,1s4.15-5.51,5-6.44a13.44,13.44,0,0,0,1.78-3.05C24.63,10.15,24.1,9.15,24.1,9.15Z"/><path class="cls-2" d="M15.71.12l.9,13.22s.35.25.85-.31-.09-6.59-.24-7.46S17.05.91,16.49.62A3.23,3.23,0,0,1,15.71.12Z"/><path class="cls-3" d="M17.76,8.74c-.28-2.4-.55-4.81-1-7.2a2.74,2.74,0,0,0-.29-.92,1,1,0,0,0-.78-.5,1.29,1.29,0,0,0-.5.14l-.48.19c-.52.21-.25,2-.24,2.44,0,1,0,2.06,0,3.09.07,2.06.17,4.12.28,6.17a2,2,0,0,0,.2.92c.34.56,1.11.63,1.76.63a1.27,1.27,0,0,0,.67-.1A1.33,1.33,0,0,0,18,12.47c0-.3,0-.6,0-.9A24.51,24.51,0,0,0,17.76,8.74Zm-.22,4a1.12,1.12,0,0,1-.08.26.53.53,0,0,1-.19.23.67.67,0,0,1-.37.08,4.34,4.34,0,0,1-1.13-.16.8.8,0,0,1-.42-.24.94.94,0,0,1-.12-.47C15.12,10.56,15,8.64,15,6.73c0-1-.07-1.95-.1-2.92,0-.47,0-.94,0-1.42S15,1.6,15,1.22s.44-.8.84-.71.47.47.54.81c.42,2,.66,4.06.9,6.1.14,1.19.28,2.38.36,3.58A6.55,6.55,0,0,1,17.54,12.77Z"/><path class="cls-2" d="M.4,15.82s-.31-.75,5.57.33S17.44,18,17.44,18l.11,2S.65,17.28.49,17.22s-.24-.67-.25-.72A5.25,5.25,0,0,1,.4,15.82Z"/><path class="cls-3" d="M24.61,11a2.91,2.91,0,0,0-.1-1.4A.94.94,0,0,0,24.26,9a.91.91,0,0,0-.48-.18A62.71,62.71,0,0,0,17.39,8c-.09.18.17.32.37.35L24,9.25l-6.26,8.06a1.1,1.1,0,0,1-.35.33,1.05,1.05,0,0,1-.61,0Q8.83,16.27.86,15.31A94.74,94.74,0,0,1,8,7.9a2,2,0,0,1,.55-.41,2,2,0,0,1,1,0l5.21.61c.14-.21-.2-.41-.46-.44L9.3,7a2,2,0,0,0-.9,0,1.82,1.82,0,0,0-.61.46L2.08,13.28A9.64,9.64,0,0,0,.53,15.16c-.26.46-.87,1.75-.28,2.15a1.46,1.46,0,0,0,.59.19l16.48,2.63a1.18,1.18,0,0,0,.62,0,1.11,1.11,0,0,0,.44-.42l5.83-8a2.49,2.49,0,0,0,.35-.58A1.42,1.42,0,0,0,24.61,11Zm-8.27,8.58L1,17.14C.25,17,.54,16.42.61,15.85a.22.22,0,0,1,.06-.13s.07,0,.11,0q8.13.93,16.17,2.37a.48.48,0,0,1,.29.12.52.52,0,0,1,.11.33l.09,1.18Zm7.58-8.08-.15.2-5.88,8c-.11-.84-.38-1.56.17-2.28l6-7.7a1.92,1.92,0,0,1,.13,1.13A2,2,0,0,1,23.92,11.46Z"/></g></g></svg>