<svg xmlns="http://www.w3.org/2000/svg" viewBox="0 0 64.66 45.18"><defs><style>.cls-1{fill:#fcd4ac;}.cls-2{fill:#d09971;}.cls-3{fill:#6b1e1e;}.cls-4{fill:none;}.cls-5{fill:#b1dde3;}.cls-6{fill:#6fadb2;}.cls-7{fill:#eb5d45;}.cls-8{fill:#e52823;}</style></defs><g id="Layer_2" data-name="Layer 2"><g id="Card"><path class="cls-1" d="M2.37,7.53c.12,0,10.31-.43,12.74-.31s20.16.12,20.16.12L54,7.53h7.18s1.08,8.26,1.25,9.83,1.29,14.85,1.47,16.11.52,8.53.52,8.53l-.12.8s-1.42,2-2.18,2.18-5.39.18-5.39.18l-22.11-.32-21.11.07L6,45,1.7,45A3.31,3.31,0,0,1,.23,42.61c0-1.43.27-9.43.39-10.47s.56-16.8.56-16.8.12-5.41.19-6.1S1.56,7.76,2.37,7.53Z"/><path class="cls-2" d="M3.1,9.42l1.12,2.05s1.85,0,3.1,0,4,0,4.77,0,7-.45,8.63-.56,4.53.07,5.2,0,2.78,0,2.78,0l9.67-.19c1.25,0,7.2.3,8.47.33s6,.14,6.76.11,4.35.28,4.35.28H59s.1,3.55.21,4.51.74,6.61.72,8.42.29,6.81.38,8.12.46,8.52.46,8.52l1.28-.2s-.3-6.42-.29-7.39S61.19,24,61,21.68,60.16,9,60.16,9l-10.08.05L34.77,9,20.32,8.84a24.19,24.19,0,0,0-4,.12A46.74,46.74,0,0,1,9.92,9c-1-.05-3.87.17-4.27.21S3.1,9.42,3.1,9.42Z"/><path class="cls-2" d="M.45,42.92s.38,1.47,1,1.87S4.39,45,5,45.05s6.57-.1,7.16-.12,9.63-.07,9.66-.07l11,0,11.43.1h10c.6,0,5.59.09,6.38.08A5.4,5.4,0,0,0,63,44.58a8.52,8.52,0,0,0,1.24-2l-8.45.24-13.64.07-11.22,0-9.6,0L3.7,43Z"/><path class="cls-3" d="M2,34.15c0,.88,0,1.79-.07,2.67s-.21,1.88-.28,2.82a4.6,4.6,0,0,0,0,1.28.24.24,0,0,0,.08.09h0a.26.26,0,0,0,.25.26l1.2,0c.43,0,.86,0,1.27,0a23.39,23.39,0,0,0,4.1.09c2.85-.29,5.67.11,8.53.15,1.85,0,3.69,0,5.54-.08,2.51,0,5,.27,7.52.37,1.87,0,3.75,0,5.62,0s4,0,6,0c2.19.17,4.37.3,6.56.3.8,0,1.59,0,2.39-.06,2.51-.18,5-.2,7.47-.33,1.16-.09,2.3-.34,3.46-.45l.09,0,.15,0,.08,0h.1l.09,0h0l0,0h0l.06,0a.17.17,0,0,0,0-.14c0-.51,0-1,0-1.52-.07-1.75-.12-3.51-.19-5.26-.19-3.14-.23-6.29-.49-9.42-.48-4.71-.81-9.44-1.23-14.15,0,0,0,0,0-.06,0-.26,0-.52-.07-.78s0-.38,0-.57A.22.22,0,0,0,60.16,9a.27.27,0,0,0-.09-.22.43.43,0,0,0-.25-.07,7.68,7.68,0,0,1-1.59,0,17.77,17.77,0,0,0-2.63-.06c-1.75.06-3.5-.08-5.25-.1-1.2,0-2.4,0-3.6.07l-7.26,0c-3,.08-6,.12-9,.07-2.44,0-4.88.08-7.32,0a48.73,48.73,0,0,0-5.79-.15,45.86,45.86,0,0,1-4.69.21,13.74,13.74,0,0,1-1.58-.06c-.46,0-.92-.07-1.4-.07-2.21.12-4.4.33-6.61.39h0l0,0L3,9.07l-.07,0h0l0,0,0,.07h0a1.09,1.09,0,0,0,0,.17h0v0h0l0,.06h0a.3.3,0,0,0,0,.1v.17c-.12,1-.05,1.93-.17,2.89-.07,1.25-.24,2.5-.29,3.75,0,2.28,0,4.56,0,6.83s.06,4.62,0,6.9C2.17,31.5,2.07,32.83,2,34.15ZM56.7,41.29c-1.23.06-2.42.1-3.64.13-2,.13-4,.23-6,.18-1.15,0-2.3-.07-3.44-.15s-2.57-.18-3.87-.15c-1.52,0-3.05,0-4.57,0-2.19,0-4.38,0-6.56-.11-1.87-.1-3.74-.23-5.61-.29-.88,0-1.77,0-2.65,0s-1.92,0-2.89,0c-2.39,0-4.78-.3-7.17-.26-1.5.07-3,.19-4.51.15a16.33,16.33,0,0,0-2-.15H3.66c0-1.09,0-2.2,0-3.29,0-1.3.11-2.62.11-3.92v0h0c.09-4.28.19-8.56.41-12.83,0-1.44.14-2.83.13-4.26s0-2.84,0-4.27h0v0a4.55,4.55,0,0,1,0-.53.47.47,0,0,1,.17,0h.11l.35,0,.49,0a11.65,11.65,0,0,0,2.13.05c.91-.05,1.89-.14,2.78-.14.4,0,.8,0,1.19,0a12.82,12.82,0,0,0,1.64,0c3.82-.16,7.64-.54,11.46-.57,1,0,2.1.18,3.15.2,1.69,0,3.37-.14,5.05-.17s3.5-.06,5.25-.08c2.77,0,5.54.15,8.3.33,1.34.07,2.68,0,4,0,1.08,0,2.16.12,3.25.15,1.67,0,3.33.14,5,.27,0,0,0,0,0,0,0,.81.13,1.61.19,2.42.09,1.33.18,2.66.29,4s.27,2.64.36,4c.13,2,.14,3.95.3,5.92.08,1.31.07,2.62.24,3.93.14,1.91.21,3.82.33,5.73,0,1.07.1,2.14.13,3.21l-1.14.15A16.29,16.29,0,0,1,56.7,41.29Zm4.64-12.14c.09,2.83.28,5.66.35,8.5.05.91.09,1.83.07,2.74a2.53,2.53,0,0,1,0,.39l-.3,0-.41.06c-.09-2.66-.26-5.32-.39-8-.09-1.31-.25-2.6-.26-3.91-.19-2.63-.21-5.27-.43-7.89-.23-2.33-.44-4.66-.57-7-.06-.81-.18-1.62-.19-2.43.15-.6.19-1.24.38-1.83,0-.17.1-.35.14-.53,0,.43,0,.85.09,1.28a2,2,0,0,0,.06.4,1.17,1.17,0,0,1,0,.35c.13,1.26.22,2.52.29,3.78.13,1.58.32,3.16.41,4.74C60.9,23,61.25,26,61.34,29.15ZM11.34,9.2a35,35,0,0,0,3.55,0C16.44,9.14,18,8.89,19.53,9c2.37.2,4.75.24,7.13.24,1.95-.06,3.91-.05,5.87-.05h3.11c3.62-.14,7.25-.07,10.87,0,1.19,0,2.38-.08,3.57-.07,1.75,0,3.51.14,5.26.11.68,0,1.36-.05,2,0s1.22.12,1.84.12c-.08.3-.17.59-.24.9s-.14.7-.19,1c-.79-.09-1.58-.09-2.37-.16-1.08-.1-2.16-.08-3.24-.13-.91-.05-1.82-.14-2.72-.14a48.42,48.42,0,0,1-6.26-.13c-3.91-.28-7.82-.18-11.74-.1-1.37,0-2.75.16-4.13.17-1.17,0-2.4-.18-3.56-.2-3.6,0-7.19.35-10.78.53a21.74,21.74,0,0,1-2.91,0c-1.41-.06-2.83.1-4.24.16a18,18,0,0,0-2.32,0,.29.29,0,0,0-.2,0h0c-.28-.52-.57-1-.8-1.57a.58.58,0,0,1,0-.14C5.33,9.41,7.19,9.31,9,9.14A12.7,12.7,0,0,1,11.34,9.2ZM2.44,36.73c.06-.83,0-1.68.06-2.5a74.9,74.9,0,0,0,.26-7.78c0-2.26,0-4.52,0-6.78,0-1.37,0-2.8.08-4.16s.24-2.5.3-3.74c.05-.54,0-1.08.07-1.62.17.38.39.74.58,1.11a1.74,1.74,0,0,0,.1.19.39.39,0,0,0,0,.15,16.91,16.91,0,0,0,0,1.74c-.09,1.55,0,3.1-.06,4.65-.19,4.72-.37,9.44-.48,14.16,0,1.88-.11,3.78-.14,5.64,0,1,0,2,0,3l-1.06,0s0-.06,0-.08C2.12,39.36,2.36,38.05,2.44,36.73Z"/><path class="cls-3" d="M2.76,9.43h0Z"/><path class="cls-3" d="M64.58,42a12.84,12.84,0,0,0,0-2.7c-.84-10.72-1.68-21.46-3.26-32.07L4.79,7a4.81,4.81,0,0,0-3,.58c.51.55,2.85.11,3.59.11l3.89,0,7.79-.05q7.79,0,15.57,0,14.17,0,28.34.25Q63.18,25,64.28,42.31c-6.31.39-12.62.42-18.94.44L.45,42.92a62.94,62.94,0,0,0,10.36.52l14.47-.06,10.95,0c9.22,0,18.44-.07,27.66-.44-.82,1.88-3.08,2.08-4.94,2Q31.6,44.1,4.24,45C3,45,1.62,44.91.92,43.8a4.67,4.67,0,0,1-.43-2.64L1.63,8.35a2.7,2.7,0,0,0-.58,2L0,40A9.43,9.43,0,0,0,.52,44.2a1.84,1.84,0,0,0,.63.81,1.89,1.89,0,0,0,1,.17l58.87,0a4.17,4.17,0,0,0,2.07-.36A3.57,3.57,0,0,0,64.58,42ZM61.24,7Z"/><polygon class="cls-3" points="1.21 7.81 1.21 7.8 1.21 7.8 1.21 7.81"/><path class="cls-4" d="M36.73,32.89a4.47,4.47,0,0,0-2,.08,3.18,3.18,0,0,0-.88.4c-.1.06-.33.19-.38.3s0,.35.1.29a6.13,6.13,0,0,1,1.67-.71,2.46,2.46,0,0,1,1.77.24.61.61,0,0,0,.21.11h.06a.16.16,0,0,0,.14-.08.22.22,0,0,0,0-.14C37.39,33.07,37,32.94,36.73,32.89Z"/><path class="cls-2" d="M30,10.9a30.49,30.49,0,0,1,2.43,3.49c.56,1.12,3,2.31,3,2.31l1.22,1.7s-12,12.32-13.51,13.74S19,35.86,19,35.86A20.54,20.54,0,0,0,24.66,32c3.07-2.85,12.82-12.61,12.82-12.61l1.74,1.83L24.14,34.09s.71,1.92,1.46,1.66,2.84.27,6.06-2.33,10.19-9.57,10.19-9.57,3.39,5,5.66,6,5.43.64,6.29-.49S55.63,24,55.63,24L31.84,8.81Z"/><path class="cls-2" d="M27.19,5.73S26,7.4,27.41,8.45s3.32,0,3.32,0Z"/><path class="cls-1" d="M37.22,15.34s-7.31,6.92-8.29,7.82-5.11,5.15-5.68,5.55-3,2.73-3.83,3.4-2.15,1.67-2.17,2.46A1.29,1.29,0,0,0,19,35.86c1-.5,3.63-3.26,4.08-3.72s6.18-6.2,6.5-6.48,5.56-5.54,6-6,1.17-1.13,1.56-1.54a3.87,3.87,0,0,0,.87-1.07,4.31,4.31,0,0,0,.28-.78s1.06.2,1.16.83,0,1.45.27,1.71S41.08,20,41.08,20s-6.6,4.77-7.85,5.61S25,32.38,25,32.38l-1.19,1.19A5,5,0,0,0,24.49,35c.44.52.65.75,1,.61a7.76,7.76,0,0,0,1.39-1C27,34.52,36,26.3,36,26.3l6.25-5.09a12.35,12.35,0,0,0,1.68,1.71,53.45,53.45,0,0,1,4.28,3.52c.53.55,2.25,2.13,2.25,2.13a6,6,0,0,0,2.82-1.21c.88-.92,2.7-2.87,2.59-3.78s-2.71-3.17-3-3.46L46,14a2.47,2.47,0,0,0-.82-.39,5.66,5.66,0,0,1-1.64-.14,7.5,7.5,0,0,1-3-2.57,10.09,10.09,0,0,1-.72-1.92S35,4.8,34.48,4.32,29.84.26,29.84.26a4.12,4.12,0,0,0-3.4,1.84c-1.39,2-1,3.19-1,3.19s3.61,3.48,4,3.93,4.26,4.25,4.63,4.53.77.64.77.64a5.18,5.18,0,0,1,1.92.2C37.53,14.88,37.22,15.34,37.22,15.34Z"/><path class="cls-2" d="M38.47,15.11A13.05,13.05,0,0,1,35.36,19C33.48,20.39,19.65,34.36,19,34.82a2.56,2.56,0,0,1-1.3.48,1.09,1.09,0,0,0,.93.64c.65,0,3-2.37,3-2.37l7.43-7.39L36.45,19a13.39,13.39,0,0,0,1.92-2.68A2.84,2.84,0,0,0,38.47,15.11Z"/><path class="cls-2" d="M44.93,17.55a15,15,0,0,1-3.34,3.3C39.83,22,28.32,32.09,27.34,32.9s-2,1.75-2.29,1.9a1,1,0,0,1-.69,0s.55.85,1.15.79,4.87-4.24,4.87-4.24,7.66-6.81,8.18-7.23,3.93-3.17,4.28-3.47a11.67,11.67,0,0,0,1.78-1.86A4.26,4.26,0,0,0,44.93,17.55Z"/><path class="cls-3" d="M26.63,28.89,36.91,18.73a5.54,5.54,0,0,0,1.78-2.59,1.07,1.07,0,0,0-.22-1c-.44-.38-1.11,0-1.56.34C30.36,20.71,25,27.35,18.46,32.59c-.6.49-1.38,1.1-1.42,1.94a1.56,1.56,0,0,0,1.44,1.63,2.92,2.92,0,0,0,1.86-1.06ZM19.78,35a2.11,2.11,0,0,1-1.24.66,1.08,1.08,0,0,1-1.09-1.1c0-.69.8-1.25,1.29-1.64,6.69-5.34,12.1-12.16,18.85-17.44a.62.62,0,0,1,.31-.16c.32,0,.41.45.34.75a5.22,5.22,0,0,1-1.62,2.31L21.89,33,20,34.78Z"/><path class="cls-3" d="M44.21,17.39a6.41,6.41,0,0,0-1.06.65c-6,4.28-11.95,8.56-17.49,13.39a23.52,23.52,0,0,0-1.9,1.7c-.56.59,0,1.33.48,1.9a1.59,1.59,0,0,0,1.36.72,1.86,1.86,0,0,0,.91-.56c4.85-4.45,9.63-9,14.82-13A13.78,13.78,0,0,0,45,18.51c.21-.36.36-.87,0-1.12A.85.85,0,0,0,44.21,17.39Zm.07,1.41A11.22,11.22,0,0,1,42,21Q33.88,27.53,26.4,34.76c-.32.3-.72.63-1.14.52a1,1,0,0,1-.49-.33,4,4,0,0,1-.63-.86c-.26-.48-.19-.54.2-.9l1.91-1.68q2-1.7,4-3.33C32.89,26,35.63,24,38.44,22a43.46,43.46,0,0,0,4-3,3.94,3.94,0,0,1,2.39-1.33A4.48,4.48,0,0,1,44.28,18.8Z"/><path class="cls-2" d="M54.63,21.83a5.56,5.56,0,0,0-2.69.81,9.46,9.46,0,0,0-2.22,2.57A13.1,13.1,0,0,0,49,27.06l.83.81a7.47,7.47,0,0,1,2.11-3.67,6.3,6.3,0,0,1,3.49-1.54Z"/><path class="cls-2" d="M52.84,20.12s-2.87.74-4,2.24a12.5,12.5,0,0,0-1.6,3.27l.9.81a6,6,0,0,1,2-3.78,7.18,7.18,0,0,1,3.62-1.6Z"/><path class="cls-2" d="M52.1,19.45c0,.06-3.1.5-4,1.75a21.91,21.91,0,0,0-1.78,3.53l-1-.77a7.49,7.49,0,0,1,2.84-4c2.14-1.38,3-1.28,3-1.28Z"/><path class="cls-2" d="M50.35,17.89A11.26,11.26,0,0,0,46.78,20a15.06,15.06,0,0,0-2.14,3.33l-.73-.36s.43-3.08,2.61-4.34a7.94,7.94,0,0,1,3.19-1.3Z"/><path class="cls-2" d="M35.08,4.8c-.07,0-2.59.88-3.36,2.67a8.84,8.84,0,0,0-.79,3.12,7.83,7.83,0,0,0,.81.66,6.69,6.69,0,0,1,1.53-3.72A8.76,8.76,0,0,1,35.8,5.46Z"/><path class="cls-2" d="M34.2,4a5.19,5.19,0,0,0-3.27,2.43C29.64,8.51,30,9.8,30,9.8l-1-1a5.64,5.64,0,0,1,1.35-3.63,7.18,7.18,0,0,1,2.87-1.95Z"/><path class="cls-2" d="M32.25,2.4S29.8,3,29,4.8a10.94,10.94,0,0,0-1,2.9l-.83-.84a6.51,6.51,0,0,1,1.53-3.33,7.81,7.81,0,0,1,2.81-1.85Z"/><path class="cls-2" d="M30.49.82A5.9,5.9,0,0,0,27.25,3a10.28,10.28,0,0,0-1.16,3L25.31,5A5.65,5.65,0,0,1,27.14,1.4,5,5,0,0,1,29.84.26Z"/><path class="cls-2" d="M54.63,24.21a7.73,7.73,0,0,0-2.2,1.73c-.58.59-1.28,1.42-1,1.59s2.1-1.41,2.52-1.81S55.39,24.09,54.63,24.21Z"/><path class="cls-3" d="M40.08,18.77c-.17-.32,0-.7-.15-1a2.5,2.5,0,0,0-1.31-1.81.22.22,0,0,0-.25.36,2.21,2.21,0,0,1,1.18,1.85,1.65,1.65,0,0,0,.08.7A3.35,3.35,0,0,0,40.72,20a.21.21,0,0,0,.36-.07.26.26,0,0,0-.14-.31A3.94,3.94,0,0,1,40.08,18.77Z"/><path class="cls-3" d="M55.74,22.66a.55.55,0,0,0-.1-.11s0,0,0,0a25.43,25.43,0,0,0-2.15-2.13A19.17,19.17,0,0,0,52,19.05c-1.26-1.08-2.39-2.29-3.67-3.36-.46-.41-.93-.84-1.4-1.28a3.82,3.82,0,0,0-1.61-1.09.85.85,0,0,0-.39,0,2.38,2.38,0,0,1-.36,0A6.06,6.06,0,0,1,43.12,13a6.52,6.52,0,0,1-3-4,.16.16,0,0,0,0-.11A.17.17,0,0,0,40,8.75c-.66-.66-1.42-1.19-2.12-1.81s-1.32-1.15-2-1.69-1.21-1.13-1.83-1.68a29.37,29.37,0,0,1-2.5-2.11A15.07,15.07,0,0,1,30,.11.2.2,0,0,0,29.84,0a1.14,1.14,0,0,0-.52,0A3.94,3.94,0,0,0,27,1.16c-1.07,1-2.18,2.68-1.78,4.24a.21.21,0,0,0,.19.09,22.38,22.38,0,0,0,2.41,2.36.26.26,0,0,0,.07.15A.2.2,0,0,0,28,8c.61.61,1.18,1.26,1.8,1.86a.48.48,0,0,0,.12.16h0c.08.07.14.15.22.21a3.78,3.78,0,0,1,.48.5.24.24,0,0,0,.17.14h0c.22.22.45.43.68.64a.08.08,0,0,0,0,0,7.28,7.28,0,0,1,.73.74c.83.82,1.72,1.56,2.59,2.33a.2.2,0,0,0,.26,0c.69.07,1.64.1,2.06.69,0,0,0,0,0,0h0a.22.22,0,0,0,.39-.2,1.4,1.4,0,0,0-.3-.35,4.19,4.19,0,0,0-2.23-.6l0,0c-.41-.39-.87-.72-1.27-1.11a20.64,20.64,0,0,1-1.64-1.6l-.19-.18v-.09a4.38,4.38,0,0,1,.1-1A7.48,7.48,0,0,1,33,8.12a4.8,4.8,0,0,1,1-1.28,4,4,0,0,1,1.67-1.06.25.25,0,0,0,.13,0c.52.43,1.06.85,1.56,1.32.78.68,1.62,1.3,2.37,2a.28.28,0,0,0,0,.09,6.6,6.6,0,0,0,.2.63c.68,1.72,2.08,3.64,4,3.91a2.62,2.62,0,0,0,1.13.05,2.08,2.08,0,0,1,1.17.65c.39.35.78.73,1.18,1.08.62.58,1.27,1.13,1.89,1.72a5.74,5.74,0,0,0-2.5.89A6.76,6.76,0,0,0,44,21.36c-.1.27-.15.57-.26.84l0,.13-1.09-.89a.21.21,0,0,0-.15-.07l-.23-.16a.22.22,0,0,0-.27.34c.14.11.29.18.43.3h0l2,1.62a.22.22,0,0,0,.17.19h0c.52.41,1,.83,1.54,1.26,1.37,1.16,2.65,2.39,4,3.62h0s0,0,0,0c.08.17.31.21.48.22a2.65,2.65,0,0,0,2-.71c.48-.36,1-.75,1.4-1.16C54.89,26,56.81,24,55.74,22.66ZM25.94,5.28c0,.06,0,.12,0,.18a2.47,2.47,0,0,1-.24-.29.23.23,0,0,0-.11-.11,3.69,3.69,0,0,1,0-.47,4.21,4.21,0,0,1,.86-2.14,4.18,4.18,0,0,1,3.19-2,.34.34,0,0,0,.1,0,1.6,1.6,0,0,0,.16.19.52.52,0,0,1,.11.1,5.14,5.14,0,0,0-2.75,1.82A5.1,5.1,0,0,0,25.94,5.28Zm1,1.23c-.23-.2-.44-.41-.65-.62,0,0,0,0,0-.07a3.06,3.06,0,0,1,.07-.8,5.31,5.31,0,0,1,1.46-2.53,4.76,4.76,0,0,1,2.29-1.38A.2.2,0,0,0,30.35,1c.19.15.38.31.56.48l.09.07-.16.06a4.3,4.3,0,0,0-1.92,1.22,8.61,8.61,0,0,0-1.73,2.87A6.86,6.86,0,0,0,27,6.51Zm.79.71a1.14,1.14,0,0,1-.11-.11l-.26-.23s0,0,0-.06a1.15,1.15,0,0,1,0-.41,7.13,7.13,0,0,1,1.3-2.65,5.14,5.14,0,0,1,1.3-1.29A6.26,6.26,0,0,1,31.28,2a.29.29,0,0,0,.1,0l.46.41a3.6,3.6,0,0,0-1.46.57A4.73,4.73,0,0,0,28.55,5,5.79,5.79,0,0,0,27.78,7.22Zm1,1c-.18-.19-.38-.37-.56-.55a2.64,2.64,0,0,1,0-.28,4.78,4.78,0,0,1,.72-2.21,5,5,0,0,1,1.25-1.63A4,4,0,0,1,32,2.75a.24.24,0,0,0,.23-.09l.56.44a6.49,6.49,0,0,0-3.93,4.5A3.18,3.18,0,0,0,28.8,8.22Zm1.09-.07a7.08,7.08,0,0,0-.17,1.07l-.48-.52a.25.25,0,0,0,0-.12,1.51,1.51,0,0,1,0-.3c0-2,1.94-4.23,3.78-4.81a.35.35,0,0,0,.14-.06l.56.49a3.79,3.79,0,0,0-2.23,1.34A6.84,6.84,0,0,0,29.89,8.15Zm.87,1.79c0,.08,0,.17,0,.25l-.52-.5,0-.09a3.22,3.22,0,0,1,.06-.93,6,6,0,0,1,1.39-2.89,3.57,3.57,0,0,1,2.11-1.45c.12,0,.27,0,.35-.12.13.12.27.22.39.35l.13.12a5.32,5.32,0,0,0-3.21,2.9A7.71,7.71,0,0,0,30.76,9.94Zm3.08-3.57A8,8,0,0,0,31.65,10a3.43,3.43,0,0,0-.13.9c-.14-.11-.26-.23-.39-.34a.23.23,0,0,0,0-.12,8.39,8.39,0,0,1,.17-1.31,8.84,8.84,0,0,1,.59-1.63,4.89,4.89,0,0,1,2.7-2.4A3,3,0,0,1,35,5h0l.43.38A4.57,4.57,0,0,0,33.84,6.37ZM44.5,23l-.44-.36c.08-.1.07-.29.14-.41a5.69,5.69,0,0,1,.52-1.37,6.56,6.56,0,0,1,4.52-3.19c.15,0,.33,0,.47-.1l.18.17.12.12A7.92,7.92,0,0,0,46.43,20a8.59,8.59,0,0,0-1.62,2.12A8.82,8.82,0,0,0,44.5,23Zm.37.31a2.36,2.36,0,0,1,.09-.36,5.86,5.86,0,0,1,1.4-2.21,7.56,7.56,0,0,1,3.73-2.44,1.21,1.21,0,0,0,.2-.09s0,0,0-.06l.51.48a7.19,7.19,0,0,0-4.62,3,7,7,0,0,0-1,2Zm1.29,1.06-.55-.45c0-.1,0-.2.06-.3a7.79,7.79,0,0,1,2.18-3.14A7,7,0,0,1,51.21,19l0,0,.46.4a6,6,0,0,0-5.37,4.46C46.27,24,46.21,24.18,46.16,24.35Zm1,.86-.63-.54c.11-.36.22-.69.34-1.05a5.56,5.56,0,0,1,4.86-3.83c.09,0,.19,0,.28,0a.24.24,0,0,0,.06-.08l.27.23.19.18a6.14,6.14,0,0,0-2.6,1,7.19,7.19,0,0,0-2.43,3.17A9.9,9.9,0,0,0,47.15,25.21Zm.83.73-.47-.41A10.11,10.11,0,0,1,48,24.26a5.9,5.9,0,0,1,4.8-3.79.24.24,0,0,0,.15,0l.45.42a6.52,6.52,0,0,0-4,2.35,6,6,0,0,0-1,1.66A5.15,5.15,0,0,0,48,25.94Zm.38.35s0-.05,0-.09v0a6.28,6.28,0,0,1,5.16-5,.29.29,0,0,0,.19-.07l.32.31a1.14,1.14,0,0,1,.11.11,6.25,6.25,0,0,0-4.66,3.52,6.17,6.17,0,0,0-.69,1.58Zm1.32,1.23-.48-.44c0-.07,0-.14,0-.2a9.27,9.27,0,0,1,1.26-2.49,5.5,5.5,0,0,1,3.76-2.33.26.26,0,0,0,.23-.12l.54.56a3.26,3.26,0,0,0-2,.6,7.23,7.23,0,0,0-2.88,3.19,5,5,0,0,0-.44,1.24Zm1.85.69a1.71,1.71,0,0,1-1.07.08h0a.79.79,0,0,0-.19-.22l-.2-.18s0,0,0,0h0a6.52,6.52,0,0,1,3.06-4.35,3.25,3.25,0,0,1,1.71-.61c.17,0,.38.12.52,0,0,.05.09.09.13.15C56.29,24.52,52.72,27.62,51.53,28.21Z"/><path class="cls-3" d="M54.63,23.94a5.36,5.36,0,0,0-2,1.44c-.29.39-2,2-1.39,2.45.38.22,1.19-.6,1.51-.83a18.5,18.5,0,0,0,1.9-1.75c.25-.22.67-.92.36-1.21A.24.24,0,0,0,54.63,23.94Zm-.86,1.55a16.42,16.42,0,0,1-2.11,1.78A12.3,12.3,0,0,1,53,25.66a4.9,4.9,0,0,1,1.68-1.24C54.51,24.88,54.06,25.14,53.77,25.49Z"/><path class="cls-3" d="M46.33,23.83v0s0,0,0,0h0Z"/><path class="cls-2" d="M25.36,37.81s-.07,1.87,1.43,2.38,2.74.9,3.93.17a4.56,4.56,0,0,0,1.75-2.22c.09-.2-.22-2-.47-2S25.36,37.81,25.36,37.81Z"/><path class="cls-2" d="M33.67,35.79a2.11,2.11,0,0,0,1.52,2.71c2.21.75,3.69.69,4.17-.45s0-4.13,0-4.13Z"/><path class="cls-2" d="M46.26,39.43a6.86,6.86,0,0,0,4.58.76,3.17,3.17,0,0,0,2.32-3.12s1.68-2.25,1.74-2.36a1.54,1.54,0,0,0,1.92.33c1.37-.62,1.92-2.63,1.47-2.42s-5.19,1-5.19,1a3.15,3.15,0,0,1-1.44,2.82C50.06,37.41,46.26,39.43,46.26,39.43Z"/><path class="cls-5" d="M28.22,32.2a4.1,4.1,0,0,0-1.26,1,5.64,5.64,0,0,0-.38,1.05,4.18,4.18,0,0,1-.29,1,4.33,4.33,0,0,0-.88,1.33,2.4,2.4,0,0,0,1.3,2.69,4.34,4.34,0,0,0,4.09-.42A3.41,3.41,0,0,0,32,36.67a1.82,1.82,0,0,0-.33-1.75A2.65,2.65,0,0,1,31,33.86a4.73,4.73,0,0,0-1.14-1.45.31.31,0,0,0-.34.13s-.41.81-.8.78-.43-.2-.4-.51a2,2,0,0,1,.14-.52Z"/><path class="cls-5" d="M34.89,30.82a1.23,1.23,0,0,0-.59.88c-.15.67-.19.91-.19.91a2.09,2.09,0,0,0-.88,1.25,4.16,4.16,0,0,0,.44,2.79,3.58,3.58,0,0,0,3.56,1.07,3.08,3.08,0,0,0,2.36-2.16,1.83,1.83,0,0,0-.18-1.64c-.16-.3-.86-1.32-.86-1.32s-.27-1.62-.77-1.9a5.79,5.79,0,0,0-1.43-.45.89.89,0,0,1,.32.57c0,.33-.05.39-.32.46s-.61-.22-.83-.32A2.16,2.16,0,0,0,34.89,30.82Z"/><path class="cls-6" d="M39.83,35.11a.22.22,0,0,0,0-.14,1.14,1.14,0,0,0,0-.52.22.22,0,0,0,0-.08,3.21,3.21,0,0,0-.42-.85,8.49,8.49,0,0,0-.65-1,9.23,9.23,0,0,0-.45-1.44A1.88,1.88,0,0,0,36.46,30a.22.22,0,1,0,0,.44c.21.05.38,0,.59.08a1.45,1.45,0,0,1,.55.32c.29.26.34.68.5,1s.11.52.21.76a.24.24,0,0,0-.1.14,2,2,0,0,1-1.67,1.19,2.91,2.91,0,0,1-2-1.2c0-.06-.08-.12-.11-.19a.3.3,0,0,0,0-.16,3.07,3.07,0,0,1,.4-1.07c.06-.08.13-.15.19-.22a.23.23,0,1,0-.19-.4c-.63.43-.69,1.23-.93,1.88-.15.33-.41.54-.59.87a3.41,3.41,0,0,0-.18.48.31.31,0,0,0-.07.21s0,0,0,.07a3.82,3.82,0,0,0,.69,2.88,3.18,3.18,0,0,0,2.18.94,3.73,3.73,0,0,0,2.93-.87,4.23,4.23,0,0,0,.93-1.75.36.36,0,0,0,0-.09ZM34.13,33v0a3.43,3.43,0,0,0,2.13,1.42A2.35,2.35,0,0,0,38.55,33a1.13,1.13,0,0,1,.1.13,5,5,0,0,1,.38.65,2.44,2.44,0,0,1,.33.69h0A2.81,2.81,0,0,1,37.91,36a4,4,0,0,1-1.5.51,3.22,3.22,0,0,1-1.65-.3,3.52,3.52,0,0,1-.42-.29,3,3,0,0,1-.53-.69,2.88,2.88,0,0,1-.37-.82.61.61,0,0,1,0-.14A3.22,3.22,0,0,1,34.13,33Zm.25,4.19a2.59,2.59,0,0,1-.9-1.67l.19.31a2.74,2.74,0,0,0,2,1.11,4.42,4.42,0,0,0,3.51-1.36c0,.12-.08.25-.14.37C38.43,37.8,36,38,34.38,37.15Z"/><path class="cls-4" d="M28.16,38.42A3.18,3.18,0,0,1,25.6,37a2.07,2.07,0,0,0,1,1.88,2.37,2.37,0,0,0,1.11.4,3.93,3.93,0,0,0,1.45,0,3.57,3.57,0,0,0,2.54-2.09c0-.1.07-.21.1-.33a3.84,3.84,0,0,1-1.28,1A4.32,4.32,0,0,1,28.16,38.42Z"/><path class="cls-4" d="M26.94,33.72c-.11.39-.15.79-.27,1.17a1.42,1.42,0,0,1-.08.18,1.5,1.5,0,0,0,.19.32,2.65,2.65,0,0,0,3.72-.25,2.42,2.42,0,0,0,.44-.82s0,0,0,0-.08-.12-.11-.18A3.39,3.39,0,0,0,30.25,33L30,32.79l-.51-.25s0,0,0-.08c-.31.34-.59.93-1,.73s-.19-.55-.07-.87C27.84,32.69,27.14,33,26.94,33.72Z"/><path class="cls-4" d="M28.2,36.48a2.65,2.65,0,0,1-1.85-1,6.76,6.76,0,0,0-.56.87v0a1.31,1.31,0,0,0,.15.37c.88,1.45,3.05,1.51,4.4.7a2.38,2.38,0,0,0,1.51-1.76s0-.06.06-.09a.78.78,0,0,0-.14-.29,4.18,4.18,0,0,1-.54-.57A3.06,3.06,0,0,1,28.2,36.48Z"/><path class="cls-4" d="M31.29,31.6a1,1,0,0,0-.51.1s-.21.75.19.87.84.07.81-.37A.59.59,0,0,0,31.29,31.6Z"/><path class="cls-7" d="M35.41,30.08a3.22,3.22,0,0,0-2,.25,11,11,0,0,0-1.36.81,2.34,2.34,0,0,0-1.89-.32,6.74,6.74,0,0,0-1.6,1.1h0a.26.26,0,0,1,.06.19.21.21,0,0,1-.21.17l0,0c-.12.32-.2.74.07.87s.67-.39,1-.73a.21.21,0,0,1,.3-.28l0,0h0a2,2,0,0,1,1,.79,2.35,2.35,0,0,1,.3.45.59.59,0,0,0,.63,0c.38-.19.81-.33.89-.62a4.87,4.87,0,0,0,0-1.1,6.4,6.4,0,0,1,1.6-.77c.51-.07.85-.23,1.18-.11a7.21,7.21,0,0,0,.9.35c.2,0,.34-.05.35-.26S36.51,30.12,35.41,30.08ZM31,32.57c-.4-.12-.19-.87-.19-.87a1,1,0,0,1,.51-.1.59.59,0,0,1,.49.6C31.81,32.64,31.37,32.68,31,32.57Z"/><path class="cls-7" d="M28.43,32.29a.21.21,0,0,0,.21-.17.26.26,0,0,0-.06-.19,1.61,1.61,0,0,0-.18.39Z"/><path class="cls-4" d="M28.16,38.42A3.18,3.18,0,0,1,25.6,37a2.07,2.07,0,0,0,1,1.88,2.37,2.37,0,0,0,1.11.4,3.93,3.93,0,0,0,1.45,0,3.57,3.57,0,0,0,2.54-2.09c0-.1.07-.21.1-.33a3.84,3.84,0,0,1-1.28,1A4.32,4.32,0,0,1,28.16,38.42Z"/><path class="cls-4" d="M26.94,33.72c-.11.39-.15.79-.27,1.17a1.42,1.42,0,0,1-.08.18,1.5,1.5,0,0,0,.19.32,2.65,2.65,0,0,0,3.72-.25,2.42,2.42,0,0,0,.44-.82s0,0,0,0-.08-.12-.11-.18A3.39,3.39,0,0,0,30.25,33L30,32.79l-.36-.18a2.26,2.26,0,0,1-.45.71.75.75,0,0,1-.75.11.64.64,0,0,1-.39-.89A2.28,2.28,0,0,0,26.94,33.72Z"/><path class="cls-4" d="M28.2,36.48a2.65,2.65,0,0,1-1.85-1,6.76,6.76,0,0,0-.56.87v0a1.31,1.31,0,0,0,.15.37c.88,1.45,3.05,1.51,4.4.7a2.38,2.38,0,0,0,1.51-1.76s0-.06.06-.09a.78.78,0,0,0-.14-.29,4.18,4.18,0,0,1-.54-.57A3.06,3.06,0,0,1,28.2,36.48Z"/><path class="cls-4" d="M30.75,32.91s0,.08.07.12l.23.07a1,1,0,0,0,1-.25,1,1,0,0,0,.22-1,1.26,1.26,0,0,0-.89-.74,2.4,2.4,0,0,0-1.19,0,2.29,2.29,0,0,0-1,.46,3,3,0,0,0-.64,1,.4.4,0,0,0,0,.35c.07.13.28.12.4,0a1,1,0,0,0,.24-.39,2.16,2.16,0,0,1,1.31-1.11,1.35,1.35,0,0,1,1,.06.78.78,0,0,1,.42.85.69.69,0,0,1-.87.43.77.77,0,0,1-.47-.88,1.49,1.49,0,0,0-.6.34A1.55,1.55,0,0,1,30.75,32.91Z"/><path class="cls-4" d="M31.22,32.41c.25,0,.3-.2.18-.39a.52.52,0,0,0-.36-.18C30.92,32,30.93,32.42,31.22,32.41Z"/><path class="cls-6" d="M31.69,34.64a4.16,4.16,0,0,1-.43-.66l-.17-.42L31,33.39a2.12,2.12,0,0,0-.21-.36s0-.09-.07-.12a1.55,1.55,0,0,0-.81-.65,1.48,1.48,0,0,0-.24.26l-.06.09.36.18.25.18a3.39,3.39,0,0,1,.59,1.15c0,.06.08.12.11.18s0,0,0,0a2.42,2.42,0,0,1-.44.82,2.65,2.65,0,0,1-3.72.25,1.5,1.5,0,0,1-.19-.32,1.42,1.42,0,0,0,.08-.18c.12-.38.16-.78.27-1.17a2.28,2.28,0,0,1,1.11-1.18,2.63,2.63,0,0,1,.39-.68c-.25,0-.43.21-.64.32-1.8,1.13-1,1.62-1.78,3-.18.29-.39.55-.56.84A2.29,2.29,0,0,0,26,38.92a3.56,3.56,0,0,0,2.66.91A4,4,0,0,0,32.23,37C32.47,36,32.6,35.32,31.69,34.64Zm0,2.59a3.57,3.57,0,0,1-2.54,2.09,3.93,3.93,0,0,1-1.45,0,2.37,2.37,0,0,1-1.11-.4,2.07,2.07,0,0,1-1-1.88,3.18,3.18,0,0,0,2.56,1.39,4.32,4.32,0,0,0,2.36-.54,3.84,3.84,0,0,0,1.28-1C31.77,37,31.73,37.13,31.7,37.23Zm.16-1.52a2.38,2.38,0,0,1-1.51,1.76c-1.35.81-3.52.75-4.4-.7a1.31,1.31,0,0,1-.15-.37v0a6.76,6.76,0,0,1,.56-.87,2.65,2.65,0,0,0,1.85,1,3.06,3.06,0,0,0,3-1.72,4.18,4.18,0,0,0,.54.57.78.78,0,0,1,.14.29S31.87,35.67,31.86,35.71Z"/><path class="cls-8" d="M36.8,30.53a1,1,0,0,0-.38-.4,1.94,1.94,0,0,0-.79-.26,4.18,4.18,0,0,0-3.4.87.21.21,0,0,1-.3.05,3,3,0,0,0-2.43.1,4.07,4.07,0,0,0-1.06,1,2.63,2.63,0,0,0-.39.68.64.64,0,0,0,.39.89.75.75,0,0,0,.75-.11,2.26,2.26,0,0,0,.45-.71l.06-.09a1.69,1.69,0,0,1,.84-.6.77.77,0,0,0,.47.88.69.69,0,0,0,.87-.43.78.78,0,0,0-.42-.85,1.35,1.35,0,0,0-1-.06,2.16,2.16,0,0,0-1.31,1.11,1,1,0,0,1-.24.39c-.12.09-.33.1-.4,0a.4.4,0,0,1,0-.35,3,3,0,0,1,.64-1,2.29,2.29,0,0,1,1-.46,2.4,2.4,0,0,1,1.19,0,1.26,1.26,0,0,1,.89.74,1,1,0,0,1-.22,1,1,1,0,0,1-1,.25L30.82,33a2.12,2.12,0,0,1,.21.36l.06.17A1.75,1.75,0,0,0,32.58,33a1,1,0,0,0,.25-.82.7.7,0,0,1,0-.25c0-.14.16-.22.29-.28a6,6,0,0,1,1.19-.47,2.12,2.12,0,0,1,1.27.05c.31.13.62.36.94.27a.61.61,0,0,0,.41-.65A.92.92,0,0,0,36.8,30.53ZM31,31.84a.52.52,0,0,1,.36.18c.12.19.07.39-.18.39S30.92,32,31,31.84ZM36.43,31a.16.16,0,0,1-.14.07h-.07a.75.75,0,0,1-.2-.1,2.42,2.42,0,0,0-1.77-.25,6.13,6.13,0,0,0-1.67.71c-.1.06-.12-.25-.1-.29s.28-.23.38-.3a3.18,3.18,0,0,1,.88-.4,4.43,4.43,0,0,1,1.95-.08c.31.06.67.19.75.49A.26.26,0,0,1,36.43,31Z"/><path class="cls-1" d="M56.8,31.69c-.8,0-1.52.11-1.7.4l-.42.67a1.39,1.39,0,0,0-.88,0,4.86,4.86,0,0,1-.71.32s-1-2.34-2.38-3.06-2.64-1.61-3.89-1.38a4.3,4.3,0,0,0-2.34.85,2.68,2.68,0,0,0-.64,1.05s-.1,0-.26.3a3.44,3.44,0,0,0-.26.88A6,6,0,0,0,42,33.41a6.56,6.56,0,0,0,0,3,6.37,6.37,0,0,0,1.32,2.18A7.56,7.56,0,0,0,47,40.08c1.32,0,2.76.05,3.41-.69a7.54,7.54,0,0,0,1.11-2,5.35,5.35,0,0,0,1.23-1.07,14.91,14.91,0,0,0,.7-1.62,4.42,4.42,0,0,0,.64-.62,6.83,6.83,0,0,1,.53-.6,2.06,2.06,0,0,0,1.39,1,2.14,2.14,0,0,0,2-1.13A1.27,1.27,0,0,0,56.8,31.69Zm-.5,1.77a3.22,3.22,0,0,1-1-.4s0-.5.75-.69,1-.14,1.2.35S56.67,33.5,56.3,33.46Z"/><path class="cls-2" d="M50.71,30s2.18,2.31,1.48,3.76-1.53,2.72-2.48,2.43a11.3,11.3,0,0,1-2.82-1,22.3,22.3,0,0,1-2.5-2.88l-.55-1.75a1.11,1.11,0,0,0-.47.73,1.74,1.74,0,0,0,0,.61,2.17,2.17,0,0,0-1,.9,6.51,6.51,0,0,0-.06,3.47,14.7,14.7,0,0,0,3.46,2.53c.46.18,1.32.4,1.27.42a1.7,1.7,0,0,1-.79.25c-.46,0-1.24,0-1.24,0a6.44,6.44,0,0,0,2.87.65,4.3,4.3,0,0,0,2.48-.69,4.32,4.32,0,0,0,.83-1.26l.28-.76a7.16,7.16,0,0,0,1.68-1.77c.39-.79.25-.92.25-.92a1.52,1.52,0,0,0,.59-.42,5,5,0,0,0,.58-.8s1.48,1.72,2.83.72.67-2.25-.13-2.37a2.88,2.88,0,0,0-1.87.16,1.09,1.09,0,0,0-.73.79,2.71,2.71,0,0,0-1.13.11c-.46.19-.39.35-.39.35s-.66-1.22-1-1.76A9.7,9.7,0,0,0,50.71,30Z"/><polygon class="cls-3" points="53.1 36.01 53.1 36.01 53.1 36.01 53.1 36.01"/><path class="cls-3" d="M46.28,40.19h0Z"/><polygon class="cls-3" points="49.3 40.17 49.31 40.17 49.3 40.17 49.29 40.18 49.3 40.17"/><path class="cls-3" d="M55.46,31.66a2.06,2.06,0,0,0-.73.61,1.52,1.52,0,0,0-.16.23h0a1.48,1.48,0,0,0-1.34.33A11.6,11.6,0,0,0,52.07,31a9.42,9.42,0,0,0-2.51-2,5,5,0,0,0-2.93-.6,11.19,11.19,0,0,0-1.27.31c-.38.13-.83.2-1.07.55l-.22.32a3,3,0,0,0-.91,1.85s-.06,0-.08,0A4.17,4.17,0,0,0,41.7,35a4.93,4.93,0,0,0,0,.94,6.54,6.54,0,0,0,1,2.11,6.75,6.75,0,0,0,1.64,1.32,5.55,5.55,0,0,0,1.17.58l.31.08h0l.36.09.14,0h0a8.91,8.91,0,0,0,1.17.17,6.82,6.82,0,0,0,1.1-.06h0a5.1,5.1,0,0,0,.78-.14,3.16,3.16,0,0,0,1.93-1.59,1.84,1.84,0,0,0,.44-1s0,0,0-.06.06-.11.08-.17h0A2.81,2.81,0,0,0,53.11,36v0a3.88,3.88,0,0,0,.24-.45h0a1.15,1.15,0,0,0,.12-.4,2.37,2.37,0,0,0,.09-.36.34.34,0,0,0,.12-.06,3.37,3.37,0,0,0,.93-1,2.25,2.25,0,0,0,.46.41,1.65,1.65,0,0,0,1.06.46,1.77,1.77,0,0,0,1.7-.76,2.19,2.19,0,0,0,.47-1.29C58.16,31.47,56.3,31.14,55.46,31.66ZM46,29a2.65,2.65,0,0,1,1.19-.17A5,5,0,0,1,50.3,30a7.49,7.49,0,0,1,2.37,2.72,4,4,0,0,1,.43.91A2.86,2.86,0,0,1,53,35.09,2.6,2.6,0,0,1,50.8,36.3a3.37,3.37,0,0,1-.55,0l-.54-.09a7.94,7.94,0,0,1-4.36-2.78,5.77,5.77,0,0,1-1.11-2.16c0-.32-.07-.63-.05-.95a1.65,1.65,0,0,1,.25-.47.35.35,0,0,0,.05-.08l.2-.28A3.93,3.93,0,0,1,46,29Zm-2.85,3a5.53,5.53,0,0,0,.68,2.16.26.26,0,0,0,.13.1,7.25,7.25,0,0,0,2.72,2.88,6.88,6.88,0,0,0,2.67.75,4.54,4.54,0,0,0,1.85-.29s0,0,0,0a2.36,2.36,0,0,1-.92.88,1.9,1.9,0,0,1-1,.46,6.49,6.49,0,0,1-3.93-.65A6.65,6.65,0,0,1,43.08,37a1.92,1.92,0,0,1-.26-.32s0,0,0,0a3.37,3.37,0,0,1-.49-.79,2.29,2.29,0,0,1-.07-.28,1.28,1.28,0,0,0,.79.35,1,1,0,0,0,1.09-1,1.23,1.23,0,0,0-1.31-1.21,1.21,1.21,0,0,0-.65.32A3.69,3.69,0,0,1,43.15,32ZM43,34.13c.45,0,.68.48.71.86a.57.57,0,0,1-.53.51C42.22,35.54,41.94,34.18,43,34.13Zm6.28,5.6a6.61,6.61,0,0,1-2.87.05l-.23-.08A4.78,4.78,0,0,1,44.42,39,5.88,5.88,0,0,1,43,37.82a3.78,3.78,0,0,1-.44-.75,4.11,4.11,0,0,0,1,.86,11.72,11.72,0,0,0,1.74.86,5.78,5.78,0,0,0,2.71.64,4.26,4.26,0,0,0,2.12-.31l.4-.26-.11.15A3.44,3.44,0,0,1,49.26,39.73Zm2.44-2.81a9.12,9.12,0,0,1-1.64.49,4.82,4.82,0,0,1-1.72-.16,6,6,0,0,1-3.83-2.91,8.89,8.89,0,0,0-.45-.79h0a3.47,3.47,0,0,1-.32-2.63,1.77,1.77,0,0,1,0,.2,6,6,0,0,0,1.17,2.46,8,8,0,0,0,5.56,3.16,4.3,4.3,0,0,0,1.89-.41A2.28,2.28,0,0,1,51.7,36.92Zm5.75-3.26a1.45,1.45,0,0,1-1.65.51,3,3,0,0,1-.95-.77.21.21,0,0,0-.23-.1c-.22,0-.4.28-.53.43a3,3,0,0,1-.48.53,3.49,3.49,0,0,0-.1-.79c0-.08-.07-.16-.1-.23l.12-.11a1.07,1.07,0,0,1,.95-.21.22.22,0,0,0,.28,0,.23.23,0,0,0,.12-.06c0-.08.08-.17.13-.24A1.8,1.8,0,0,1,57.17,32C58.13,32.34,57.92,33,57.45,33.66Z"/><path class="cls-3" d="M55.34,32.56c-.12.12-.33.28-.24.48s.14.24.27.32a3.92,3.92,0,0,0,.81.36,1,1,0,0,0,1-.3.75.75,0,0,0,.15-1A1.47,1.47,0,0,0,55.34,32.56Zm1.54.55a.56.56,0,0,1-.36.21,2.17,2.17,0,0,1-1-.36,1.26,1.26,0,0,1,.65-.4C56.59,32.49,57.36,32.59,56.88,33.11Z"/><path class="cls-2" d="M11.43,16.75s5.37,10.58,6.28,11.59,2.14,1.73,3.22,1.47,8.53-8.11,9.5-9.37,2.14-2.81,2.06-3.48S20,16,18.58,15.91s-3.66-.12-3.94-.57-.71-.57.4-1.07,8.6.3,9.62.53,7,1.34,7.78,1.68-.88,1.27-1.71,2.21-8.9,9.06-10.41,9.44-2.73-2.61-4.24-4.55a50.86,50.86,0,0,1-3.79-6.76Z"/><path class="cls-2" d="M15.76,22.83a17.25,17.25,0,0,1-3,3.35c-1.22.78-2.48,1.66-2.83,1.36s0-2,0-2l5.18-3Z"/><path class="cls-5" d="M31.86,15.7a15.63,15.63,0,0,0-4.19-1.39,9.07,9.07,0,0,0-1,0s.58-.71.36-.88-.29-.28-.52-.17-1.47.87-1.47.87-2.09-.31-2.91-.36-6.29-.62-6.73-.49-.73.05-.73.46a.92.92,0,0,0,.73,1c.57.15,4.74.27,5.9.51a14.79,14.79,0,0,0,2.14.3l-5.2,3.66-2.65,1.86s-1.68-3-2-3.44S12.45,15.9,12,16.06s-.57.81-.13,1.48,2.41,4.05,2.41,4.05l.12.36-1.09.65a1,1,0,0,1,.29.41.64.64,0,0,1,0,.31l1-.67s1.05,1.35,1.39,1.92a35.65,35.65,0,0,0,2.73,3.94,2,2,0,0,0,2.16.37c.95-.44,5.53-5.33,6-5.81s4.76-5.25,4.93-5.57S32.49,16.15,31.86,15.7Zm-2.15,2c-.7.58-4.15,4.55-4.85,5.07S21.28,26.45,21,26.73s-.9.68-1.2.61a13.91,13.91,0,0,1-2.3-2.69c-.37-.6-1.37-2.24-1.37-2.33v-.67s2-1.65,2.71-2.12,5-3.4,5-3.42l.84-.47,4.35.45s1.69-.1,1.71.29S30.42,17.15,29.71,17.73Z"/><path class="cls-6" d="M32.41,16.3a2.13,2.13,0,0,0-1.27-1.24,13.36,13.36,0,0,0-4.2-.94.56.56,0,0,0,.33-.58.59.59,0,0,0-.46-.48c-.36-.05-.67.23-1,.42a3.71,3.71,0,0,1-2.12.24l-7.65-.64c-.62-.05-1.43,0-1.62.61A1,1,0,0,0,15,14.76a2.81,2.81,0,0,0,1.29.21,45.23,45.23,0,0,1,6.46.59l-7,5.22C14.87,19.3,14,17.84,13,16.42c-.21-.32-.49-.67-.87-.63s-.71.59-.72,1,.55,1.19.8,1.64c.65,1.17,1.31,2.33,2,3.49l-1,.68c-.11.07-.23.17-.21.3s.4.16.59,0l12.51-9.15c.2-.15.47-.31.7-.19a2.17,2.17,0,0,1-1,1q-6.31,4.05-12.25,8.66c-.09.07-.18.16-.16.27s.32.12.48,0l.8-.57,3.42,5.05a3.08,3.08,0,0,0,1.31,1.27A2.08,2.08,0,0,0,21.14,29a6.25,6.25,0,0,0,1.37-1.15c3.16-3.2,6.33-6.41,9.22-9.85a2.28,2.28,0,0,0,.71-1.53C32.43,16.42,32.42,16.35,32.41,16.3ZM14.56,21.65s0,0,0,0a14.05,14.05,0,0,0-.87-1.56c-.56-.91-1-1.88-1.6-2.78a.74.74,0,0,1,.05-1.05c.29-.08.56.47.7.67.6,1.06,1.35,2,1.9,3.09.15.28.34.54.48.81a1.28,1.28,0,0,0,.15.25Zm8.71-6.59h-.08a3.53,3.53,0,0,1-.46,0l-4.51-.41-2.68-.24a1.07,1.07,0,0,1-.5-.14c-.56-.39.17-.75.53-.73q4.56.24,9.09.71A2.83,2.83,0,0,1,23.27,15.06Zm-5.73,5.65c2.12-1.59,4.31-3.09,6.55-4.51a2.12,2.12,0,0,1,.57-.27,2.18,2.18,0,0,1,.51,0l5.36.52c0,.39-.32.69-.62.93-3.48,2.84-6,6.74-9.47,9.54-.18.15-.42.31-.65.22a.71.71,0,0,1-.27-.22,22.06,22.06,0,0,1-2.24-3c-.33-.53-.64-1.08-.92-1.64s-.21-.37,0-.68a4.88,4.88,0,0,1,.89-.68ZM32,16.89a2.54,2.54,0,0,1-.43.67c-3,3.61-6.32,7-9.63,10.29a2.6,2.6,0,0,1-1.86,1c-.77-.06-1.31-.77-1.74-1.41,0-.32-.71-1.06-.9-1.34l-1-1.43-1-1.43c-.09-.15-.45-.52-.41-.69s.57-.43.71-.53a22.91,22.91,0,0,0,3.28,5,1.48,1.48,0,0,0,.64.5,1.43,1.43,0,0,0,1.2-.46c3.45-2.86,6-6.71,9.44-9.56.38-.31.81-.79.58-1.21A1.08,1.08,0,0,0,30,16l-4.9-.45a3,3,0,0,1,1.51-.9,3.33,3.33,0,0,1,.77,0,10.79,10.79,0,0,1,3.69.89c.44.23.9.59.9,1.09A1.26,1.26,0,0,1,32,16.89Z"/><path class="cls-8" d="M10.6,26.3a1.12,1.12,0,0,0,.46-.29l.61-.53a13.23,13.23,0,0,0,1.6-1.75.93.93,0,0,0,.16-.51.23.23,0,0,0,0-.16.69.69,0,0,0-.13,0c-1,.62-2,1.22-3,1.89-.23.15-.47.38-.4.67A1,1,0,0,0,10.6,26.3Zm0,.43A1.39,1.39,0,0,1,9.44,25.4c.1-.8,1-1.07,1.59-1.52s1.27-.78,1.9-1.16c.12-.09.26-.23.41-.12a.56.56,0,0,1,.53.68,1.83,1.83,0,0,1-.56,1.11c-.24.28-.46.54-.71.8a11.76,11.76,0,0,1-1.1,1C11.22,26.45,10.94,26.75,10.55,26.73Z"/><path class="cls-7" d="M13.24,22.87a24.18,24.18,0,0,0-2.62,1.6c-.3.23-1.07.57-.95,1.09s.32,1.05.86,1,1.52-1.08,1.92-1.47a5.22,5.22,0,0,0,1.18-1.73C13.63,23,13.62,22.72,13.24,22.87Z"/></g></g></svg>