<svg xmlns="http://www.w3.org/2000/svg" viewBox="0 0 54.77 33.68"><defs><style>.cls-1{fill:#fcd4ac;}.cls-2{fill:#d09971;}.cls-3{fill:#fff;}.cls-4{fill:#ff8500;}.cls-5{fill:#f4f4f4;}.cls-6{fill:#d4d4d6;}.cls-7{fill:#6b1e1e;}.cls-8{fill:#646669;}</style></defs><g id="Layer_2" data-name="Layer 2"><g id="Card"><path class="cls-1" d="M54.52,26.56c-.19-.9.09-2.78,0-4.1s.1-7.48-.2-9.19a44.5,44.5,0,0,0-2.25-6.15L51,5.44,50.23,2s-12.57-.07-14,0-6.88-.16-6.88-.16L28.78,0,21.89.56a31,31,0,0,1-5.35,0c-1-.21-9.11.55-9.11.55l-.94.35L6.22,3s-.44-.68-1.5,1a54.18,54.18,0,0,0-3.64,7.43,46.15,46.15,0,0,0-.8,6.38s.23,5.86.2,7.45S.22,30,.25,30.49s-.12,1.4.62,1.64.72,1.43,6.21,1,21.44-.13,24.23,0,14.84.43,16.22.3a28.45,28.45,0,0,0,5.5-.94,4.83,4.83,0,0,0,1.49-1.77A30,30,0,0,0,54.52,26.56ZM4.11,15.63A19.32,19.32,0,0,1,3,19a10.69,10.69,0,0,1,.27-3.51c.46-1.33,1.06-3.59,1.06-3.59S4.16,14.83,4.11,15.63ZM53,17.73s-.37-2-.6-3S52,11.17,52,11.17s.65.51,1,2.49A16.82,16.82,0,0,1,53,17.73Z"/><path class="cls-2" d="M54.33,23.48s.1-4.55.14-6.24a39.6,39.6,0,0,0-1.33-7.56,22.24,22.24,0,0,0-1.79-3.75s-.3-1.52-.41-2.51A2.06,2.06,0,0,0,50.23,2H46.86c-1,0-5.61-.09-6.76-.09S29.33,1.8,29.21,1.64l.35,1.63,2.08,0a6.46,6.46,0,0,0,1,1.07c.94.87.88,1.45.88,1.45l.15-2.62s9.1-.07,10.21-.15,5.39.07,5.39.07l1.35,8.28s1.08,6.72,1.45,8.51.75,6.25.75,6.25a22.25,22.25,0,0,0-4.52.2c-1.28.34-5.71.18-7,.2s-7.9.24-7.9.24-.2-8.68-.24-9.78S33,8.8,33,8.8l-.55-.16s-.08,8.28,0,9.19.13,10.32.13,10.32S39.92,28,41,28s13.19-.86,13.19-.86l.31-.6Zm-1.26-6.13s-.43-2.38-.66-3.21a12.07,12.07,0,0,1-.23-2.4,4.21,4.21,0,0,1,.8,1.92A11.69,11.69,0,0,1,53.07,17.35Z"/><path class="cls-2" d="M5.78,2.93A18.7,18.7,0,0,0,4,5.21,54.74,54.74,0,0,0,.75,13.56a22,22,0,0,0-.5,5.81c0,.66.31,5.94.23,6.7S.26,30.9.26,30.9s.16.83.22.78,6.27-.19,7.65-.28,7.41-.17,7.41-.17L31.45,31s11.73,0,12.47,0,8.7,0,8.75,0l1.57,0a4.34,4.34,0,0,0,.28-.57c0-.06-.07-1.07-.07-1.07l-13.74.32L24,29.88l-15.64.47-6.89.22S2,26.9,2,26s.2-4.68.17-5.51a42.33,42.33,0,0,1,.41-6c.3-1.48,1.11-4.26,1.3-4.76S5,6.55,5.29,6A18.53,18.53,0,0,0,6,3.36Z"/><path class="cls-2" d="M4.32,11a22.64,22.64,0,0,1-.21,4.66c-.36,1.07-1,3-1.12,3.33a2.94,2.94,0,0,0-.29,1.9c.22.62.38,1.47.57,1.48a9.54,9.54,0,0,0,1.08-2.83c.23-.91,1.1-5.38,1.12-6.31a5.83,5.83,0,0,0-.32-2.57,5.6,5.6,0,0,0-.58-.36Z"/><polygon points="4.58 3.23 4.58 3.23 4.58 3.23 4.58 3.23"/><path d="M1.24,31.42l-.1-.05.2,0h.07a.2.2,0,0,1-.11,0Z"/><path d="M4.58,3.22h0Z"/><polygon points="4.32 10.51 4.32 10.51 4.32 10.51 4.32 10.51"/><polygon points="4.57 10.27 4.57 10.28 4.57 10.28 4.57 10.27"/><polygon points="4.57 10.27 4.57 10.27 4.57 10.27 4.57 10.27"/><polygon points="4.57 10.27 4.57 10.27 4.57 10.27 4.57 10.27 4.57 10.27"/><path d="M4.65,10.23Z"/><polygon points="4.65 10.23 4.65 10.23 4.65 10.23 4.65 10.23"/><polygon points="4.66 10.22 4.66 10.22 4.66 10.22 4.66 10.22"/><polygon points="4.66 10.22 4.66 10.22 4.66 10.22 4.66 10.22"/><path d="M6.31,24.36Z"/><polygon points="5.75 25.49 5.75 25.49 5.75 25.49 5.75 25.49"/><polygon points="6.31 24.35 6.31 24.34 6.31 24.35 6.31 24.35"/><path d="M6.31,24.32v0Z"/><polygon points="0.01 31.51 0.01 31.51 0.01 31.51 0.01 31.51"/><path d="M0,31.51Z"/><path d="M0,31.51Z"/><path d="M0,31.5Z"/><path d="M0,31.49Z"/><path d="M.05,31.58h0Z"/><polygon points="0.02 31.52 0.02 31.52 0.02 31.52 0.02 31.52"/><path d="M0,31.5Z"/><path d="M13.5,31.22a.25.25,0,0,1,.26-.24.25.25,0,0,1,.24.25.26.26,0,0,1-.26.25A.26.26,0,0,1,13.5,31.22Z"/><polygon points="0.05 31.58 0.06 31.58 0.06 31.59 0.05 31.58"/><path d="M.05,31.58Z"/><path d="M.05,31.58Z"/><polygon points="0.02 31.52 0.02 31.52 0.02 31.52 0.02 31.52"/><polygon points="0.02 31.52 0.02 31.52 0.02 31.52 0.02 31.52"/><path d="M0,31.52Z"/><polygon points="0.01 31.51 0.01 31.51 0.01 31.51 0.01 31.51"/><polygon points="0.01 31.51 0.01 31.51 0.01 31.51 0.01 31.51"/><polygon points="0.01 31.5 0.01 31.5 0.01 31.5 0.01 31.5"/><path class="cls-3" d="M22.36,10a1,1,0,0,1,1-.17c.45.25,1.56,0,1.66-.32s-1.66-1.71-1.66-1.71l-.07-.4-.67-.78-.36-.24-.89-.58s.77,1.29.51,1.72-.58,2-1,2.33-2.08,4.32-2.41,4.54a20.29,20.29,0,0,1-2.76.85,4.85,4.85,0,0,0-2.15,1.31,4,4,0,0,0-.87,1.71,17.14,17.14,0,0,0-.16,3.08c0,.31,0,2.66.16,3.39a19.82,19.82,0,0,0,.36,2h.81a5.37,5.37,0,0,1-.35-1.08,20.23,20.23,0,0,1-.22-2.32l.27-.08a18,18,0,0,0,.65,1.9,7.19,7.19,0,0,1,.41,1.31l.19.81.79-.1A15.38,15.38,0,0,0,15,25.07a5.76,5.76,0,0,1-.62-1.92,5.2,5.2,0,0,1,.34-1.92,14.6,14.6,0,0,0,.52-1.57,3.63,3.63,0,0,0,1.24.3,3.82,3.82,0,0,0,1.16-.1,15.26,15.26,0,0,1,.13,1.79c0,.62-.36,2.25-.39,3.16a5.11,5.11,0,0,0,.26,1.74l.75-.15.2.88.69-.1a23.2,23.2,0,0,1-.31-3.2c0-1,.53-1.76.63-2.88s.3-3,.38-3.59a12.06,12.06,0,0,1,1-3,11.72,11.72,0,0,0,.9-2.5Z"/><path class="cls-4" d="M22.17,6.45a.26.26,0,0,0-.34-.09.25.25,0,0,0-.09.33l.1.17a.36.36,0,0,1,0,.09h0l0,0a2.37,2.37,0,0,1,.09.36s0,0,0,.07a.26.26,0,0,0,.24.25.25.25,0,0,0,.25-.25A2.11,2.11,0,0,0,22.17,6.45Z"/><polygon class="cls-2" points="6.24 14.73 4.19 30.09 31.32 29.48 31.74 3.5 31.64 3.3 30.49 3.05 6.91 4.74 6.24 14.73"/><path class="cls-5" d="M29.47,29.68s.16-4.32.22-5.57-.27-7.87,0-9.67S29.23,5.24,29.21,4s-.43-4-.43-4L11.54,1.15l-5,.35a7.77,7.77,0,0,0,.27,2.4c.32.71.11,3.45.16,4.37s-.36,6.38-.34,7.38-.07,5.74-.27,6.69A23.69,23.69,0,0,0,6,26.27c0,1.17-.2,4.17-.2,4.17L17.91,30Z"/><polygon class="cls-6" points="29.47 29.68 29.46 29.68 29.46 29.67 29.47 29.68"/><path class="cls-6" d="M30,22c0-1.13.09-2.26.16-3.4,0-.77-.06-1.55-.06-2.32,0-1-.11-2-.13-3,0-1.7-.1-3.39-.23-5.08,0-.7-.2-1.47-.17-2.18a25.17,25.17,0,0,0,0-2.88c-.07-.45-.07-.9-.18-1.34A10.47,10.47,0,0,1,29,.47l0,0A.27.27,0,0,0,28.78,0,7.3,7.3,0,0,1,28,0a5.83,5.83,0,0,0-1.18,0c-1.19,0-2.36.19-3.55.22a16.32,16.32,0,0,0-2.09.09,17,17,0,0,1-1.75,0,14.28,14.28,0,0,0-2.17,0c-.81,0-1.62,0-2.43.11a16.8,16.8,0,0,1-2.35.19C10.59.66,8.73.85,6.88,1L6.14,1A.33.33,0,0,0,6,1v.41H6v0H6v0H6a.76.76,0,0,0,0,.15,1,1,0,0,1,0,.24,3.49,3.49,0,0,0,.2.77,7.3,7.3,0,0,0,.32,1.4c.1.56,0,1.14,0,1.7s0,.87,0,1.31.1,1,.08,1.51c-.08,1.56-.08,3.12-.16,4.69-.1,2.26-.35,4.53-.4,6.8a19.12,19.12,0,0,1-.17,2.83c-.1.87-.14,1.72-.19,2.6h0c-.07,1.05-.07,2.11-.14,3.17a4.59,4.59,0,0,1-.1.83.43.43,0,0,0,0,.11h0c0,.21-.15.54.14.6s.3-.36.36-.57a1.12,1.12,0,0,0,0-.54c0-.64.07-1.26.1-1.92,0-.94.07-1.87.13-2.81h0c.05-1,.22-2,.28-3s0-1.9.08-2.84c.1-2,.3-4,.38-6,0-1.45.09-2.91.11-4.36-.07-.78-.07-1.55-.1-2.33-.06-.59.07-1.19,0-1.78a8.23,8.23,0,0,1-.31-1.28.14.14,0,0,0,0-.06l0-.17a0,0,0,0,1,0,0v0a.19.19,0,0,1,0-.07c0-.12-.09-.24-.13-.37a5,5,0,0,1-.06-.56l.69,0,2.88-.22c1-.09,2.09-.1,3.14-.14s2-.24,2.93-.23c.8,0,1.6-.09,2.41-.08s1.75.14,2.63.08A19.67,19.67,0,0,1,23.6.78c.68,0,1.35-.14,2-.18s1.35-.08,2-.1a7.42,7.42,0,0,0,.82,0,7.45,7.45,0,0,0,.32,1.21,19.13,19.13,0,0,1,.31,3.55,9.74,9.74,0,0,0,0,1.62c.22,2,.33,4.06.35,6.1,0,1.36.16,2.72.16,4.1a21,21,0,0,1-.08,3.27c0,2.36-.15,4.72-.13,7.08a9.76,9.76,0,0,0,.07,2.23.24.24,0,0,0,.45-.18,11.25,11.25,0,0,1,0-1.84C29.88,25.76,29.94,23.87,30,22Z"/><path class="cls-4" d="M18.74,25.42a.25.25,0,0,0-.24.25l.12,1.38a.25.25,0,0,0,.25.24.25.25,0,0,0,.25-.24c-.05-.46-.09-.92-.13-1.38A.26.26,0,0,0,18.74,25.42Z"/><path class="cls-4" d="M18.16,26.07a1,1,0,0,1-.08-.28,1.4,1.4,0,0,1,0-.29v.05a.31.31,0,0,0,0-.19.24.24,0,0,0-.15-.11.25.25,0,0,0-.19,0,.24.24,0,0,0-.11.15,1.45,1.45,0,0,0,0,.48,1.51,1.51,0,0,0,.13.41.22.22,0,0,0,.14.11.25.25,0,0,0,.19,0,.23.23,0,0,0,.09-.33Z"/><path class="cls-4" d="M15,25.82a.24.24,0,0,0-.33-.09.26.26,0,0,0-.09.34L15,27a.25.25,0,0,0,.34.08.24.24,0,0,0,.08-.33Z"/><path class="cls-4" d="M13.64,26.17h0l0,0,0-.07v0l-.06-.14q-.12-.3-.21-.6a.23.23,0,0,0-.3-.17.25.25,0,0,0-.17.3,7.41,7.41,0,0,0,.28.79l.1.22a.42.42,0,0,0,.11.17.37.37,0,0,0,.25.1.28.28,0,0,0,.26-.21.31.31,0,0,0,0-.19A.3.3,0,0,0,13.64,26.17Z"/><path class="cls-4" d="M20.79,11.72a.24.24,0,0,0-.19,0,.24.24,0,0,0-.11.15l-.19.55a.25.25,0,0,0,0,.19.24.24,0,0,0,.15.11.31.31,0,0,0,.19,0,.33.33,0,0,0,.11-.15L21,12a.25.25,0,0,0,0-.19A.22.22,0,0,0,20.79,11.72Z"/><path class="cls-4" d="M20.28,13.79a.22.22,0,0,0-.18,0A.29.29,0,0,0,20,14l-.09.37a.25.25,0,0,0,.17.3.26.26,0,0,0,.19,0,.22.22,0,0,0,.11-.14c0-.12.06-.25.1-.37a.32.32,0,0,0,0-.19A.24.24,0,0,0,20.28,13.79Z"/><path class="cls-4" d="M18.69,15.46a.13.13,0,0,0,.07.06.24.24,0,0,0,.19,0l.05,0a.2.2,0,0,0,.09-.09l.23-.32a.16.16,0,0,0,0-.09.17.17,0,0,0,0-.1.22.22,0,0,0-.05-.08.11.11,0,0,0-.07-.06.23.23,0,0,0-.18,0l-.06,0a.24.24,0,0,0-.09.08l-.23.33a.16.16,0,0,0,0,.09.17.17,0,0,0,0,.1A.22.22,0,0,0,18.69,15.46Z"/><path class="cls-4" d="M19.73,15.45a.25.25,0,0,0-.3.17,2.11,2.11,0,0,0-.1.66.22.22,0,0,0,.07.17.19.19,0,0,0,.17.07.25.25,0,0,0,.25-.24,1.62,1.62,0,0,1,0-.22,1.57,1.57,0,0,1,.08-.31.25.25,0,0,0,0-.19A.24.24,0,0,0,19.73,15.45Z"/><path class="cls-4" d="M21.72,10.54s0,0-.06-.07l-.09,0a.28.28,0,0,0-.18,0l-.05,0a.41.41,0,0,0-.07.11l-.13.33a.14.14,0,0,0,0,.09.2.2,0,0,0,0,.09.16.16,0,0,0,.07.07l.08.05a.26.26,0,0,0,.19,0l.05,0a.21.21,0,0,0,.06-.1l.14-.33a.17.17,0,0,0,0-.1A.16.16,0,0,0,21.72,10.54Z"/><path class="cls-4" d="M17.36,16a.3.3,0,0,0,.18-.08.77.77,0,0,1,.16-.15.8.8,0,0,1,.22-.13h0a.33.33,0,0,0,.15-.11.25.25,0,0,0,0-.19A.24.24,0,0,0,18,15.2a.25.25,0,0,0-.19,0,1.32,1.32,0,0,0-.62.42.26.26,0,0,0-.07.17.22.22,0,0,0,.07.17A.25.25,0,0,0,17.36,16Z"/><path class="cls-4" d="M18.25,16.32a.23.23,0,0,0-.07-.07.24.24,0,0,0-.19,0,.26.26,0,0,0-.14.11,3.37,3.37,0,0,1-.19.32.25.25,0,0,0,0,.19.36.36,0,0,0,0,.09l.07.06a.25.25,0,0,0,.19,0,.24.24,0,0,0,.15-.11l.18-.32a.32.32,0,0,0,0-.19A.22.22,0,0,0,18.25,16.32Z"/><path class="cls-4" d="M18.5,17.39a.26.26,0,0,0,.31-.17l.17-.55a.23.23,0,0,0-.17-.3.24.24,0,0,0-.3.17l-.18.55A.25.25,0,0,0,18.5,17.39Z"/><path class="cls-4" d="M19.36,17.38a.2.2,0,0,0-.09-.05.25.25,0,0,0-.3.17l-.09.32a.38.38,0,0,0,0,.1s0,.07,0,.09a.16.16,0,0,0,.07.07l.08.05a.25.25,0,0,0,.3-.17l.09-.33a.28.28,0,0,0,0-.09.17.17,0,0,0,0-.1Z"/><path class="cls-4" d="M18.63,19.69a.26.26,0,0,0,.14-.11.62.62,0,0,0,0-.62.26.26,0,0,0-.14-.11.17.17,0,0,0-.1,0l-.09,0a.27.27,0,0,0-.11.15.23.23,0,0,0,0,.18s0,0,0,.05v0a.09.09,0,0,1,0,0h0a.31.31,0,0,0,0,.19.26.26,0,0,0,.12.15A.24.24,0,0,0,18.63,19.69Z"/><path class="cls-4" d="M17.72,18.88a.24.24,0,0,0,.09-.08,1.76,1.76,0,0,1,.14-.23.3.3,0,0,0,0-.1.14.14,0,0,0,0-.09.36.36,0,0,0,0-.09l-.07-.06-.06,0a.15.15,0,0,0-.13,0l-.06,0a.2.2,0,0,0-.09.09c0,.08-.09.15-.14.23a.29.29,0,0,0,0,.09.17.17,0,0,0,0,.1.2.2,0,0,0,0,.08.13.13,0,0,0,.07.06l.06,0a.29.29,0,0,0,.13,0Z"/><path class="cls-4" d="M16.89,18.28A.34.34,0,0,0,17,18.2c0-.07.09-.13.13-.19a.16.16,0,0,0,0-.09.17.17,0,0,0,0-.1.2.2,0,0,0,0-.08.13.13,0,0,0-.07-.06l-.06,0h-.13l-.06,0a.24.24,0,0,0-.09.08l-.14.19a.32.32,0,0,0,0,.09.38.38,0,0,0,0,.1.2.2,0,0,0,0,.08.13.13,0,0,0,.07.06l.06,0a.29.29,0,0,0,.13,0Z"/><path class="cls-4" d="M16.55,17.2a.3.3,0,0,0,0-.1.35.35,0,0,0-.05-.08.28.28,0,0,0-.17-.07.33.33,0,0,0-.18.07l-.27.33a.14.14,0,0,0,0,.08.15.15,0,0,0,0,.18.11.11,0,0,0,0,.08.21.21,0,0,0,.17.08.27.27,0,0,0,.17-.08l.28-.32a.22.22,0,0,0,.05-.08A.29.29,0,0,0,16.55,17.2Z"/><path class="cls-4" d="M15.79,16.45a.9.9,0,0,1,.24-.12,1.06,1.06,0,0,1,.25-.09.28.28,0,0,0,.15-.11.25.25,0,0,0,0-.19.24.24,0,0,0-.3-.17,2.31,2.31,0,0,0-.61.25.24.24,0,0,0-.11.15.25.25,0,0,0,0,.19.27.27,0,0,0,.15.11A.25.25,0,0,0,15.79,16.45Z"/><path class="cls-4" d="M17,16.17a.92.92,0,0,0-.49.13.26.26,0,0,0-.12.15.14.14,0,0,0,0,.09.12.12,0,0,0,0,.09.24.24,0,0,0,.14.12.24.24,0,0,0,.19,0l.05,0a.27.27,0,0,1,.12,0H17a.26.26,0,0,0,.17-.07.22.22,0,0,0,.07-.17.24.24,0,0,0-.07-.18A.28.28,0,0,0,17,16.17Z"/><path class="cls-4" d="M14.41,17.68a.26.26,0,0,0,.19,0,1.5,1.5,0,0,0,.4-.42A.25.25,0,0,0,15,17,.2.2,0,0,0,15,17a.23.23,0,0,0-.07-.07.25.25,0,0,0-.19,0,.33.33,0,0,0-.15.11.43.43,0,0,1,0,.07.91.91,0,0,1-.17.17h0a.13.13,0,0,0-.07.06.12.12,0,0,0,0,.08.38.38,0,0,0,0,.1.16.16,0,0,0,0,.09A.29.29,0,0,0,14.41,17.68Z"/><path class="cls-4" d="M14.87,17.92c0,.13-.06.27-.1.41a.32.32,0,0,0,0,.19.24.24,0,0,0,.15.11.22.22,0,0,0,.18,0,.29.29,0,0,0,.12-.15l.09-.41a.24.24,0,0,0,0-.19.3.3,0,0,0-.15-.12.26.26,0,0,0-.19,0A.25.25,0,0,0,14.87,17.92Z"/><path class="cls-4" d="M16.09,18.43l-.09,0a.28.28,0,0,0-.18,0l-.05,0a.26.26,0,0,0-.07.11.94.94,0,0,0,0,.16.89.89,0,0,0,0,.23.15.15,0,0,0,0,.09.22.22,0,0,0,.05.08.14.14,0,0,0,.08.05.15.15,0,0,0,.09,0,.24.24,0,0,0,.18-.07.26.26,0,0,0,.07-.17.56.56,0,0,1,0-.13.65.65,0,0,1,0-.13.17.17,0,0,0,0-.1.16.16,0,0,0,0-.09S16.11,18.45,16.09,18.43Z"/><path class="cls-4" d="M17.17,18.91l-.08-.05-.09,0h-.07a.24.24,0,0,0-.11.06l0,.05a.2.2,0,0,0,0,.13v0a.3.3,0,0,0,0,.1.35.35,0,0,0,.05.08l.08.05.1,0h.06a.24.24,0,0,0,.11-.06l0,0a.28.28,0,0,0,0-.13v0a.16.16,0,0,0,0-.1A.35.35,0,0,0,17.17,18.91Z"/><path class="cls-4" d="M14.64,19a.24.24,0,0,0-.15-.11.26.26,0,0,0-.19,0,.22.22,0,0,0-.11.14c0,.19-.09.37-.13.56a.25.25,0,0,0,0,.19.28.28,0,0,0,.15.11.26.26,0,0,0,.19,0,.22.22,0,0,0,.11-.14l.13-.56A.25.25,0,0,0,14.64,19Z"/><path class="cls-4" d="M13.86,18.86a.14.14,0,0,0,.08.05H14a.19.19,0,0,0,.12,0l0,0a.24.24,0,0,0,.06-.11l0-.14a.17.17,0,0,0,0-.1.16.16,0,0,0,0-.09.13.13,0,0,0-.06-.07.2.2,0,0,0-.08,0h-.07a.27.27,0,0,0-.12,0l0,0a.24.24,0,0,0-.06.11l-.05.14a.17.17,0,0,0,0,.1.29.29,0,0,0,0,.09S13.83,18.85,13.86,18.86Z"/><path class="cls-4" d="M14.18,20.66l-.08-.05-.09,0h-.07a.24.24,0,0,0-.11.06l0,.05a.28.28,0,0,0,0,.13V21a.3.3,0,0,0,0,.1.35.35,0,0,0,.05.08l.08.05.1,0h.06a.24.24,0,0,0,.11-.06l0,0a.28.28,0,0,0,0-.13v-.13a.16.16,0,0,0,0-.1A.22.22,0,0,0,14.18,20.66Z"/><path class="cls-7" d="M24.84,8.78a6.36,6.36,0,0,0-.69-.46c-.2-.11-.27-.35-.42-.51a.87.87,0,0,0-.47-.43c.09-.45-.09-1.13-.67-.78-.2-.43-.71-1.23-1.25-.82a.66.66,0,0,0-.12.41,1.44,1.44,0,0,0,.16.79c.15.29.38.63.22.95l0,.08-.06.14a.69.69,0,0,1-.05.13.25.25,0,0,1,0,.07l0,.05-.05.11-.06.11-.07.13-.08.12h0a.25.25,0,0,0,0,.07L21,9.07l-.12.23h0l0,.08,0,0h0l0,0,0,0h0l0,0h0v0h0l0,0-.06.15,0,0a13.29,13.29,0,0,0-.59,1.34c-.2.42-.51.83-.71,1.27a14.71,14.71,0,0,1-.93,1.64,8,8,0,0,1-.82.52,1.61,1.61,0,0,1-.71.2,4.79,4.79,0,0,0-2.68.77l-.1.08h0c-.19.09-.28.32-.44.46a4.29,4.29,0,0,0-1.29,2.43,12.64,12.64,0,0,0-.05,2h0a4.61,4.61,0,0,0-.16.64.27.27,0,0,0,0,.12h0c0,.18-.07.36-.1.53a10.72,10.72,0,0,0-.39,1.08,5.78,5.78,0,0,0-.13.93.51.51,0,0,0,0,.3.25.25,0,0,0,.33.11A.24.24,0,0,0,12,24h0a.18.18,0,0,0,.11,0c.23,0,.28-.23.28-.41s0-.08,0-.12h0A7.54,7.54,0,0,0,13,26.89c.15.2.4.16.62.14l.33,0H14a.27.27,0,0,0,.23-.41.91.91,0,0,1-.24-.4,2.48,2.48,0,0,1-.2-.72,4.37,4.37,0,0,1-.16-1v0a7,7,0,0,1,.58,1.38A10.89,10.89,0,0,1,14.41,27c0,.44.29.63.69.61h.34a.42.42,0,0,0,.31-.11c.21-.25,0-.56-.08-.82-.26-.76-.44-1.55-.69-2.32-.64-1.46-.73-1.32-.11-2.85a5.36,5.36,0,0,0,.29-.94c.19-.11.13-.45.16-.65a3.11,3.11,0,0,0,1.41.24,3.32,3.32,0,0,0,.63,0,.77.77,0,0,1,0,.15,8.17,8.17,0,0,1,.08,1.71c0,.77-.13,1.53-.23,2.29-.06.44-.29,2.12.09,2.35a1.28,1.28,0,0,0,.7,0h.08a2.7,2.7,0,0,0,0,.28.47.47,0,0,0,.4.52,1.83,1.83,0,0,0,.47,0c.79.15.39-.57.35-1a8.92,8.92,0,0,1-.11-2.42,29,29,0,0,0,.51-3.34c0-.58.1-1.15.17-1.73a.74.74,0,0,0,.09-.33c0-.25.07-.57.09-.84A18.45,18.45,0,0,1,20.52,16c.34-.95.85-1.83,1.2-2.77a13.24,13.24,0,0,0,.59-2.71c0-.19.05-.37.05-.56a10,10,0,0,1,1.45.08h0a2.06,2.06,0,0,0,1.1-.06C25.4,9.77,25.18,9.08,24.84,8.78Zm-12,12.87a1.28,1.28,0,0,0,0-.19.17.17,0,0,0,0-.12.37.37,0,0,0,0-.11.67.67,0,0,1,0,.19A.59.59,0,0,1,12.81,21.65Zm.44,3.9a3.78,3.78,0,0,0,.28,1l-.13,0h-.06c-.51-1.22-.3-2.56-.45-3.85a.48.48,0,0,0,.08-.18c.12-.38.4-.71.39-1.12a5,5,0,0,0-.44-1.22.3.3,0,0,0-.07-.11,9.7,9.7,0,0,1,0-1.32,3.69,3.69,0,0,1,.37-1.24,7.52,7.52,0,0,0-.16,1.24,15.59,15.59,0,0,0,.3,2.16,8.3,8.3,0,0,1-.23,2.27,3,3,0,0,0,.11.54,1.53,1.53,0,0,1,0,.33A2.41,2.41,0,0,0,13.25,25.55Zm4.4.71a10.18,10.18,0,0,1,.16-2.52,13.13,13.13,0,0,0,0-3.65L18,20c0,.18.1.36.13.55a8.79,8.79,0,0,1,.12,1.15A27.36,27.36,0,0,0,18,26.07c0,.05,0,.1,0,.15A2.58,2.58,0,0,1,17.65,26.26ZM24.51,9.52l-1.86,0a.89.89,0,0,0-.58.13.93.93,0,0,0-.25.68c-.2,2.19-1.2,4.21-1.84,6.31A39.21,39.21,0,0,0,18.75,27c-.71-2.18.3-4.59-.21-6.81a.63.63,0,0,0-.19-.4.71.71,0,0,0-.43-.1l-2.2-.07a1.11,1.11,0,0,0-.51.06,1,1,0,0,0-.45.5,5.37,5.37,0,0,0-.5,3.73,18.7,18.7,0,0,1,.9,3.29c0-.87-.81-2.08-1-3a18.06,18.06,0,0,1-.49-3.27c-.09-1.53-.29-4.11,1.17-5.12.86-.59,2-.39,3-.78a4,4,0,0,0,1.94-2c.42-.86.69-1.8,1.12-2.66a20.07,20.07,0,0,0,1-1.9,2.45,2.45,0,0,0-.07-2.07c.92,1.1,1.9,2.15,2.92,3.16Z"/><polygon points="20.8 9.49 20.8 9.49 20.8 9.49 20.8 9.49"/><path class="cls-7" d="M23.06,8.15a.25.25,0,0,0-.23.26.3.3,0,0,0,.08.17.27.27,0,0,0,.19.06.25.25,0,0,0,.23-.26.3.3,0,0,0-.08-.17A.27.27,0,0,0,23.06,8.15Z"/><path class="cls-2" d="M33.54,8.74c.76.48,3.53,2.59,3.86,4.35S38,18,39,18.79a28.62,28.62,0,0,0,2.62,1.8s-.09,3.95.39,4.22a3,3,0,0,0,1.6,0l-.87,1.51s2.49.56,2.58-.15a38.61,38.61,0,0,0-.88-4.92l-.07-1.12A10.34,10.34,0,0,1,46,22.67a13.88,13.88,0,0,1,1.14,3.6s1.46,2.22,2.45,1.13a3.52,3.52,0,0,0,.79-2.59l-4.13-8s3.67-1.09,4.13-2.07A17.57,17.57,0,0,1,51.31,13S49.94,9.15,47.13,8.3,36.4,5.38,36.4,5.38Z"/><path class="cls-8" d="M47.11,15.61s1.48-1.45,2-2.08a20.9,20.9,0,0,0,2-3,2.14,2.14,0,0,0,.14-.53l-.71.53a2.07,2.07,0,0,0-.32-1.66,9.77,9.77,0,0,0-3.41-1.65,8.47,8.47,0,0,0-2.11-.16,29.79,29.79,0,0,1-3.24-1.73,5.61,5.61,0,0,0-3.76-1.12c-1.45.2-2.55,1.5-2.83,1.58S34.46,7,34.46,7s3.95,2.62,4.38,2.88S42.4,12.47,43.49,13A34.62,34.62,0,0,1,47.11,15.61Z"/><path class="cls-7" d="M36.4,5.38c-.61-.18-.67,2.18-.42,2.49a.25.25,0,0,0,.47-.19,2.1,2.1,0,0,1-.1-1,3.33,3.33,0,0,1,.18-.94A.26.26,0,0,0,36.4,5.38Z"/><path class="cls-7" d="M46.82,9.63c0-.12,0-.24.06-.36s0-.35.22-.43c.29.29.18.74.36,1.08a.25.25,0,0,0,.45-.21c-.11-.27-.08-.57-.19-.83a1.66,1.66,0,0,0-.26-.39.37.37,0,0,0-.33-.19.94.94,0,0,0-.67.58,2.41,2.41,0,0,0-.12.84c-.23,0-.4.3-.57.45a3.53,3.53,0,0,0-.9,2A2.67,2.67,0,0,0,45,13.38a.25.25,0,0,0,.46-.18,2.86,2.86,0,0,1,1-3,.18.18,0,0,0,.12-.12C46.84,10.08,46.93,9.83,46.82,9.63Z"/><path class="cls-7" d="M51.61,9.8c-.17-.16-.47-.05-.68.07A3.28,3.28,0,0,0,49.56,8a5.85,5.85,0,0,0-2.21-.85,18.33,18.33,0,0,1-3.14-.6A31,31,0,0,1,41,4.68a5.6,5.6,0,0,0-3.76-.57,4.4,4.4,0,0,0-1.94,1,4,4,0,0,0-.72.82c-.12.18-.47,1,.11.64A.88.88,0,0,0,35,6.2a3.79,3.79,0,0,1,2.37-1.61,4.91,4.91,0,0,1,2.88.29c1.2.49,2.2,1.36,3.35,2,.28.15.6.31.7.61.17.49-.33.93-.49,1.42-.23.76.36,1.69-.09,2.34-.11.16-.27.28-.37.45a.41.41,0,0,0,0,.52.51.51,0,0,0,.21.06.62.62,0,0,0,.6-.18c.13-.18,0-.51-.22-.46a.91.91,0,0,0,.44-.78,7.3,7.3,0,0,0-.1-.94,2.91,2.91,0,0,1,.25-1.43c.16-.34.39-.71.24-1a7.46,7.46,0,0,1,4.6,1.14,2.41,2.41,0,0,1,.73.65,1.06,1.06,0,0,1,.17.94c-.08.23-.25.51-.08.68s.51-.08.65-.31a14.06,14.06,0,0,1-4,4.78c-.07.05-.15.12-.14.21s.21.16.35.12a2.66,2.66,0,0,0,1.12-.77,19.59,19.59,0,0,0,3.34-4.44c.09-.18.19-.41.06-.57Zm-7.74,1.94h0l.1-.09A.26.26,0,0,0,43.87,11.74Z"/><path class="cls-3" d="M31.64,3.3a2.92,2.92,0,0,1,0,1c-.12.25.15.2-.19.48s-.55.66-.88.85-1.07.3-1.1.69.09.72.37.79.29.25.74.36.79.89,1.72.89h.93s3.33,1.77,4.27,3.06a7.47,7.47,0,0,1,1.36,2.65c.09.46.57,2.85,1.57,3.71S42.87,20,42.87,20a2.62,2.62,0,0,1-.1,1.63,3.24,3.24,0,0,0-.09,1.82,1.47,1.47,0,0,0,.58,1.13.63.63,0,0,0,.64-.14s-.47,1.14-.14,1.42-.1,1.21.67.95.55-.17.69-.57a5.54,5.54,0,0,0,0-2.64c-.28-1.18-.67-2.43-.67-2.43l-.23-1.65a25.23,25.23,0,0,1,2.36,1.75,23.76,23.76,0,0,1,1.91,2.33c.3.45.88,2,1.15,2.13s.92.63,1.42.37.4-.74.29-1.45-1.54-5.45-2.65-6.85-3.47-4.4-5.64-5.3a25.4,25.4,0,0,1-4.78-3c-.81-.53-4.7-3.74-4.7-3.74a6.14,6.14,0,0,1-.94-.93c-.42-.53-.29-.95-.51-1.39S31.64,3.3,31.64,3.3Z"/><path class="cls-4" d="M32.31,4.43l-.21-.89a.25.25,0,0,0-.3-.18.26.26,0,0,0-.17.31l.21.89a.24.24,0,0,0,.3.17A.24.24,0,0,0,32.31,4.43Z"/><path class="cls-4" d="M30.45,6.22a.24.24,0,0,0-.14-.12h-.18l-.18,0a.58.58,0,0,0-.17.06.71.71,0,0,0-.14.1.33.33,0,0,0-.09.43.41.41,0,0,0,.34.18.57.57,0,0,0,.31-.1h0a.24.24,0,0,0,.22-.24s0,0,0-.06a.25.25,0,0,0,0-.07A.24.24,0,0,0,30.45,6.22Z"/><path class="cls-4" d="M35,7.67a.22.22,0,0,0-.17-.07v0l-.06-.09a1,1,0,0,0-.09-.22A.53.53,0,0,0,34.46,7a.25.25,0,0,0-.19,0,.24.24,0,0,0-.15.11.26.26,0,0,0,.09.34h0l0,.08a1.6,1.6,0,0,0,.13.3.81.81,0,0,0,.19.18.43.43,0,0,0,.25.07A.36.36,0,0,0,35,8a.26.26,0,0,0,.07-.18A.22.22,0,0,0,35,7.67Z"/><path class="cls-4" d="M35.83,8.92a.22.22,0,0,0-.15-.11l-.14,0a.57.57,0,0,1-.13-.08.38.38,0,0,1-.09-.09.29.29,0,0,0-.18-.07A.26.26,0,0,0,35,8.6a.24.24,0,0,0-.07.18A.23.23,0,0,0,35,9a.86.86,0,0,0,.26.21,1,1,0,0,0,.32.12h.1l.09,0a.3.3,0,0,0,.12-.15A.26.26,0,0,0,35.83,8.92Z"/><path class="cls-4" d="M37,9.09c-.12-.13-.23-.26-.35-.38a.22.22,0,0,0-.17-.07.26.26,0,0,0-.18.07.26.26,0,0,0-.07.17.33.33,0,0,0,.07.17c.12.13.23.26.35.38a.23.23,0,0,0,.17.08A.27.27,0,0,0,37,9.43a.24.24,0,0,0,.07-.17A.33.33,0,0,0,37,9.09Z"/><path class="cls-4" d="M37.6,10.07a.27.27,0,0,0-.15-.11L37,9.86a.32.32,0,0,0-.19,0,.24.24,0,0,0-.11.15.23.23,0,0,0,0,.18.24.24,0,0,0,.14.12l.42.09a.31.31,0,0,0,.19,0,.24.24,0,0,0,.11-.15A.31.31,0,0,0,37.6,10.07Z"/><path class="cls-4" d="M38.84,9.9l-.17-.24a.16.16,0,0,0-.07-.07l-.08-.05h-.1l-.09,0,0,0a.21.21,0,0,0-.06.1v.07a.24.24,0,0,0,0,.12l.17.24a.16.16,0,0,0,.07.07.14.14,0,0,0,.08,0h.1l.09,0,0,0a.21.21,0,0,0,.06-.1V10A.27.27,0,0,0,38.84,9.9Z"/><path class="cls-4" d="M39.25,11.28a1.55,1.55,0,0,0-.31-.36.18.18,0,0,0-.08-.05.16.16,0,0,0-.1,0,.15.15,0,0,0-.09,0,.14.14,0,0,0-.08.05.28.28,0,0,0-.07.17.26.26,0,0,0,.07.18,1,1,0,0,1,.21.21l0,0a.22.22,0,0,0,.06.07.26.26,0,0,0,.09.05h.09a.17.17,0,0,0,.1,0,.26.26,0,0,0,.11-.14A.24.24,0,0,0,39.25,11.28Z"/><path class="cls-4" d="M40.41,12.05a.31.31,0,0,0-.06-.13l-.08-.12-.11-.09a.16.16,0,0,0-.09,0,.18.18,0,0,0-.1,0,.12.12,0,0,0-.08,0,.13.13,0,0,0-.06.07.25.25,0,0,0,0,.19l0,.06a.23.23,0,0,0,.07.07h0l0,0s0,0,.05.05l0,0a.14.14,0,0,1,0,.07.2.2,0,0,0,0,.08.13.13,0,0,0,.07.06l.09,0h.1a.28.28,0,0,0,.15-.11l0-.06a.28.28,0,0,0,0-.13A.19.19,0,0,0,40.41,12.05Z"/><path class="cls-4" d="M39.28,12.66c-.05-.12-.11-.23-.17-.35a.12.12,0,0,0-.06-.06A.18.18,0,0,0,39,12.2h-.1a.12.12,0,0,0-.09,0,.24.24,0,0,0-.12.14v.07a.28.28,0,0,0,0,.12l.17.35.06.07L39,13h.09l.1,0a.33.33,0,0,0,.11-.15v-.07A.19.19,0,0,0,39.28,12.66Z"/><path class="cls-4" d="M42.21,13a.24.24,0,0,0-.06-.11l-.11-.1L42,12.63v0a.26.26,0,0,0-.11-.14.17.17,0,0,0-.1,0h-.09a.28.28,0,0,0-.15.11.21.21,0,0,0,0,.19.58.58,0,0,0,.12.25.91.91,0,0,0,.18.21l.08.05.09,0,.1,0,.08-.05a.29.29,0,0,0,.07-.18Z"/><path class="cls-4" d="M41.44,13.72l-.16-.45a.27.27,0,0,0-.11-.15.25.25,0,0,0-.19,0,.24.24,0,0,0-.15.11.25.25,0,0,0,0,.19l.16.45a.33.33,0,0,0,.11.15.25.25,0,0,0,.19,0,.24.24,0,0,0,.15-.11A.25.25,0,0,0,41.44,13.72Z"/><path class="cls-4" d="M43.46,13.59l-.27-.38a.23.23,0,0,0-.07-.07.12.12,0,0,0-.08,0,.25.25,0,0,0-.19,0,.27.27,0,0,0-.11.15.31.31,0,0,0,0,.19l.28.38a.13.13,0,0,0,.06.07.12.12,0,0,0,.08,0,.25.25,0,0,0,.19,0,.27.27,0,0,0,.11-.15A.21.21,0,0,0,43.46,13.59Z"/><path class="cls-4" d="M43.29,14.59a1.51,1.51,0,0,1-.15-.28l0-.07a.26.26,0,0,0-.12-.15.29.29,0,0,0-.18,0,.26.26,0,0,0-.15.12.24.24,0,0,0,0,.19,2.32,2.32,0,0,0,.24.47A.26.26,0,0,0,43,15a.25.25,0,0,0,.19,0,.27.27,0,0,0,.11-.15A.21.21,0,0,0,43.29,14.59Z"/><path class="cls-4" d="M42.59,15.2l-.11-.45a.25.25,0,0,0-.11-.14.25.25,0,0,0-.19,0,.24.24,0,0,0-.14.12.28.28,0,0,0,0,.18l.11.45a.24.24,0,0,0,.11.15.25.25,0,0,0,.19,0,.22.22,0,0,0,.14-.11A.25.25,0,0,0,42.59,15.2Z"/><path class="cls-4" d="M40.58,14.73v0h0a.09.09,0,0,0,0-.07.38.38,0,0,0,0-.1.12.12,0,0,0,0-.08.13.13,0,0,0-.07-.06l-.06,0h-.13l-.06,0-.09.08,0,.09v.05s0,.06,0,.09,0,.08,0,.12,0,0,0,.05a.2.2,0,0,0,0,.08.23.23,0,0,0,.07.07l.09,0h.1l.06,0a.26.26,0,0,0,.09-.09l0-.06a.29.29,0,0,0,0-.13v0h0A0,0,0,0,0,40.58,14.73Z"/><path class="cls-4" d="M44.53,15.32a.11.11,0,0,0-.06-.07l-.08-.05h-.1a.14.14,0,0,0-.09,0l-.05,0a.36.36,0,0,0-.07.1v.07a.24.24,0,0,0,0,.12l.18.24a.13.13,0,0,0,.06.07.12.12,0,0,0,.08,0h.1a.14.14,0,0,0,.09,0l.05,0a.41.41,0,0,0,.07-.11v-.06a.28.28,0,0,0,0-.13Z"/><path class="cls-4" d="M45.67,15.23a3.35,3.35,0,0,0-.57-.49.25.25,0,0,0-.19,0,.23.23,0,0,0-.14.11.22.22,0,0,0,0,.19.33.33,0,0,0,.11.15l.11.07a3.89,3.89,0,0,1,.36.34.26.26,0,0,0,.17.07.29.29,0,0,0,.18-.07.28.28,0,0,0,.07-.17A.29.29,0,0,0,45.67,15.23Z"/><path class="cls-4" d="M43.64,16.14l0-.06a.14.14,0,0,0-.06-.07.16.16,0,0,0-.09-.05.14.14,0,0,0-.09,0,.12.12,0,0,0-.09,0l-.05,0a.23.23,0,0,0-.07.1v.07a.28.28,0,0,0,0,.12l0,.07.06.07a.18.18,0,0,0,.09,0,.16.16,0,0,0,.1,0,.16.16,0,0,0,.09,0l.05,0a.24.24,0,0,0,.06-.11v-.06A.28.28,0,0,0,43.64,16.14Z"/><path class="cls-4" d="M43.52,17.65a.22.22,0,0,0-.11-.14.21.21,0,0,0-.19,0,.26.26,0,0,0-.14.11l0,.06a.28.28,0,0,0,0,.13c0,.23.07.46.11.69a.21.21,0,0,0,.11.15.25.25,0,0,0,.19,0,.22.22,0,0,0,.14-.11l0-.06a.28.28,0,0,0,0-.13C43.59,18.11,43.56,17.88,43.52,17.65Z"/><path class="cls-4" d="M45.31,17.39l-.06-.22a.35.35,0,0,0-.12-.15A.23.23,0,0,0,45,17a.24.24,0,0,0-.15.11.26.26,0,0,0,0,.19.9.9,0,0,1,.06.22c0,.05,0,.11,0,.16a.26.26,0,0,0,.07.18.24.24,0,0,0,.34,0,.3.3,0,0,0,.08-.18C45.33,17.59,45.32,17.49,45.31,17.39Z"/><path class="cls-4" d="M46.74,17.41a1.25,1.25,0,0,0-.28-.55.25.25,0,0,0-.17-.08.25.25,0,0,0-.18.08A.24.24,0,0,0,46,17v.06a.24.24,0,0,0,.06.11h0a.82.82,0,0,1,.12.2c0,.05,0,.1.05.15a.24.24,0,0,0,.11.15.25.25,0,0,0,.19,0,.26.26,0,0,0,.14-.11A.25.25,0,0,0,46.74,17.41Z"/><path class="cls-4" d="M47.91,17.79a2.42,2.42,0,0,0-.27-.64.29.29,0,0,0-.15-.12.31.31,0,0,0-.19,0,.25.25,0,0,0-.09.33c.06.09.1.19.15.28a2.41,2.41,0,0,1,.08.25.26.26,0,0,0,.11.14.22.22,0,0,0,.19,0A.24.24,0,0,0,47.91,17.79Z"/><path class="cls-4" d="M48.74,19.2a1.89,1.89,0,0,0-.21-.54.26.26,0,0,0-.14-.11.25.25,0,0,0-.19,0,.22.22,0,0,0-.11.14.25.25,0,0,0,0,.19.91.91,0,0,1,.07.14,1,1,0,0,1,.08.29.32.32,0,0,0,.12.14.25.25,0,0,0,.19,0,.24.24,0,0,0,.14-.12A.25.25,0,0,0,48.74,19.2Z"/><path class="cls-4" d="M49.61,21.08l-.31-.49a.25.25,0,0,0-.15-.11.23.23,0,0,0-.18,0,.29.29,0,0,0-.12.15.26.26,0,0,0,0,.19l.3.48a.29.29,0,0,0,.15.12.25.25,0,0,0,.19,0,.22.22,0,0,0,.11-.14A.24.24,0,0,0,49.61,21.08Z"/><path class="cls-7" d="M51.5,24.37c-.93-3.7-2.52-7.35-5.34-9.91-2.19-2-5-3.17-7.44-4.78a51.16,51.16,0,0,1-4.41-3.35,4.67,4.67,0,0,1-1.63-2,4,4,0,0,0-.33-1,.65.65,0,0,0-.89-.25c-.33.27-.1.81-.15,1.24C31.2,5.31,30,5.52,29.4,6.12s.05.88.51,1.27A5.14,5.14,0,0,0,31.7,8.47c.45.14.92.18,1.38.29a7,7,0,0,1,2.55,1.3A8.26,8.26,0,0,1,38,12.58c.66,1.17.89,2.53,1.43,3.76a8.17,8.17,0,0,0,2.63,3.3,1.42,1.42,0,0,1,.53.56,1.22,1.22,0,0,1,0,.6l-.18,2a2.69,2.69,0,0,0,.1,1.32.94.94,0,0,0,1.05.61,2.89,2.89,0,0,0,0,1.49,1,1,0,0,0,1.16.69c.56-.2.66-.94.64-1.53a18.6,18.6,0,0,0-1-5.33,8.92,8.92,0,0,1,4.22,4.18,5.13,5.13,0,0,0,1,1.75,1.29,1.29,0,0,0,1.82,0,1.78,1.78,0,0,0,.11-1.55ZM33.24,6.47a.54.54,0,0,0,0,.43,2.26,2.26,0,0,1,.15.41.73.73,0,0,1-.47.74,1.45,1.45,0,0,1-.85.06H32a1.68,1.68,0,0,1-1-.47c-.27-.31-.42-.81-.83-.86-.19,0-.67.07-.48-.27.09-.14.64-.25.8-.4s.38-.48.61-.68.64-.38.73-.71-.26-.82-.13-1.21c.3.16.37.54.46.86a3.79,3.79,0,0,0,1.4,2A.25.25,0,0,0,33.24,6.47Zm10.4,17.72-.14.06-.15-.05c-.34-.05-.54-.2-.46-.57C43.19,23.61,43.72,23.8,43.64,24.19Zm1,2.36h0c-.2-.06-.46-.17-.51-.39a.74.74,0,0,1,.59.14A.33.33,0,0,0,44.65,26.55Zm.15-.79-.8-.13a3.88,3.88,0,0,0,.14-1.31.32.32,0,0,0,.08-.25,3.1,3.1,0,0,0,.13-.4,7.17,7.17,0,0,0,.16-1.21A8,8,0,0,1,44.8,25.76Zm4.27-4.64A16.34,16.34,0,0,0,47,18a.28.28,0,0,0-.18-.14c-.2,0-.2.29-.11.46.48.95,1.2,1.74,1.75,2.64a3.85,3.85,0,0,1,.64,3,12.07,12.07,0,0,0-4.65-4.54,21.36,21.36,0,0,0,0-2.4c0-.19,0-.37,0-.56a.27.27,0,0,0-.24-.32.25.25,0,0,0-.26.24,24.84,24.84,0,0,1,0,3,.22.22,0,0,0,0,.18c0,.2,0,.4,0,.59,0,.5.12,1,.13,1.5a9.43,9.43,0,0,1-.17,1.91v0a1.06,1.06,0,0,0-.89-.47A13.36,13.36,0,0,0,43,19a5.48,5.48,0,0,0-2-3.47.35.35,0,0,0-.3-.1c-.27.08-.07.49.15.67a4.77,4.77,0,0,1,1.71,3.63c-.64-1.45-2.21-2.32-2.88-3.76a24.44,24.44,0,0,1-.7-2.54C38.2,11,35.82,9.56,33.61,8.3c.25-.47.48-1.1.1-1.48l9.2,6a20.78,20.78,0,0,1,4,3.08c2.21,2.35,3.2,5.55,4.13,8.64a2.89,2.89,0,0,0-1.47.28A5.64,5.64,0,0,0,49.07,21.12ZM51,25.84a2.75,2.75,0,0,1-.34.05,1.34,1.34,0,0,1-1-.35.5.5,0,0,0,0-.13c.34-.33,1.11-.57,1.49-.16A.41.41,0,0,1,51,25.84Z"/><path class="cls-7" d="M32.44,5.75l0,0a.21.21,0,0,0-.1-.06h-.09a.37.37,0,0,0-.15,0h0l0,0h0l-.07,0h0l-.05,0h0l-.05.06v.07a.14.14,0,0,0,0,.09.17.17,0,0,0,0,.1l.06.06a.2.2,0,0,0,.09,0h.19l.07,0a.09.09,0,0,0,0,0s0,0,0,0a.3.3,0,0,0,0-.08.1.1,0,0,0,.05,0,.41.41,0,0,0,0-.09V5.88A.28.28,0,0,0,32.44,5.75Z"/><polygon class="cls-7" points="32.23 6.12 32.23 6.12 32.23 6.12 32.23 6.12 32.23 6.12"/><path class="cls-7" d="M31.49,6.52a.16.16,0,0,0-.06-.08l0,0a.28.28,0,0,0-.13,0H31.2a.24.24,0,0,0-.11.06l-.17.15a.18.18,0,0,0-.05.08.12.12,0,0,0,0,.1.1.1,0,0,0,0,.09.14.14,0,0,0,.05.08l0,0,.12,0h.07a.21.21,0,0,0,.1-.06l.17-.15a.21.21,0,0,0,.06-.08.3.3,0,0,0,0-.1A.29.29,0,0,0,31.49,6.52Z"/><path class="cls-7" d="M33.38,27.2a.33.33,0,0,0,.24.05.24.24,0,0,0,.23,0l.21,0c.47-.07,1-.07,1.49-.14,1.3-.07,2.6-.09,3.9-.26,1.46-.05,2.92-.18,4.39-.21.38.08.51-.43.12-.5-1.23,0-2.46.14-3.7.18s-2.6.26-3.9.25c-.79,0-1.58.1-2.37.19h-.05c0-1.45-.12-2.91-.18-4.37-.21-4.53-.38-9.06-.22-13.59a.27.27,0,0,0-.31-.33c-.18.05-.19.24-.19.39-.23,6,.21,12,.4,18l-.08.05A.26.26,0,0,0,33.38,27.2Z"/><path class="cls-7" d="M50.66,11.4c.33,5,1.48,9.84,2.2,14.76a18.71,18.71,0,0,0-2.24.14,18.1,18.1,0,0,1-2.85-.08c-.82,0-1.65,0-2.46-.1a.26.26,0,0,0-.11.46,3.14,3.14,0,0,0,.87.07c1,0,2,.11,3.06.16a19.94,19.94,0,0,0,3.18-.16c.22,0,.65.08.86,0h0c.31-.07.17-.41.14-.63-.24-1.76-.56-3.51-.85-5.26-.45-2.56-1-5.1-1.17-7.69-.05-.46-.11-.88-.14-1.36,0-.24,0-.61-.22-.74S50.51,11.2,50.66,11.4Z"/><path d="M33.57,5.82h0Z"/><polygon points="13.5 31.54 13.51 31.54 13.5 31.54 13.5 31.54"/><path class="cls-7" d="M4.72,10.16a.68.68,0,0,0-.4.35,1.92,1.92,0,0,0-.18.45A41.58,41.58,0,0,0,2.8,16.78c-.27,1.77-.65,3.71,0,5.44.07.2.19.43.4.45a.56.56,0,0,0,.45-.31,6,6,0,0,0,.77-2.15,69.94,69.94,0,0,0,1.31-7.14,6,6,0,0,0,0-2C5.57,10.56,5.19,10,4.72,10.16ZM3.31,16.87a37.74,37.74,0,0,1,.91-4.45c0,.72-.14,1.43-.26,2.14a17.33,17.33,0,0,1-.47,2.57,10.45,10.45,0,0,1-.35,1.08l0,.07C3.17,17.81,3.23,17.34,3.31,16.87Zm2-4.62a45.41,45.41,0,0,1-2,9.8c-.92-1.66.41-3.76.79-5.44.12-.57.23-1.14.31-1.72s.12-.87.16-1.31.36-3,.11-3.07C5.28,10.78,5.33,11.6,5.27,12.25Z"/><polygon points="4.72 12.48 4.72 12.48 4.72 12.49 4.72 12.48"/><polygon points="0.01 31.5 0.01 31.5 0.01 31.5 0.01 31.5 0.01 31.5"/><polygon points="0.47 32.13 0.47 32.14 0.47 32.13 0.47 32.13"/><polygon points="0.25 31.85 0.26 31.86 0.25 31.85 0.25 31.85"/><path class="cls-7" d="M49.56,2.92c0-.45-.56-.26-.85-.28a37.44,37.44,0,0,1-5.08,0c-.82-.09-1.63,0-2.45,0-1.43,0-2.86,0-4.3.08-1.1.08-2.21,0-3.32,0a.24.24,0,0,0-.15,0h0l-.57,0a.27.27,0,0,0-.3.2.27.27,0,0,0,.12.28.24.24,0,0,0,.26,0l.33,0h0c0,.75,0,1.5,0,2.25,0,.19.11.39.32.36a.25.25,0,0,0,.21-.26,11.3,11.3,0,0,1-.08-1.16c0-.4,0-.8,0-1.2.74,0,1.47,0,2.21.08,1.06,0,2.09-.14,3.16-.15.81,0,1.61,0,2.42,0,1.82-.1,3.64.09,5.47.08.77,0,1.54-.1,2.31-.12h0a0,0,0,0,0,0,0c.07,1,.31,1.93.42,2.9.17,1.19.28,2.39.52,3.57a.25.25,0,0,0,.28.21.25.25,0,0,0,.21-.29c0-.31-.11-.61-.16-.92-.15-.77-.2-1.56-.31-2.35-.14-1-.32-2-.47-3A.24.24,0,0,0,49.56,2.92Z"/><path class="cls-7" d="M51.62,6.31c0-.34-.1-.67-.17-1-.23-1-.33-2-.61-3-.07-.18-.06-.41-.21-.54a.23.23,0,0,0-.18,0,.29.29,0,0,0-.19-.07,3.64,3.64,0,0,0-.66,0A5.59,5.59,0,0,1,49,1.8c-1.15-.05-2.3,0-3.45-.09-3.51,0-7-.15-10.53,0h0c-2-.06-3.94,0-5.92-.07l.06,0c-.4-.11-.44.5,0,.49,1.5,0,3,0,4.55,0,1,0,2,0,3,0,.84,0,1.7,0,2.54,0,2.71,0,5.42,0,8.13.16.59,0,1.18,0,1.78,0,.18,0,.34-.1.53-.12a1.64,1.64,0,0,1,.54,0,.25.25,0,0,0-.06.16.25.25,0,0,0,.24.25c.25.92.34,1.88.57,2.82.23,1.25.33,2.52.53,3.77,0,.42.06.82.07,1.24a.29.29,0,0,0,.08.29c0,.12,0,.24.05.35q1.26,8,2.51,16.07a13,13,0,0,0-2.49.18c-.69.08-1.39,0-2.09.06-1.54.14-3.09.12-4.63.17-1-.05-2,0-3,0s-2.12-.05-3.18,0c-2-.08-4.09,0-6.12.09l-.11,0L32.47,7.85A1.35,1.35,0,0,0,32.07,9q-.21,10.23.11,20.47l-.86,0a.52.52,0,0,0,.08-.41v-.78c0-1.18,0-2.36,0-3.54-.05-3,.19-6,.26-9,0-1.94.06-3.91.11-5.85,0-.55,0-1.11.05-1.65a.26.26,0,0,0-.46-.16,8.53,8.53,0,0,0-.09,1.68c0,1.07-.06,2.14-.09,3.21s0,1.85,0,2.78c0,1.24-.13,2.48-.13,3.73-.15,2.56-.15,5.12-.1,7.68,0,.67,0,1.33,0,2a.33.33,0,0,0,.09.32l-26.81.61L7,13a2.52,2.52,0,0,0-.77,1.7Q4.95,22.38,3.64,30l-1.75.18c.92-6-.25-12.24,1.42-18.06C4.19,9.07,5.84,6.21,6.22,3l.6-.21a.92.92,0,0,0-1.19-.26,2.6,2.6,0,0,0-.92,1A30,30,0,0,0,.28,15a36.48,36.48,0,0,0,0,6.61q.07,3.6-.2,7.2a4.94,4.94,0,0,0,.52,3.36c.9,1.21,2.65,1.28,4.16,1.24q21.65-.54,43.3.26a12.12,12.12,0,0,0,3.51-.2,4.09,4.09,0,0,0,2.74-2.05,3.15,3.15,0,0,0,.23-.65,8.62,8.62,0,0,0,.17-1.9c0-2.54.05-5.08.08-7.62C54.82,16.05,54.73,10.44,51.62,6.31ZM53,16.42c-.12-.76-.24-1.52-.34-2.28,0-.29-.09-.58-.14-.87.07.29.14.59.23.88A8.35,8.35,0,0,1,53,15.37,4.64,4.64,0,0,1,53,16.42Zm1.09,6c-1.24-3.95-.08-8.61-2-12.18,0-.1,0-.19,0-.26a14.66,14.66,0,0,0-.18-1.74c-.11-.62-.16-1.26-.24-1.89A30.09,30.09,0,0,1,54.11,22.47ZM8,33.27H8Zm45.55-1.49c-1.55,1.38-4,1.43-6.14,1.35q-20.94-.75-41.91-.25c-1,0-2.66.22-3.58-.32-1.41-.82,1.54-.72,2.06-.74,2.87-.11,5.73-.21,8.6-.29q8.58-.24,17.19-.33,12.12-.11,24.24.1A4.19,4.19,0,0,1,53.51,31.78Zm-.69-1q-26.16-.39-52.3.71.28-3.93.23-7.86c0-2.51-.48-5.08-.14-7.55a30.38,30.38,0,0,1,1.71-6.7A28.79,28.79,0,0,1,3.74,6.2c.27-.53.57-1.06.88-1.58.13-.22.93-1.18.88-1.4C5.85,4.78,5,6.29,4.26,7.72c-3.34,7-1.89,15.26-2.92,23Q27.8,30,54.28,29.9c0,.29,0,.59,0,.88ZM32.63,29.49V28.15C34,28.08,35.39,28,36.77,28c1.06,0,2.09.08,3.15,0,3.26,0,6.54.13,9.8-.12.62-.05,1.23,0,1.85,0a16,16,0,0,1,1.94-.2c.26,0,.52,0,.77,0l.24,1.52Q43.58,29.83,32.63,29.49Z"/><path class="cls-7" d="M29.87,3.28c.59,0,1.18,0,1.77,0a.25.25,0,0,0,.26-.24c0-.25-.25-.28-.44-.27H30.8c-.35,0-.72,0-1.07,0s-.36.32-.17.48A.24.24,0,0,0,29.87,3.28Z"/></g></g></svg>