<svg xmlns="http://www.w3.org/2000/svg" viewBox="0 0 77.1 35.81"><defs><style>.cls-1{fill:#fcd4ac;}.cls-2{fill:#e52823;}.cls-3{fill:#ff8500;}.cls-4{fill:#faed62;}.cls-5{fill:#00df66;}.cls-6{fill:#00a97c;}.cls-7{fill:#b1dde3;}.cls-8{fill:#3c58a4;}.cls-9{fill:#4e273f;}.cls-10{fill:#b27e4c;}.cls-11{fill:#ceba9e;}.cls-12{fill:#6b1e1e;}.cls-13{fill:#d09971;}</style></defs><g id="Layer_2" data-name="Layer 2"><g id="Card"><path class="cls-1" d="M3.22,17.62l3.85,1.77,8.59,1s6.42.41,7.32.51,2.46.5,2.46.5,5.95.45,6.74.57a13.5,13.5,0,0,0,2.18.25c.71,0,4.82.24,5,.29s.41.45,1.24.54,6.72.81,7.67.81,6.75.62,7.32.72,2,.23,2,.23l-2.35-4.53s-8-.56-8.75-.59-8.94-1.16-8.94-1.16L23,16.9,12.86,15.47,5.19,14.11a2.52,2.52,0,0,1,1.64-.87c1.23-.23,6.4-1.29,7-1.36L23.12,11,31.81,10l5.53-.53L44.77,9l5.38-.69L47.47,3.84s-5.2,1-6.14.92-8.11.76-8.11.76l-7.13.85-7,.79-6.83.64-6.79.94Z"/><path class="cls-2" d="M45.67.53A9,9,0,0,1,47.89.3c1.64,0,2.63,0,2.63,0s3.49,7,4.3,8,5.06,9,5.06,9l3.54,6.25v1.28s-4.72.64-5.09.62a1.19,1.19,0,0,1-.55-.12l-.4-1.07-3.89-7.17s-6.63-13.39-7-14.19S45.67.53,45.67.53Z"/><path class="cls-3" d="M55.57,23.15l.22,1,.08.61s-4.52-.1-5.16-.07-1,0-1,0S48.67,21.61,48.3,21s-4.87-11-5.36-11.7-3.14-7-3.24-7.23-.3-1-.3-1a28.3,28.3,0,0,1,2.85,0l2.43.22s3.25,6.82,3.5,7.24,3.75,7.59,4.19,8.2S55.57,23.15,55.57,23.15Z"/><path class="cls-4" d="M47.59,23.26H44.68c-.64,0-3.14-.23-3.14-.23l-1-2.39s-1.68-4.38-1.94-4.87-2.78-7.83-3-8.61-1.9-5.47-1.9-5.47,2.29.08,3.14,0a10.16,10.16,0,0,1,1.77,0s2.77,6.85,3,7.55,5.62,12.67,5.62,12.67Z"/><path class="cls-5" d="M33.87,22.77l3.47-.19,2.55-.19-.27-1.31s-1.88-5.14-2.26-5.89-2.72-6.85-2.72-6.85L32.24,2.4l-.3-.3-5.07.3A14.31,14.31,0,0,0,27.52,5c.35.75,2.84,8.44,3.36,9.41s1.81,5,2.15,5.82S33.87,22.77,33.87,22.77Z"/><path class="cls-6" d="M25.55,21.1l.19,1.08s2.17.06,3.53,0S31.73,22,31.73,22l-.16-1.16s-1.33-4-1.64-4.69-2.36-7-2.51-7.5-1.65-5.75-1.65-5.75l-5.2.06s.64,3,.81,3.45,1.86,7,2,7.47,1.74,6.08,1.92,6.36A2.63,2.63,0,0,1,25.55,21.1Z"/><path class="cls-7" d="M23.83,20.86s-.36-2.2-.36-2.2-1.87-6.73-2.08-7.43-1.84-7.5-1.84-7.5L16,3.6c-.54,0-1.91-.07-1.91-.07s.28,2.2.44,3,1.25,6.7,1.42,7.42.66,4.53.87,5.17.36,2,.38,1.93,2.12.24,2.72.18S23.83,20.86,23.83,20.86Z"/><path class="cls-8" d="M14.89,20.47,15,18.85s-.78-3.65-.89-4.25-1.2-6.36-1.27-7.13-.59-3.31-.59-3.31H6.81S6.94,5.64,7,6.3a48.94,48.94,0,0,0,.62,5.11c.27.8.82,4.67,1,5.62a16.14,16.14,0,0,1,.2,2,4.22,4.22,0,0,0,0,.64s.19.53.19.53l3.75.28C13.4,20.57,14.89,20.47,14.89,20.47Z"/><path class="cls-9" d="M7.07,19.39a19.39,19.39,0,0,0-.24-2.19C6.68,16.56,6,10.12,6,9.35S5.54,5,5.54,5,2.4,5,1.86,4.9a8.52,8.52,0,0,0-1.2,0S.39,10.32.32,11.36s0,5.49,0,6.13a10.43,10.43,0,0,0,.32,1.69l.35.33s2.8-.25,3.86-.22Z"/><polygon class="cls-10" points="44.04 3.19 44.03 3.19 43.92 3.2 44.03 3.19 44.03 3.19 44.03 3.19 44.04 3.19"/><polygon class="cls-10" points="36.49 3.84 36.49 3.85 36.49 3.85 36.49 3.84"/><polygon class="cls-10" points="36.49 3.84 36.49 3.85 36.59 3.85 36.54 3.84 36.49 3.84"/><polygon class="cls-10" points="77 0 77 0.01 77 0.01 77 0"/><polygon class="cls-10" points="77.01 0 77 0.01 77.1 0 77.05 0 77.01 0"/><path class="cls-11" d="M75.13,16.66l0,0h0Z"/><path class="cls-11" d="M68.28,13.52a0,0,0,0,0,0,0h0Z"/><polygon class="cls-10" points="77 0 77 0.01 77 0.01 77 0"/><polygon class="cls-10" points="77.01 0 77 0.01 77.1 0 77.05 0 77.01 0"/><path class="cls-1" d="M2.81,12.63c-.39.4-.25,2.35.6,2.31s1.39-.72,1.07-1.46S3.31,12.12,2.81,12.63Z"/><path class="cls-1" d="M10.5,13.91c-.05.51.06,1.74,1,1.55s1.44-1.89.44-2.1S10.53,13.63,10.5,13.91Z"/><path class="cls-1" d="M9.18,6.08c-.37.55.57,2,1.31,1.83s.68-1.71.23-2A1.25,1.25,0,0,0,9.18,6.08Z"/><path class="cls-1" d="M16.63,5.46c-.23.45.49,2,1.14,1.7s.51-1.77,0-1.89S16.87,5,16.63,5.46Z"/><path class="cls-1" d="M18.94,14.6c-.58.65-.13,2.28.84,2s1-1.74.35-2S19.22,14.29,18.94,14.6Z"/><path class="cls-1" d="M26.34,15.74c-.14.5,0,1.67,1,1.66s1.63-.82,1-1.56-.93-.86-1.46-.6S26.34,15.74,26.34,15.74Z"/><path class="cls-1" d="M23,5.26c.15.5.71,1.43,1.42,1.11s.95-1,.49-1.48-.71-.86-1.27-.65S23,5.26,23,5.26Z"/><path class="cls-1" d="M29.88,4.84c.08.61.52,1.2,1.18.93s.56-2.2,0-2.11S29.82,4.44,29.88,4.84Z"/><path class="cls-1" d="M36.37,3.57c-.09.6.24,1.56.82,1.53a1,1,0,0,0,.89-1.26c-.23-.55-1.21-1-1.46-.65Z"/><path class="cls-1" d="M42.76,3.2c0,.44.43,1.49,1.16,1.16a1.22,1.22,0,0,0,.42-1.77c-.37-.35-.64-.19-1.11-.07S42.76,3.2,42.76,3.2Z"/><path class="cls-1" d="M48.83,2.29a.88.88,0,0,0,1,1.11A.92.92,0,0,0,50.48,2a1,1,0,0,0-1.19-.32A.7.7,0,0,0,48.83,2.29Z"/><path class="cls-1" d="M57.94,19.31c-.12.44-.16,1.35.82,1.33s1.56-.84,1.19-1.49a1.29,1.29,0,0,0-1.6-.47A.84.84,0,0,0,57.94,19.31Z"/><path class="cls-1" d="M50,18.73s0,1.23.81,1.09,1.47-1.3,1.15-1.81a.86.86,0,0,0-1.29-.21A2.14,2.14,0,0,0,50,18.73Z"/><path class="cls-1" d="M42.09,18.29c.16.4.69,1.08,1.36.58s.56-1.88-.39-1.8S42.09,18.29,42.09,18.29Z"/><path class="cls-1" d="M34.29,17.15c.25.4.52,1.15,1.21.91s.82-2-.08-2S34.29,17.15,34.29,17.15Z"/><path class="cls-12" d="M1.42,7.32A2.17,2.17,0,0,0,2.63,9a1.19,1.19,0,0,0,1.06-.27A2,2,0,0,0,4,8,1.42,1.42,0,0,0,3.44,6.3,1.87,1.87,0,0,0,2,6.16,1.34,1.34,0,0,0,1.22,7,.28.28,0,0,0,1.42,7.32Zm.6-.5a.21.21,0,0,0,.07-.13A1.49,1.49,0,0,1,3,6.59a.92.92,0,0,1,.51,1.27c-.09.35-.22.64-.68.63S2,7.62,1.93,7.21A.6.6,0,0,1,2,6.82Z"/><path class="cls-12" d="M2.43,12.74c-.29.67-.23,1.95.69,2.32s2-.79,1.69-1.62a1.65,1.65,0,0,0-1.57-1.29C2.92,12.19,2.41,12.4,2.43,12.74Zm1.89,1a1,1,0,0,1-.86,1c-.84-.1-.86-2-.1-2A1.1,1.1,0,0,1,4.32,13.7Z"/><path class="cls-12" d="M10.33,8.16c1.21.07,1.38-1.54.75-2.31a2.94,2.94,0,0,0-.67-.43,1.13,1.13,0,0,0-1.25.33A.22.22,0,0,0,9,5.89a1.83,1.83,0,0,0,.23,1.46A1.38,1.38,0,0,0,10.33,8.16ZM9.45,6.27c.19-.24.37-.49.76-.42a3,3,0,0,1,.43.25l.08.08c.26.46.3,1.42-.36,1.5a.81.81,0,0,1-.7-.56A1.54,1.54,0,0,1,9.45,6.27Z"/><path class="cls-12" d="M10.75,13.14a.25.25,0,0,0-.29.1,1.42,1.42,0,0,0-.06,1.58,1.53,1.53,0,0,0,.87.77,1.24,1.24,0,0,0,1.49-1.44,1.46,1.46,0,0,0-.91-1.08A1.39,1.39,0,0,0,10.75,13.14Zm1.48,1a.69.69,0,0,1-.1.56.7.7,0,0,1-.79.4,1.22,1.22,0,0,1-.62-1A.25.25,0,0,0,10.8,14a0,0,0,0,1,0,0c.09-.17.19-.41.38-.5A.84.84,0,0,1,12.23,14.16Z"/><path class="cls-12" d="M16.71,7.08a2.19,2.19,0,0,0,.73.33h0c.91.11,1.23-1,1-1.63a1.75,1.75,0,0,0-.28-.52,1.18,1.18,0,0,0-1-.37c-.94,0-1.19,1-.82,1.7A1.32,1.32,0,0,0,16.71,7.08Zm0-1.19s0,0,0-.06l0,0a1.19,1.19,0,0,1,.08-.16l0,0v0L17,5.46l.09,0h.26l.12,0a.69.69,0,0,1,.36.18,1.11,1.11,0,0,1,.21.64v0h0a.48.48,0,0,1,0,.17.5.5,0,0,1,0,.12.51.51,0,0,1-.1.24.86.86,0,0,1-.13.14l0,0-.06,0-.06,0h-.32l-.06,0-.05,0-.06,0,0,0,0,0A.3.3,0,0,1,17,6.7a.41.41,0,0,0-.05-.09h0a.3.3,0,0,1,0-.08l0-.06h0l0-.09a.36.36,0,0,1,0-.1l0-.12s0-.09,0-.14a.21.21,0,0,1,0-.08Z"/><path class="cls-12" d="M18.26,15.44a1.68,1.68,0,0,0,1,1.33A1.28,1.28,0,0,0,20.7,15a1.45,1.45,0,0,0-1.91-.7.25.25,0,0,0-.28.1A1.7,1.7,0,0,0,18.26,15.44Zm1.15-.84a.88.88,0,0,1,.12,1.74,1.13,1.13,0,0,1-.76-1.05C18.79,15,19.05,14.57,19.41,14.6Z"/><polygon class="cls-12" points="23.06 4.46 23.06 4.46 23.06 4.45 23.06 4.46"/><polygon class="cls-12" points="22.97 4.59 22.97 4.59 22.97 4.59 22.97 4.59"/><polygon class="cls-12" points="23.53 4.06 23.53 4.06 23.54 4.06 23.53 4.06"/><polygon class="cls-12" points="23.44 4.1 23.44 4.1 23.44 4.1 23.44 4.1 23.44 4.1"/><path class="cls-12" d="M23.82,6.6a1.15,1.15,0,0,0,.29.08c.83.11,1.3-1,1-1.64A2.06,2.06,0,0,0,24,4h-.26l-.1,0-.1,0h0l-.09,0h0l-.08.05-.06,0h0l-.08.06-.05,0h0l0,0h0l-.06.08h0l0,.06,0,.05h0l0,.06h0l0,0h0l-.05.1,0,.05C22.58,5.49,23.18,6.18,23.82,6.6ZM23.3,5.4s0-.05,0-.08a.13.13,0,0,1,0-.06.14.14,0,0,1,0-.06.28.28,0,0,1,0-.09.34.34,0,0,1,0-.1.19.19,0,0,1,0-.08h0l0-.12a.54.54,0,0,1,0-.11l.08-.11a.43.43,0,0,1,.12-.11h0a.12.12,0,0,1,.08,0h.1a1.19,1.19,0,0,1,1,1c0,.33-.18.82-.62.8a2.83,2.83,0,0,1-.62-.58l0,0a.41.41,0,0,1-.07-.11A.36.36,0,0,1,23.3,5.4Z"/><path class="cls-12" d="M23.27,5.26Z"/><polygon class="cls-12" points="23.44 4.1 23.44 4.1 23.44 4.1 23.44 4.1"/><path class="cls-12" d="M26.47,17.21a1.2,1.2,0,0,0,.71.45,1.34,1.34,0,0,0,1.44-1.78,1.82,1.82,0,0,0-1.33-1,1.74,1.74,0,0,0-.78.28c-.21,0-.3.2-.37.34a2,2,0,0,0-.07,1.08A1.06,1.06,0,0,0,26.47,17.21Zm.82-1.83a1.37,1.37,0,0,1,.66.35.89.89,0,0,1,.23.68c-.15.34-.37.8-.85.79-.3,0-.42-.24-.62-.43s-.12-.34-.13-.51C26.5,15.75,26.8,15.52,27.29,15.38Z"/><path class="cls-12" d="M30.74,6l.17,0a.86.86,0,0,0,.8-.49,1.53,1.53,0,0,0-.34-1.86A1.18,1.18,0,0,0,31,3.42h-.21a.5.5,0,0,0-.13,0l-.13,0h0l-.16.08h0l-.18.13-.09.07-.11.1h0c-.05.06-.11.12-.15.18a.39.39,0,0,0-.08.1l-.07.09a1.4,1.4,0,0,0,.36,1.4A1.77,1.77,0,0,0,30.74,6Zm.05-2.13a1,1,0,0,1,.14,1.69,2.15,2.15,0,0,1-.48-.18.75.75,0,0,1-.2-.3A.89.89,0,0,1,30.79,3.83Z"/><polygon class="cls-12" points="30.38 3.57 30.38 3.57 30.39 3.57 30.38 3.57"/><path class="cls-12" d="M35.09,18.34c.7.17,1.14-.49,1.32-1A1.41,1.41,0,0,0,35,15.78a1.17,1.17,0,0,0-1,.65,1.62,1.62,0,0,0,0,.66A1.71,1.71,0,0,0,35.09,18.34Zm.11-2.08a.93.93,0,0,1,.71.87,1.09,1.09,0,0,1-.66.76c-.41,0-.57-.42-.73-.71A.67.67,0,0,1,35.2,16.26Z"/><path class="cls-12" d="M36.9,5.2a1,1,0,0,0,1.4-1,2.42,2.42,0,0,0-.1-.7A1.51,1.51,0,0,0,37.66,3c-.37-.09-.83-.24-1.11,0-.55.25-.53,1-.36,1.51A1.23,1.23,0,0,0,36.9,5.2Zm-.26-1.49c.31-.39.21-.47.84-.32a.73.73,0,0,1,.26.63.56.56,0,0,1-.61.74C36.63,4.66,36.58,4.06,36.64,3.71Z"/><polygon class="cls-12" points="42.63 2.91 42.63 2.91 42.63 2.91 42.63 2.91"/><path class="cls-12" d="M43.61,4.62a1.11,1.11,0,0,0,1-.59,2,2,0,0,0,0-1.38,1.16,1.16,0,0,0-1.56-.41h0a1.66,1.66,0,0,1-.13.14h0l-.08.11-.09.14s-.05.08-.07.13a1,1,0,0,0-.07.15h0a1.72,1.72,0,0,0-.07.21.31.31,0,0,0,0,.13.44.44,0,0,0,0,.1.49.49,0,0,0,0,.12,1.43,1.43,0,0,0,.53.75A1.11,1.11,0,0,0,43.61,4.62Zm-.25-1.94a.72.72,0,0,1,.45-.08.54.54,0,0,1,.29.11,2,2,0,0,1,.11,1,.69.69,0,0,1-.57.48C43.34,4,43,3.65,43,3.31,43.12,3.11,43.17,2.84,43.36,2.68Z"/><polygon class="cls-12" points="42.62 2.93 42.62 2.93 42.62 2.93 42.62 2.93"/><path class="cls-12" d="M48.69,2.72l0,.17c.05.14.12.28.18.42a1,1,0,0,0,.6.37A1.35,1.35,0,0,0,50.85,3a1.5,1.5,0,0,0,0-1,1.37,1.37,0,0,0-1.45-.62l-.11.07-.12.09-.12.1L49,1.7h0a.71.71,0,0,0-.1.14L48.74,2h0a.36.36,0,0,0,0,.09.36.36,0,0,0,0,.09v0c0,.07,0,.15,0,.22Zm.43-.62a.89.89,0,0,1,.72-.25.56.56,0,0,1,.21.06.7.7,0,0,1,.27.92,1,1,0,0,1-.81.37A.81.81,0,0,1,49.12,2.1Z"/><polygon class="cls-12" points="48.96 1.69 48.96 1.69 48.96 1.69 48.96 1.69"/><polygon class="cls-12" points="42.54 16.9 42.54 16.9 42.54 16.9 42.54 16.9"/><polygon class="cls-12" points="42.11 17.15 42.11 17.15 42.12 17.14 42.11 17.15"/><path class="cls-12" d="M42.41,19.07a1.11,1.11,0,0,0,.41.14,1.33,1.33,0,0,0,1.29-.85,1.18,1.18,0,0,0-1.42-1.52h0l-.1,0h0l-.1,0h0l-.18.11-.15.1,0,0,0,0-.08.08-.09.09a.27.27,0,0,1-.07.08c0,.12,0,.26-.05.39A1.23,1.23,0,0,0,42.41,19.07Zm-.1-1.38a1,1,0,0,1,.84-.41h0c.33,0,.44.38.46.63a.86.86,0,0,1-.78.81.91.91,0,0,1-.54-.4A1.07,1.07,0,0,1,42.31,17.69Z"/><polygon class="cls-12" points="42.44 16.94 42.44 16.94 42.44 16.94 42.44 16.94"/><polygon class="cls-12" points="42.44 16.95 42.44 16.95 42.44 16.95 42.44 16.95 42.44 16.95"/><path class="cls-12" d="M50.61,20l.13,0a1.4,1.4,0,0,0,1.35-.79,1.42,1.42,0,0,0-.19-1.54,1.18,1.18,0,0,0-1.58-.15l0,0s0,0,0,0h0s0,0,0,0h0s0,0,0,0h0a.18.18,0,0,0,0,.07l-.08.1L50,18l-.07.12h0a.75.75,0,0,1-.07.12A1.46,1.46,0,0,0,50.61,20Zm.49-2.22h0a.75.75,0,0,1,.59.7,1,1,0,0,1-.92,1c-.3,0-.37-.33-.45-.53A1,1,0,0,1,51.1,17.8Z"/><path class="cls-12" d="M58.61,20.92h0A1.4,1.4,0,0,0,60.16,19a1.61,1.61,0,0,0-1.58-.72,1.15,1.15,0,0,0-.61.28l0,.07-.08.15-.05.09h0a.11.11,0,0,1,0,.06l0,.1a1.21,1.21,0,0,0-.05.18c0,.05,0,.11,0,.16a2.61,2.61,0,0,1-.06.27h0s0,.08,0,.11v.06A1.29,1.29,0,0,0,58.61,20.92Zm-.4-1.76a.76.76,0,0,1,.53-.38,1.14,1.14,0,0,1,.27,0c1.2.15.8,1.68-.31,1.65C58.07,20.35,58,19.56,58.21,19.16Z"/><polygon class="cls-12" points="25.12 20.65 25.12 20.64 25.11 20.63 25.12 20.65"/><path class="cls-12" d="M33.54,22.58v0h0Z"/><polygon class="cls-12" points="47.8 23.34 47.8 23.34 47.8 23.34 47.8 23.34 47.81 23.34 47.8 23.34 47.81 23.34 47.8 23.34"/><path class="cls-12" d="M47.81,23.34Z"/><polygon class="cls-12" points="47.79 23.35 47.79 23.35 47.79 23.35 47.79 23.35"/><polygon class="cls-12" points="48.14 20.32 48.14 20.32 48.14 20.32 48.14 20.32"/><polygon class="cls-12" points="57.94 24.98 57.94 24.98 57.94 24.99 57.94 24.98"/><path class="cls-12" d="M63.84,24.31a1.2,1.2,0,0,0,0-.38.48.48,0,0,0-.07-.18.25.25,0,0,0-.08-.14.29.29,0,0,0-.08-.14v0c-.33-.59-.72-1.16-1-1.75-.92-1.62-2-3.2-2.77-4.86-.38-.7-.78-1.38-1.17-2.07-.19-.49-.45-1-.68-1.44a.29.29,0,0,0-.08-.2c-.57-.92-1.16-1.83-1.7-2.77-.84-1.59-1.86-3.11-2.74-4.69-.58-1.07-1.15-2.16-1.69-3.25-.33-.62-.56-1.27-.93-1.88a.3.3,0,0,0-.32-.23.23.23,0,0,0-.07-.1A.76.76,0,0,0,50,.12C49,.05,47.9,0,46.84,0c-.6,0-2.09-.23-1.64.72h0a1.36,1.36,0,0,0,.18.43c.44.9.85,1.82,1.27,2.73l-.27,0h-.2c-.38-.85-.76-1.7-1.21-2.53a.68.68,0,0,0-.22-.26s0,0,0,0,0,0-.08-.06h0a.15.15,0,0,0-.07,0c-.22,0-.44-.08-.67-.08C42.92.88,42,.84,41,.79c-.55,0-1.21-.14-1.68.13a.45.45,0,0,0-.1.51s0,0,0,0a.76.76,0,0,0,.17.44c.15.34.29.68.47,1,.26.52.48,1,.69,1.57l-.39,0c-.33-.88-.66-1.76-1-2.63a.3.3,0,0,0-.16-.24.28.28,0,0,0-.12-.19,1.5,1.5,0,0,0-.51-.07,25.68,25.68,0,0,1-4.47,0,.23.23,0,0,0-.32.22.32.32,0,0,0,0,.34c.42,1.06.82,2.13,1.2,3.2-.26,0-.54.11-.7.11a1.62,1.62,0,0,1-.31,0c-.36-.94-.79-1.87-1.08-2.83a.28.28,0,0,0-.31-.23.24.24,0,0,0-.1-.22.39.39,0,0,0-.3-.06c-.6,0-1.21,0-1.8,0-.8,0-1.61,0-2.4.08l-.84,0a.22.22,0,0,0-.2.36s0,0,0,.05a2.86,2.86,0,0,0,.23,1c.16.66.4,1.31.62,2l.13.46L27,6c-.12-.43-.25-.86-.36-1.3s-.3-1-.4-1.48a.24.24,0,0,0-.07-.2.19.19,0,0,0,0-.18.36.36,0,0,0-.33-.17l-.89,0c-1,0-1.92-.08-2.87,0-.46,0-.92,0-1.38,0a.19.19,0,0,0-.18.15c-.15.08-.14.31-.08.48.37,1.15.61,2.32.88,3.48-.17,0-.35.09-.49.1h-.17c-.23-.92-.36-1.85-.66-2.77,0-.11-.07-.23-.11-.34a.28.28,0,0,0-.29-.18.44.44,0,0,0-.2,0c-1.27-.15-2.55,0-3.82-.1-.54,0-1.07-.07-1.6-.12a.22.22,0,0,0-.22.36.28.28,0,0,0,.06.14c.25,1.23.49,2.46.66,3.7l-1.32.12c-.18-1-.36-2.08-.57-3.12a.25.25,0,0,0,0-.19,0,0,0,0,0,0,0,.31.31,0,0,0-.3-.29c-1.44,0-2.89-.11-4.33-.07-.35,0-.74,0-1.1,0a.37.37,0,0,0-.2.05.21.21,0,0,0,0,.33.25.25,0,0,0,0,.24c.11,1.14.22,2.29.3,3.43,0,.15,0,.29.07.44-.2-.16-.57-.05-.81-.07C6,7.21,6,6.18,5.85,5.15a.21.21,0,0,0-.08-.21.31.31,0,0,0-.27-.22c-1.21-.09-2.4,0-3.62-.09-.42-.08-.85,0-1.27-.11a.27.27,0,0,0-.2,0,.22.22,0,0,0,0,.34c0,.15,0,.32,0,.44C.24,6.62.15,7.93.09,9.24S.07,11.77,0,13s0,2.63,0,4c0,.39,0,.78.09,1.18v0h0a1.06,1.06,0,0,1,0,.19h0v0h0l0,.06h0a1.46,1.46,0,0,1,.05.2s0,.06,0,.1a.32.32,0,0,0,0,.09c0,.08,0,.16,0,.24l0,.14h0a1.24,1.24,0,0,1,0,.16v0h0v0l0,.16a1.11,1.11,0,0,0,.3.08,7.18,7.18,0,0,0,1,0,17.28,17.28,0,0,0,1.9-.1c.5,0,1-.06,1.48-.07a3.91,3.91,0,0,0,.48.05.57.57,0,0,0,.18,0l2.19.26a1.85,1.85,0,0,1,.44.06,1.94,1.94,0,0,0,.05.2.48.48,0,0,0,.31.47c1.15,0,2.34.15,3.5.18.87,0,1.72-.09,2.59-.06a.33.33,0,0,0,.15,0,.25.25,0,0,0,.17,0c.5,0,1,.14,1.48.19,0,0,.07,0,.1,0v0a.44.44,0,0,0,.16.27.29.29,0,0,0,.16.2,3.73,3.73,0,0,0,1,0A13.94,13.94,0,0,0,20,21.29c.74-.09,1.51,0,2.25-.12h.37a.39.39,0,0,0,.14.05c.29,0,.58.07.86.12s.69.1,1,.18a3.2,3.2,0,0,0,.68.16,3.38,3.38,0,0,1,.09.54.28.28,0,0,0,.27.19A31.81,31.81,0,0,0,31,22.33l.73,0a.25.25,0,0,0,.15,0c.16,0,.32,0,.48,0,.4,0,.8.11,1.2.18l0,.08s0,0,0,.06,0,0,0,0v0l0,.11s0,.06,0,.09a.06.06,0,0,1,0,.06h0v0h0v0h.68c1.23,0,2.45-.1,3.68-.12l.86-.05c0,.21.29.26.48.25.42.06.8.17,1.23.25s.66.08,1,.12c0,0,0,0,0,0a1.53,1.53,0,0,1,.34.05c1.2.14,2.38.16,3.59.32s2.51.33,3.78.44h0a1.33,1.33,0,0,0,.13.35.23.23,0,0,0,.06.16.38.38,0,0,0,.26.11c.61.07,1.21.07,1.82.09.87,0,1.84,0,2.71-.06a4.71,4.71,0,0,1,.75,0l.06,0a3,3,0,0,1,.51.08,5.47,5.47,0,0,1,.66.09c.34.08.65.07,1,.13a.16.16,0,0,0,.1,0l0,0a.54.54,0,0,0,.39.5c.81,0,1.6-.14,2.4-.18a12.85,12.85,0,0,0,2.16-.18A11.21,11.21,0,0,0,63.75,25a.21.21,0,0,0,.07-.32A.87.87,0,0,0,63.84,24.31ZM45.67.58s0,0,0,0c1.23-.11,2.56,0,3.82,0l.73,0a.2.2,0,0,0,.11,0,79.68,79.68,0,0,0,4.2,7.81c1,1.6,1.82,3.25,2.88,4.81,0,0,0,0,0,.05a.66.66,0,0,0,.11.26,11.1,11.1,0,0,1,.63,1.3c.43.81.92,1.61,1.35,2.42.49,1,1.1,2,1.7,3s1.26,2.18,1.92,3.27c-.32,0-.63.11-.95.12-1.53.11-2.94.44-4.49.49a.65.65,0,0,1-.14,0c-.13-.26-.26-.53-.4-.79h0a.08.08,0,0,1,0,0l0-.06a1.08,1.08,0,0,1-.08-.19h0a.5.5,0,0,1,0-.13l0,0-.07-.13,0,0h0c-.36-.69-.74-1.38-1.14-2.06-1.28-2.11-2.29-4.32-3.36-6.51a30.44,30.44,0,0,0-1.48-2.9.34.34,0,0,0,0-.15A14,14,0,0,1,50,9.57c-.66-1.45-1.43-2.85-2.13-4.28s-1.35-3-2.11-4.51A.24.24,0,0,0,45.67.58Zm9,20.18a.61.61,0,0,1,0-.12l.39.09a.23.23,0,0,0,.12,0c.37.65.73,1.31,1.09,2l-.65-.06Zm-4.26-8.24a0,0,0,0,1,0,0c-.56-1-1.06-2-1.54-3-.11-.23-.22-.46-.34-.68h.21A.29.29,0,0,0,49,8.71c.38.82.77,1.64,1.21,2.44a.25.25,0,0,0,0,.12,6.47,6.47,0,0,1,.82,1.47c1,2,2,4,2.95,6l.81,1.42-.49-.11c-.66-1.38-1.3-2.76-2-4.1-.5-1-1-2-1.57-2.91C50.59,12.92,50.52,12.69,50.39,12.52ZM48.27,7.18c.19.37.38.75.56,1.13a.22.22,0,0,0-.11,0,2,2,0,0,0-.48,0A14.73,14.73,0,0,1,47.53,7c.21,0,.41,0,.61,0C48.18,7,48.22,7.1,48.27,7.18ZM46.49,4.42a2.71,2.71,0,0,0,.38-.06c.32.7.66,1.4,1,2.09l-.34,0-.23,0c-.32-.68-.62-1.37-.92-2.06ZM39.72,1.59a.22.22,0,0,0,0-.29h0a30.64,30.64,0,0,1,4.77.25c.31.56.6,1.14.85,1.72.59,1.25,1.06,2.45,1.61,3.61A18.45,18.45,0,0,0,48.07,9c.59,1.24,1.17,2.47,1.85,3.68h0c0,.1.12.2.17.31,1.91,3.29,3.48,6.73,5.14,10.11-.48,0-1,.09-1.44.08-1.32,0-2.63.05-3.95.06h-.27a.15.15,0,0,0,0-.07c-.12-.23-.22-.46-.34-.68v0a.8.8,0,0,0-.08-.16h0c-.32-.63-.64-1.26-.94-1.9h0l0,0a.37.37,0,0,1,0-.11.77.77,0,0,1-.07-.16L48,20h0l0-.07h0a.08.08,0,0,1,0-.05h0a.14.14,0,0,0,0-.06l0-.06h0c-.88-1.74-1.4-3.59-2.32-5.32,0,0,0,0,0-.06l0-.07c-.19-.46-.39-.91-.58-1.36-.69-1.36-1.23-2.76-1.94-4.11h0c-.25-.54-.51-1.08-.77-1.62,0,0,0,0,0-.08s0-.07,0-.11V7L42,6.82a.41.41,0,0,1,0-.09l0-.07a0,0,0,0,1,0,0h0c-.14-.31-.28-.62-.4-.94A39,39,0,0,0,39.72,1.59ZM40,21.82Zm-.29-1.2c-.22-.59-.47-1.17-.71-1.75h0l.6.06c.13.3.25.61.39.92s.22.56.34.84h0l-.24,0A2.21,2.21,0,0,0,39.74,20.62ZM35.6,7.76c.19.54.37,1.09.56,1.64a2.42,2.42,0,0,0-.39,0l-.46.05-.64-1.65Zm.19,2.15a2.24,2.24,0,0,0,.52-.06q.67,2,1.29,4c.55,1.55,1.16,3.09,1.81,4.62l-.28,0a1,1,0,0,0-.3,0c-.1-.24-.19-.48-.28-.72-.45-1.19-.78-2.41-1.27-3.6s-1.05-2.46-1.61-3.67L35.5,10A1.55,1.55,0,0,1,35.79,9.91ZM47.1,23c-.84-.05-1.7,0-2.54-.05a17.13,17.13,0,0,1-1.75-.11c-.36,0-.73-.05-1.09-.05a4.19,4.19,0,0,0-.2-.49,2.25,2.25,0,0,0-.08-.24c.32,0,.64,0,1,0,1.2,0,2.4.1,3.59.11.3,0,.61,0,.91,0a.49.49,0,0,0,.17,0l0,.05s0,0,0,0v0h0a.19.19,0,0,0,0,.08.69.69,0,0,1,0,.1v0h0l0,.05h0a581766033169.87,581766033169.87,0,0,1,0,.12s0,0,0,.06,0,.06,0,.09l0,.08h0a0,0,0,0,0,0,0v0s0,0,0,0a.07.07,0,0,1,0,.05h-.15Zm.47-.94c-.24-.56-.46-1.09-.72-1.67L46.68,20l.19,0,.38.07.27.05,1,2ZM42.48,9a1.38,1.38,0,0,0-.57,0c-.08-.24-.17-.47-.26-.71s-.32-.73-.49-1.09l.47-.06C41.91,7.77,42.19,8.39,42.48,9Zm-.31.48c.15,0,.31,0,.44,0s0,0,.06-.06c.83,1.76,1.67,3.52,2.42,5.29a.27.27,0,0,0,.09.12c.14.27.24.55.38.81.48,1,.86,2.09,1.27,3.13.14.3.29.61.44.91l-.59-.1a.66.66,0,0,0-.24,0c-.54-1.14-1-2.3-1.64-3.43-.43-1-.83-1.93-1.26-2.9-.33-.77-.57-1.57-.9-2.34-.21-.45-.38-.9-.55-1.36ZM40.7,5c.18.46.36.93.55,1.39l.15.32a3.24,3.24,0,0,1-.44.07h0c-.23-.58-.45-1.17-.67-1.76A2.75,2.75,0,0,1,40.7,5Zm-3-3.08a7.48,7.48,0,0,1,.82,0h0a.77.77,0,0,0,.07.26c.35.87.7,1.73,1,2.61a.21.21,0,0,0,0,.15l0,0,.09.25c.23.61.47,1.21.72,1.81a.28.28,0,0,0,.07.24h0c.14.33.28.65.43,1,.27.65.47,1.32.75,2,.48,1,.81,2.1,1.25,3.15.61,1.4,1.2,2.86,1.92,4.24s1.29,2.7,1.87,4.08c-.21,0-.46,0-.61,0-.73,0-1.47,0-2.2-.05s-1.72-.06-2.57-.06l-.21,0L41,21c-.62-1.57-1.35-3.12-2-4.7-.8-2-1.41-4.07-2.1-6.11-.46-1.53-1.06-3-1.55-4.57C35,4.38,34.49,3.14,34,1.9h0A24,24,0,0,0,37.75,1.89Zm-3,3.74h.09c.2.55.39,1.1.58,1.65-.25,0-.5.06-.75.07h-.2c-.2-.54-.41-1.07-.62-1.61C34.16,5.72,34.46,5.67,34.76,5.63Zm-7.63-3s0-.06,0-.1c.41,0,.83,0,1.24-.07,1.23,0,2.5,0,3.73-.08a3,3,0,0,0,.19.68c.54,1.38,1.1,2.77,1.64,4.15l0,0,0,.08a.93.93,0,0,0,0,.13v0l.06.22,0,.08v0a.14.14,0,0,1,0,.06h0c.22.57.44,1.13.65,1.7.77,2,1.77,3.89,2.46,5.89a38.67,38.67,0,0,0,1.79,4.72c.12.34.24.68.35,1a1.22,1.22,0,0,0-.27,0c-.3,0-.68.05-1,.07-1.34,0-2.67,0-4,.14h0a.31.31,0,0,0-.19-.06h0l-.15,0h-.1l-.35-1h0v0a.36.36,0,0,0,0-.09h0a1.09,1.09,0,0,1,0-.17c0-.05,0-.1-.05-.16a.43.43,0,0,1,0-.05h0c-.36-.94-.72-1.88-1.06-2.82-1-2.75-2-5.49-3-8.25A33.71,33.71,0,0,1,28,5.39C27.66,4.48,27.38,3.57,27.13,2.65Zm4.41,17.07c-.22-.58-.45-1.15-.66-1.73a8.1,8.1,0,0,1,1.06.18l.63,1.67a5.3,5.3,0,0,1-.66-.07l-.26,0ZM28.7,9.2c.12.29.21.59.32.88-.27.06-.55.09-.82.13a13.47,13.47,0,0,1-.53-1.71.64.64,0,0,0,0-.07s0,0,.05,0c.24,0,.46-.05.69-.07C28.5,8.62,28.6,8.91,28.7,9.2Zm0,1.44c.11,0,.29,0,.45-.07.18.54.37,1.09.58,1.62.58,1.49,1.09,3,1.61,4.48.11.32.24.63.35.95-.31-.05-.67-.06-.85-.11a.63.63,0,0,0-.19,0c-.6-1.82-1.26-3.61-1.86-5.44-.14-.45-.3-.9-.46-1.35Zm-1-4.27c.15.5.33,1,.51,1.48a3.37,3.37,0,0,1-.64.08h-.07c-.14-.49-.28-1-.43-1.48C27.29,6.43,27.5,6.39,27.71,6.37Zm-5.8-3.31c1.23,0,2.49,0,3.74.06a4.14,4.14,0,0,0,.18.77c.18.58.32,1.17.48,1.75.48,1.54.83,3.09,1.35,4.61l.06.17s0,.08,0,.12.05.08.1.11c.5,1.36.9,2.72,1.4,4.1.37,1,.72,2.06,1.06,3.09.19.57.45,1.12.67,1.68l0,0c0,.08.05.17.08.25h0v0a1.39,1.39,0,0,1,.06.19l0,.1h0s0,0,0,.06l.14.39c-1.86.16-3.77.05-5.62.22a.34.34,0,0,0-.08-.09.16.16,0,0,0,0-.14c-.13-.34-.21-.66-.34-1-.42-1.43-.86-2.86-1.28-4.3-.23-.75-.4-1.5-.58-2.26s-.5-1.52-.7-2.29l-.36-1.62a.19.19,0,0,0,0-.13.18.18,0,0,0-.05-.07c-.16-.67-.32-1.33-.5-2-.27-1.28-.58-2.57-1-3.85C21.22,3,21.56,3,21.91,3.06Zm.25,7.48c0,.11.06.22.08.32a.2.2,0,0,0-.12.06,3.78,3.78,0,0,1-.51,0c-.11-.51-.24-1-.38-1.54a5.34,5.34,0,0,0,.65-.13C22,9.7,22.06,10.12,22.16,10.54Zm-.4.9c.18,0,.43,0,.63-.07l.22.66c.26.77.41,1.56.61,2.33s.47,1.64.71,2.46l-.15,0a2.67,2.67,0,0,0-.73-.1.14.14,0,0,1,0-.06c-.54-1.72-.92-3.46-1.31-5.19Zm1.92,7.29a12,12,0,0,0-.46-1.52.2.2,0,0,0,.11,0c.17,0,.49.12.75.14.15.5.31,1,.46,1.49-.27,0-.54,0-.81-.08ZM21.37,7.16a2.46,2.46,0,0,0,.07.29c.12.45.22.89.33,1.34-.22,0-.45.12-.6.13l-.07,0c-.13-.49-.25-1-.34-1.5a.57.57,0,0,1,0-.14A3.51,3.51,0,0,0,21.37,7.16ZM14.29,3.73c1.47.14,2.93.13,4.38.13l.7.06a9.38,9.38,0,0,1,.41,1.62c.13.86.45,1.71.59,2.58s.44,1.64.64,2.47c.26,1.27.56,2.55.86,3.82A33.09,33.09,0,0,0,23,18.06c0,.15.09.31.13.47l.06.15s0,0,0,.05l0,.1h0v0l0,.12h0v0s0,0,0,0,0,0,0,0h0v0a10.07,10.07,0,0,1-1.83.09,3.85,3.85,0,0,0-1,.05c-.65,0-1.28.08-1.93.11-.47,0-.93,0-1.39,0-.16-.67-.32-1.35-.43-2-.07-.38-.13-.77-.2-1.16h0a.36.36,0,0,0,0-.11.77.77,0,0,0,0-.15v-.07h0c-.12-.71-.24-1.43-.39-2.14-.48-2.75-1-5.54-1.46-8.3-.1-.5-.23-1-.31-1.5Zm.89,7.85-.16,0a4.67,4.67,0,0,1-.77.05.25.25,0,0,0-.14,0,.55.55,0,0,0-.33.05l-.27-1.6.19,0,1.17-.17C15,10.43,15.08,11,15.18,11.58Zm-1,.55a9.29,9.29,0,0,0,1.06-.05c0,.25.09.5.14.75.17,1,.34,1.94.51,2.91l-.82-.11-.25,0-.33,0c0-.16-.06-.31-.1-.47-.2-1-.38-2-.55-2.95A1.3,1.3,0,0,0,14.21,12.13Zm.7,5.5c-.13-.52-.21-1-.29-1.56h.06l.58.07c.25,0,.5.06.75.1l.15.84c0,.25.09.5.14.75A11,11,0,0,0,15,17.64ZM13.19,8c.44-.06.86-.1,1.31-.13l.27,1.46-1.33.2h0c-.08-.5-.17-1-.26-1.52Zm-2.1-3.65.93,0c.16,1.5.58,3,.79,4.55.37,2.28.71,4.56,1.23,6.84A28.68,28.68,0,0,0,14.71,19h-.24a2.33,2.33,0,0,1-.51,0c-.86-.1-1.7,0-2.56-.14s-1.55,0-2.35,0a1.62,1.62,0,0,1,0-.2c-.16-.9-.21-1.81-.31-2.72-.24-1.6-.57-3.21-.84-4.81v0a1.06,1.06,0,0,1,0-.19.37.37,0,0,1,0-.15h0v0h0c-.08-.5-.16-1-.22-1.5-.29-1.66-.29-3.3-.52-5h0C8.41,4.39,9.74,4.29,11.09,4.39Zm-4,12.3a1.57,1.57,0,0,0,0-.3q-.12-.92-.18-1.83l1,.13a.27.27,0,0,0,.17,0c.08.5.17,1,.24,1.5l.06.63c-.39-.08-.93-.06-1.15-.14Zm-.31-3.24a7.37,7.37,0,0,1,.84-.21.33.33,0,0,0,.13,0c.06.31.11.63.16.94-.3-.09-.74-.07-1-.13l-.13,0C6.78,13.86,6.76,13.65,6.75,13.45Zm.88-.69a2.69,2.69,0,0,0-.68.11l-.25.06c0-.13,0-.26,0-.38-.06-.35-.11-.7-.16-1.05l.68-.19.18,0C7.45,11.76,7.53,12.26,7.63,12.76Zm-1.18-4c.17,0,.41,0,.52-.1.09.72.19,1.43.3,2.15l-.52.13a2.22,2.22,0,0,1-.33.09c-.1-.75-.19-1.51-.26-2.26A1.41,1.41,0,0,1,6.45,8.72ZM4.53,5.16a7.26,7.26,0,0,1,.8,0c0,.65.15,1.31.15,2,0,.4.08.8.11,1.2a.22.22,0,0,0,0,.29c0,.51.1,1,.16,1.54.1,1,.31,1.92.4,2.87s.14,1.92.24,2.87c.11.7.22,1.4.28,2.1-.78,0-1.52.14-2.32.15-1.22.08-2.48-.16-3.71-.1a.41.41,0,0,1,0-.11c-.06-.62-.08-1.24-.1-1.86-.06-2.6,0-5.22.12-7.81C.78,7.22.76,6.12.9,5.05c.22,0,.44,0,.66,0A29.45,29.45,0,0,0,4.53,5.16ZM.2,18.41Zm3.56.67c-.46,0-.9.07-1.35.11a10.13,10.13,0,0,0-1.46,0,.18.18,0,0,1-.1,0,4.37,4.37,0,0,0-.2-.65v0c.31,0,.62,0,.93,0s1,.05,1.43.07a6.75,6.75,0,0,0,1.27.05c.82,0,1.63-.13,2.45-.17v0a2.23,2.23,0,0,1,.07.5,12.82,12.82,0,0,1-1.52,0C4.76,19,4.27,19.1,3.76,19.08Zm3.55.19a.16.16,0,0,0,0-.1,3.06,3.06,0,0,0-.1-.79.14.14,0,0,0,0-.06.25.25,0,0,0,0-.11.06.06,0,0,0,0,0,.2.2,0,0,0,0-.19h0c0-.26,0-.53-.07-.8.37.09.78.06,1.16.16,0,.53.13,1.06.23,1.6a.2.2,0,0,0-.11.06.5.5,0,0,0,0,.38Zm4.87,1c-1,0-2.07-.16-3.09-.17a4.3,4.3,0,0,1-.13-.7H9c.72.05,1.44,0,2.15,0a16.69,16.69,0,0,0,2.34.13,7,7,0,0,0,1.21,0,4.85,4.85,0,0,0,0,.66C13.86,20.18,13,20.27,12.18,20.26Zm4.58.08c-.5-.05-1-.16-1.52-.19a.61.61,0,0,0,0-.14l0-.5h0s0,0,0-.06h0v-.07a.66.66,0,0,1,0-.14V19.1h0a3.07,3.07,0,0,0-.22-1,13.11,13.11,0,0,1,1.38.2c.07.35.16.69.25,1a.2.2,0,0,0,0,.22v0h0a4.29,4.29,0,0,1,.15.78Zm4.58.42c-.8,0-1.59.09-2.39.1-.49,0-1,0-1.46,0l-.11-.07c-.05-.3-.08-.58-.13-.88.41,0,.82,0,1.23,0,.92,0,1.83-.1,2.74-.18a9.5,9.5,0,0,0,2.14-.08,4,4,0,0,0,.06.64,2.57,2.57,0,0,1,0,.4l-.15,0A14.51,14.51,0,0,0,21.34,20.76Zm3.73.4a9.15,9.15,0,0,0-1-.22.17.17,0,0,0,0-.12c0-.2-.05-.37-.07-.57s0-.32-.06-.48h0a.2.2,0,0,0,0-.15v-.05h0l-.06-.33.87.1c.14.44.27.88.42,1.32a.19.19,0,0,0,.09.11s0,0,0,0a.27.27,0,0,0,.06.22,1.1,1.1,0,0,0,0,.18Zm1.64.83c-.25,0-.53,0-.79,0,0-.22-.09-.45-.12-.66.29,0,.58-.06.87-.06.83-.05,1.61-.09,2.47-.07.7,0,1.41,0,2.1-.07h.15a4.43,4.43,0,0,1,.13.55v.2C29.92,21.88,28.33,22.08,26.71,22Zm5.35-.19v-.06a3.54,3.54,0,0,0-.2-.84v0l0,0s0,0,0,0,0,0,0,0,0,0,0-.05a1.6,1.6,0,0,0-.05-.21c0-.1-.07-.19-.1-.29l.47.06c.18,0,.36,0,.55.05.2.54.39,1.08.58,1.62A11.3,11.3,0,0,0,32.06,21.8Zm4.49.59c-.8,0-1.59.1-2.4.09h-.1v0l0,0H34a.07.07,0,0,1,0-.07h0a.09.09,0,0,1,0-.05v0s0,0,0,0v0a.13.13,0,0,1,0-.06,0,0,0,0,1,0,0,.61.61,0,0,0,0-.14s0-.09,0-.13h.06c.26,0,.53,0,.79-.05a25.58,25.58,0,0,1,2.64-.09,13.37,13.37,0,0,0,1.56-.07c.15,0,.4,0,.59-.05a.22.22,0,0,0,0,.21.48.48,0,0,1,.07.21.5.5,0,0,1,0,.13l-.89.08C38,22.36,37.28,22.38,36.55,22.39Zm3.34.27a.18.18,0,0,0,.07-.05.21.21,0,0,0,.19-.11h0l0-.08s0-.08,0-.12v0h0l0-.16v0s0-.06,0-.09l0-.14v0h0s0-.06,0-.09a.17.17,0,0,1,0-.07h0a1.06,1.06,0,0,0,0-.19.29.29,0,0,1,0-.09h0a.29.29,0,0,1,0-.09.29.29,0,0,1,0-.09.06.06,0,0,1,0,0,.08.08,0,0,1,0-.05h0s0,0,0,0h0l.09,0,.21,0a1.64,1.64,0,0,0,.32.05c.13.31.26.63.37.95l0,.08a.24.24,0,0,0,.05.16.85.85,0,0,0,.09.22l.09.23h0a.19.19,0,0,0-.08,0A8.82,8.82,0,0,1,39.89,22.66Zm7.27.82.44,0a.26.26,0,0,0,.23-.08s0,0,0,0h0v0h0a.11.11,0,0,0,0-.05v-.19h0V23h0a.21.21,0,0,1,0-.08v0c0-.07,0-.13,0-.2h0s0,0,0,0v0l1,.15c.1.21.2.42.31.63h0v0a.27.27,0,0,0,0,.22.31.31,0,0,0,.14.11v0h0C48.51,23.66,47.83,23.57,47.16,23.48Zm6.3,1c-1,0-1.93,0-2.92,0a5.09,5.09,0,0,1-.56,0c-.06-.22-.14-.43-.22-.65.49,0,1,0,1.47,0,1.39-.09,2.81,0,4.18-.14,0,0,0,0,.05,0a7,7,0,0,0,.18.76l-.23,0C54.75,24.34,54.12,24.42,53.46,24.45Zm2.75.1s0,0,0,0q-.12-.47-.21-.93a.23.23,0,0,0-.09-.24s0,0,0,0-.07-.15-.11-.22l.69.07c.26.5.52,1,.77,1.51l-.36,0Zm4.6.45c-.94,0-1.87.13-2.8.2l0,0h0v0s0,0,0,0,0,0,0-.05,0-.05,0-.07l0,0h0a.42.42,0,0,1,0-.1h0v0h0l-.08-.17a26.13,26.13,0,0,0,3.32-.36c.5-.06,1-.1,1.52-.15.24,0,.47-.07.71-.08a1.08,1.08,0,0,0,0,.36.93.93,0,0,0,0,.24A11.34,11.34,0,0,1,60.81,25Z"/><polygon class="cls-12" points="33.96 22.43 33.96 22.43 33.96 22.43 33.96 22.43 33.96 22.43 33.96 22.43 33.96 22.43 33.96 22.43"/><path class="cls-12" d="M34.05,22.39h0v0s0,0,0,0Z"/><polygon class="cls-12" points="34.05 22.33 34.05 22.34 34.05 22.34 34.05 22.33"/><path class="cls-12" d="M34.06,22.26s0,0,0,.07v-.07Z"/><polygon class="cls-12" points="8.2 10.79 8.2 10.79 8.2 10.79 8.2 10.79"/><polygon class="cls-12" points="8.2 10.76 8.2 10.76 8.2 10.76 8.2 10.76"/><path class="cls-1" d="M32.82,33.52s-.62,1.89-1.9,2-2.94-.83-2.66-2.16.6-2.18,2.26-2.15a1.81,1.81,0,0,1,1.91,1.27s0-.21,2.15-.55,11.09-1.76,11.09-1.76,7.37-.88,8.72-1.07,5.79-.42,5.79-.42a1,1,0,0,1,.38.68,1.35,1.35,0,0,1-.38.71s-5.42.77-6.42.86S41,32.43,40.12,32.61,32.82,33.52,32.82,33.52Z"/><path class="cls-13" d="M28.41,34a3.38,3.38,0,0,0,2.28.42,3.89,3.89,0,0,0,1.81-1.32,25.89,25.89,0,0,1,4-.72c2.09-.19,12.23-1.57,14.38-1.88s4.35-.61,6-.77l3.68-.4a.65.65,0,0,1-.57.76c-.69.12-11.61,1.42-12.2,1.51S37.37,33,36.35,33.05a37.3,37.3,0,0,0-3.71.63s-.58,1.73-2,1.84a2.21,2.21,0,0,1-2.06-.8Z"/><path class="cls-12" d="M60.54,28.61a2.27,2.27,0,0,0-1.25-.19c-9,.63-17.94,2.11-26.84,3.59a2.54,2.54,0,0,0-2.77-1c-2.34.69-2.3,4.32.16,4.8a2.46,2.46,0,0,0,2.7-1.52,1,1,0,0,1,.2-.41.92.92,0,0,1,.58-.22l25.85-3.15a2.86,2.86,0,0,0,1.25-.35A1,1,0,0,0,60.88,29,.72.72,0,0,0,60.54,28.61ZM30.83,35.2a1.91,1.91,0,0,1-1.29-.08,2,2,0,0,1-1-2.57c1-2.3,4.61-.68,3.56,1.6A2,2,0,0,1,30.83,35.2Zm15.39-3.59c-2.93.32-5.86.68-8.79,1l-3.17.31a12.26,12.26,0,0,0-1.48.21,2.35,2.35,0,0,0-.14-.7,34.67,34.67,0,0,1,4.07-.58c1.68-.22,3.35-.45,5-.71,1.23-.19,2.45-.42,3.66-.68,1.49-.29,3-.46,4.53-.65,3.2-.38,6.42-.66,9.64-.84l.59,0a1.09,1.09,0,0,1,.18.7.68.68,0,0,1-.07.23C55.54,30,50.92,31.14,46.22,31.61Z"/><path class="cls-1" d="M43.63,25.32c.25.44.61,1.23-.17,1.41S33.29,28.15,31.6,28.41s-10.75.84-11.91,1-4.12.33-4.12.33-.55,1.73-2.09,1.8A2.34,2.34,0,0,1,11,29a2.31,2.31,0,0,1,2.5-2.08,2.36,2.36,0,0,1,2,1.47s2.53-.47,3.34-.57,9.4-.95,10.39-1.11,7.07-.62,8.62-.84,5.26-.57,5.26-.57Z"/><path class="cls-13" d="M11,29a1.82,1.82,0,0,0,2.1,1.14A6.84,6.84,0,0,0,15.39,29s18.49-1.63,20.75-1.86,7.74-1,7.74-1,0,.63-.85.72S25.65,29,22.67,29.19s-7.1.51-7.1.51-.67,1.88-2.36,1.8A2.26,2.26,0,0,1,11,29.86,3.08,3.08,0,0,1,11,29Z"/><path class="cls-12" d="M44,25.37a.66.66,0,0,0-.23-.21,2,2,0,0,0-1-.08L16.29,27.9a1.5,1.5,0,0,1-.56,0,2.33,2.33,0,0,1-.83-.6,2.57,2.57,0,1,0,.35,3.5,2.46,2.46,0,0,1,.62-.7,1.59,1.59,0,0,1,.71-.18c8.93-.84,17.94-1.15,26.74-2.91a1.52,1.52,0,0,0,.67-.26A1.15,1.15,0,0,0,44,25.37ZM15.26,29.51a1.94,1.94,0,0,1-.31.82,2.08,2.08,0,0,1-3.07.52,2,2,0,0,1-.68-1,2.32,2.32,0,0,1,1.16-2.47,1.81,1.81,0,0,1,.77-.26A2.15,2.15,0,0,1,15.26,29.51Zm.53-.14-.12-.89,27.89-3c.11.55.19,1-.5,1.08A259.65,259.65,0,0,1,15.79,29.37Z"/></g></g></svg>