<svg xmlns="http://www.w3.org/2000/svg" viewBox="0 0 50.11 46.6"><defs><style>.cls-1{fill:#6b1e1e;}.cls-2{fill:#f7b383;}.cls-3{fill:#9f2224;}.cls-4{fill:#cbc479;}.cls-5{fill:#d09971;}.cls-6{fill:#92443f;}.cls-7{fill:#faed62;}.cls-8{fill:#ed4f4f;}.cls-9{fill:#e52823;}.cls-10{fill:#f27e7e;}</style></defs><g id="Layer_2" data-name="Layer 2"><g id="Card"><polygon class="cls-1" points="11.57 1.48 11.58 1.48 11.58 1.48 11.57 1.48"/><path class="cls-2" d="M.19,36.12l1.35-.46a6,6,0,0,1-.16-1.25,1,1,0,0,1,.33-.76L15.61,27l.86.55.58-.27s.15-11.31.17-11.88.21-4.15.21-4.15-1.31-.59-1.36-.94.41-.3.27-.65a1.18,1.18,0,0,1,0-.59l-.28-.17.4-.18h0c1.39-.65,6-2.81,6.77-3.22A134.76,134.76,0,0,1,36.22,0s3.25,2,5.1,3,8.43,3.91,8.43,3.91a2.06,2.06,0,0,1,.14.77,2.81,2.81,0,0,0,.15.84l-1.61.89s-6.08,6.48-6.17,7.37,5.51,9.24,5.51,9.24l1.2.77s.2,1.45,0,1.35S38.87,32.83,37.9,33.35s-5.88,3.33-7.22,4-9.78,4.91-10.44,5.4S15.47,46,14.72,46s-.92.45-1.49.23S8.15,43,6.67,42.11.16,37.67.16,37.67Z"/><path class="cls-3" d="M24.08,15.78a1.42,1.42,0,0,0-.84.88c-.14.63-.26,13.23-.31,13.21a6.12,6.12,0,0,0-.63.18s-.16-12.5.22-13.29.75-1.12,1-1.1A4,4,0,0,1,24.08,15.78Z"/><path class="cls-4" d="M29.45,18v4.24l-.19,13.45,18.52-8.74s.79-15,.54-15.91a2.36,2.36,0,0,1,.11-1.59L50,8.72,50,7.24,29.71,16.56Z"/><path class="cls-5" d="M49,27.11l.06,1.22S37,33.87,28.43,38.54c-1,.56-8.34,4.68-10,5.67a29.82,29.82,0,0,1-4.75,2.12c-.79,0-.47-.07-.47-.07l.06-.67S28.87,37,31.66,35.9s5.5-3.32,7.4-4.09S49,27.11,49,27.11Z"/><path class="cls-4" d="M27.91,34.79l.56,1.64s-6,2.71-7.29,3.39-7.63,4.38-7.63,4.38a5.92,5.92,0,0,1-.14-2,63.25,63.25,0,0,0,6-3.1c.75-.64,5.47-2.79,6.61-3.42A13.17,13.17,0,0,1,27.91,34.79Z"/><path class="cls-4" d="M16.47,27.52l.53,1.9L5.28,34.92,3.61,34a12.39,12.39,0,0,1,3.06-1.73C8.79,31.29,16.47,27.52,16.47,27.52Z"/><polygon class="cls-5" points="18.02 11.64 18.11 28.93 19.2 28.75 19.29 12.23 18.02 11.64"/><path class="cls-6" d="M35.36,8.45c0,.45-1,1.84-4.14,1.6S27.77,7.87,28.31,7.5a6.44,6.44,0,0,1,5-.56C34.85,7.35,35.36,7.77,35.36,8.45Z"/><path class="cls-5" d="M28.53,8.62a4.36,4.36,0,0,1,3.13-1,13.54,13.54,0,0,1,3.41,1.16s.74-1-1.52-1.78a5.63,5.63,0,0,0-4.91.43A.93.93,0,0,0,28.53,8.62Z"/><path class="cls-7" d="M1.67,34s8.38,5.67,9.13,6.33,2.39,1.37,2.61,1.89A4.13,4.13,0,0,1,13.25,44a24.62,24.62,0,0,1-4.44-2.62c-1-1-7.14-5.48-7.14-5.48Z"/><path class="cls-5" d="M.63,36.22a26.43,26.43,0,0,0,3.75,3.14c2.34,1.64,5.36,3.72,5.93,4.28a15.88,15.88,0,0,0,3,1.61l-.09,1s-3-1.77-4.1-2.59-4.4-3-5.59-3.78S0,37.24,0,37.24Z"/><path class="cls-7" d="M29.26,35.68v.41a4.82,4.82,0,0,0-.62-.59l.1-17.75s-5-3.07-5.86-3.72a24.63,24.63,0,0,0-3.46-1.8l-1.56-.55s.69,17.3.25,17.25a3.31,3.31,0,0,1-1-.36l.33-17.35-1.36-.94a2,2,0,0,1,0-.53A2.76,2.76,0,0,1,16.35,9S25.51,14.36,26.47,15s3.36,1.86,3.36,1.86,0,4.75-.14,5.83S29.26,35.68,29.26,35.68Z"/><path class="cls-7" d="M22.3,30.05s-.24-13.16.64-13.87c1.33-1.08,3,.64,3.81,3.16s.1,13.72.1,13.72l1.89,1,.09-12-.09-4.34-9.32-5.52,0,16Z"/><path class="cls-1" d="M23.64,12.93h0Z"/><path class="cls-1" d="M35.47,8.66a.93.93,0,0,0,0-.24.73.73,0,0,0-.3-.66,2.7,2.7,0,0,0-.58-.48,4.61,4.61,0,0,0-1.91-.64,6.91,6.91,0,0,0-2-.1,4.69,4.69,0,0,0-2.37,1c-.93.93.21,2,1.15,2.29a4.23,4.23,0,0,0,2,.39h0a7.87,7.87,0,0,0,2.17-.26A2.1,2.1,0,0,0,35.25,9,1.4,1.4,0,0,0,35.47,8.66Zm-6.83.11a1.88,1.88,0,0,1,.58-.34A5.16,5.16,0,0,1,30.55,8a7,7,0,0,1,3.51.45,5,5,0,0,1,.76.46l-.21.19a1.68,1.68,0,0,1-.56.34c-.51.12-1,.23-1.54.31s-1.13.07-1.68,0A4.1,4.1,0,0,1,28.64,8.77Zm6.42-.41a.23.23,0,0,1,0,.12,4.67,4.67,0,0,0-.95-.54,7.55,7.55,0,0,0-3.55-.44A4.44,4.44,0,0,0,29.17,8a3.56,3.56,0,0,0-.75.39c-.09-.52.53-1,2.13-1.36a5.62,5.62,0,0,1,1.83,0A3.85,3.85,0,0,1,35,8.17.27.27,0,0,0,35.06,8.36Z"/><path class="cls-1" d="M50,7.24c.14-.2.06-.41-.22-.57a.26.26,0,0,0-.17,0l-.74-.37c-1.07-.56-2.2-1-3.31-1.43-2.09-1-4.15-2.16-6.25-3.19C38.6,1.26,37.84.87,37.08.5L36.69.3c-.06-.15-.32-.23-.47-.3-.32-.1-6.46,2.51-6.77,2.59a3.36,3.36,0,0,0-.64.18c-.8.27-1.56.6-2.34.93-1.28.58-2.62,1.08-3.85,1.76a53.17,53.17,0,0,0-5.45,2.43,5.69,5.69,0,0,0-.52.33c-.25.15-.55.34-.58.65a.2.2,0,0,0,.05.17h0a.3.3,0,0,0-.1.14.71.71,0,0,0-.1.35,1.65,1.65,0,0,0-.1.44,1.94,1.94,0,0,0,.37.73,3.89,3.89,0,0,0,.89.55s0,0,0,0c0,2.55-.15,13.42,0,16l0,0a2.18,2.18,0,0,0-.27.11h-.08c-.05-.16-.31-.22-.45-.29L16,27a.29.29,0,0,0-.41,0c-1.37.62-2.76,1.22-4.17,1.75-.64.31-1.27.62-1.92.9a31.74,31.74,0,0,0-3,1.48c-.84.42-1.7.8-2.52,1.27s-1.62.82-2.43,1.25a5.22,5.22,0,0,0-.14,1.78,5.73,5.73,0,0,0-.55.2c-.4.16-.59.34-.64.52l0,.05a1.11,1.11,0,0,0-.08.3,2.8,2.8,0,0,1-.07.77.5.5,0,0,0,0,.36.26.26,0,0,0,.1.07s0,0,.07.06a5.9,5.9,0,0,1,.47.37,5.29,5.29,0,0,1,.78.52c.8.58,1.59,1.2,2.43,1.7C5.67,41.64,7.5,42.84,9.3,44.1c.9.57,1.78,1.18,2.68,1.74.2.13.67.6,1,.58l0,0a1.32,1.32,0,0,0,.58.15l.09,0a.58.58,0,0,0,.32,0,1.14,1.14,0,0,0,.43-.17,9.33,9.33,0,0,0,1.5-.79c.85-.46,1.73-.87,2.55-1.37s1.92-1.11,2.87-1.67c3.48-2,7.14-3.71,10.66-5.64.52-.27,1-.59,1.53-.87a.2.2,0,0,0,.11,0c1.66-.93,3.27-2,5-2.79s8.89-4.14,10.45-4.89a.21.21,0,0,0,.12-.22.94.94,0,0,0,0-.29,1.24,1.24,0,0,0,0-.43c0-.26.07-.53-.09-.75a1.77,1.77,0,0,0-.83-.54L48,26c.12-1.2.23-8.21.33-9.4.17-1.46.2-5.42.18-6.89a.2.2,0,0,0-.07-.26l.14-.07c.46-.21,1-.42,1.4-.65A.23.23,0,0,0,50,8.55a.22.22,0,0,0,.05-.13A4.25,4.25,0,0,0,50,7.24ZM16.51,8.92c.08-.21.36-.3.53-.44a14.62,14.62,0,0,1,2.16-1.1c1.23-.62,2.55-1,3.79-1.61s2.76-1.25,4.15-1.87c.63-.29,1.24-.51,1.89-.74C29.34,3.05,35.47.5,35.79.42a.43.43,0,0,1,.16,0,.27.27,0,0,0,.17.1l.55.28c1.88.92,3.72,1.9,5.59,2.84,1,.53,2.05,1.07,3.09,1.58.77.34,1.58.63,2.34,1,.5.23,1,.47,1.47.71l.39.22c-1.8,1.12-9.56,4.44-11.45,5.4-1,.39-1.9.87-2.87,1.26s-2.1,1-3.11,1.57c-.75.42-1.52.75-2.29,1.1a.2.2,0,0,0-.12.12,2.43,2.43,0,0,0-.26-.15q-.57-.37-1.17-.69c-1.59-.87-3.12-1.89-4.67-2.81-2.15-1.38-4.48-2.41-6.73-3.6A3.43,3.43,0,0,1,16.47,9,.3.3,0,0,0,16.51,8.92Zm-.25,1c0-.12,0-.19.08-.31l0-.15a36.88,36.88,0,0,0,3.41,1.79,41.27,41.27,0,0,1,3.62,2c1.59,1,3.11,2,4.73,2.85.21.12.43.23.64.36s.56.43.81.45c0,.2,0,.41,0,.61a2.71,2.71,0,0,1-.94-.33c-.49-.28-1-.52-1.48-.83-1.88-1-3.64-2.29-5.56-3.25-1.3-.69-2.62-1.32-3.91-2C17.19,10.76,16.46,10.61,16.26,9.94Zm13.19,8c-.05,1.31,0,10.93,0,12.25s-.05,2.57-.11,3.85c0,.53-.07,1.06,0,1.59a1.72,1.72,0,0,1-.18-.13l-.19-.14c0-1.44.19-2.88.23-4.32,0-1.64,0-11.55,0-13.18l.3.07Zm-.73.05c0,1,0,2.08,0,3.13s0,1.83,0,2.75c0,.48-.06,9.26-.09,9.73l-.26-.13a8.42,8.42,0,0,0-.76-.45l-.39-.2-.05,0c.17-1,.22-10.22.19-11.19A8.45,8.45,0,0,0,26.54,18a5.33,5.33,0,0,0-1.76-2.17,1.91,1.91,0,0,0-1.7-.22,2.05,2.05,0,0,0-.61.94A4.7,4.7,0,0,0,22.21,18c-.08.76-.09,9.83-.13,10.6v1.11c-.31-.23-.82-.44-1-.56a3.31,3.31,0,0,1-.73-.46c-.26-.15-.53-.29-.78-.46a.19.19,0,0,0-.14,0c-.07-1.93,0-12.16,0-14.09,0-.49,0-1,.05-1.47v-.09l2.08,1.07c1.15.58,2.23,1.26,3.32,2,.77.5,1.59.91,2.36,1.4.49.24,1,.56,1.48.78A.71.71,0,0,0,28.72,18Zm-5.48-2a1.34,1.34,0,0,0-.14.38,9.68,9.68,0,0,0-.18,1.6c-.07,1.14-.17,10.57-.24,11.7l-.15.07c-.05-1.47,0-11.24.22-12.7a3.34,3.34,0,0,1,.48-1.05ZM19,28.39c-.16.05-.29.15-.46.19a.53.53,0,0,0-.18,0c0-1,.06-10.34.06-11.36-.05-1.19-.17-2.37-.2-3.55,0-.48,0-1,0-1.43,0-.11,0-.26,0-.39l.82.43a.21.21,0,0,0,0,.2c0,2-.08,12.2-.09,14.15C19,27.25,19,27.81,19,28.39ZM17.5,11.48l.36.2c-.11.08-.09.24-.06.38,0,1.79.12,3.56.22,5.35,0,.95-.05,10.21-.07,11.16l-.26-.14-.17-.08c0-1.25-.1-10.79-.09-12C17.43,14.71,17.54,13.1,17.5,11.48ZM16.56,29.4h0c-1.36.62-2.69,1.28-4,1.93-1.83.77-3.61,1.61-5.37,2.51-.59.33-1.21.61-1.78,1a.45.45,0,0,0-.12.12l-.41-.21a5.15,5.15,0,0,1-.45-.32c-.25-.17-.53-.28-.78-.44.53-.29,1.06-.58,1.61-.82l5.41-2.63c1.94-.91,3.95-1.66,5.87-2.58C16.52,28.43,16.57,28.91,16.56,29.4Zm-9.9,2.1c.76-.41,1.51-.82,2.31-1.16s1.87-.84,2.8-1.28c1.37-.49,2.68-1.12,4-1.67a.35.35,0,0,1,.14.06,1.73,1.73,0,0,1,.32.14c-1.79.86-3.66,1.54-5.45,2.4-1.62.71-3.17,1.56-4.78,2.3C5,32.76,4,33.39,3,34H3l1.23.83c.15.1.27.22.43.31l.52.27c1.11.72,2.21,1.48,3.31,2.22a17.75,17.75,0,0,1,2.22,1.56l2.93,2.3.39-.17c.33-.18.62-.4.95-.57,2-1,3.94-2.06,5.93-3,1.14-.58,2.24-1.24,3.38-1.84l1.48-.73c.4-.24.8-.49,1.22-.69.11-.08.28-.12.37-.22.17.11.35.19.52.28-1.95.94-3.92,1.85-5.81,2.92-1.7,1-3.37,2-5.1,2.93a22.67,22.67,0,0,1-2.82,1.44.51.51,0,0,0-.15.07l-.11,0c-.61.26-2.77-1.62-3.59-2.24C8.64,38.44,7,37.3,5.31,36.27c-.53-.34-3.41-2.35-3.41-2.35C3.48,33.11,5.05,32.26,6.66,31.5Zm21.25,3.29v.11l.15,1.49c-4.8,2.37-9.7,5-14.39,7.54a6.22,6.22,0,0,1,0-1.56C14.13,42.16,23.56,37.15,27.91,34.79Zm-26.2-.36c.05,0,1.62,1.18,1.67,1.21.54.33,1.09.63,1.62,1,.73.48,1.49.91,2.2,1.39.53.42,1.09.78,1.64,1.16a25.29,25.29,0,0,1,2.1,1.55,15.86,15.86,0,0,1,2.22,1.63A4.26,4.26,0,0,1,13.25,44C13,43.86,11.3,42.78,11,42.61c-.52-.42-5.47-4.12-7.53-5.37-.11-.05-1.72-1.25-1.83-1.31C1.73,35.44,1.65,34.93,1.71,34.43Zm47-6.49s0,0,0,.06c-.86.4-7.49,3.4-8.34,3.82-1.56.81-3.17,1.58-4.69,2.48-.73.41-1.43.86-2.17,1.26a1.61,1.61,0,0,0-.48.22c-.46.3-.91.52-1.38.8C29,38,26.27,39.34,23.6,40.77c-.78.46-1.6.83-2.37,1.3-.61.41-1.31.7-1.93,1.1s-1.34.88-2.06,1.2-1.49.78-2.21,1.2A8.73,8.73,0,0,1,14,46.1a.71.71,0,0,0-.21,0,.58.58,0,0,0-.26,0,2.13,2.13,0,0,1-.33-.11.18.18,0,0,0-.1,0,.31.31,0,0,0-.13-.06,8,8,0,0,1-.85-.58c-.68-.38-1.28-.89-2-1.27-2.05-1.38-4.08-2.77-6.07-4.22A18.81,18.81,0,0,1,2.2,38.59c-.5-.39-1.06-.7-1.54-1.1a1.18,1.18,0,0,0-.22-.14.13.13,0,0,1,0-.06,2.42,2.42,0,0,0,.07-.54A4.37,4.37,0,0,0,.89,37c1.31.9,2.53,1.89,3.81,2.84,1.48,1.1,3,2.13,4.55,3.17a33.59,33.59,0,0,0,2.9,2,7.26,7.26,0,0,0,.68.45.67.67,0,0,0,.34.16.28.28,0,0,0,.12,0,.33.33,0,0,0,.32,0l.09,0h0a17.27,17.27,0,0,0,2.05-1.06c.92-.46,1.82-.91,2.71-1.42,1.6-.81,3.12-1.71,4.7-2.54,1.15-.66,2.27-1.33,3.45-1.92.61-.3,1.19-.67,1.8-1,1-.43,2-.95,3-1.43.47-.22.9-.52,1.36-.77L33,35.4h0l.12-.07c1.4-.82,2.75-1.76,4.23-2.44,1.19-.64,2.41-1.21,3.6-1.84.65-.34,7-3.27,7.71-3.56l.06,0a.53.53,0,0,0,0,.12A1.53,1.53,0,0,0,48.74,27.94Zm-.41-1.33a1,1,0,0,1,.39.31v0h0a5.11,5.11,0,0,1-.74.37c-.41.25-6.61,3-7,3.23-1.38.75-2.8,1.42-4.2,2.14-1.24.61-2.4,1.38-3.57,2.1-.14.09-.28.15-.41.24a8.5,8.5,0,0,0-1,.57c-1,.51-2,1-3,1.46s-2,1.06-3,1.57c-1.4.74-2.66,1.52-4.07,2.28-1.18.6-2.31,1.29-3.5,1.87-.67.37-1.29.74-2,1-.92.44-1.76,1-2.71,1.4a.22.22,0,0,0-.16,0,.23.23,0,0,0-.12-.06c-.58-.37-1.16-.77-1.76-1.12-1-.68-1.94-1.4-2.92-2.06-1.87-1.22-3.65-2.53-5.41-3.89-.3-.25-.64-.46-.94-.69a5.72,5.72,0,0,0-.49-.37,6.14,6.14,0,0,1-1-.84,2,2,0,0,1,.51-.29l.14,0V36c.08.32,5.78,4,7.52,5.44A44.51,44.51,0,0,0,13,44.33a1,1,0,0,0,.5.14.6.6,0,0,0,.34-.16,1.17,1.17,0,0,0,.2-.06l.12-.07-.05,0a.2.2,0,0,0,.13-.1c1.65-.92,3.31-1.8,5-2.69.55-.3,1.11-.62,1.64-.94s1.23-.56,1.81-.87,1.06-.57,1.62-.8c.72-.28,1.41-.64,2.09-1s1.21-.76,1.84-1.09a.22.22,0,0,0,.26-.3,4.67,4.67,0,0,0-.06-1,3,3,0,0,1,0-.74.32.32,0,0,0,0-.17c0-.14-.09-.3-.23-.36s-.52-.25-.76-.42a.21.21,0,0,0-.32.09.29.29,0,0,0-.16,0c-.56.28-1.1.62-1.65.92-.92.42-1.79.91-2.68,1.39-1.84,1.05-3.76,2-5.64,3-1.06.57-2.43,1.19-3.45,1.84-.13.07-1.78-1.54-2.51-2.11A22.41,22.41,0,0,0,8.7,37.22l-.16-.1A.21.21,0,0,0,8.38,37c-.67-.46-1.35-.91-2-1.38-.24-.14-.47-.3-.7-.46a63.87,63.87,0,0,1,7-3.43c1.39-.63,2.74-1.38,4.15-1.95a.23.23,0,0,0,.12-.2.22.22,0,0,0,.07-.17c0-.36,0-.78,0-1.13,0-.17,0-.34,0-.51a.75.75,0,0,1,.13-.06c0,.29,0,.56,0,.85a.22.22,0,0,0,.17.14h0c.21.1.4.22.61.32s.3.2.44.07h0a3.79,3.79,0,0,0,.74-.25c.12-.08.28-.07.37-.18v0c.24.16.49.29.73.44a2.85,2.85,0,0,0,.46.31,14.69,14.69,0,0,1,1.28.74.21.21,0,0,0,.19.1.19.19,0,0,0,.24.11c.14,0,.37-.17.53-.22s.25-.27.25-.46,0-.39,0-.58c0-.92.13-10.13.19-11a4.9,4.9,0,0,1,.09-1,1.53,1.53,0,0,1,.28-.91.44.44,0,0,1,.3,0,.24.24,0,0,0,.17,0,4.32,4.32,0,0,1,2,2.34,9,9,0,0,1,.6,3.48c0,.84,0,10-.18,10.81-.13.1-.05.23-.06.35a.22.22,0,0,0,.31.21l1.31.74a.89.89,0,0,1,.22.16l.06,0c0,.45-.05.9-.05,1.36a.2.2,0,0,0,.14.21A3.48,3.48,0,0,0,29,36c.17.11.37.44.58.21a.31.31,0,0,0,.05-.12.23.23,0,0,0,.07-.07,0,0,0,0,0,0,0c.79-.43,1.6-.82,2.38-1.27a15.23,15.23,0,0,1,1.8-1c1.24-.69,2.54-1.24,3.76-1.93.79-.43,1.62-.77,2.38-1.24.52-.33,6.89-3.06,7.43-3.36a1.08,1.08,0,0,0,.34-.23.22.22,0,0,0,.14-.17l0-.32Zm-.5-9.34c-.13,1.05-.2,7.92-.29,9,0,.11,0,.25,0,.38a.17.17,0,0,0-.06.06c-.77.42-7.35,3.29-8.1,3.74s-1.62.79-2.41,1.24c-1.69.91-3.49,1.65-5.1,2.71-.7.4-1.42.77-2.13,1.15,0-.89.09-1.79.09-2.67.09-2.14.09-12.57.09-14.71l.22,0c.18,0,.44-.11.44-.29,2.32-1.14,4.67-2.26,7-3.37.83-.38,7.5-3.17,8.28-3.66.55-.36,1.17-.59,1.75-.9l.51-.24C48.1,11.35,48,15.57,47.83,17.27ZM49.65,8.4c-1,.4-1.91.9-2.83,1.35-.74.31-7.21,3.26-7.93,3.61s-1.76.75-2.62,1.19-1.75.78-2.59,1.24c-1.21.6-2.43,1.15-3.63,1.76h0a2.35,2.35,0,0,0,0-.26c0-.14,0-.32,0-.46.73-.33,1.45-.67,2.15-1a16.54,16.54,0,0,1,2-1,15.68,15.68,0,0,1,1.6-.77c.7-.3,1.37-.65,2.07-.92,1.26-.55,8.26-3.7,9.5-4.28a24.36,24.36,0,0,0,2.3-1.26c0,.06,0,.13,0,.19C49.69,8,49.65,8.18,49.65,8.4Z"/><path class="cls-8" d="M14.09,31.78a2.75,2.75,0,0,1-1.87,1.95c-1.54.4-2.15-1.82-2.15-1.82l.75-3.4a1.42,1.42,0,0,1,1.4.27c.75.56,1.21.88,1.46,1.65S14.09,31.78,14.09,31.78Z"/><path class="cls-9" d="M11.79,28.75s-1,.19-.95,1.89a6.82,6.82,0,0,0,1.38,3.09,2.41,2.41,0,0,1-2.7.41C8,33.39,7.46,32.6,7.35,31.58a3.26,3.26,0,0,1,2.44-3.15C11.38,28.15,11.79,28.75,11.79,28.75Z"/><path class="cls-3" d="M9.79,28.43s-1.34,1.51-1,2.9a10.79,10.79,0,0,0,1.8,3.25s-3.12-.92-3.23-2.64A3.06,3.06,0,0,1,9.79,28.43Z"/><path class="cls-10" d="M12.52,29a4.08,4.08,0,0,0,0,2.3,4.92,4.92,0,0,0,.92,1.31,1.79,1.79,0,0,0,.24-2.21C13,29,12.52,29,12.52,29Z"/><path class="cls-1" d="M13.76,32.89a2.24,2.24,0,0,0,.5-1.6,4.42,4.42,0,0,0-.58-1.51c-.11-.18-.18-.46-.41-.53a3.59,3.59,0,0,0-2.75-1.17,3.52,3.52,0,0,0-3.28,2.48A3,3,0,0,0,8,33.39a3.36,3.36,0,0,0,2.56,1.19A3.76,3.76,0,0,0,13.76,32.89Zm0-.94a3.41,3.41,0,0,1-3.5,2.19,3.4,3.4,0,0,1-2.48-1.82,2.54,2.54,0,0,1,.32-2.55,3.24,3.24,0,0,1,2.71-1.26,3.43,3.43,0,0,1,2.43,1.38A2.86,2.86,0,0,1,13.77,32Z"/></g></g></svg>