<svg xmlns="http://www.w3.org/2000/svg" viewBox="0 0 63.21 47.22"><defs><style>.cls-1{fill:#b27e4c;}.cls-2{fill:#f4f4f4;}.cls-3{fill:#d4d4d6;}.cls-4{fill:#fcd4ac;}.cls-5{fill:#d09971;}.cls-6{fill:#6b1e1e;}</style></defs><g id="Layer_2" data-name="Layer 2"><g id="Card"><polygon class="cls-1" points="32.6 0.01 32.6 0 32.48 0.01 32.6 0.01 32.6 0 32.6 0.01 32.6 0.01"/><polygon class="cls-1" points="25.05 0.66 25.05 0.67 25.05 0.67 25.05 0.66"/><polygon class="cls-1" points="25.05 0.66 25.05 0.67 25.15 0.66 25.1 0.66 25.05 0.66"/><path class="cls-2" d="M20.54,7.55S9,11.17,8.38,11.52.78,13.87.78,13.87l-.59.28s2.24,5.09,2.49,5.51,3.5,7.45,3.7,7.75,1,2,1,2S9.52,29,10,28.77s4.51-1.68,4.51-1.68-2.87,3.23-3.46,3.8S6.81,35.4,6.61,35.58s-.94,1.07-.94,1.07a4.94,4.94,0,0,0,1.16.86c.55.24,8,4,9.06,4.5s6.63,3.07,6.63,3.07.44,0,.95-.79,2.71-4.14,2.71-4.14,5.28,2.68,5.93,3,6,2.72,6.71,3a10.91,10.91,0,0,1,1.62,1,22.23,22.23,0,0,0,1.4-1.85c.41-.68,3.51-5.14,3.89-5.68S50,33.5,50.18,33.12s1.6-2.58,1.6-2.58l2.07.79s1.28-1.64,1.65-2.2,4.27-6.16,4.7-6.86S63,18.11,63,18.11s-4.5-2-5.18-2.32-6-2.6-6.36-2.8-4.4-1.93-5.1-2.23-3.87-1.6-3.87-1.6l.44,4,.61,3.73L43.33,18v1.05l-.1.32s-1.73.11-2.22.11a25.52,25.52,0,0,0-3.48-.35,35.84,35.84,0,0,1-4.25,0l-3.77.05-9.37-.19-.81-1.91s1-6.09,1.07-6.39.51-3.21.51-3.21Z"/><path d="M30.48,39.09v0h0v0Z"/><path d="M54.93,21.33h0v0l0,.08Z"/><path d="M46.35,18.94a.61.61,0,0,0,.8-.3c.21-.55.39-1.11.59-1.66s.52-1.28.76-1.92a.6.6,0,0,0-.54-1c-.68.08-.78,1.25-1.08,1.78s-.5,1.35-.75,2C45.94,18.25,45.91,18.75,46.35,18.94Z"/><path d="M57.75,17.18c-.68.09-.78,1.26-1.08,1.79s-.49,1.35-.74,2a.7.7,0,0,0,.21,1,.61.61,0,0,0,.8-.3c.21-.55.4-1.11.59-1.66s.52-1.28.77-1.92a.61.61,0,0,0-.55-1Z"/><path d="M52.51,17.77a24.5,24.5,0,0,0-1.83,3.14c-.25.46-.53.94-.79,1.42a.61.61,0,0,0,.29.81c.82.37,1.12-1.06,1.51-1.56.53-.93,1-1.95,1.61-2.86C54,18.1,53.2,17.07,52.51,17.77Z"/><path d="M47.27,23.9A16.07,16.07,0,0,1,47.89,22c.19-.51.42-1,.66-1.49A.61.61,0,0,0,47.44,20a19.11,19.11,0,0,0-1.25,3.23c-.09.59-.64,1.61.24,1.82C47.1,25.15,47.17,24.38,47.27,23.9Z"/><path d="M54.82,23.86a17.55,17.55,0,0,0-1.25,3.23c-.1.59-.65,1.61.24,1.82.67.11.73-.66.84-1.14a18,18,0,0,1,.61-1.93c.2-.51.43-1,.66-1.49A.6.6,0,0,0,54.82,23.86Z"/><path d="M43.06,21.63c-.68.14-.73,1-1,1.54s-.27,1-.43,1.44a.61.61,0,0,0,.41.75.6.6,0,0,0,.75-.4c.23-.7.4-1.41.65-2.1.07-.24.27-.42.23-.69A.6.6,0,0,0,43.06,21.63Z"/><path d="M39.33,21.59c-.24.43-.58,1.09,0,1.38s.84-.34,1-.78.9-.72.49-1.29S39.6,21.06,39.33,21.59Z"/><path d="M52.05,16c.58.25.84-.35,1-.78s.91-.72.5-1.29-1.28.16-1.55.69S51.44,15.7,52.05,16Z"/><path d="M51.73,25.46c-.87-.32-1,.87-1.17,1.45s-.79,1.61.07,1.95.87-.91,1.06-1.46c.08-.33.17-.67.28-1A.64.64,0,0,0,51.73,25.46Z"/><path d="M45.15,12.05c-.59.24-.91,1.28-1.32,1.78a.61.61,0,0,0-.12.64.62.62,0,0,0,.63.39c.53-.09.69-.73,1-1.12s.33-.53.51-.78A.62.62,0,0,0,45.15,12.05Z"/><path d="M48.28,24.89a.61.61,0,0,0-.62.59c-.07.19-.17.39-.25.58-.23.52-.41,1.05-.59,1.59a.61.61,0,0,0,.4.76c.74.2.84-.72,1-1.21C48.44,26.51,49.52,25.12,48.28,24.89Z"/><path d="M44.73,17.63c-.66,0-.69.81-.86,1.28s-.4,1.22.25,1.43.82-.58.91-1.1S45.69,17.8,44.73,17.63Z"/><path d="M17.91,15.84a6.24,6.24,0,0,0-.68-1.75c-1.59-2.77-5.09-2.63-7.11-.38a6.68,6.68,0,0,0-1.59,4,6.13,6.13,0,0,0,.86,3.68,4.21,4.21,0,0,0,3.13,2,4.68,4.68,0,0,0,3.42-1.28A6.55,6.55,0,0,0,18,18.31,6.42,6.42,0,0,0,17.91,15.84Zm-1.06,1.72a6.06,6.06,0,0,1-.94,2.8,5.76,5.76,0,0,1-2,1.54,3.65,3.65,0,0,1-1.7.16h0a2.27,2.27,0,0,1-.84-.29,4.8,4.8,0,0,1-1.69-4,6.18,6.18,0,0,1,.94-2.81,6,6,0,0,1,2-1.54,3.68,3.68,0,0,1,1.71-.16h0a2.29,2.29,0,0,1,.83.29A4.78,4.78,0,0,1,16.85,17.56Z"/><path d="M16.87,34.89A5.56,5.56,0,0,1,16.08,32c-.41.68-.74,1.42-1.12,2.13a3.44,3.44,0,0,1-.4.7.61.61,0,0,1-1-.69c.55-1.06,1.06-2.15,1.7-3.16.32-.55,1-1.26,1.58-.64.65.9.29,2.14.65,3.16a46.18,46.18,0,0,1,4-6.35c.52-.81,1.42-.57,1.63.33a8.34,8.34,0,0,1,0,2.82,7.27,7.27,0,0,1,2.21-2.4c1-.28,1.33,1,1.15,1.8a1,1,0,0,1,1.75.5c.69-1.09,2.21-2.3,2.66-.32a5.55,5.55,0,0,0,.25.9l0,0,0,0h0l-.1.09h0l-.06.05-.06,0h0l0,0h0l-.05,0s0,0,0,0,0,0-.05,0h0l0,0,0,0-.07.08-.11.13h0l-.09.11,0,0a.1.1,0,0,0,0,.05l0,0-.13-.11a4.77,4.77,0,0,1-.39-1.3c-.63.5-.82,1.57-1.69,1.74-.68.08-.9-.66-.93-1.21-.53.61-1,2.55-2,1.73-.5-.67.17-2.25.21-3.08A13.52,13.52,0,0,0,23,33c-.13.37,0,.8-.16,1.16a.62.62,0,0,1-.5.36c-.64.05-.81-.72-.69-1.21a16.68,16.68,0,0,0,.15-2.13c.06-.9.2-1.81.2-2.72-1,1.49-2,2.93-2.87,4.5-.37.6-.9,2.26-1.71,2.26A.83.83,0,0,1,16.87,34.89Z"/><path class="cls-3" d="M51.56,31c-.06,0-.12,0-.17.08a.16.16,0,0,0-.06.08c-1.59,2.45-3.25,4.86-4.9,7.26l-1.21,1.76-3.45,5-1,1.38c-.11.14-.44.44-.12.46s.45-.3.55-.45L46,39.7l2-2.87c1.25-1.81,2.49-3.62,3.66-5.49C51.65,31.22,51.7,31,51.56,31Z"/><path class="cls-3" d="M62.63,17.7c-1.58-.77-3.2-1.49-4.84-2.15-.75-.3-1.51-.56-2.27-.89s-1.26-.61-1.89-.93c0,0,0,0,0-.05l-.31-.13-.15-.07h-.06l-.65-.26c-1.58-.77-3.2-1.49-4.84-2.15-.75-.3-1.51-.57-2.27-.89S43.71,9.4,42.92,9c-.26-.14-.48.18-.21.31a1.14,1.14,0,0,1,.42.19,30.59,30.59,0,0,0,2.78,1.3c.85.32,1.71.64,2.55,1s1.66.7,2.47,1.1,1.3.6,2,.88l0,0a1.16,1.16,0,0,1,.42.2c.91.45,1.82.92,2.77,1.29s1.72.64,2.56,1,1.66.7,2.47,1.1l1.66.75q-1.61,2.4-3.24,4.78l-1.21,1.76-3.45,5c-.32.47-.63.93-1,1.38l-.09.11a.2.2,0,0,0-.15-.07,4.62,4.62,0,0,1-1-.44,4.91,4.91,0,0,0-.74-.24,5.62,5.62,0,0,1-1.36-.52,5.19,5.19,0,0,0-1-.49c-.37-.14-.76-.21-1.13-.36a7.92,7.92,0,0,0-.78-.37c-1.09-.44-2.21-.81-3.29-1.28-.65-.26-1.24-.65-1.89-.91-1-.4-2-.75-2.92-1.13-.65-.31-1.3-.58-2-.86-.35-.16-.67-.39-1-.56s-.77-.34-1.13-.55a2.82,2.82,0,0,1-.75-.45c.32-.56.74-1.06,1.08-1.6A9.16,9.16,0,0,1,37,19.52c.06-.08.15-.17.13-.28a.19.19,0,0,0-.26-.12.18.18,0,0,0-.14.18,9.94,9.94,0,0,0-1,1.28A6.87,6.87,0,0,1,35,21.76c-.22.31-.44.62-.63.95s.3.73.63.89c.5.28,1,.49,1.54.76,0,0,0,0,0,0s-.44.46-.52.55l-.62.66-1.19,1.26-.15.16h0a29.3,29.3,0,0,0-2.69-1.19c-.9-.36-1.79-.74-2.7-1.1-.67-.32-1.34-.62-2-.91l-1-.43c-.29-.13-.62-.18-.91-.31l5.52-2.32a.42.42,0,0,0,.27-.21c0-.12,0-.26-.1-.37s-.18-.27-.26-.41l-.39-.6a1.71,1.71,0,0,0,.41,1.4c-7.68,2.58-14.82,6.7-22.66,8.71Q3.79,21.79.37,14.15,10.75,11,21.06,7.63c-.12-.31-.57-.27-.89-.17L.32,13.87a.43.43,0,0,0-.3.2.46.46,0,0,0,.05.36c2.59,5.62,4.51,9.7,7.22,15.27.34-.07.5-.12.5-.12l4.63-1.45c.3-.1.87-.31,1.48-.56L9.28,32.49,6.57,35.37c-.26.29-1.11.91-1,1.34s1.06.83,1.4,1c1.88,1.11,3.85,2,5.83,3l1.77.83,2.13,1,5.95,2.77a.78.78,0,0,0-.09-.21,2.46,2.46,0,0,0-1.28-.91A133,133,0,0,1,5.81,36.68l8.86-9.42,1.73-.7,2-.84,3.92-1.65,2-.84a1.91,1.91,0,0,0,.56.26c.24.08.48.16.72.26.63.25,1.3.55,1.94.82,1.4.66,2.82,1.22,4.27,1.78.69.28,1.34.62,2,.93l-2,2.1-4.75,5-2.7,2.88c-.27.29-1.12.91-1,1.34s1.06.83,1.4,1,.78.45,1.17.66l-2,2.92q-.46.69-1,1.38c-.1.14-.43.44-.12.46s.45-.3.56-.45l2.84-4.14c1.42.76,2.88,1.45,4.34,2.13l1.78.83,2.13,1,5.94,2.77a.78.78,0,0,0-.09-.21,2.42,2.42,0,0,0-1.28-.91,134.63,134.63,0,0,1-15.43-7.49q6.56-6.95,13.09-13.9a.56.56,0,0,0,.11-.2,6.85,6.85,0,0,0,.71.37c.77.3,1.51.68,2.29,1s1.54.58,2.31.89,1.44.75,2.2,1c1.23.54,2.53.9,3.74,1.5.54.27,1.15.35,1.7.6.38.15.71.41,1.09.55s1.12.32,1.67.55a5.56,5.56,0,0,0,1.12.48h0s0,.07.13.07.45-.3.55-.45l4.72-6.87,2-2.86c.7-1,1.39-2.05,2.08-3.08C63.14,18.27,63.48,18,62.63,17.7Z"/><path d="M44.23,30.16c-1.84-.35-4.23.2-5,2.08-1.87-.11-4.7,1-5.61,2.69a4.83,4.83,0,0,0-3.53,1.9.57.57,0,0,0-.13.14,6.57,6.57,0,0,0-.46.75,3.22,3.22,0,0,0-.33,1.05.76.76,0,0,0,.37.75.7.7,0,0,0,.66,0,.84.84,0,0,0,.32-.42c.05-.15.09-.3.14-.44a1.93,1.93,0,0,0,.11-.53,3,3,0,0,1,2.48-1.91,6.29,6.29,0,0,0,.15,2.48v0l0,0s0,.06,0,.09h0a10.94,10.94,0,0,0,.71,1.65,2.43,2.43,0,0,0,1.48,1.16,2,2,0,0,0,1.91-.34,2.31,2.31,0,0,0,.77-1.67c0-.27,0-.82,0-.82-.08-.23-.17-.45-.27-.67L38,38c-.13-.27-.27-.53-.4-.77A4.86,4.86,0,0,0,35,35.05a6.4,6.4,0,0,1,3.85-1.61c-.26,1.41,0,3.2,1.4,3.94a1.65,1.65,0,0,0,1.94.18c1.19-.94.76-2.73-.06-3.77a4.13,4.13,0,0,0-1.71-1.2c.67-1.27,2.34-1.4,3.62-1.26A.62.62,0,0,0,44.23,30.16Zm-7.82,7.49A9.32,9.32,0,0,1,37,38.77a1.87,1.87,0,0,1,.07.22,2.23,2.23,0,0,1,.05.36v.2s0,.24,0,.17a1.74,1.74,0,0,1-.05.22.57.57,0,0,0,0,.14,1,1,0,0,1-.1.17s0,.06,0,.08a.8.8,0,0,1-.13.13l0,0h0l-.15.09-.11,0H36.3a.81.81,0,0,1-.19,0,2,2,0,0,1-.41-.13l-.1,0s-.19-.12-.13-.07a1.59,1.59,0,0,1-.13-.13l-.06-.06,0,0a7,7,0,0,1-.58-1.25,9.22,9.22,0,0,1-.22-2.7A3.62,3.62,0,0,1,36.41,37.65Zm4.83-3c.32.54.73,1.43.16,1.92-1.31-.34-1.6-1.67-1.41-2.86A2.72,2.72,0,0,1,41.24,34.68Z"/><path class="cls-4" d="M22,3.52c-.37.25-.64,2.37-.83,2.88s-1.16,7-1.34,7.34a30.72,30.72,0,0,0-.46,3.41s.55,1.14.63,1.4.18.51.18.51,7.08.17,7.89.1,9-.07,9.68,0,3.77.33,4.32.3a8.1,8.1,0,0,0,1.25-.2l.16-1.87a2.22,2.22,0,0,0,.09-.7c0-.3-.85-6.1-.92-6.6s-.43-6.14-.43-6.14a21.23,21.23,0,0,0-3.43-.22c-1.16.09-8.21-.19-9-.2S22,3.52,22,3.52Z"/><path class="cls-5" d="M41.59,6s-4.87-.21-6.19-.22-8.21,0-8.63,0-4,.12-4,.12a23.86,23.86,0,0,1-.58,3.49c-.32.91-.67,4.67-.88,5.29a10.3,10.3,0,0,0-.3,2,18.5,18.5,0,0,0,2.9.14c1.59,0,6.72.13,7.61,0s6.27,0,7.35,0l3.82,0s-.26-3-.27-3.12Z"/><path class="cls-6" d="M20.18,16.86a.2.2,0,0,0,.19.08l.7,0A17.74,17.74,0,0,1,23,17c1.43,0,2.86,0,4.29,0,.78,0,1.56,0,2.33-.05s1.81.06,2.72.07c1.42,0,2.83-.1,4.26-.07.67,0,1.34,0,2-.06s1,.06,1.57.06c.77,0,1.54,0,2.3,0a.58.58,0,0,0,.28-.09l.05,0s0,0,0,0h0s0,0,0-.08c0-.37-.09-.74-.13-1.11-.09-.76-.16-1.52-.22-2.29-.09-1.37-.3-2.72-.41-4.09-.05-.88-.15-1.76-.18-2.63a20.16,20.16,0,0,0-.16-2.07l0-.11a.15.15,0,0,0-.08-.11.19.19,0,0,0-.09-.15.52.52,0,0,0-.17,0c-.6-.06-1.22,0-1.82,0-1.49,0-3-.14-4.49-.11-1.2,0-2.4,0-3.61,0-1.39,0-2.78,0-4.16,0-.79,0-1.58-.06-2.37,0s-1.57.11-2.35.06c-.11,0-.24-.06-.31.06a.28.28,0,0,0,0,.09.8.8,0,0,0-.05.21c-.26,1.27-.53,2.54-.76,3.81-.37,2-.68,4-1,6-.1.59-.18,1.18-.28,1.77a5.16,5.16,0,0,0-.08.78A.14.14,0,0,0,20.18,16.86ZM41.74,9c.22,2.53.46,5.06.75,7.58H28.64l-6.94,0c-.19,0-.56.09-.58-.15a3.53,3.53,0,0,1,.15-.85l.29-1.71.57-3.42L22.89,6q9.31-.37,18.63.11C41.59,7.11,41.66,8.07,41.74,9ZM25.37,4.32h2.8c2.32,0,4.63,0,6.94,0l6.28.12a5.32,5.32,0,0,1,.12,1.32c-6.21-.34-12.45-.37-18.67-.11l-.07-.85a1.81,1.81,0,0,1,0-.4c0-.15.09-.11.24-.11h2.4ZM20.51,16.24l.12-.85c.08-.57.17-1.13.25-1.7.17-1.13.36-2.26.55-3.38q.45-2.64,1-5.26a5.13,5.13,0,0,1-.06,2.17L20.92,15.6l-.14.77a.42.42,0,0,1-.08.22C20.45,16.84,20.49,16.37,20.51,16.24Z"/><path class="cls-6" d="M43.63,17.43a20.68,20.68,0,0,0-.4-3.75,60.2,60.2,0,0,1-.69-6.57c0-1-.08-2.06-.18-3.08a.56.56,0,0,0-.12-.36.53.53,0,0,0-.39-.11c-2.31-.08-4.62-.13-6.93-.18S30.29,3.32,28,3.31c-1.13,0-2.26,0-3.4,0h-1.7c-.39,0-.86-.11-1.15.23a1.89,1.89,0,0,0-.33.9L19.21,16.25a2.5,2.5,0,0,0-.05.72,2,2,0,0,0,.19.61L19.93,19a.42.42,0,0,0,.11.17.3.3,0,0,0,.16,0c6.7.33,13.42-.05,20.11.33.78.05,1.55.1,2.33.1a.81.81,0,0,0,.59-.17,1,1,0,0,0,.16-.32A7,7,0,0,0,43.63,17.43Zm-24.05-1q1-6.19,2.29-12.36c.11-.55.79-.37,1.21-.37h6.06q3.46,0,6.93.09c2,0,4,.1,6,.17a89,89,0,0,0,1.4,13.33q-12,.13-24-.19C19.51,16.84,19.55,16.61,19.58,16.39ZM43.14,19c0,.07,0,.15,0,.23h0l-.67.09c-.2,0-.39,0-.59,0l-2.08-.06C39,19.14,38.11,19,37.3,19c-1.22,0-2.44,0-3.66,0-2-.08-3.93,0-5.89,0-2.21,0-4.42,0-6.62-.12-.3,0-.6,0-.89,0,0,0,0,0,0,0a8.55,8.55,0,0,0-.47-1.28,1.28,1.28,0,0,1-.11-.2l.33,0c1.16,0,2.3.16,3.46.18s2.11-.08,3.18-.07q4.82,0,9.65.17c1,0,2.1-.08,3.15-.11s2.23.07,3.34.05a1.23,1.23,0,0,0,.43,0A10.39,10.39,0,0,0,43.14,19Z"/><path class="cls-6" d="M43.44,19.25h0v0Z"/><path class="cls-5" d="M41.52,6.15A99.25,99.25,0,0,0,31.13,5.07a39,39,0,0,0-8.24,1c-.41.3-.82,2.38-1,3s-.47,6.09-.47,6.73,1.74.62,2.44.57,16.52-.1,17.14-.92S41.52,6.15,41.52,6.15Z"/><path class="cls-4" d="M39.56,11.31a.58.58,0,0,1-.55-.37s-.82-2-2.47-2.17a2.82,2.82,0,0,0-2.06.91,3.54,3.54,0,0,1-2.74,1.09,3.79,3.79,0,0,1-2.28-1.29c-.5-.5-.79-.76-1.3-.7A4.32,4.32,0,0,0,25.79,10a.59.59,0,0,1-.88-.79A5.47,5.47,0,0,1,28,7.6a2.67,2.67,0,0,1,2.26,1,2.75,2.75,0,0,0,1.59,1c.64.08,1.12-.26,1.85-.84a3.91,3.91,0,0,1,2.92-1.17c2.37.25,3.41,2.81,3.45,2.91a.59.59,0,0,1-.33.77A.57.57,0,0,1,39.56,11.31Z"/><path class="cls-4" d="M39.23,15.31a.61.61,0,0,1-.56-.37s-.81-2-2.47-2.17a2.86,2.86,0,0,0-2.06.91,3.56,3.56,0,0,1-2.74,1.1,3.85,3.85,0,0,1-2.27-1.3c-.51-.5-.79-.75-1.3-.7a4.35,4.35,0,0,0-2.38,1.27.59.59,0,0,1-.87-.8A5.42,5.42,0,0,1,27.7,11.6a2.66,2.66,0,0,1,2.26,1,2.68,2.68,0,0,0,1.6,1c.64.08,1.12-.26,1.85-.84a4,4,0,0,1,2.92-1.17c2.37.25,3.4,2.81,3.45,2.92a.58.58,0,0,1-.34.76A.52.52,0,0,1,39.23,15.31Z"/></g></g></svg>