<svg xmlns="http://www.w3.org/2000/svg" viewBox="0 0 28.62 37.51"><defs><style>.cls-1{fill:#ff8500;}.cls-2{fill:#6b1e1e;}</style></defs><g id="Layer_2" data-name="Layer 2"><g id="Card"><path class="cls-1" d="M7.81,3.08a1.16,1.16,0,0,0-.47-.68.45.45,0,0,0-.24-.06h0a.77.77,0,0,0-.53.11L5.74,3a.5.5,0,0,0-.23.47.49.49,0,0,0,.34.39L6.57,4c.34.09.75.27,1,0A1,1,0,0,0,7.81,3.08Z"/><path class="cls-1" d="M10.06,2.31l0,0a.43.43,0,0,0,.06-.22A.49.49,0,0,0,10,1.72a.43.43,0,0,0-.33-.14.44.44,0,0,0-.34.14,1.35,1.35,0,0,0-.2.27.61.61,0,0,0-.23.15.52.52,0,0,0-.14.33.44.44,0,0,0,.14.33h0a2.06,2.06,0,0,0,0,.26.46.46,0,0,0,.33.33.86.86,0,0,0,.32,0,.73.73,0,0,0,.19-.07A.87.87,0,0,0,10,3.07.74.74,0,0,0,10.06,2.31Z"/><path class="cls-1" d="M12.1,2.08s0-.09,0-.13a.08.08,0,0,1,0,0,.87.87,0,0,0-.16-.26.63.63,0,0,0-.26-.16h0l-.14,0h-.19l-.14.06h0l-.1.09,0,0a.74.74,0,0,0-.16.27V2h0a.51.51,0,0,0,0,.13v0h0v.07a.59.59,0,0,0,0,.13h0l0,.08,0,.07a.64.64,0,0,0,.1.13h0l.11.09a.94.94,0,0,0,.15.06.9.9,0,0,0,.16,0l.17,0,.14-.07h0l.11-.08,0,0A.62.62,0,0,0,12,2.47a.48.48,0,0,0,.07-.18.77.77,0,0,0,0-.15.06.06,0,0,0,0,0Z"/><path class="cls-1" d="M15.05,1.2A.72.72,0,0,0,14.81,1,.73.73,0,0,0,14,1a2.1,2.1,0,0,0-.36.37c-.18.26-.35.52-.52.78a.46.46,0,0,0,0,.36.44.44,0,0,0,.22.28.43.43,0,0,0,.18.06.44.44,0,0,0,.42.1,2.29,2.29,0,0,0,.78-.43,1.26,1.26,0,0,0,.49-.77A.76.76,0,0,0,15.05,1.2Z"/><path class="cls-1" d="M12.21,11.86a3,3,0,0,0-.35-.91.48.48,0,0,0-.28-.22.46.46,0,0,0-.36,0,.43.43,0,0,0-.21.28.5.5,0,0,0,0,.36,1.67,1.67,0,0,1,.12.23,2.44,2.44,0,0,1,.14.46.47.47,0,0,0,.22.28.48.48,0,0,0,.64-.17A.5.5,0,0,0,12.21,11.86Z"/><path class="cls-1" d="M13.63,12.84l-.14-.59a.3.3,0,0,0-.08-.16.49.49,0,0,0-.13-.12.43.43,0,0,0-.18-.06.37.37,0,0,0-.18,0,.45.45,0,0,0-.28.22l-.05.11a.53.53,0,0,0,0,.25c0,.2.09.39.14.59a.35.35,0,0,0,.08.16.37.37,0,0,0,.13.12.55.55,0,0,0,.18.06.37.37,0,0,0,.18,0,.45.45,0,0,0,.28-.22l.05-.11A.53.53,0,0,0,13.63,12.84Z"/><path class="cls-1" d="M12.18,14.16a.34.34,0,0,0,0-.18.39.39,0,0,0-.1-.16.38.38,0,0,0-.15-.09.34.34,0,0,0-.18,0,.44.44,0,0,0-.33.13l-.07.1a.4.4,0,0,0-.07.24c0,.19.06.39.08.59a.39.39,0,0,0,0,.18.31.31,0,0,0,.1.15.4.4,0,0,0,.15.1.58.58,0,0,0,.18,0,.5.5,0,0,0,.33-.14l.07-.1a.39.39,0,0,0,.07-.23C12.23,14.55,12.21,14.35,12.18,14.16Z"/><path class="cls-1" d="M14.21,15.24a2.87,2.87,0,0,0-.18-.4.53.53,0,0,0-.28-.21.41.41,0,0,0-.19,0,.34.34,0,0,0-.17.05.54.54,0,0,0-.22.28.48.48,0,0,0,.05.37l.06.12a1.71,1.71,0,0,1,.09.3v-.05a.32.32,0,0,0,0,.16.29.29,0,0,0,.09.15.31.31,0,0,0,.15.1.39.39,0,0,0,.18,0,.48.48,0,0,0,.47-.47A1.63,1.63,0,0,0,14.21,15.24Z"/><path class="cls-1" d="M12.83,17.52c-.07-.24-.13-.48-.2-.72a.46.46,0,0,0-.57-.33.45.45,0,0,0-.28.22.5.5,0,0,0,0,.36c.06.24.13.48.19.72a.48.48,0,0,0,.22.28.46.46,0,0,0,.36.05.54.54,0,0,0,.28-.21A.53.53,0,0,0,12.83,17.52Z"/><path class="cls-1" d="M15.14,18.08l-.4-.72a.47.47,0,0,0-.28-.22.41.41,0,0,0-.19,0,.35.35,0,0,0-.17.06.48.48,0,0,0-.22.28.5.5,0,0,0,0,.36l.4.72a.51.51,0,0,0,.28.22.31.31,0,0,0,.19,0,.34.34,0,0,0,.17-.05.51.51,0,0,0,.22-.28A.5.5,0,0,0,15.14,18.08Z"/><path class="cls-1" d="M12.56,21.55c0-.1,0-.2-.06-.29a3,3,0,0,1,0-.73v.07a.52.52,0,0,0,0-.35.51.51,0,0,0-.28-.22.53.53,0,0,0-.37,0,.46.46,0,0,0-.21.28,3.48,3.48,0,0,0,0,.72,3.59,3.59,0,0,0,.11.72.47.47,0,0,0,.9-.25Z"/><path class="cls-1" d="M14.67,22.2l-.26-.65a.28.28,0,0,0-.09-.16.3.3,0,0,0-.13-.12.27.27,0,0,0-.17-.06.41.41,0,0,0-.19,0,.54.54,0,0,0-.28.21l0,.12a.33.33,0,0,0,0,.24c.08.22.17.44.26.66a.4.4,0,0,0,.08.16.41.41,0,0,0,.14.12.27.27,0,0,0,.17.06.41.41,0,0,0,.19,0,.54.54,0,0,0,.28-.21l0-.12A.36.36,0,0,0,14.67,22.2Z"/><path class="cls-1" d="M14.34,19.6l-.24-.47A.41.41,0,0,0,14,19a.48.48,0,0,0-.16-.08.41.41,0,0,0-.19,0,.35.35,0,0,0-.17.06l-.1.07a.45.45,0,0,0-.12.21l0,.12a.48.48,0,0,0,.07.24l.25.47a.37.37,0,0,0,.12.13.3.3,0,0,0,.16.08.28.28,0,0,0,.18,0,.37.37,0,0,0,.18-.05l.09-.08a.41.41,0,0,0,.12-.2l0-.13A.39.39,0,0,0,14.34,19.6Z"/><path class="cls-1" d="M17.36,20.05a.5.5,0,0,0-.21-.28,2.39,2.39,0,0,0-.43-.2,2.36,2.36,0,0,0-.46-.1.41.41,0,0,0-.18.05.29.29,0,0,0-.15.09.4.4,0,0,0-.1.15.58.58,0,0,0,0,.18.5.5,0,0,0,.14.33l.1.08.13,0a1.89,1.89,0,0,1,.34.09.56.56,0,0,1,.17.09.41.41,0,0,0,.18.05.28.28,0,0,0,.18,0,.27.27,0,0,0,.16-.08.37.37,0,0,0,.12-.13A.46.46,0,0,0,17.36,20.05Z"/><path class="cls-1" d="M17.3,21.78a.6.6,0,0,0-.09-.13l-.1-.12L17,21.4l-.09,0a1.25,1.25,0,0,0-.6-.16.52.52,0,0,0-.33.14.31.31,0,0,0-.1.15.39.39,0,0,0,0,.18.5.5,0,0,0,.14.33.43.43,0,0,0,.33.14h0l.08,0,.06,0,0,0h0a.56.56,0,0,0,.28.22.41.41,0,0,0,.19,0,.34.34,0,0,0,.17,0,.51.51,0,0,0,.22-.28A.45.45,0,0,0,17.3,21.78Z"/><path class="cls-1" d="M19,24l-.54-.46a.38.38,0,0,0-.15-.09.34.34,0,0,0-.18,0,.39.39,0,0,0-.18,0,.6.6,0,0,0-.15.09.47.47,0,0,0-.13.34.46.46,0,0,0,.13.33l.53.46a.6.6,0,0,0,.15.09.39.39,0,0,0,.18,0,.34.34,0,0,0,.18,0,.51.51,0,0,0,.16-.09.47.47,0,0,0,.13-.34A.46.46,0,0,0,19,24Z"/><path class="cls-1" d="M20.67,20.89l-.05-.11a.46.46,0,0,0-.17-.17,1.75,1.75,0,0,0-.35-.2,2.34,2.34,0,0,0-.48-.18.52.52,0,0,0-.37.05.49.49,0,0,0-.21.28.46.46,0,0,0,.05.36.48.48,0,0,0,.28.22l.26.08a2.43,2.43,0,0,1,.35.2.34.34,0,0,0,.17,0,.31.31,0,0,0,.19,0,.48.48,0,0,0,.28-.22A.46.46,0,0,0,20.67,20.89Z"/><path class="cls-1" d="M22.13,23.79a.35.35,0,0,0-.09-.16.3.3,0,0,0-.13-.12.46.46,0,0,0-.36-.05.54.54,0,0,0-.28.21.46.46,0,0,0-.05.36l.27.73a.35.35,0,0,0,.08.16.37.37,0,0,0,.13.12.5.5,0,0,0,.36.05.48.48,0,0,0,.28-.22.45.45,0,0,0,.05-.36C22.3,24.27,22.21,24,22.13,23.79Z"/><path class="cls-1" d="M23.43,23a2.53,2.53,0,0,0-.26-.52,1.71,1.71,0,0,0-.21-.26,3,3,0,0,0-.27-.23.34.34,0,0,0-.17,0,.41.41,0,0,0-.19,0,.49.49,0,0,0-.28.21.5.5,0,0,0-.05.36l.05.12a.44.44,0,0,0,.17.16l-.09-.06a1.2,1.2,0,0,1,.23.22,1.35,1.35,0,0,1,.15.26v0a.48.48,0,0,0,.22.28.47.47,0,0,0,.69-.53Z"/><path class="cls-1" d="M20.69,22.82l-.34-.59a.49.49,0,0,0-.28-.21.41.41,0,0,0-.19,0,.34.34,0,0,0-.17,0,.54.54,0,0,0-.22.28.48.48,0,0,0,.05.37l.34.58a.56.56,0,0,0,.28.22.31.31,0,0,0,.19,0,.34.34,0,0,0,.17-.05.51.51,0,0,0,.22-.28A.56.56,0,0,0,20.69,22.82Z"/><path class="cls-1" d="M15.46,25.11l-.13-.47a.28.28,0,0,0-.08-.15.4.4,0,0,0-.13-.13.41.41,0,0,0-.18-.05.37.37,0,0,0-.18,0l-.12,0a.52.52,0,0,0-.16.17l-.05.11a.53.53,0,0,0,0,.25c0,.16.09.31.13.46a.34.34,0,0,0,.08.16.5.5,0,0,0,.31.18.41.41,0,0,0,.19,0l.11-.05a.44.44,0,0,0,.17-.16l0-.12A.33.33,0,0,0,15.46,25.11Z"/><path class="cls-1" d="M12.42,25.65a1.48,1.48,0,0,1-.1-.36,1.28,1.28,0,0,1,0-.19.47.47,0,0,0-.8-.33.45.45,0,0,0-.14.33,2.72,2.72,0,0,0,.05.49,2.54,2.54,0,0,0,.17.46.27.27,0,0,0,.12.14.27.27,0,0,0,.16.08.37.37,0,0,0,.18,0,.32.32,0,0,0,.18-.06.46.46,0,0,0,.21-.28l0-.12A.53.53,0,0,0,12.42,25.65Z"/><path class="cls-1" d="M11.2,27.36c-.11-.17-.23-.34-.34-.52a.49.49,0,0,0-.12-.13.35.35,0,0,0-.16-.08.4.4,0,0,0-.19,0,.27.27,0,0,0-.17.06A.48.48,0,0,0,10,27v.12a.53.53,0,0,0,.06.24l.34.52a.37.37,0,0,0,.12.13.35.35,0,0,0,.16.08.41.41,0,0,0,.19,0A.27.27,0,0,0,11,28a.48.48,0,0,0,.22-.28V27.6A.53.53,0,0,0,11.2,27.36Z"/><path class="cls-1" d="M11.6,34.08c0-.28-.1-.56-.16-.84a1.05,1.05,0,0,0-.12-.38.71.71,0,0,0-.5-.31,2.33,2.33,0,0,0-.46,0l-.47,0L9,32.71a.46.46,0,0,0-.4.7.35.35,0,0,0-.06.22,4.38,4.38,0,0,0,.15.88,1.72,1.72,0,0,0,.37.81,1,1,0,0,0,.91.18c.29,0,.59-.06.88-.1a1.06,1.06,0,0,0,.78-.37A1.2,1.2,0,0,0,11.6,34.08Z"/><path class="cls-1" d="M16.86,33.68a2.78,2.78,0,0,0-.23-1.07,1.87,1.87,0,0,0-1.81-.86,1,1,0,0,0-.65.15.24.24,0,0,0-.09.08.46.46,0,0,0-.33.44v1.19c0,.42-.09,1,.37,1.27a2.1,2.1,0,0,0,.65.14,5.46,5.46,0,0,0,.57,0,1.89,1.89,0,0,0,1.18-.29A1.18,1.18,0,0,0,16.86,33.68Z"/><path class="cls-1" d="M22.08,33.22a3.25,3.25,0,0,0-.23-1.07,1.33,1.33,0,0,0-.85-.77,2.12,2.12,0,0,0-.62-.11,1.53,1.53,0,0,0-.56.06,1.07,1.07,0,0,0-.76,1s0,.06,0,.09a4.15,4.15,0,0,0-.15.7,1.79,1.79,0,0,0,0,.61.86.86,0,0,0,.5.55,1.22,1.22,0,0,0,.63.06l.31-.05h.12c.41.1.84.26,1.22,0A1.14,1.14,0,0,0,22.08,33.22Z"/><path class="cls-1" d="M26.24,31.31a1.69,1.69,0,0,0-2-.22l0,0a.43.43,0,0,0-.42.33l-.15,1.08a1.38,1.38,0,0,0,0,.7.73.73,0,0,0,.55.41,2.07,2.07,0,0,0,2-.44,1.61,1.61,0,0,0,.43-.92A1.28,1.28,0,0,0,26.24,31.31Z"/><path class="cls-2" d="M9.24,35.13l0,0,0,0s0,0,0,0Z"/><polygon class="cls-2" points="12.59 23.56 12.59 23.56 12.6 23.57 12.59 23.56"/><polygon class="cls-2" points="12.56 23.53 12.57 23.53 12.57 23.54 12.56 23.53"/><path class="cls-2" d="M16.47,24.14h0Z"/><polygon class="cls-2" points="16.53 24.3 16.53 24.3 16.53 24.3 16.53 24.3"/><path class="cls-2" d="M18.16,25.58A3.87,3.87,0,0,0,16.81,25a.17.17,0,0,0-.1,0V24.9a.09.09,0,0,1,0-.06l0-.07,0-.14s0-.07,0-.11l0-.12,0-.09h0v0h0a1,1,0,0,0-.05-.16l-.05-.1a.21.21,0,0,1,0-.06l0-.05a.56.56,0,0,1-.05-.08h0l0,.32c0,.06,0,.12,0,.18a1,1,0,0,1,0,.17,1.36,1.36,0,0,1,0,.2l0,.2h0a.33.33,0,0,1,0,.14c0,.6-.19,1.23-.27,1.84,0,.46-.07,1-.11,1.48a10,10,0,0,0,.8,4.52,2.86,2.86,0,0,1,.17,1,1.85,1.85,0,0,0,0,.23h0l.24.12h0l.07,0h0l.18.08h.14a5.83,5.83,0,0,0,.72-.06.18.18,0,0,0,.1,0,3.17,3.17,0,0,1,.43,0c.62-.06.49-.66.44-1.1,0,0,0,0,0,0v-.07a4.47,4.47,0,0,1,.47-1.74c.5-1.58.7-3.51-.44-4.87A3.67,3.67,0,0,0,18.16,25.58Zm1.23,4.35a7.13,7.13,0,0,1-.52,1.84,4.13,4.13,0,0,0-.28,2.06h-.06c-.37,0-.74.1-1.11.1a.27.27,0,0,0-.12,0,4.15,4.15,0,0,0-.08-.79,5.23,5.23,0,0,0-.38-1,9.66,9.66,0,0,1-.36-1.38c-.07-.64-.11-1.27-.17-1.9s.09-1.29.14-1.93c.06-.48.18-1,.23-1.47a.29.29,0,0,0,.16,0,4.77,4.77,0,0,1,1.29.71,10.26,10.26,0,0,1,.92,1.2A4.3,4.3,0,0,1,19.39,29.93Z"/><path class="cls-2" d="M21.12,26c.31.26.67.48,1,.76-.07.25.15.66.17.95v.1h0c0,.21,0,.42-.05.63-.38,1.67-.88,3.41-.43,5.13.06.17.16.36.37.36a.19.19,0,0,0,.15,0l.19,0a2.45,2.45,0,0,0,.38,0,2.69,2.69,0,0,1,.49,0l.08-.06h0l.11-.1h0l.11-.14a.25.25,0,0,0,0-.07h0l.06-.09h0a.8.8,0,0,0,.08-.16h0s0,0,0,0h0a4.49,4.49,0,0,1,0-1.32,5.6,5.6,0,0,0,0-3.93,3.56,3.56,0,0,0-.61-.83,1.52,1.52,0,0,0-.5-.51A6.25,6.25,0,0,0,22,26l0,0-.14-.08-.15-.11-.15-.1c-.14-.09-.29-.17-.44-.25l-.22-.11-.21-.12L20.27,25,20,24.9l-.21-.08-.25-.11v0a.54.54,0,0,0,.06.3C20.08,25.45,20.64,25.62,21.12,26Zm2.12,2.07c1,1.88-.3,3.4.08,5.24a7.94,7.94,0,0,0-.86.08.31.31,0,0,0-.18,0,7.37,7.37,0,0,1,.08-3.17,11,11,0,0,0,.44-2.47v-.2A3.19,3.19,0,0,1,23.24,28.07Z"/><polygon class="cls-2" points="20.68 25.21 20.69 25.21 20.69 25.21 20.68 25.21"/><polygon class="cls-2" points="8.08 6.01 8.08 6.01 8.09 6.02 8.08 6.01"/><path class="cls-2" d="M9,5.42c0-.23-.13-.45-.23-.48s-.32.19-.27.36l.11.49c0,.14.12.32.26.28S9.06,5.71,9,5.42Z"/><polygon class="cls-2" points="8.88 5.1 8.88 5.1 8.88 5.1 8.88 5.1"/><path class="cls-2" d="M12.53,4.5a2.63,2.63,0,0,0,.08.49c0,.14.11.31.25.28S13,5.08,13,5s0-1.11-.4-.72A.32.32,0,0,0,12.53,4.5Z"/><polygon class="cls-2" points="9.94 7.8 9.94 7.8 9.94 7.8 9.94 7.8"/><path class="cls-2" d="M10.4,8a4.07,4.07,0,0,0,1.38-.18c.26-.13.87-.33.68-.69a5.19,5.19,0,0,1-2.79.63C9.73,8,10.17,8,10.4,8Z"/><path class="cls-2" d="M11.16,6.51h0Z"/><path class="cls-2" d="M10.75,6.8a.92.92,0,0,0,.33,0,.64.64,0,0,0,.36-.11.2.2,0,0,0,.06-.31c-.09,0-1.09.25-1.09.12a.31.31,0,0,0,.21.28A.28.28,0,0,0,10.75,6.8Z"/><path class="cls-2" d="M28.28,7a4.46,4.46,0,0,0-.59-1.78,8.13,8.13,0,0,0-3.54-3.61,4.31,4.31,0,0,0-1-.52A9.19,9.19,0,0,0,21.28.3a11.13,11.13,0,0,0-6.39.36.83.83,0,0,0-1-.05,1.69,1.69,0,0,0-.69.83,1.31,1.31,0,0,1-.34.58,1.09,1.09,0,0,1-.44.1,1,1,0,0,0-.83-1c-.66-.11-1,.35-1,.94l0,0-.18,0c-.24-1-1.31-1-1.76-.14-.21.3,0,.82-.35,1-.24-.49-.34-1.08-1-1.11a2.13,2.13,0,0,0-2,1.63,1,1,0,0,0,.89.83,1.15,1.15,0,0,1,.72.43l.29.33A2.52,2.52,0,0,1,7.6,7.18c-.38.93-.29,1.5.63,2,.35.15,1.69.49,1.74.89.25,2,.39,4,.82,6-.06-.28-2.19.07-2.41.11A9.11,9.11,0,0,0,6,17.1a11.24,11.24,0,0,0-5,5.17,15,15,0,0,0-.9,3.35,14.25,14.25,0,0,0,.69,6.07A9.87,9.87,0,0,0,3.34,35a8.81,8.81,0,0,0,2.18,1.45,7.89,7.89,0,0,0,2.46,1,16,16,0,0,0,3.32-.09c1.72-.08,3.41-.06,5.11-.17l5.47-.39A25.66,25.66,0,0,0,25,36.44,5.31,5.31,0,0,0,26.71,36,2.22,2.22,0,0,0,27.5,34a1.2,1.2,0,0,0-.75-1.11c-.33-.1.09-.64.09-.89a3.86,3.86,0,0,0-.72-1.63,4.49,4.49,0,0,1,.09-1.67,2.67,2.67,0,0,0-.16-1.45c-.33-.77-.92-1.41-1.25-2.18a6.81,6.81,0,0,1-.1-1.36,5.18,5.18,0,0,0-1.06-2.32,5.12,5.12,0,0,0-2.12-1.53,2.49,2.49,0,0,0-.9-.39,4.07,4.07,0,0,1-1.09-.28,24.45,24.45,0,0,0,2.55-.66,11,11,0,0,0,1.7-.8.19.19,0,0,0,.14-.09,10.18,10.18,0,0,0,3.22-3,5.81,5.81,0,0,0,.59-1.23,5.25,5.25,0,0,0,.38-1.07,12.92,12.92,0,0,0,.5-2.68A9.75,9.75,0,0,0,28.28,7Zm-20,1.51a.76.76,0,0,1-.33-.46c0-.31.19-.62.25-.92a2.32,2.32,0,0,0,0-1A4.65,4.65,0,0,0,7.57,5a2.13,2.13,0,0,0-1.52-1.2c-.64-.2-.09-.79.25-1s.84-.56,1.17-.21.24.87.66,1A.88.88,0,0,0,8.9,3.1c.15-.32,0-.74.3-1,.11-.19.37-.3.53-.1a1.94,1.94,0,0,0,.23.53.71.71,0,0,0,1.09-.14c.13-.23,0-.73.44-.67.66.16.18.64.61.9a1.39,1.39,0,0,0,1-.06A1.62,1.62,0,0,0,13.6,2a1.6,1.6,0,0,1,.54-.85c.11-.08.27-.14.37,0a.7.7,0,0,1,.38.54c.06.77-.8,1-1.26,1.5s-.39,1.59-.26,2.27a1.21,1.21,0,0,0,.16.45c.15.24.42.3.55.55a1.59,1.59,0,0,1,.1.86,2.53,2.53,0,0,1-.74,1.48,4,4,0,0,1-3.09.68A6.16,6.16,0,0,1,8.51,8.7,1.35,1.35,0,0,1,8.25,8.55Zm8.53-4.18a18.36,18.36,0,0,1,2.45-.51A15.45,15.45,0,0,1,20.78,4l0,0,.12,0,0,0,.24,0a5.64,5.64,0,0,1,2.53,1.55,3.45,3.45,0,0,1,1.09,1.5,6.05,6.05,0,0,1,.33,2.22,6.51,6.51,0,0,1-.68,2.05,7.86,7.86,0,0,1-2,2.93,6.83,6.83,0,0,1-3.3,1.38,14.54,14.54,0,0,1-2.08.14c-.18,0-1.83.05-1.86,0-.52-1.33-.83-2.72-1.24-4.08-.11-.38-.25-.79-.34-1.19a7.52,7.52,0,0,0-.19-1.2,2.76,2.76,0,0,0,.68-.64,2.93,2.93,0,0,0,.56-1.61,1.76,1.76,0,0,0-.43-1.33,1.62,1.62,0,0,0,.19-.18A7.32,7.32,0,0,1,16.78,4.37ZM8.24,33a6.9,6.9,0,0,0,.23.83l-.15-.09a9.48,9.48,0,0,1-2.51-2.13,8.3,8.3,0,0,1-.51-8.73,7.23,7.23,0,0,1,1.42-1.79c.46-.34,1-.57,1.44-.92.33-.2.71-.3,1.06-.47a3.77,3.77,0,0,1,.81-.39,3.43,3.43,0,0,0,.55-.06,3.7,3.7,0,0,0,0,2.62c.19.41.47.77.69,1.16a.41.41,0,0,0,0,.09,19,19,0,0,1-1,2.31,13.3,13.3,0,0,0-2.07,4.45A6.85,6.85,0,0,0,8.24,33Zm13-12.59a4.85,4.85,0,0,1,1.06.55,4.77,4.77,0,0,1,1.84,2.74c.06.45,0,.9.06,1.35a3.38,3.38,0,0,0,.61,1.23,6.24,6.24,0,0,1,.86,1.66c.1.84-.29,1.69-.12,2.53a5,5,0,0,0,.52,1,.9.9,0,0,1,.13.89,1.25,1.25,0,0,0-.16.82c.11.26.37.23.6.35A.66.66,0,0,1,27,34a2,2,0,0,1-.09.64l-.15.58a.56.56,0,0,1-.07.16.44.44,0,0,1-.15.08,9.4,9.4,0,0,1-1.8.49,69.6,69.6,0,0,1-7.49.62c-1.51.09-3,.16-4.51.22l-2.21.08c-.26,0-1.65.24-1.8,0a.47.47,0,0,1,0-.17l0-.76a.37.37,0,0,0-.11-.32,3.43,3.43,0,0,0-.4,1.33l-.67-.17-.1,0s0-.08,0-.12c0-.42.18-.83.15-1.26,0,0,0,0,0-.07s-.11,0-.15,0a1.78,1.78,0,0,0-.54,1.17,6.74,6.74,0,0,1-1-.59c.12-.05.16-.2.19-.33l.2-1.09a1.47,1.47,0,0,0-.76,1.23c-.27-.15-.54-.3-.8-.47,0,0-.06,0-.06-.07a.14.14,0,0,1,0-.06l.78-1.34a.61.61,0,0,0-.53.17,2.86,2.86,0,0,0-.73.89s-.45-.35-.48-.4a.51.51,0,0,1,0-.59,6.47,6.47,0,0,1,.83-1.23.72.72,0,0,0-.48.17,3,3,0,0,0-.91,1.08,5.78,5.78,0,0,1-.6-.71.14.14,0,0,1,0-.1c0-.07,0-.14.1-.19l1.11-1s0,0,0-.07-.09-.08-.16-.07a2.62,2.62,0,0,0-1.42.9,3,3,0,0,1-.55-.84L2.5,31c-.54-.2-.85.1-1.3.27a17.43,17.43,0,0,1-.64-4.43,10.19,10.19,0,0,1,3.9-8.06,8.94,8.94,0,0,1,2.36-1.53,9.38,9.38,0,0,1,1.37-.41A3.3,3.3,0,0,1,9,16.63a5.16,5.16,0,0,1,1.57,0,2.11,2.11,0,0,0,.36.09c.25,0,.1,1.52.07,1.69s-.07.2-.17.19-.1-.06-.13-.11c-.19-.32-.36-.64-.52-1l0,1.2a1.92,1.92,0,0,0-.67.15,2.93,2.93,0,0,0-.77-1.07A5.29,5.29,0,0,1,9,18.9a.41.41,0,0,1,0,.19c-.06.19-.29.25-.49.27a2,2,0,0,0-1-1.35L8,19.32a.47.47,0,0,1,0,.17c0,.2-.25.3-.44.35a2.54,2.54,0,0,0-1.12-1.15c.06.14.75,1.41.61,1.49l-.44.28a2.69,2.69,0,0,0-1.29-1L6,20.54a1.11,1.11,0,0,1,.09.19c0,.23-.18.42-.38.54a2.28,2.28,0,0,0-1.26-.79,3.18,3.18,0,0,1,.9,1.25L5,22.34a1.94,1.94,0,0,0-1.7-.75c.21,0,.63.36.78.5s.37.53.61.73l0,0s-.23.49-.26.55a2.46,2.46,0,0,0-1.71-.53c.22.1,1.6.82,1.5,1.13a1.72,1.72,0,0,1-.14.4,2,2,0,0,0-.71-.21,4,4,0,0,0-1,0,7.8,7.8,0,0,1,.93.31,1.33,1.33,0,0,1,.48.27c.07.07.15.15.23.11-.11.05-.1.54-.12.64a4.79,4.79,0,0,0-1.77,0l.71.19a2,2,0,0,1,.58.21c.14.08.27.2.43.17-.11,0,0,.67,0,.76-.11.24-1,.18-1.33.26a6,6,0,0,1,.92.25,1,1,0,0,1,.32.18c.24.22.17.75.22,1.05a7.68,7.68,0,0,0,2.34,4.25,13.5,13.5,0,0,0,1.18,1c.24.17,1.17.48,1.25.72a1.5,1.5,0,0,1,0,.37.39.39,0,0,0,.14.33.3.3,0,0,0,.42-.14c.18-.37-.22-1.27-.33-1.65a8,8,0,0,1-.37-1.87A8.8,8.8,0,0,1,10,26.73a19.44,19.44,0,0,0,1.56-3c.05-.12.08-.25.12-.38a.64.64,0,0,0,0-.07l.27.33a8.37,8.37,0,0,1,1.06,1.72.28.28,0,0,0-.1.09c-.52.95-1.06,1.9-1.61,2.85a5.65,5.65,0,0,0-.87,2,16.18,16.18,0,0,0,.67,2.79,5.27,5.27,0,0,1,.19,1.48.36.36,0,0,0,0,.23c.28.49,1.91.11,2.34,0a.36.36,0,0,0,.2-.08.36.36,0,0,0,.06-.27,16.94,16.94,0,0,1,.16-3,22.9,22.9,0,0,0,.13-3.1A7.52,7.52,0,0,0,14,26.11a7.39,7.39,0,0,0-1.38-2.54,14.54,14.54,0,0,1-1.14-1.35,3,3,0,0,1-.08-3.31,3.74,3.74,0,0,0,.22-1.82,2.74,2.74,0,0,0-.18-.79A15,15,0,0,1,11,14.07c-.27-1.34-.33-2.71-.53-4.06h.65a5,5,0,0,0,1.78-.43l.07,0a9.7,9.7,0,0,0,.54,2.52c.38,1.21.63,2.49,1.1,3.67.44,1,.62,2.17,1.52,2.85a4.46,4.46,0,0,0,1.71.79.34.34,0,0,0,.2.06h0l1,.24c.5,0,.93.37,1.44.34A2.33,2.33,0,0,1,21.25,20.37Zm-7.58,10c-.05,1-.23,2-.28,3a4,4,0,0,0,0,1,5.63,5.63,0,0,0-.93.14,1.83,1.83,0,0,1-.33,0H11.9a10.6,10.6,0,0,0-.55-2.7A2.49,2.49,0,0,1,11.57,29c.51-1,1.12-1.91,1.63-2.91a1.06,1.06,0,0,1,.1-.17c0,.12.1.24.14.37A13.21,13.21,0,0,1,13.67,30.34Zm14-18.59a1.64,1.64,0,0,1-.25.87c.06-.08-1.08-1.25-1.25-.74,0,.12.15.14.23.2a3.67,3.67,0,0,1,.6.52,1.19,1.19,0,0,1,.19.35,1.65,1.65,0,0,1-.47,1.28c.22-.2-.87-1-1.05-1.09.17.43.52.77.67,1.23a.61.61,0,0,1,0,.46c-.34.6-.53.21-.76-.21-.1-.17-.25-.43-.47-.37a3.14,3.14,0,0,1,.47,1.15.54.54,0,0,1,0,.28.64.64,0,0,1-.19.21.9.9,0,0,1-.34.22c0-.08-.09-.13-.11-.19a4.29,4.29,0,0,0-.67-1.11c-.07-.09-.12-.13-.23-.1a7.29,7.29,0,0,1,.55,1.5.42.42,0,0,1,0,.33.4.4,0,0,1-.13.13A3.48,3.48,0,0,1,24,17a3.12,3.12,0,0,1-.38-1,1,1,0,0,0-.11-.23.24.24,0,0,0-.22-.09,2.74,2.74,0,0,1,.29,1.22.75.75,0,0,1-.06.39c-.09.18-.45.29-.62.39a4.77,4.77,0,0,0-.27-1.05c-.06-.15-.16-.32-.31-.32a2.14,2.14,0,0,1,.23,1.09.81.81,0,0,1-.12.4,1,1,0,0,1-.73.33,2.59,2.59,0,0,0-.3-1.22,3.7,3.7,0,0,1,0,1.15.39.39,0,0,1-.08.21.49.49,0,0,1-.23.11l-1.16.27a3.55,3.55,0,0,0,0-.86.42.42,0,0,0-.08-.21.16.16,0,0,0-.2-.05,1.91,1.91,0,0,1,0,.79c-.14.5-.53.51-1,.6a1.11,1.11,0,0,1-.26,0c.15,0,.12-1.29-.13-1.39a3.55,3.55,0,0,1-.06.8.71.71,0,0,1-.21.41.58.58,0,0,1-.64-.07c-.16-.16-.1-.47-.11-.7a.51.51,0,0,0,0-.24.21.21,0,0,0-.18-.13,1.39,1.39,0,0,1,0,.5c-.14.57-.69-.13-.84-.34a5,5,0,0,1-.58-1.34c.66-.08,1.39,0,2.07,0,.87,0,1.71-.16,2.56-.27A6.78,6.78,0,0,0,22.48,15a6.2,6.2,0,0,0,1.92-2.24,17.06,17.06,0,0,0,.92-1.93,4.52,4.52,0,0,0,.33-2.51,4.75,4.75,0,0,0-.84-2.4c.11.13.6-.38.52-.6a2.7,2.7,0,0,1-.57.18,1.26,1.26,0,0,1-1-.69c-.05-.23.45-.62.61-.87a.23.23,0,0,0,0-.26c-.17.06-.32.29-.48.41a1.09,1.09,0,0,1-.72.23c-.08,0-.69-.39-.71-.36.21-.22.65-.75.41-1.06a2.19,2.19,0,0,1-.7.75.41.41,0,0,1-.25.08c-.14,0-.54-.16-.48-.33s.23-1.12-.1-1.32a.66.66,0,0,0-.13.28,3.62,3.62,0,0,1-.23.84c0,.06-.07.13-.14.16s-.46,0-.62,0a2.52,2.52,0,0,0,0-1.36A.21.21,0,0,0,20,1.84a2.77,2.77,0,0,1-.3,1.39.27.27,0,0,1-.07.08s-.86,0-.84,0c-.11-.47,0-.88-.37-1.31a2.93,2.93,0,0,1-.32,1.45,6,6,0,0,1-.85.17c-.18,0-.08-1.53-.38-1.61s-.14.85-.13,1c0,.46-.08.79-.5,1,.23-.09-.29-1.29-.39-1.41a.13.13,0,0,0-.1-.06c-.07,0-.08.11-.07.17a5.09,5.09,0,0,1,0,1.35.51.51,0,0,1-.06.21c-.05.07-.35.12-.35.17a1.16,1.16,0,0,0-.46-1.12.87.87,0,0,0-.09.45c0,.28.09.8-.05,1s-.57.36-.75.64a2.72,2.72,0,0,0,0-.3A2.11,2.11,0,0,1,14,3.55a1.32,1.32,0,0,1,.48-.36,2,2,0,0,0,1-1.5,1.12,1.12,0,0,0-.17-.6l.1,0A10.25,10.25,0,0,1,17.94.56a11.28,11.28,0,0,1,3.28.3A22.43,22.43,0,0,1,23.67,2,14.52,14.52,0,0,1,26.3,4,10.08,10.08,0,0,1,27,5c.2.34.44.71.14,1A2.33,2.33,0,0,1,26,6.67a.16.16,0,0,0,.16.14,2.55,2.55,0,0,0,1.41-.6,3.54,3.54,0,0,1,.24,1,4.21,4.21,0,0,1,.12.48c-.06,0-.14,0-.21,0a2.67,2.67,0,0,1-1,.16c0,.17.13.28.3.28h.25c.28,0,.63,0,.67-.28a10.86,10.86,0,0,1,.14,1.41l-.44-.19A.54.54,0,0,0,27.35,9a.62.62,0,0,0-.53.22c.32.15.67.12,1,.37s.2.91.08,1.38a1.31,1.31,0,0,0-.23-.24,1.48,1.48,0,0,0-.72-.18.27.27,0,0,0-.19.15c.09-.18.78.46.83.53A.83.83,0,0,1,27.7,11.75Zm-3.41,3.46Z"/><path class="cls-2" d="M8.62,35.94h0Z"/><polygon class="cls-2" points="8.62 35.78 8.62 35.79 8.62 35.79 8.62 35.78"/><polygon class="cls-2" points="7.25 35.3 7.25 35.3 7.25 35.29 7.25 35.3"/><polygon class="cls-2" points="6 34.49 6 34.49 6 34.49 6 34.49"/><polygon class="cls-2" points="5.84 34.58 5.84 34.58 5.84 34.58 5.84 34.58"/><polygon class="cls-2" points="4.06 32.62 4.07 32.61 4.07 32.61 4.06 32.62"/><polygon class="cls-2" points="2.45 30.97 2.45 30.97 2.45 30.97 2.45 30.97"/><path class="cls-2" d="M2.9,29.1H2.65c-.45,0-1.22,0-1.25.36l.1,0,.18-.05.21,0h0l.21,0h.18l.21,0h.2l.17,0,.15,0,.14,0A.26.26,0,0,0,2.9,29.1Z"/><path class="cls-2" d="M3.56,28a0,0,0,0,1,0,0H3.25L3,28H1.88l-.21,0H1.59l-.25,0h0a.33.33,0,0,0,0,.21h0l.24,0h0l.14,0,.11,0,.28,0H3.26l.17,0h0l.12,0a.39.39,0,0,1,.11.06h0A.28.28,0,0,0,3.56,28Z"/><polygon class="cls-2" points="2.19 28.22 2.19 28.22 2.19 28.23 2.19 28.22"/><polygon class="cls-2" points="3.7 21.6 3.71 21.6 3.71 21.6 3.7 21.6"/><polygon class="cls-2" points="5.25 21.54 5.25 21.54 5.25 21.53 5.25 21.54"/><polygon class="cls-2" points="7.1 19.19 7.1 19.19 7.1 19.19 7.1 19.19"/><polygon class="cls-2" points="7.58 18.02 7.58 18.02 7.58 18.03 7.58 18.02"/><polygon class="cls-2" points="7.58 18.03 7.58 18.03 7.58 18.03 7.58 18.03"/><polygon class="cls-2" points="15.12 3.61 15.12 3.62 15.13 3.62 15.12 3.61"/><path class="cls-2" d="M16.18,3.23v0h0Z"/><polygon class="cls-2" points="17.12 2.63 17.12 2.63 17.12 2.63 17.12 2.63"/><path class="cls-2" d="M17.16,2.06a.35.35,0,0,1,.06.14h0A.26.26,0,0,0,17.14,2Z"/><path class="cls-2" d="M27.68,9.71h0l0,0h0Z"/><polygon class="cls-2" points="24.29 15.22 24.29 15.22 24.29 15.22 24.29 15.22"/><polygon class="cls-2" points="24.27 15.19 24.27 15.18 24.27 15.18 24.27 15.19"/><polygon class="cls-2" points="23.5 16.24 23.5 16.24 23.5 16.24 23.5 16.24"/></g></g></svg>