<svg xmlns="http://www.w3.org/2000/svg" viewBox="0 0 40.42 44.49"><defs><style>.cls-1{fill:#fcd4ac;}.cls-2{fill:#6b1e1e;}.cls-3{fill:#d09971;}</style></defs><g id="Layer_2" data-name="Layer 2"><g id="Card"><path class="cls-1" d="M6.67,28.44,22.86,13.88S21.35,8.41,23,6.49s3-4.06,5.58-5.25S36-.15,38.42,2.88s1.48,7.57,1.4,7.92a12,12,0,0,1-4.53,5.56c-2.8,1.55-8,1.31-8,1.31l-.86-.51-.72-.58a25.39,25.39,0,0,1-2.29,2.29c-.58.39-14,12.58-14,12.58a6.12,6.12,0,0,1-.08,2.93c-.48,1-1.75,2.84-2.92,3s-3.73.63-4.75-1-2-4.32-.53-5.81,1.62-2,3.12-2.08S6.67,28.44,6.67,28.44Z"/><path class="cls-2" d="M.9,44.23v.07A.2.2,0,0,1,.9,44.23Z"/><path class="cls-2" d="M1.16,44.4l0,.09h0Z"/><path class="cls-3" d="M22.66,11.1s1.3,2.66,2.94,3.06,3.13,1.11,5.39.46,5.73-2.75,6.37-4.22S39,7.74,38.9,6.9A4.41,4.41,0,0,1,39.23,5a7.62,7.62,0,0,1-.06,7.29A10.46,10.46,0,0,1,32,17.59a9.83,9.83,0,0,1-5-.12,10,10,0,0,1-1.31-.89L9.38,31.45s.75,4.09-1.8,5.37a5.74,5.74,0,0,1-5,.47C1.82,37,.4,34.22.4,34.22S3.46,36,5.84,34.14a5.17,5.17,0,0,0,2.25-4L24.5,14.51s-.85-.7-1-.87a4,4,0,0,1-.93-1.14A3.69,3.69,0,0,1,22.66,11.1Z"/><path class="cls-2" d="M7.12,37.43a3.83,3.83,0,0,0,1.33-1.06,6.32,6.32,0,0,0,.93-1.56,6,6,0,0,0,.5-1.5,3.44,3.44,0,0,0,0-.85,6,6,0,0,1-.15-.83c0-.37.82-.88,1.1-1.15l4.08-3.76,5.28-4.81L23,19.38l1.42-1.27a9.85,9.85,0,0,1,1.34-1.17s.81.56.9.6a4.86,4.86,0,0,0,1.1.41,11.49,11.49,0,0,0,2.49.12,10.8,10.8,0,0,0,8-3.94,9.1,9.1,0,0,0,.9-1.3,10.5,10.5,0,0,0,1.2-3.52,7.72,7.72,0,0,0-.55-3.64c-.18-.52-.45-1-.58-1.57a3.85,3.85,0,0,0-.75-1.58,6.35,6.35,0,0,0-1.81-1.35A9.14,9.14,0,0,0,34.42.29a9.39,9.39,0,0,0-5.15.14,14.63,14.63,0,0,0-3,1.9,12.85,12.85,0,0,0-3.08,3.12A7.8,7.8,0,0,0,22,9.76a7.44,7.44,0,0,0,.83,4.12C21,15.59,8.68,26.66,8.49,26.78a13,13,0,0,0-1.82,1.66,4.69,4.69,0,0,0-3.55.08A5.71,5.71,0,0,0,1.27,30,4.91,4.91,0,0,0,.16,31.75,5,5,0,0,0,.7,35.52a6.29,6.29,0,0,0,.66,1,3.8,3.8,0,0,0,1.91,1.29,6.93,6.93,0,0,0,1.93.08A4.4,4.4,0,0,0,7.12,37.43Zm19.1-21.31ZM39.93,8a5.78,5.78,0,0,1-.29,2.06A10.23,10.23,0,0,1,38,13.65,10.15,10.15,0,0,1,33,17c-2.06.69-5,1.12-6.83-.4.12-.1.1-.3.05-.46a4.3,4.3,0,0,0-1.33-1.9,12.41,12.41,0,0,1,1.37.48,8.6,8.6,0,0,0,4.36.24,12,12,0,0,0,2.81-1.08,11.13,11.13,0,0,0,2.44-1.56,10.81,10.81,0,0,0,3-3.92,12.05,12.05,0,0,0,.35-1.31c.06-.32,0-.88.21-1.12A4.33,4.33,0,0,1,39.93,8Zm-14.8-4a18.86,18.86,0,0,1,3-2.39A8.56,8.56,0,0,1,29.31,1,8,8,0,0,1,33.4.64a8.65,8.65,0,0,1,1.8.46,5.47,5.47,0,0,1,1.67.84l0,0a10.52,10.52,0,0,1,1.35,1.15,1.66,1.66,0,0,1,.24.3,2,2,0,0,1,.14.34,6.54,6.54,0,0,1,0,3.26A5.48,5.48,0,0,1,38,8.93,11.83,11.83,0,0,1,35.32,12a11.85,11.85,0,0,1-2.63,1.56,8.59,8.59,0,0,1-2.93.94,8.72,8.72,0,0,1-3.44-.38c-.52-.2-1.08-.33-1.59-.57a2.79,2.79,0,0,1-1.1-1.08A6.48,6.48,0,0,1,22.7,8a7.09,7.09,0,0,1,1.92-3.42C24.79,4.4,25,4.22,25.13,4.05Zm-2.5,7.61a3.57,3.57,0,0,0,.58,1.09,6.46,6.46,0,0,0,.44.67.29.29,0,0,0-.31,0,.23.23,0,0,0-.07.07h0A5.82,5.82,0,0,1,22.63,11.66ZM23.49,14l.05,0c.21.12.43.21.63.34a4.76,4.76,0,0,1,1.51,1.82.69.69,0,0,0,0,.13c-.26.23-.49.49-.74.72s-13.2,12-13.6,12.32c-.56.59-1.24,1.08-1.79,1.68a.33.33,0,0,0-.15-.12,7.45,7.45,0,0,0-1-1.21,4.94,4.94,0,0,0-1.25-1C8.55,27.35,23,14.51,23.49,14ZM5.87,37.24c-.51,0-1,.08-1.57.1a2.45,2.45,0,0,1-1-.13,3,3,0,0,1-1.1-.59c-.15-.12-.26-.41-.45-.46C.6,34.61.06,33,1,31.12c.37-.46.78-.88,1.16-1.34a10.85,10.85,0,0,1,1-.71,4.27,4.27,0,0,1,2.32-.35c1.65.14,2.82,1.48,3.63,2.82a4.31,4.31,0,0,1,.2,1.67A11.46,11.46,0,0,1,9,34.35a11.05,11.05,0,0,1-.6,1.11,2.21,2.21,0,0,1-.47.66,6,6,0,0,1-1.18,1A2.48,2.48,0,0,1,5.87,37.24Z"/><polygon class="cls-2" points="22.04 10.96 22.04 10.95 22.04 10.95 22.04 10.96"/><path class="cls-3" d="M31.56,2.55s-2.81,2.78-4.35,4.33a21.43,21.43,0,0,0-3.08,4.89S26.46,7.57,28,6.43A21.44,21.44,0,0,0,31.56,2.55Z"/><path class="cls-3" d="M33.49,2S30.14,6.23,29.15,7.6a34.85,34.85,0,0,1-3.62,3.73Z"/><path class="cls-3" d="M35.29,3a36.54,36.54,0,0,1-3.42,5.35C30.59,9.68,29,11.74,29,11.74Z"/><path class="cls-3" d="M35.07,6.36s-3.2,3.75-3.6,4.8a4.5,4.5,0,0,0-.4,1.37Z"/></g></g></svg>