<svg xmlns="http://www.w3.org/2000/svg" viewBox="0 0 40.26 27.25"><defs><style>.cls-1{fill:#00a97c;}.cls-2{fill:#04684c;}.cls-3{fill:#d09971;}.cls-4{fill:#ff8500;}.cls-5{fill:#faed62;}.cls-6{fill:#59c1d7;}.cls-7{fill:#e52823;}.cls-8{fill:#bc6106;}.cls-9{fill:#cbc479;}.cls-10{fill:#3b818f;}.cls-11{fill:#9f2224;}.cls-12{fill:#fcd4ac;}.cls-13{fill:#6b1e1e;}</style></defs><g id="Layer_2" data-name="Layer 2"><g id="Card"><path class="cls-1" d="M17.27,7.33c2,.38,5.07,2.37,4.34,4.67,0,0-1.72,4.88-4.46,4.24a6.65,6.65,0,0,1-.76-.23.47.47,0,0,0,.21-.33.51.51,0,0,0-.36-.55L15.93,15a.55.55,0,0,0-.22,0h0a4.18,4.18,0,0,1-.9-.55l.06,0a.58.58,0,0,0-.35-.15.53.53,0,0,0-.36.15.5.5,0,0,0-.12.24,3.61,3.61,0,0,1-1.5-3.15C12.78,9.43,15.25,7,17.27,7.33Z"/><path class="cls-2" d="M14,8.17A4.52,4.52,0,0,1,16,7.8a5.71,5.71,0,0,0-.48,4.26A9.8,9.8,0,0,0,18.75,16a7.49,7.49,0,0,1-2.54.08.42.42,0,0,0,.11-.15.66.66,0,0,0,0-.24.53.53,0,0,0-.06-.33.58.58,0,0,0-.3-.23L15.55,15h-.07l-.08,0-.15-.08-.07-.07,0,0a.5.5,0,0,0-.85.53.84.84,0,0,0,.15.18s0,0,0,.05a4.46,4.46,0,0,1-1-.64C11.53,13.12,13.26,8.59,14,8.17Z"/><path class="cls-3" d="M4,8.9l.45,8.15H4.21l.21.33,0,.92.17,0,.21,4.07,1,.19.42-3.1H29.74l-.25-1,4.11.05a21.35,21.35,0,0,0-.1,2.9c.1.78.9,4.78.9,4.78A20.69,20.69,0,0,0,36,18.92c0-3.63.32-9.67-.19-10.68S34.58.8,34.58.8a49.48,49.48,0,0,0-1.1,5.51c0,1.2-.1,2.79-.1,2.79L6.33,8.21,6.06,4.89C6,4,6.5,3.17,5.73,1.86L5,.54,4,7.91,4.12,9Zm2.29,2.36,7.55,0A1.43,1.43,0,0,1,14,10.08a2,2,0,0,1,1.25-.71,10.17,10.17,0,0,1,3.3.11l.71.11.27.05h.09l.14,0a.47.47,0,0,1,.5,0l0,0a.69.69,0,0,1,.25,0A.59.59,0,0,1,21,9.63a.91.91,0,0,1,.6.82,1.51,1.51,0,0,1-.06.73l7.23,0,4.41.45.2,5.66-13,.28H17.23l-11-.41Z"/><polygon class="cls-3" points="5.5 26.11 4.95 24.84 6.06 24.39 5.5 26.11"/><path class="cls-4" d="M33.6,20.3A4,4,0,0,1,29,22.39c-3.5-.6-3.56-2-3.86-4.29s3.47-4.55,5.25-4.14S34.87,15.84,33.6,20.3Z"/><path class="cls-5" d="M21.22,13.91c.79.1,2.24,1,2.31,1.92s.7,3.52-.15,5-2.53,1.31-3.25,1.31-3.39.18-3.54-.62a5,5,0,0,1-.15-2.15,7.45,7.45,0,0,0,.34-2.16,2.72,2.72,0,0,0-.62-1.34s.88-1.63,1.93-1.74,1-.9,1.72-.54A2.89,2.89,0,0,0,21.22,13.91Z"/><path class="cls-6" d="M13.14,14.71c1.06,0,3.24,1,3.3,2.23s.42,3.32-.23,4.19a2.84,2.84,0,0,1-3.07,1.35c-1.54-.32-3.29.16-3.79.08S7.7,20.86,7.7,19.41s1-4.35,3-4.5S13.14,14.71,13.14,14.71Z"/><path class="cls-7" d="M6.33,15.91s-.7-3.8.35-4.68,3.92-2.18,5.62-.88,2.28,2.06,2.1,3a4.61,4.61,0,0,0,0,1.81,5.92,5.92,0,0,0-3.17-.27,4,4,0,0,0-2.37,1.25l-1.81.06Z"/><path class="cls-8" d="M26.7,22.06a3.55,3.55,0,0,1-.62-.61c0-.05-.15-.21-.21-.31a3.72,3.72,0,0,1-.21-.39,4.88,4.88,0,0,1-.36-.89c-.09-.32-.13-.65-.23-1a.53.53,0,0,0-.16-.23,8.5,8.5,0,0,1,1.42-3.27c.63-.74,3.29-1.21,3.29-1.21S27.3,15.51,27.43,17a19.73,19.73,0,0,0,.75,4.2c.23.32,1.09,1.25,1.09,1.25l-2.28.2,0,0A.55.55,0,0,0,26.7,22.06Z"/><path class="cls-9" d="M21.72,14.37a3.54,3.54,0,0,0-2.87,1.51,10,10,0,0,0-1.4,4.51A4.42,4.42,0,0,0,18.51,22l-1.07.23-1.11-1.34V18.68l-.52-2.91s1.91-1.79,3-2,1.95-.34,2.45.11Z"/><path class="cls-10" d="M12.15,14.76S10,17.44,10.57,19.41a8.48,8.48,0,0,0,1.35,3l-2.57.17A3.62,3.62,0,0,1,7.7,19.41c.22-1.95,1.28-3.89,2.42-4.22A15.3,15.3,0,0,1,12.15,14.76Z"/><path class="cls-11" d="M10.58,9.9A3.28,3.28,0,0,0,8.7,12a12.2,12.2,0,0,0,.38,3.95s-1.57.51-2,.27-1-.36-1-1-.64-3.7,1.53-4.65S10.58,9.9,10.58,9.9Z"/><path class="cls-12" d="M.32,11.35c0,1.34.22,7.66.22,9.08s.11,6,.9,6.13,2.83.29,3.32.35.53-1.85.53-1.85v-.14c1.51,0,4.91-.07,5.52,0,.79.11,18.07.06,18.07.06h6c-.23,1.09-.41,1.9-.41,1.9a15.3,15.3,0,0,1,2.54,0c1,.13,1.17-.22,1.17-.22a39.15,39.15,0,0,0,1.48-4.92c.08-1,.27-6.6.25-7.4s.25-5.52,0-7.14S39,.91,39,.91L34.58.8l.48,1.85L5,2.85,5,.54,2.82.23,1.42.67A4.24,4.24,0,0,0,1,2.21C1,2.93.3,10,.32,11.35Zm4.62,6.94c.7,0,3.07.17,3.72.17H35.71c0,.49.06.93.08,1.27a16.43,16.43,0,0,1-.36,2.66L21.7,22.15l-16.55.24Zm-.2-9.18,10.48.45L28.14,10l7.27-.51-.13-2.23-20.85.46L4.85,7.47,5,5S6.21,5,6.61,5s14.7-.26,14.7-.26l14,.38s.38,2.66.38,3.67.12,5.29,0,6.19a6.15,6.15,0,0,0,0,.95l-16.34.3H4.87Z"/><polygon class="cls-13" points="39.13 0.81 39.13 0.81 39.13 0.8 39.13 0.81"/><path class="cls-13" d="M15.2,15.28h0Z"/><path class="cls-13" d="M.2,19.33c.12,1.53.13,3.08.34,4.61.11.82,0,1.91.61,2.57a2.11,2.11,0,0,0,.91.54,5.27,5.27,0,0,0,3.5-.21c.78-.38.22-1.22.74-1.64.23-.19,1.26-.06,1.56-.08,1.52-.06,3,0,4.55.06,3.65.09,7.3.12,11,.12h10c.31,0,.35,0,.5.22.3.46,0,1.37.6,1.64a1.58,1.58,0,0,0,.57.08A20.51,20.51,0,0,0,38,27a1.14,1.14,0,0,0,.37-.11c.34-.2.33-.9.44-1.23q.29-.84.51-1.68c.28-1.1.46-2.21.64-3.33a21.58,21.58,0,0,0,.15-3.41c0-1.12.07-2.23.1-3.34.08-2.37.09-4.77-.06-7.13a31.74,31.74,0,0,0-.45-3.64c-.13-.72-.06-2-.6-2.54S37.71.42,37.16.41l-2.41,0a1,1,0,0,0-.24,0,.73.73,0,0,0-.35.45c-.18.48-.35,1-.49,1.48-.09.32-1.93.15-2.27.16-1.87,0-3.73-.1-5.6-.08-3.26,0-6.5-.07-9.76,0-1.92.06-3.84.12-5.76.13-1,0-2,0-2.94,0-.28,0-1.1.09-1.32-.08s-.18-.83-.24-1.08C5.54.38,4.88.1,3.91,0A4.85,4.85,0,0,0,1.46.29,1.08,1.08,0,0,0,1,.77a6.06,6.06,0,0,0-.2,1.81C.7,3.3.65,4,.61,4.73.55,6,.42,7.22.29,8.47S.07,10.7,0,11.82A69.73,69.73,0,0,0,.2,19.33ZM34.78,3c.1.63.2,1.26.28,1.89l-.21,0c-2.8-.12-5.6-.29-8.4-.35Q21,4.4,15.54,4.53q-2.74.06-5.49.21c-1.55.08-3.29.44-4.8,0C4.76,4.56,5,3.2,5,2.85c.27.36,1,.19,1.4.19l2,0,4,0q9.48-.06,19,0l2.74,0C34.3,3,34.57,3,34.78,3ZM16.32,15c-.17.23-.32.49-.47.73l0,0s-.09,0-.13,0L14.86,15c-.27-.23-.15-1.12-.2-1.49A4.88,4.88,0,0,0,14,11.66c0-.07-.09-.13-.13-.19h.25a.55.55,0,0,1-.15-.08.53.53,0,0,1-.32-.54.87.87,0,0,1,.07-.17,7.61,7.61,0,0,1-2.45-1l18.14.43,2.13.06h.75a2.14,2.14,0,0,1,.62,0c.28.13.27.52.19.78a15.48,15.48,0,0,1-1.67,0H29.75l-3.31,0-5,.05,0,.3v.06h0a.57.57,0,0,1,0,.13.1.1,0,0,1,0,.07c1.24,0,2.48,0,3.69-.11s2.15-.11,3.23-.12a12.66,12.66,0,0,1,2.61.13l2.28.06c0,1.13,0,2.26,0,3.38a1,1,0,0,0,0,.17A.92.92,0,0,1,33,15a5.4,5.4,0,0,0-4.92-1,3.27,3.27,0,0,1-.55.25,5,5,0,0,0-.78.45c-.19.15-.37.32-.55.46l-.22.34a.4.4,0,0,0-.11.32H24.81l-1-.06a1.05,1.05,0,0,0-.21-.35,1.43,1.43,0,0,0-.14-.2l-.16-.2a3.71,3.71,0,0,0-.61-.58h0a.54.54,0,0,1-.15-.15,6.08,6.08,0,0,1-.66-.47l-.1-.05h0l-.17-.09-.06,0q-.28-.11-.57-.18a1,1,0,0,1-.24,0,5.34,5.34,0,0,0-3.79,1S16.38,14.93,16.32,15Zm.33.51a1.47,1.47,0,0,1,.64-.62A4.71,4.71,0,0,1,20.53,14a3.66,3.66,0,0,1,2.65,1.8h0c-2.24.13-4.47.07-6.71,0Zm9.87.2a1.3,1.3,0,0,1,.46-.5,2.17,2.17,0,0,0,.55-.33c.25-.14.52-.19.76-.34a7,7,0,0,1,1-.14,4.63,4.63,0,0,1,2.87.61,4.4,4.4,0,0,1,.86.81c-1.56,0-3.12,0-4.68,0-.63,0-1.27,0-1.9,0Zm-11.58.07H13.42c-.89,0-1.77,0-2.66,0-.37,0-.73.07-1.1.09l.28-.22a6.91,6.91,0,0,1,.78-.36,4.59,4.59,0,0,1,3.77.18A1.7,1.7,0,0,1,14.94,15.78Zm-5.38-.57a8.19,8.19,0,0,1-.68.47.51.51,0,0,0-.09.16c-.61,0-2,.32-2.23-.44a5.49,5.49,0,0,1-.13-2.7,3.42,3.42,0,0,1,.38-1.07A3.21,3.21,0,0,1,8.7,10.26a4.71,4.71,0,0,1,1.77-.15,4.26,4.26,0,0,1,3.74,4.14,3,3,0,0,1,0,.43,5.37,5.37,0,0,0-3.15-.1A5.3,5.3,0,0,0,9.56,15.21ZM5.41,9.09c-.11,0-.22-.07-.33,0l0,0V7.69l.07,0a2.89,2.89,0,0,1,.88,0c.63,0,1.23.08,1.84.08,1.55,0,3.09,0,4.63,0,2.52,0,5-.11,7.54-.07s4.83.14,7.24.11c1.85,0,3.7-.09,5.56,0a21.2,21.2,0,0,1,2.52,0h0c0,.56.07,1.11.09,1.67a1.63,1.63,0,0,0-.31,0c-1.34,0-2.74,0-4.07.11s-2.76,0-4.11,0c-1.55-.16-3.11,0-4.67-.13-1.35-.07-2.76-.06-4.11-.14a21.82,21.82,0,0,0-2.29-.14C12.37,9.05,8.88,9.25,5.41,9.09Zm28.32,1a.28.28,0,0,0,0-.13h1.53a.24.24,0,0,0,.2,0c0,1.24,0,2.48,0,3.73,0,.7,0,1.41,0,2.12l-.07,0-1.68,0s0,0,0-.06c0-1.53,0-3.06,0-4.6A9.2,9.2,0,0,0,33.73,10.11Zm0-2.88a10.65,10.65,0,0,1,.1-1.69.25.25,0,0,0,.06-.16l.93,0,.2,0,.12,0c0,.43.09.86.11,1.29,0,.18,0,.35,0,.53A10.15,10.15,0,0,0,33.72,7.23Zm-6.81,0,0,0c-1.4,0-2.8,0-4.2-.07a9.68,9.68,0,0,1-1.94,0h0q-7.12.09-14.24.07a.33.33,0,0,1-.22-.06A.31.31,0,0,1,6.27,7V5.79c0-.23,0-.34.07-.41s.27-.06.58-.07l1.31,0,2.51,0,5-.14c3.05-.09,6.1,0,9.15-.1a38.87,38.87,0,0,1,4.45.19c1.07,0,2.15.06,3.2.13.24,0,.48,0,.72,0,0,.62-.14,1.23-.11,1.86a.8.8,0,0,1-.31,0c-1.37,0-2.75,0-4.12,0a4.87,4.87,0,0,1-.54,0,8.08,8.08,0,0,1-.85.05ZM5,6.89c0-.3-.2-1.49.21-1.63a.31.31,0,0,1,.35,0,.86.86,0,0,1,.15.57c0,.12,0,1.29,0,1.29-.14,0-.57.08-.66,0A.36.36,0,0,1,5,6.89ZM34.9,26.67a58.8,58.8,0,0,0,1-6.47c.19-2.28,0-4.57.08-6.85a63.7,63.7,0,0,0-.29-7.69c-.08-.82-.2-1.63-.33-2.44A10,10,0,0,1,35,.94l2.13,0c.4,0,1.35-.2,1.57.24a11.64,11.64,0,0,1,.62,3.06,27.62,27.62,0,0,1,.33,3.14c.08,2,0,4,0,6,0,1.4-.14,2.8-.13,4.2a24.49,24.49,0,0,1-1.49,8.56.56.56,0,0,1-.12.23.61.61,0,0,1-.32.13,13.92,13.92,0,0,1-2.14.16ZM34,19a2.26,2.26,0,0,0,0-.26h.72c.25,0,.5,0,.75,0,0,.75-.06,1.5-.14,2.25,0,.37-.11.73-.17,1.1-.31,0-.63,0-.95,0,0,0,0-.07,0-.09-.09-.35-.08-.71-.14-1.06a5.11,5.11,0,0,1-.07-1.17A4.09,4.09,0,0,0,34,19ZM5.44,22.48c.78.05,1.63.13,2.43.16,1.06,0,2.13.07,3.19.08,1.8-.07,3.59-.11,5.38-.23,2-.07,4.07,0,6.1-.1.6,0,1.12.06,1.69.11,1,.06,1.92,0,2.88.09,2.64,0,5.29.09,7.93.09-.11.69-.22,1.38-.35,2.07h0c-2.59.05-5.19,0-7.78,0-3.65,0-7.31,0-11,0l-5.48-.05-2.62,0H7.69c-.44,0-.87,0-1.3,0-.23,0-.56.17-.78,0S5.45,22.93,5.44,22.48Zm19.62-2.75a5.5,5.5,0,0,0,.64,1.34,2.83,2.83,0,0,0,.77.95c-1.2,0-2.39-.08-3.59-.16a3.58,3.58,0,0,0,.55-.73,8.7,8.7,0,0,0,.63-1.39.38.38,0,0,0,.15,0A6,6,0,0,0,25.06,19.73Zm-.88-.53a5.27,5.27,0,0,0,0-.57h.65a3.41,3.41,0,0,0,.05.55A6.06,6.06,0,0,1,24.18,19.2Zm-16.72.55a4.52,4.52,0,0,0,.33,1.14,5.53,5.53,0,0,0,.67,1.23H8.05C7.45,22,6.84,22,6.24,22c0,0,0-1.67,0-1.82,0-.37-.07-.35.24-.46A2.45,2.45,0,0,1,7.46,19.75Zm0-.61c-.07.1-.2,0-.29,0-.24,0-.52-.05-.78,0a2.29,2.29,0,0,1,0-.37v0l1.09,0S7.43,19.11,7.41,19.14ZM8,18.91l0-.09H9c2.46,0,4.92-.11,7.37-.14a4.73,4.73,0,0,1-.94,2.69,5.56,5.56,0,0,0-.47.5.36.36,0,0,1-.11.1c-.32.21-1,.11-1.37.13-.61,0-1.23,0-1.84.06s-1.09,0-1.63,0a2.35,2.35,0,0,1-.75,0C8.31,21.72,7.92,19.78,8,18.91Zm8.76,3,.05.06L15.55,22a3.51,3.51,0,0,0,.66-.87A2.59,2.59,0,0,0,16.73,21.88Zm-.11-1.77c.1-.33.06-1.15.38-1.36s1.44,0,1.87-.05l3.93-.08c.7,0,1-.14.85.6a4.67,4.67,0,0,1-.37,1.09,4.94,4.94,0,0,1-1,1.42.33.33,0,0,1-.1.06,3,3,0,0,1-1.22.09l-1.52,0c-.47,0-1.64.23-2,0a.77.77,0,0,1-.18-.18C16.87,21.17,16.47,20.79,16.62,20.11Zm8.79-1.47c1.53,0,3.06.16,4.6.17,1.12,0,2.25,0,3.37,0a5.34,5.34,0,0,1-.36,2,3.1,3.1,0,0,1-1.05,1l-.14.09a5.8,5.8,0,0,1-2.66.16c-.5,0-1.61.16-2-.18a4.67,4.67,0,0,1-1.23-1.53A7.73,7.73,0,0,1,25.41,18.64Zm8.06,2.5,0,.22a5.2,5.2,0,0,0,.1.78l-1.17,0A6.83,6.83,0,0,0,33.47,21.14ZM5.29,18.71a.65.65,0,0,0,.31,0h.2v0c0,1.05-.08,2.13-.1,3.18h0a.34.34,0,0,0-.25,0l-.06-.56c0-.86,0-1.67,0-2.51C5.3,18.84,5.29,18.78,5.29,18.71Zm-.13-2.49,0,0a7.74,7.74,0,0,0,1.6.12,11.6,11.6,0,0,0,1.56,0c1.09.05,2.17-.11,3.26-.1,2.71,0,5.43.09,8.14.13,1.8,0,3.59-.17,5.37,0,3.34-.08,6.69,0,10,0l.15,0a.25.25,0,0,0,.15-.05c0,.63,0,1.27,0,1.91-1.84-.06-3.69.05-5.53,0-2.55-.08-5.11-.23-7.67-.19-.95,0-1.91.06-2.87.09-1.49,0-3,0-4.49,0-1.08-.08-2.16.13-3.25.1-2,.05-4.06,0-6.08-.05a.79.79,0,0,0-.29-.11c0-.57-.09-1.14-.11-1.71ZM5,12c0-.24,0-.48,0-.72a.19.19,0,0,0,.1.1,1,1,0,0,0,.42.05h.28s0,0,0,.07a.13.13,0,0,1,0,.06c-.16,1.41,0,2.84-.05,4.25l-.33,0a.25.25,0,0,0-.29,0A14.24,14.24,0,0,1,5.07,14C5,13.32,5.05,12.63,5,12Zm0-1V9.56a23.5,23.5,0,0,0,3.67.13,4.13,4.13,0,0,0-1.82,1,.74.74,0,0,1-.21.15.73.73,0,0,1-.29,0C6.21,10.87,5,10.7,5,11ZM1.44,1.31a.83.83,0,0,1,.1-.38A.89.89,0,0,1,2.18.61,6.54,6.54,0,0,1,4.43.67c.39.08.07,1.56.06,1.91,0,.71,0,1.42,0,2.12,0,2.92-.07,5.84,0,8.75s.32,5.92.32,8.87L5,24.84a6.38,6.38,0,0,1,0,1.31c-.07.4-.08.35-.51.41-1.17.16-3,.45-3.2-1.13C1,23.68.92,21.94.8,20.18A110.19,110.19,0,0,1,1.44,1.31Z"/><path class="cls-13" d="M5.7,25.2H5.5c0,.24,0,.48,0,.72a.69.69,0,0,0,0,.2A9.21,9.21,0,0,0,5.7,25.2Z"/><path class="cls-3" d="M2.43,3.9S1.7,11.22,1.7,14s.37,10.43.37,10.43-.83-8-.69-11.06S2.43,3.9,2.43,3.9Z"/><path class="cls-3" d="M2.82,10.08s.73,7.93.73,9.13v5.55Z"/><path class="cls-3" d="M38,2s1.35,6.44,1.17,9.51S38,22.78,38,22.78s.66-8.71.6-12.27S38,2,38,2Z"/><path class="cls-3" d="M37.29,10.35s-.08,3,0,4.56S36.71,24,36.71,24Z"/><path class="cls-13" d="M21.15,12.58a1.41,1.41,0,0,0,.16-.49,1.37,1.37,0,0,1,.08-.35s0-.06,0-.1c0-.37.12-.73.09-1.1a1.34,1.34,0,0,0-.23-.76c-.22-.24.14-.59.35-.36a1.73,1.73,0,0,1,.37,1,2.4,2.4,0,0,1,0,.6,3.87,3.87,0,0,0-.06.46.25.25,0,0,1,.05.29,1.12,1.12,0,0,0-.13.46,1.82,1.82,0,0,1-.19.57,6.13,6.13,0,0,1-.51.9.26.26,0,0,1-.34.09.27.27,0,0,1-.09-.35A5.2,5.2,0,0,0,21.15,12.58Z"/><path class="cls-13" d="M14.45,13.88a.25.25,0,0,1,.31.17.08.08,0,0,0,0,0s0,0,0,0l.06.1s0,0,0,0l0,0,.09.08a.1.1,0,0,0,0,0l0,0,.11.07.12.06.06,0,.06,0,0,0,.07,0,.13,0,.26.07h.39a.27.27,0,0,1,.3.18.26.26,0,0,1-.17.31A2.37,2.37,0,0,1,15.16,15a1.47,1.47,0,0,1-.88-.86A.24.24,0,0,1,14.45,13.88Z"/><path class="cls-13" d="M13.6,10.37a3,3,0,0,1,.92-1.07c.24-.22.59.13.36.35s-.65.49-.79.84a1.35,1.35,0,0,0-.1.56.76.76,0,0,0,.1.5.25.25,0,0,1-.09.34.26.26,0,0,1-.34-.09,1.17,1.17,0,0,1-.17-.69A2.08,2.08,0,0,1,13.6,10.37Z"/></g></g></svg>