<svg xmlns="http://www.w3.org/2000/svg" viewBox="0 0 79.3 43.4"><defs><style>.cls-1{fill:#d09971;}.cls-2{fill:#fcd4ac;}.cls-3{fill:#6b1e1e;}</style></defs><g id="Layer_2" data-name="Layer 2"><g id="Card"><path class="cls-1" d="M35.74,14.48c-.21.11-2.21,1.74-2.21,1.74l-3,4.68s-5.41,8.94-6.07,9.84a29.19,29.19,0,0,0-1.87,3.91l4.62.32s3.52-5.46,4.29-6.55,7.63-12.8,8.53-14a50,50,0,0,0,2.7-5l-3,2.14C39.27,11.82,36,14.37,35.74,14.48Z"/><path class="cls-1" d="M69.62,35.52l-.8-1.65-2.95-1.14-2.28-1.5-1.12-2.77,4.35,1.18-1.11-2a36.64,36.64,0,0,0-3.64-1,3.63,3.63,0,0,1-1.25-.31L59.44,23.2a30.56,30.56,0,0,0,3,.57,3.53,3.53,0,0,0,.79-.09l-1-1.58s-1.81-.29-2.47-.45l-1.56-.34s-.63-1.51-.8-1.94-1-1.78-1-1.78,1.37.35,2,.43l1.76.28-.59-1.47-4.32-1.11L53.39,12.3a4.82,4.82,0,0,1-1.91.23,6.49,6.49,0,0,1-1.19-.39l-1.11,1.39c.07,0,1.2,3.17,1.62,3.7S59.51,33,60.08,33.7s1.29,1.81,1.29,1.81l4.93-.2L65.59,34s2.25.91,2.94,1.13S69.62,35.52,69.62,35.52Z"/><path class="cls-1" d="M43.46,2.26c-1.88.67-3.72,4.59-3.7,4.55a2.52,2.52,0,0,1,.78.42c.11.13.93,0,1.42-.41L47.17,2.6A5,5,0,0,0,43.46,2.26Z"/><path class="cls-2" d="M24.51,39.71l.38,1.72,6.33.44s7.67-13.76,8.57-14.94,5.32-9,6.74-10.56,3.76-4.23,3.76-4.23a7.31,7.31,0,0,0,2,.14,4.94,4.94,0,0,1,1.25-.06s2.88.45,4,2.07,5.12,8.46,6,9.56S70,36,70.58,37.19s2.2,5.48,3.61,5.7a10.67,10.67,0,0,0,3.86-.23c.56-.18,1.35,0,1-.93S70.58,24,68.64,21.44,62.71,11.36,60.93,8.72,57.23,1.1,55,1a12.48,12.48,0,0,0-4,.69c-.12,0-1.37-1.54-2.13-1.45s-1.17.16-1.27.58L47.17,2.6,44.56,4.65,41.13,7.33a1.12,1.12,0,0,0-1.16,0c-.77.29-1,.6-1.1.94a2.67,2.67,0,0,0-.06.75l-4.62,3.86s-.24-1.06-1.13-.55-1.11.89-1.24,1.33-.4,1.1-.4,1.1l-5.76,4.78a1.66,1.66,0,0,0-1.34-.08c-.67.29-1,1.57-1,1.57l-5.38,4.43s-1.14-.53-1.55.12A2.07,2.07,0,0,0,16,26.71L9.13,31.49a1,1,0,0,0-1.22.07,1.74,1.74,0,0,0-.62,1.12L2.44,36.42a2.44,2.44,0,0,0-1,.66c-.22.39-1,2.36-.73,2.66a.72.72,0,0,0,1,.29c.44-.26,9.92-6.9,10.77-7.44s9.07-6.85,9.39-7.11,5.35-4.22,6.36-5.12S33,16.51,33,16.51s2.38-1.81,2.87-2.36,6.47-4.31,6.47-4.31a1.83,1.83,0,0,1-.43,1.74c-.76,1-5.34,8.54-5.71,9S29,32.13,29,32.13Z"/><polygon class="cls-3" points="50.34 1.67 50.34 1.67 50.34 1.67 50.34 1.67"/><path class="cls-3" d="M79,40.88c-1.37-3.38-3.12-6.61-4.74-9.88-1.47-3.16-3.19-6.19-4.93-9.2q-2.75-5-5.93-9.69C61.48,9.08,59.8,5.94,57.8,3a13.8,13.8,0,0,0-1-1.26,2.17,2.17,0,0,0-1.41-1,3.71,3.71,0,0,0-1.52,0l-.26.08h0l-.06,0a.12.12,0,0,1-.11,0l-.24.08-.08,0-.2,0,0,0-.13,0h0l-.18.05-.15,0h0l-.17,0h0l-.05,0-.28.1a.67.67,0,0,1-.28.06h-.12l-.13,0,0,0a.46.46,0,0,1-.21-.13h0L50.69.87,50.53.76l0,0L50.37.63C50,.48,49.66.07,49.21,0c-1.53-.13-2.1.67-1.92,2.14l0,0a4.19,4.19,0,0,0-4.67.25A11.75,11.75,0,0,0,40,5.61c-.25.4-.44.83-.71,1.22a.39.39,0,0,0-.1.34,2.1,2.1,0,0,0-.79,1.51c-.69.7-1.25,1.06-1.84,1.63a4.09,4.09,0,0,0-.74.7c-.55.48-1.08.92-1.65,1.38A1.07,1.07,0,0,0,33,11.93a3.9,3.9,0,0,0-1.76,2.5c-.24.24-4.23,3.28-5.77,4.67a.8.8,0,0,0-.5-.17,1.08,1.08,0,0,0-1.22.42c-.36.61-.44,1.37-1.11,1.73-.56.53-1.25.93-1.82,1.47-.88.63-1.61,1.37-2.44,2.07a3.71,3.71,0,0,1-.61.45,1.24,1.24,0,0,0-1.29,0c-.35.33-.84.73-.77,1.26a18.41,18.41,0,0,1-2.29,1.74c-.58.5-1.26.85-1.88,1.3-.82.51-1.5,1.13-2.34,1.63A.34.34,0,0,0,9,31.1.85.85,0,0,0,8.62,31c-.94,0-1.3.49-1.55,1.34-.11.19-.36.23-.52.39-.65.48-1.31,1-1.93,1.54S3.15,35.41,2.44,36c-.41.3-1,.46-1.26.9-.34.65-.66,1.34-1,2-.14.17-.26.4-.1.59a.3.3,0,0,0,.12.28,1.87,1.87,0,0,0,1.09.48c.46.14.89-.2,1.29-.39.73-.35,1.38-.82,2.07-1.23A33.9,33.9,0,0,0,8.35,36c2.47-1.75,4.83-3.67,7.18-5.58,1.42-1,2.82-2,4.14-3.09.84-.66,1.7-1.29,2.59-1.87s1.58-1.33,2.39-2c1.29-.91,2.46-2,3.68-3s2.59-2,3.9-3l.33-.24c-.38.53-.76,1.05-1.11,1.59-.84,1.18-1.55,2.44-2.33,3.66-2,2.93-3.82,6-5.53,9.08-.44.71-.81,1.43-1.2,2.17a1,1,0,0,0-.2.51l0,0a.38.38,0,0,0,.25.56l.3,0h-.05a9,9,0,0,0,1.8,0c.77,0,1.52.16,2.27.25-.78,1.28-1.55,2.57-2.29,3.88,0,0,0,0,0,0h-.07l-.15.25,0,.05s0,0,0,.06l-.08.12,0,.09c0,.21.07.42.11.63l.06.34h0v0l.06.35c0,.1,0,.21,0,.31s0,.09,0,.14a.31.31,0,0,0,.21.15h0c.11.19.3.18.49.17a1.13,1.13,0,0,1,.26,0c1.66.16,3.33.29,5,.41l.32,0c.24,0,.48,0,.72,0,0,0,0,0,0,0l.06-.08,0-.06.22-.35.09-.14h0v0h-.05a1.17,1.17,0,0,1,.05-.11c1.42-2.83,3-5.57,4.65-8.29C38.91,29.08,41.31,25,43.93,21c.4-.64.84-1.26,1.27-1.88a18.64,18.64,0,0,1,1.62-2.33,25.39,25.39,0,0,1,1.9-2.23,17.52,17.52,0,0,1,1.54-1.69,1.27,1.27,0,0,1,.24-.28l.22.08a6.1,6.1,0,0,0,2.09.06l.45,0v0a16.82,16.82,0,0,0,1.26,2.23c.07.12.12.24.18.37A3.53,3.53,0,0,0,54,15.1a.31.31,0,0,0-.29-.12,1,1,0,0,0-.64.52,1.4,1.4,0,0,0,.16,1.18,3,3,0,0,0,.85.69,14.41,14.41,0,0,0,1.85.5c.17.32.42.6.59.93.34.62.74,1.22,1,1.86a1.26,1.26,0,0,0-1.44.55c-.48,1.15,1.44,1.6,2.22,1.85l.67.22a.53.53,0,0,0,0,.18c.14.26.29.5.45.76.31.54.61,1.08.92,1.61-.69-.18-1.39-.24-1.45.59,0,1.26,2,1.76,3,2.12v0a2.41,2.41,0,0,0,.45.85c.22.47.47.94.71,1.4a3.85,3.85,0,0,0-1.06-.17.81.81,0,0,0-.57,1.15,1.64,1.64,0,0,0,.79.81c.75.41,1.55.77,2.35,1.11.34.45.66.9,1,1.37a8.47,8.47,0,0,1-.9,0c-1.12,0-2.25,0-3.37,0a3.68,3.68,0,0,0-.23-.44c-1.19-2.06-2.49-4-3.74-6.07-.88-1.55-1.78-3.08-2.64-4.64-.46-1-.94-2-1.46-2.9-1.05-2.39-2.27-4.69-3.41-7a.35.35,0,0,0-.62.32c.62,1.39,1.4,2.71,2,4.09,1.08,2.35,2.19,4.69,3.45,7,.75,1.25,1.42,2.55,2.18,3.81,1.28,2,2.62,4.1,3.82,6.21l0,0a.33.33,0,0,0,.34.37h0c1.57,0,3.16.09,4.73,0,.26-.07.55.13.77-.08s.08-.44-.09-.53a.34.34,0,0,0-.16-.23,5.77,5.77,0,0,0-.48-.7l.05,0c1.19.59,2.43,1.12,3.65,1.66.32.74.64,1.47.93,2.22s.73,1.5,1.09,2.26c.18.35.34.73.51,1.09a2.59,2.59,0,0,0,.25.66,1.76,1.76,0,0,0,.88.78,2.51,2.51,0,0,0,1.21.42l.32,0A15.74,15.74,0,0,0,77.31,43c.67,0,1.5,0,1.92-.61C79.45,41.91,79.09,41.37,79,40.88ZM51.06,1.1ZM42.74,3.19a2.91,2.91,0,0,1,.33-.26,3.81,3.81,0,0,1,3.57-.34l-3,2.3a4.6,4.6,0,0,0-.54.45A11.9,11.9,0,0,1,41.76,6.4l-1,.72a.72.72,0,0,0-.63-.32,22.12,22.12,0,0,1,1.39-2.21A7,7,0,0,1,42.74,3.19ZM17,25.64a.37.37,0,0,1,.25,0c.16.05.29.21.46.22a.62.62,0,0,0,.38-.18l4-3.23A6.65,6.65,0,0,0,24,20.35c.16-.36.39-.82.78-.76.18,0,.33.18.51.21a.88.88,0,0,0,.71-.28l4.08-3.24a6.42,6.42,0,0,0,2.16-2.42,3.08,3.08,0,0,1,.45-.93.67.67,0,0,1,.91-.15c.1.1.15.23.26.31.27.21.65,0,.91-.25l3.61-3.16A2.84,2.84,0,0,0,39,9c.28-.53.34-1.36.93-1.45a2.48,2.48,0,0,1,.71.1A2.12,2.12,0,0,0,42.11,7l5.45-4.24A1.15,1.15,0,0,0,48,2.34c.11-.29,0-.61,0-.91A1,1,0,0,1,49.23.68a3.09,3.09,0,0,1,1.38.88Q46.77,4,43.19,6.79a5.76,5.76,0,0,1-1.47.92,3.28,3.28,0,0,0-1.15.49,3.94,3.94,0,0,0-.49.78,6,6,0,0,1-1.62,1.66L35,13.35a1.84,1.84,0,0,1-.81.44c-.27.05-.54,0-.81,0a1.25,1.25,0,0,0-.95.58c-.14.24-.2.51-.34.74a2.43,2.43,0,0,1-.65.67l-5.08,4.06a1.32,1.32,0,0,1-.6.33,3.55,3.55,0,0,1-.64-.06,1.22,1.22,0,0,0-1.25.86,3.85,3.85,0,0,1-.16.69,1.58,1.58,0,0,1-.53.56L19,25.42a5.69,5.69,0,0,1-2.12,1.18c-.12,0-.42.13-.5,0s.08-.39.13-.49A.82.82,0,0,1,17,25.64ZM48.28,4.34A.63.63,0,0,0,48,4.5l-.46.36a.37.37,0,0,0-.18-.24h0l1.15-.82A5.15,5.15,0,0,0,48.28,4.34Zm-46.51,33a10.66,10.66,0,0,1,1.14-.75c.37-.28.69-.61,1-.89,1-.78,2-1.62,3-2.39.18-.15.47-.24.6-.46s.23-.61.41-.9a.9.9,0,0,1,.55-.22.79.79,0,0,1,.29.18.33.33,0,0,0,.5-.16,2.08,2.08,0,0,0,.49-.27c.69-.47,1.33-1,2-1.44,1-.69,2.08-1.4,3.08-2.15a6.42,6.42,0,0,0,1-.76,2.07,2.07,0,0,0-.21.88c-2,1.67-4.16,3.14-6.26,4.69-.78-.29-2,.55-1.82,1.43C5.66,35.72,3.44,37,1.42,38.56c-.14.11-.28.2-.42.29a.37.37,0,0,1,.05-.11C1.3,38.26,1.53,37.77,1.77,37.29ZM31.31,17.52,12.82,31.75C10.1,33.85,7.38,36,4.55,37.9a14.81,14.81,0,0,1-2.12,1.29c-.17.08-1,.52-1,.22s1-.72,1.12-.83l4.79-3.35a2.08,2.08,0,0,0,.89-1c.08-.25.08-.54.26-.73s.59-.16.9-.21a2.45,2.45,0,0,0,1.09-.55l4.86-3.59a2.55,2.55,0,0,0,1-1.05c.1-.29.12-.64.37-.81s.49-.08.74-.1a2.08,2.08,0,0,0,1-.51l5.34-4a1.78,1.78,0,0,0,.67-.77c.16-.46.18-1.26.66-1.12.17,0,.27.23.43.29s.48-.07.68-.22l6-4.75a1.81,1.81,0,0,0,.65-.75c.09-.27.08-.61.32-.76s.47,0,.72,0A1.88,1.88,0,0,0,35,14.17,29.54,29.54,0,0,0,41.11,8.9a1.05,1.05,0,0,1,.38-.32A3.4,3.4,0,0,1,42,8.49a1.76,1.76,0,0,0,.53-.3l4.34-3.25a7.17,7.17,0,0,1-2.25,2.37Zm4.2-2.38c.18.26.59.3.88.39.65.31,1.33.56,2,.9l0,.06-.25.46a2.33,2.33,0,0,0-.69-.28,15.16,15.16,0,0,0-2.5-1Zm3.22.69-.29-.16a15,15,0,0,0-2.29-.91l-.07,0,0,0c1.72-1.45,3.6-2.67,5.43-4,.25-.17.47-.38.7-.57-.05.09-.1.19-.16.28a4.59,4.59,0,0,0-.66,1.14C40.53,13,39.61,14.4,38.73,15.83ZM22.93,34.29c.19-.31.34-.74.48-.92.89-1.57,1.75-3.16,2.67-4.71,1.24-2.14,2.61-4.19,4-6.26,1.14-2,2.54-3.85,3.82-5.78a.35.35,0,0,0,0-.28l.56-.39.13-.09a.26.26,0,0,0,0,.19c.13.38.64.41,1,.54a10.73,10.73,0,0,1,1.46.67c.25.1.51.18.75.3a26.14,26.14,0,0,1-1.47,2.51c-.33.49-.65,1-1,1.49a1.65,1.65,0,0,1-.38-.29c-.37-.36-.85-.7-1.25-1.05a2.19,2.19,0,0,0-.72-.49c-.59,0-1.6.42-1.32,1.14A28.4,28.4,0,0,0,34,23.54l0,0c-.15.24-.3.48-.46.71-.53.91-1.05,1.83-1.59,2.73l-.18-.18c-.41-.46-.76-.89-1.18-1.37-.2-.21-.37-.5-.65-.62a1.23,1.23,0,0,0-1.58.81,2.3,2.3,0,0,0,.61,1.2c.58.72,1.13,1.47,1.76,2.16-.7,1.08-1.44,2.13-2.11,3.23l0,0c-.31-.47-.66-.91-.94-1.4s-.41-1-.9-1c-1.37-.07-2,.48-1.35,1.83a25,25,0,0,0,1.54,2.77.31.31,0,0,0,.17.2l-.27,0c-.72-.14-1.46-.19-2.19-.27C24.08,34.22,23.5,34.37,22.93,34.29ZM34.37,23c-.68-.79-1.43-1.52-2.08-2.33a1,1,0,0,1,.51-.23h0c.49.39,1,.79,1.44,1.18.16.12.4.38.65.57Zm-3,5-.28.44a6,6,0,0,1-.5-.63,15.34,15.34,0,0,1-1.54-2.06.69.69,0,0,1,.6-.23,2.05,2.05,0,0,1,.32.34c.46.51.89,1.09,1.38,1.58a2.4,2.4,0,0,1,.21.23C31.49,27.73,31.43,27.84,31.37,28Zm-3.86,6A26.67,26.67,0,0,1,26,31.31c-.08-.23-.27-.49-.18-.73a1.6,1.6,0,0,1,.78-.11c.51.83,1,1.6,1.57,2.41h0C28,33.24,27.74,33.62,27.51,34ZM29,32.87c1-1.75,2.26-3.34,3.25-5.11.78-1.18,1.38-2.48,2.18-3.65.57-.89,1.16-1.76,1.72-2.66,1.19-1.67,2.08-3.51,3.13-5.27.63-1,1.25-1.95,1.85-2.94a18.7,18.7,0,0,0,1.26-2.09c.36-.43.54-1,.92-1.41a5.28,5.28,0,0,0,.75-.88,3.45,3.45,0,0,1,.3-.61.07.07,0,0,0,0-.05c.31-.24.61-.48.93-.71-.36.62-.72,1.25-1.09,1.86a7.61,7.61,0,0,0-.88,1.48c-1.19,1.7-2.25,3.5-3.36,5.27-.58.91-1,1.89-1.61,2.8-.29.54-.66,1-1,1.55-.42.72-.82,1.45-1.26,2.16-2.85,4.74-5.82,9.41-8.73,14.11C26.65,38,25.76,39.16,25,40.43a2.83,2.83,0,0,0,0-.29,1.46,1.46,0,0,1-.06-.44c.32-.51.64-1,.91-1.56C26.78,36.33,27.93,34.61,29,32.87ZM48,14.26a29.76,29.76,0,0,0-2.83,3.51c-.87,1.41-1.86,2.76-2.75,4.16-1.75,2.8-3.41,5.66-5.14,8.48-2,3.53-4.19,7-6,10.64a3.32,3.32,0,0,0-.25.54c-1.3-.07-2.56-.18-3.88-.28-.57-.05-1.2-.12-1.81-.16.08-.13.14-.27.21-.37.91-1.37,1.87-2.72,2.73-4.13C31.15,32,34.15,27.32,37,22.59c.32-.5.61-1,.89-1.55s.84-1.18,1.18-1.84c.55-.85,1-1.78,1.52-2.64.78-1.23,1.51-2.48,2.3-3.71a13.8,13.8,0,0,0,.79-1.2,4.22,4.22,0,0,0,.67-1.14,21.37,21.37,0,0,0,1.26-2.06c.4-.68.83-1.35,1.19-2.06.37-.29.74-.62,1.12-.88L48,5.45a8.8,8.8,0,0,0,0,3.82,5.68,5.68,0,0,0,1.36,2.63,2,2,0,0,0,.53.35C49.22,12.93,48.55,13.53,48,14.26Zm6.07-1.46L54,12.63a4.89,4.89,0,0,1,.66,0A6,6,0,0,1,56.57,14a14.3,14.3,0,0,1,2.14,2.32l.07.11-3.24-.89s0-.05,0-.08C55.14,14.5,54.53,13.7,54.09,12.8Zm-.41,3.13a.43.43,0,0,1,0-.16s0,0,.09-.07.09.08.15.08a8.75,8.75,0,0,0,.88.23c1.49.39,3,.82,4.46,1.23,0,0,.07,0,.11,0,.15.24.3.49.44.74a9.37,9.37,0,0,0-1.75-.36,26.4,26.4,0,0,1-3.83-.93C54,16.48,53.63,16.29,53.68,15.93ZM58,20.06a4.08,4.08,0,0,0-.54-.95c-.2-.35-.4-.7-.61-1,1.1.21,2.21.4,3.28.68,0,0,.07,0,.1,0,.17.32.34.64.52,1,.39.72.79,1.42,1.18,2.13l-.07,0a20.56,20.56,0,0,0-2.43-.61,7.78,7.78,0,0,1-1.06-.29C58.26,20.6,58.11,20.34,58,20.06Zm-1.3,1.51c.28-.6,1.49.05,2,.13.76.2,1.48.29,2.25.54.33.1.66.17,1,.3a.33.33,0,0,0,.41,0l.15.28c.11.22.23.42.35.64h0a4.46,4.46,0,0,0-.73-.13,14.9,14.9,0,0,1-3.22-.81A5.23,5.23,0,0,1,56.69,21.57Zm4.64,4.5c-.44-.72-.85-1.48-1.28-2.22,0-.07-.1-.17-.16-.26h0c1.07.26,2.14.42,3.24.58h0q.9,1.62,1.86,3.21-.84-.37-1.68-.72c-.67-.24-1.37-.34-2-.55h0S61.33,26.09,61.33,26.07Zm-1.69.35a9,9,0,0,1,1.76.43c.55.14,1.1.25,1.63.42.8.27,1.54.71,2.36.94a.3.3,0,0,0,.16-.05c.2.32.39.64.58,1-1.24-.37-2.55-.68-3.75-1.17C61.76,27.71,59.62,27.17,59.64,26.42ZM64,31c-.17-.34-.39-.74-.58-1.09a9.11,9.11,0,0,0-.51-1c1.21.42,2.45.72,3.69,1.1h0c.44.75.87,1.5,1.26,2.26.17.36.33.72.5,1.07a31,31,0,0,0-4.12-2.05l-.22-.09A.81.81,0,0,0,64,31Zm4.27,3.63c-1-.39-1.86-.93-2.85-1.29l-.34-.15a.39.39,0,0,0-.28-.12c-1.05-.43-2.86-1.17-2.66-1.68h0a7,7,0,0,1,2.29.74,31,31,0,0,1,4.1,2.1.44.44,0,0,0,.33.09c.1.23.22.46.32.7A9.22,9.22,0,0,0,68.26,34.58Zm8.28,7.85a3.66,3.66,0,0,1-2.74,0,5,5,0,0,1-.6-.33.88.88,0,0,1-.19-.27.3.3,0,0,0-.07-.19c-.48-1-.93-2-1.45-3s-.84-2-1.25-3a1,1,0,0,0,0-.1L70,35.1c-.64-1.32-1.2-2.61-1.88-3.94-1.12-2-2.36-3.88-3.49-5.85s-2.3-4.23-3.49-6.32A17.37,17.37,0,0,0,57,13.44,6.52,6.52,0,0,0,54.84,12a8.37,8.37,0,0,0-2,0c-1.53.11-3,.22-3.82-1.67a7.56,7.56,0,0,1,.63-7.11,4.07,4.07,0,0,1,.54-.64.33.33,0,0,0,.4-.09,9.87,9.87,0,0,1,4.2-1.11,3,3,0,0,1,1,.28c.39.36.71.8,1.07,1.2,1.83,2.46,3.24,5.23,4.87,7.83,1,1.65,2.05,3.26,3.13,4.86,1.46,2.45,3,4.88,4.33,7.41,1.74,2.91,3.31,5.91,4.76,9,1,1.93,2,3.85,2.9,5.83a23.7,23.7,0,0,1,1.8,4.33C78,42.48,77.21,42.21,76.54,42.43Z"/><path class="cls-3" d="M61.11,35.77Z"/><polygon class="cls-3" points="41.56 7.76 41.56 7.76 41.56 7.76 41.56 7.76"/><polygon class="cls-3" points="50.48 1.4 50.48 1.4 50.47 1.4 50.48 1.4"/><polygon class="cls-3" points="50.48 1.4 50.48 1.4 50.48 1.4 50.48 1.4"/><polygon class="cls-3" points="51.49 0.27 51.49 0.27 51.49 0.27 51.49 0.27"/><polygon class="cls-3" points="39.96 7.51 39.96 7.51 39.97 7.51 39.96 7.51"/><polygon class="cls-3" points="40.51 7.65 40.51 7.65 40.51 7.65 40.51 7.65 40.51 7.65 40.51 7.65 40.51 7.65"/><path class="cls-3" d="M45.16,11.56a.34.34,0,0,0-.35.34.35.35,0,0,0,.34.35.35.35,0,1,0,0-.69Z"/><path class="cls-3" d="M41,18.21a.35.35,0,1,0,.34.35A.35.35,0,0,0,41,18.21Z"/><path class="cls-3" d="M37.47,23.79a.35.35,0,0,0-.35.35.37.37,0,0,0,.35.35.36.36,0,0,0,.35-.35A.35.35,0,0,0,37.47,23.79Z"/><path class="cls-3" d="M33.37,30.29a.35.35,0,0,0-.35.34.37.37,0,0,0,.35.36.35.35,0,1,0,0-.7Z"/><path class="cls-3" d="M29.74,36.57a.35.35,0,0,0-.35.34.35.35,0,1,0,.69,0A.34.34,0,0,0,29.74,36.57Z"/><path class="cls-3" d="M53.21,6.65a.35.35,0,0,0-.37.33.35.35,0,1,0,.7,0A.36.36,0,0,0,53.21,6.65Z"/><path class="cls-3" d="M61.43,12.07a.35.35,0,0,0,0,.7.36.36,0,0,0,.37-.32A.37.37,0,0,0,61.43,12.07Z"/><circle class="cls-3" cx="64.49" cy="18.38" r="0.35" transform="translate(41.66 81.44) rotate(-86)"/><path class="cls-3" d="M67.9,24.23c-.33,0-.43.36-.46.62a.35.35,0,0,0,.33.37.35.35,0,0,0,.37-.33c0-.11.11-.19.09-.3A.36.36,0,0,0,67.9,24.23Z"/><path class="cls-3" d="M71.52,30.6a.34.34,0,0,0-.37.32.35.35,0,0,0,.32.37.35.35,0,1,0,0-.69Z"/><path class="cls-3" d="M74.59,37.13a.35.35,0,0,0,0,.69.35.35,0,0,0,.37-.32A.34.34,0,0,0,74.59,37.13Z"/></g></g></svg>