<svg xmlns="http://www.w3.org/2000/svg" viewBox="0 0 48.03 36.86"><defs><style>.cls-1{fill:#59c1d7;}.cls-2{fill:#e9a061;}.cls-3{fill:#e52823;}.cls-4{fill:#6b1e1e;}.cls-5{fill:#fff;}</style></defs><g id="Layer_2" data-name="Layer 2"><g id="Card"><path class="cls-1" d="M29,6.79s-.09-3.72,0-4.46A3.66,3.66,0,0,0,28.85.86,86.62,86.62,0,0,0,18,.36C12.79.5,4.31.43,4.31.43L3.2.46S3,2.17,2.94,3.37s-.07,7.11,0,8.21-.12,6.72,0,8.11S2.78,27,2.78,27s6.09.63,7.18.67,8.91.4,8.91.4l0-9.38.39-7.45.4-4.48s2.22.12,3,.11Z"/><path class="cls-2" d="M14.48,12.92a1,1,0,0,1-.6.41c-.36.06-.37-.08-.6.38s-.26.52-.54,1.18-.44.49-.44,1.09a4.29,4.29,0,0,0,.11,1s.63-1.74.81-1.56,0,1.56,0,2A12.55,12.55,0,0,0,13,19.84c.11.68.35,1.4.09,1.67s-.61.36-.18.51,1,.25,1.18-.25a2.32,2.32,0,0,1,.33-.7s.15,1,.5.93,1-.26.77-.54a3.44,3.44,0,0,1-.4-.6c-.11-.22.07-1.47,0-2s-.17-.89-.17-.89a3.77,3.77,0,0,0,.41-1.56,9.93,9.93,0,0,0-.11-1,3.23,3.23,0,0,1,0-.44s.53,1.24.87,1.12.64-.19.53-.68a5.73,5.73,0,0,0-.78-1.57c-.33-.53-.37-.47-.62-.58s-.24-.57-.24-.57Z"/><path class="cls-3" d="M2.49,24a2.87,2.87,0,0,0-1.81.66c-.56.64-.47,3.85-.18,5.21S1.17,34.78,2,35.56s13.3.92,16.51.82,23.73.26,24.25.26,1.78.1,2.16-.44.89-4.76,1.41-5.89S48,27.9,47.87,27.15a2.9,2.9,0,0,0-1.43-1.85c-.73-.48-2.37-1.32-2.37-1.32l0,3.39L31.43,28s-6.1.17-11.71.12A158.06,158.06,0,0,1,3,26.91L2.9,26.3Z"/><path class="cls-4" d="M29.27,3.21c.07-.79,0-1.59.06-2.36A.21.21,0,0,0,29.24.6c0-.13-.12-.25-.34-.22A25.2,25.2,0,0,0,26.15.24c-1.1,0-2.23-.13-3.34-.13C19.5.09,16.18.05,12.86,0,12,0,11.2,0,10.37,0S8.62.14,7.71.16s-2,0-3,0c-.48,0-.95,0-1.43,0a.23.23,0,0,0-.2.1.18.18,0,0,0,0,.1A.27.27,0,0,0,2.84.5a4.9,4.9,0,0,0-.06,1c-.14,3.08-.11,6.1-.11,9.19,0,1.12.05,2.24.05,3.36s-.13,2-.14,3,0,2.11,0,3.14,0,2,0,3.09,0,2,0,3c0,.19,0,.39,0,.58a.25.25,0,0,0,.19.26c.33.05.32-.32.31-.54s0-.7,0-1c0-1.19,0-2.41.06-3.6,0-1.64,0-3.31,0-4.94,0-.68.07-1.38.11-2.06.06-1.13,0-2.26,0-3.39,0-1.72,0-3.43,0-5.16.05-1.9.06-3.83.16-5.73h0c.84,0,1.68,0,2.52,0s1.66,0,2.49,0C9.78.51,11.27.48,12.76.5c3.31,0,6.62.09,9.94.1,1.05,0,2.1.11,3.15.15a22.75,22.75,0,0,1,3,.11c0,.15,0,.31,0,.44,0,.63,0,1.25,0,1.88,0,.88.06,1.76.06,2.65a5.42,5.42,0,0,0,0,.57c0,.14,0,.33.15.39a.25.25,0,0,0,.34-.26c0-.21,0-.42,0-.62C29.33,5,29.24,4.11,29.27,3.21Z"/><path class="cls-4" d="M46.7,25.28a17.81,17.81,0,0,0-3-1.84c.61,1.41,2.54,1.71,3.47,2.94a1.32,1.32,0,0,1,.3.81,2,2,0,0,1-.43.92c-1.47,2.19-1.74,4.94-2.33,7.51a1,1,0,0,1-.3.61,1.06,1.06,0,0,1-.66.14L9.67,36,4.24,35.9a3.76,3.76,0,0,1-1.83-.33C1.06,34.82,1.12,32,1,30.7S.63,28.09.53,26.79A2.72,2.72,0,0,1,1,24.63a2.71,2.71,0,0,1,2-.56c-.65-.77-2-.36-2.53.51a4.81,4.81,0,0,0-.32,2.94,34.91,34.91,0,0,0,1.31,7.55,2.09,2.09,0,0,0,.45.86,2.29,2.29,0,0,0,1.65.46l40.32.47a1.6,1.6,0,0,0,.94-.19,1.54,1.54,0,0,0,.51-1c.54-2.48.8-5.14,2.24-7.23a3,3,0,0,0,.48-.85c.24-.87-.5-1.69-1.21-2.24Z"/><path class="cls-4" d="M2.46,24.88l.08,0c.2-.07.39-.29.29-.49-.25-.51-1.51.57-1.62.82A1.44,1.44,0,0,0,1.8,27a3.64,3.64,0,0,0,1.53.34l7.83.55c3.28.24,6.56.47,9.84.5,2.89,0,5.78-.09,8.67-.21l15.61-.65c.62,0,1.47-.31,1.36-.92a1.13,1.13,0,0,0-.37-.55,12.3,12.3,0,0,0-2.19-1.6c-.2,0-.08.37.08.51l2.15,1.87a45,45,0,0,1-4.64.34l-11.16.47c-3.21.13-6.43.26-9.64.23-4.16,0-8.3-.36-12.44-.67l-5-.38a2.45,2.45,0,0,1-1.48-.45c-.39-.34-.47-1.09,0-1.33A2.39,2.39,0,0,1,2.46,24.88Z"/><path class="cls-5" d="M4.88,6.79a.21.21,0,0,0,.24,0c.66,0,1.61-1,.86-1.49a.65.65,0,0,0-.38-1A.86.86,0,0,0,5,4.3a.23.23,0,0,0-.23.09.23.23,0,0,0,0,.2c0,.37,0,.75,0,1.13a7.12,7.12,0,0,0,0,.8A.28.28,0,0,0,4.88,6.79Zm.88-1.07a.85.85,0,0,1-.54.52c0-.17,0-.34,0-.52C5.4,5.71,5.6,5.61,5.76,5.72ZM5.44,5.1l-.2.1V4.73s0,0,0,0C5.67,4.64,5.75,4.91,5.44,5.1Z"/><path class="cls-5" d="M8,6.29a4.37,4.37,0,0,0-.57-1.8c-.55-.77-.93.53-1,1,0,.24-.07.48-.11.72a.28.28,0,0,0,.13.4.26.26,0,0,0,.31-.16A3.43,3.43,0,0,0,6.83,6l.35,0L7.4,6a2.91,2.91,0,0,0,.12.51A.25.25,0,0,0,8,6.29Zm-1.06-.8a2.48,2.48,0,0,1,.17-.59,1.86,1.86,0,0,1,.22.55Z"/><path class="cls-5" d="M8.6,6c0,.26.05.5.34.56.78.26,1.6-.75.77-1.28a.75.75,0,0,0-.54-1.15,1,1,0,0,0-.55.25c-.17.16,0,.39,0,.58C8.59,5.35,8.58,5.69,8.6,6Zm1-.14a.42.42,0,0,1-.36.25l-.11,0c0-.16,0-.31,0-.48A.44.44,0,0,1,9.57,5.9ZM9.33,5c0,.12-.15.16-.24.18h0c0-.11,0-.23,0-.34s0-.06,0-.09C9.23,4.57,9.34,4.81,9.33,5Z"/><path class="cls-5" d="M11.36,5.67c.15-.25.3-.5.43-.76a.26.26,0,0,0,.08-.32.27.27,0,0,0-.46,0c-.12.2-.23.41-.35.62a4.07,4.07,0,0,1-.41-.52c-.28-.31-.7.17-.33.39.13.23.38.36.49.61,0,0,0,0,0,0a6,6,0,0,0,0,.85.24.24,0,0,0,.36.16.25.25,0,0,0,.13-.27A2.46,2.46,0,0,1,11.36,5.67Z"/><path class="cls-5" d="M13.68,5.34c-.12-.15-.32-.16-.47-.24s0-.09,0-.13a.39.39,0,0,1,.39,0,.29.29,0,0,0,.13.08A.25.25,0,0,0,14,4.59c-.45-.43-1.43-.1-1.27.59a.72.72,0,0,0,.59.48,3.15,3.15,0,0,1,.22.29c.06.09.16.15.19.25s-.24.14-.36.09-.42-.3-.6-.09.17.46.39.54c.61.32,1.37-.25.94-.9C13.93,5.69,13.82,5.51,13.68,5.34Z"/><path class="cls-5" d="M12.3,5.34c.3,0,.24-.36.36-.57a.25.25,0,0,0-.1-.41c-.19-.06-.33.11-.38.28S11.92,5.3,12.3,5.34Z"/><path class="cls-5" d="M15.53,6.86c.78.07,1.44-.64.77-1.28.47-.54-.23-1.17-.79-1.16-.19,0-.46-.06-.5.19,0,.55.05,1.09.07,1.65C15.06,6.63,15.1,6.86,15.53,6.86Zm.11-.49h-.07c0-.14,0-.27,0-.4s.3-.08.43,0C16.24,6.23,15.86,6.36,15.64,6.37Zm-.1-1c0-.16,0-.32,0-.5C16,5,16.12,5.33,15.54,5.41Z"/><path class="cls-5" d="M17.54,6.68a1.11,1.11,0,0,0,1.24-.83,1,1,0,0,0-.86-1.14c-.28,0-.94-.06-.92.35A1.1,1.1,0,0,0,17.54,6.68Zm0-1.46c.21,0,.49-.08.65.1.3.42,0,.83-.45.89A.58.58,0,0,1,17.52,5.22Z"/><path class="cls-5" d="M20.52,4.7a1.07,1.07,0,0,0-1.35.41A1.54,1.54,0,0,0,19.1,6.3c.35,1,1.13.15.52,0-.42-.85.35-1.64,1.06-.81a1.15,1.15,0,0,1-.12.57c-.07.16-.13.37-.32.42a.25.25,0,0,0-.18.3.26.26,0,0,0,.29.19c.57-.16.76-.87.84-1.38S20.82,4.9,20.52,4.7Z"/><path class="cls-5" d="M22.84,6c-.11-.17-.17-.39-.29-.56l.4-.35a1.05,1.05,0,0,0,.2-.27.25.25,0,0,0-.46-.18,8.63,8.63,0,0,1-.84.75c0-.22,0-.44-.05-.65a.25.25,0,0,0-.49-.1.53.53,0,0,0,0,.25c0,.39,0,.78.06,1.17,0,.2-.11.43.06.59a.25.25,0,0,0,.35,0c.09-.13.06-.3.09-.46a.81.81,0,0,1,0-.16c.09-.06.17-.14.26-.21l0,0a3.29,3.29,0,0,0,.59.92.24.24,0,0,0,.32-.37A1.78,1.78,0,0,1,22.84,6Z"/><path class="cls-5" d="M25.43,4.7A.94.94,0,0,0,24,5.19a1.94,1.94,0,0,0,.22,1.61c.08.1.14.23.28.23a.24.24,0,0,0,.26-.27h0c0-.13-.13-.21-.19-.33a1.35,1.35,0,0,1,0-1.32c.37-.32.8.06.9.45a1.72,1.72,0,0,1-.23.79c0,.14-.17.25-.17.41a.25.25,0,0,0,.39.18,2.85,2.85,0,0,0,.5-1.17A1.21,1.21,0,0,0,25.43,4.7Z"/><path class="cls-5" d="M27.91,4.47a7.86,7.86,0,0,1-.84,0c-.14,0-.28-.05-.41,0a.2.2,0,0,0-.11.14s-.06,0-.08.06a.73.73,0,0,0-.09.41c0,.47,0,1-.05,1.42a.26.26,0,0,0,.27.22c.22,0,.24-.25.24-.43V6A.7.7,0,0,1,27,6c.24,0,.73.06.72-.3s-.51-.15-.76-.19h-.08a5.07,5.07,0,0,1,0-.55h0l.86,0C28.17,5.05,28.31,4.54,27.91,4.47Z"/><path class="cls-5" d="M7.46,7.05a2.54,2.54,0,0,0-.39,0c-.19,0-.41,0-.6,0a6.74,6.74,0,0,1-1.19,0,4.9,4.9,0,0,0-.54,0c-.24-.07-.58,0-.5.34a.25.25,0,0,0,.36.13,1.76,1.76,0,0,0,.56,0h.42a.8.8,0,0,1,0,.15,15.52,15.52,0,0,0,0,2.55.26.26,0,0,0,.24.3c.34,0,.26-.39.22-.61h0a16.53,16.53,0,0,1,0-2,2.8,2.8,0,0,0,0-.41h.06c.4-.06.76,0,1.22,0A.25.25,0,0,0,7.46,7.05Z"/><path class="cls-5" d="M10.74,8.38c0-.33-.06-.64-.06-1a.24.24,0,0,0,0-.23c-.16-.28-.52-.09-.5.19s.05.68.06,1v.15c-.37,0-.74,0-1.12,0l-.58-.08-.16,0c0-.26,0-.52,0-.77s0-.47-.18-.55a.25.25,0,0,0-.31.3c0,.4,0,.79,0,1.19s0,1,0,1.46c0,.13,0,.29.1.37.31.15.43-.15.39-.41s0-.73,0-1.09c.27,0,.54.09.82.1s.62,0,.93,0h.11c0,.55,0,1.23.23,1.29a.25.25,0,0,0,.32-.28,6.48,6.48,0,0,1-.06-.77C10.73,9,10.74,8.68,10.74,8.38Z"/><path class="cls-5" d="M13.38,9.92a1.56,1.56,0,0,0-.48,0c-.29,0-.58,0-.88,0a.37.37,0,0,1,0-.11,3.5,3.5,0,0,0,0-.72,1.41,1.41,0,0,1,0-.2l.32.05c.29,0,.95.19.92-.28a.25.25,0,0,0-.3-.18,2.92,2.92,0,0,1-.83-.07A.28.28,0,0,0,12,8.36V7.53h.2c.37,0,.74,0,1.11,0A.25.25,0,0,0,13.4,7a12.16,12.16,0,0,0-1.35,0,.26.26,0,0,0-.37.17.2.2,0,0,0-.16.1.35.35,0,0,0,0,.3,12.46,12.46,0,0,0,.07,1.93c0,.12,0,.26,0,.39a.24.24,0,0,0-.2.25.24.24,0,0,0,.33.21,10.92,10.92,0,0,0,1.15.07c.19,0,.36-.07.55,0A.25.25,0,0,0,13.38,9.92Z"/><path class="cls-5" d="M17.14,8.68a.85.85,0,0,0-.22-1.44A2.42,2.42,0,0,0,15.63,7c-.22,0-.6,0-.59.32a.23.23,0,0,0,.28.21c0,.42,0,.85,0,1.27s0,.75,0,1.13a.22.22,0,0,0-.24.13c-.12.31.24.38.47.42a6,6,0,0,0,1-.09,1.08,1.08,0,0,0,.58-.19C17.82,9.78,17.62,9.05,17.14,8.68ZM17,8.1c-.1.35-.57.25-.84.31h-.29c0-.1,0-.21,0-.31s0-.38,0-.56a.27.27,0,0,0,0-.09C16.2,7.45,17,7.63,17,8.1ZM15.85,9.93a.23.23,0,0,0,0-.14c0-.29,0-.57,0-.86l.28,0a1.13,1.13,0,0,1,.73.19C17.58,9.86,16.47,9.89,15.85,9.93Z"/><path class="cls-5" d="M18.85,7.31a1.76,1.76,0,0,0-.48,2.61,1.49,1.49,0,0,0,.66.34c.17.09.43,0,.44-.19a.25.25,0,0,0-.23-.26,1.64,1.64,0,0,1-.51-.22,1.83,1.83,0,0,1-.24-.76,1.05,1.05,0,0,1,.88-1.16.26.26,0,0,0,.22-.17C19.65,7,19.11,7.21,18.85,7.31Z"/><path d="M44.46,7a.23.23,0,0,0-.27-.24.38.38,0,0,0-.35-.18,5,5,0,0,0-1.4,0c-1.86,0-3.74-.11-5.62-.1-3.88.11-7.75.13-11.62.16-1.26-.07-2.56-.06-3.83-.1-.54,0-1.08.06-1.63,0a.23.23,0,0,0-.31.07c-.34.05-.27.69-.28,1,0,.79,0,1.57-.1,2.35-.1,2.12-.25,4.25-.33,6.38-.1,3.12-.23,6.24-.24,9.36,0,.72,0,1.43,0,2.15,0,.22-.07.61.26.63s.2-.55.24-.83c0-.73,0-1.46,0-2.2,0-2.59.15-5.18.18-7.77.1-3.06.32-6.08.46-9.15,0-.46,0-.92,0-1.39a.32.32,0,0,1,0-.09l.14,0,.47,0c1.59,0,3.18,0,4.77.07s3.38,0,5.06,0c3.59,0,7.18-.22,10.78,0,.51,0,1,0,1.51,0a5.4,5.4,0,0,1,1.5.06h0c-.11,2.89-.2,5.8-.22,8.7-.11,3.34,0,6.67.06,10,0,.32,0,.64.05,1s-.09.55.2.61.31-.38.3-.62,0-.64-.06-1c0-1,0-2-.05-3-.12-5.1,0-10.2.2-15.29A1.94,1.94,0,0,1,44.46,7Z"/><path d="M23.87,16.28l-.39,0c-.14,0-.28,0-.43,0s0-.25,0-.39v-.1h.18a.33.33,0,1,0,.13-.65.87.87,0,0,0-.32,0c0-.12,0-.24,0-.35a2.3,2.3,0,0,1,.37,0c.3,0,.84,0,.82-.42a.33.33,0,0,0-.36-.3c-.4.1-.81,0-1.22,0a.31.31,0,0,0-.25.28h0v.07c0,.4,0,.8,0,1.2a7.7,7.7,0,0,0,0,1,.29.29,0,0,0,.22.23l.1.05c.21.07.41,0,.62,0h-.05a4.52,4.52,0,0,0,.64,0A.34.34,0,0,0,23.87,16.28Z"/><path d="M25.71,16.94c.32,0,.4-.35.48-.59.21-.58.33-1.12.52-1.71a.33.33,0,0,0-.21-.42c-.59-.18-.6,1.13-.81,1.5-.11-.34-.25-.68-.36-1a1.05,1.05,0,0,0-.15-.43.35.35,0,0,0-.57.1.33.33,0,0,0,0,.33c.09.39.26.76.38,1.15S25.23,16.84,25.71,16.94Z"/><path d="M27.87,17.1a2.26,2.26,0,0,0,.52,0,.33.33,0,0,0-.13-.65,5.23,5.23,0,0,1-.68-.07V16.1h0c.32.09,1,.07.84-.43a.34.34,0,0,0-.44-.2c-.13,0-.27,0-.4,0v-.61a.7.7,0,0,0,.35.05c.24.08.59,0,.61-.28s-.19-.33-.39-.37c0,0-.06-.06-.11-.06-.23,0-.56-.09-.76.05-.26,0-.41.25-.37.52,0,.57,0,1.17,0,1.74a.58.58,0,0,0,.21.51C27.35,17.12,27.63,17,27.87,17.1Z"/><path d="M31.11,16.44a2.17,2.17,0,0,0-.53-.71c1.06-.85-.14-2-1.19-1.53-.55.05-.29,1.15-.28,1.54a4,4,0,0,1,.05.84.38.38,0,0,0,.08.29.35.35,0,0,0,.59-.31,3.68,3.68,0,0,0,0-.47l.17,0c.23.12.34.37.5.55A.33.33,0,0,0,31.11,16.44ZM30,15.3a.73.73,0,0,1-.25,0,4.89,4.89,0,0,1,0-.54C30.19,14.63,30.61,15,30,15.3Z"/><path d="M33.5,14.76a.34.34,0,0,0-.13-.57.36.36,0,0,0-.3,0,4.82,4.82,0,0,0-.35.44,5.4,5.4,0,0,1-.4.49,2.44,2.44,0,0,0-.32-.4c-.12-.16-.24-.37-.48-.36a.36.36,0,0,0-.14.65,5.93,5.93,0,0,1,.63.86h0a8.85,8.85,0,0,0,.12.88.33.33,0,0,0,.65-.14,6.7,6.7,0,0,1-.11-.9C33,15.43,33.26,15.11,33.5,14.76Z"/><path d="M34.12,16.81c.78.54,1.74-.3,1.71-1.14a1.08,1.08,0,0,0-1.56-1c-.38-.13-.55.33-.64.61A1.27,1.27,0,0,0,34.12,16.81Zm.16-1.33c.11-.05.2-.16.32-.21a.45.45,0,0,1,.54.21c.08.33-.11.83-.5.82A.58.58,0,0,1,34.28,15.48Z"/><path d="M38.06,14.1c-.8,0-.15,1.39-.23,1.86A10.73,10.73,0,0,0,37.2,15c-.16-.24-.28-.63-.61-.68,0,0-.06,0-.1,0h0s0,0-.06,0h0a.32.32,0,0,0-.23.32c0,.71,0,1.41,0,2.12a.34.34,0,0,0,.67,0c0-.4,0-.79,0-1.19a2.4,2.4,0,0,0,.3.41c.22.4.47.86.94,1,.8,0,.26-2,.26-2.55A.33.33,0,0,0,38.06,14.1Z"/><path d="M40.62,16.47c-.23-.35-.79-.12-1.13-.11,0-.07,0-.14,0-.21h.16c.26,0,.62-.1.55-.43a.37.37,0,0,0-.48-.25h-.25a4.49,4.49,0,0,1,0-.64h0c.33,0,1,.21,1-.32s-.7-.27-1-.35a.39.39,0,0,0-.38.19.37.37,0,0,0-.26.4,13.45,13.45,0,0,0,0,1.68c0,.31.08.61.44.62s.57-.09.91-.1a.61.61,0,0,0,.3,0A.34.34,0,0,0,40.62,16.47Z"/><path d="M26.74,17.56a3.15,3.15,0,0,0-1.26,0,.36.36,0,0,0-.19.57c0,.6.07,1.2.06,1.8A.34.34,0,0,0,26,19.9c0-.19,0-.37,0-.55a2.05,2.05,0,0,0,.95-.23A.89.89,0,0,0,26.74,17.56Zm-.2,1a1.81,1.81,0,0,1-.55.09l0-.47a1.46,1.46,0,0,1,.51,0A.21.21,0,0,1,26.54,18.58Z"/><path d="M28,18.18a1.29,1.29,0,0,0-.14,1,1.5,1.5,0,0,0,.4.85A1.24,1.24,0,0,0,30,19.55,1.34,1.34,0,0,0,29.79,18,1.2,1.2,0,0,0,28,18.18Zm.64.26Zm.22,1.16c-.21,0-.25-.21-.3-.37a.75.75,0,0,1,.08-.79C29.58,17.87,29.85,19.44,28.82,19.6Z"/><path d="M31.7,17.74a1.82,1.82,0,0,0-.51.09,1.64,1.64,0,0,0-.6.81,1.09,1.09,0,0,0,.82,1.44C32.94,20.46,33.37,17.71,31.7,17.74Zm0,1.71c-.66-.11-.58-.72-.1-1C32.28,18.21,32.27,19.38,31.67,19.45Z"/><path d="M33.66,17.66a.42.42,0,0,0-.22.16c-.22.17-.13.66-.12.94a8.12,8.12,0,0,1,.1,1.21.65.65,0,0,0,.07.36.36.36,0,0,0,.47.09.34.34,0,0,0,.13-.36,5.62,5.62,0,0,0,0-.58,1.09,1.09,0,0,0,1.15-1.33C35,17.67,34.12,17.52,33.66,17.66ZM34,18.79c0-.17,0-.33-.05-.5a1.42,1.42,0,0,1,.61.12C34.58,18.71,34.28,18.82,34,18.79Z"/><path d="M36.23,18.55a.35.35,0,0,1,.61-.09.34.34,0,0,0,.56-.38A1.06,1.06,0,0,0,36,17.83a.84.84,0,0,0-.34,1.05c.29.42.82.46,1.25.67.09.24-.54.28-.68.19a.54.54,0,0,1-.15-.18.35.35,0,0,0-.47-.08c-.3.21-.06.58.16.75.65.58,2.22,0,1.74-1C37.25,18.79,36.62,18.83,36.23,18.55Z"/><path class="cls-3" d="M13.38,17a4.23,4.23,0,0,1,.64.73,2.68,2.68,0,0,1,.26.68s1.05,0,1.11-.43a6.72,6.72,0,0,0,.22-1.18c0-.33-.12-1.06-.12-1.06a6.59,6.59,0,0,1-1.34.2,3.38,3.38,0,0,1-.74-.15Z"/><path class="cls-4" d="M17,15.05a.4.4,0,0,0-.28-.32,2.79,2.79,0,0,0-.14-.37,6,6,0,0,0-.55-1,.62.62,0,0,0-.43-.25h-.12a.33.33,0,0,0,0-.1,2.33,2.33,0,0,0,.19-1.65,1.25,1.25,0,0,0-1.15-.76,1.19,1.19,0,0,0-1,.79A1.71,1.71,0,0,0,14,13a1.38,1.38,0,0,0-.57.11.74.74,0,0,0-.4.63,2.6,2.6,0,0,0-.21.51c-.07.34-.36.55-.53.86a2.84,2.84,0,0,0-.27.62,1.92,1.92,0,0,0,0,1.45c.09.19.3.39.51.25A3.59,3.59,0,0,0,13.14,16c0,1-.29,2-.26,3a11.94,11.94,0,0,0,0,1.46,3,3,0,0,1,0,.9c-.53,0-.83.5-.33.85a2,2,0,0,0,.84.22c.58.12.79-.3.88-.8a.67.67,0,0,0,.48.58c.34.09.61-.21.91-.32a.19.19,0,0,0,.09-.19.33.33,0,0,0,.1-.4,1.1,1.1,0,0,0-.42-.51c0-.75.05-1.49,0-2.24,0-.17,0-.42-.09-.56a3.07,3.07,0,0,0,.24-.48,2.56,2.56,0,0,0,.08-1.64h0c.17.13.18.4.39.5.48.21.85-.32.86-.75A1.52,1.52,0,0,0,17,15.05ZM14.08,20a6.89,6.89,0,0,1-.27,1.75.24.24,0,0,1-.09.13.32.32,0,0,1-.14,0L13,21.81a.65.65,0,0,0,.44-.55,2,2,0,0,0,0-.73,9.93,9.93,0,0,1,.05-3,2.09,2.09,0,0,1,.62,1.75C14.11,19.49,14.1,19.74,14.08,20Zm1.24-3.23a1.53,1.53,0,0,1-.07.36,1.51,1.51,0,0,1-.71.94,9.25,9.25,0,0,0-.62-.88c-.1-.13-.28-.21-.33-.34s.08-.74.05-.74a3.94,3.94,0,0,0,1.6-.19A2.7,2.7,0,0,1,15.32,16.77Zm.14,4.61a.06.06,0,0,1,0,.05.1.1,0,0,1,0,0l-.31.16a.35.35,0,0,1-.11,0c-.11,0-.13-.16-.13-.27,0-.91-.21-1.8-.26-2.71a.18.18,0,0,1,0-.1.24.24,0,0,1,.08-.06l.32-.13c.06.75-.1,1.55,0,2.29a.79.79,0,0,0,.31.55C15.38,21.27,15.45,21.32,15.46,21.38Zm.92-5.55a1.67,1.67,0,0,1-.61-1.17c0-.16.05-.37-.09-.46a.24.24,0,0,0-.3.07.58.58,0,0,0-.13.31,4.17,4.17,0,0,0-.06.71.18.18,0,0,1,0,.13.24.24,0,0,1-.11.06,4.57,4.57,0,0,1-1.16.16.3.3,0,0,1-.19,0c-.1-.08-.06-.25-.12-.37a.31.31,0,0,0-.43-.1.81.81,0,0,0-.31.37,4.27,4.27,0,0,0-.41,1.15c-.19-1.06.83-1.83,1.07-2.81a.68.68,0,0,1,.08-.24c.1-.16.33-.16.52-.16s.43-.07.46-.26a.55.55,0,0,0,.45-.06.35.35,0,0,0,.26.45c.1,0,.21,0,.31,0a.49.49,0,0,1,.23.28l.56,1.25C16.47,15.35,16.56,15.66,16.38,15.83Z"/></g></g></svg>