<svg xmlns="http://www.w3.org/2000/svg" viewBox="0 0 50.3 66.99"><defs><style>.cls-1{fill:#d09971;}.cls-2{fill:#798c67;}.cls-3{fill:#255827;}.cls-4{fill:#803124;}.cls-5{fill:#fcd4ac;}.cls-6{fill:#171e17;}.cls-7{fill:#fff;}.cls-8{fill:#faed62;}.cls-9{fill:#cbc478;}.cls-10{fill:#e9a061;}.cls-11{fill:#b27e4c;}.cls-12{fill:#92443f;}.cls-13{fill:#6b1e1e;}.cls-14{fill:none;stroke:#fff;stroke-miterlimit:10;stroke-width:0.5px;}</style></defs><g id="Layer_2" data-name="Layer 2"><g id="Card"><polygon class="cls-1" points="6.84 57.86 6.56 59 8.87 59.24 9.14 57.87 6.84 57.86"/><path class="cls-1" d="M33.72,58.15l-.12,1.18s1.49.17,1.7-.26a1.08,1.08,0,0,0-.08-.92Z"/><path class="cls-2" d="M40.81,62.34a.89.89,0,0,1-.62.69c-.51.1-1.95,0-2.62.06s-1.88.14-2,1.06.8,2.2,2.74,2.37a30.3,30.3,0,0,0,3.66,0c.85,0,2.08.55,2.64,0s.65-.3.6-.85a25.66,25.66,0,0,0-.68-2.57,7,7,0,0,0,2.18-.26c.54-.28,1.12,0,1-.81s-.52-1.05-.62-1.83a2.83,2.83,0,0,0-.39-1.2L44,58.82Z"/><path class="cls-3" d="M47.18,59.76c-.07-.23,0-.67-.33-.69a.24.24,0,0,0-.24.24,5.84,5.84,0,0,0,.25,1,1.36,1.36,0,0,0-.41.3A1.83,1.83,0,0,0,46,62.45a1.19,1.19,0,0,1,.05.22l-.2,0c-.21,0-.41.08-.62.1s-.2,0-.3,0a.92.92,0,0,0-.33,0h0c0-.09-.05-.19-.07-.28s-.13-.38-.33-.32-.1.49-.07.7a6.49,6.49,0,0,0,.34,1.14l-.08,0a2.19,2.19,0,0,0-.87,2.24s0,.1,0,.15a4.11,4.11,0,0,1-1-.13,9.25,9.25,0,0,0-2.1-.16c-.5,0-1,0-1.54.06a.09.09,0,0,0,0-.05,12,12,0,0,1-1-1.77,1.64,1.64,0,0,1-.18-1.12h.49a5.77,5.77,0,0,0,1.76,0c.29-.12.65-.17.85-.42a.84.84,0,0,0,.13-.27.25.25,0,0,0-.3-.31c-.13,0-.16.15-.19.26s-.37.17-.54.26a4.68,4.68,0,0,1-1.63.05,7.45,7.45,0,0,0-1.7.07,2.29,2.29,0,0,0-1.15.7,2.07,2.07,0,0,0-.26.77.56.56,0,0,0,.08.41,2.38,2.38,0,0,0,.21.45,3.32,3.32,0,0,0,.7.65c1.37,1.06,2.87.82,4.48.78a11.8,11.8,0,0,1,1.57.08,6.64,6.64,0,0,0,1.32.23,3.17,3.17,0,0,0,.35-.06s0,0,0,0h0c1.66-.34,1.66-1.32,1-2.91a6.84,6.84,0,0,1-.25-.72l.08,0a8.39,8.39,0,0,0,1.65-.16c.61-.13,1.33-.2,1.45-1S47.38,60.56,47.18,59.76ZM37.36,66a4.52,4.52,0,0,1-1-.57,1.6,1.6,0,0,1-.67-.84.22.22,0,0,0,0-.12c0-.12,0-.26.08-.38a1,1,0,0,1,.52-.54,2,2,0,0,1,1-.25c-.18.87.47,1.72.84,2.47l.28.44A3.51,3.51,0,0,1,37.36,66Zm6.81.35-.15,0a.88.88,0,0,1,0-.2,1.66,1.66,0,0,1,.65-1.69,6.25,6.25,0,0,1,.21.74C45,65.88,44.75,66.19,44.17,66.37Zm3.08-4a3,3,0,0,1-.68.22,2.56,2.56,0,0,1-.14-.94,1.65,1.65,0,0,1,.61-.89C47.27,61.3,47.6,62,47.25,62.38Z"/><path class="cls-4" d="M44.32,5.51c.31-.21,0-.79-.32-.49a.24.24,0,0,0-.3.36A.47.47,0,0,0,44.32,5.51Z"/><polygon points="44.28 63.06 44.28 63.06 44.28 63.06 44.28 63.06"/><polygon points="44.47 62.9 44.47 62.89 44.47 62.9 44.47 62.9"/><path d="M44.47,62.89Z"/><path d="M38.78,4.47A.25.25,0,0,0,39,4.13a1.25,1.25,0,0,1,0-.19l-.1,0-.11,0-.08,0-.18,0c0,.19.08.39.29.39Z"/><path d="M41.08,3.78v-.1h-.33l-.13,0h0v.08a.24.24,0,1,0,.47,0Z"/><path class="cls-5" d="M9.14,57.87l-.27,1.37L6.56,59l-.88-1.13L3.46,52.6,2.07,48.86l.26-1.45.52-.19,1.44.26s.32-10.34.41-11.58.14-7.39.14-7.39L.45,28.09l0-6.64L1.53,19,1.79.36,2.51.18,20.89.39,31.64.5l2.21.23V2s0,9.93,0,10.59.16,6.87.16,6.87V29.88L32,29.81l-.1,8.7-.18,12.83a5,5,0,0,0,.2,1.46c.21.56,1.46,2.07,2.14,3.29s1.5,2.55,1.5,2.55-.23.63-.56.79a5.63,5.63,0,0,1-1.23.25l-.62-.61L27,50.77a.7.7,0,0,1-.16-.72c.1-.51,0-.84.23-1a1.22,1.22,0,0,1,.77-.21,8.6,8.6,0,0,1,1,.39l1.22.86.16-9.92V29.81L30,29.68l-9.81-.5-14-.54s-.16,9.41-.14,9.85,0,9.4,0,9.4a23,23,0,0,0,.32,3.64c.27,1.09,1.67,4.54,1.79,4.91A10.47,10.47,0,0,0,9.14,57.87Z"/><path class="cls-1" d="M4.87,52.33s.72.47,1.07-.7.35-8.14.33-8.82,0-12,0-12l0-2.2H5.75s-.17,15.27-.21,17.57-.13,4.13-.23,5S4.87,52.33,4.87,52.33Z"/><path class="cls-1" d="M30.62,53.53s.78.33,1-.68.14-7.53.14-8.47.16-8.59.11-9.64,0-5.12,0-5.12l-.73.1s.1,16,.12,18.25a36.51,36.51,0,0,1-.31,5A.86.86,0,0,1,30.62,53.53Z"/><path class="cls-6" d="M32.45,20.26s.26-3.22.21-4.33,0-6.71,0-7.32-.1-6.8-.1-6.8S25.74,1.62,25,1.67s-11.41.12-11.91.11-6.95,0-7.43.06S3,1.9,3,1.9s.05,5.5.08,6,.06,7,.05,7,.14,8,.14,8L3.35,27l4.33.22,10.17.33,12.58.53h2.63L33,24.85Z"/><path class="cls-7" d="M24.84,17.51c.43,0,.12-.68.25-.67a.25.25,0,1,0,.17-.46.83.83,0,0,0-.47,0c-.24.1-.56.19-.55.51s.21.71.61.59Z"/><path class="cls-8" d="M37.64,38.67a10.55,10.55,0,0,0-.2,2.8c.15,1.19.48,5,.59,6.23a38.69,38.69,0,0,0,1,5.31,38.19,38.19,0,0,1,1.15,4.63c.1,1,.14,2.9.24,3.68S40.35,62.64,42,62.6s2.46,0,2.74-.83a3.37,3.37,0,0,0,.1-1.77c0-.44-.06-.8-.06-.8a3.7,3.7,0,0,0,1.79.11c.76-.23.92-.33,1-.79a10.37,10.37,0,0,0,.43-3.66,20.52,20.52,0,0,1-.66-4.37A15.9,15.9,0,0,1,48.62,46a8.86,8.86,0,0,0,.79-4.42,18.66,18.66,0,0,0-.7-3.7,5.57,5.57,0,0,1-1.64.51,2.86,2.86,0,0,0-1.74.5,4,4,0,0,1-2.06.75,13.5,13.5,0,0,1-3-.58C39.49,38.9,37.64,38.67,37.64,38.67Z"/><path class="cls-9" d="M49.6,43.14a17.43,17.43,0,0,0-.47-5c0-.13-.08-.29-.21-.32s-.3.31-.25.54a14.28,14.28,0,0,1,.38,5.24c-.41,2.5-2,4.77-1.94,7.3a25,25,0,0,0,.58,3.2,9.88,9.88,0,0,1-.22,4.26,1,1,0,0,1-.17.37.79.79,0,0,1-.43.23A3.63,3.63,0,0,1,45,59a30.17,30.17,0,0,1-.34-6.51c.08-1.55.29-3.09.5-4.64l.68-5a.38.38,0,0,0-.08-.36c-.2-.14-.4.19-.43.43l-.64,4.84a50.1,50.1,0,0,0-.56,6.1,43.1,43.1,0,0,0,.55,6.41,2.09,2.09,0,0,1-.21,1.67,2.14,2.14,0,0,1-2,.45c-.78-7.72-2.32-15.43-1.82-23.17a.78.78,0,0,0-.09-.5c-.1-.14-.36-.17-.43,0a.32.32,0,0,0,0,.14v3.59A7.73,7.73,0,0,1,38.78,39c0-.23-.17-.53-.38-.44s-.14.25-.12.4a8.69,8.69,0,0,0,1.27,3.51,4.48,4.48,0,0,1,.37.68,2.65,2.65,0,0,1,.11.74q.67,9.24,2,18.42l-.88,0a.46.46,0,0,1-.26-.07.45.45,0,0,1-.11-.31c-.13-1.54-.16-3.1-.43-4.62-.31-1.82-.95-3.57-1.38-5.36a50,50,0,0,1-1-8.18,29.12,29.12,0,0,1-.06-4.94.62.62,0,0,0,0-.36.21.21,0,0,0-.31-.07.26.26,0,0,0,0,.12c-.49,2,0,4.1.08,6.11a45.62,45.62,0,0,0,.71,6.38c.43,2.06,1.15,4,1.54,6.1a34.2,34.2,0,0,1,.48,4.84,1.07,1.07,0,0,0,.1.47,1,1,0,0,0,.74.37,11.59,11.59,0,0,0,2,.12,2.39,2.39,0,0,0,1.21-.27,1.85,1.85,0,0,0,.81-1.39,5.77,5.77,0,0,0-.14-1.66A4.87,4.87,0,0,0,47,59.4a1.23,1.23,0,0,0,.62-.29,1.46,1.46,0,0,0,.34-.68,9.7,9.7,0,0,0,.24-4.35,27.62,27.62,0,0,1-.56-3.1c-.11-2.56,1.52-4.86,1.93-7.4C49.57,43.44,49.58,43.29,49.6,43.14Z"/><path class="cls-10" d="M28.72,18.61a11,11,0,0,1-.81-1.25c-.23-.46-.8-1.23-1.62-1.16s-1.17.32-1.2.64-.16,1.15.16,1.47.32.7.62.63a1.19,1.19,0,0,0,.49-.26l1,1.05a2.27,2.27,0,0,1,.67-.79A1.51,1.51,0,0,1,28.72,18.61Z"/><path class="cls-11" d="M28.91,18.37a2.18,2.18,0,0,0-.21-.22c-.5-.47-.6-1.27-1.1-1.73A2.24,2.24,0,0,0,25.73,16a.89.89,0,0,0-.73.4,1.45,1.45,0,0,0-.05.3,7.47,7.47,0,0,0-.07,1.15,1.6,1.6,0,0,0,.19.53c.05.09.33.37.33.45.26.25.71.42,1,.16a.86.86,0,0,1,.32.31.79.79,0,0,0,.33.3.28.28,0,0,0,.36-.17c0-.14-.09-.25-.2-.34A3.56,3.56,0,0,1,26.24,18c-.09-.19-.25-.44-.44-.36s-.15.32-.06.48.22.32.19.49a1.13,1.13,0,0,1-.57-1.07c0-.33.21-.67.07-1a2,2,0,0,1,1.84.18,3.09,3.09,0,0,1,.59,1,3.16,3.16,0,0,0,.62.83c.11.12.29.22.42.12a.24.24,0,0,0,0-.32Z"/><path class="cls-10" d="M35.72,7.54a3.13,3.13,0,0,0-.72,2c.1,1,.75,2.32.73,2.8a6.64,6.64,0,0,0,0,2.83,27.65,27.65,0,0,0,1.46,2.71,4.19,4.19,0,0,1,2-.49,11.35,11.35,0,0,0,2.83.09,10.37,10.37,0,0,1,1.9-.23h1a3.68,3.68,0,0,1-.34-1.92c.21-.7.34-1.21.34-1.21S43,9,41.51,7.87,35.72,7.54,35.72,7.54Z"/><path class="cls-12" d="M35.84,6.18a2.83,2.83,0,0,0,0,2.4,20.79,20.79,0,0,0,1.64,2.79,19.09,19.09,0,0,1,1.24,1.92s.12-2.22.79-2.3,1.09-.06,1.33.75a4.74,4.74,0,0,1,0,2,4,4,0,0,0,.6,1.45.39.39,0,0,0,.56-.11s.34.48.69.19a1.13,1.13,0,0,0,.4-.68s.37.86.76.72a1.22,1.22,0,0,0,.58-.44s.32.83.55.81.44-1.35.72-2S47.18,10.3,47,8.45,45.73,4.2,43.27,3.94a10.17,10.17,0,0,0-6,1A7,7,0,0,0,35.84,6.18Z"/><path class="cls-11" d="M39.93,12.64A4.52,4.52,0,0,1,40,12a.24.24,0,0,0-.07-.47.45.45,0,0,0-.41.5,3.85,3.85,0,0,0,0,.59A.24.24,0,0,0,39.93,12.64Z"/><path class="cls-11" d="M37.19,17.85c.32-.25-.22-.69-.34-.94A5.17,5.17,0,0,1,36,15.33,4,4,0,0,1,36,13.08a2.76,2.76,0,0,0-.11-1.31,4.46,4.46,0,0,1-.39-.9,4.48,4.48,0,0,1-.16-2.38,3.73,3.73,0,0,1,.2-.56c.07-.13.21-.23.21-.39a.25.25,0,0,0-.25-.23.32.32,0,0,0-.25.2,3,3,0,0,0-.42,1.07A5.34,5.34,0,0,0,35.42,12v0a3.54,3.54,0,0,1,0,1.77,3.94,3.94,0,0,0,.07,1.41,5.94,5.94,0,0,0,.95,2c.13.21.29.4.41.6A.25.25,0,0,0,37.19,17.85Z"/><path class="cls-4" d="M35.1,12.78a3.23,3.23,0,0,0,.63-.47.32.32,0,0,0,.11-.27.23.23,0,0,0-.46,0c-.14.09-.26.21-.39.31a.27.27,0,0,0-.19.33A.24.24,0,0,0,35.1,12.78Z"/><path class="cls-11" d="M39.37,17.39a5.33,5.33,0,0,0,.65-1,.25.25,0,1,0-.46-.15,6.48,6.48,0,0,1-.51.84A.24.24,0,0,0,39.37,17.39Z"/><path d="M36.45,32.35Z"/><polygon points="36.45 32.35 36.45 32.35 36.45 32.35 36.45 32.35"/><polygon points="36.45 32.34 36.45 32.35 36.45 32.35 36.45 32.34"/><polygon points="36.45 32.34 36.45 32.34 36.45 32.34 36.45 32.34"/><path d="M36.45,32.32Z"/><polygon points="36.45 32.32 36.45 32.32 36.45 32.32 36.45 32.32"/><polygon points="35.22 28.71 35.22 28.72 35.22 28.72 35.22 28.71"/><path d="M32.28,28.15h0l.09.11.1.1,0,0A2.39,2.39,0,0,1,32.28,28.15Z"/><path class="cls-11" d="M44.9,17.39a.24.24,0,0,0,.15-.41,3.46,3.46,0,0,1-.22-.69,3.32,3.32,0,0,1,0-.77.24.24,0,0,0-.48,0,3,3,0,0,0,.14,1.31C44.56,17,44.61,17.4,44.9,17.39Z"/><path class="cls-4" d="M44.88,4.28a7.67,7.67,0,0,0-4.63-.54,9.65,9.65,0,0,0-1.2.18,6.07,6.07,0,0,0-2.79,1.49,2.48,2.48,0,0,0-.84,2.33,7,7,0,0,0,1.15,2.76,34.45,34.45,0,0,1,2,3c.06.14.17.3.32.27s.18-.19.21-.32a12.5,12.5,0,0,0,.17-1.37,1.13,1.13,0,0,1,.31-.85.65.65,0,0,1,.77,0,1.18,1.18,0,0,1,.4.7,2.32,2.32,0,0,1-.32,1.83c-.12.18-.26.46-.07.58s.38-.11.47-.31a3.56,3.56,0,0,1,.23.72,1.07,1.07,0,0,0,.39.62.47.47,0,0,0,.66-.1.77.77,0,0,0,1.12-.46,1.06,1.06,0,0,0,.51.57.56.56,0,0,0,.69-.2,1.45,1.45,0,0,0,.22.49.47.47,0,0,0,.48.18c.24-.08.32-.36.37-.6a11.05,11.05,0,0,1,.4-1.5c.32-1,.74-1.91,1-2.9A7.21,7.21,0,0,0,47,7.31a4.72,4.72,0,0,0-2-2.94Zm1.57,6.45c-.43,1.55-1.27,3-1.47,4.58a1.17,1.17,0,0,1-.24-.47c-.07-.17-.24-.33-.41-.28s-.28.48-.51.45a1.31,1.31,0,0,0-.33-.64.46.46,0,0,0-.65,0,1.37,1.37,0,0,0-.11.36c0,.12-.15.24-.27.2s-.11-.07-.17-.11a.4.4,0,0,0-.6.19,3.58,3.58,0,0,1-.49-1.2,6.66,6.66,0,0,1,0-1.18,2.18,2.18,0,0,0-.47-1.57,1.16,1.16,0,0,0-1.51-.24c-.32.24-.88,1.43-.58,1.83a13.49,13.49,0,0,1-2.75-4.81,2.18,2.18,0,0,1-.07-1A2,2,0,0,1,36.38,6,6.88,6.88,0,0,1,41.33,4.1,5.78,5.78,0,0,1,45,4.89a4.12,4.12,0,0,1,1.41,1.88,6.29,6.29,0,0,1,.15,3.72Z"/><path class="cls-13" d="M32.45,20.26c.19.22.46-.2.46-.49q0-8.82,0-17.64a.7.7,0,0,0-.14-.51.7.7,0,0,0-.5-.13L3.05,1.56a.28.28,0,0,0-.2.06.3.3,0,0,0-.05.19L3,26.89v.35L32.77,28.4a.55.55,0,0,0,.44-.11.56.56,0,0,0,.09-.38l-.06-2.74c0-.21-.12-.51-.32-.43s-.15.21-.15.35l0,2.89c0-.2-21.34-.94-23.29-1s-3.95,0-5.94,0Q3.41,14.47,3.27,2L32.37,2Z"/><path class="cls-13" d="M35.55,58.08a3.91,3.91,0,0,0-.4-.68L33,54.33a6.29,6.29,0,0,1-.91-1.64,6.31,6.31,0,0,1-.19-1.94l.21-20.83,2.07.16a13.45,13.45,0,0,0,.06-5.65,32.6,32.6,0,0,0-.35,5.13l-32-1.45Q2,14.28,2,.45c2.41,0,4.8.06,7.2.07l2.92,0L18,.59c3.9,0,7.79.09,11.69.15l4,.07a34.31,34.31,0,0,0-.15,7q.27,5.82.55,11.64L34,.55A37.36,37.36,0,0,0,28.25.2L2.35,0a.87.87,0,0,0-.69.2.84.84,0,0,0-.14.56q0,13.61-.1,27.2l-.81-.12Q.54,24.65.48,21.45a18.5,18.5,0,0,0-.4,5.89,1.39,1.39,0,0,0,.26.8,1.39,1.39,0,0,0,1,.34l3.28.33Q4.46,38,4.07,47.14a4.59,4.59,0,0,0-1.95-.06c-.61,1.12-.14,2.49.34,3.67L5.11,57.3A2.93,2.93,0,0,0,6.35,59a.35.35,0,0,0,.06.16c.19.19.6.16.85.2.48,0,1,.1,1.44.16.23,0,.35-.23.38-.44a7.52,7.52,0,0,0,.15-.95.32.32,0,0,0-.09-.23l0,0A33.72,33.72,0,0,1,7,51.79a35.38,35.38,0,0,1-.56-8.23q.06-7.37.13-14.74l23.53,1-.27,19.82a2.73,2.73,0,0,0-3-.8c-.61,1.24.25,2.68,1.08,3.79L31.84,58a4.26,4.26,0,0,0,1.88,1.67c.81.27,1.91-.2,1.94-1A1.18,1.18,0,0,0,35.55,58.08Zm-31-9.44c0-.73,0-1.46.07-2.19,0-1.46.09-2.92.13-4.39L5,33.3c0-1.49.09-3,.13-4.47l.79,0c.19,7.24.38,14.5-.11,21.73a2.74,2.74,0,0,1-.31,1.3.56.56,0,0,1-.3.27c-.31.09-.59-.25-.63-.57,0-.12,0-.23,0-.35A22.73,22.73,0,0,1,4.53,48.64Zm-.78-1.08c.1,0,.21.06.32.08,0,.59,0,1.18,0,1.77,0,.28,0,.56,0,.84-.13-.33-.27-.66-.39-1-.25-.6-.55-1.18-.81-1.78C3.16,47.54,3.45,47.51,3.75,47.56Zm5,10.67c0,.11,0,.22-.05.34s0,.29-.09.43c-.58-.12-1.17-.11-1.76-.2,0-.2.07-.39.12-.59a.24.24,0,0,0-.47-.11c0,.19-.07.35-.1.52a70.24,70.24,0,0,1-3.84-9.13,1.92,1.92,0,0,1,0-1.7l3,7.87a5,5,0,0,0,1.31,2.2,1.92,1.92,0,0,0,1.86.33Zm-2-5.61a18.92,18.92,0,0,0,.72,2.08,15.05,15.05,0,0,0,1.21,3c-.54.07-1.08-.09-1.61,0A21.94,21.94,0,0,1,5.9,55.17c-.31-.78-.69-1.56-1-2.35l-.06-.19a1.4,1.4,0,0,0,.37,0c.09,0,.82-.62.73-.62a.25.25,0,0,0,.23-.25,4.9,4.9,0,0,1,0-.54C6.39,51.71,6.55,52.17,6.71,52.62Zm25,.66c.06.09.12.19.19.28a20.14,20.14,0,0,1,1.59,2.31A13.18,13.18,0,0,0,34.25,57c.09.13.48,1,.61,1a4.9,4.9,0,0,0-1.21,0c-.89-1.43-1.9-2.76-2.91-4.1a1.12,1.12,0,0,0,.48,0,.56.56,0,0,0,.46-.45ZM30.37,41.52c.08-2.74.18-5.47.19-8.2,0-1.17,0-2.34,0-3.51l1,.06c0,7.57,0,15.13-.24,22.69,0,.36-.14.84-.5.83s-.46-.47-.47-.81l-.06-2C30.22,47.53,30.29,44.52,30.37,41.52Zm-1.94,7.81.46,0a.58.58,0,0,1,.14,0,.35.35,0,0,1,.11.13,3.44,3.44,0,0,1,.72,1.62c0,.5,0,1,0,1.52l-2.42-3.38ZM35,59a1.55,1.55,0,0,1,0,.21,4.14,4.14,0,0,1-1.11,0A3.21,3.21,0,0,1,34,58.7a.24.24,0,0,0-.47-.11,2.56,2.56,0,0,1-.05.27,1.1,1.1,0,0,1,0,.18,45.7,45.7,0,0,1-2.93-3.58c-.29-.43-.6-.88-.9-1.29s-.5-.83-.78-1.22c-.53-.82-1.22-1.54-1.78-2.34a6,6,0,0,1,.13-.88,2.4,2.4,0,0,1,.32.39c1.07,1.67,2.33,3.22,3.5,4.82.76,1,1.44,2,2.12,3,.14.21.27.63.59.5a1.29,1.29,0,0,1,.73,0l.58,0a.19.19,0,0,0,.11.21C35.09,58.75,35.06,58.86,35,59Z"/><path class="cls-2" d="M29.21,18.57a2.07,2.07,0,0,0-1.61.8,4,4,0,0,0-.68,2.37c.21.44,1.4,2.93,2.06,3.31a3.16,3.16,0,0,0,2.28.44c.86-.18,1.74-.81,2.67-.68a3.06,3.06,0,0,0,1.29,0s.39,1.64.45,2.29a11,11,0,0,1-.06,2.9c-.2.94-.55,3-.25,3.56s.44,1.86.71,2.44.35,2,1.08,2.49,1.87-.06,2.55.28,2.85,1.18,3.76.86,2-1.34,3.22-1.41,2.88-.24,3.24-1.88-.44-4.39-.57-5.13a13,13,0,0,1-.12-1.87,16.06,16.06,0,0,0,.67-5.18c-.28-2-1.08-5.84-3.84-6.71s-3.73.21-5,.08a8.56,8.56,0,0,0-3.6.11,24.62,24.62,0,0,1-3,1.47A11.1,11.1,0,0,0,32,20.62a4.41,4.41,0,0,0-.77.64,17.15,17.15,0,0,1-1.06-1.53A5.48,5.48,0,0,0,29.21,18.57Z"/><path class="cls-3" d="M50.16,33.83c0-.28-.11-.56-.18-.83a12.12,12.12,0,0,1-.48-3,16.87,16.87,0,0,1,.44-2.54,12.87,12.87,0,0,0,0-4.63,8.62,8.62,0,0,0-1.69-3.92,5.23,5.23,0,0,0-3.68-2c-1.17-.06-2.32.36-3.5.36a15.67,15.67,0,0,0-2.9-.1,14.73,14.73,0,0,0-2.94,1.36,5.11,5.11,0,0,0-1.41.68c-.22.18-.39.42-.62.59-.61.42-1.63.33-1.91,1L30.1,19a1.89,1.89,0,0,0-.51-.58,1.54,1.54,0,0,0-1.73.27,3.42,3.42,0,0,0-1.17,2.54c0,.94.87,2.08,1.35,2.86a4.08,4.08,0,0,0,1,1.14,3.58,3.58,0,0,0,2.91.27,10.79,10.79,0,0,1,2.95-.58,11.56,11.56,0,0,1,.57,4.56,19.28,19.28,0,0,0-.28,4.41,9.85,9.85,0,0,0,.29,1.22l.6,2.12a2.49,2.49,0,0,0,.65,1.28c.59.52,1.49.38,2.27.45,1.45.13,2.78,1.08,4.23.92s2.41-1.2,3.74-1.42a13.41,13.41,0,0,0,1.42-.16,2.86,2.86,0,0,0,1.87-2.26A6,6,0,0,0,50.16,33.83Zm-.53,2.64a1.81,1.81,0,0,1-.58,1c-.8.69-2,.41-3,.75-.72.25-1.3.82-2,1.07-1.78.64-3.65-.77-5.54-.8A2.27,2.27,0,0,1,37,38.21a1.53,1.53,0,0,1-.41-.62c-.94-2.24,0-4.81-.1-7.24l-.74,4.51c-.72-3.21.94-6.77-.4-9.77,0,.26.5.09.46-.17s-.32-.39-.57-.44a7,7,0,0,0-3.12.5,3.39,3.39,0,0,1-3-.26,3.66,3.66,0,0,1-.8-1.07c-.4-.7-1.17-1.65-1.14-2.48A2.74,2.74,0,0,1,28.35,19a1.06,1.06,0,0,1,.85-.18,1.47,1.47,0,0,1,.69.78,8.24,8.24,0,0,0,1.19,1.68.43.43,0,0,0,.31.17c.16,0,.24-.18.32-.31a1.29,1.29,0,0,1,1.38-.56.52.52,0,0,0,.3,0c.16,0,.21-.25.27-.42.29-.78,1.29-.94,2.05-1.27s1.35-.86,2.1-1.11c1.11-.36,2.32,0,3.48,0s2.18-.42,3.28-.36a5.09,5.09,0,0,1,3.84,2.5,9.66,9.66,0,0,1,1.25,4.54,10.24,10.24,0,0,1-.41,4c-.42,1.24-1.17,2.34-1.61,3.57-.07.18-.06.46.13.47s.21-.13.26-.24l.94-2a33.72,33.72,0,0,1,.76,4.78A4.68,4.68,0,0,1,49.63,36.47Z"/><polygon class="cls-3" points="36.45 32.32 36.45 32.33 36.45 32.32 36.45 32.32"/><path class="cls-3" d="M31.12,21.21l0,0h0S31.11,21.2,31.12,21.21Z"/><path class="cls-14" d="M13,16.36a2.55,2.55,0,0,0,2.82,1.45c2-.44,2-2.48,3.94-2.16s1.62,2,2.81,2.16a5.28,5.28,0,0,0,2.27-.3"/><path class="cls-3" d="M49.76,35.34s0,0,0-.07,0-.07,0-.11h0l.11,0a.24.24,0,0,0-.1-.47v-.05a.23.23,0,0,0,0-.33.24.24,0,0,0-.22-.4l0,0a.25.25,0,0,0-.08-.45.22.22,0,0,0,0-.37c.11-.07.21-.15.32-.21h0a1.08,1.08,0,0,1-.08-.19.77.77,0,0,1,0-.25h-.1a.21.21,0,0,0-.08-.17.23.23,0,0,0-.1-.4.24.24,0,0,0-.06-.28.26.26,0,0,0,0-.28.21.21,0,0,0-.07-.3.26.26,0,0,0,0-.15l0-.1a.29.29,0,0,0-.12-.3.36.36,0,0,0,0-.09.25.25,0,0,0-.06-.32l0,0a6.19,6.19,0,0,0,.37-1.1s.06-.05.07-.09a7.35,7.35,0,0,0,.18-2.19s0,0,0,0c0-.24.07-.49.09-.73a.21.21,0,0,0-.1-.19.23.23,0,0,0,0-.43c0-.06,0-.13,0-.2s0,0,0,0a.24.24,0,0,0-.08-.2l0,0a.24.24,0,0,0,.11-.39l.17-.06a.23.23,0,0,0,.1-.4l0,0,0,0a.29.29,0,0,1,0-.1c0-.08,0-.16,0-.24s0-.06,0-.09v-.16a.22.22,0,0,0-.24-.08.26.26,0,0,0-.11-.34c0-.05,0-.11,0-.16h0l-.24-1.44c0-.2-.23-.21-.36-.12A.34.34,0,0,0,49,21a.66.66,0,0,1,.06-.27.25.25,0,0,0-.33-.29l0-.07a.23.23,0,0,0-.11-.21c-.12-.26-.24-.51-.38-.76a.23.23,0,0,0-.19-.1.25.25,0,0,0-.16-.29l-.15,0a.18.18,0,0,0,0-.1.25.25,0,0,0-.14-.29.26.26,0,0,0-.09-.14.82.82,0,0,0-.24-.1.27.27,0,0,0-.25-.29h-.13a.23.23,0,0,0-.26-.14.2.2,0,0,0-.13-.11.27.27,0,0,0-.07-.08,1.1,1.1,0,0,0-.58-.16.27.27,0,0,0-.1-.08,5.31,5.31,0,0,0-3.13.11c-.24.09-.23.53.07.5a7.15,7.15,0,0,1,2,.07,2.83,2.83,0,0,0-.4.17c-.21.11-.13.49.12.47l.62-.11a.53.53,0,0,0-.19.27.28.28,0,0,0,.13.29,2.22,2.22,0,0,0-.39.23.25.25,0,0,0,.19.45l.53-.07a.19.19,0,0,0,.21.14l.17,0a.26.26,0,0,0,.3.24l.85-.17-.16.09a.25.25,0,0,0,.19.46l.18,0a.25.25,0,0,0,.08.16l-.06,0c-.26.15-.07.5.2.46l.1,0-.23.16a.25.25,0,0,0,0,.44.24.24,0,0,0,.15.44c0,.17.07.36.28.29l1-.42.08.14a5.23,5.23,0,0,0-1.55.55.23.23,0,0,0,0,.36l-.07,0c-.22.15-.09.56.19.45l.62-.19s0,.05,0,.06l-.22.1c-.23.1-.12.38.08.44a.25.25,0,0,0,.06.36.23.23,0,0,0,0,.25s-.11.06-.17.1a.25.25,0,0,0,.05.44c-.15.18-.05.51.21.42h0a.24.24,0,0,0,0,.31l-.08,0a.26.26,0,0,0,0,.44l-.06,0c-.17.13-.15.47.13.46l-.14.11a.22.22,0,0,0,0,.27.27.27,0,0,0,.07.28.23.23,0,0,0,0,.32l-.09.06a.26.26,0,0,0,.15.42h0a.26.26,0,0,0,.25.42l0,0,.08.09a.23.23,0,0,0,0,.3l-.16.17a.3.3,0,0,0,0,.36l-.11.13a.26.26,0,0,0,0,.3l-.13.12a.28.28,0,0,0,0,.3l-.09.1a.25.25,0,0,0,0,.34.16.16,0,0,0,0,.08c-.11.26-.22.53-.34.79a.25.25,0,0,0,.43.25c.23-.32.45-.65.67-1a.25.25,0,0,0,.17.26.22.22,0,0,0,0,.08.72.72,0,0,0-.13.73.57.57,0,0,0,.11.11,1,1,0,0,0-.14.2.28.28,0,0,0,0,.28.22.22,0,0,0,.06.32,1.79,1.79,0,0,0-.14.13.22.22,0,0,0,0,.31,3,3,0,0,0-.33.29.25.25,0,0,0,.09.41l-.13.09a.19.19,0,0,0-.05.25l0,0a.25.25,0,0,0-.07.34l-.4.19c-.25.12-.08.48.17.45l-.76.43a.25.25,0,0,0,.2.46l.19-.05-.1.05a.21.21,0,0,0-.08.32c-.35.14-.7.29-1.06.41s-.18.59.13.49a2.65,2.65,0,0,1,.57-.15.17.17,0,0,0-.08.14h-.12c-.33,0-.31.47,0,.5a3.67,3.67,0,0,0,1,0,.25.25,0,0,0,.24.08,2.6,2.6,0,0,0,1.12-.57h0l0,0a2.7,2.7,0,0,0,.61-.81l0,0,.1-.1,0,0h0l0,0a.05.05,0,0,0,0-.05,1.45,1.45,0,0,0,.24-1A.22.22,0,0,0,49.76,35.34Z"/><path class="cls-3" d="M49.18,27.4s0,0,0,0a5.42,5.42,0,0,1-.06.58h0a.28.28,0,0,0-.06-.25.21.21,0,0,0,0-.25Z"/><path class="cls-3" d="M36.43,31.54a.25.25,0,0,0-.38.2A1.29,1.29,0,0,1,36,32a.26.26,0,0,0-.29.23c0,.2,0,.4,0,.6a.2.2,0,0,0-.14.21v1.56a.25.25,0,0,0,.5,0v-.55s0,0,0-.07c0-.39.07-.77.11-1.15,0,0,0,0,0,0A2.33,2.33,0,0,0,36.5,32,.23.23,0,0,0,36.43,31.54Zm0,0h0Z"/><path class="cls-3" d="M35.48,24.46a4.4,4.4,0,0,1-.4-.46v-.15a.24.24,0,0,0-.36-.2.25.25,0,0,0-.22-.12.24.24,0,0,0-.27,0,.88.88,0,0,0,0-.15.21.21,0,0,0-.32-.08.25.25,0,0,0-.47.1v0a.24.24,0,0,0-.37,0c-.1-.23-.47-.22-.46.07h0a.25.25,0,0,0-.33.22.36.36,0,0,0,0,.1.25.25,0,0,0-.19,0,.24.24,0,0,0-.3.12.28.28,0,0,0-.41.13s-.09.29-.15.23a.25.25,0,0,0-.39.05,1.59,1.59,0,0,1-.18.34.22.22,0,0,1-.09.1s0,0,0,0a.39.39,0,0,1-.08-.14.26.26,0,0,0-.42-.11.43.43,0,0,1-.28.15,1.15,1.15,0,0,1-.42-.34c-.15-.2-.51,0-.42.24a.9.9,0,0,0,.72.59,1.56,1.56,0,0,0,.74.12.43.43,0,0,0,.23,0h0a.44.44,0,0,0,.25,0s.23-.12.13-.13c.05,0,.14.11.2.13.29.12.66-.1.95-.32a.27.27,0,0,0,.25,0,.22.22,0,0,0,.15-.06.24.24,0,0,0,.36-.07.18.18,0,0,0,.16-.22h.06a.24.24,0,0,0,.32.08.23.23,0,0,0,.31-.1h0a.34.34,0,0,0,.16.1.42.42,0,0,1,.06.08.26.26,0,0,0,.38,0h0a.22.22,0,0,0,.22,0v0c.1.23.43.1.44-.11,0,.05.09.11.14.15A.25.25,0,0,0,35.48,24.46Zm-4.22.33h.12l0,0v0h0C31.23,24.85,31.33,24.84,31.26,24.79Z"/><path class="cls-9" d="M49.56,42a.09.09,0,0,1,0,0,1.37,1.37,0,0,0-.07-.29.78.78,0,0,0-.11-.18c0-.1,0-.21.05-.31a.3.3,0,0,0-.12-.28l.15-.2c.11-.15,0-.36-.21-.37,0-.19,0-.37,0-.56a.31.31,0,0,0-.14-.22,1.31,1.31,0,0,0,.12-.46,4,4,0,0,0-.13-.69c-.07-.31-.55-.18-.49.13A4.17,4.17,0,0,1,48.44,40a.25.25,0,0,0,.29.25l0,.4a4.13,4.13,0,0,1-.63.32.25.25,0,0,0,.06.49l.17,0-.15.16a.26.26,0,0,0,.14.42l-.07.06a.24.24,0,0,0,0,.37.21.21,0,0,0,0,.24,2.2,2.2,0,0,0-.36,0,.24.24,0,0,0,0,.47l-.29.22a.22.22,0,0,0,0,.11.25.25,0,0,0-.07.41c-.18.09-.24.41,0,.47l.33,0a.31.31,0,0,0,0,.25l-.12.11a.31.31,0,0,0,0,.29,2.4,2.4,0,0,0-.38.27.23.23,0,0,0,0,.37h0c-.21.18.08.56.3.39l.05,0h0l.16-.1h0a.23.23,0,0,0-.14.08l-.25.29a1.76,1.76,0,0,0-.84.31.29.29,0,0,0-.07.36c-.11.07-.22.12-.33.2s-.14.47.12.46a.24.24,0,0,0,.12.3s-.08.07-.11.12a.24.24,0,0,0,.12.35l0,0a.25.25,0,0,0,.25.37l0,.27a.88.88,0,0,0-.66.14.26.26,0,0,0,.06.46.53.53,0,0,0,.12,0v0a.26.26,0,0,0,0,.31l-.15.16c-.12.15-.06.42.16.42a.19.19,0,0,0-.11.15s0,0,0,.07h0s0,0,0,.07l0,0a.22.22,0,0,0,0,.29,1.69,1.69,0,0,0,.07.38.52.52,0,0,0,0,.11v0l-.19.1a.19.19,0,0,0-.11.21l-.2.11c-.18.09-.14.28,0,.39l-.12,0a.27.27,0,0,0-.12.39l-.06,0c-.27.07-.19.4,0,.46l-.2.08h0l-.06,0c-.28.13-.07.5.19.45l.41-.06-.07,0a.23.23,0,0,0,0,.36.24.24,0,0,0,.12.32l-.12,0c-.26.08-.22.51.07.49h0l-.07,0c-.3.12-.18.59.13.49l0,0s0,0,0,.06a.22.22,0,0,0,0,.26v0h-.33c-.28,0-.3.32-.11.45l-.47.06a.25.25,0,0,0,0,.48,1.94,1.94,0,0,0,.48,0l-.12,0a.25.25,0,0,0-.17.31.51.51,0,0,0,.34.32h0a.22.22,0,0,0-.11.38h0a.25.25,0,0,0-.19.4h-.06c-.27,0-.36.45-.07.49h.07a3,3,0,0,0,1.2,0h.11a.26.26,0,0,0,.09-.05c.43,0,1.15-.16,1.12-.62a.27.27,0,0,0-.17-.33l-.07,0a.68.68,0,0,0,.25-.46.26.26,0,0,0,.34-.22c0-.41,0-.82,0-1.23a.23.23,0,0,0,.07-.22c0-.26-.08-.51-.12-.77a.61.61,0,0,0,0-.14.29.29,0,0,0,0-.09.19.19,0,0,0,0-.13c0-.47,0-.94-.11-1.42a.25.25,0,0,0-.2-.22c0-.07,0-.15,0-.23a.19.19,0,0,0-.15-.15,5.25,5.25,0,0,0-.08-.68c0-.43,0-.86,0-1.3,0-.19-.14-.25-.28-.22l-.06,0h0l.08,0a.25.25,0,0,0,0-.39.25.25,0,0,0,0-.22h0s0,0,.08,0l.08,0h0a.27.27,0,0,0,.1-.18c0-.19,0-.38,0-.57l.15-.45a.56.56,0,0,0,.19-.3s0-.06,0-.09c.18-.34.37-.67.56-1a.23.23,0,0,0-.08-.33c.13-.34.26-.68.36-1l.19-.13a.25.25,0,0,0-.06-.39l0-.1v0A.25.25,0,0,0,48.8,45l.18-.46h0a.24.24,0,0,0,0-.39.26.26,0,0,0-.05-.37l.33-.18a.27.27,0,0,0,0-.39A2.32,2.32,0,0,0,49.56,42Z"/><path class="cls-9" d="M44.76,60.55l-.07,0a.21.21,0,0,0,0-.06.25.25,0,0,0,.18-.24,11,11,0,0,0-.39-2.91.19.19,0,0,0-.09-.12.18.18,0,0,0-.08-.14V57a.41.41,0,0,0,.19-.31.52.52,0,0,0,0-.14.25.25,0,0,0-.09-.43l-.13,0v0a.24.24,0,0,0-.08-.39.24.24,0,0,0,0-.24h0a.4.4,0,0,0,.15-.3c0-.06,0-.12,0-.17a.21.21,0,0,0-.08-.23,17.45,17.45,0,0,0-.06-1.77.22.22,0,0,0-.07-.16s0-.08,0-.12a.22.22,0,0,0,0-.27s0,0,0-.05l0,0a.27.27,0,0,0,.1-.33.24.24,0,0,0,0-.37l0,0c.18-.1.16-.43-.06-.46H44.3a.23.23,0,0,0,0-.36.25.25,0,0,0,0-.37.61.61,0,0,0,.14-.17.26.26,0,0,0,0-.21l.12-.07a.25.25,0,0,0,0-.42.27.27,0,0,0,0-.29l.06,0a.27.27,0,0,0,0-.36l0,0a.3.3,0,0,0,0-.35l.07-.09a.26.26,0,0,0,0-.19l0,0a.24.24,0,0,0,0-.35l.22-.18a.25.25,0,0,0,0-.39l0,0,0,0a.24.24,0,0,0,0-.26.23.23,0,0,0-.06-.3l.06-.06a.24.24,0,0,0,.05-.25l.16-.1a.25.25,0,0,0-.08-.45,1.45,1.45,0,0,0,.19-.17.25.25,0,0,0,0-.38l.06-.07a.24.24,0,0,0-.07-.32.24.24,0,0,0,0-.26l0,0a.23.23,0,0,0,0-.31,1.2,1.2,0,0,0,.56-.73.51.51,0,0,0-.4-.57.25.25,0,0,0-.13.48c.08,0-.62.65-.67.69a.21.21,0,0,0,0,.33l-.05,0a.24.24,0,0,0,0,.25l0,0a.25.25,0,0,0,.08.45l0,0a.25.25,0,0,0-.06.35l0,0a.2.2,0,0,0-.11.26h0l-.06,0a.23.23,0,0,0-.08.33.25.25,0,0,0,0,.36l0,0a.24.24,0,0,0,0,.33.27.27,0,0,0,.06.38.24.24,0,0,0,.07.3l-.21.18a.23.23,0,0,0,0,.3l-.13.07a.21.21,0,0,0,0,.36.23.23,0,0,0,.07.29.24.24,0,0,0,0,.32h0c-.18.08-.15.25,0,.37l-.1,0h0l-.07,0a.22.22,0,0,0-.07.33.27.27,0,0,0-.07.42.24.24,0,0,0,0,.38l-.23.14a1.71,1.71,0,0,0,.14.79l0,0a.23.23,0,0,0-.11.18.25.25,0,0,0,.15.41,2.85,2.85,0,0,1-.31.12.23.23,0,0,0-.15.33h-.08a.23.23,0,0,0-.11.38.26.26,0,0,0-.06.45.22.22,0,0,0,.27.18l-.18.09c-.23.1-.1.45.13.45a.23.23,0,0,0,.09.34l-.16.07a.25.25,0,0,0,0,.47.22.22,0,0,0,.08.35l-.05,0a.24.24,0,0,0,0,.47A.39.39,0,0,0,43,56s-.05,0-.07.05l-.11,0c-.26.08-.23.53.06.49h.07c.1,0,.2,0,.3-.05a.23.23,0,0,0-.06.22l-.21.12a.23.23,0,0,0-.1.2.24.24,0,0,0,.06.36l.21.09-.35.05a.25.25,0,0,0,0,.5h0a.29.29,0,0,0,0,.09c-.17.14-.15.46.12.44h.18a.26.26,0,0,0,.28.38l.27,0h0l-.14,0a2,2,0,0,0-.24,0,.26.26,0,0,0-.15.33.24.24,0,0,0,0,.28h0a.25.25,0,0,0,.07.49h.25a.23.23,0,0,0,.07.43.24.24,0,0,0,.17.31.26.26,0,0,0,0,.4.23.23,0,0,0-.06.19l-.2.09a.23.23,0,0,0,0,.39,1.84,1.84,0,0,1-.62.05c-.29,0-.34.41-.07.49a3.41,3.41,0,0,0,1,.12.24.24,0,0,0,.22-.3,2.52,2.52,0,0,0,.79-.5.24.24,0,0,0,0-.35.22.22,0,0,0,.05-.23h0a.25.25,0,0,0,.11-.27A.25.25,0,0,0,44.76,60.55Z"/></g></g></svg>