<svg xmlns="http://www.w3.org/2000/svg" viewBox="0 0 53.84 22.83"><defs><style>.cls-1{fill:#d09971;}.cls-2{fill:#fcd4ac;}.cls-3{fill:#3c58a4;}.cls-4{fill:#e52823;}.cls-5{fill:#faed62;}.cls-6{fill:#6b1e1e;}.cls-7{fill:#cbc479;}.cls-8{fill:#9f2224;}.cls-9{fill:#2d3687;}</style></defs><g id="Layer_2" data-name="Layer 2"><g id="Card"><path class="cls-1" d="M3.42,21.4a1.54,1.54,0,0,0,1.4,1.26C6,22.69,15.26,20.92,16,20.73S29.83,18.27,31,18.12,42.6,16,43.78,15.9s7.69-1.12,8.42-1.33,1.32-.09,1.38-.55a3.2,3.2,0,0,0-.22-1.19L43.5,14.66l-17.6,3L11.44,20.15Z"/><path class="cls-2" d="M.79,6.88A1.52,1.52,0,0,0,.23,8.64c.25.88,2.37,11.36,3,12.17s4.08.32,5.35,0,10.6-1.88,11.3-2,13.14-2.32,14-2.44,10.32-1.71,11.68-2,7.37-1.06,7.8-1.5.15-2.06-.22-2.89-2.23-5.29-3.45-6.76S48.31.2,46.55.3,30.71,2.23,28.2,2.56,11.6,5,11.12,5,1.29,6.47.79,6.88Z"/><path class="cls-3" d="M40.4,2.57c-.43.08-1,1.59-1.53,1.95S35.29,12.17,35,12.61s-.53,1.18.36,1.13,6.1-.94,7.13-1.1l8.64-1.48-8-6.81C42.24,3.84,41.16,2.44,40.4,2.57Z"/><path class="cls-4" d="M16.88,7.17c-.22.19.43,1.64.76,2.16s2.44,5,2.63,5.4.21,1.12.56,1.17,2.91-.42,4.21-.56,4.31-.5,5.27-.64,3.11-.35,3.12-.94-1.83-3.56-2.3-4.31-2.44-4-2.86-4.16-6.5.76-7,.83S17.35,6.75,16.88,7.17Z"/><path class="cls-5" d="M3.05,11.41C2.93,12.55,3.47,16,6.21,17s7.07,1.48,9.15-.61,2.54-4.53.43-6S11.84,7.62,8.73,7.94a6.79,6.79,0,0,0-4.82,2.28A3.21,3.21,0,0,0,3.05,11.41Z"/><path class="cls-6" d="M53.82,12.75c-.24-3.93-2.46-7.53-4.61-10.88A4.09,4.09,0,0,0,47.71.26a4.13,4.13,0,0,0-2.24-.2C33.1,1.3,20.81,3.26,8.52,5.21l-6.38,1C1.25,6.37,0,6.76,0,7.83a24.81,24.81,0,0,0,.72,4.5A80.83,80.83,0,0,0,3,21.41a2.4,2.4,0,0,0,.42.9c.55.65,1.56.56,2.41.41L53,14.65a1.2,1.2,0,0,0,.66-.26,1.11,1.11,0,0,0,.2-.74C53.85,13.35,53.84,13.05,53.82,12.75ZM1,11.2A30.52,30.52,0,0,1,.51,8.07C.44,7.13,1.56,6.82,2.37,6.72,16.81,4.38,31.26,2,45.81.53a3.17,3.17,0,0,1,1.47.08,3,3,0,0,1,1.19,1.11,32.41,32.41,0,0,1,4.6,9c.23.71.36,1.64-.25,2a1.93,1.93,0,0,1-.7.23L5.4,21A2.61,2.61,0,0,1,4,21c-.72-.3-1-1.16-1.2-1.91q-.93-3.66-1.62-7.36C1.11,11.55,1.08,11.37,1,11.2Zm50.23,3.23L5.68,22.22a2.92,2.92,0,0,1-1.28,0c-.52-.14-1.14-.73-.25-.68a8.92,8.92,0,0,0,2.19-.17q23.45-4.14,46.92-8.06c.35.32-.26.79-.73.87Z"/><path class="cls-7" d="M8.91,11.88a2,2,0,0,0-.39.59c0,.2.26,1.5,2.06,1.24s1.09-1.61,1.09-1.61l-.28-.3a1.79,1.79,0,0,1-1.23.22C9.27,12,8.91,11.88,8.91,11.88Z"/><path class="cls-8" d="M24,9.22a.76.76,0,0,1-.12.65,1,1,0,0,0,.53,1.62c1.05.24,2.09.14,2.18-.69a1.82,1.82,0,0,0-.28-1.28,1.28,1.28,0,0,1-1.25.3C24.15,9.65,24,9.22,24,9.22Z"/><path class="cls-9" d="M41,8.42s-.49,1-.12,1.26a2.28,2.28,0,0,0,2,.38c.69-.29.88-.7.74-1.14s-.31-.86-.31-.86a1.86,1.86,0,0,1-1.24.52C41.27,8.63,41,8.42,41,8.42Z"/><path class="cls-6" d="M42.8,4.68a2.57,2.57,0,0,0-1.89.05c-1.57.69-1.94,3.06-.14,3.75a1.56,1.56,0,0,0-.19,1.18,1.25,1.25,0,0,0,.77.63,2.13,2.13,0,0,0,1.8-.1,1.34,1.34,0,0,0,.59-1.6c-.08-.18-.21-.36-.16-.55s.18-.23.28-.33a1.56,1.56,0,0,0,.42-1.51,2.13,2.13,0,0,0-1-1.28A2.3,2.3,0,0,0,42.8,4.68Zm.51,4.6a1.2,1.2,0,0,1-1.12.66c-.39-.06-1.11-.12-1.17-.59a6.13,6.13,0,0,1,.25-.72,4.31,4.31,0,0,0,.94.11,2.62,2.62,0,0,0,.9-.32A1.46,1.46,0,0,1,43.31,9.28Zm.36-2.13a1.72,1.72,0,0,1-.23.32,2.13,2.13,0,0,1-2,.73A1.55,1.55,0,0,1,41,5.25a2.15,2.15,0,0,1,1.74,0,1.87,1.87,0,0,1,.79.57,1.21,1.21,0,0,1,.27.93A1.19,1.19,0,0,1,43.67,7.15Z"/><path class="cls-6" d="M51,10.66,44.91,5.44c-1.07-.91-2.14-1.82-3.26-2.65a2.35,2.35,0,0,0-.95-.5c-1.22-.23-1.86,1.79-2.3,2.59s-.86,1.62-1.26,2.44c-.83,1.67-1.59,3.38-2.35,5.09a2.19,2.19,0,0,0-.25.86A.74.74,0,0,0,35,14a1,1,0,0,0,.49,0l13.26-2c.71-.11,1.41-.22,2.1-.39.29-.08.65-.3.53-.58a.67.67,0,0,0-.16-.18Zm-2.31.78c-1.92.32-3.85.62-5.77.9-.59.09-7.41,1-7.41,1.14-.19,0-.45,0-.49-.17a.52.52,0,0,1,0-.21,84,84,0,0,1,4.23-8.82,7.66,7.66,0,0,1,.76-1.18.67.67,0,0,1,.28-.22.56.56,0,0,1,.42,0,4.34,4.34,0,0,1,1.47.94l8.51,7.26Z"/><path class="cls-6" d="M11,8.56a3.53,3.53,0,0,0-2.27.11,1,1,0,0,0-.52.49,1.49,1.49,0,0,0-.36.65,1.37,1.37,0,0,0,.07,1.12,1.78,1.78,0,0,0,.7.93,1.17,1.17,0,0,0-.15.27.79.79,0,0,0-.15.87,2.16,2.16,0,0,0,2.27,1,2.1,2.1,0,0,0,1-.44,1.15,1.15,0,0,0,.21-1.65C13,11.05,12.77,9.21,11,8.56ZM8.29,10.21a1.32,1.32,0,0,1,1-1.2,2.38,2.38,0,0,1,1.62.12,2.26,2.26,0,0,1,.94.67A1.16,1.16,0,0,1,12,10.89a1.52,1.52,0,0,1-1.17.83,2.51,2.51,0,0,1-1.69-.14A1.45,1.45,0,0,1,8.29,10.21Zm3.28,2.27c.07.17-.06.32-.14.47a.89.89,0,0,1-.69.44c-.61.23-2,0-2-.82.15-.13.2-.33.34-.47a2.93,2.93,0,0,0,1.4.19,2.93,2.93,0,0,0,.89-.17A1.31,1.31,0,0,1,11.57,12.48Z"/><path class="cls-6" d="M17.14,11.63c-.16-.29-.4-.54-.58-.83a8.49,8.49,0,0,0-3.14-2.43,9.1,9.1,0,0,0-5.15-.64,5.75,5.75,0,0,0-.83.14A1.85,1.85,0,0,0,6.77,8a9.13,9.13,0,0,0-1.15.51A4.16,4.16,0,0,0,3,12.93c0,.32,0,.64,0,1A4.08,4.08,0,0,0,4.45,16a5.58,5.58,0,0,0,.93.82,6.72,6.72,0,0,0,1.41.6,19.61,19.61,0,0,0,4.17.67A6.11,6.11,0,0,0,12.18,18a4.66,4.66,0,0,0,.65-.12c.43-.14.83-.33,1.26-.48A10.32,10.32,0,0,0,16.16,16a1.94,1.94,0,0,0,.63-1,3.77,3.77,0,0,0,.57-1.26A3.44,3.44,0,0,0,17.14,11.63Zm-.77,3.18a5.62,5.62,0,0,1-3.13,2.37,9.61,9.61,0,0,1-4.4.23A7.89,7.89,0,0,1,5,15.88,4.11,4.11,0,0,1,5,9.47,6.44,6.44,0,0,1,7.87,8.29a8.76,8.76,0,0,1,8,2.43A3.68,3.68,0,0,1,16.92,13a3.07,3.07,0,0,1-.34,1.39A2.82,2.82,0,0,1,16.37,14.81Z"/><path class="cls-6" d="M25.58,6.2a2.59,2.59,0,0,0-1.91.23A3,3,0,0,0,23.2,7a1,1,0,0,0-.09.63,2.2,2.2,0,0,0,.22,1.13,2.91,2.91,0,0,0,.36.47s0,0,0,.06c.05.19-.11.36-.2.52a1.55,1.55,0,0,0-.14.95c.21.89,1.54,1.23,2.33,1.05A1.27,1.27,0,0,0,26.62,10a1.86,1.86,0,0,0,0-.33,2,2,0,0,0,1-1.1,2.12,2.12,0,0,0-.7-1.65A2.56,2.56,0,0,0,25.58,6.2Zm.61,4.73c-.46.69-1.71.49-2.23,0-.19-.19-.13-.52-.07-.76a3.29,3.29,0,0,0,.26-.49,2,2,0,0,0,1.36.28,2.09,2.09,0,0,0,.6-.1C26.09,10.2,26.39,10.56,26.19,10.93ZM27,8.51a1.21,1.21,0,0,1-.3.41,2,2,0,0,1-2.14.36,1.69,1.69,0,0,1-.93-1.9A1,1,0,0,1,23.81,7a1.45,1.45,0,0,1,1.37-.37A2.24,2.24,0,0,1,26.9,7.72a.94.94,0,0,1,.13.76Z"/><path class="cls-6" d="M33.52,13.41c0-.08-.06-.16-.08-.23a10.4,10.4,0,0,0-.78-1.61c-.72-1.38-1.48-2.72-2.3-4.05-.4-.64-.89-1.22-1.27-1.87-.12-.19-.23-.39-.36-.58l-.06,0A.27.27,0,0,0,28.28,5c-1.2.18-2.39.47-3.6.56-1.52.17-3,.39-4.55.6-.6.1-1.19.28-1.8.35a12.09,12.09,0,0,0-1.72.27.25.25,0,0,0-.2.26.26.26,0,0,0-.17.28c1.2,2.15,2.18,4.43,3.29,6.64.28.56.56,1.11.82,1.67a2.65,2.65,0,0,0,.29.52.24.24,0,0,0,.24.12A10.33,10.33,0,0,1,22.71,16c2.05-.35,4.11-.67,6.18-.9a10.05,10.05,0,0,1,1.45-.16c.47,0,.93-.19,1.4-.24a4.24,4.24,0,0,0,1.6-.44.75.75,0,0,0,.28-.25A.48.48,0,0,0,33.52,13.41Zm-2.2.8c-.47.08-.94.15-1.42.21l-8.65,1.2a.42.42,0,0,1-.25,0,.39.39,0,0,1-.17-.21l-2-4.18-1-2.09c-.25-.52-.89-1.38-.88-1.95a44.09,44.09,0,0,1,5.51-.82l5.68-.83a.39.39,0,0,1,.24,0,.37.37,0,0,1,.17.16,44.24,44.24,0,0,1,4.66,8.09A12.66,12.66,0,0,1,31.32,14.21Z"/></g></g></svg>